M48
;Layer_Color=9474304
;FILE_FORMAT=2:4
INCH,TZ
;TYPE=PLATED
T1F00S00C0.0079
T2F00S00C0.0157
T4F00S00C0.0295
T5F00S00C0.0402
T6F00S00C0.0421
T7F00S00C0.1260
%
T01
X15118Y14073
Y14685
X15424Y14991
X14812
X14506Y14685
X14812Y14379
X15424
X15731Y14685
X15118Y15297
T02
X6417Y-2122
X6476Y-1181
X8248
X8839
X8543Y-1772
X9724
X10020Y-2362
X12382
Y-1181
X12087Y-591
X13268
X13071Y-1531
X14154Y-1181
X14449Y-591
Y-1772
X14363Y-2645
X15846Y-1751
X15925Y-1181
X16220Y-591
X7929Y-591
X7067Y-2362
X7717Y669
X7657Y1181
X7362Y1772
X6929Y2087
Y1378
X8071Y2953
Y3346
X6929Y4331
X6969Y5748
X8780Y5827
X9173
X9961Y6339
X10315Y6496
X10905
X10610Y7087
X10020
X9429
X8839
X9134Y7677
X9724
X10315
X10238Y8138
X9963Y8413
X10514
X10789Y8138
X11065Y8413
Y8965
X11496Y8858
X10789Y8689
X10514Y8965
X10238Y8689
X9963Y8965
X10238Y9240
X10789
X10905Y10039
X11496
X11791Y9449
X12382
X12717Y10157
X13661Y10079
X13563Y9449
X13858Y9099
Y8626
X13465Y7799
X13740Y7327
Y6772
X13307Y5866
Y5236
X11654Y5709
X11496Y7677
X10905
X12126Y7799
X12972Y8268
X12992Y11063
X13701
X14213Y12244
X14238Y12830
X14134Y13346
X14882Y12760
X14685Y12051
X16220Y11855
X16145Y10933
X16575Y9296
X17244Y9094
X17638Y9291
X17835Y7406
X17992Y6457
X17557Y6459
X18425Y6417
X17257Y5512
X17244Y5000
X16811Y2953
X17244Y2477
X17697Y1181
X18287
X18878
X19468
X20059
X20354Y1772
X20945
Y2953
X20551Y3548
X20945Y4134
X20059Y4724
Y5905
X20945Y6496
X20669Y7051
X20787Y8233
X21240Y9449
X21890Y9532
X21772Y11776
X21240Y11811
X20650
X20059
X20354Y12402
X20945
X21535
X21240Y12992
X20630Y13036
X20945Y13583
X21535
X21240Y14173
X21535Y14764
X20945
X19173
X18878Y14173
X19173Y13583
X19080Y12603
X18465Y12474
X18032Y11850
X18150Y11453
X18772Y10478
X19387Y10591
X19488Y7677
X21775Y5000
X21535Y591
X20945
X18937Y1736
X16516Y1181
X14764Y945
X14449Y591
X14154Y1181
X13858Y945
Y1658
X14449Y1772
X14803Y2248
X14567Y3976
X15236Y6181
X15354Y9059
X11496Y11220
X10905
X10315
X9724
X9134
X8898Y10591
X9134Y10039
X9724
X10315
X9429Y9449
X8839
X9134Y8858
X8839Y8268
X9429
X7067
Y11811
X7441Y12244
X8425Y12480
X9016
X9409
X9724Y13583
X8543
X8898Y14532
X10945Y13469
X12087Y13583
X11791Y14173
X12283Y14296
X12047Y11929
X11220
X17021Y13805
X10945Y3898
X10906Y2008
X10020Y2362
X12382
X6417Y2087
X5906
X5394
Y1378
X5906
X6417
X6444Y-27
X5945Y-39
X5000Y591
X4409
X3819
X3228
X2638
X2047
X1457
X866
X571Y1181
X1161
X1752
X2342
X2933
X3524
X4114
X4705
X5000Y1772
X3228
Y2953
X2933Y3543
X3524
X2342
X1752
X1161
X571
X866Y4134
X1457
X2047
X2638
X2342Y4724
X1752
X1161
X571
X315Y5394
Y5737
X1339Y6181
X2205Y6732
Y7165
X2992Y6929
X3425
X3858
Y6378
X3425
X2992
X4409Y6496
X4705Y7087
X4496Y7645
X5000Y7677
X5433Y7756
Y7283
X5787Y8268
X5315Y8976
X4921Y9685
X5118Y11299
Y11929
X4705Y11811
X3524
X3228Y12402
X2933Y12992
X3228Y11220
X3150Y10236
X2795
X2441
X1024Y10276
Y10630
Y10984
X669Y11457
X315
X571Y11811
Y12992
Y14173
X1024Y9567
Y9213
Y8858
X1161Y8268
X1752
X433Y8110
X866Y2953
X1457
X1161Y2362
X571
X866Y1772
X1457
X3031Y4882
X6181Y5315
X6181Y5748
X6772Y12402
Y13583
Y14764
X6181
X5591
X5886Y14173
X6634Y15260
X6772Y15945
X5886Y16535
X6181Y17126
X6476Y17716
X6772Y18307
X6476Y18898
X4409Y15945
X3819
X3228
X2638
X2047
X1457
X866
X571Y15354
X7067
X7362Y15945
X7953
X8543
X8248Y16535
X8839
X8543Y17126
X7953
X7657Y16535
X7067Y17716
X7402Y18583
X8248Y18898
X9055Y18622
X9724Y18307
X9429Y17716
X8839
X10020Y18898
X12382
X12972
X13563
X13425Y18504
X13937
X14409
X14882
X14744Y18898
X15335
X14154
X13429Y17310
X13661Y16381
X14213Y16102
X14764Y16185
X15394
X16220Y17126
X15925Y17716
X16968Y15712
X17402Y15945
X17992
X18583
X19173
X19764
X20354
X20945
X21535
X21240Y15354
X20650
X20059
X19468
X18878
X18287
X13622Y15437
X12598Y16378
X11968Y16500
X11378Y16496
X10906Y16579
X12087Y17126
X12382Y17716
X10020Y15354
X9429
T04
X9252Y-2323
X8661Y-551
X11181Y1181
X12913Y39
X14016
X15906Y1929
X17047Y1496
X19370Y6969
X21496Y6732
X5197Y13858
X9252Y16968
T05
X18181Y1890
Y3071
Y13504
Y14685
X4063Y3071
Y1890
T06
X4063Y11122
Y12303
Y13484
Y14665
T07
X11104Y-1476
Y18012
M30
