G04*
G04 #@! TF.GenerationSoftware,Altium Limited,Altium Designer,23.0.1 (38)*
G04*
G04 Layer_Color=128*
%FSLAX25Y25*%
%MOIN*%
G70*
G04*
G04 #@! TF.SameCoordinates,07299077-2F5B-483E-86E5-57BC813F48C1*
G04*
G04*
G04 #@! TF.FilePolarity,Positive*
G04*
G01*
G75*
%ADD22R,0.03937X0.03543*%
%ADD23R,0.03347X0.03740*%
%ADD30R,0.03543X0.03937*%
%ADD37R,0.03740X0.03347*%
%ADD99O,0.01772X0.05512*%
%ADD100R,0.05906X0.08661*%
G04:AMPARAMS|DCode=101|XSize=21.65mil|YSize=49.21mil|CornerRadius=1.95mil|HoleSize=0mil|Usage=FLASHONLY|Rotation=90.000|XOffset=0mil|YOffset=0mil|HoleType=Round|Shape=RoundedRectangle|*
%AMROUNDEDRECTD101*
21,1,0.02165,0.04532,0,0,90.0*
21,1,0.01776,0.04921,0,0,90.0*
1,1,0.00390,0.02266,0.00888*
1,1,0.00390,0.02266,-0.00888*
1,1,0.00390,-0.02266,-0.00888*
1,1,0.00390,-0.02266,0.00888*
%
%ADD101ROUNDEDRECTD101*%
G04:AMPARAMS|DCode=102|XSize=86.79mil|YSize=23.94mil|CornerRadius=11.97mil|HoleSize=0mil|Usage=FLASHONLY|Rotation=180.000|XOffset=0mil|YOffset=0mil|HoleType=Round|Shape=RoundedRectangle|*
%AMROUNDEDRECTD102*
21,1,0.08679,0.00000,0,0,180.0*
21,1,0.06285,0.02394,0,0,180.0*
1,1,0.02394,-0.03143,0.00000*
1,1,0.02394,0.03143,0.00000*
1,1,0.02394,0.03143,0.00000*
1,1,0.02394,-0.03143,0.00000*
%
%ADD102ROUNDEDRECTD102*%
%ADD103R,0.08679X0.02394*%
%ADD104R,0.07874X0.09449*%
%ADD105O,0.09055X0.02362*%
%ADD106R,0.07087X0.05118*%
%ADD107R,0.05906X0.14173*%
%ADD108R,0.03937X0.02756*%
%ADD109R,0.10630X0.05118*%
%ADD110R,0.05512X0.05118*%
%ADD111R,0.05118X0.05512*%
G04:AMPARAMS|DCode=113|XSize=77.56mil|YSize=23.62mil|CornerRadius=2.95mil|HoleSize=0mil|Usage=FLASHONLY|Rotation=90.000|XOffset=0mil|YOffset=0mil|HoleType=Round|Shape=RoundedRectangle|*
%AMROUNDEDRECTD113*
21,1,0.07756,0.01772,0,0,90.0*
21,1,0.07165,0.02362,0,0,90.0*
1,1,0.00591,0.00886,0.03583*
1,1,0.00591,0.00886,-0.03583*
1,1,0.00591,-0.00886,-0.03583*
1,1,0.00591,-0.00886,0.03583*
%
%ADD113ROUNDEDRECTD113*%
%ADD114R,0.05118X0.10630*%
%ADD115R,0.01575X0.02756*%
G36*
X29213Y66024D02*
Y62835D01*
X33740D01*
Y66024D01*
X29213D01*
D02*
G37*
G36*
Y70236D02*
Y67047D01*
X33740D01*
Y70236D01*
X29213D01*
D02*
G37*
G36*
X34764Y66024D02*
Y62835D01*
X39291D01*
Y66024D01*
X34764D01*
D02*
G37*
G36*
Y70236D02*
Y67047D01*
X39291D01*
Y70236D01*
X34764D01*
D02*
G37*
D22*
X213779Y99705D02*
D03*
Y105020D02*
D03*
X165748Y128150D02*
D03*
Y122835D02*
D03*
Y103347D02*
D03*
Y98032D02*
D03*
X172441Y40551D02*
D03*
Y45866D02*
D03*
Y34154D02*
D03*
Y28839D02*
D03*
X130709Y154724D02*
D03*
Y160039D02*
D03*
X119685Y154921D02*
D03*
Y160236D02*
D03*
X213779Y76083D02*
D03*
Y81398D02*
D03*
X173228Y103347D02*
D03*
Y98032D02*
D03*
X181496Y110138D02*
D03*
Y104823D02*
D03*
D23*
X134055Y139370D02*
D03*
X128937D02*
D03*
X196260Y35433D02*
D03*
X201378D02*
D03*
X206890Y75984D02*
D03*
X201772D02*
D03*
X206890Y105118D02*
D03*
X201772D02*
D03*
X196063Y130315D02*
D03*
X201181D02*
D03*
X105709Y119291D02*
D03*
X100591D02*
D03*
X43110Y94882D02*
D03*
X37992D02*
D03*
X112008Y47244D02*
D03*
X106890D02*
D03*
X63976Y77559D02*
D03*
X58858D02*
D03*
X75787D02*
D03*
X70669D02*
D03*
X9646Y75590D02*
D03*
X4528D02*
D03*
X4331Y61811D02*
D03*
X9449D02*
D03*
X41535Y87795D02*
D03*
X36417D02*
D03*
D30*
X131201Y105512D02*
D03*
X136516D02*
D03*
X131102Y77953D02*
D03*
X125787D02*
D03*
X61024Y93307D02*
D03*
X66339D02*
D03*
X36713Y44488D02*
D03*
X42028D02*
D03*
X9843Y68898D02*
D03*
X4528D02*
D03*
D37*
X53150Y126575D02*
D03*
Y131693D02*
D03*
X115354Y69095D02*
D03*
Y63976D02*
D03*
D99*
X158465Y82480D02*
D03*
X155905D02*
D03*
X153347D02*
D03*
X150787D02*
D03*
X148228D02*
D03*
X145669D02*
D03*
X143110D02*
D03*
X158465Y105709D02*
D03*
X155905Y105709D02*
D03*
X153347Y105709D02*
D03*
X150787Y105709D02*
D03*
X148228Y105709D02*
D03*
X145669Y105709D02*
D03*
X143110Y105709D02*
D03*
D100*
X76968Y47687D02*
D03*
X52165Y47589D02*
D03*
D101*
X181496Y83071D02*
D03*
Y88071D02*
D03*
Y93071D02*
D03*
Y98071D02*
D03*
X202165Y83071D02*
D03*
Y88071D02*
D03*
Y93071D02*
D03*
Y98071D02*
D03*
D102*
X134052Y132697D02*
D03*
Y127697D02*
D03*
Y122697D02*
D03*
Y117697D02*
D03*
X154137Y117697D02*
D03*
Y122697D02*
D03*
Y127697D02*
D03*
D103*
X154137Y132697D02*
D03*
D104*
X185827Y40551D02*
D03*
Y56299D02*
D03*
D105*
X161417Y68976D02*
D03*
Y63976D02*
D03*
Y58976D02*
D03*
X161417Y53976D02*
D03*
X161417Y48976D02*
D03*
Y43976D02*
D03*
Y38976D02*
D03*
Y33976D02*
D03*
X161417Y28976D02*
D03*
X125591Y68976D02*
D03*
Y63976D02*
D03*
Y58976D02*
D03*
Y53976D02*
D03*
Y48976D02*
D03*
Y43976D02*
D03*
Y38976D02*
D03*
Y33976D02*
D03*
Y28976D02*
D03*
D106*
X92126Y119488D02*
D03*
Y130905D02*
D03*
X81890Y119488D02*
D03*
Y130905D02*
D03*
D107*
X81693Y105118D02*
D03*
X69685D02*
D03*
D108*
X52362Y101181D02*
D03*
X52362Y104921D02*
D03*
Y108661D02*
D03*
X61020D02*
D03*
Y104921D02*
D03*
X61020Y101181D02*
D03*
D109*
X27953Y96457D02*
D03*
Y107480D02*
D03*
X88583Y51968D02*
D03*
Y62992D02*
D03*
Y42126D02*
D03*
Y31102D02*
D03*
D110*
X99606Y42520D02*
D03*
Y36220D02*
D03*
Y51575D02*
D03*
Y57874D02*
D03*
D111*
X54528Y68110D02*
D03*
X65945D02*
D03*
D113*
X41752Y76279D02*
D03*
X36752D02*
D03*
X31752D02*
D03*
X26752D02*
D03*
Y56791D02*
D03*
X31752D02*
D03*
X36752D02*
D03*
X41752D02*
D03*
D114*
X16535Y92126D02*
D03*
X5512D02*
D03*
X16535Y106299D02*
D03*
X5512D02*
D03*
D115*
X159449Y161024D02*
D03*
X162205D02*
D03*
X110827Y160630D02*
D03*
X113583D02*
D03*
X110827Y148425D02*
D03*
X113583D02*
D03*
M02*
