G04*
G04 #@! TF.GenerationSoftware,Altium Limited,Altium Designer,23.0.1 (38)*
G04*
G04 Layer_Color=8388736*
%FSLAX25Y25*%
%MOIN*%
G70*
G04*
G04 #@! TF.SameCoordinates,07299077-2F5B-483E-86E5-57BC813F48C1*
G04*
G04*
G04 #@! TF.FilePolarity,Positive*
G04*
G01*
G75*
%ADD97C,0.03150*%
%ADD130C,0.01968*%
D97*
X57874Y82677D02*
D03*
X29921Y63779D02*
D03*
X30315Y48819D02*
D03*
X69291Y20866D02*
D03*
X64173D02*
D03*
X59055D02*
D03*
X53937D02*
D03*
X69291Y13780D02*
D03*
X64173D02*
D03*
X59055D02*
D03*
X53937D02*
D03*
X22047Y71653D02*
D03*
X6693Y114567D02*
D03*
X3150D02*
D03*
X112205Y119291D02*
D03*
X109449Y134688D02*
D03*
X22047Y67323D02*
D03*
X38583Y69291D02*
D03*
Y63779D02*
D03*
X34252Y69291D02*
D03*
Y63779D02*
D03*
X29921Y69291D02*
D03*
X44957Y76453D02*
D03*
X153937Y161853D02*
D03*
X136614Y163808D02*
D03*
X125984Y163779D02*
D03*
X136614Y100787D02*
D03*
X64173Y-21218D02*
D03*
X122835Y142955D02*
D03*
X88976Y145318D02*
D03*
X79289Y-5906D02*
D03*
X138583Y9449D02*
D03*
X130709Y-15312D02*
D03*
X158460Y-17515D02*
D03*
X217717Y117759D02*
D03*
X207874Y82326D02*
D03*
X218898Y95318D02*
D03*
X206299Y130357D02*
D03*
X205512Y35475D02*
D03*
X74410Y122441D02*
D03*
X137402Y73270D02*
D03*
X64439Y-266D02*
D03*
X59449Y-394D02*
D03*
X121260Y77995D02*
D03*
X109055Y20079D02*
D03*
X77165Y6693D02*
D03*
X206693Y70514D02*
D03*
X176378Y92913D02*
D03*
X165748Y92955D02*
D03*
X172441Y90945D02*
D03*
X153543Y90593D02*
D03*
X138583Y16577D02*
D03*
X69685Y57480D02*
D03*
X152362Y61811D02*
D03*
X137402Y67716D02*
D03*
X133071Y58661D02*
D03*
Y52362D02*
D03*
X116535Y57087D02*
D03*
X172441Y50000D02*
D03*
X172566Y55118D02*
D03*
X179921Y64567D02*
D03*
X175570Y64592D02*
D03*
X178347Y74058D02*
D03*
X88976Y105905D02*
D03*
X162205Y118546D02*
D03*
X148031Y22483D02*
D03*
X147638Y9449D02*
D03*
X172441Y24772D02*
D03*
X146850Y120514D02*
D03*
X161447Y109335D02*
D03*
X190795Y126026D02*
D03*
X170213Y138054D02*
D03*
X184646Y124743D02*
D03*
X181496Y114526D02*
D03*
X180315Y118504D02*
D03*
X187721Y104783D02*
D03*
X193870Y105905D02*
D03*
X138583Y90987D02*
D03*
X194882Y76772D02*
D03*
X134646Y77995D02*
D03*
X138583Y86263D02*
D03*
X145669Y39764D02*
D03*
X217748Y50000D02*
D03*
X189370Y17365D02*
D03*
X184252Y64173D02*
D03*
X129921Y110630D02*
D03*
X137008D02*
D03*
X120472Y119291D02*
D03*
X142126Y122441D02*
D03*
X74016Y185827D02*
D03*
X142384Y128297D02*
D03*
X90551Y186221D02*
D03*
X69291Y43307D02*
D03*
X109449Y38976D02*
D03*
X3150Y53937D02*
D03*
Y57366D02*
D03*
X4331Y81102D02*
D03*
X10236Y88583D02*
D03*
Y92126D02*
D03*
Y95669D02*
D03*
Y109843D02*
D03*
Y106299D02*
D03*
Y102756D02*
D03*
X13386Y61811D02*
D03*
X24409Y102362D02*
D03*
X27953D02*
D03*
X31496D02*
D03*
X51181Y119291D02*
D03*
Y112992D02*
D03*
X53150Y89764D02*
D03*
X54331Y77559D02*
D03*
Y72835D02*
D03*
X61811Y57480D02*
D03*
X80709Y33465D02*
D03*
Y29528D02*
D03*
X87795Y58268D02*
D03*
X91732D02*
D03*
X99606Y63386D02*
D03*
X49213Y96850D02*
D03*
X94095Y124803D02*
D03*
X90158D02*
D03*
X84252D02*
D03*
X141339Y133465D02*
D03*
X127165Y101575D02*
D03*
X143626Y-26453D02*
D03*
X134252Y185039D02*
D03*
X139370D02*
D03*
X144095D02*
D03*
X148819D02*
D03*
X113779Y164961D02*
D03*
X169685Y157118D02*
D03*
X147638Y161853D02*
D03*
X136221Y154373D02*
D03*
X134292Y173101D02*
D03*
X119685Y165003D02*
D03*
X142126Y161024D02*
D03*
X109055Y165790D02*
D03*
X148819Y127601D02*
D03*
X66339Y152601D02*
D03*
D130*
X151496Y140726D02*
X150866D01*
X151496D01*
X154558Y143788D02*
X153928D01*
X154558D01*
X157621Y146850D02*
X156991D01*
X157621D01*
X154558Y149913D02*
X153928D01*
X154558D01*
X151496Y146850D02*
X150866D01*
X151496D01*
X148434Y143788D02*
X147804D01*
X148434D01*
X145371Y146850D02*
X144742D01*
X145371D01*
X148434Y149913D02*
X147804D01*
X148434D01*
X151496Y152975D02*
X150866D01*
X151496D01*
M02*
