G04*
G04 #@! TF.GenerationSoftware,Altium Limited,Altium Designer,23.0.1 (38)*
G04*
G04 Layer_Color=32896*
%FSLAX25Y25*%
%MOIN*%
G70*
G04*
G04 #@! TF.SameCoordinates,07299077-2F5B-483E-86E5-57BC813F48C1*
G04*
G04*
G04 #@! TF.FilePolarity,Positive*
G04*
G01*
G75*
%ADD10C,0.00787*%
%ADD11C,0.01000*%
%ADD12C,0.00984*%
%ADD14C,0.02362*%
%ADD15C,0.00591*%
%ADD16C,0.00394*%
%ADD17C,0.00500*%
G36*
X24609Y160447D02*
X24687Y160438D01*
X24763Y160427D01*
X24833Y160409D01*
X24897Y160389D01*
X24961Y160365D01*
X25016Y160342D01*
X25068Y160319D01*
X25115Y160293D01*
X25156Y160269D01*
X25191Y160246D01*
X25220Y160226D01*
X25243Y160208D01*
X25260Y160197D01*
X25272Y160188D01*
X25275Y160185D01*
X25293Y160170D01*
X25307Y160156D01*
X25330Y160138D01*
X25342Y160130D01*
X25345Y160127D01*
X25357Y160121D01*
X25368Y160118D01*
X25383D01*
X25403Y160121D01*
X25429Y160133D01*
X25441Y160136D01*
X25450Y160141D01*
X25455Y160144D01*
X25458D01*
X25490Y160115D01*
X25124Y159716D01*
X25095Y159748D01*
X25103Y159772D01*
X25109Y159789D01*
X25112Y159804D01*
X25115Y159816D01*
X25118Y159824D01*
Y159830D01*
Y159836D01*
X25115Y159853D01*
X25109Y159874D01*
X25103Y159891D01*
X25092Y159909D01*
X25065Y159941D01*
X25034Y159970D01*
X25001Y159996D01*
X24975Y160013D01*
X24964Y160022D01*
X24955Y160028D01*
X24952Y160031D01*
X24949D01*
X24885Y160063D01*
X24818Y160089D01*
X24757Y160107D01*
X24699Y160118D01*
X24652Y160124D01*
X24632Y160127D01*
X24614Y160130D01*
X24579D01*
X24521Y160127D01*
X24472Y160118D01*
X24428Y160109D01*
X24393Y160098D01*
X24364Y160083D01*
X24347Y160074D01*
X24332Y160066D01*
X24329Y160063D01*
X24300Y160037D01*
X24280Y160008D01*
X24262Y159976D01*
X24254Y159943D01*
X24248Y159917D01*
X24242Y159894D01*
Y159880D01*
Y159877D01*
Y159874D01*
X24245Y159833D01*
X24254Y159798D01*
X24265Y159763D01*
X24277Y159737D01*
X24291Y159714D01*
X24303Y159696D01*
X24312Y159685D01*
X24315Y159682D01*
X24347Y159652D01*
X24382Y159623D01*
X24422Y159597D01*
X24460Y159574D01*
X24495Y159556D01*
X24524Y159542D01*
X24536Y159536D01*
X24545Y159530D01*
X24547Y159527D01*
X24550D01*
X24783Y159420D01*
X24830Y159396D01*
X24873Y159376D01*
X24914Y159356D01*
X24952Y159338D01*
X24984Y159321D01*
X25016Y159303D01*
X25042Y159289D01*
X25065Y159274D01*
X25089Y159263D01*
X25106Y159251D01*
X25121Y159242D01*
X25132Y159233D01*
X25150Y159222D01*
X25156Y159219D01*
X25196Y159187D01*
X25231Y159155D01*
X25266Y159123D01*
X25295Y159088D01*
X25324Y159056D01*
X25348Y159024D01*
X25389Y158963D01*
X25420Y158907D01*
X25432Y158884D01*
X25441Y158864D01*
X25450Y158849D01*
X25455Y158838D01*
X25458Y158829D01*
Y158826D01*
X25473Y158780D01*
X25482Y158733D01*
X25490Y158684D01*
X25493Y158637D01*
X25496Y158596D01*
X25499Y158564D01*
Y158553D01*
Y158544D01*
Y158538D01*
Y158535D01*
Y158526D01*
Y158515D01*
X25496Y158486D01*
Y158471D01*
Y158459D01*
Y158451D01*
Y158448D01*
X25453D01*
X25447Y158468D01*
X25441Y158483D01*
X25435Y158494D01*
X25429Y158506D01*
X25420Y158518D01*
X25418Y158520D01*
X25406Y158526D01*
X25391Y158529D01*
X25359Y158532D01*
X25345Y158535D01*
X23855D01*
X23826Y158532D01*
X23805Y158526D01*
X23794Y158520D01*
X23791Y158518D01*
X23776Y158497D01*
X23762Y158474D01*
X23756Y158457D01*
X23753Y158451D01*
Y158448D01*
X23709D01*
Y158963D01*
X23753D01*
X23765Y158931D01*
X23776Y158911D01*
X23788Y158896D01*
X23791Y158893D01*
X23808Y158884D01*
X23832Y158878D01*
X23849Y158876D01*
X25007D01*
X24970Y158919D01*
X24952Y158934D01*
X24935Y158948D01*
X24920Y158960D01*
X24908Y158969D01*
X24903Y158972D01*
X24900Y158975D01*
X24873Y158989D01*
X24844Y159007D01*
X24777Y159036D01*
X24748Y159050D01*
X24722Y159062D01*
X24705Y159068D01*
X24702Y159071D01*
X24699D01*
X24658Y159088D01*
X24626Y159100D01*
X24600Y159111D01*
X24579Y159120D01*
X24565Y159126D01*
X24553Y159132D01*
X24550Y159134D01*
X24547D01*
X24335Y159231D01*
X24262Y159265D01*
X24195Y159300D01*
X24140Y159335D01*
X24093Y159367D01*
X24056Y159394D01*
X24029Y159414D01*
X24012Y159428D01*
X24006Y159434D01*
X23974Y159466D01*
X23945Y159501D01*
X23919Y159536D01*
X23899Y159574D01*
X23881Y159609D01*
X23867Y159644D01*
X23843Y159714D01*
X23834Y159746D01*
X23829Y159772D01*
X23826Y159798D01*
X23823Y159821D01*
X23820Y159839D01*
Y159853D01*
Y159862D01*
Y159865D01*
X23823Y159914D01*
X23829Y159961D01*
X23837Y160005D01*
X23849Y160045D01*
X23867Y160083D01*
X23881Y160118D01*
X23899Y160150D01*
X23916Y160179D01*
X23936Y160205D01*
X23954Y160229D01*
X23968Y160246D01*
X23983Y160264D01*
X23998Y160275D01*
X24006Y160284D01*
X24012Y160290D01*
X24015Y160293D01*
X24053Y160322D01*
X24091Y160345D01*
X24134Y160365D01*
X24175Y160383D01*
X24262Y160412D01*
X24344Y160430D01*
X24382Y160438D01*
X24417Y160441D01*
X24446Y160444D01*
X24475Y160447D01*
X24495Y160450D01*
X24527D01*
X24609Y160447D01*
D02*
G37*
G36*
X26916Y160191D02*
X26887Y160179D01*
X26864Y160168D01*
X26852Y160159D01*
X26849Y160156D01*
X26838Y160138D01*
X26832Y160121D01*
X26829Y160104D01*
Y160101D01*
Y160098D01*
Y159612D01*
X27321D01*
X27347Y159615D01*
X27367Y159620D01*
X27379Y159626D01*
X27382Y159629D01*
X27393Y159650D01*
X27405Y159673D01*
X27408Y159690D01*
X27411Y159696D01*
Y159699D01*
X27455D01*
Y159254D01*
X27411D01*
X27402Y159283D01*
X27391Y159306D01*
X27382Y159318D01*
X27379Y159321D01*
X27362Y159332D01*
X27341Y159338D01*
X27327Y159341D01*
X26829D01*
Y158849D01*
X26832Y158823D01*
X26838Y158803D01*
X26846Y158791D01*
X26849Y158788D01*
X26870Y158777D01*
X26890Y158765D01*
X26908Y158762D01*
X26913Y158759D01*
X26916D01*
Y158715D01*
X26471D01*
Y158759D01*
X26503Y158768D01*
X26523Y158780D01*
X26538Y158788D01*
X26541Y158791D01*
X26550Y158809D01*
X26555Y158829D01*
X26558Y158844D01*
Y158846D01*
Y158849D01*
Y159341D01*
X26069D01*
X26043Y159338D01*
X26026Y159332D01*
X26014Y159324D01*
X26011Y159321D01*
X25997Y159300D01*
X25985Y159280D01*
X25979Y159263D01*
X25976Y159257D01*
Y159254D01*
X25933D01*
Y159699D01*
X25976D01*
X25988Y159667D01*
X26000Y159647D01*
X26008Y159632D01*
X26011Y159629D01*
X26029Y159620D01*
X26046Y159615D01*
X26064Y159612D01*
X26558D01*
Y160098D01*
X26555Y160124D01*
X26550Y160141D01*
X26544Y160153D01*
X26541Y160156D01*
X26520Y160170D01*
X26497Y160182D01*
X26480Y160188D01*
X26474Y160191D01*
X26471D01*
Y160234D01*
X26916D01*
Y160191D01*
D02*
G37*
G36*
X22548Y160374D02*
X22525Y160368D01*
X22508Y160360D01*
X22496Y160351D01*
X22487Y160339D01*
X22481Y160330D01*
X22479Y160322D01*
Y160316D01*
Y160313D01*
X22481Y160301D01*
X22487Y160287D01*
X22508Y160252D01*
X22519Y160237D01*
X22531Y160226D01*
X22537Y160217D01*
X22540Y160214D01*
X23474Y159164D01*
Y158765D01*
X23430D01*
X23427Y158785D01*
X23421Y158800D01*
X23415Y158811D01*
X23410Y158820D01*
X23398Y158832D01*
X23395Y158835D01*
X23383Y158841D01*
X23369Y158846D01*
X23334Y158849D01*
X23317Y158852D01*
X22298D01*
Y158678D01*
X22301Y158649D01*
X22307Y158628D01*
X22316Y158617D01*
X22318Y158611D01*
X22339Y158596D01*
X22359Y158587D01*
X22377Y158582D01*
X22382Y158579D01*
X22385D01*
Y158535D01*
X21812D01*
Y158579D01*
X21844Y158587D01*
X21865Y158599D01*
X21879Y158608D01*
X21882Y158611D01*
X21891Y158631D01*
X21896Y158654D01*
X21899Y158672D01*
Y158675D01*
Y158678D01*
Y158852D01*
X21798D01*
X21768Y158849D01*
X21748Y158844D01*
X21734Y158835D01*
X21731Y158832D01*
X21716Y158811D01*
X21701Y158791D01*
X21696Y158774D01*
X21693Y158768D01*
Y158765D01*
X21649D01*
Y159251D01*
X21693D01*
X21704Y159219D01*
X21716Y159199D01*
X21728Y159184D01*
X21731Y159181D01*
X21751Y159172D01*
X21771Y159167D01*
X21789Y159164D01*
X21899D01*
Y160272D01*
X21896Y160287D01*
X21894Y160301D01*
X21876Y160322D01*
X21862Y160333D01*
X21859Y160336D01*
X21856D01*
X21824Y160351D01*
X21792Y160365D01*
X21780Y160368D01*
X21771Y160371D01*
X21766Y160374D01*
X21763D01*
Y160418D01*
X22548D01*
Y160374D01*
D02*
G37*
G36*
X21594D02*
X21574Y160371D01*
X21556Y160365D01*
X21542Y160360D01*
X21530Y160354D01*
X21518Y160342D01*
X21512Y160339D01*
X21501Y160325D01*
X21489Y160304D01*
X21475Y160278D01*
X21463Y160252D01*
X21448Y160226D01*
X21440Y160205D01*
X21434Y160191D01*
X21431Y160188D01*
Y160185D01*
X20776Y158777D01*
X20762Y158745D01*
X20753Y158721D01*
X20744Y158701D01*
X20741Y158684D01*
X20738Y158675D01*
X20735Y158666D01*
Y158660D01*
X20738Y158637D01*
X20750Y158619D01*
X20762Y158605D01*
X20779Y158593D01*
X20794Y158587D01*
X20808Y158582D01*
X20820Y158579D01*
X20823D01*
Y158535D01*
X20174D01*
Y158579D01*
X20203Y158584D01*
X20223Y158596D01*
X20241Y158611D01*
X20249Y158625D01*
X20255Y158637D01*
X20258Y158649D01*
X20261Y158657D01*
Y158660D01*
X20258Y158672D01*
X20255Y158689D01*
X20241Y158727D01*
X20232Y158747D01*
X20226Y158762D01*
X20223Y158774D01*
X20220Y158777D01*
X19566Y160185D01*
X19545Y160229D01*
X19528Y160264D01*
X19513Y160290D01*
X19502Y160310D01*
X19496Y160325D01*
X19490Y160333D01*
X19484Y160339D01*
X19473Y160348D01*
X19461Y160357D01*
X19432Y160365D01*
X19420Y160371D01*
X19408D01*
X19403Y160374D01*
X19400D01*
Y160418D01*
X20046D01*
Y160374D01*
X20017Y160365D01*
X19993Y160354D01*
X19979Y160339D01*
X19967Y160328D01*
X19961Y160316D01*
X19955Y160304D01*
Y160299D01*
Y160296D01*
Y160281D01*
X19961Y160264D01*
X19970Y160226D01*
X19976Y160211D01*
X19982Y160197D01*
X19985Y160188D01*
X19987Y160185D01*
X20485Y159076D01*
X20983Y160185D01*
X20994Y160211D01*
X21000Y160234D01*
X21006Y160252D01*
X21012Y160266D01*
Y160281D01*
X21015Y160290D01*
Y160293D01*
Y160296D01*
X21012Y160316D01*
X21000Y160333D01*
X20986Y160345D01*
X20968Y160357D01*
X20954Y160365D01*
X20939Y160371D01*
X20928Y160374D01*
X20924D01*
Y160418D01*
X21594D01*
Y160374D01*
D02*
G37*
G36*
X60321Y119488D02*
X57002D01*
Y138780D01*
X60321D01*
Y119488D01*
D02*
G37*
G36*
X29119Y14295D02*
X29075D01*
X29070Y14312D01*
X29067Y14327D01*
X29055Y14347D01*
X29046Y14359D01*
X29043Y14362D01*
X29023Y14373D01*
X29000Y14379D01*
X28982Y14382D01*
X28389D01*
Y12953D01*
X28392Y12924D01*
X28397Y12904D01*
X28406Y12892D01*
X28409Y12886D01*
X28429Y12872D01*
X28450Y12863D01*
X28467Y12857D01*
X28473Y12854D01*
X28476D01*
Y12810D01*
X27891D01*
Y12854D01*
X27923Y12863D01*
X27943Y12875D01*
X27958Y12883D01*
X27961Y12886D01*
X27970Y12907D01*
X27975Y12930D01*
X27978Y12947D01*
Y12950D01*
Y12953D01*
Y14382D01*
X27393D01*
X27364Y14379D01*
X27344Y14373D01*
X27332Y14364D01*
X27329Y14362D01*
X27321Y14353D01*
X27315Y14344D01*
X27300Y14321D01*
X27294Y14303D01*
X27292Y14298D01*
Y14295D01*
X27248D01*
Y14781D01*
X27292D01*
X27297Y14763D01*
X27303Y14749D01*
X27315Y14725D01*
X27327Y14714D01*
X27329Y14711D01*
X27347Y14702D01*
X27370Y14696D01*
X27388Y14693D01*
X28976D01*
X29006Y14696D01*
X29026Y14702D01*
X29038Y14708D01*
X29041Y14711D01*
X29046Y14719D01*
X29055Y14728D01*
X29067Y14751D01*
X29072Y14772D01*
X29075Y14778D01*
Y14781D01*
X29119D01*
Y14295D01*
D02*
G37*
G36*
X19504D02*
X19461D01*
X19455Y14312D01*
X19452Y14327D01*
X19440Y14347D01*
X19432Y14359D01*
X19429Y14362D01*
X19408Y14373D01*
X19385Y14379D01*
X19368Y14382D01*
X18774D01*
Y12953D01*
X18777Y12924D01*
X18783Y12904D01*
X18791Y12892D01*
X18794Y12886D01*
X18815Y12872D01*
X18835Y12863D01*
X18853Y12857D01*
X18858Y12854D01*
X18861D01*
Y12810D01*
X18276D01*
Y12854D01*
X18308Y12863D01*
X18329Y12875D01*
X18343Y12883D01*
X18346Y12886D01*
X18355Y12907D01*
X18361Y12930D01*
X18364Y12947D01*
Y12950D01*
Y12953D01*
Y14382D01*
X17779D01*
X17750Y14379D01*
X17729Y14373D01*
X17718Y14364D01*
X17715Y14362D01*
X17706Y14353D01*
X17700Y14344D01*
X17686Y14321D01*
X17680Y14303D01*
X17677Y14298D01*
Y14295D01*
X17633D01*
Y14781D01*
X17677D01*
X17683Y14763D01*
X17689Y14749D01*
X17700Y14725D01*
X17712Y14714D01*
X17715Y14711D01*
X17732Y14702D01*
X17755Y14696D01*
X17773Y14693D01*
X19362D01*
X19391Y14696D01*
X19411Y14702D01*
X19423Y14708D01*
X19426Y14711D01*
X19432Y14719D01*
X19440Y14728D01*
X19452Y14751D01*
X19458Y14772D01*
X19461Y14778D01*
Y14781D01*
X19504D01*
Y14295D01*
D02*
G37*
G36*
X16120Y14650D02*
X16091Y14638D01*
X16068Y14626D01*
X16056Y14615D01*
X16053Y14612D01*
X16041Y14591D01*
X16036Y14571D01*
X16033Y14554D01*
Y14551D01*
Y14548D01*
Y14466D01*
X16152Y14434D01*
X16170Y14431D01*
X16193D01*
X16213Y14434D01*
X16225Y14440D01*
X16234Y14443D01*
X16237Y14446D01*
X16242Y14452D01*
X16245Y14463D01*
X16254Y14484D01*
X16260Y14504D01*
X16263Y14510D01*
Y14513D01*
X16306D01*
Y14012D01*
X16263D01*
X16254Y14044D01*
X16242Y14065D01*
X16234Y14079D01*
X16231Y14082D01*
X16210Y14097D01*
X16190Y14105D01*
X16172Y14111D01*
X16167Y14114D01*
X16164D01*
X16033Y14143D01*
Y12953D01*
X16036Y12924D01*
X16041Y12904D01*
X16050Y12892D01*
X16053Y12886D01*
X16073Y12872D01*
X16094Y12863D01*
X16111Y12857D01*
X16117Y12854D01*
X16120D01*
Y12810D01*
X15547D01*
Y12854D01*
X15579Y12863D01*
X15599Y12875D01*
X15614Y12883D01*
X15617Y12886D01*
X15625Y12907D01*
X15631Y12930D01*
X15634Y12947D01*
Y12950D01*
Y12953D01*
Y14548D01*
X15631Y14577D01*
X15625Y14597D01*
X15620Y14609D01*
X15617Y14612D01*
X15596Y14626D01*
X15573Y14641D01*
X15555Y14647D01*
X15550Y14650D01*
X15547D01*
Y14693D01*
X16120D01*
Y14650D01*
D02*
G37*
G36*
X31697D02*
X31668Y14638D01*
X31645Y14626D01*
X31633Y14615D01*
X31630Y14612D01*
X31619Y14594D01*
X31613Y14571D01*
X31610Y14554D01*
Y14551D01*
Y14548D01*
Y12953D01*
X31613Y12924D01*
X31619Y12904D01*
X31628Y12892D01*
X31630Y12886D01*
X31651Y12872D01*
X31671Y12863D01*
X31689Y12857D01*
X31694Y12854D01*
X31697D01*
Y12810D01*
X31147D01*
Y12854D01*
X31179Y12863D01*
X31200Y12875D01*
X31214Y12883D01*
X31217Y12886D01*
X31226Y12907D01*
X31232Y12930D01*
X31235Y12947D01*
Y12950D01*
Y12953D01*
Y14114D01*
X30542Y12810D01*
X29806Y14114D01*
Y12953D01*
X29809Y12924D01*
X29814Y12904D01*
X29823Y12892D01*
X29826Y12886D01*
X29847Y12872D01*
X29867Y12863D01*
X29884Y12857D01*
X29890Y12854D01*
X29893D01*
Y12810D01*
X29308D01*
Y12854D01*
X29340Y12863D01*
X29361Y12875D01*
X29375Y12883D01*
X29378Y12886D01*
X29387Y12907D01*
X29393Y12930D01*
X29395Y12947D01*
Y12950D01*
Y12953D01*
Y14548D01*
X29393Y14577D01*
X29387Y14597D01*
X29381Y14609D01*
X29378Y14612D01*
X29358Y14626D01*
X29334Y14641D01*
X29317Y14647D01*
X29311Y14650D01*
X29308D01*
Y14693D01*
X30021D01*
Y14650D01*
X29998Y14644D01*
X29980Y14635D01*
X29969Y14626D01*
X29960Y14615D01*
X29954Y14603D01*
X29951Y14594D01*
Y14589D01*
Y14586D01*
Y14574D01*
X29957Y14559D01*
X29969Y14527D01*
X29975Y14516D01*
X29980Y14504D01*
X29983Y14495D01*
X29986Y14492D01*
X30507Y13535D01*
X31019Y14510D01*
X31031Y14533D01*
X31037Y14554D01*
X31040Y14565D01*
Y14571D01*
X31037Y14591D01*
X31031Y14609D01*
X31019Y14623D01*
X31008Y14632D01*
X30996Y14641D01*
X30984Y14647D01*
X30979Y14650D01*
X30976D01*
Y14693D01*
X31697D01*
Y14650D01*
D02*
G37*
G36*
X21696D02*
X21666Y14638D01*
X21643Y14626D01*
X21632Y14615D01*
X21629Y14612D01*
X21617Y14594D01*
X21611Y14571D01*
X21608Y14554D01*
Y14551D01*
Y14548D01*
Y13491D01*
X21605Y13419D01*
X21600Y13355D01*
X21591Y13296D01*
X21582Y13247D01*
X21573Y13206D01*
X21565Y13177D01*
X21562Y13165D01*
X21559Y13157D01*
X21556Y13154D01*
Y13151D01*
X21533Y13099D01*
X21504Y13055D01*
X21472Y13014D01*
X21440Y12982D01*
X21410Y12956D01*
X21387Y12936D01*
X21370Y12924D01*
X21367Y12921D01*
X21364D01*
X21317Y12895D01*
X21265Y12875D01*
X21213Y12854D01*
X21154Y12840D01*
X21041Y12813D01*
X20930Y12796D01*
X20878Y12790D01*
X20831Y12787D01*
X20788Y12784D01*
X20750Y12781D01*
X20721Y12778D01*
X20677D01*
X20567Y12781D01*
X20462Y12790D01*
X20369Y12802D01*
X20284Y12819D01*
X20211Y12840D01*
X20142Y12863D01*
X20084Y12886D01*
X20031Y12912D01*
X19987Y12936D01*
X19950Y12959D01*
X19920Y12982D01*
X19894Y13003D01*
X19877Y13020D01*
X19862Y13032D01*
X19857Y13040D01*
X19854Y13043D01*
X19833Y13072D01*
X19816Y13107D01*
X19790Y13177D01*
X19769Y13253D01*
X19758Y13326D01*
X19752Y13358D01*
X19749Y13390D01*
X19746Y13419D01*
Y13442D01*
X19743Y13462D01*
Y13480D01*
Y13488D01*
Y13491D01*
Y14548D01*
X19740Y14577D01*
X19734Y14597D01*
X19728Y14609D01*
X19726Y14612D01*
X19705Y14626D01*
X19682Y14641D01*
X19664Y14647D01*
X19659Y14650D01*
X19656D01*
Y14693D01*
X20209D01*
Y14650D01*
X20179Y14638D01*
X20156Y14626D01*
X20145Y14615D01*
X20142Y14612D01*
X20130Y14594D01*
X20124Y14571D01*
X20121Y14554D01*
Y14551D01*
Y14548D01*
Y13608D01*
Y13550D01*
X20124Y13500D01*
X20127Y13459D01*
X20130Y13427D01*
X20136Y13401D01*
X20139Y13381D01*
X20142Y13369D01*
Y13366D01*
X20159Y13314D01*
X20171Y13294D01*
X20179Y13273D01*
X20191Y13259D01*
X20197Y13247D01*
X20203Y13241D01*
X20206Y13238D01*
X20232Y13215D01*
X20264Y13192D01*
X20334Y13157D01*
X20409Y13134D01*
X20482Y13116D01*
X20517Y13110D01*
X20552Y13107D01*
X20581Y13102D01*
X20607D01*
X20631Y13099D01*
X20660D01*
X20718Y13102D01*
X20773Y13104D01*
X20823Y13110D01*
X20866Y13122D01*
X20907Y13131D01*
X20945Y13142D01*
X20980Y13157D01*
X21009Y13168D01*
X21032Y13183D01*
X21055Y13195D01*
X21073Y13206D01*
X21087Y13218D01*
X21099Y13227D01*
X21108Y13232D01*
X21111Y13235D01*
X21114Y13238D01*
X21131Y13259D01*
X21146Y13282D01*
X21166Y13323D01*
X21172Y13340D01*
X21178Y13355D01*
X21181Y13363D01*
Y13366D01*
X21186Y13398D01*
X21189Y13436D01*
X21195Y13477D01*
Y13518D01*
X21198Y13553D01*
Y13582D01*
Y13593D01*
Y13602D01*
Y13605D01*
Y13608D01*
Y14548D01*
X21195Y14577D01*
X21189Y14597D01*
X21183Y14609D01*
X21181Y14612D01*
X21160Y14626D01*
X21137Y14641D01*
X21120Y14647D01*
X21114Y14650D01*
X21111D01*
Y14693D01*
X21696D01*
Y14650D01*
D02*
G37*
G36*
X27065D02*
X27035Y14638D01*
X27012Y14626D01*
X27001Y14615D01*
X26998Y14612D01*
X26986Y14594D01*
X26980Y14571D01*
X26977Y14554D01*
Y14551D01*
Y14548D01*
Y12953D01*
X26980Y12924D01*
X26986Y12904D01*
X26995Y12892D01*
X26998Y12886D01*
X27018Y12872D01*
X27038Y12863D01*
X27056Y12857D01*
X27062Y12854D01*
X27065D01*
Y12810D01*
X26480D01*
Y12854D01*
X26512Y12863D01*
X26532Y12875D01*
X26547Y12883D01*
X26550Y12886D01*
X26558Y12907D01*
X26564Y12930D01*
X26567Y12947D01*
Y12950D01*
Y12953D01*
Y13579D01*
X26066D01*
X25685Y13023D01*
X25662Y12991D01*
X25647Y12965D01*
X25636Y12944D01*
X25627Y12927D01*
X25621Y12915D01*
X25618Y12909D01*
Y12904D01*
X25621Y12889D01*
X25630Y12877D01*
X25642Y12872D01*
X25653Y12863D01*
X25665Y12860D01*
X25677Y12857D01*
X25685Y12854D01*
X25688D01*
Y12810D01*
X25007D01*
Y12854D01*
X25030Y12857D01*
X25054Y12863D01*
X25071Y12869D01*
X25089Y12875D01*
X25103Y12883D01*
X25112Y12889D01*
X25118Y12892D01*
X25121Y12895D01*
X25138Y12915D01*
X25161Y12938D01*
X25185Y12968D01*
X25208Y13000D01*
X25228Y13026D01*
X25246Y13049D01*
X25258Y13067D01*
X25260Y13072D01*
X25627Y13593D01*
X25580Y13602D01*
X25537Y13614D01*
X25458Y13640D01*
X25388Y13672D01*
X25330Y13710D01*
X25278Y13753D01*
X25237Y13797D01*
X25202Y13844D01*
X25176Y13893D01*
X25156Y13940D01*
X25138Y13983D01*
X25126Y14024D01*
X25121Y14059D01*
X25115Y14088D01*
X25112Y14111D01*
Y14126D01*
Y14132D01*
X25115Y14181D01*
X25121Y14228D01*
X25129Y14271D01*
X25138Y14309D01*
X25147Y14341D01*
X25156Y14364D01*
X25161Y14379D01*
X25164Y14385D01*
X25188Y14428D01*
X25214Y14466D01*
X25240Y14501D01*
X25266Y14527D01*
X25289Y14551D01*
X25310Y14565D01*
X25321Y14577D01*
X25327Y14580D01*
X25362Y14600D01*
X25400Y14620D01*
X25438Y14635D01*
X25473Y14647D01*
X25502Y14655D01*
X25528Y14661D01*
X25543Y14667D01*
X25548D01*
X25598Y14676D01*
X25653Y14682D01*
X25711Y14687D01*
X25767Y14690D01*
X25813Y14693D01*
X27065D01*
Y14650D01*
D02*
G37*
G36*
X23159Y14719D02*
X23270Y14702D01*
X23372Y14679D01*
X23465Y14650D01*
X23549Y14615D01*
X23625Y14577D01*
X23695Y14536D01*
X23756Y14492D01*
X23808Y14452D01*
X23855Y14411D01*
X23893Y14373D01*
X23922Y14338D01*
X23948Y14309D01*
X23963Y14289D01*
X23974Y14274D01*
X23977Y14268D01*
X24003Y14225D01*
X24024Y14178D01*
X24044Y14134D01*
X24058Y14088D01*
X24085Y14001D01*
X24102Y13922D01*
X24108Y13884D01*
X24111Y13852D01*
X24114Y13823D01*
X24117Y13797D01*
X24120Y13780D01*
Y13762D01*
Y13753D01*
Y13750D01*
X24117Y13681D01*
X24108Y13614D01*
X24096Y13550D01*
X24085Y13494D01*
X24073Y13448D01*
X24067Y13430D01*
X24061Y13413D01*
X24056Y13401D01*
X24053Y13393D01*
X24050Y13387D01*
Y13384D01*
X24018Y13311D01*
X23980Y13247D01*
X23942Y13189D01*
X23904Y13139D01*
X23869Y13099D01*
X23843Y13070D01*
X23832Y13058D01*
X23823Y13049D01*
X23820Y13046D01*
X23817Y13043D01*
X23759Y12997D01*
X23701Y12956D01*
X23637Y12921D01*
X23573Y12889D01*
X23506Y12866D01*
X23442Y12843D01*
X23378Y12825D01*
X23316Y12810D01*
X23261Y12802D01*
X23206Y12793D01*
X23159Y12787D01*
X23119Y12781D01*
X23084D01*
X23057Y12778D01*
X23037D01*
X22918Y12784D01*
X22810Y12799D01*
X22708Y12822D01*
X22615Y12851D01*
X22531Y12883D01*
X22455Y12924D01*
X22385Y12965D01*
X22324Y13008D01*
X22272Y13049D01*
X22225Y13090D01*
X22187Y13131D01*
X22155Y13165D01*
X22129Y13195D01*
X22115Y13215D01*
X22103Y13229D01*
X22100Y13235D01*
X22074Y13279D01*
X22051Y13323D01*
X22030Y13369D01*
X22013Y13413D01*
X21987Y13497D01*
X21969Y13576D01*
X21963Y13611D01*
X21960Y13640D01*
X21958Y13669D01*
X21955Y13692D01*
X21952Y13713D01*
Y13727D01*
Y13736D01*
Y13739D01*
X21955Y13820D01*
X21963Y13896D01*
X21981Y13969D01*
X21998Y14036D01*
X22021Y14100D01*
X22048Y14161D01*
X22077Y14213D01*
X22103Y14263D01*
X22132Y14306D01*
X22161Y14347D01*
X22187Y14379D01*
X22211Y14408D01*
X22228Y14428D01*
X22243Y14446D01*
X22254Y14455D01*
X22257Y14458D01*
X22312Y14504D01*
X22374Y14545D01*
X22438Y14583D01*
X22502Y14612D01*
X22569Y14638D01*
X22633Y14661D01*
X22697Y14679D01*
X22758Y14693D01*
X22816Y14702D01*
X22868Y14711D01*
X22918Y14717D01*
X22959Y14722D01*
X22994D01*
X23020Y14725D01*
X23040D01*
X23159Y14719D01*
D02*
G37*
G36*
X29387Y10385D02*
X29343D01*
X29337Y10403D01*
X29334Y10417D01*
X29323Y10438D01*
X29314Y10449D01*
X29311Y10452D01*
X29291Y10464D01*
X29267Y10470D01*
X29250Y10473D01*
X28656D01*
Y9044D01*
X28659Y9015D01*
X28665Y8994D01*
X28674Y8983D01*
X28677Y8977D01*
X28697Y8962D01*
X28717Y8953D01*
X28735Y8948D01*
X28741Y8945D01*
X28744D01*
Y8901D01*
X28159D01*
Y8945D01*
X28191Y8953D01*
X28211Y8965D01*
X28226Y8974D01*
X28229Y8977D01*
X28237Y8997D01*
X28243Y9020D01*
X28246Y9038D01*
Y9041D01*
Y9044D01*
Y10473D01*
X27661D01*
X27632Y10470D01*
X27612Y10464D01*
X27600Y10455D01*
X27597Y10452D01*
X27588Y10443D01*
X27583Y10435D01*
X27568Y10411D01*
X27562Y10394D01*
X27559Y10388D01*
Y10385D01*
X27516D01*
Y10871D01*
X27559D01*
X27565Y10854D01*
X27571Y10839D01*
X27583Y10816D01*
X27594Y10804D01*
X27597Y10801D01*
X27615Y10793D01*
X27638Y10787D01*
X27655Y10784D01*
X29244D01*
X29273Y10787D01*
X29294Y10793D01*
X29305Y10798D01*
X29308Y10801D01*
X29314Y10810D01*
X29323Y10819D01*
X29334Y10842D01*
X29340Y10863D01*
X29343Y10868D01*
Y10871D01*
X29387D01*
Y10385D01*
D02*
G37*
G36*
X19772D02*
X19728D01*
X19723Y10403D01*
X19720Y10417D01*
X19708Y10438D01*
X19699Y10449D01*
X19696Y10452D01*
X19676Y10464D01*
X19653Y10470D01*
X19635Y10473D01*
X19042D01*
Y9044D01*
X19045Y9015D01*
X19050Y8994D01*
X19059Y8983D01*
X19062Y8977D01*
X19083Y8962D01*
X19103Y8953D01*
X19120Y8948D01*
X19126Y8945D01*
X19129D01*
Y8901D01*
X18544D01*
Y8945D01*
X18576Y8953D01*
X18597Y8965D01*
X18611Y8974D01*
X18614Y8977D01*
X18623Y8997D01*
X18629Y9020D01*
X18631Y9038D01*
Y9041D01*
Y9044D01*
Y10473D01*
X18046D01*
X18017Y10470D01*
X17997Y10464D01*
X17985Y10455D01*
X17982Y10452D01*
X17974Y10443D01*
X17968Y10435D01*
X17953Y10411D01*
X17948Y10394D01*
X17945Y10388D01*
Y10385D01*
X17901D01*
Y10871D01*
X17945D01*
X17951Y10854D01*
X17956Y10839D01*
X17968Y10816D01*
X17980Y10804D01*
X17982Y10801D01*
X18000Y10793D01*
X18023Y10787D01*
X18041Y10784D01*
X19629D01*
X19659Y10787D01*
X19679Y10793D01*
X19691Y10798D01*
X19693Y10801D01*
X19699Y10810D01*
X19708Y10819D01*
X19720Y10842D01*
X19726Y10863D01*
X19728Y10868D01*
Y10871D01*
X19772D01*
Y10385D01*
D02*
G37*
G36*
X16178Y10813D02*
X16257Y10804D01*
X16332Y10793D01*
X16402Y10775D01*
X16466Y10755D01*
X16530Y10731D01*
X16586Y10708D01*
X16638Y10685D01*
X16685Y10659D01*
X16725Y10635D01*
X16760Y10612D01*
X16789Y10592D01*
X16813Y10574D01*
X16830Y10563D01*
X16842Y10554D01*
X16845Y10551D01*
X16862Y10537D01*
X16877Y10522D01*
X16900Y10505D01*
X16912Y10496D01*
X16915Y10493D01*
X16926Y10487D01*
X16938Y10484D01*
X16952D01*
X16973Y10487D01*
X16999Y10499D01*
X17010Y10502D01*
X17019Y10508D01*
X17025Y10510D01*
X17028D01*
X17060Y10481D01*
X16693Y10083D01*
X16664Y10115D01*
X16673Y10138D01*
X16679Y10155D01*
X16682Y10170D01*
X16685Y10182D01*
X16688Y10190D01*
Y10196D01*
Y10202D01*
X16685Y10219D01*
X16679Y10240D01*
X16673Y10257D01*
X16661Y10275D01*
X16635Y10307D01*
X16603Y10336D01*
X16571Y10362D01*
X16545Y10379D01*
X16533Y10388D01*
X16525Y10394D01*
X16522Y10397D01*
X16519D01*
X16455Y10429D01*
X16388Y10455D01*
X16327Y10473D01*
X16269Y10484D01*
X16222Y10490D01*
X16202Y10493D01*
X16184Y10496D01*
X16149D01*
X16091Y10493D01*
X16041Y10484D01*
X15998Y10475D01*
X15963Y10464D01*
X15934Y10449D01*
X15916Y10441D01*
X15902Y10432D01*
X15899Y10429D01*
X15870Y10403D01*
X15849Y10374D01*
X15832Y10342D01*
X15823Y10310D01*
X15817Y10283D01*
X15812Y10260D01*
Y10246D01*
Y10243D01*
Y10240D01*
X15814Y10199D01*
X15823Y10164D01*
X15835Y10129D01*
X15846Y10103D01*
X15861Y10080D01*
X15873Y10062D01*
X15881Y10051D01*
X15884Y10048D01*
X15916Y10019D01*
X15951Y9990D01*
X15992Y9963D01*
X16030Y9940D01*
X16065Y9922D01*
X16094Y9908D01*
X16105Y9902D01*
X16114Y9896D01*
X16117Y9893D01*
X16120D01*
X16353Y9786D01*
X16399Y9763D01*
X16443Y9742D01*
X16484Y9722D01*
X16522Y9704D01*
X16554Y9687D01*
X16586Y9669D01*
X16612Y9655D01*
X16635Y9640D01*
X16658Y9629D01*
X16676Y9617D01*
X16690Y9608D01*
X16702Y9600D01*
X16720Y9588D01*
X16725Y9585D01*
X16766Y9553D01*
X16801Y9521D01*
X16836Y9489D01*
X16865Y9454D01*
X16894Y9422D01*
X16917Y9390D01*
X16958Y9329D01*
X16990Y9274D01*
X17002Y9250D01*
X17010Y9230D01*
X17019Y9215D01*
X17025Y9204D01*
X17028Y9195D01*
Y9192D01*
X17042Y9146D01*
X17051Y9099D01*
X17060Y9050D01*
X17063Y9003D01*
X17066Y8962D01*
X17069Y8930D01*
Y8919D01*
Y8910D01*
Y8904D01*
Y8901D01*
Y8892D01*
Y8881D01*
X17066Y8852D01*
Y8837D01*
Y8826D01*
Y8817D01*
Y8814D01*
X17022D01*
X17016Y8834D01*
X17010Y8849D01*
X17005Y8860D01*
X16999Y8872D01*
X16990Y8884D01*
X16987Y8887D01*
X16976Y8892D01*
X16961Y8895D01*
X16929Y8898D01*
X16915Y8901D01*
X15425D01*
X15395Y8898D01*
X15375Y8892D01*
X15363Y8887D01*
X15361Y8884D01*
X15346Y8863D01*
X15331Y8840D01*
X15326Y8823D01*
X15323Y8817D01*
Y8814D01*
X15279D01*
Y9329D01*
X15323D01*
X15334Y9297D01*
X15346Y9277D01*
X15358Y9262D01*
X15361Y9259D01*
X15378Y9250D01*
X15401Y9245D01*
X15419Y9242D01*
X16577D01*
X16539Y9285D01*
X16522Y9300D01*
X16504Y9314D01*
X16490Y9326D01*
X16478Y9335D01*
X16472Y9338D01*
X16469Y9341D01*
X16443Y9355D01*
X16414Y9373D01*
X16347Y9402D01*
X16318Y9416D01*
X16292Y9428D01*
X16274Y9434D01*
X16271Y9437D01*
X16269D01*
X16228Y9454D01*
X16196Y9466D01*
X16170Y9477D01*
X16149Y9486D01*
X16135Y9492D01*
X16123Y9498D01*
X16120Y9501D01*
X16117D01*
X15905Y9597D01*
X15832Y9632D01*
X15765Y9667D01*
X15710Y9701D01*
X15663Y9733D01*
X15625Y9760D01*
X15599Y9780D01*
X15582Y9794D01*
X15576Y9800D01*
X15544Y9832D01*
X15515Y9867D01*
X15489Y9902D01*
X15468Y9940D01*
X15451Y9975D01*
X15436Y10010D01*
X15413Y10080D01*
X15404Y10112D01*
X15398Y10138D01*
X15395Y10164D01*
X15393Y10187D01*
X15390Y10205D01*
Y10219D01*
Y10228D01*
Y10231D01*
X15393Y10281D01*
X15398Y10327D01*
X15407Y10371D01*
X15419Y10411D01*
X15436Y10449D01*
X15451Y10484D01*
X15468Y10516D01*
X15486Y10545D01*
X15506Y10571D01*
X15524Y10595D01*
X15538Y10612D01*
X15553Y10630D01*
X15567Y10641D01*
X15576Y10650D01*
X15582Y10656D01*
X15585Y10659D01*
X15622Y10688D01*
X15660Y10711D01*
X15704Y10731D01*
X15745Y10749D01*
X15832Y10778D01*
X15913Y10796D01*
X15951Y10804D01*
X15986Y10807D01*
X16015Y10810D01*
X16044Y10813D01*
X16065Y10816D01*
X16097D01*
X16178Y10813D01*
D02*
G37*
G36*
X31965Y10740D02*
X31936Y10729D01*
X31913Y10717D01*
X31901Y10705D01*
X31898Y10702D01*
X31887Y10685D01*
X31881Y10662D01*
X31878Y10644D01*
Y10641D01*
Y10638D01*
Y9044D01*
X31881Y9015D01*
X31887Y8994D01*
X31895Y8983D01*
X31898Y8977D01*
X31918Y8962D01*
X31939Y8953D01*
X31956Y8948D01*
X31962Y8945D01*
X31965D01*
Y8901D01*
X31415D01*
Y8945D01*
X31447Y8953D01*
X31467Y8965D01*
X31482Y8974D01*
X31485Y8977D01*
X31494Y8997D01*
X31499Y9020D01*
X31502Y9038D01*
Y9041D01*
Y9044D01*
Y10205D01*
X30810Y8901D01*
X30073Y10205D01*
Y9044D01*
X30076Y9015D01*
X30082Y8994D01*
X30091Y8983D01*
X30094Y8977D01*
X30114Y8962D01*
X30135Y8953D01*
X30152Y8948D01*
X30158Y8945D01*
X30161D01*
Y8901D01*
X29576D01*
Y8945D01*
X29608Y8953D01*
X29628Y8965D01*
X29643Y8974D01*
X29646Y8977D01*
X29654Y8997D01*
X29660Y9020D01*
X29663Y9038D01*
Y9041D01*
Y9044D01*
Y10638D01*
X29660Y10667D01*
X29654Y10688D01*
X29649Y10700D01*
X29646Y10702D01*
X29625Y10717D01*
X29602Y10731D01*
X29585Y10737D01*
X29579Y10740D01*
X29576D01*
Y10784D01*
X30289D01*
Y10740D01*
X30266Y10734D01*
X30248Y10726D01*
X30237Y10717D01*
X30228Y10705D01*
X30222Y10694D01*
X30219Y10685D01*
Y10679D01*
Y10676D01*
Y10665D01*
X30225Y10650D01*
X30237Y10618D01*
X30242Y10606D01*
X30248Y10595D01*
X30251Y10586D01*
X30254Y10583D01*
X30775Y9626D01*
X31287Y10601D01*
X31299Y10624D01*
X31304Y10644D01*
X31307Y10656D01*
Y10662D01*
X31304Y10682D01*
X31299Y10700D01*
X31287Y10714D01*
X31275Y10723D01*
X31264Y10731D01*
X31252Y10737D01*
X31246Y10740D01*
X31243D01*
Y10784D01*
X31965D01*
Y10740D01*
D02*
G37*
G36*
X21963D02*
X21934Y10729D01*
X21911Y10717D01*
X21899Y10705D01*
X21896Y10702D01*
X21885Y10685D01*
X21879Y10662D01*
X21876Y10644D01*
Y10641D01*
Y10638D01*
Y9582D01*
X21873Y9509D01*
X21867Y9445D01*
X21859Y9387D01*
X21850Y9338D01*
X21841Y9297D01*
X21832Y9268D01*
X21829Y9256D01*
X21827Y9247D01*
X21824Y9245D01*
Y9242D01*
X21800Y9189D01*
X21771Y9146D01*
X21739Y9105D01*
X21707Y9073D01*
X21678Y9047D01*
X21655Y9026D01*
X21637Y9015D01*
X21634Y9012D01*
X21632D01*
X21585Y8986D01*
X21533Y8965D01*
X21480Y8945D01*
X21422Y8930D01*
X21309Y8904D01*
X21198Y8887D01*
X21146Y8881D01*
X21099Y8878D01*
X21055Y8875D01*
X21018Y8872D01*
X20989Y8869D01*
X20945D01*
X20834Y8872D01*
X20730Y8881D01*
X20636Y8892D01*
X20552Y8910D01*
X20479Y8930D01*
X20409Y8953D01*
X20351Y8977D01*
X20299Y9003D01*
X20255Y9026D01*
X20217Y9050D01*
X20188Y9073D01*
X20162Y9093D01*
X20145Y9111D01*
X20130Y9122D01*
X20124Y9131D01*
X20121Y9134D01*
X20101Y9163D01*
X20084Y9198D01*
X20057Y9268D01*
X20037Y9343D01*
X20025Y9416D01*
X20019Y9448D01*
X20017Y9480D01*
X20014Y9509D01*
Y9533D01*
X20011Y9553D01*
Y9570D01*
Y9579D01*
Y9582D01*
Y10638D01*
X20008Y10667D01*
X20002Y10688D01*
X19996Y10700D01*
X19993Y10702D01*
X19973Y10717D01*
X19950Y10731D01*
X19932Y10737D01*
X19926Y10740D01*
X19923D01*
Y10784D01*
X20476D01*
Y10740D01*
X20447Y10729D01*
X20424Y10717D01*
X20412Y10705D01*
X20409Y10702D01*
X20398Y10685D01*
X20392Y10662D01*
X20389Y10644D01*
Y10641D01*
Y10638D01*
Y9698D01*
Y9640D01*
X20392Y9591D01*
X20395Y9550D01*
X20398Y9518D01*
X20404Y9492D01*
X20406Y9471D01*
X20409Y9460D01*
Y9457D01*
X20427Y9405D01*
X20438Y9384D01*
X20447Y9364D01*
X20459Y9349D01*
X20465Y9338D01*
X20470Y9332D01*
X20473Y9329D01*
X20500Y9306D01*
X20532Y9282D01*
X20602Y9247D01*
X20677Y9224D01*
X20750Y9207D01*
X20785Y9201D01*
X20820Y9198D01*
X20849Y9192D01*
X20875D01*
X20898Y9189D01*
X20927D01*
X20986Y9192D01*
X21041Y9195D01*
X21090Y9201D01*
X21134Y9212D01*
X21175Y9221D01*
X21213Y9233D01*
X21248Y9247D01*
X21277Y9259D01*
X21300Y9274D01*
X21323Y9285D01*
X21341Y9297D01*
X21355Y9308D01*
X21367Y9317D01*
X21375Y9323D01*
X21378Y9326D01*
X21381Y9329D01*
X21399Y9349D01*
X21413Y9373D01*
X21434Y9413D01*
X21440Y9431D01*
X21445Y9445D01*
X21448Y9454D01*
Y9457D01*
X21454Y9489D01*
X21457Y9527D01*
X21463Y9567D01*
Y9608D01*
X21466Y9643D01*
Y9672D01*
Y9684D01*
Y9693D01*
Y9696D01*
Y9698D01*
Y10638D01*
X21463Y10667D01*
X21457Y10688D01*
X21451Y10700D01*
X21448Y10702D01*
X21428Y10717D01*
X21405Y10731D01*
X21387Y10737D01*
X21381Y10740D01*
X21378D01*
Y10784D01*
X21963D01*
Y10740D01*
D02*
G37*
G36*
X27332D02*
X27303Y10729D01*
X27280Y10717D01*
X27268Y10705D01*
X27265Y10702D01*
X27254Y10685D01*
X27248Y10662D01*
X27245Y10644D01*
Y10641D01*
Y10638D01*
Y9044D01*
X27248Y9015D01*
X27254Y8994D01*
X27262Y8983D01*
X27265Y8977D01*
X27286Y8962D01*
X27306Y8953D01*
X27324Y8948D01*
X27329Y8945D01*
X27332D01*
Y8901D01*
X26747D01*
Y8945D01*
X26779Y8953D01*
X26800Y8965D01*
X26814Y8974D01*
X26817Y8977D01*
X26826Y8997D01*
X26832Y9020D01*
X26835Y9038D01*
Y9041D01*
Y9044D01*
Y9669D01*
X26334D01*
X25953Y9114D01*
X25930Y9082D01*
X25915Y9055D01*
X25903Y9035D01*
X25895Y9018D01*
X25889Y9006D01*
X25886Y9000D01*
Y8994D01*
X25889Y8980D01*
X25898Y8968D01*
X25909Y8962D01*
X25921Y8953D01*
X25933Y8951D01*
X25944Y8948D01*
X25953Y8945D01*
X25956D01*
Y8901D01*
X25275D01*
Y8945D01*
X25298Y8948D01*
X25321Y8953D01*
X25339Y8959D01*
X25356Y8965D01*
X25371Y8974D01*
X25380Y8980D01*
X25385Y8983D01*
X25388Y8986D01*
X25406Y9006D01*
X25429Y9029D01*
X25452Y9058D01*
X25476Y9090D01*
X25496Y9116D01*
X25514Y9140D01*
X25525Y9157D01*
X25528Y9163D01*
X25895Y9684D01*
X25848Y9693D01*
X25805Y9704D01*
X25726Y9730D01*
X25656Y9763D01*
X25598Y9800D01*
X25546Y9844D01*
X25505Y9888D01*
X25470Y9934D01*
X25444Y9984D01*
X25423Y10030D01*
X25406Y10074D01*
X25394Y10115D01*
X25388Y10149D01*
X25383Y10179D01*
X25380Y10202D01*
Y10216D01*
Y10222D01*
X25383Y10272D01*
X25388Y10318D01*
X25397Y10362D01*
X25406Y10400D01*
X25415Y10432D01*
X25423Y10455D01*
X25429Y10470D01*
X25432Y10475D01*
X25455Y10519D01*
X25482Y10557D01*
X25508Y10592D01*
X25534Y10618D01*
X25557Y10641D01*
X25578Y10656D01*
X25589Y10667D01*
X25595Y10670D01*
X25630Y10691D01*
X25668Y10711D01*
X25706Y10726D01*
X25741Y10737D01*
X25770Y10746D01*
X25796Y10752D01*
X25810Y10758D01*
X25816D01*
X25866Y10767D01*
X25921Y10772D01*
X25979Y10778D01*
X26034Y10781D01*
X26081Y10784D01*
X27332D01*
Y10740D01*
D02*
G37*
G36*
X23427Y10810D02*
X23538Y10793D01*
X23640Y10769D01*
X23733Y10740D01*
X23817Y10705D01*
X23893Y10667D01*
X23963Y10627D01*
X24024Y10583D01*
X24076Y10542D01*
X24123Y10502D01*
X24160Y10464D01*
X24190Y10429D01*
X24216Y10400D01*
X24230Y10379D01*
X24242Y10365D01*
X24245Y10359D01*
X24271Y10315D01*
X24291Y10269D01*
X24312Y10225D01*
X24326Y10179D01*
X24352Y10091D01*
X24370Y10013D01*
X24376Y9975D01*
X24379Y9943D01*
X24382Y9914D01*
X24385Y9888D01*
X24387Y9870D01*
Y9853D01*
Y9844D01*
Y9841D01*
X24385Y9771D01*
X24376Y9704D01*
X24364Y9640D01*
X24352Y9585D01*
X24341Y9538D01*
X24335Y9521D01*
X24329Y9504D01*
X24323Y9492D01*
X24320Y9483D01*
X24317Y9477D01*
Y9474D01*
X24285Y9402D01*
X24248Y9338D01*
X24210Y9279D01*
X24172Y9230D01*
X24137Y9189D01*
X24111Y9160D01*
X24099Y9149D01*
X24091Y9140D01*
X24088Y9137D01*
X24085Y9134D01*
X24026Y9087D01*
X23968Y9047D01*
X23904Y9012D01*
X23840Y8980D01*
X23773Y8956D01*
X23709Y8933D01*
X23645Y8916D01*
X23584Y8901D01*
X23529Y8892D01*
X23474Y8884D01*
X23427Y8878D01*
X23386Y8872D01*
X23351D01*
X23325Y8869D01*
X23305D01*
X23186Y8875D01*
X23078Y8890D01*
X22976Y8913D01*
X22883Y8942D01*
X22798Y8974D01*
X22723Y9015D01*
X22653Y9055D01*
X22592Y9099D01*
X22539Y9140D01*
X22493Y9181D01*
X22455Y9221D01*
X22423Y9256D01*
X22397Y9285D01*
X22382Y9306D01*
X22371Y9320D01*
X22368Y9326D01*
X22342Y9370D01*
X22318Y9413D01*
X22298Y9460D01*
X22280Y9504D01*
X22254Y9588D01*
X22237Y9667D01*
X22231Y9701D01*
X22228Y9730D01*
X22225Y9760D01*
X22222Y9783D01*
X22219Y9803D01*
Y9818D01*
Y9826D01*
Y9829D01*
X22222Y9911D01*
X22231Y9987D01*
X22249Y10059D01*
X22266Y10126D01*
X22289Y10190D01*
X22316Y10251D01*
X22345Y10304D01*
X22371Y10353D01*
X22400Y10397D01*
X22429Y10438D01*
X22455Y10470D01*
X22478Y10499D01*
X22496Y10519D01*
X22510Y10537D01*
X22522Y10545D01*
X22525Y10548D01*
X22580Y10595D01*
X22641Y10635D01*
X22705Y10673D01*
X22769Y10702D01*
X22836Y10729D01*
X22900Y10752D01*
X22964Y10769D01*
X23025Y10784D01*
X23084Y10793D01*
X23136Y10801D01*
X23186Y10807D01*
X23226Y10813D01*
X23261D01*
X23287Y10816D01*
X23308D01*
X23427Y10810D01*
D02*
G37*
G36*
X27271Y152573D02*
X27373Y152558D01*
X27469Y152541D01*
X27559Y152518D01*
X27641Y152489D01*
X27716Y152456D01*
X27783Y152422D01*
X27845Y152387D01*
X27897Y152349D01*
X27944Y152314D01*
X27981Y152282D01*
X28013Y152256D01*
X28040Y152229D01*
X28057Y152212D01*
X28069Y152200D01*
X28071Y152195D01*
X28106Y152148D01*
X28135Y152099D01*
X28162Y152046D01*
X28185Y151997D01*
X28205Y151947D01*
X28220Y151898D01*
X28234Y151848D01*
X28243Y151805D01*
X28252Y151761D01*
X28258Y151723D01*
X28264Y151688D01*
X28267Y151659D01*
X28269Y151633D01*
Y151616D01*
Y151604D01*
Y151601D01*
X28264Y151511D01*
X28252Y151424D01*
X28234Y151348D01*
X28226Y151310D01*
X28214Y151278D01*
X28203Y151249D01*
X28194Y151223D01*
X28185Y151199D01*
X28176Y151179D01*
X28168Y151164D01*
X28165Y151153D01*
X28159Y151147D01*
Y151144D01*
X28121Y151077D01*
X28077Y151019D01*
X28034Y150967D01*
X27990Y150923D01*
X27952Y150888D01*
X27923Y150862D01*
X27911Y150850D01*
X27903Y150844D01*
X27897Y150841D01*
X27894Y150839D01*
X27839Y150801D01*
X27781Y150769D01*
X27719Y150742D01*
X27658Y150716D01*
X27597Y150696D01*
X27536Y150681D01*
X27478Y150667D01*
X27423Y150655D01*
X27367Y150646D01*
X27321Y150641D01*
X27274Y150635D01*
X27236Y150632D01*
X27207D01*
X27184Y150629D01*
X27164D01*
X27082Y150632D01*
X27009Y150638D01*
X26942Y150644D01*
X26887Y150652D01*
X26861Y150658D01*
X26841Y150661D01*
X26820Y150664D01*
X26806Y150670D01*
X26794Y150673D01*
X26785D01*
X26779Y150676D01*
X26777D01*
X26713Y150696D01*
X26646Y150725D01*
X26579Y150754D01*
X26515Y150786D01*
X26462Y150812D01*
X26436Y150827D01*
X26416Y150836D01*
X26401Y150847D01*
X26390Y150853D01*
X26381Y150856D01*
X26378Y150859D01*
X26337Y150882D01*
X26308Y150897D01*
X26282Y150908D01*
X26264Y150917D01*
X26253Y150923D01*
X26244Y150926D01*
X26238D01*
X26227Y150923D01*
X26218Y150920D01*
X26197Y150908D01*
X26180Y150894D01*
X26177Y150891D01*
X26174Y150888D01*
X26136Y150914D01*
X26401Y151307D01*
X26436Y151281D01*
Y151266D01*
Y151255D01*
Y151249D01*
Y151246D01*
Y151231D01*
X26442Y151217D01*
X26454Y151194D01*
X26465Y151176D01*
X26468Y151173D01*
X26471Y151170D01*
X26486Y151156D01*
X26503Y151141D01*
X26544Y151115D01*
X26564Y151103D01*
X26579Y151095D01*
X26590Y151089D01*
X26593Y151086D01*
X26640Y151063D01*
X26686Y151042D01*
X26777Y151007D01*
X26864Y150984D01*
X26942Y150967D01*
X26980Y150961D01*
X27012Y150958D01*
X27041Y150952D01*
X27065D01*
X27085Y150949D01*
X27111D01*
X27169Y150952D01*
X27225Y150955D01*
X27280Y150964D01*
X27327Y150975D01*
X27373Y150987D01*
X27417Y150999D01*
X27455Y151013D01*
X27490Y151031D01*
X27521Y151045D01*
X27548Y151060D01*
X27571Y151071D01*
X27591Y151083D01*
X27606Y151095D01*
X27617Y151103D01*
X27623Y151106D01*
X27626Y151109D01*
X27667Y151147D01*
X27699Y151185D01*
X27731Y151226D01*
X27754Y151266D01*
X27778Y151307D01*
X27795Y151348D01*
X27810Y151389D01*
X27821Y151426D01*
X27833Y151461D01*
X27839Y151496D01*
X27845Y151525D01*
X27847Y151551D01*
Y151572D01*
X27850Y151586D01*
Y151598D01*
Y151601D01*
X27847Y151656D01*
X27842Y151709D01*
X27830Y151758D01*
X27815Y151805D01*
X27798Y151848D01*
X27781Y151889D01*
X27760Y151927D01*
X27737Y151962D01*
X27716Y151991D01*
X27696Y152017D01*
X27679Y152040D01*
X27661Y152058D01*
X27647Y152072D01*
X27635Y152084D01*
X27629Y152090D01*
X27626Y152093D01*
X27588Y152122D01*
X27548Y152148D01*
X27507Y152168D01*
X27463Y152186D01*
X27379Y152215D01*
X27297Y152235D01*
X27260Y152241D01*
X27225Y152247D01*
X27193Y152250D01*
X27164Y152253D01*
X27143Y152256D01*
X27111D01*
X27059Y152253D01*
X27009Y152250D01*
X26913Y152235D01*
X26826Y152212D01*
X26788Y152200D01*
X26750Y152186D01*
X26715Y152174D01*
X26686Y152160D01*
X26657Y152148D01*
X26637Y152139D01*
X26616Y152128D01*
X26605Y152122D01*
X26596Y152119D01*
X26593Y152116D01*
X26561Y152099D01*
X26535Y152081D01*
X26515Y152067D01*
X26497Y152055D01*
X26486Y152046D01*
X26477Y152038D01*
X26474Y152035D01*
X26471Y152032D01*
X26459Y152020D01*
X26451Y152006D01*
X26439Y151982D01*
X26436Y151965D01*
Y151962D01*
Y151959D01*
Y151944D01*
Y151933D01*
Y151924D01*
Y151921D01*
X26401Y151895D01*
X26136Y152291D01*
X26174Y152314D01*
X26189Y152302D01*
X26200Y152294D01*
X26221Y152285D01*
X26232Y152279D01*
X26238D01*
X26250Y152282D01*
X26270Y152288D01*
X26294Y152299D01*
X26317Y152311D01*
X26340Y152323D01*
X26360Y152334D01*
X26372Y152340D01*
X26378Y152343D01*
X26462Y152390D01*
X26541Y152430D01*
X26608Y152462D01*
X26666Y152486D01*
X26692Y152497D01*
X26713Y152503D01*
X26733Y152512D01*
X26748Y152518D01*
X26759Y152521D01*
X26768Y152524D01*
X26774Y152526D01*
X26777D01*
X26838Y152544D01*
X26905Y152556D01*
X26969Y152564D01*
X27030Y152570D01*
X27082Y152573D01*
X27103Y152576D01*
X27161D01*
X27271Y152573D01*
D02*
G37*
G36*
X23555Y152500D02*
X23526Y152489D01*
X23503Y152477D01*
X23491Y152465D01*
X23488Y152462D01*
X23477Y152445D01*
X23471Y152422D01*
X23468Y152404D01*
Y152401D01*
Y152398D01*
Y150804D01*
X23471Y150775D01*
X23477Y150754D01*
X23485Y150742D01*
X23488Y150737D01*
X23509Y150722D01*
X23529Y150713D01*
X23547Y150708D01*
X23552Y150705D01*
X23555D01*
Y150661D01*
X23005D01*
Y150705D01*
X23037Y150713D01*
X23058Y150725D01*
X23072Y150734D01*
X23075Y150737D01*
X23084Y150757D01*
X23090Y150780D01*
X23092Y150798D01*
Y150801D01*
Y150804D01*
Y151950D01*
X22039Y150859D01*
X22016Y150836D01*
X22001Y150815D01*
X21990Y150798D01*
X21981Y150786D01*
X21975Y150775D01*
X21972Y150769D01*
Y150763D01*
X21975Y150748D01*
X21981Y150734D01*
X22001Y150716D01*
X22022Y150708D01*
X22027Y150705D01*
X22030D01*
Y150661D01*
X21437D01*
Y150705D01*
X21469Y150713D01*
X21489Y150725D01*
X21504Y150734D01*
X21507Y150737D01*
X21515Y150757D01*
X21521Y150780D01*
X21524Y150798D01*
Y150801D01*
Y150804D01*
Y152398D01*
X21521Y152427D01*
X21515Y152448D01*
X21509Y152459D01*
X21507Y152462D01*
X21486Y152477D01*
X21463Y152491D01*
X21445Y152497D01*
X21440Y152500D01*
X21437D01*
Y152544D01*
X21987D01*
Y152500D01*
X21958Y152489D01*
X21934Y152477D01*
X21923Y152465D01*
X21920Y152462D01*
X21908Y152445D01*
X21902Y152422D01*
X21899Y152404D01*
Y152401D01*
Y152398D01*
Y151281D01*
X22938Y152363D01*
X22953Y152378D01*
X22962Y152390D01*
X22973Y152413D01*
X22979Y152430D01*
Y152433D01*
Y152436D01*
X22976Y152454D01*
X22970Y152465D01*
X22947Y152486D01*
X22927Y152497D01*
X22921Y152500D01*
X22918D01*
Y152544D01*
X23555D01*
Y152500D01*
D02*
G37*
G36*
X20386D02*
X20357Y152489D01*
X20334Y152477D01*
X20322Y152465D01*
X20319Y152462D01*
X20308Y152445D01*
X20302Y152422D01*
X20299Y152404D01*
Y152401D01*
Y152398D01*
Y150804D01*
X20302Y150775D01*
X20308Y150754D01*
X20316Y150742D01*
X20319Y150737D01*
X20340Y150722D01*
X20360Y150713D01*
X20378Y150708D01*
X20383Y150705D01*
X20386D01*
Y150661D01*
X18730D01*
X18701Y150658D01*
X18681Y150652D01*
X18669Y150646D01*
X18666Y150644D01*
X18652Y150623D01*
X18637Y150600D01*
X18632Y150583D01*
X18629Y150577D01*
Y150574D01*
X18585D01*
Y151060D01*
X18629D01*
X18640Y151028D01*
X18652Y151007D01*
X18664Y150993D01*
X18666Y150990D01*
X18684Y150981D01*
X18707Y150975D01*
X18725Y150972D01*
X19889D01*
Y152398D01*
X19886Y152427D01*
X19880Y152448D01*
X19874Y152459D01*
X19871Y152462D01*
X19851Y152477D01*
X19827Y152491D01*
X19810Y152497D01*
X19804Y152500D01*
X19801D01*
Y152544D01*
X20386D01*
Y152500D01*
D02*
G37*
G36*
X25223D02*
X25196Y152489D01*
X25176Y152474D01*
X25161Y152459D01*
X25150Y152442D01*
X25144Y152430D01*
X25141Y152419D01*
Y152410D01*
Y152407D01*
Y152390D01*
X25147Y152372D01*
X25159Y152337D01*
X25164Y152320D01*
X25170Y152308D01*
X25173Y152299D01*
X25176Y152296D01*
X25869Y150850D01*
X25883Y150821D01*
X25895Y150798D01*
X25907Y150780D01*
X25915Y150766D01*
X25924Y150754D01*
X25930Y150745D01*
X25936Y150742D01*
Y150740D01*
X25962Y150722D01*
X25988Y150713D01*
X26000Y150708D01*
X26008D01*
X26014Y150705D01*
X26017D01*
Y150661D01*
X25394D01*
Y150705D01*
X25426Y150716D01*
X25447Y150728D01*
X25464Y150740D01*
X25476Y150754D01*
X25482Y150766D01*
X25484Y150777D01*
X25487Y150783D01*
Y150786D01*
X25484Y150812D01*
X25473Y150841D01*
X25470Y150853D01*
X25464Y150865D01*
X25461Y150871D01*
Y150873D01*
X25336Y151141D01*
X24481D01*
X24350Y150873D01*
X24335Y150836D01*
X24326Y150810D01*
X24323Y150795D01*
Y150789D01*
X24326Y150766D01*
X24338Y150745D01*
X24352Y150731D01*
X24367Y150722D01*
X24385Y150713D01*
X24399Y150708D01*
X24411Y150705D01*
X24414D01*
Y150661D01*
X23718D01*
Y150705D01*
X23756Y150716D01*
X23785Y150731D01*
X23797Y150737D01*
X23805Y150742D01*
X23808Y150748D01*
X23811D01*
X23826Y150763D01*
X23837Y150783D01*
X23864Y150824D01*
X23875Y150844D01*
X23884Y150859D01*
X23890Y150871D01*
X23893Y150873D01*
X24609Y152326D01*
X24623Y152363D01*
X24632Y152392D01*
Y152404D01*
X24635Y152413D01*
Y152416D01*
Y152419D01*
X24632Y152439D01*
X24623Y152454D01*
X24609Y152468D01*
X24594Y152480D01*
X24579Y152489D01*
X24565Y152494D01*
X24556Y152500D01*
X24553D01*
Y152544D01*
X25223D01*
Y152500D01*
D02*
G37*
G36*
X25888Y148608D02*
X25975Y148600D01*
X26056Y148588D01*
X26135Y148571D01*
X26208Y148553D01*
X26275Y148530D01*
X26336Y148506D01*
X26391Y148483D01*
X26440Y148460D01*
X26484Y148437D01*
X26522Y148413D01*
X26554Y148396D01*
X26577Y148378D01*
X26595Y148367D01*
X26606Y148358D01*
X26609Y148355D01*
X26665Y148303D01*
X26714Y148247D01*
X26758Y148189D01*
X26796Y148131D01*
X26825Y148070D01*
X26851Y148012D01*
X26871Y147953D01*
X26889Y147895D01*
X26903Y147843D01*
X26912Y147793D01*
X26921Y147750D01*
X26923Y147712D01*
X26926Y147680D01*
X26929Y147657D01*
Y147642D01*
Y147636D01*
X26926Y147549D01*
X26915Y147465D01*
X26897Y147386D01*
X26874Y147313D01*
X26845Y147246D01*
X26816Y147185D01*
X26784Y147127D01*
X26749Y147078D01*
X26714Y147031D01*
X26682Y146993D01*
X26653Y146958D01*
X26624Y146929D01*
X26601Y146909D01*
X26583Y146891D01*
X26571Y146883D01*
X26568Y146880D01*
X26513Y146842D01*
X26455Y146810D01*
X26394Y146781D01*
X26330Y146755D01*
X26269Y146734D01*
X26205Y146717D01*
X26147Y146702D01*
X26088Y146691D01*
X26033Y146682D01*
X25984Y146676D01*
X25937Y146670D01*
X25899Y146667D01*
X25867D01*
X25844Y146664D01*
X25824D01*
X25730Y146667D01*
X25634Y146679D01*
X25541Y146694D01*
X25451Y146711D01*
X25361Y146734D01*
X25273Y146760D01*
X25192Y146790D01*
X25116Y146819D01*
X25047Y146845D01*
X24983Y146874D01*
X24924Y146900D01*
X24878Y146923D01*
X24837Y146941D01*
X24808Y146958D01*
X24799Y146961D01*
X24791Y146967D01*
X24788Y146970D01*
X24785D01*
Y147005D01*
X24802Y147011D01*
X24817Y147014D01*
X24840Y147025D01*
X24852Y147034D01*
X24855Y147037D01*
X24863Y147057D01*
X24869Y147081D01*
X24872Y147098D01*
Y147101D01*
Y147104D01*
Y147491D01*
X24869Y147520D01*
X24863Y147540D01*
X24857Y147552D01*
X24855Y147555D01*
X24834Y147569D01*
X24811Y147584D01*
X24793Y147590D01*
X24788Y147593D01*
X24785D01*
Y147636D01*
X25675D01*
X25704Y147639D01*
X25725Y147645D01*
X25736Y147651D01*
X25742Y147654D01*
X25748Y147662D01*
X25757Y147671D01*
X25765Y147695D01*
X25771Y147715D01*
X25774Y147721D01*
Y147724D01*
X25818D01*
Y147287D01*
X25774D01*
X25765Y147316D01*
X25754Y147339D01*
X25745Y147351D01*
X25742Y147354D01*
X25722Y147366D01*
X25701Y147371D01*
X25684Y147374D01*
X25212D01*
Y147116D01*
X25256Y147095D01*
X25300Y147075D01*
X25343Y147057D01*
X25387Y147046D01*
X25422Y147034D01*
X25451Y147025D01*
X25463Y147022D01*
X25471D01*
X25474Y147019D01*
X25477D01*
X25532Y147008D01*
X25588Y146999D01*
X25640Y146993D01*
X25687Y146990D01*
X25725Y146987D01*
X25757Y146985D01*
X25783D01*
X25841Y146987D01*
X25896Y146990D01*
X25949Y146999D01*
X25998Y147011D01*
X26045Y147022D01*
X26085Y147037D01*
X26126Y147051D01*
X26161Y147069D01*
X26193Y147083D01*
X26219Y147098D01*
X26243Y147113D01*
X26263Y147124D01*
X26278Y147136D01*
X26289Y147145D01*
X26295Y147148D01*
X26298Y147150D01*
X26336Y147185D01*
X26368Y147223D01*
X26397Y147264D01*
X26420Y147302D01*
X26440Y147342D01*
X26458Y147383D01*
X26472Y147421D01*
X26484Y147459D01*
X26493Y147494D01*
X26499Y147526D01*
X26504Y147555D01*
X26507Y147581D01*
Y147601D01*
X26510Y147619D01*
Y147628D01*
Y147631D01*
X26507Y147686D01*
X26502Y147741D01*
X26490Y147791D01*
X26475Y147837D01*
X26461Y147881D01*
X26440Y147922D01*
X26420Y147959D01*
X26400Y147994D01*
X26379Y148023D01*
X26362Y148050D01*
X26342Y148073D01*
X26327Y148090D01*
X26312Y148105D01*
X26301Y148117D01*
X26295Y148122D01*
X26292Y148125D01*
X26254Y148154D01*
X26216Y148180D01*
X26176Y148201D01*
X26132Y148221D01*
X26091Y148239D01*
X26050Y148250D01*
X25975Y148271D01*
X25940Y148276D01*
X25905Y148282D01*
X25876Y148285D01*
X25853Y148288D01*
X25832Y148291D01*
X25803D01*
X25748Y148288D01*
X25693Y148285D01*
X25640Y148276D01*
X25594Y148268D01*
X25553Y148259D01*
X25521Y148253D01*
X25509Y148250D01*
X25501Y148247D01*
X25498Y148245D01*
X25495D01*
X25436Y148227D01*
X25387Y148210D01*
X25343Y148192D01*
X25308Y148175D01*
X25282Y148160D01*
X25262Y148149D01*
X25250Y148140D01*
X25247Y148137D01*
X25224Y148117D01*
X25210Y148102D01*
X25201Y148090D01*
X25198Y148087D01*
X25192Y148070D01*
X25186Y148047D01*
Y148029D01*
Y148026D01*
Y148023D01*
X25146Y148000D01*
X24924Y148454D01*
X24962Y148474D01*
X24977Y148463D01*
X24991Y148457D01*
X25012Y148445D01*
X25026Y148442D01*
X25032D01*
X25049Y148445D01*
X25070Y148448D01*
X25113Y148463D01*
X25134Y148469D01*
X25151Y148474D01*
X25163Y148477D01*
X25166Y148480D01*
X25233Y148503D01*
X25291Y148524D01*
X25346Y148541D01*
X25396Y148556D01*
X25434Y148567D01*
X25463Y148573D01*
X25474Y148576D01*
X25483Y148579D01*
X25489D01*
X25544Y148591D01*
X25596Y148597D01*
X25649Y148602D01*
X25695Y148608D01*
X25736D01*
X25765Y148611D01*
X25794D01*
X25888Y148608D01*
D02*
G37*
G36*
X24459Y148536D02*
X24430Y148524D01*
X24406Y148512D01*
X24395Y148501D01*
X24392Y148498D01*
X24380Y148480D01*
X24374Y148457D01*
X24371Y148440D01*
Y148437D01*
Y148434D01*
Y146839D01*
X24374Y146810D01*
X24380Y146790D01*
X24389Y146778D01*
X24392Y146772D01*
X24412Y146757D01*
X24433Y146749D01*
X24450Y146743D01*
X24456Y146740D01*
X24459D01*
Y146696D01*
X23909D01*
Y146740D01*
X23941Y146749D01*
X23961Y146760D01*
X23976Y146769D01*
X23979Y146772D01*
X23987Y146792D01*
X23993Y146816D01*
X23996Y146833D01*
Y146836D01*
Y146839D01*
Y147985D01*
X22943Y146894D01*
X22919Y146871D01*
X22905Y146851D01*
X22893Y146833D01*
X22884Y146821D01*
X22879Y146810D01*
X22876Y146804D01*
Y146798D01*
X22879Y146784D01*
X22884Y146769D01*
X22905Y146752D01*
X22925Y146743D01*
X22931Y146740D01*
X22934D01*
Y146696D01*
X22340D01*
Y146740D01*
X22372Y146749D01*
X22393Y146760D01*
X22407Y146769D01*
X22410Y146772D01*
X22419Y146792D01*
X22425Y146816D01*
X22428Y146833D01*
Y146836D01*
Y146839D01*
Y148434D01*
X22425Y148463D01*
X22419Y148483D01*
X22413Y148495D01*
X22410Y148498D01*
X22390Y148512D01*
X22366Y148527D01*
X22349Y148533D01*
X22343Y148536D01*
X22340D01*
Y148579D01*
X22890D01*
Y148536D01*
X22861Y148524D01*
X22838Y148512D01*
X22826Y148501D01*
X22823Y148498D01*
X22812Y148480D01*
X22806Y148457D01*
X22803Y148440D01*
Y148437D01*
Y148434D01*
Y147316D01*
X23842Y148399D01*
X23856Y148413D01*
X23865Y148425D01*
X23877Y148448D01*
X23883Y148466D01*
Y148469D01*
Y148471D01*
X23880Y148489D01*
X23874Y148501D01*
X23851Y148521D01*
X23830Y148533D01*
X23824Y148536D01*
X23821D01*
Y148579D01*
X24459D01*
Y148536D01*
D02*
G37*
G36*
X21997D02*
X21968Y148524D01*
X21945Y148512D01*
X21933Y148501D01*
X21930Y148498D01*
X21918Y148480D01*
X21913Y148457D01*
X21910Y148440D01*
Y148437D01*
Y148434D01*
Y146839D01*
X21913Y146810D01*
X21918Y146790D01*
X21927Y146778D01*
X21930Y146772D01*
X21950Y146757D01*
X21971Y146749D01*
X21988Y146743D01*
X21994Y146740D01*
X21997D01*
Y146696D01*
X20949D01*
X20856Y146699D01*
X20772Y146702D01*
X20699Y146711D01*
X20664Y146714D01*
X20635Y146720D01*
X20609Y146723D01*
X20585Y146725D01*
X20565Y146731D01*
X20548Y146734D01*
X20536Y146737D01*
X20527D01*
X20522Y146740D01*
X20519D01*
X20458Y146760D01*
X20402Y146784D01*
X20353Y146810D01*
X20309Y146836D01*
X20274Y146856D01*
X20248Y146877D01*
X20231Y146888D01*
X20225Y146894D01*
X20172Y146944D01*
X20126Y146999D01*
X20085Y147057D01*
X20050Y147118D01*
X20021Y147179D01*
X19998Y147241D01*
X19977Y147302D01*
X19963Y147363D01*
X19951Y147418D01*
X19940Y147470D01*
X19934Y147517D01*
X19931Y147558D01*
X19928Y147590D01*
X19925Y147616D01*
Y147631D01*
Y147636D01*
X19928Y147738D01*
X19940Y147831D01*
X19957Y147913D01*
X19966Y147951D01*
X19974Y147985D01*
X19986Y148015D01*
X19995Y148044D01*
X20004Y148067D01*
X20009Y148084D01*
X20018Y148102D01*
X20021Y148114D01*
X20027Y148119D01*
Y148122D01*
X20053Y148169D01*
X20079Y148213D01*
X20111Y148253D01*
X20143Y148291D01*
X20175Y148326D01*
X20207Y148355D01*
X20239Y148384D01*
X20271Y148407D01*
X20300Y148431D01*
X20329Y148448D01*
X20356Y148463D01*
X20376Y148477D01*
X20393Y148486D01*
X20408Y148492D01*
X20417Y148498D01*
X20420D01*
X20455Y148512D01*
X20495Y148524D01*
X20580Y148544D01*
X20667Y148559D01*
X20754Y148571D01*
X20792Y148573D01*
X20830Y148576D01*
X20862D01*
X20891Y148579D01*
X21997D01*
Y148536D01*
D02*
G37*
G36*
X27411Y156482D02*
X27513Y156468D01*
X27609Y156450D01*
X27699Y156427D01*
X27781Y156398D01*
X27856Y156366D01*
X27923Y156331D01*
X27984Y156296D01*
X28037Y156258D01*
X28083Y156223D01*
X28121Y156191D01*
X28153Y156165D01*
X28179Y156139D01*
X28197Y156122D01*
X28208Y156110D01*
X28211Y156104D01*
X28246Y156057D01*
X28275Y156008D01*
X28301Y155956D01*
X28325Y155906D01*
X28345Y155857D01*
X28360Y155807D01*
X28374Y155758D01*
X28383Y155714D01*
X28392Y155670D01*
X28397Y155633D01*
X28403Y155598D01*
X28406Y155569D01*
X28409Y155542D01*
Y155525D01*
Y155513D01*
Y155510D01*
X28403Y155420D01*
X28392Y155333D01*
X28374Y155257D01*
X28365Y155219D01*
X28354Y155187D01*
X28342Y155158D01*
X28333Y155132D01*
X28325Y155109D01*
X28316Y155088D01*
X28307Y155074D01*
X28304Y155062D01*
X28299Y155056D01*
Y155053D01*
X28261Y154987D01*
X28217Y154928D01*
X28173Y154876D01*
X28130Y154832D01*
X28092Y154797D01*
X28063Y154771D01*
X28051Y154760D01*
X28042Y154754D01*
X28037Y154751D01*
X28034Y154748D01*
X27978Y154710D01*
X27920Y154678D01*
X27859Y154652D01*
X27798Y154626D01*
X27737Y154605D01*
X27676Y154591D01*
X27617Y154576D01*
X27562Y154565D01*
X27507Y154556D01*
X27460Y154550D01*
X27414Y154544D01*
X27376Y154541D01*
X27347D01*
X27324Y154538D01*
X27303D01*
X27222Y154541D01*
X27149Y154547D01*
X27082Y154553D01*
X27027Y154562D01*
X27001Y154568D01*
X26980Y154570D01*
X26960Y154573D01*
X26945Y154579D01*
X26934Y154582D01*
X26925D01*
X26919Y154585D01*
X26916D01*
X26852Y154605D01*
X26785Y154634D01*
X26718Y154664D01*
X26654Y154696D01*
X26602Y154722D01*
X26576Y154736D01*
X26555Y154745D01*
X26541Y154757D01*
X26529Y154762D01*
X26520Y154765D01*
X26518Y154768D01*
X26477Y154792D01*
X26448Y154806D01*
X26421Y154818D01*
X26404Y154826D01*
X26392Y154832D01*
X26384Y154835D01*
X26378D01*
X26366Y154832D01*
X26357Y154829D01*
X26337Y154818D01*
X26320Y154803D01*
X26317Y154800D01*
X26314Y154797D01*
X26276Y154824D01*
X26541Y155216D01*
X26576Y155190D01*
Y155176D01*
Y155164D01*
Y155158D01*
Y155155D01*
Y155141D01*
X26582Y155126D01*
X26593Y155103D01*
X26605Y155086D01*
X26608Y155083D01*
X26611Y155080D01*
X26625Y155065D01*
X26643Y155051D01*
X26683Y155024D01*
X26704Y155013D01*
X26718Y155004D01*
X26730Y154998D01*
X26733Y154995D01*
X26779Y154972D01*
X26826Y154952D01*
X26916Y154917D01*
X27003Y154893D01*
X27082Y154876D01*
X27120Y154870D01*
X27152Y154867D01*
X27181Y154861D01*
X27204D01*
X27225Y154859D01*
X27251D01*
X27309Y154861D01*
X27364Y154864D01*
X27420Y154873D01*
X27466Y154885D01*
X27513Y154896D01*
X27556Y154908D01*
X27594Y154922D01*
X27629Y154940D01*
X27661Y154955D01*
X27687Y154969D01*
X27711Y154981D01*
X27731Y154992D01*
X27746Y155004D01*
X27757Y155013D01*
X27763Y155016D01*
X27766Y155019D01*
X27807Y155056D01*
X27839Y155094D01*
X27871Y155135D01*
X27894Y155176D01*
X27917Y155216D01*
X27935Y155257D01*
X27949Y155298D01*
X27961Y155336D01*
X27973Y155371D01*
X27978Y155406D01*
X27984Y155435D01*
X27987Y155461D01*
Y155481D01*
X27990Y155496D01*
Y155507D01*
Y155510D01*
X27987Y155566D01*
X27981Y155618D01*
X27970Y155667D01*
X27955Y155714D01*
X27938Y155758D01*
X27920Y155798D01*
X27900Y155836D01*
X27876Y155871D01*
X27856Y155900D01*
X27836Y155927D01*
X27818Y155950D01*
X27801Y155967D01*
X27786Y155982D01*
X27775Y155993D01*
X27769Y155999D01*
X27766Y156002D01*
X27728Y156031D01*
X27687Y156057D01*
X27647Y156078D01*
X27603Y156095D01*
X27519Y156124D01*
X27437Y156145D01*
X27399Y156150D01*
X27364Y156156D01*
X27332Y156159D01*
X27303Y156162D01*
X27283Y156165D01*
X27251D01*
X27198Y156162D01*
X27149Y156159D01*
X27053Y156145D01*
X26966Y156122D01*
X26928Y156110D01*
X26890Y156095D01*
X26855Y156084D01*
X26826Y156069D01*
X26797Y156057D01*
X26777Y156049D01*
X26756Y156037D01*
X26744Y156031D01*
X26736Y156028D01*
X26733Y156025D01*
X26701Y156008D01*
X26675Y155991D01*
X26654Y155976D01*
X26637Y155964D01*
X26625Y155956D01*
X26616Y155947D01*
X26614Y155944D01*
X26611Y155941D01*
X26599Y155929D01*
X26590Y155915D01*
X26579Y155892D01*
X26576Y155874D01*
Y155871D01*
Y155868D01*
Y155854D01*
Y155842D01*
Y155833D01*
Y155830D01*
X26541Y155804D01*
X26276Y156200D01*
X26314Y156223D01*
X26328Y156212D01*
X26340Y156203D01*
X26360Y156194D01*
X26372Y156188D01*
X26378D01*
X26390Y156191D01*
X26410Y156197D01*
X26433Y156209D01*
X26456Y156220D01*
X26480Y156232D01*
X26500Y156244D01*
X26512Y156249D01*
X26518Y156252D01*
X26602Y156299D01*
X26680Y156340D01*
X26748Y156372D01*
X26806Y156395D01*
X26832Y156407D01*
X26852Y156412D01*
X26873Y156421D01*
X26887Y156427D01*
X26899Y156430D01*
X26908Y156433D01*
X26913Y156436D01*
X26916D01*
X26977Y156453D01*
X27044Y156465D01*
X27108Y156474D01*
X27169Y156479D01*
X27222Y156482D01*
X27242Y156485D01*
X27300D01*
X27411Y156482D01*
D02*
G37*
G36*
X20526Y156410D02*
X20497Y156398D01*
X20473Y156386D01*
X20462Y156375D01*
X20459Y156372D01*
X20447Y156354D01*
X20441Y156331D01*
X20439Y156314D01*
Y156311D01*
Y156308D01*
Y154713D01*
X20441Y154684D01*
X20447Y154664D01*
X20456Y154652D01*
X20459Y154646D01*
X20479Y154631D01*
X20500Y154623D01*
X20517Y154617D01*
X20523Y154614D01*
X20526D01*
Y154570D01*
X19941D01*
Y154614D01*
X19973Y154623D01*
X19993Y154634D01*
X20008Y154643D01*
X20011Y154646D01*
X20019Y154666D01*
X20025Y154690D01*
X20028Y154707D01*
Y154710D01*
Y154713D01*
Y155391D01*
X18943D01*
Y154713D01*
X18946Y154684D01*
X18952Y154664D01*
X18960Y154652D01*
X18963Y154646D01*
X18984Y154631D01*
X19004Y154623D01*
X19021Y154617D01*
X19027Y154614D01*
X19030D01*
Y154570D01*
X18445D01*
Y154614D01*
X18477Y154623D01*
X18498Y154634D01*
X18512Y154643D01*
X18515Y154646D01*
X18524Y154666D01*
X18530Y154690D01*
X18532Y154707D01*
Y154710D01*
Y154713D01*
Y156308D01*
X18530Y156337D01*
X18524Y156357D01*
X18518Y156369D01*
X18515Y156372D01*
X18495Y156386D01*
X18471Y156401D01*
X18454Y156407D01*
X18448Y156410D01*
X18445D01*
Y156453D01*
X19030D01*
Y156410D01*
X19001Y156398D01*
X18978Y156386D01*
X18966Y156375D01*
X18963Y156372D01*
X18952Y156354D01*
X18946Y156331D01*
X18943Y156314D01*
Y156311D01*
Y156308D01*
Y155702D01*
X20028D01*
Y156308D01*
X20025Y156337D01*
X20019Y156357D01*
X20014Y156369D01*
X20011Y156372D01*
X19990Y156386D01*
X19967Y156401D01*
X19950Y156407D01*
X19944Y156410D01*
X19941D01*
Y156453D01*
X20526D01*
Y156410D01*
D02*
G37*
G36*
X23695D02*
X23666Y156398D01*
X23642Y156386D01*
X23631Y156375D01*
X23628Y156372D01*
X23616Y156354D01*
X23610Y156331D01*
X23608Y156314D01*
Y156311D01*
Y156308D01*
Y154713D01*
X23610Y154684D01*
X23616Y154664D01*
X23625Y154652D01*
X23628Y154646D01*
X23648Y154631D01*
X23669Y154623D01*
X23686Y154617D01*
X23692Y154614D01*
X23695D01*
Y154570D01*
X23145D01*
Y154614D01*
X23177Y154623D01*
X23197Y154634D01*
X23212Y154643D01*
X23215Y154646D01*
X23223Y154666D01*
X23229Y154690D01*
X23232Y154707D01*
Y154710D01*
Y154713D01*
Y155859D01*
X22179Y154768D01*
X22155Y154745D01*
X22141Y154725D01*
X22129Y154707D01*
X22121Y154696D01*
X22115Y154684D01*
X22112Y154678D01*
Y154672D01*
X22115Y154658D01*
X22121Y154643D01*
X22141Y154626D01*
X22161Y154617D01*
X22167Y154614D01*
X22170D01*
Y154570D01*
X21576D01*
Y154614D01*
X21608Y154623D01*
X21629Y154634D01*
X21643Y154643D01*
X21646Y154646D01*
X21655Y154666D01*
X21661Y154690D01*
X21664Y154707D01*
Y154710D01*
Y154713D01*
Y156308D01*
X21661Y156337D01*
X21655Y156357D01*
X21649Y156369D01*
X21646Y156372D01*
X21626Y156386D01*
X21603Y156401D01*
X21585Y156407D01*
X21579Y156410D01*
X21576D01*
Y156453D01*
X22126D01*
Y156410D01*
X22097Y156398D01*
X22074Y156386D01*
X22062Y156375D01*
X22060Y156372D01*
X22048Y156354D01*
X22042Y156331D01*
X22039Y156314D01*
Y156311D01*
Y156308D01*
Y155190D01*
X23078Y156273D01*
X23092Y156287D01*
X23101Y156299D01*
X23113Y156322D01*
X23119Y156340D01*
Y156343D01*
Y156345D01*
X23116Y156363D01*
X23110Y156375D01*
X23087Y156395D01*
X23066Y156407D01*
X23061Y156410D01*
X23058D01*
Y156453D01*
X23695D01*
Y156410D01*
D02*
G37*
G36*
X25362D02*
X25336Y156398D01*
X25316Y156383D01*
X25301Y156369D01*
X25289Y156351D01*
X25284Y156340D01*
X25281Y156328D01*
Y156319D01*
Y156316D01*
Y156299D01*
X25287Y156281D01*
X25298Y156247D01*
X25304Y156229D01*
X25310Y156218D01*
X25313Y156209D01*
X25316Y156206D01*
X26008Y154760D01*
X26023Y154730D01*
X26035Y154707D01*
X26046Y154690D01*
X26055Y154675D01*
X26064Y154664D01*
X26069Y154655D01*
X26075Y154652D01*
Y154649D01*
X26101Y154631D01*
X26128Y154623D01*
X26139Y154617D01*
X26148D01*
X26154Y154614D01*
X26157D01*
Y154570D01*
X25534D01*
Y154614D01*
X25566Y154626D01*
X25586Y154637D01*
X25604Y154649D01*
X25616Y154664D01*
X25621Y154675D01*
X25624Y154687D01*
X25627Y154693D01*
Y154696D01*
X25624Y154722D01*
X25613Y154751D01*
X25610Y154762D01*
X25604Y154774D01*
X25601Y154780D01*
Y154783D01*
X25476Y155051D01*
X24620D01*
X24489Y154783D01*
X24475Y154745D01*
X24466Y154719D01*
X24463Y154704D01*
Y154699D01*
X24466Y154675D01*
X24478Y154655D01*
X24492Y154640D01*
X24507Y154631D01*
X24524Y154623D01*
X24539Y154617D01*
X24550Y154614D01*
X24553D01*
Y154570D01*
X23858D01*
Y154614D01*
X23896Y154626D01*
X23925Y154640D01*
X23936Y154646D01*
X23945Y154652D01*
X23948Y154658D01*
X23951D01*
X23966Y154672D01*
X23977Y154693D01*
X24003Y154733D01*
X24015Y154754D01*
X24024Y154768D01*
X24029Y154780D01*
X24032Y154783D01*
X24748Y156235D01*
X24763Y156273D01*
X24772Y156302D01*
Y156314D01*
X24775Y156322D01*
Y156325D01*
Y156328D01*
X24772Y156348D01*
X24763Y156363D01*
X24748Y156377D01*
X24734Y156389D01*
X24719Y156398D01*
X24705Y156404D01*
X24696Y156410D01*
X24693D01*
Y156453D01*
X25362D01*
Y156410D01*
D02*
G37*
%LPC*%
G36*
X22298Y159987D02*
Y159164D01*
X23029D01*
X22298Y159987D01*
D02*
G37*
G36*
X59631Y136825D02*
X59587D01*
Y136822D01*
X59584Y136816D01*
X59578Y136799D01*
X59563Y136776D01*
X59549Y136755D01*
X59546Y136752D01*
X59534Y136746D01*
X59514Y136741D01*
X59485Y136738D01*
X57890D01*
X57887D01*
X57885D01*
X57867Y136741D01*
X57844Y136746D01*
X57823Y136755D01*
X57820Y136758D01*
X57812Y136773D01*
X57800Y136793D01*
X57791Y136825D01*
X58689D01*
X57748D01*
Y134706D01*
X57791D01*
Y134709D01*
X57794Y134715D01*
X57800Y134733D01*
X57809Y134753D01*
X57823Y134774D01*
X57829Y134776D01*
X57841Y134785D01*
X57861Y134791D01*
X57890Y134794D01*
X59485D01*
X59488D01*
X59491D01*
X59508Y134791D01*
X59531Y134785D01*
X59549Y134774D01*
X59552Y134771D01*
X59563Y134759D01*
X59575Y134736D01*
X59587Y134706D01*
X58689D01*
X59631D01*
Y136234D01*
Y135344D01*
X59587D01*
Y135341D01*
X59584Y135335D01*
X59572Y135315D01*
X59552Y135291D01*
X59540Y135286D01*
X59523Y135283D01*
X59520D01*
X59517D01*
X59500Y135289D01*
X59476Y135300D01*
X59465Y135309D01*
X59450Y135324D01*
X58368Y136362D01*
X59485D01*
X59488D01*
X59491D01*
X59508Y136359D01*
X59531Y136354D01*
X59549Y136342D01*
X59552Y136339D01*
X59563Y136327D01*
X59575Y136304D01*
X59587Y136275D01*
X59631D01*
Y136825D01*
D02*
G37*
G36*
X58025Y134544D02*
X57748D01*
Y132245D01*
X57791D01*
Y132248D01*
X57794Y132253D01*
Y132262D01*
X57800Y132274D01*
X57809Y132300D01*
X57826Y132326D01*
X57829D01*
X57832Y132332D01*
X57841Y132338D01*
X57853Y132346D01*
X57867Y132355D01*
X57885Y132367D01*
X57908Y132378D01*
X57937Y132393D01*
X59383Y133086D01*
X59386Y133089D01*
X59395Y133091D01*
X59406Y133097D01*
X59424Y133103D01*
X59459Y133115D01*
X59476Y133121D01*
X59494D01*
X59497D01*
X59505D01*
X59517Y133118D01*
X59529Y133112D01*
X59546Y133100D01*
X59561Y133086D01*
X59575Y133065D01*
X59587Y133039D01*
X59631D01*
Y133781D01*
Y133708D01*
X59587D01*
Y133705D01*
X59581Y133697D01*
X59575Y133682D01*
X59566Y133668D01*
X59555Y133653D01*
X59540Y133639D01*
X59526Y133630D01*
X59505Y133627D01*
X59502D01*
X59500D01*
X59491Y133630D01*
X59479D01*
X59450Y133639D01*
X59412Y133653D01*
X57960Y134369D01*
X57957Y134372D01*
X57946Y134378D01*
X57931Y134386D01*
X57911Y134398D01*
X57870Y134424D01*
X57850Y134436D01*
X57835Y134450D01*
Y134453D01*
X57829Y134456D01*
X57823Y134465D01*
X57818Y134477D01*
X57803Y134506D01*
X57791Y134544D01*
X58025D01*
D02*
G37*
G36*
X59631Y132245D02*
X58025D01*
X59631D01*
D01*
D02*
G37*
G36*
X59377Y132125D02*
X58982Y131860D01*
X59008Y131826D01*
X59011D01*
X59019D01*
X59031D01*
X59046D01*
X59048D01*
X59051D01*
X59069Y131823D01*
X59092Y131811D01*
X59107Y131802D01*
X59118Y131791D01*
X59121Y131788D01*
X59124Y131785D01*
X59133Y131776D01*
X59142Y131764D01*
X59153Y131747D01*
X59168Y131727D01*
X59185Y131701D01*
X59203Y131668D01*
X59206Y131666D01*
X59209Y131657D01*
X59214Y131645D01*
X59226Y131625D01*
X59235Y131605D01*
X59246Y131575D01*
X59261Y131546D01*
X59272Y131511D01*
X59287Y131474D01*
X59299Y131436D01*
X59322Y131348D01*
X59337Y131252D01*
X59339Y131203D01*
X59342Y131150D01*
Y131119D01*
X59339Y131098D01*
X59337Y131069D01*
X59334Y131037D01*
X59328Y131002D01*
X59322Y130964D01*
X59302Y130883D01*
X59272Y130798D01*
X59255Y130755D01*
X59235Y130714D01*
X59209Y130673D01*
X59179Y130635D01*
X59176Y130632D01*
X59171Y130627D01*
X59159Y130615D01*
X59145Y130601D01*
X59127Y130583D01*
X59104Y130566D01*
X59078Y130545D01*
X59048Y130525D01*
X59013Y130502D01*
X58976Y130481D01*
X58935Y130464D01*
X58891Y130446D01*
X58845Y130432D01*
X58795Y130420D01*
X58743Y130414D01*
X58688Y130411D01*
X58685D01*
X58673D01*
X58658Y130414D01*
X58638D01*
X58612Y130417D01*
X58583Y130423D01*
X58548Y130429D01*
X58513Y130440D01*
X58475Y130452D01*
X58434Y130467D01*
X58394Y130484D01*
X58353Y130507D01*
X58312Y130531D01*
X58271Y130563D01*
X58234Y130595D01*
X58196Y130635D01*
X58193Y130638D01*
X58190Y130644D01*
X58181Y130656D01*
X58170Y130670D01*
X58158Y130691D01*
X58146Y130714D01*
X58132Y130740D01*
X58117Y130772D01*
X58100Y130807D01*
X58085Y130845D01*
X58074Y130889D01*
X58062Y130935D01*
X58050Y130982D01*
X58042Y131037D01*
X58039Y131092D01*
X58036Y131150D01*
Y131177D01*
X58039Y131197D01*
Y131220D01*
X58044Y131249D01*
X58047Y131281D01*
X58053Y131319D01*
X58071Y131398D01*
X58094Y131485D01*
X58129Y131575D01*
X58149Y131622D01*
X58173Y131668D01*
X58175Y131671D01*
X58181Y131683D01*
X58190Y131698D01*
X58202Y131718D01*
X58228Y131759D01*
X58242Y131776D01*
X58257Y131791D01*
X58260Y131794D01*
X58263Y131797D01*
X58280Y131808D01*
X58303Y131820D01*
X58318Y131826D01*
X58333D01*
X58336D01*
X58341D01*
X58353D01*
X58368D01*
X58394Y131860D01*
X58001Y132125D01*
X57975Y132088D01*
X57978Y132085D01*
X57981Y132082D01*
X57995Y132064D01*
X58007Y132044D01*
X58010Y132035D01*
X58012Y132024D01*
Y132018D01*
X58010Y132009D01*
X58004Y131997D01*
X57995Y131980D01*
X57983Y131954D01*
X57969Y131925D01*
X57946Y131884D01*
X57943Y131881D01*
X57940Y131872D01*
X57934Y131860D01*
X57922Y131846D01*
X57914Y131826D01*
X57899Y131799D01*
X57873Y131747D01*
X57841Y131683D01*
X57812Y131616D01*
X57783Y131549D01*
X57762Y131485D01*
Y131482D01*
X57759Y131476D01*
Y131468D01*
X57756Y131456D01*
X57751Y131441D01*
X57748Y131421D01*
X57745Y131401D01*
X57739Y131375D01*
X57730Y131319D01*
X57724Y131252D01*
X57719Y131180D01*
X57716Y131098D01*
Y131078D01*
X57719Y131054D01*
Y131025D01*
X57722Y130988D01*
X57727Y130941D01*
X57733Y130894D01*
X57742Y130839D01*
X57753Y130784D01*
X57768Y130726D01*
X57783Y130665D01*
X57803Y130603D01*
X57829Y130542D01*
X57855Y130481D01*
X57887Y130423D01*
X57925Y130368D01*
X57928Y130365D01*
X57931Y130359D01*
X57937Y130350D01*
X57948Y130339D01*
X57975Y130309D01*
X58010Y130272D01*
X58053Y130228D01*
X58106Y130184D01*
X58164Y130141D01*
X58231Y130103D01*
X58234D01*
X58240Y130097D01*
X58251Y130094D01*
X58266Y130085D01*
X58286Y130077D01*
X58309Y130068D01*
X58336Y130059D01*
X58365Y130048D01*
X58397Y130036D01*
X58434Y130027D01*
X58510Y130010D01*
X58597Y129998D01*
X58688Y129992D01*
X59662D01*
X58720D01*
X58746Y129995D01*
X58775Y129998D01*
X58810Y130004D01*
X58848Y130010D01*
X58891Y130018D01*
X58935Y130027D01*
X58985Y130042D01*
X59034Y130056D01*
X59083Y130077D01*
X59133Y130100D01*
X59185Y130126D01*
X59235Y130155D01*
X59281Y130190D01*
X59287Y130193D01*
X59299Y130205D01*
X59316Y130222D01*
X59342Y130248D01*
X59369Y130280D01*
X59401Y130318D01*
X59435Y130365D01*
X59473Y130417D01*
X59508Y130478D01*
X59543Y130545D01*
X59575Y130621D01*
X59604Y130702D01*
X59628Y130793D01*
X59645Y130889D01*
X59660Y130991D01*
X59662Y131101D01*
Y131159D01*
X59660Y131180D01*
X59657Y131232D01*
X59651Y131293D01*
X59642Y131357D01*
X59631Y131424D01*
X59613Y131485D01*
Y131488D01*
X59610Y131494D01*
X59607Y131503D01*
X59604Y131514D01*
X59598Y131529D01*
X59590Y131549D01*
X59584Y131570D01*
X59572Y131596D01*
X59549Y131654D01*
X59517Y131721D01*
X59476Y131799D01*
X59430Y131884D01*
X59427Y131890D01*
X59421Y131901D01*
X59409Y131922D01*
X59398Y131945D01*
X59386Y131968D01*
X59374Y131992D01*
X59369Y132012D01*
X59366Y132024D01*
Y132029D01*
X59372Y132041D01*
X59380Y132061D01*
X59389Y132073D01*
X59401Y132088D01*
X59377Y132125D01*
D02*
G37*
G36*
X58025Y129105D02*
X57748D01*
Y127047D01*
X57791D01*
Y127050D01*
X57794Y127056D01*
X57800Y127074D01*
X57809Y127094D01*
X57823Y127114D01*
X57829Y127117D01*
X57841Y127126D01*
X57861Y127132D01*
X57890Y127135D01*
X59485D01*
X59488D01*
X59491D01*
X59508Y127132D01*
X59531Y127126D01*
X59549Y127114D01*
X59552Y127111D01*
X59563Y127100D01*
X59575Y127076D01*
X59587Y127047D01*
X58689D01*
X59631D01*
Y128299D01*
X59628Y128345D01*
X59625Y128401D01*
X59619Y128459D01*
X59613Y128514D01*
X59604Y128563D01*
Y128569D01*
X59598Y128584D01*
X59593Y128610D01*
X59584Y128639D01*
X59572Y128674D01*
X59558Y128712D01*
X59537Y128750D01*
X59517Y128785D01*
X59514Y128790D01*
X59502Y128802D01*
X59488Y128823D01*
X59465Y128846D01*
X59438Y128872D01*
X59404Y128898D01*
X59366Y128924D01*
X59322Y128948D01*
X59316Y128951D01*
X59302Y128956D01*
X59278Y128965D01*
X59246Y128974D01*
X59209Y128983D01*
X59165Y128991D01*
X59118Y128997D01*
X59069Y129000D01*
X59063D01*
X59048D01*
X59025Y128997D01*
X58996Y128991D01*
X58961Y128986D01*
X58920Y128974D01*
X58877Y128956D01*
X58830Y128936D01*
X58781Y128910D01*
X58734Y128875D01*
X58691Y128834D01*
X58647Y128782D01*
X58609Y128724D01*
X58577Y128654D01*
X58551Y128575D01*
X58539Y128532D01*
X58530Y128485D01*
X58010Y128852D01*
X58004Y128855D01*
X57986Y128866D01*
X57963Y128884D01*
X57937Y128904D01*
X57905Y128927D01*
X57876Y128951D01*
X57853Y128974D01*
X57832Y128991D01*
X57829Y128994D01*
X57826Y129000D01*
X57820Y129009D01*
X57812Y129023D01*
X57806Y129041D01*
X57800Y129058D01*
X57794Y129081D01*
X57791Y129105D01*
X58025D01*
D02*
G37*
G36*
X58676Y126762D02*
X58650D01*
X58621Y126759D01*
X58580Y126756D01*
X58536Y126751D01*
X58484Y126745D01*
X58429Y126733D01*
X58370Y126719D01*
X58368D01*
X58365Y126716D01*
X58356D01*
X58344Y126710D01*
X58318Y126701D01*
X58280Y126690D01*
X58240Y126672D01*
X58196Y126655D01*
X58149Y126631D01*
X58106Y126605D01*
X58103D01*
X58097Y126599D01*
X58088Y126593D01*
X58074Y126582D01*
X58056Y126570D01*
X58039Y126556D01*
X57995Y126518D01*
X57946Y126468D01*
X57896Y126413D01*
X57850Y126346D01*
X57806Y126273D01*
Y126270D01*
X57803Y126265D01*
X57797Y126256D01*
X57791Y126241D01*
X57785Y126224D01*
X57777Y126204D01*
X57768Y126180D01*
X57762Y126154D01*
X57745Y126096D01*
X57730Y126026D01*
X57719Y125950D01*
X57716Y125869D01*
Y126762D01*
D01*
Y124978D01*
D01*
Y125851D01*
X57719Y125834D01*
Y125808D01*
X57724Y125776D01*
X57727Y125738D01*
X57736Y125697D01*
X57745Y125654D01*
X57759Y125604D01*
X57774Y125555D01*
X57794Y125502D01*
X57818Y125453D01*
X57847Y125400D01*
X57879Y125348D01*
X57914Y125299D01*
X57957Y125252D01*
X57963Y125246D01*
X57978Y125232D01*
X58001Y125211D01*
X58033Y125185D01*
X58074Y125156D01*
X58117Y125127D01*
X58167Y125098D01*
X58222Y125072D01*
X58225D01*
X58231Y125069D01*
X58245Y125063D01*
X58260Y125057D01*
X58280Y125051D01*
X58303Y125042D01*
X58333Y125034D01*
X58362Y125025D01*
X58432Y125007D01*
X58510Y124993D01*
X58597Y124981D01*
X58688Y124978D01*
X59662D01*
X58720D01*
X58743Y124981D01*
X58772Y124984D01*
X58807Y124987D01*
X58845Y124990D01*
X58888Y124999D01*
X58979Y125016D01*
X59075Y125042D01*
X59124Y125060D01*
X59174Y125083D01*
X59223Y125106D01*
X59270Y125133D01*
X59272Y125136D01*
X59278Y125138D01*
X59287Y125144D01*
X59302Y125156D01*
X59337Y125182D01*
X59380Y125220D01*
X59430Y125267D01*
X59479Y125322D01*
X59526Y125389D01*
X59569Y125464D01*
Y125467D01*
X59572Y125473D01*
X59578Y125482D01*
X59584Y125496D01*
X59590Y125511D01*
X59598Y125531D01*
X59607Y125555D01*
X59616Y125581D01*
X59631Y125639D01*
X59648Y125709D01*
X59657Y125785D01*
X59662Y125869D01*
Y125886D01*
X59660Y125904D01*
Y125930D01*
X59654Y125962D01*
X59651Y126000D01*
X59642Y126041D01*
X59633Y126084D01*
X59619Y126134D01*
X59604Y126183D01*
X59584Y126233D01*
X59561Y126285D01*
X59534Y126337D01*
X59500Y126390D01*
X59465Y126439D01*
X59421Y126486D01*
X59418Y126489D01*
X59409Y126497D01*
X59392Y126512D01*
X59372Y126529D01*
X59342Y126550D01*
X59310Y126573D01*
X59270Y126599D01*
X59226Y126626D01*
X59174Y126649D01*
X59118Y126675D01*
X59057Y126698D01*
X58990Y126719D01*
X58920Y126736D01*
X58845Y126751D01*
X58763Y126759D01*
X58676Y126762D01*
D02*
G37*
G36*
X59662Y124751D02*
X57660D01*
Y124708D01*
X57663D01*
X57669Y124705D01*
X57687Y124699D01*
X57710Y124685D01*
X57730Y124670D01*
X57733Y124667D01*
X57739Y124655D01*
X57745Y124635D01*
X57748Y124606D01*
Y123116D01*
X57745Y123101D01*
X57742Y123069D01*
X57739Y123055D01*
X57733Y123043D01*
X57730Y123040D01*
X57719Y123032D01*
X57707Y123026D01*
X57695Y123020D01*
X57681Y123014D01*
X57660Y123008D01*
Y124618D01*
Y122962D01*
D01*
Y122965D01*
X57663D01*
X57672D01*
X57684D01*
X57698D01*
X57727Y122962D01*
X57777D01*
X57809Y122965D01*
X57850Y122968D01*
X57896Y122970D01*
X57946Y122979D01*
X57992Y122988D01*
X58039Y123003D01*
X58042D01*
X58050Y123005D01*
X58062Y123011D01*
X58077Y123020D01*
X58097Y123029D01*
X58120Y123040D01*
X58175Y123072D01*
X58237Y123113D01*
X58269Y123136D01*
X58301Y123166D01*
X58336Y123195D01*
X58368Y123230D01*
X58399Y123264D01*
X58432Y123305D01*
X58434Y123311D01*
X58446Y123328D01*
X58455Y123340D01*
X58464Y123355D01*
X58475Y123372D01*
X58487Y123395D01*
X58501Y123419D01*
X58516Y123445D01*
X58533Y123477D01*
X58551Y123509D01*
X58568Y123547D01*
X58589Y123587D01*
X58609Y123631D01*
X58632Y123678D01*
X58740Y123910D01*
Y123913D01*
X58743Y123916D01*
X58749Y123925D01*
X58755Y123937D01*
X58769Y123966D01*
X58787Y124001D01*
X58810Y124039D01*
X58836Y124079D01*
X58865Y124114D01*
X58894Y124146D01*
X58897Y124149D01*
X58909Y124158D01*
X58926Y124169D01*
X58950Y124184D01*
X58976Y124196D01*
X59011Y124207D01*
X59046Y124216D01*
X59086Y124219D01*
X59089D01*
X59092D01*
X59107D01*
X59130Y124213D01*
X59156Y124207D01*
X59188Y124198D01*
X59220Y124181D01*
X59249Y124161D01*
X59276Y124132D01*
X59278Y124129D01*
X59287Y124114D01*
X59296Y124097D01*
X59310Y124068D01*
X59322Y124033D01*
X59331Y123989D01*
X59339Y123940D01*
X59342Y123881D01*
Y123846D01*
X59339Y123829D01*
X59337Y123809D01*
X59331Y123762D01*
X59319Y123704D01*
X59302Y123643D01*
X59276Y123576D01*
X59243Y123512D01*
Y123509D01*
X59241Y123506D01*
X59235Y123497D01*
X59226Y123486D01*
X59209Y123459D01*
X59182Y123427D01*
X59153Y123395D01*
X59121Y123369D01*
X59104Y123357D01*
X59086Y123352D01*
X59066Y123346D01*
X59048Y123343D01*
X59043D01*
X59037D01*
X59028Y123346D01*
X59017Y123349D01*
X59002Y123352D01*
X58985Y123357D01*
X58961Y123366D01*
X58929Y123337D01*
X59328Y122970D01*
X59357Y123003D01*
Y123005D01*
X59354Y123011D01*
X59348Y123020D01*
X59345Y123032D01*
X59334Y123058D01*
X59331Y123078D01*
Y123093D01*
X59334Y123104D01*
X59339Y123116D01*
X59342Y123119D01*
X59351Y123131D01*
X59369Y123154D01*
X59383Y123168D01*
X59398Y123186D01*
X59401Y123189D01*
X59409Y123200D01*
X59421Y123218D01*
X59438Y123241D01*
X59459Y123270D01*
X59482Y123305D01*
X59505Y123346D01*
X59531Y123392D01*
X59555Y123445D01*
X59578Y123500D01*
X59601Y123564D01*
X59622Y123628D01*
X59639Y123698D01*
X59651Y123774D01*
X59660Y123852D01*
X59662Y123934D01*
Y123966D01*
X59660Y123986D01*
X59657Y124015D01*
X59654Y124044D01*
X59651Y124079D01*
X59642Y124117D01*
X59625Y124198D01*
X59596Y124286D01*
X59578Y124327D01*
X59558Y124370D01*
X59534Y124408D01*
X59505Y124446D01*
X59502Y124449D01*
X59497Y124455D01*
X59488Y124463D01*
X59476Y124478D01*
X59459Y124492D01*
X59441Y124507D01*
X59418Y124524D01*
X59392Y124545D01*
X59363Y124562D01*
X59331Y124580D01*
X59296Y124594D01*
X59258Y124612D01*
X59217Y124623D01*
X59174Y124632D01*
X59127Y124638D01*
X59078Y124641D01*
X59075D01*
X59066D01*
X59051D01*
X59034Y124638D01*
X59011Y124635D01*
X58985Y124632D01*
X58958Y124626D01*
X58926Y124618D01*
X58856Y124594D01*
X58821Y124580D01*
X58787Y124562D01*
X58749Y124542D01*
X58714Y124516D01*
X58679Y124487D01*
X58647Y124455D01*
X58641Y124449D01*
X58627Y124431D01*
X58606Y124405D01*
X58580Y124367D01*
X58548Y124321D01*
X58513Y124266D01*
X58478Y124198D01*
X58443Y124126D01*
X58347Y123913D01*
Y123910D01*
X58344Y123907D01*
X58338Y123896D01*
X58333Y123881D01*
X58324Y123861D01*
X58312Y123835D01*
X58301Y123803D01*
X58283Y123762D01*
Y123759D01*
X58280Y123756D01*
X58274Y123739D01*
X58263Y123713D01*
X58248Y123683D01*
X58219Y123617D01*
X58202Y123587D01*
X58187Y123561D01*
X58184Y123558D01*
X58181Y123553D01*
X58173Y123541D01*
X58161Y123526D01*
X58146Y123509D01*
X58132Y123491D01*
X58088Y123454D01*
Y124612D01*
X58091Y124629D01*
X58097Y124653D01*
X58106Y124670D01*
X58109Y124673D01*
X58123Y124685D01*
X58144Y124696D01*
X58175Y124708D01*
Y124751D01*
X59662D01*
D02*
G37*
G36*
X59631Y122202D02*
X59587D01*
Y122199D01*
X59584Y122194D01*
X59578Y122176D01*
X59563Y122153D01*
X59549Y122132D01*
X59546Y122129D01*
X59534Y122124D01*
X59514Y122118D01*
X59485Y122115D01*
X57890D01*
X57887D01*
X57885D01*
X57867Y122118D01*
X57844Y122124D01*
X57823Y122132D01*
X57820Y122135D01*
X57812Y122150D01*
X57800Y122170D01*
X57791Y122202D01*
X58689D01*
X57748D01*
Y121443D01*
D01*
Y121629D01*
X57791D01*
Y121632D01*
X57794Y121638D01*
X57800Y121655D01*
X57809Y121676D01*
X57823Y121696D01*
X57829Y121699D01*
X57841Y121708D01*
X57861Y121713D01*
X57890Y121716D01*
X59080D01*
X59051Y121585D01*
Y121582D01*
X59048Y121577D01*
X59043Y121559D01*
X59034Y121539D01*
X59019Y121518D01*
X59017Y121516D01*
X59002Y121507D01*
X58982Y121495D01*
X58950Y121486D01*
Y121443D01*
X57748D01*
X59631D01*
D01*
X59450D01*
Y121486D01*
X59447D01*
X59441Y121489D01*
X59421Y121495D01*
X59401Y121504D01*
X59389Y121507D01*
X59383Y121513D01*
X59380Y121516D01*
X59377Y121524D01*
X59372Y121536D01*
X59369Y121556D01*
Y121580D01*
X59372Y121597D01*
X59404Y121716D01*
X59485D01*
X59488D01*
X59491D01*
X59508Y121713D01*
X59529Y121708D01*
X59549Y121696D01*
X59552Y121693D01*
X59563Y121681D01*
X59575Y121658D01*
X59587Y121629D01*
X59631D01*
Y122202D01*
D02*
G37*
%LPD*%
G36*
X57861Y136287D02*
X57873Y136281D01*
X57885Y136272D01*
X57902Y136260D01*
X57922Y136246D01*
X57946Y136223D01*
X59037Y135169D01*
X57890D01*
X57887D01*
X57885D01*
X57867Y135172D01*
X57844Y135178D01*
X57823Y135187D01*
X57820Y135190D01*
X57812Y135204D01*
X57800Y135224D01*
X57791Y135257D01*
X57748D01*
Y136231D01*
X57791D01*
Y136234D01*
X57794Y136240D01*
X57803Y136260D01*
X57820Y136281D01*
X57835Y136287D01*
X57850Y136290D01*
X57855D01*
X57861Y136287D01*
D02*
G37*
G36*
X59156Y133359D02*
X58487Y133048D01*
Y133665D01*
X59156Y133359D01*
D02*
G37*
G36*
X57896Y133935D02*
X57922Y133927D01*
X57960Y133912D01*
X58228Y133781D01*
Y132926D01*
X57960Y132800D01*
X57957D01*
X57951Y132798D01*
X57940Y132792D01*
X57928Y132789D01*
X57899Y132777D01*
X57873Y132774D01*
X57870D01*
X57864Y132777D01*
X57853Y132780D01*
X57841Y132786D01*
X57826Y132798D01*
X57815Y132815D01*
X57803Y132835D01*
X57791Y132867D01*
X57748D01*
Y133848D01*
X57791D01*
Y133851D01*
X57794Y133863D01*
X57800Y133877D01*
X57809Y133895D01*
X57818Y133909D01*
X57832Y133924D01*
X57853Y133935D01*
X57876Y133938D01*
X57882D01*
X57896Y133935D01*
D02*
G37*
G36*
X59095Y128587D02*
X59121Y128584D01*
X59153Y128575D01*
X59188Y128563D01*
X59220Y128543D01*
X59252Y128517D01*
X59276Y128482D01*
Y128479D01*
X59278Y128473D01*
X59284Y128465D01*
X59290Y128450D01*
X59302Y128418D01*
X59310Y128377D01*
Y128374D01*
X59313Y128366D01*
Y128351D01*
X59316Y128331D01*
Y128305D01*
X59319Y128270D01*
Y127545D01*
X58827D01*
Y128258D01*
X58830Y128322D01*
Y128351D01*
X58833Y128377D01*
Y128380D01*
X58836Y128386D01*
Y128398D01*
X58842Y128412D01*
X58851Y128447D01*
X58868Y128482D01*
X58871Y128488D01*
X58880Y128499D01*
X58894Y128517D01*
X58915Y128537D01*
X58941Y128555D01*
X58979Y128572D01*
X59019Y128584D01*
X59072Y128590D01*
X59075D01*
X59078D01*
X59095Y128587D01*
D02*
G37*
G36*
X57853Y128491D02*
X57864Y128485D01*
X57882Y128476D01*
X57902Y128465D01*
X57928Y128450D01*
X57960Y128427D01*
X58516Y128045D01*
Y127545D01*
X57890D01*
X57887D01*
X57885D01*
X57867Y127548D01*
X57844Y127554D01*
X57823Y127562D01*
X57820Y127565D01*
X57812Y127580D01*
X57800Y127600D01*
X57791Y127632D01*
X57748D01*
Y128424D01*
X57791D01*
Y128427D01*
X57794Y128436D01*
X57797Y128447D01*
X57800Y128459D01*
X57809Y128470D01*
X57815Y128482D01*
X57826Y128491D01*
X57841Y128494D01*
X57847D01*
X57853Y128491D01*
D02*
G37*
G36*
X58737Y126337D02*
X58760D01*
X58789Y126335D01*
X58819Y126331D01*
X58854Y126326D01*
X58926Y126311D01*
X59002Y126288D01*
X59078Y126259D01*
X59147Y126218D01*
X59150D01*
X59156Y126212D01*
X59165Y126204D01*
X59176Y126195D01*
X59209Y126166D01*
X59243Y126128D01*
X59278Y126075D01*
X59310Y126017D01*
X59322Y125982D01*
X59334Y125947D01*
X59339Y125910D01*
X59342Y125869D01*
Y125848D01*
X59339Y125831D01*
X59337Y125814D01*
X59331Y125793D01*
X59319Y125744D01*
X59296Y125686D01*
X59278Y125656D01*
X59261Y125627D01*
X59238Y125598D01*
X59211Y125572D01*
X59182Y125546D01*
X59147Y125520D01*
X59145D01*
X59139Y125514D01*
X59130Y125508D01*
X59115Y125502D01*
X59098Y125494D01*
X59078Y125482D01*
X59051Y125470D01*
X59025Y125461D01*
X58993Y125450D01*
X58958Y125438D01*
X58883Y125418D01*
X58795Y125406D01*
X58699Y125400D01*
X58696D01*
X58688D01*
X58673D01*
X58656Y125403D01*
X58632D01*
X58606Y125406D01*
X58574Y125409D01*
X58542Y125415D01*
X58472Y125429D01*
X58397Y125450D01*
X58321Y125479D01*
X58251Y125520D01*
X58248Y125523D01*
X58242Y125525D01*
X58234Y125534D01*
X58222Y125543D01*
X58190Y125572D01*
X58155Y125613D01*
X58120Y125662D01*
X58088Y125721D01*
X58077Y125755D01*
X58068Y125790D01*
X58062Y125828D01*
X58059Y125869D01*
Y125889D01*
X58062Y125907D01*
X58065Y125924D01*
X58071Y125944D01*
X58082Y125997D01*
X58106Y126052D01*
X58120Y126081D01*
X58140Y126110D01*
X58161Y126139D01*
X58187Y126166D01*
X58216Y126192D01*
X58251Y126218D01*
X58254Y126221D01*
X58260Y126224D01*
X58269Y126230D01*
X58283Y126238D01*
X58301Y126247D01*
X58321Y126256D01*
X58347Y126268D01*
X58373Y126279D01*
X58405Y126291D01*
X58437Y126302D01*
X58513Y126320D01*
X58597Y126335D01*
X58691Y126340D01*
X58693D01*
X58702D01*
X58717D01*
X58737Y126337D01*
D02*
G37*
%LPC*%
G36*
X26567Y14382D02*
X25842D01*
X25807Y14379D01*
X25781D01*
X25761Y14376D01*
X25746D01*
X25738Y14373D01*
X25735D01*
X25694Y14364D01*
X25662Y14353D01*
X25647Y14347D01*
X25639Y14341D01*
X25633Y14338D01*
X25630D01*
X25595Y14315D01*
X25569Y14283D01*
X25548Y14251D01*
X25537Y14216D01*
X25528Y14184D01*
X25525Y14158D01*
X25522Y14140D01*
Y14138D01*
Y14134D01*
X25528Y14082D01*
X25540Y14041D01*
X25557Y14004D01*
X25575Y13977D01*
X25595Y13957D01*
X25613Y13942D01*
X25624Y13934D01*
X25630Y13931D01*
X25665Y13913D01*
X25700Y13905D01*
X25714Y13899D01*
X25726D01*
X25732Y13896D01*
X25735D01*
X25761Y13893D01*
X25790D01*
X25854Y13890D01*
X26567D01*
Y14382D01*
D02*
G37*
G36*
X23066Y14405D02*
X23040D01*
X22991Y14402D01*
X22941Y14396D01*
X22854Y14379D01*
X22813Y14367D01*
X22775Y14353D01*
X22740Y14338D01*
X22711Y14324D01*
X22682Y14309D01*
X22659Y14295D01*
X22636Y14283D01*
X22618Y14268D01*
X22604Y14260D01*
X22595Y14251D01*
X22589Y14248D01*
X22586Y14245D01*
X22548Y14210D01*
X22516Y14172D01*
X22487Y14132D01*
X22461Y14088D01*
X22441Y14047D01*
X22423Y14006D01*
X22409Y13966D01*
X22397Y13925D01*
X22388Y13887D01*
X22382Y13852D01*
X22377Y13820D01*
X22374Y13794D01*
X22371Y13774D01*
Y13756D01*
Y13745D01*
Y13742D01*
X22374Y13692D01*
X22379Y13646D01*
X22388Y13605D01*
X22397Y13567D01*
X22406Y13535D01*
X22414Y13509D01*
X22420Y13494D01*
X22423Y13488D01*
X22446Y13439D01*
X22473Y13395D01*
X22499Y13355D01*
X22525Y13320D01*
X22548Y13294D01*
X22569Y13273D01*
X22580Y13262D01*
X22586Y13256D01*
X22621Y13229D01*
X22656Y13203D01*
X22694Y13183D01*
X22732Y13165D01*
X22807Y13136D01*
X22877Y13119D01*
X22912Y13113D01*
X22941Y13107D01*
X22967Y13104D01*
X22991Y13102D01*
X23011Y13099D01*
X23037D01*
X23087Y13102D01*
X23133Y13104D01*
X23221Y13122D01*
X23299Y13148D01*
X23334Y13163D01*
X23363Y13177D01*
X23392Y13192D01*
X23415Y13206D01*
X23439Y13221D01*
X23456Y13232D01*
X23471Y13241D01*
X23480Y13250D01*
X23485Y13253D01*
X23488Y13256D01*
X23526Y13294D01*
X23558Y13331D01*
X23587Y13372D01*
X23610Y13413D01*
X23631Y13454D01*
X23648Y13494D01*
X23663Y13535D01*
X23674Y13573D01*
X23683Y13611D01*
X23689Y13643D01*
X23695Y13675D01*
X23698Y13701D01*
Y13721D01*
X23701Y13736D01*
Y13747D01*
Y13750D01*
X23698Y13806D01*
X23692Y13858D01*
X23680Y13911D01*
X23669Y13957D01*
X23651Y14001D01*
X23634Y14041D01*
X23613Y14079D01*
X23593Y14111D01*
X23575Y14143D01*
X23555Y14169D01*
X23538Y14193D01*
X23520Y14210D01*
X23509Y14225D01*
X23497Y14236D01*
X23491Y14242D01*
X23488Y14245D01*
X23453Y14274D01*
X23418Y14298D01*
X23381Y14321D01*
X23343Y14338D01*
X23267Y14367D01*
X23197Y14385D01*
X23165Y14391D01*
X23133Y14396D01*
X23107Y14399D01*
X23084Y14402D01*
X23066Y14405D01*
D02*
G37*
G36*
X26835Y10473D02*
X26110D01*
X26075Y10470D01*
X26049D01*
X26029Y10467D01*
X26014D01*
X26005Y10464D01*
X26002D01*
X25962Y10455D01*
X25930Y10443D01*
X25915Y10438D01*
X25906Y10432D01*
X25901Y10429D01*
X25898D01*
X25863Y10406D01*
X25837Y10374D01*
X25816Y10342D01*
X25805Y10307D01*
X25796Y10275D01*
X25793Y10249D01*
X25790Y10231D01*
Y10228D01*
Y10225D01*
X25796Y10173D01*
X25807Y10132D01*
X25825Y10094D01*
X25842Y10068D01*
X25863Y10048D01*
X25880Y10033D01*
X25892Y10024D01*
X25898Y10022D01*
X25933Y10004D01*
X25967Y9995D01*
X25982Y9990D01*
X25994D01*
X26000Y9987D01*
X26002D01*
X26029Y9984D01*
X26058D01*
X26122Y9981D01*
X26835D01*
Y10473D01*
D02*
G37*
G36*
X23334Y10496D02*
X23308D01*
X23258Y10493D01*
X23209Y10487D01*
X23122Y10470D01*
X23081Y10458D01*
X23043Y10443D01*
X23008Y10429D01*
X22979Y10414D01*
X22950Y10400D01*
X22927Y10385D01*
X22903Y10374D01*
X22886Y10359D01*
X22871Y10350D01*
X22862Y10342D01*
X22857Y10339D01*
X22854Y10336D01*
X22816Y10301D01*
X22784Y10263D01*
X22755Y10222D01*
X22729Y10179D01*
X22708Y10138D01*
X22691Y10097D01*
X22676Y10056D01*
X22665Y10016D01*
X22656Y9978D01*
X22650Y9943D01*
X22644Y9911D01*
X22641Y9885D01*
X22638Y9864D01*
Y9847D01*
Y9835D01*
Y9832D01*
X22641Y9783D01*
X22647Y9736D01*
X22656Y9696D01*
X22665Y9658D01*
X22673Y9626D01*
X22682Y9600D01*
X22688Y9585D01*
X22691Y9579D01*
X22714Y9530D01*
X22740Y9486D01*
X22767Y9445D01*
X22793Y9410D01*
X22816Y9384D01*
X22836Y9364D01*
X22848Y9352D01*
X22854Y9346D01*
X22889Y9320D01*
X22924Y9294D01*
X22962Y9274D01*
X22999Y9256D01*
X23075Y9227D01*
X23145Y9210D01*
X23180Y9204D01*
X23209Y9198D01*
X23235Y9195D01*
X23258Y9192D01*
X23279Y9189D01*
X23305D01*
X23354Y9192D01*
X23401Y9195D01*
X23488Y9212D01*
X23567Y9239D01*
X23602Y9253D01*
X23631Y9268D01*
X23660Y9282D01*
X23683Y9297D01*
X23706Y9312D01*
X23724Y9323D01*
X23739Y9332D01*
X23747Y9341D01*
X23753Y9343D01*
X23756Y9346D01*
X23794Y9384D01*
X23826Y9422D01*
X23855Y9463D01*
X23878Y9504D01*
X23899Y9544D01*
X23916Y9585D01*
X23931Y9626D01*
X23942Y9664D01*
X23951Y9701D01*
X23957Y9733D01*
X23963Y9765D01*
X23965Y9792D01*
Y9812D01*
X23968Y9826D01*
Y9838D01*
Y9841D01*
X23965Y9896D01*
X23960Y9949D01*
X23948Y10001D01*
X23936Y10048D01*
X23919Y10091D01*
X23901Y10132D01*
X23881Y10170D01*
X23861Y10202D01*
X23843Y10234D01*
X23823Y10260D01*
X23805Y10283D01*
X23788Y10301D01*
X23776Y10315D01*
X23765Y10327D01*
X23759Y10333D01*
X23756Y10336D01*
X23721Y10365D01*
X23686Y10388D01*
X23648Y10411D01*
X23610Y10429D01*
X23535Y10458D01*
X23465Y10475D01*
X23433Y10481D01*
X23401Y10487D01*
X23375Y10490D01*
X23351Y10493D01*
X23334Y10496D01*
D02*
G37*
G36*
X24903Y152069D02*
X24597Y151400D01*
X25214D01*
X24903Y152069D01*
D02*
G37*
G36*
X21499Y148268D02*
X20984D01*
X20917Y148265D01*
X20856Y148262D01*
X20804Y148256D01*
X20763Y148247D01*
X20728Y148239D01*
X20702Y148233D01*
X20687Y148230D01*
X20682Y148227D01*
X20641Y148210D01*
X20603Y148192D01*
X20571Y148172D01*
X20542Y148151D01*
X20522Y148131D01*
X20504Y148117D01*
X20492Y148105D01*
X20490Y148102D01*
X20463Y148070D01*
X20440Y148035D01*
X20423Y147997D01*
X20405Y147959D01*
X20379Y147884D01*
X20361Y147808D01*
X20356Y147773D01*
X20353Y147741D01*
X20347Y147712D01*
Y147686D01*
X20344Y147665D01*
Y147651D01*
Y147639D01*
Y147636D01*
X20347Y147561D01*
X20356Y147491D01*
X20367Y147430D01*
X20385Y147371D01*
X20405Y147319D01*
X20428Y147275D01*
X20452Y147235D01*
X20478Y147200D01*
X20504Y147168D01*
X20527Y147142D01*
X20551Y147121D01*
X20571Y147104D01*
X20585Y147092D01*
X20600Y147081D01*
X20609Y147078D01*
X20612Y147075D01*
X20664Y147051D01*
X20722Y147037D01*
X20783Y147025D01*
X20844Y147017D01*
X20900Y147011D01*
X20923D01*
X20944Y147008D01*
X21499D01*
Y148268D01*
D02*
G37*
G36*
X25042Y155979D02*
X24737Y155310D01*
X25354D01*
X25042Y155979D01*
D02*
G37*
%LPD*%
D10*
X44508Y49035D02*
X43720D01*
X44508D01*
X140748Y86811D02*
X160827D01*
X140748Y101378D02*
X160827D01*
Y86811D02*
Y101378D01*
X140748Y86811D02*
Y101378D01*
X78582Y53149D02*
Y61614D01*
X50551D02*
X78582D01*
X50551Y53149D02*
X50551Y61614D01*
X78582Y33661D02*
X78582Y42126D01*
X52559Y33661D02*
X78582D01*
X50551Y35670D02*
X50551Y42126D01*
X50551Y35670D02*
X52559Y33661D01*
X185531Y80728D02*
X198130D01*
X185531Y100413D02*
X198130D01*
X185531Y80728D02*
Y100413D01*
X198130Y80728D02*
Y100413D01*
X147829Y115551D02*
X147829Y134843D01*
X140360Y115551D02*
X147829Y115551D01*
X140360Y115551D02*
Y134843D01*
X147829D01*
X192520Y37992D02*
Y58858D01*
X179134Y37992D02*
Y58858D01*
X191339Y37992D02*
X192520D01*
X191339Y58858D02*
X192520D01*
X179134Y37992D02*
X180315D01*
X179134Y58858D02*
X180315D01*
X155315Y25748D02*
X155315Y72205D01*
X131693Y25748D02*
Y72205D01*
X155315D01*
X131693Y25748D02*
X155315Y25748D01*
X73622Y97047D02*
X77756D01*
X73622Y113189D02*
X77756D01*
X55807Y99016D02*
X57575D01*
X55807Y110827D02*
X57575D01*
X70449Y69291D02*
X70449Y72441D01*
X69685Y69291D02*
X70449Y69291D01*
X50787Y72441D02*
X70449D01*
X50787Y70472D02*
Y72441D01*
X69685Y69291D02*
Y72441D01*
Y63779D02*
Y66929D01*
X58549Y68124D02*
X59336D01*
Y66325D02*
Y69896D01*
X61122Y68110D01*
X59336Y66325D02*
X61122Y68110D01*
X61122Y66339D02*
Y69882D01*
X61122Y68110D02*
X61910D01*
X50787Y63779D02*
Y65748D01*
Y63779D02*
X70449D01*
X69685Y66929D02*
X70449Y66929D01*
X70449Y63779D01*
X90421Y161810D02*
X91470D01*
X90945D01*
Y159186D01*
X91470Y158661D01*
X91995D01*
X92520Y159186D01*
X89371Y161810D02*
Y158661D01*
X87272D01*
X84123Y161285D02*
X84648Y161810D01*
X85698D01*
X86222Y161285D01*
Y159186D01*
X85698Y158661D01*
X84648D01*
X84123Y159186D01*
X80975Y161810D02*
X82024D01*
X81500D01*
Y159186D01*
X82024Y158661D01*
X82549D01*
X83074Y159186D01*
X79925Y161810D02*
Y158661D01*
X77826D01*
X74678Y161285D02*
X75202Y161810D01*
X76252D01*
X76777Y161285D01*
Y159186D01*
X76252Y158661D01*
X75202D01*
X74678Y159186D01*
X71529Y161810D02*
X72579D01*
X72054D01*
Y159186D01*
X72579Y158661D01*
X73103D01*
X73628Y159186D01*
X70480Y161810D02*
Y158661D01*
X68380D01*
X65232Y161285D02*
X65757Y161810D01*
X66806D01*
X67331Y161285D01*
Y159186D01*
X66806Y158661D01*
X65757D01*
X65232Y159186D01*
X62083Y161810D02*
X63133D01*
X62608D01*
Y159186D01*
X63133Y158661D01*
X63658D01*
X64182Y159186D01*
X61034Y161810D02*
Y158661D01*
X58935D01*
X55786Y161285D02*
X56311Y161810D01*
X57360D01*
X57885Y161285D01*
Y159186D01*
X57360Y158661D01*
X56311D01*
X55786Y159186D01*
D11*
X170111Y82731D02*
Y83781D01*
Y83256D01*
X166962D01*
Y82731D01*
Y83781D01*
X169586Y87454D02*
X170111Y86930D01*
Y85880D01*
X169586Y85355D01*
X167487D01*
X166962Y85880D01*
Y86930D01*
X167487Y87454D01*
X166962Y88504D02*
Y89553D01*
Y89029D01*
X170111D01*
X169586Y88504D01*
X218636Y104461D02*
X218111Y104986D01*
Y106036D01*
X218636Y106560D01*
X220735D01*
X221259Y106036D01*
Y104986D01*
X220735Y104461D01*
X218636Y103412D02*
X218111Y102887D01*
Y101837D01*
X218636Y101313D01*
X219160D01*
X219685Y101837D01*
Y102362D01*
Y101837D01*
X220210Y101313D01*
X220735D01*
X221259Y101837D01*
Y102887D01*
X220735Y103412D01*
X221259Y98689D02*
X218111D01*
X219685Y100263D01*
Y98164D01*
X63255Y28347D02*
Y31495D01*
X65354D01*
X66404D02*
X67453D01*
X66929D01*
Y28347D01*
X66404Y28872D01*
X100262Y25591D02*
X100787Y25066D01*
Y24017D01*
X100262Y23492D01*
X98163D01*
X97638Y24017D01*
Y25066D01*
X98163Y25591D01*
X97638Y28740D02*
Y26641D01*
X99737Y28740D01*
X100262D01*
X100787Y28215D01*
Y27165D01*
X100262Y26641D01*
X97638Y29789D02*
Y30839D01*
Y30314D01*
X100787D01*
X100262Y29789D01*
X187532Y49999D02*
Y49475D01*
X186483Y48425D01*
X185433Y49475D01*
Y49999D01*
X186483Y48425D02*
Y46851D01*
X184383D02*
X183334D01*
X183859D01*
Y49999D01*
X184383Y49475D01*
X194356Y78740D02*
Y76116D01*
X193831Y75591D01*
X192782D01*
X192257Y76116D01*
Y78740D01*
X191208Y78215D02*
X190683Y78740D01*
X189633D01*
X189109Y78215D01*
Y77690D01*
X189633Y77165D01*
X189109Y76641D01*
Y76116D01*
X189633Y75591D01*
X190683D01*
X191208Y76116D01*
Y76641D01*
X190683Y77165D01*
X191208Y77690D01*
Y78215D01*
X190683Y77165D02*
X189633D01*
X59315Y115944D02*
Y113321D01*
X58790Y112796D01*
X57740D01*
X57216Y113321D01*
Y115944D01*
X54067D02*
X56166D01*
Y114370D01*
X55117Y114895D01*
X54592D01*
X54067Y114370D01*
Y113321D01*
X54592Y112796D01*
X55641D01*
X56166Y113321D01*
X124016Y128608D02*
X126640D01*
X127165Y128083D01*
Y127034D01*
X126640Y126509D01*
X124016D01*
X127165Y123885D02*
X124016D01*
X125591Y125460D01*
Y123360D01*
X146325Y77165D02*
Y74541D01*
X145800Y74016D01*
X144750D01*
X144226Y74541D01*
Y77165D01*
X143176Y76640D02*
X142651Y77165D01*
X141602D01*
X141077Y76640D01*
Y76115D01*
X141602Y75591D01*
X142127D01*
X141602D01*
X141077Y75066D01*
Y74541D01*
X141602Y74016D01*
X142651D01*
X143176Y74541D01*
X214041Y33859D02*
Y37007D01*
X212466D01*
X211942Y36483D01*
Y35433D01*
X212466Y34908D01*
X214041D01*
X212991D02*
X211942Y33859D01*
X210892Y36483D02*
X210367Y37007D01*
X209318D01*
X208793Y36483D01*
Y35958D01*
X209318Y35433D01*
X209842D01*
X209318D01*
X208793Y34908D01*
Y34384D01*
X209318Y33859D01*
X210367D01*
X210892Y34384D01*
X205644Y33859D02*
X207744D01*
X205644Y35958D01*
Y36483D01*
X206169Y37007D01*
X207219D01*
X207744Y36483D01*
X213319Y128741D02*
Y131889D01*
X211745D01*
X211220Y131365D01*
Y130315D01*
X211745Y129790D01*
X213319D01*
X212269D02*
X211220Y128741D01*
X210170Y131365D02*
X209646Y131889D01*
X208596D01*
X208071Y131365D01*
Y130840D01*
X208596Y130315D01*
X209121D01*
X208596D01*
X208071Y129790D01*
Y129265D01*
X208596Y128741D01*
X209646D01*
X210170Y129265D01*
X207022Y128741D02*
X205972D01*
X206497D01*
Y131889D01*
X207022Y131365D01*
X208135Y68504D02*
Y71653D01*
X206561D01*
X206036Y71128D01*
Y70079D01*
X206561Y69554D01*
X208135D01*
X207086D02*
X206036Y68504D01*
X204987Y71128D02*
X204462Y71653D01*
X203412D01*
X202888Y71128D01*
Y70604D01*
X203412Y70079D01*
X203937D01*
X203412D01*
X202888Y69554D01*
Y69029D01*
X203412Y68504D01*
X204462D01*
X204987Y69029D01*
X201838Y71128D02*
X201313Y71653D01*
X200264D01*
X199739Y71128D01*
Y69029D01*
X200264Y68504D01*
X201313D01*
X201838Y69029D01*
Y71128D01*
X208529Y109449D02*
Y112598D01*
X206955D01*
X206430Y112073D01*
Y111024D01*
X206955Y110499D01*
X208529D01*
X207479D02*
X206430Y109449D01*
X203281D02*
X205380D01*
X203281Y111548D01*
Y112073D01*
X203806Y112598D01*
X204855D01*
X205380Y112073D01*
X202232Y109974D02*
X201707Y109449D01*
X200657D01*
X200133Y109974D01*
Y112073D01*
X200657Y112598D01*
X201707D01*
X202232Y112073D01*
Y111548D01*
X201707Y111024D01*
X200133D01*
X117847Y117717D02*
Y120866D01*
X116272D01*
X115747Y120341D01*
Y119291D01*
X116272Y118767D01*
X117847D01*
X116797D02*
X115747Y117717D01*
X112599D02*
X114698D01*
X112599Y119816D01*
Y120341D01*
X113124Y120866D01*
X114173D01*
X114698Y120341D01*
X111549Y117717D02*
X110500D01*
X111025D01*
Y120866D01*
X111549Y120341D01*
X55773Y93308D02*
Y96456D01*
X54199D01*
X53674Y95931D01*
Y94882D01*
X54199Y94357D01*
X55773D01*
X54723D02*
X53674Y93308D01*
X50525D02*
X52624D01*
X50525Y95407D01*
Y95931D01*
X51050Y96456D01*
X52100D01*
X52624Y95931D01*
X49476D02*
X48951Y96456D01*
X47901D01*
X47377Y95931D01*
Y93832D01*
X47901Y93308D01*
X48951D01*
X49476Y93832D01*
Y95931D01*
X13781Y63779D02*
Y60630D01*
X15355D01*
X15880Y61155D01*
Y62205D01*
X15355Y62730D01*
X13781D01*
X14830D02*
X15880Y63779D01*
X16929D02*
X17979D01*
X17454D01*
Y60630D01*
X16929Y61155D01*
X19553Y63254D02*
X20078Y63779D01*
X21127D01*
X21652Y63254D01*
Y61155D01*
X21127Y60630D01*
X20078D01*
X19553Y61155D01*
Y61680D01*
X20078Y62205D01*
X21652D01*
X13978Y77165D02*
Y74016D01*
X15552D01*
X16077Y74541D01*
Y75590D01*
X15552Y76115D01*
X13978D01*
X15027D02*
X16077Y77165D01*
X17126D02*
X18176D01*
X17651D01*
Y74016D01*
X17126Y74541D01*
X19750D02*
X20275Y74016D01*
X21324D01*
X21849Y74541D01*
Y75066D01*
X21324Y75590D01*
X21849Y76115D01*
Y76640D01*
X21324Y77165D01*
X20275D01*
X19750Y76640D01*
Y76115D01*
X20275Y75590D01*
X19750Y75066D01*
Y74541D01*
X20275Y75590D02*
X21324D01*
X64959Y82284D02*
Y85433D01*
X63385D01*
X62860Y84908D01*
Y83858D01*
X63385Y83333D01*
X64959D01*
X63910D02*
X62860Y82284D01*
X61811D02*
X60761D01*
X61286D01*
Y85433D01*
X61811Y84908D01*
X59187Y85433D02*
X57088D01*
Y84908D01*
X59187Y82809D01*
Y82284D01*
X76377D02*
Y85433D01*
X74802D01*
X74278Y84908D01*
Y83858D01*
X74802Y83333D01*
X76377D01*
X75327D02*
X74278Y82284D01*
X73228D02*
X72179D01*
X72703D01*
Y85433D01*
X73228Y84908D01*
X68505Y85433D02*
X69555Y84908D01*
X70604Y83858D01*
Y82809D01*
X70079Y82284D01*
X69030D01*
X68505Y82809D01*
Y83333D01*
X69030Y83858D01*
X70604D01*
X113385Y51969D02*
Y55118D01*
X111810D01*
X111285Y54593D01*
Y53543D01*
X111810Y53019D01*
X113385D01*
X112335D02*
X111285Y51969D01*
X110236D02*
X109186D01*
X109711D01*
Y55118D01*
X110236Y54593D01*
X106038Y51969D02*
Y55118D01*
X107612Y53543D01*
X105513D01*
X53542Y86221D02*
Y89370D01*
X51968D01*
X51443Y88845D01*
Y87795D01*
X51968Y87270D01*
X53542D01*
X52492D02*
X51443Y86221D01*
X50393D02*
X49344D01*
X49869D01*
Y89370D01*
X50393Y88845D01*
X47770D02*
X47245Y89370D01*
X46195D01*
X45671Y88845D01*
Y88320D01*
X46195Y87795D01*
X46720D01*
X46195D01*
X45671Y87270D01*
Y86746D01*
X46195Y86221D01*
X47245D01*
X47770Y86746D01*
X137993Y141338D02*
Y138189D01*
X139568D01*
X140093Y138714D01*
Y139764D01*
X139568Y140288D01*
X137993D01*
X139043D02*
X140093Y141338D01*
X141142D02*
X142192D01*
X141667D01*
Y138189D01*
X141142Y138714D01*
X145865Y141338D02*
X143766D01*
X145865Y139239D01*
Y138714D01*
X145340Y138189D01*
X144291D01*
X143766Y138714D01*
X48425Y132545D02*
X45276D01*
Y130971D01*
X45801Y130446D01*
X46850D01*
X47375Y130971D01*
Y132545D01*
Y131495D02*
X48425Y130446D01*
Y129396D02*
Y128347D01*
Y128872D01*
X45276D01*
X45801Y129396D01*
X48425Y126772D02*
Y125723D01*
Y126248D01*
X45276D01*
X45801Y126772D01*
X118896Y73623D02*
Y76771D01*
X117322D01*
X116797Y76246D01*
Y75197D01*
X117322Y74672D01*
X118896D01*
X117847D02*
X116797Y73623D01*
X115748D02*
X114698D01*
X115223D01*
Y76771D01*
X115748Y76246D01*
X113124D02*
X112599Y76771D01*
X111550D01*
X111025Y76246D01*
Y74147D01*
X111550Y73623D01*
X112599D01*
X113124Y74147D01*
Y76246D01*
X75065Y118503D02*
Y115355D01*
X72966D01*
X69817D02*
X71916D01*
X69817Y117454D01*
Y117979D01*
X70342Y118503D01*
X71391D01*
X71916Y117979D01*
X48838Y63682D02*
Y64732D01*
Y64207D01*
X45689D01*
Y63682D01*
Y64732D01*
X48313Y68405D02*
X48838Y67880D01*
Y66831D01*
X48313Y66306D01*
X46214D01*
X45689Y66831D01*
Y67880D01*
X46214Y68405D01*
X45689Y71554D02*
Y69455D01*
X47789Y71554D01*
X48313D01*
X48838Y71029D01*
Y69980D01*
X48313Y69455D01*
X107282Y162204D02*
Y159056D01*
X105708D01*
X105183Y159580D01*
Y161679D01*
X105708Y162204D01*
X107282D01*
X104134Y159056D02*
X103084D01*
X103609D01*
Y162204D01*
X104134Y161679D01*
X101510D02*
X100985Y162204D01*
X99936D01*
X99411Y161679D01*
Y161155D01*
X99936Y160630D01*
X100460D01*
X99936D01*
X99411Y160105D01*
Y159580D01*
X99936Y159056D01*
X100985D01*
X101510Y159580D01*
X107676Y149999D02*
Y146851D01*
X106102D01*
X105577Y147376D01*
Y149475D01*
X106102Y149999D01*
X107676D01*
X104527Y146851D02*
X103478D01*
X104002D01*
Y149999D01*
X104527Y149475D01*
X99804Y146851D02*
X101903D01*
X99804Y148950D01*
Y149475D01*
X100329Y149999D01*
X101379D01*
X101903Y149475D01*
X173096Y162598D02*
Y159449D01*
X171522D01*
X170997Y159974D01*
Y162073D01*
X171522Y162598D01*
X173096D01*
X169947Y159449D02*
X168898D01*
X169423D01*
Y162598D01*
X169947Y162073D01*
X167324Y159449D02*
X166274D01*
X166799D01*
Y162598D01*
X167324Y162073D01*
X75590Y65880D02*
X72442D01*
Y67454D01*
X72966Y67979D01*
X75065D01*
X75590Y67454D01*
Y65880D01*
Y69029D02*
Y71128D01*
X75065D01*
X72966Y69029D01*
X72442D01*
X174672Y110106D02*
X175196Y109581D01*
Y108531D01*
X174672Y108007D01*
X172573D01*
X172048Y108531D01*
Y109581D01*
X172573Y110106D01*
X174672Y111155D02*
X175196Y111680D01*
Y112730D01*
X174672Y113254D01*
X174147D01*
X173622Y112730D01*
Y112205D01*
Y112730D01*
X173097Y113254D01*
X172573D01*
X172048Y112730D01*
Y111680D01*
X172573Y111155D01*
X175196Y114304D02*
Y116403D01*
X174672D01*
X172573Y114304D01*
X172048D01*
X188451Y105775D02*
X188976Y105250D01*
Y104201D01*
X188451Y103676D01*
X186352D01*
X185827Y104201D01*
Y105250D01*
X186352Y105775D01*
X188451Y106825D02*
X188976Y107349D01*
Y108399D01*
X188451Y108923D01*
X187926D01*
X187402Y108399D01*
Y107874D01*
Y108399D01*
X186877Y108923D01*
X186352D01*
X185827Y108399D01*
Y107349D01*
X186352Y106825D01*
X188976Y112072D02*
X188451Y111023D01*
X187402Y109973D01*
X186352D01*
X185827Y110498D01*
Y111547D01*
X186352Y112072D01*
X186877D01*
X187402Y111547D01*
Y109973D01*
X218636Y80839D02*
X218111Y81364D01*
Y82414D01*
X218636Y82938D01*
X220735D01*
X221259Y82414D01*
Y81364D01*
X220735Y80839D01*
X218636Y79790D02*
X218111Y79265D01*
Y78215D01*
X218636Y77691D01*
X219160D01*
X219685Y78215D01*
Y78740D01*
Y78215D01*
X220210Y77691D01*
X220735D01*
X221259Y78215D01*
Y79265D01*
X220735Y79790D01*
X218111Y74542D02*
Y76641D01*
X219685D01*
X219160Y75592D01*
Y75067D01*
X219685Y74542D01*
X220735D01*
X221259Y75067D01*
Y76116D01*
X220735Y76641D01*
X83595Y138845D02*
X84120Y139370D01*
X85169D01*
X85694Y138845D01*
Y136746D01*
X85169Y136221D01*
X84120D01*
X83595Y136746D01*
X80446Y136221D02*
X82546D01*
X80446Y138320D01*
Y138845D01*
X80971Y139370D01*
X82021D01*
X82546Y138845D01*
X79397Y139370D02*
X77298D01*
Y138845D01*
X79397Y136746D01*
Y136221D01*
X93831Y139042D02*
X94356Y139566D01*
X95406D01*
X95930Y139042D01*
Y136943D01*
X95406Y136418D01*
X94356D01*
X93831Y136943D01*
X90683Y136418D02*
X92782D01*
X90683Y138517D01*
Y139042D01*
X91207Y139566D01*
X92257D01*
X92782Y139042D01*
X87534Y139566D02*
X88584Y139042D01*
X89633Y137992D01*
Y136943D01*
X89109Y136418D01*
X88059D01*
X87534Y136943D01*
Y137467D01*
X88059Y137992D01*
X89633D01*
X38058Y101313D02*
X37534Y100788D01*
X36484D01*
X35959Y101313D01*
Y103412D01*
X36484Y103937D01*
X37534D01*
X38058Y103412D01*
X41207Y103937D02*
X39108D01*
X41207Y101837D01*
Y101313D01*
X40682Y100788D01*
X39633D01*
X39108Y101313D01*
X44356Y100788D02*
X42257D01*
Y102362D01*
X43306Y101837D01*
X43831D01*
X44356Y102362D01*
Y103412D01*
X43831Y103937D01*
X42781D01*
X42257Y103412D01*
X73098Y92258D02*
X72573Y91733D01*
X71523D01*
X70999Y92258D01*
Y94357D01*
X71523Y94881D01*
X72573D01*
X73098Y94357D01*
X76246Y94881D02*
X74147D01*
X76246Y92782D01*
Y92258D01*
X75722Y91733D01*
X74672D01*
X74147Y92258D01*
X78870Y94881D02*
Y91733D01*
X77296Y93307D01*
X79395D01*
X16405Y67848D02*
X15880Y67323D01*
X14831D01*
X14306Y67848D01*
Y69947D01*
X14831Y70472D01*
X15880D01*
X16405Y69947D01*
X19554Y70472D02*
X17454D01*
X19554Y68373D01*
Y67848D01*
X19029Y67323D01*
X17979D01*
X17454Y67848D01*
X20603D02*
X21128Y67323D01*
X22177D01*
X22702Y67848D01*
Y68373D01*
X22177Y68898D01*
X21653D01*
X22177D01*
X22702Y69422D01*
Y69947D01*
X22177Y70472D01*
X21128D01*
X20603Y69947D01*
X100656Y65618D02*
X101181Y65093D01*
Y64043D01*
X100656Y63518D01*
X98557D01*
X98032Y64043D01*
Y65093D01*
X98557Y65618D01*
X98032Y68766D02*
Y66667D01*
X100131Y68766D01*
X100656D01*
X101181Y68241D01*
Y67192D01*
X100656Y66667D01*
X98032Y71915D02*
Y69816D01*
X100131Y71915D01*
X100656D01*
X101181Y71390D01*
Y70340D01*
X100656Y69816D01*
X90682Y25065D02*
X91207Y25590D01*
X92256D01*
X92781Y25065D01*
Y22966D01*
X92256Y22442D01*
X91207D01*
X90682Y22966D01*
X87533Y22442D02*
X89632D01*
X87533Y24541D01*
Y25065D01*
X88058Y25590D01*
X89107D01*
X89632Y25065D01*
X86484D02*
X85959Y25590D01*
X84909D01*
X84385Y25065D01*
Y22966D01*
X84909Y22442D01*
X85959D01*
X86484Y22966D01*
Y25065D01*
X86746Y69029D02*
X86221Y68504D01*
X85172D01*
X84647Y69029D01*
Y71128D01*
X85172Y71653D01*
X86221D01*
X86746Y71128D01*
X87796Y71653D02*
X88845D01*
X88320D01*
Y68504D01*
X87796Y69029D01*
X90419Y71128D02*
X90944Y71653D01*
X91994D01*
X92518Y71128D01*
Y69029D01*
X91994Y68504D01*
X90944D01*
X90419Y69029D01*
Y69554D01*
X90944Y70079D01*
X92518D01*
X12467Y83333D02*
X12991Y83858D01*
X14041D01*
X14566Y83333D01*
Y81234D01*
X14041Y80709D01*
X12991D01*
X12467Y81234D01*
X11417Y80709D02*
X10368D01*
X10892D01*
Y83858D01*
X11417Y83333D01*
X8793D02*
X8269Y83858D01*
X7219D01*
X6694Y83333D01*
Y82808D01*
X7219Y82284D01*
X6694Y81759D01*
Y81234D01*
X7219Y80709D01*
X8269D01*
X8793Y81234D01*
Y81759D01*
X8269Y82284D01*
X8793Y82808D01*
Y83333D01*
X8269Y82284D02*
X7219D01*
X12860Y117191D02*
X13385Y117716D01*
X14435D01*
X14959Y117191D01*
Y115092D01*
X14435Y114567D01*
X13385D01*
X12860Y115092D01*
X11811Y114567D02*
X10761D01*
X11286D01*
Y117716D01*
X11811Y117191D01*
X9187Y117716D02*
X7088D01*
Y117191D01*
X9187Y115092D01*
Y114567D01*
X37533Y37139D02*
X37009Y36615D01*
X35959D01*
X35434Y37139D01*
Y39239D01*
X35959Y39763D01*
X37009D01*
X37533Y39239D01*
X38583Y39763D02*
X39632D01*
X39108D01*
Y36615D01*
X38583Y37139D01*
X43306Y36615D02*
X42256Y37139D01*
X41207Y38189D01*
Y39239D01*
X41732Y39763D01*
X42781D01*
X43306Y39239D01*
Y38714D01*
X42781Y38189D01*
X41207D01*
X173884Y23491D02*
X174409Y24015D01*
X175458D01*
X175983Y23491D01*
Y21391D01*
X175458Y20867D01*
X174409D01*
X173884Y21391D01*
X172834Y20867D02*
X171785D01*
X172310D01*
Y24015D01*
X172834Y23491D01*
X168112Y24015D02*
X170211D01*
Y22441D01*
X169161Y22966D01*
X168636D01*
X168112Y22441D01*
Y21391D01*
X168636Y20867D01*
X169686D01*
X170211Y21391D01*
X174278Y53018D02*
X174802Y53543D01*
X175852D01*
X176377Y53018D01*
Y50919D01*
X175852Y50394D01*
X174802D01*
X174278Y50919D01*
X173228Y50394D02*
X172179D01*
X172703D01*
Y53543D01*
X173228Y53018D01*
X169030Y50394D02*
Y53543D01*
X170604Y51968D01*
X168505D01*
X126510Y83202D02*
X125985Y82678D01*
X124935D01*
X124411Y83202D01*
Y85302D01*
X124935Y85826D01*
X125985D01*
X126510Y85302D01*
X127559Y85826D02*
X128609D01*
X128084D01*
Y82678D01*
X127559Y83202D01*
X130183D02*
X130708Y82678D01*
X131757D01*
X132282Y83202D01*
Y83727D01*
X131757Y84252D01*
X131233D01*
X131757D01*
X132282Y84777D01*
Y85302D01*
X131757Y85826D01*
X130708D01*
X130183Y85302D01*
X164699Y138845D02*
X164174Y139369D01*
Y140419D01*
X164699Y140944D01*
X166797D01*
X167322Y140419D01*
Y139369D01*
X166797Y138845D01*
X167322Y137795D02*
Y136746D01*
Y137270D01*
X164174D01*
X164699Y137795D01*
X167322Y133072D02*
Y135171D01*
X165223Y133072D01*
X164699D01*
X164174Y133597D01*
Y134646D01*
X164699Y135171D01*
X166404Y110105D02*
X166929Y109581D01*
Y108531D01*
X166404Y108006D01*
X164305D01*
X163780Y108531D01*
Y109581D01*
X164305Y110105D01*
X163780Y111155D02*
Y112205D01*
Y111680D01*
X166929D01*
X166404Y111155D01*
X163780Y113779D02*
Y114828D01*
Y114304D01*
X166929D01*
X166404Y113779D01*
X132022Y110761D02*
X131497Y110237D01*
X130447D01*
X129922Y110761D01*
Y112861D01*
X130447Y113385D01*
X131497D01*
X132022Y112861D01*
X133071Y113385D02*
X134121D01*
X133596D01*
Y110237D01*
X133071Y110761D01*
X135695D02*
X136220Y110237D01*
X137269D01*
X137794Y110761D01*
Y112861D01*
X137269Y113385D01*
X136220D01*
X135695Y112861D01*
Y110761D01*
X135958Y158399D02*
X135434Y158923D01*
Y159973D01*
X135958Y160498D01*
X138057D01*
X138582Y159973D01*
Y158923D01*
X138057Y158399D01*
X135434Y155250D02*
Y157349D01*
X137008D01*
X136483Y156300D01*
Y155775D01*
X137008Y155250D01*
X138057D01*
X138582Y155775D01*
Y156825D01*
X138057Y157349D01*
X124147Y158005D02*
X123623Y158530D01*
Y159579D01*
X124147Y160104D01*
X126246D01*
X126771Y159579D01*
Y158530D01*
X126246Y158005D01*
X126771Y155381D02*
X123623D01*
X125197Y156956D01*
Y154857D01*
D12*
X162008Y82480D02*
X161270Y82907D01*
Y82054D01*
X162008Y82480D01*
X202658Y101319D02*
X201919Y101745D01*
Y100893D01*
X202658Y101319D01*
X161134Y132697D02*
X160396Y133123D01*
Y132271D01*
X161134Y132697D01*
X161909Y72323D02*
X161171Y72749D01*
Y71897D01*
X161909Y72323D01*
X48522Y101181D02*
X47783Y101607D01*
Y100755D01*
X48522Y101181D01*
D14*
X158071Y90748D02*
X157626Y91672D01*
X156627Y91900D01*
X155826Y91260D01*
Y90236D01*
X156627Y89597D01*
X157626Y89825D01*
X158071Y90748D01*
X195374Y96476D02*
X194929Y97400D01*
X193930Y97628D01*
X193129Y96989D01*
Y95964D01*
X193930Y95325D01*
X194929Y95553D01*
X195374Y96476D01*
X152559Y68268D02*
X152114Y69191D01*
X151115Y69419D01*
X150314Y68780D01*
Y67755D01*
X151115Y67116D01*
X152114Y67344D01*
X152559Y68268D01*
D15*
X211024Y96850D02*
X212205D01*
X211024D02*
Y107874D01*
X212205D01*
X215354D02*
X216535D01*
Y96850D02*
Y107874D01*
X215354Y96850D02*
X216535D01*
X211024Y102362D02*
X216535D01*
X50394Y129134D02*
X55905D01*
X55150Y124134D02*
X55905D01*
Y134134D01*
X55150D02*
X55905D01*
X50394D02*
X51150D01*
X50394Y124134D02*
Y134134D01*
Y124134D02*
X51150D01*
X162992Y125492D02*
X168504D01*
X167323Y119980D02*
X168504D01*
Y131004D01*
X167323D02*
X168504D01*
X162992D02*
X164173D01*
X162992Y119980D02*
Y131004D01*
Y119980D02*
X164173D01*
X126496Y141370D02*
Y142126D01*
X136496D01*
Y141370D02*
Y142126D01*
Y136614D02*
Y137370D01*
X126496Y136614D02*
X136496D01*
X126496D02*
Y137370D01*
X131496Y136614D02*
Y142126D01*
X133858Y102756D02*
Y108268D01*
X139370Y107087D02*
Y108268D01*
X128347D02*
X139370D01*
X128347Y107087D02*
Y108268D01*
Y102756D02*
Y103937D01*
Y102756D02*
X139370D01*
Y103937D01*
X162992Y100689D02*
X168504D01*
X167323Y95177D02*
X168504D01*
Y106201D01*
X167323D02*
X168504D01*
X162992D02*
X164173D01*
X162992Y95177D02*
Y106201D01*
Y95177D02*
X164173D01*
X169685Y43209D02*
X175197D01*
X169685Y48720D02*
X170866D01*
X169685Y37697D02*
Y48720D01*
Y37697D02*
X170866D01*
X174016D02*
X175197D01*
Y48720D01*
X174016D02*
X175197D01*
X169685Y31496D02*
X175197D01*
X174016Y25984D02*
X175197D01*
Y37008D01*
X174016D02*
X175197D01*
X169685D02*
X170866D01*
X169685Y25984D02*
Y37008D01*
Y25984D02*
X170866D01*
X112598Y61535D02*
X113354D01*
X112598D02*
Y71535D01*
X113354D01*
X117354D02*
X118110D01*
Y61535D02*
Y71535D01*
X117354Y61535D02*
X118110D01*
X112598Y66535D02*
X118110D01*
X128445Y75197D02*
Y80709D01*
X122933Y75197D02*
Y76378D01*
Y75197D02*
X133957D01*
Y76378D01*
Y79528D02*
Y80709D01*
X122933D02*
X133957D01*
X122933Y79528D02*
Y80709D01*
X127953Y157382D02*
X133465D01*
X127953Y162894D02*
X129134D01*
X127953Y151870D02*
Y162894D01*
Y151870D02*
X129134D01*
X132283D02*
X133465D01*
Y162894D01*
X132283D02*
X133465D01*
X116929Y157579D02*
X122441D01*
X116929Y163091D02*
X118110D01*
X116929Y152067D02*
Y163091D01*
Y152067D02*
X118110D01*
X121260D02*
X122441D01*
Y163091D01*
X121260D02*
X122441D01*
X211024Y78740D02*
X216535D01*
X211024Y84252D02*
X212205D01*
X211024Y73228D02*
Y84252D01*
Y73228D02*
X212205D01*
X215354D02*
X216535D01*
Y84252D01*
X215354D02*
X216535D01*
X203819Y32677D02*
Y33433D01*
X193819Y32677D02*
X203819D01*
X193819D02*
Y33433D01*
Y37433D02*
Y38189D01*
X203819D01*
Y37433D02*
Y38189D01*
X198819Y32677D02*
Y38189D01*
X199331Y77984D02*
Y78740D01*
X209331D01*
Y77984D02*
Y78740D01*
Y73228D02*
Y73984D01*
X199331Y73228D02*
X209331D01*
X199331D02*
Y73984D01*
X204331Y73228D02*
Y78740D01*
X199331Y107118D02*
Y107874D01*
X209331D01*
Y107118D02*
Y107874D01*
Y102362D02*
Y103118D01*
X199331Y102362D02*
X209331D01*
X199331D02*
Y103118D01*
X204331Y102362D02*
Y107874D01*
X203622Y127559D02*
Y128315D01*
X193622Y127559D02*
X203622D01*
X193622D02*
Y128315D01*
Y132315D02*
Y133071D01*
X203622D01*
Y132315D02*
Y133071D01*
X198622Y127559D02*
Y133071D01*
X170472Y100689D02*
X175984D01*
X174803Y95177D02*
X175984D01*
Y106201D01*
X174803D02*
X175984D01*
X170472D02*
X171653D01*
X170472Y95177D02*
Y106201D01*
Y95177D02*
X171653D01*
X178740Y107480D02*
X184252D01*
X183071Y101969D02*
X184252D01*
Y112992D01*
X183071D02*
X184252D01*
X178740D02*
X179921D01*
X178740Y101969D02*
Y112992D01*
Y101969D02*
X179921D01*
X87697Y125197D02*
X96555D01*
X87697Y134547D02*
X88681D01*
X87697Y115847D02*
Y134547D01*
Y115847D02*
X88681Y115847D01*
X95571D02*
X96555Y115847D01*
Y134547D01*
X95571D02*
X96555D01*
X98150Y121291D02*
Y122047D01*
X108150D01*
Y121291D02*
Y122047D01*
Y116535D02*
Y117291D01*
X98150Y116535D02*
X108150D01*
X98150D02*
Y117291D01*
X103150Y116535D02*
Y122047D01*
X77461Y125197D02*
X86319D01*
X77461Y134547D02*
X78445D01*
X77461Y115847D02*
Y134547D01*
Y115847D02*
X78445D01*
X85335D02*
X86319D01*
Y134547D01*
X85335D02*
X86319D01*
X63681Y90551D02*
Y96063D01*
X69193Y94882D02*
Y96063D01*
X58169D02*
X69193D01*
X58169Y94882D02*
Y96063D01*
Y90551D02*
Y91732D01*
Y90551D02*
X69193D01*
Y91732D01*
X35551Y96882D02*
Y97638D01*
X45551D01*
Y96882D02*
Y97638D01*
Y92126D02*
Y92882D01*
X35551Y92126D02*
X45551D01*
X35551D02*
Y92882D01*
X40551Y92126D02*
Y97638D01*
X21555Y111319D02*
X23031D01*
X21555Y92618D02*
Y111319D01*
Y92618D02*
X23031D01*
X32874D02*
X34350D01*
Y111319D01*
X32874D02*
X34350D01*
X21555Y101969D02*
X34350D01*
X96063Y46063D02*
X97638D01*
X96063Y32677D02*
Y46063D01*
Y32677D02*
X97638D01*
X101575D02*
X103150D01*
Y46063D01*
X101575D02*
X103150D01*
X96063Y39370D02*
X103150D01*
X82185Y66831D02*
X83661D01*
X82185Y48130D02*
Y66831D01*
Y48130D02*
X83661D01*
X93504D02*
X94980D01*
Y66831D01*
X93504D02*
X94980D01*
X82185Y57480D02*
X94980D01*
X93504Y27264D02*
X94980D01*
Y45965D01*
X93504D02*
X94980D01*
X82185D02*
X83661D01*
X82185Y27264D02*
Y45965D01*
Y27264D02*
X83661D01*
X82185Y36614D02*
X94980D01*
X101575Y48031D02*
X103150D01*
Y61417D01*
X101575D02*
X103150D01*
X96063D02*
X97638D01*
X96063Y48031D02*
Y61417D01*
Y48031D02*
X97638D01*
X96063Y54724D02*
X103150D01*
X104449Y49244D02*
Y50000D01*
X114449D01*
Y49244D02*
Y50000D01*
Y44488D02*
Y45244D01*
X104449Y44488D02*
X114449D01*
X104449D02*
Y45244D01*
X109449Y44488D02*
Y50000D01*
X56417Y79559D02*
Y80315D01*
X66417D01*
Y79559D02*
Y80315D01*
Y74803D02*
Y75559D01*
X56417Y74803D02*
X66417D01*
X56417D02*
Y75559D01*
X61417Y74803D02*
Y80315D01*
X68228Y79559D02*
Y80315D01*
X78228D01*
Y79559D02*
Y80315D01*
Y74803D02*
Y75559D01*
X68228Y74803D02*
X78228D01*
X68228D02*
Y75559D01*
X73228Y74803D02*
Y80315D01*
X39370Y41732D02*
Y47244D01*
X44882Y46063D02*
Y47244D01*
X33858D02*
X44882D01*
X33858Y46063D02*
Y47244D01*
Y41732D02*
Y42913D01*
Y41732D02*
X44882D01*
Y42913D01*
X2087Y77591D02*
Y78347D01*
X12087D01*
X12087Y77591D01*
X12087Y72835D02*
X12087Y73590D01*
X2087Y72835D02*
X12087D01*
X2087D02*
Y73590D01*
X7087Y72835D02*
Y78347D01*
X11890Y59055D02*
Y59811D01*
X1890Y59055D02*
X11890D01*
X1890Y59811D02*
X1890Y59055D01*
X1890Y63811D02*
X1890Y64567D01*
X11890D01*
Y63811D02*
Y64567D01*
X6890Y59055D02*
Y64567D01*
X7185Y66142D02*
Y71653D01*
X1673Y66142D02*
Y67323D01*
Y66142D02*
X12697D01*
Y67323D01*
Y70472D02*
Y71653D01*
X1673D02*
X12697D01*
X1673Y70472D02*
Y71653D01*
X1673Y85728D02*
Y87205D01*
Y85728D02*
X20374D01*
Y87205D01*
Y97047D02*
Y98524D01*
X1673D02*
X20374D01*
X1673Y97047D02*
Y98524D01*
X11024Y85728D02*
Y98524D01*
X33976Y89795D02*
Y90551D01*
X43976D01*
Y89795D02*
Y90551D01*
Y85039D02*
Y85795D01*
X33976Y85039D02*
X43976D01*
X33976D02*
Y85795D01*
X38976Y85039D02*
Y90551D01*
X1673Y99902D02*
Y101378D01*
Y99902D02*
X20374D01*
Y101378D01*
Y111221D02*
Y112697D01*
X1673D02*
X20374D01*
X1673Y111221D02*
Y112697D01*
X11024Y99902D02*
Y112697D01*
X163976Y160138D02*
X164469D01*
X163976Y158563D02*
X164469D01*
X157677Y162992D02*
Y163484D01*
X163976D01*
Y161909D02*
Y163484D01*
X164469Y161909D02*
X164469Y163484D01*
X163976Y161909D02*
X164469D01*
X163976Y163484D02*
X164469D01*
X157677Y158563D02*
Y159055D01*
Y158563D02*
X163976D01*
Y160138D01*
X164469D02*
X164469Y158563D01*
X115354Y159744D02*
X115846D01*
X115354Y158169D02*
X115846Y158169D01*
X109055Y162598D02*
Y163091D01*
X115354D01*
Y161516D02*
Y163091D01*
X115846Y161516D02*
X115846Y163091D01*
X115354Y161516D02*
X115846Y161516D01*
X115354Y163091D02*
X115846D01*
X109055Y158661D02*
X109055Y158169D01*
X115354D01*
Y159744D01*
X115846D02*
X115846Y158169D01*
X115354Y147539D02*
X115846Y147539D01*
X115354Y145965D02*
X115846D01*
X109055Y150394D02*
Y150886D01*
X115354Y150886D01*
X115354Y149311D02*
X115354Y150886D01*
X115846Y149311D02*
X115846Y150886D01*
X115354Y149311D02*
X115846D01*
X115354Y150886D02*
X115846D01*
X109055Y145965D02*
X109055Y146457D01*
X109055Y145965D02*
X115354D01*
X115354Y147539D02*
X115354Y145965D01*
X115846Y147539D02*
X115846Y145965D01*
D16*
X17323Y150000D02*
X29528D01*
X17323Y153150D02*
X29528D01*
Y150000D02*
Y153150D01*
X17323Y150000D02*
Y153150D01*
X14173Y12205D02*
X32677D01*
X14173Y15354D02*
X32677D01*
Y12205D02*
Y15354D01*
X14173Y12205D02*
Y15354D01*
X17323Y146063D02*
X29528D01*
X17323Y149213D02*
X29528D01*
Y146063D02*
Y149213D01*
X17323Y146063D02*
Y149213D01*
Y157874D02*
X29528D01*
X17323Y161024D02*
X29528D01*
Y157874D02*
Y161024D01*
X17323Y157874D02*
Y161024D01*
X14173Y8268D02*
X32677D01*
X14173Y11417D02*
X32677D01*
Y8268D02*
Y11417D01*
X14173Y8268D02*
Y11417D01*
X17323Y153937D02*
X29528D01*
X17323Y157087D02*
X29528D01*
Y153937D02*
Y157087D01*
X17323Y153937D02*
Y157087D01*
X31496Y120472D02*
X36220Y115748D01*
X31496Y120472D02*
Y147638D01*
X29921Y149213D02*
X31496Y147638D01*
X29528Y149213D02*
X29921D01*
X33465Y128740D02*
X36614Y125591D01*
X33465Y128740D02*
Y150394D01*
X30709Y153150D02*
X33465Y150394D01*
X29528Y153150D02*
X30709D01*
X35433Y139370D02*
X36614Y138189D01*
X35433Y139370D02*
Y152756D01*
X31102Y157087D02*
X35433Y152756D01*
X29528Y157087D02*
X31102D01*
X40551Y151969D02*
Y156693D01*
X36220Y161024D02*
X40551Y156693D01*
X29528Y161024D02*
X36220D01*
X35433Y18898D02*
X36220D01*
X34646Y18110D02*
X35433Y18898D01*
X34646Y17717D02*
Y18110D01*
Y12598D02*
Y17717D01*
X33465Y11417D02*
X34646Y12598D01*
X32677Y11417D02*
X33465D01*
X35039Y30709D02*
X36220D01*
X32677Y28346D02*
X35039Y30709D01*
X32677Y15354D02*
Y28346D01*
D17*
X24311Y58661D02*
Y74410D01*
X44193Y58661D02*
Y74410D01*
M02*
