G04*
G04 #@! TF.GenerationSoftware,Altium Limited,Altium Designer,23.0.1 (38)*
G04*
G04 Layer_Physical_Order=2*
G04 Layer_Color=36540*
%FSLAX25Y25*%
%MOIN*%
G70*
G04*
G04 #@! TF.SameCoordinates,07299077-2F5B-483E-86E5-57BC813F48C1*
G04*
G04*
G04 #@! TF.FilePolarity,Positive*
G04*
G01*
G75*
%ADD11C,0.01000*%
%ADD85C,0.02000*%
%ADD86O,0.03150X0.03150*%
%ADD87O,0.05906X0.05906*%
%ADD88O,0.05906X0.05906*%
%ADD89R,0.06024X0.06024*%
%ADD90C,0.06024*%
%ADD91C,0.11811*%
%ADD92C,0.20000*%
%ADD93R,0.06319X0.06319*%
%ADD94C,0.06319*%
%ADD95C,0.12008*%
%ADD96O,0.03543X0.06299*%
%ADD97C,0.03150*%
%ADD98C,0.01968*%
G36*
X89426Y185118D02*
X89307Y185233D01*
X89185Y185335D01*
X89060Y185425D01*
X88933Y185504D01*
X88803Y185570D01*
X88670Y185624D01*
X88535Y185666D01*
X88397Y185696D01*
X88256Y185714D01*
X88113Y185721D01*
Y186721D01*
X88256Y186726D01*
X88397Y186745D01*
X88535Y186775D01*
X88670Y186817D01*
X88803Y186871D01*
X88933Y186937D01*
X89060Y187016D01*
X89185Y187106D01*
X89307Y187208D01*
X89426Y187323D01*
Y185118D01*
D02*
G37*
G36*
X75130Y186959D02*
X75266Y186868D01*
X75403Y186787D01*
X75540Y186717D01*
X75678Y186658D01*
X75816Y186610D01*
X75954Y186572D01*
X76093Y186545D01*
X76233Y186529D01*
X76373Y186524D01*
X76506Y185524D01*
X76360Y185517D01*
X76219Y185498D01*
X76083Y185465D01*
X75952Y185420D01*
X75826Y185361D01*
X75704Y185290D01*
X75588Y185205D01*
X75477Y185108D01*
X75371Y184997D01*
X75269Y184874D01*
X74994Y187061D01*
X75130Y186959D01*
D02*
G37*
G36*
X157544Y193357D02*
X166654Y164888D01*
X166685Y164832D01*
X166697Y164769D01*
X166828Y164573D01*
X166943Y164366D01*
X166993Y164326D01*
X167029Y164273D01*
X167225Y164142D01*
X167410Y163995D01*
X167472Y163977D01*
X167525Y163941D01*
X167757Y163895D01*
X167983Y163830D01*
X168047Y163838D01*
X168110Y163825D01*
X220554D01*
X220907Y163471D01*
X220639Y51089D01*
X220147Y50994D01*
X219808Y51581D01*
X219329Y52060D01*
X218742Y52399D01*
X218087Y52575D01*
X217409D01*
X216754Y52399D01*
X216645Y52337D01*
X216212Y52587D01*
Y63563D01*
X216954Y63870D01*
X217780Y64504D01*
X218413Y65329D01*
X218812Y66291D01*
X218948Y67323D01*
X218812Y68355D01*
X218413Y69316D01*
X217780Y70142D01*
X216954Y70776D01*
X215992Y71174D01*
X214961Y71310D01*
X214494Y71248D01*
X214441Y71277D01*
X214222Y71425D01*
X213712Y71850D01*
X189376Y96185D01*
Y102753D01*
X189379Y102801D01*
X189781Y103202D01*
X190120Y103790D01*
X190295Y104445D01*
Y105122D01*
X190120Y105777D01*
X189781Y106364D01*
X189379Y106766D01*
X189376Y106814D01*
Y116601D01*
X189376Y116601D01*
X189220Y117381D01*
X188778Y118043D01*
X185131Y121690D01*
X185281Y122247D01*
X185640Y122344D01*
X186227Y122682D01*
X186706Y123162D01*
X187045Y123749D01*
X187221Y124404D01*
Y125082D01*
X187045Y125737D01*
X186706Y126324D01*
X186227Y126803D01*
X185640Y127142D01*
X184985Y127318D01*
X184307D01*
X183652Y127142D01*
X183065Y126803D01*
X182585Y126324D01*
X182246Y125737D01*
X182071Y125082D01*
Y124585D01*
X181954Y124328D01*
X181630Y124118D01*
X165737D01*
X164957Y123963D01*
X164296Y123521D01*
X161896Y121121D01*
X161866D01*
X161211Y120945D01*
X160624Y120606D01*
X160144Y120127D01*
X159805Y119540D01*
X159630Y118885D01*
Y118855D01*
X157381Y116606D01*
X146542D01*
X146391Y116921D01*
X146368Y117106D01*
X147118Y117856D01*
X147223Y117948D01*
X147844Y118115D01*
X148431Y118454D01*
X148911Y118933D01*
X149250Y119521D01*
X149416Y120142D01*
X149508Y120247D01*
X167177Y137915D01*
X167414Y137817D01*
X167648Y137679D01*
X167814Y137060D01*
X168153Y136473D01*
X168632Y135994D01*
X169220Y135655D01*
X169875Y135479D01*
X170552D01*
X171207Y135655D01*
X171794Y135994D01*
X172274Y136473D01*
X172613Y137060D01*
X172788Y137715D01*
Y138393D01*
X172613Y139048D01*
X172274Y139635D01*
X171794Y140115D01*
X171207Y140454D01*
X170588Y140619D01*
X170451Y140854D01*
X170353Y141091D01*
X174073Y144811D01*
X177258D01*
X177408Y144798D01*
X177622Y144763D01*
X177774Y144722D01*
X177799Y144712D01*
Y142839D01*
X185823D01*
Y150862D01*
X180857D01*
X180832Y150877D01*
X180582Y151051D01*
X180004Y151542D01*
X176560Y154985D01*
X175899Y155427D01*
X175118Y155582D01*
X159900D01*
X157741Y157741D01*
X157080Y158183D01*
X156299Y158338D01*
X147379D01*
X147379Y158338D01*
X146598Y158183D01*
X145937Y157741D01*
X144607Y156412D01*
X137823D01*
X137801Y156433D01*
X137214Y156772D01*
X136559Y156948D01*
X135881D01*
X135227Y156772D01*
X134640Y156433D01*
X134629Y156422D01*
X134476Y156412D01*
X108677D01*
X96905Y168184D01*
X96749Y168362D01*
X96549Y168620D01*
X96407Y168835D01*
X96397Y168853D01*
X96507Y169685D01*
X96371Y170717D01*
X95972Y171678D01*
X95339Y172504D01*
X94513Y173138D01*
X93552Y173536D01*
X92520Y173672D01*
X91488Y173536D01*
X90526Y173138D01*
X89701Y172504D01*
X89067Y171678D01*
X88669Y170717D01*
X88533Y169685D01*
X88669Y168653D01*
X89067Y167692D01*
X89701Y166866D01*
X90526Y166232D01*
X91488Y165834D01*
X92520Y165698D01*
X93351Y165808D01*
X93369Y165798D01*
X93571Y165665D01*
X94061Y165260D01*
X106390Y152931D01*
X106390Y152931D01*
X107052Y152489D01*
X107832Y152333D01*
X134618D01*
X134640Y152312D01*
X135227Y151973D01*
X135881Y151798D01*
X136559D01*
X137214Y151973D01*
X137801Y152312D01*
X137812Y152323D01*
X137965Y152333D01*
X145452D01*
X146232Y152489D01*
X146894Y152931D01*
X148223Y154260D01*
X155455D01*
X157613Y152101D01*
X158275Y151659D01*
X159055Y151504D01*
X174274D01*
X176426Y149352D01*
X176235Y148890D01*
X173228D01*
X172448Y148734D01*
X171786Y148292D01*
X146583Y123089D01*
X146511D01*
X145856Y122914D01*
X145269Y122575D01*
X145201Y122506D01*
X144701Y122713D01*
Y122780D01*
X144525Y123435D01*
X144186Y124022D01*
X143707Y124501D01*
X143120Y124840D01*
X142465Y125016D01*
X142332D01*
X142279Y125031D01*
X142143Y125041D01*
X142046Y125054D01*
X141960Y125072D01*
X141923Y125082D01*
X141859Y125140D01*
X141792Y125273D01*
X141988Y125621D01*
X142170Y125723D01*
X142723D01*
X143378Y125898D01*
X143965Y126237D01*
X144444Y126716D01*
X144783Y127303D01*
X144959Y127958D01*
Y128636D01*
X144783Y129291D01*
X144444Y129878D01*
X143965Y130358D01*
X143378Y130697D01*
X142723Y130872D01*
X142045D01*
X141985Y130856D01*
X141967Y130867D01*
X141926Y130898D01*
X141805Y131018D01*
X141309Y131350D01*
X140723Y131466D01*
X43843D01*
X43636Y131966D01*
X43958Y132289D01*
X44506Y133237D01*
X44789Y134295D01*
Y135390D01*
X44506Y136448D01*
X43958Y137397D01*
X43184Y138171D01*
X42235Y138718D01*
X41177Y139002D01*
X40082D01*
X39024Y138718D01*
X38076Y138171D01*
X37301Y137397D01*
X36754Y136448D01*
X36470Y135390D01*
Y135229D01*
X36009Y135037D01*
X35388Y135658D01*
Y147792D01*
X36616Y149020D01*
X37016Y148713D01*
X36754Y148259D01*
X36470Y147201D01*
Y146106D01*
X36754Y145048D01*
X37301Y144100D01*
X38076Y143325D01*
X39024Y142778D01*
X40082Y142494D01*
X41177D01*
X42235Y142778D01*
X43184Y143325D01*
X43958Y144100D01*
X44506Y145048D01*
X44789Y146106D01*
Y147201D01*
X44506Y148259D01*
X43958Y149207D01*
X43184Y149982D01*
X42235Y150530D01*
X41177Y150813D01*
X40082D01*
X39024Y150530D01*
X38570Y150268D01*
X38263Y150668D01*
X39216Y151620D01*
X55553D01*
X56138Y151737D01*
X56634Y152068D01*
X84365Y179799D01*
X84696Y180295D01*
X84813Y180880D01*
Y184691D01*
X88221D01*
X88223Y184691D01*
X88274Y184680D01*
X88325Y184664D01*
X88378Y184642D01*
X88434Y184614D01*
X88493Y184577D01*
X88558Y184530D01*
X88626Y184473D01*
X88721Y184382D01*
X88796Y184334D01*
X88970Y184160D01*
X89557Y183821D01*
X90212Y183646D01*
X90890D01*
X91545Y183821D01*
X92132Y184160D01*
X92611Y184640D01*
X92950Y185227D01*
X93126Y185881D01*
Y186559D01*
X92950Y187214D01*
X92611Y187801D01*
X92132Y188281D01*
X91545Y188620D01*
X90890Y188795D01*
X90212D01*
X89557Y188620D01*
X88970Y188281D01*
X88796Y188107D01*
X88721Y188059D01*
X88626Y187968D01*
X88558Y187910D01*
X88494Y187864D01*
X88434Y187827D01*
X88378Y187799D01*
X88325Y187777D01*
X88274Y187761D01*
X88223Y187750D01*
X88221Y187750D01*
X84066D01*
X83481Y187633D01*
X82985Y187302D01*
X82284Y186601D01*
X81779Y187105D01*
X81283Y187437D01*
X80698Y187553D01*
X76253D01*
X76249Y187554D01*
X76185Y187566D01*
X76118Y187584D01*
X76048Y187609D01*
X75973Y187641D01*
X75893Y187681D01*
X75809Y187731D01*
X75720Y187791D01*
X75612Y187872D01*
X75597Y187887D01*
X75010Y188226D01*
X74355Y188402D01*
X73677D01*
X73022Y188226D01*
X72435Y187887D01*
X71955Y187408D01*
X71616Y186821D01*
X71441Y186166D01*
Y185488D01*
X71616Y184833D01*
X71955Y184246D01*
X72435Y183766D01*
X73022Y183427D01*
X73677Y183252D01*
X74355D01*
X75010Y183427D01*
X75597Y183766D01*
X76055Y184225D01*
X76058Y184227D01*
X76059Y184229D01*
X76076Y184246D01*
X76083Y184258D01*
X76133Y184319D01*
X76182Y184370D01*
X76225Y184408D01*
X76265Y184436D01*
X76300Y184457D01*
X76334Y184473D01*
X76369Y184485D01*
X76407Y184494D01*
X79754D01*
Y182342D01*
X54091Y156679D01*
X37754D01*
X37169Y156563D01*
X36673Y156231D01*
X30777Y150335D01*
X30445Y149839D01*
X30329Y149254D01*
Y141581D01*
X29838Y141483D01*
X29829Y141507D01*
X29062Y142654D01*
X28087Y143629D01*
X26940Y144396D01*
X25665Y144924D01*
X24312Y145193D01*
X22932D01*
X21579Y144924D01*
X20304Y144396D01*
X19157Y143629D01*
X18182Y142654D01*
X17415Y141507D01*
X16887Y140232D01*
X16618Y138879D01*
Y137499D01*
X16887Y136146D01*
X17415Y134871D01*
X18182Y133724D01*
X19157Y132749D01*
X20304Y131982D01*
X21579Y131454D01*
X22932Y131185D01*
X24312D01*
X25665Y131454D01*
X26940Y131982D01*
X28087Y132749D01*
X29062Y133724D01*
X29829Y134871D01*
X29838Y134895D01*
X30329Y134797D01*
Y134196D01*
X30445Y133611D01*
X30777Y133115D01*
X37036Y126856D01*
X37532Y126524D01*
X37533Y126524D01*
X37697Y125981D01*
X37301Y125585D01*
X36754Y124637D01*
X36470Y123579D01*
Y122484D01*
X36754Y121426D01*
X37301Y120477D01*
X38076Y119703D01*
X39024Y119156D01*
X40082Y118872D01*
X41177D01*
X42235Y119156D01*
X43184Y119703D01*
X43958Y120477D01*
X44506Y121426D01*
X44789Y122484D01*
Y123579D01*
X44506Y124637D01*
X43958Y125585D01*
X43636Y125908D01*
X43843Y126408D01*
X136125D01*
X139439Y123094D01*
X139439Y123094D01*
X139464Y123054D01*
X139485Y123013D01*
X139502Y122969D01*
X139517Y122918D01*
X139529Y122858D01*
X139537Y122789D01*
X139540Y122709D01*
X139536Y122583D01*
X139551Y122489D01*
Y122102D01*
X139620Y121845D01*
X139172Y121586D01*
X135694Y125064D01*
X135032Y125506D01*
X134252Y125661D01*
X118504D01*
X117724Y125506D01*
X117062Y125064D01*
X115094Y123096D01*
X114652Y122434D01*
X114496Y121653D01*
Y121348D01*
X113996Y121141D01*
X113786Y121352D01*
X113199Y121691D01*
X112544Y121866D01*
X111866D01*
X111211Y121691D01*
X110624Y121352D01*
X110144Y120872D01*
X109805Y120285D01*
X109630Y119630D01*
Y118952D01*
X109805Y118298D01*
X110144Y117710D01*
X110624Y117231D01*
X111211Y116892D01*
X111866Y116717D01*
X112544D01*
X113199Y116892D01*
X113786Y117231D01*
X114109Y117555D01*
X114646Y117422D01*
X114652Y117393D01*
X115094Y116731D01*
X132384Y99441D01*
X119818Y86875D01*
X119376Y86213D01*
X119221Y85433D01*
Y79597D01*
X119200Y79576D01*
X118860Y78989D01*
X118685Y78334D01*
Y77656D01*
X118860Y77001D01*
X119200Y76414D01*
X119679Y75934D01*
X120266Y75595D01*
X120921Y75420D01*
X121599D01*
X122254Y75595D01*
X122841Y75934D01*
X123320Y76414D01*
X123659Y77001D01*
X123835Y77656D01*
Y78334D01*
X123659Y78989D01*
X123320Y79576D01*
X123309Y79586D01*
X123299Y79739D01*
Y84588D01*
X136923Y98213D01*
X136953D01*
X137608Y98388D01*
X138195Y98727D01*
X138206Y98738D01*
X138358Y98748D01*
X142504D01*
X150969Y90284D01*
Y90254D01*
X151144Y89599D01*
X151483Y89012D01*
X151962Y88533D01*
X152550Y88194D01*
X153204Y88018D01*
X153220D01*
X153335Y87918D01*
X173311Y67942D01*
Y65829D01*
X173171Y65586D01*
X172995Y64931D01*
Y64253D01*
X173171Y63598D01*
X173510Y63011D01*
X173745Y62776D01*
X173751Y62690D01*
Y61218D01*
X173906Y60438D01*
X174348Y59776D01*
X179772Y54352D01*
Y35261D01*
X179759Y35112D01*
X179723Y34898D01*
X179683Y34746D01*
X179672Y34721D01*
X177799D01*
Y26697D01*
X185823D01*
Y34721D01*
X183950D01*
X183940Y34746D01*
X183899Y34898D01*
X183863Y35112D01*
X183850Y35261D01*
Y55197D01*
X183695Y55977D01*
X183253Y56639D01*
X178036Y61855D01*
X178076Y62092D01*
X178624Y62343D01*
X178927Y62168D01*
X179582Y61992D01*
X180260D01*
X180915Y62168D01*
X181502Y62507D01*
X181680Y62685D01*
X182176Y62619D01*
X182192Y62592D01*
X182671Y62113D01*
X183258Y61774D01*
X183913Y61598D01*
X184591D01*
X185246Y61774D01*
X185833Y62113D01*
X186312Y62592D01*
X186651Y63179D01*
X186827Y63834D01*
Y64512D01*
X186651Y65167D01*
X186312Y65754D01*
X186138Y65928D01*
X186090Y66003D01*
X185999Y66098D01*
X185942Y66167D01*
X185896Y66231D01*
X185859Y66291D01*
X185830Y66347D01*
X185809Y66399D01*
X185793Y66450D01*
X185782Y66501D01*
X185781Y66504D01*
Y75590D01*
X185665Y76176D01*
X185333Y76672D01*
X181790Y80215D01*
X181294Y80547D01*
X180709Y80663D01*
X170318D01*
X146038Y104944D01*
X145542Y105275D01*
X144957Y105392D01*
X137322D01*
X132651Y110063D01*
X132649Y110065D01*
X132621Y110109D01*
X132596Y110157D01*
X132574Y110209D01*
X132555Y110269D01*
X132538Y110337D01*
X132526Y110415D01*
X132518Y110504D01*
X132515Y110636D01*
X132496Y110723D01*
Y110969D01*
X132321Y111624D01*
X132087Y112028D01*
X132327Y112528D01*
X134602D01*
X134842Y112028D01*
X134608Y111624D01*
X134433Y110969D01*
Y110291D01*
X134608Y109636D01*
X134948Y109049D01*
X135427Y108570D01*
X136014Y108231D01*
X136669Y108055D01*
X137347D01*
X138002Y108231D01*
X138589Y108570D01*
X139068Y109049D01*
X139407Y109636D01*
X139583Y110291D01*
Y110969D01*
X140058Y111038D01*
X158879D01*
X159168Y110538D01*
X159047Y110328D01*
X158872Y109674D01*
Y108996D01*
X159047Y108341D01*
X159386Y107754D01*
X159866Y107274D01*
X160453Y106935D01*
X161108Y106760D01*
X161786D01*
X162441Y106935D01*
X163028Y107274D01*
X163507Y107754D01*
X163846Y108341D01*
X164021Y108996D01*
Y109674D01*
X163846Y110328D01*
X163507Y110916D01*
X163028Y111395D01*
X162549Y111671D01*
X162378Y112208D01*
X167145Y116974D01*
X177984D01*
X177987Y116974D01*
X178038Y116963D01*
X178089Y116947D01*
X178142Y116926D01*
X178198Y116897D01*
X178257Y116860D01*
X178321Y116814D01*
X178390Y116757D01*
X178485Y116665D01*
X178560Y116618D01*
X178734Y116444D01*
X179321Y116105D01*
X179976Y115929D01*
X180654D01*
X181309Y116105D01*
X181896Y116444D01*
X182375Y116923D01*
X182714Y117510D01*
X182760Y117681D01*
X183243Y117810D01*
X185297Y115756D01*
Y106823D01*
X177576D01*
X176796Y106667D01*
X176134Y106225D01*
X165439Y95530D01*
X165409D01*
X164754Y95355D01*
X164167Y95016D01*
X163688Y94536D01*
X163349Y93949D01*
X163173Y93294D01*
Y92616D01*
X163349Y91961D01*
X163688Y91374D01*
X164167Y90895D01*
X164754Y90556D01*
X165409Y90381D01*
X166087D01*
X166742Y90556D01*
X167329Y90895D01*
X167808Y91374D01*
X168147Y91961D01*
X168323Y92616D01*
Y92632D01*
X168423Y92747D01*
X178421Y102744D01*
X185297D01*
Y95341D01*
X185452Y94560D01*
X185895Y93899D01*
X206222Y73571D01*
X206072Y73014D01*
X205699Y72914D01*
X205112Y72575D01*
X204633Y72095D01*
X204294Y71508D01*
X204118Y70853D01*
Y70175D01*
X204294Y69521D01*
X204633Y68933D01*
X205112Y68454D01*
X205699Y68115D01*
X206354Y67940D01*
X207032D01*
X207687Y68115D01*
X208274Y68454D01*
X208753Y68933D01*
X209092Y69521D01*
X209192Y69894D01*
X209750Y70043D01*
X210708Y69085D01*
X210860Y68911D01*
X211053Y68661D01*
X211165Y68489D01*
X211110Y68355D01*
X211054Y67930D01*
X211054Y67930D01*
X211054Y67929D01*
X210974Y67323D01*
X211110Y66291D01*
X211508Y65329D01*
X212141Y64504D01*
X212174Y64479D01*
Y64400D01*
X212134Y64198D01*
Y16986D01*
X199943Y4795D01*
X153924D01*
X153744Y4827D01*
X153598Y4875D01*
X153502Y4927D01*
X153437Y4980D01*
X153384Y5046D01*
X153332Y5142D01*
X153284Y5287D01*
X153252Y5468D01*
Y19194D01*
X153097Y19975D01*
X152655Y20636D01*
X150606Y22684D01*
Y22822D01*
X150431Y23477D01*
X150092Y24064D01*
X149612Y24543D01*
X149025Y24882D01*
X148371Y25058D01*
X147693D01*
X147038Y24882D01*
X146450Y24543D01*
X145971Y24064D01*
X145632Y23477D01*
X145457Y22822D01*
Y22144D01*
X145632Y21489D01*
X145971Y20902D01*
X146450Y20423D01*
X147038Y20084D01*
X147563Y19943D01*
X147707Y19816D01*
X149173Y18350D01*
Y2756D01*
Y-18022D01*
X143317Y-23878D01*
X143287D01*
X142632Y-24053D01*
X142045Y-24392D01*
X141566Y-24872D01*
X141227Y-25459D01*
X141051Y-26114D01*
Y-26792D01*
X141227Y-27447D01*
X141295Y-27565D01*
X141045Y-27998D01*
X64123D01*
X55399Y448D01*
X55364Y513D01*
X55350Y585D01*
X55224Y774D01*
X55116Y974D01*
X55059Y1020D01*
X55018Y1081D01*
X54830Y1208D01*
X54654Y1351D01*
X54583Y1372D01*
X54522Y1413D01*
X54300Y1457D01*
X54082Y1522D01*
X54009Y1515D01*
X53937Y1529D01*
X1529D01*
Y163825D01*
X53937D01*
X54003Y163838D01*
X54070Y163831D01*
X54294Y163896D01*
X54522Y163941D01*
X54578Y163979D01*
X54643Y163997D01*
X54825Y164143D01*
X55018Y164273D01*
X55056Y164329D01*
X55108Y164371D01*
X55220Y164575D01*
X55350Y164769D01*
X55363Y164835D01*
X55395Y164894D01*
X64505Y193742D01*
X157544Y193357D01*
D02*
G37*
G36*
X95337Y169419D02*
X95273Y169244D01*
X95260Y169047D01*
X95298Y168826D01*
X95388Y168582D01*
X95528Y168316D01*
X95719Y168026D01*
X95962Y167713D01*
X96255Y167378D01*
X96600Y167019D01*
X95185Y165605D01*
X94827Y165950D01*
X94179Y166486D01*
X93889Y166677D01*
X93622Y166817D01*
X93379Y166906D01*
X93158Y166945D01*
X92960Y166932D01*
X92786Y166868D01*
X92634Y166753D01*
X95451Y169571D01*
X95337Y169419D01*
D02*
G37*
G36*
X137373Y155456D02*
X137419Y155438D01*
X137481Y155423D01*
X137559Y155410D01*
X137767Y155389D01*
X138041Y155377D01*
X138382Y155373D01*
Y153373D01*
X138203Y153372D01*
X137481Y153323D01*
X137419Y153307D01*
X137373Y153290D01*
X137345Y153270D01*
Y155475D01*
X137373Y155456D01*
D02*
G37*
G36*
X135096Y153270D02*
X135067Y153290D01*
X135022Y153307D01*
X134960Y153323D01*
X134882Y153336D01*
X134674Y153356D01*
X134400Y153369D01*
X134059Y153373D01*
Y155373D01*
X134238Y155374D01*
X134960Y155423D01*
X135022Y155438D01*
X135067Y155456D01*
X135096Y155475D01*
Y153270D01*
D02*
G37*
G36*
X179222Y150867D02*
X179959Y150243D01*
X180285Y150015D01*
X180582Y149844D01*
X180851Y149730D01*
X181091Y149672D01*
X181302Y149671D01*
X181485Y149726D01*
X181640Y149838D01*
X178823Y147022D01*
X178935Y147176D01*
X178990Y147359D01*
X178989Y147571D01*
X178932Y147811D01*
X178823Y148065D01*
Y144850D01*
X178803Y145040D01*
X178743Y145210D01*
X178642Y145360D01*
X178501Y145490D01*
X178320Y145600D01*
X178099Y145690D01*
X177837Y145760D01*
X177535Y145810D01*
X177193Y145840D01*
X176811Y145850D01*
Y147850D01*
X177193Y147860D01*
X177535Y147890D01*
X177837Y147940D01*
X178099Y148010D01*
X178320Y148100D01*
X178501Y148210D01*
X178642Y148340D01*
X178656Y148360D01*
X178646Y148377D01*
X178419Y148702D01*
X178135Y149056D01*
X177397Y149850D01*
X178811Y151264D01*
X179222Y150867D01*
D02*
G37*
G36*
X41821Y131900D02*
X41676Y131800D01*
X41548Y131686D01*
X41437Y131559D01*
X41343Y131419D01*
X41267Y131266D01*
X41207Y131100D01*
X41164Y130921D01*
X41138Y130728D01*
X41130Y130523D01*
X40130D01*
X40121Y130728D01*
X40096Y130921D01*
X40053Y131100D01*
X39993Y131266D01*
X39917Y131419D01*
X39823Y131559D01*
X39712Y131686D01*
X39584Y131800D01*
X39439Y131900D01*
X39276Y131988D01*
X41984D01*
X41821Y131900D01*
D02*
G37*
G36*
X141184Y130189D02*
X141290Y130100D01*
X141394Y130023D01*
X141496Y129959D01*
X141597Y129908D01*
X141696Y129869D01*
X141793Y129843D01*
X141888Y129830D01*
X141982Y129829D01*
X142075Y129841D01*
X140834Y128577D01*
X140845Y128670D01*
X140842Y128764D01*
X140827Y128861D01*
X140800Y128959D01*
X140760Y129058D01*
X140707Y129160D01*
X140641Y129263D01*
X140563Y129368D01*
X140473Y129475D01*
X140370Y129583D01*
X141077Y130291D01*
X141184Y130189D01*
D02*
G37*
G36*
X41138Y127146D02*
X41164Y126953D01*
X41207Y126774D01*
X41267Y126608D01*
X41343Y126455D01*
X41437Y126315D01*
X41548Y126188D01*
X41676Y126074D01*
X41821Y125974D01*
X41984Y125886D01*
X39276D01*
X39439Y125974D01*
X39584Y126074D01*
X39712Y126188D01*
X39823Y126315D01*
X39917Y126455D01*
X39993Y126608D01*
X40053Y126774D01*
X40096Y126953D01*
X40121Y127146D01*
X40130Y127351D01*
X41130D01*
X41138Y127146D01*
D02*
G37*
G36*
X140948Y124463D02*
X141060Y124376D01*
X141178Y124298D01*
X141303Y124230D01*
X141435Y124171D01*
X141575Y124121D01*
X141721Y124080D01*
X141874Y124049D01*
X142034Y124027D01*
X142201Y124014D01*
X140555Y122548D01*
X140560Y122711D01*
X140554Y122867D01*
X140537Y123018D01*
X140508Y123162D01*
X140468Y123300D01*
X140416Y123431D01*
X140352Y123557D01*
X140278Y123676D01*
X140191Y123789D01*
X140093Y123895D01*
X140844Y124559D01*
X140948Y124463D01*
D02*
G37*
G36*
X149089Y121297D02*
X148963Y121170D01*
X148485Y120628D01*
X148452Y120575D01*
X148432Y120533D01*
X148425Y120501D01*
X146896Y122089D01*
X146931Y122094D01*
X146977Y122114D01*
X147033Y122146D01*
X147099Y122192D01*
X147175Y122251D01*
X147358Y122409D01*
X147710Y122746D01*
X149089Y121297D01*
D02*
G37*
G36*
X164440Y119367D02*
X164314Y119240D01*
X163838Y118694D01*
X163805Y118640D01*
X163786Y118596D01*
X163779Y118562D01*
X162221Y120121D01*
X162254Y120127D01*
X162299Y120147D01*
X162353Y120179D01*
X162418Y120226D01*
X162579Y120358D01*
X162782Y120543D01*
X163026Y120781D01*
X164440Y119367D01*
D02*
G37*
G36*
X146864Y118940D02*
X146832Y118933D01*
X146790Y118913D01*
X146737Y118879D01*
X146195Y118402D01*
X146068Y118276D01*
X144619Y119655D01*
X144956Y120006D01*
X145114Y120189D01*
X145173Y120266D01*
X145219Y120332D01*
X145251Y120388D01*
X145271Y120433D01*
X145276Y120469D01*
X146864Y118940D01*
D02*
G37*
G36*
X179190Y117402D02*
X179071Y117516D01*
X178949Y117618D01*
X178824Y117709D01*
X178697Y117787D01*
X178567Y117853D01*
X178434Y117908D01*
X178299Y117950D01*
X178161Y117980D01*
X178020Y117998D01*
X177877Y118004D01*
Y119004D01*
X178020Y119010D01*
X178161Y119028D01*
X178299Y119058D01*
X178434Y119100D01*
X178567Y119155D01*
X178697Y119221D01*
X178824Y119299D01*
X178949Y119389D01*
X179071Y119492D01*
X179190Y119606D01*
Y117402D01*
D02*
G37*
G36*
X122054Y119242D02*
X122073Y119197D01*
X122106Y119143D01*
X122152Y119078D01*
X122284Y118917D01*
X122470Y118714D01*
X122708Y118470D01*
X121294Y117056D01*
X121167Y117182D01*
X120621Y117658D01*
X120566Y117691D01*
X120522Y117710D01*
X120488Y117717D01*
X122047Y119276D01*
X122054Y119242D01*
D02*
G37*
G36*
X162189Y116971D02*
X162155Y116965D01*
X162111Y116945D01*
X162056Y116912D01*
X161511Y116436D01*
X161383Y116310D01*
X159969Y117725D01*
X160208Y117969D01*
X160393Y118171D01*
X160525Y118333D01*
X160571Y118397D01*
X160604Y118452D01*
X160624Y118496D01*
X160630Y118530D01*
X162189Y116971D01*
D02*
G37*
G36*
X131500Y110449D02*
X131513Y110290D01*
X131538Y110138D01*
X131572Y109993D01*
X131617Y109854D01*
X131673Y109722D01*
X131739Y109596D01*
X131815Y109477D01*
X131902Y109365D01*
X131999Y109259D01*
X131292Y108552D01*
X131186Y108649D01*
X131074Y108736D01*
X130955Y108812D01*
X130830Y108878D01*
X130697Y108934D01*
X130559Y108979D01*
X130413Y109013D01*
X130261Y109038D01*
X130102Y109052D01*
X129937Y109055D01*
X131496Y110614D01*
X131500Y110449D01*
D02*
G37*
G36*
X188338Y107000D02*
X188381Y106454D01*
X188401Y106359D01*
X188424Y106280D01*
X188451Y106218D01*
X188481Y106172D01*
X188515Y106143D01*
X186596Y105660D01*
Y103907D01*
X188515Y103424D01*
X188481Y103395D01*
X188451Y103349D01*
X188424Y103287D01*
X188401Y103208D01*
X188381Y103113D01*
X188338Y102567D01*
X188336Y102389D01*
X186336Y103087D01*
X186367Y103748D01*
X186174Y103767D01*
X185900Y103779D01*
X185559Y103783D01*
Y105783D01*
X185738Y105784D01*
X186367Y105827D01*
X186336Y106480D01*
X188336Y107178D01*
X188338Y107000D01*
D02*
G37*
G36*
X137767Y101870D02*
X137812Y101853D01*
X137874Y101838D01*
X137953Y101824D01*
X138160Y101804D01*
X138435Y101792D01*
X138776Y101787D01*
Y99787D01*
X138597Y99786D01*
X137874Y99737D01*
X137812Y99722D01*
X137767Y99704D01*
X137739Y99685D01*
Y101890D01*
X137767Y101870D01*
D02*
G37*
G36*
X135489Y100322D02*
X136598Y99213D01*
X136565Y99206D01*
X136520Y99187D01*
X136466Y99154D01*
X136401Y99108D01*
X136240Y98975D01*
X136037Y98790D01*
X135793Y98552D01*
X134559Y99786D01*
X134453Y99787D01*
Y99892D01*
X134379Y99966D01*
X134453Y100041D01*
Y101787D01*
X134632Y101788D01*
X135354Y101838D01*
X135416Y101853D01*
X135461Y101870D01*
X135489Y101890D01*
Y100322D01*
D02*
G37*
G36*
X167983Y93777D02*
X167858Y93649D01*
X167382Y93104D01*
X167349Y93049D01*
X167329Y93005D01*
X167323Y92971D01*
X165764Y94530D01*
X165798Y94537D01*
X165842Y94556D01*
X165896Y94589D01*
X165962Y94635D01*
X166123Y94767D01*
X166325Y94952D01*
X166569Y95191D01*
X167983Y93777D01*
D02*
G37*
G36*
X152849Y92703D02*
X153395Y92227D01*
X153449Y92194D01*
X153494Y92174D01*
X153528Y92168D01*
X151969Y90609D01*
X151962Y90643D01*
X151943Y90687D01*
X151910Y90742D01*
X151864Y90807D01*
X151731Y90968D01*
X151546Y91170D01*
X151308Y91414D01*
X152722Y92829D01*
X152849Y92703D01*
D02*
G37*
G36*
X155124Y90544D02*
X155144Y90499D01*
X155177Y90445D01*
X155223Y90380D01*
X155355Y90219D01*
X155541Y90016D01*
X155779Y89772D01*
X154365Y88358D01*
X154237Y88484D01*
X153692Y88960D01*
X153637Y88993D01*
X153593Y89012D01*
X153559Y89018D01*
X155118Y90577D01*
X155124Y90544D01*
D02*
G37*
G36*
X122261Y79977D02*
X122310Y79255D01*
X122325Y79193D01*
X122343Y79148D01*
X122362Y79119D01*
X120158D01*
X120177Y79148D01*
X120194Y79193D01*
X120210Y79255D01*
X120223Y79333D01*
X120244Y79541D01*
X120256Y79815D01*
X120260Y80156D01*
X122260D01*
X122261Y79977D01*
D02*
G37*
G36*
X212942Y71163D02*
X213609Y70608D01*
X213910Y70406D01*
X214189Y70253D01*
X214446Y70150D01*
X214681Y70097D01*
X214895Y70094D01*
X215086Y70140D01*
X215256Y70237D01*
X212064Y67795D01*
X212197Y67929D01*
X212277Y68088D01*
X212304Y68271D01*
X212279Y68479D01*
X212200Y68712D01*
X212069Y68969D01*
X211885Y69251D01*
X211649Y69558D01*
X211360Y69889D01*
X211018Y70245D01*
X212576Y71516D01*
X212942Y71163D01*
D02*
G37*
G36*
X176351Y66727D02*
X176389Y66178D01*
X176406Y66082D01*
X176426Y66002D01*
X176449Y65938D01*
X176475Y65891D01*
X176504Y65860D01*
X174321Y65552D01*
X174327Y65568D01*
X174332Y65603D01*
X174336Y65656D01*
X174349Y66192D01*
X174350Y66533D01*
X176350Y66905D01*
X176351Y66727D01*
D02*
G37*
G36*
X184758Y66468D02*
X184776Y66328D01*
X184806Y66189D01*
X184848Y66054D01*
X184903Y65921D01*
X184969Y65791D01*
X185047Y65664D01*
X185137Y65539D01*
X185240Y65417D01*
X185354Y65298D01*
X183150D01*
X183264Y65417D01*
X183367Y65539D01*
X183457Y65664D01*
X183535Y65791D01*
X183601Y65921D01*
X183656Y66054D01*
X183698Y66189D01*
X183728Y66328D01*
X183746Y66468D01*
X183752Y66611D01*
X184752D01*
X184758Y66468D01*
D02*
G37*
G36*
X176813Y63616D02*
X176808Y63581D01*
X176804Y63529D01*
X176791Y62993D01*
X176790Y62651D01*
X174790Y62279D01*
X174788Y62457D01*
X174751Y63006D01*
X174734Y63103D01*
X174714Y63183D01*
X174691Y63246D01*
X174665Y63294D01*
X174635Y63324D01*
X176819Y63632D01*
X176813Y63616D01*
D02*
G37*
G36*
X220634Y48891D02*
X220521Y1529D01*
X203098D01*
X202907Y1991D01*
X215615Y14700D01*
X216057Y15361D01*
X216212Y16142D01*
Y47414D01*
X216645Y47664D01*
X216754Y47601D01*
X217409Y47425D01*
X218087D01*
X218742Y47601D01*
X219329Y47940D01*
X219808Y48419D01*
X220147Y49006D01*
X220634Y48891D01*
D02*
G37*
G36*
X182821Y35326D02*
X182851Y34984D01*
X182901Y34682D01*
X182971Y34421D01*
X183061Y34200D01*
X183171Y34018D01*
X183301Y33878D01*
X183451Y33777D01*
X183621Y33717D01*
X183811Y33696D01*
X179811D01*
X180001Y33717D01*
X180171Y33777D01*
X180321Y33878D01*
X180451Y34018D01*
X180561Y34200D01*
X180651Y34421D01*
X180721Y34682D01*
X180771Y34984D01*
X180801Y35326D01*
X180811Y35708D01*
X182811D01*
X182821Y35326D01*
D02*
G37*
G36*
X149608Y22353D02*
X149627Y22306D01*
X149658Y22248D01*
X149703Y22180D01*
X149762Y22103D01*
X149919Y21918D01*
X150255Y21566D01*
X148752Y20241D01*
X148625Y20367D01*
X148040Y20881D01*
X148000Y20902D01*
X147971Y20909D01*
X149604Y22391D01*
X149608Y22353D01*
D02*
G37*
G36*
X152233Y5376D02*
X152293Y5036D01*
X152393Y4736D01*
X152533Y4476D01*
X152713Y4256D01*
X152933Y4076D01*
X153193Y3936D01*
X153493Y3836D01*
X153833Y3776D01*
X154213Y3756D01*
Y1756D01*
X153833Y1736D01*
X153493Y1676D01*
X153193Y1576D01*
X152933Y1436D01*
X152713Y1256D01*
X152533Y1036D01*
X152393Y776D01*
X152293Y476D01*
X152233Y136D01*
X152213Y-244D01*
X150213Y2756D01*
X152213Y5756D01*
X152233Y5376D01*
D02*
G37*
G36*
X145861Y-25631D02*
X145736Y-25759D01*
X145260Y-26304D01*
X145227Y-26359D01*
X145207Y-26403D01*
X145201Y-26437D01*
X143642Y-24878D01*
X143676Y-24872D01*
X143720Y-24852D01*
X143774Y-24819D01*
X143839Y-24773D01*
X144000Y-24641D01*
X144203Y-24456D01*
X144447Y-24217D01*
X145861Y-25631D01*
D02*
G37*
G36*
X166283Y681D02*
X166574Y217D01*
X157545Y-27998D01*
X146207D01*
X145957Y-27565D01*
X146025Y-27447D01*
X146201Y-26792D01*
Y-26776D01*
X146301Y-26661D01*
X152655Y-20308D01*
X153097Y-19647D01*
X153252Y-18866D01*
Y44D01*
X153284Y225D01*
X153332Y370D01*
X153384Y466D01*
X153437Y531D01*
X153502Y585D01*
X153598Y636D01*
X153744Y685D01*
X153924Y717D01*
X166221D01*
X166283Y681D01*
D02*
G37*
%LPC*%
G36*
X111909Y191118D02*
X111543D01*
Y180618D01*
X122043D01*
Y180984D01*
X121773Y182694D01*
X121237Y184341D01*
X120451Y185883D01*
X119434Y187284D01*
X118209Y188508D01*
X116809Y189526D01*
X115266Y190312D01*
X113619Y190847D01*
X111909Y191118D01*
D02*
G37*
G36*
X110543D02*
X110178D01*
X108467Y190847D01*
X106821Y190312D01*
X105278Y189526D01*
X103877Y188508D01*
X102653Y187284D01*
X101635Y185883D01*
X100849Y184341D01*
X100314Y182694D01*
X100043Y180984D01*
Y180618D01*
X110543D01*
Y191118D01*
D02*
G37*
G36*
X155224Y183438D02*
Y179831D01*
X157520D01*
Y180709D01*
X157425Y181432D01*
X157145Y182106D01*
X156701Y182685D01*
X156122Y183130D01*
X155448Y183409D01*
X155224Y183438D01*
D02*
G37*
G36*
X154224D02*
X154001Y183409D01*
X153327Y183130D01*
X152748Y182685D01*
X152303Y182106D01*
X152024Y181432D01*
X151929Y180709D01*
Y179831D01*
X154224D01*
Y183438D01*
D02*
G37*
G36*
X129240Y183438D02*
Y179831D01*
X131536D01*
Y180709D01*
X131440Y181432D01*
X131161Y182106D01*
X130717Y182685D01*
X130138Y183130D01*
X129464Y183409D01*
X129240Y183438D01*
D02*
G37*
G36*
X128240Y183438D02*
X128017Y183409D01*
X127342Y183130D01*
X126763Y182685D01*
X126319Y182106D01*
X126040Y181432D01*
X125945Y180709D01*
Y179831D01*
X128240D01*
Y183438D01*
D02*
G37*
G36*
Y178831D02*
X125945D01*
Y177953D01*
X126040Y177229D01*
X126319Y176555D01*
X126763Y175976D01*
X127342Y175532D01*
X128017Y175252D01*
X128240Y175223D01*
Y178831D01*
D02*
G37*
G36*
X157520Y178831D02*
X155224D01*
Y175223D01*
X155448Y175252D01*
X156122Y175532D01*
X156701Y175976D01*
X157145Y176555D01*
X157425Y177229D01*
X157520Y177953D01*
Y178831D01*
D02*
G37*
G36*
X154224D02*
X151929D01*
Y177953D01*
X152024Y177229D01*
X152303Y176555D01*
X152748Y175976D01*
X153327Y175532D01*
X154001Y175252D01*
X154224Y175223D01*
Y178831D01*
D02*
G37*
G36*
X131536Y178831D02*
X129240D01*
Y175223D01*
X129464Y175252D01*
X130138Y175532D01*
X130717Y175976D01*
X131161Y176555D01*
X131440Y177229D01*
X131536Y177953D01*
Y178831D01*
D02*
G37*
G36*
X134631Y175676D02*
X133953D01*
X133299Y175500D01*
X132711Y175161D01*
X132232Y174682D01*
X131893Y174095D01*
X131718Y173440D01*
Y172762D01*
X131893Y172107D01*
X132232Y171520D01*
X132711Y171041D01*
X133299Y170702D01*
X133953Y170526D01*
X134631D01*
X135286Y170702D01*
X135873Y171041D01*
X136353Y171520D01*
X136692Y172107D01*
X136867Y172762D01*
Y173440D01*
X136692Y174095D01*
X136353Y174682D01*
X135873Y175161D01*
X135286Y175500D01*
X134631Y175676D01*
D02*
G37*
G36*
X122043Y179618D02*
X111543D01*
Y169118D01*
X111909D01*
X113619Y169389D01*
X115266Y169924D01*
X116809Y170710D01*
X118209Y171728D01*
X119434Y172952D01*
X120451Y174353D01*
X121237Y175896D01*
X121773Y177542D01*
X122043Y179252D01*
Y179618D01*
D02*
G37*
G36*
X110543D02*
X100043D01*
Y179252D01*
X100314Y177542D01*
X100849Y175896D01*
X101635Y174353D01*
X102653Y172952D01*
X103877Y171728D01*
X105278Y170710D01*
X106821Y169924D01*
X108467Y169389D01*
X110178Y169118D01*
X110543D01*
Y179618D01*
D02*
G37*
G36*
X114119Y167535D02*
X113441D01*
X112786Y167360D01*
X112199Y167021D01*
X111719Y166542D01*
X111380Y165954D01*
X111205Y165300D01*
Y164622D01*
X111380Y163967D01*
X111719Y163380D01*
X112199Y162900D01*
X112786Y162561D01*
X113441Y162386D01*
X114119D01*
X114773Y162561D01*
X115360Y162900D01*
X115840Y163380D01*
X116179Y163967D01*
X116354Y164622D01*
Y165300D01*
X116179Y165954D01*
X115840Y166542D01*
X115360Y167021D01*
X114773Y167360D01*
X114119Y167535D01*
D02*
G37*
G36*
X147977Y164428D02*
X147299D01*
X146644Y164252D01*
X146057Y163913D01*
X145577Y163434D01*
X145238Y162847D01*
X145063Y162192D01*
Y161943D01*
X144563Y161877D01*
X144525Y162018D01*
X144186Y162605D01*
X143707Y163084D01*
X143120Y163423D01*
X142465Y163598D01*
X141787D01*
X141132Y163423D01*
X140545Y163084D01*
X140066Y162605D01*
X139727Y162018D01*
X139551Y161363D01*
Y160685D01*
X139727Y160030D01*
X140066Y159443D01*
X140545Y158963D01*
X141132Y158624D01*
X141787Y158449D01*
X142465D01*
X143120Y158624D01*
X143707Y158963D01*
X144186Y159443D01*
X144525Y160030D01*
X144701Y160685D01*
Y160934D01*
X145201Y161000D01*
X145238Y160859D01*
X145577Y160272D01*
X146057Y159793D01*
X146644Y159454D01*
X147299Y159278D01*
X147977D01*
X148632Y159454D01*
X149219Y159793D01*
X149698Y160272D01*
X150037Y160859D01*
X150213Y161514D01*
Y162192D01*
X150037Y162847D01*
X149698Y163434D01*
X149219Y163913D01*
X148632Y164252D01*
X147977Y164428D01*
D02*
G37*
G36*
X126323Y166354D02*
X125645D01*
X124990Y166179D01*
X124403Y165840D01*
X123924Y165360D01*
X123585Y164773D01*
X123409Y164119D01*
Y163441D01*
X123585Y162786D01*
X123924Y162199D01*
X124403Y161719D01*
X124990Y161380D01*
X125645Y161205D01*
X126323D01*
X126978Y161380D01*
X127565Y161719D01*
X128045Y162199D01*
X128384Y162786D01*
X128559Y163441D01*
Y164119D01*
X128384Y164773D01*
X128045Y165360D01*
X127565Y165840D01*
X126978Y166179D01*
X126323Y166354D01*
D02*
G37*
G36*
X154276Y164428D02*
X153598D01*
X152943Y164252D01*
X152356Y163913D01*
X151877Y163434D01*
X151538Y162847D01*
X151362Y162192D01*
Y161514D01*
X151538Y160859D01*
X151877Y160272D01*
X152356Y159793D01*
X152943Y159454D01*
X153598Y159278D01*
X154276D01*
X154931Y159454D01*
X155518Y159793D01*
X155997Y160272D01*
X156336Y160859D01*
X156512Y161514D01*
Y162192D01*
X156336Y162847D01*
X155997Y163434D01*
X155518Y163913D01*
X154931Y164252D01*
X154276Y164428D01*
D02*
G37*
G36*
X51968Y142569D02*
X50937Y142434D01*
X49975Y142035D01*
X49149Y141402D01*
X48516Y140576D01*
X48118Y139615D01*
X47982Y138583D01*
X48118Y137551D01*
X48516Y136589D01*
X49149Y135764D01*
X49975Y135130D01*
X50937Y134732D01*
X51968Y134596D01*
X53000Y134732D01*
X53962Y135130D01*
X54788Y135764D01*
X55421Y136589D01*
X55819Y137551D01*
X55955Y138583D01*
X55819Y139615D01*
X55421Y140576D01*
X54788Y141402D01*
X53962Y142035D01*
X53000Y142434D01*
X51968Y142569D01*
D02*
G37*
G36*
X199499Y147850D02*
X198139D01*
X196805Y147585D01*
X195548Y147064D01*
X194417Y146309D01*
X193455Y145347D01*
X192699Y144216D01*
X192179Y142959D01*
X191913Y141625D01*
Y140265D01*
X192179Y138931D01*
X192699Y137674D01*
X193455Y136543D01*
X194417Y135581D01*
X195548Y134825D01*
X196805Y134305D01*
X198139Y134039D01*
X199499D01*
X200833Y134305D01*
X202090Y134825D01*
X203221Y135581D01*
X204183Y136543D01*
X204939Y137674D01*
X205459Y138931D01*
X205724Y140265D01*
Y141625D01*
X205459Y142959D01*
X204939Y144216D01*
X204183Y145347D01*
X203221Y146309D01*
X202090Y147064D01*
X200833Y147585D01*
X199499Y147850D01*
D02*
G37*
G36*
X182339Y139051D02*
X181283D01*
X180262Y138778D01*
X179348Y138250D01*
X178601Y137503D01*
X178073Y136588D01*
X177799Y135567D01*
Y134511D01*
X178073Y133491D01*
X178601Y132576D01*
X179348Y131829D01*
X180262Y131301D01*
X181283Y131027D01*
X182339D01*
X183360Y131301D01*
X184274Y131829D01*
X185021Y132576D01*
X185549Y133491D01*
X185823Y134511D01*
Y135567D01*
X185549Y136588D01*
X185021Y137503D01*
X184274Y138250D01*
X183360Y138778D01*
X182339Y139051D01*
D02*
G37*
G36*
X191134Y128601D02*
X190456D01*
X189801Y128426D01*
X189214Y128087D01*
X188735Y127607D01*
X188396Y127020D01*
X188221Y126365D01*
Y125687D01*
X188396Y125032D01*
X188735Y124445D01*
X189214Y123966D01*
X189801Y123627D01*
X190456Y123451D01*
X191134D01*
X191789Y123627D01*
X192376Y123966D01*
X192856Y124445D01*
X193195Y125032D01*
X193370Y125687D01*
Y126365D01*
X193195Y127020D01*
X192856Y127607D01*
X192376Y128087D01*
X191789Y128426D01*
X191134Y128601D01*
D02*
G37*
G36*
X24312Y126689D02*
X22932D01*
X21579Y126420D01*
X20304Y125892D01*
X19157Y125125D01*
X18182Y124150D01*
X17415Y123003D01*
X16887Y121728D01*
X16618Y120375D01*
Y118995D01*
X16887Y117642D01*
X17415Y116367D01*
X18182Y115220D01*
X19157Y114245D01*
X20304Y113478D01*
X21579Y112950D01*
X22932Y112681D01*
X24312D01*
X25665Y112950D01*
X26940Y113478D01*
X28087Y114245D01*
X29062Y115220D01*
X29829Y116367D01*
X30357Y117642D01*
X30626Y118995D01*
Y120375D01*
X30357Y121728D01*
X29829Y123003D01*
X29062Y124150D01*
X28087Y125125D01*
X26940Y125892D01*
X25665Y126420D01*
X24312Y126689D01*
D02*
G37*
G36*
X44789Y115380D02*
X41130D01*
Y111721D01*
X44789D01*
Y115380D01*
D02*
G37*
G36*
X40130D02*
X36470D01*
Y111721D01*
X40130D01*
Y115380D01*
D02*
G37*
G36*
X44789Y110721D02*
X41130D01*
Y107061D01*
X44789D01*
Y110721D01*
D02*
G37*
G36*
X40130D02*
X36470D01*
Y107061D01*
X40130D01*
Y110721D01*
D02*
G37*
G36*
X194209Y108480D02*
X193531D01*
X192876Y108305D01*
X192289Y107966D01*
X191810Y107486D01*
X191471Y106899D01*
X191295Y106245D01*
Y105567D01*
X191471Y104912D01*
X191810Y104324D01*
X192289Y103845D01*
X192876Y103506D01*
X193531Y103331D01*
X194209D01*
X194864Y103506D01*
X195451Y103845D01*
X195930Y104324D01*
X196269Y104912D01*
X196445Y105567D01*
Y106245D01*
X196269Y106899D01*
X195930Y107486D01*
X195451Y107966D01*
X194864Y108305D01*
X194209Y108480D01*
D02*
G37*
G36*
X89315D02*
X88637D01*
X87982Y108305D01*
X87395Y107966D01*
X86916Y107486D01*
X86577Y106899D01*
X86402Y106245D01*
Y105567D01*
X86577Y104912D01*
X86916Y104324D01*
X87395Y103845D01*
X87982Y103506D01*
X88637Y103331D01*
X89315D01*
X89970Y103506D01*
X90557Y103845D01*
X91037Y104324D01*
X91376Y104912D01*
X91551Y105567D01*
Y106245D01*
X91376Y106899D01*
X91037Y107486D01*
X90557Y107966D01*
X89970Y108305D01*
X89315Y108480D01*
D02*
G37*
G36*
X176717Y95488D02*
X176039D01*
X175384Y95313D01*
X174797Y94974D01*
X174318Y94494D01*
X173979Y93907D01*
X173909Y93648D01*
X173436Y93345D01*
X173351Y93367D01*
X172780Y93520D01*
X172102D01*
X171447Y93344D01*
X170860Y93005D01*
X170381Y92526D01*
X170042Y91939D01*
X169866Y91284D01*
Y90606D01*
X170042Y89951D01*
X170381Y89364D01*
X170860Y88885D01*
X171447Y88546D01*
X172102Y88370D01*
X172780D01*
X173435Y88546D01*
X174022Y88885D01*
X174501Y89364D01*
X174840Y89951D01*
X174910Y90210D01*
X175383Y90513D01*
X175468Y90491D01*
X176039Y90339D01*
X176717D01*
X177372Y90514D01*
X177959Y90853D01*
X178438Y91332D01*
X178777Y91920D01*
X178953Y92574D01*
Y93252D01*
X178777Y93907D01*
X178438Y94494D01*
X177959Y94974D01*
X177372Y95313D01*
X176717Y95488D01*
D02*
G37*
G36*
X108394Y94933D02*
Y92402D01*
X107394D01*
Y94933D01*
X107221Y94910D01*
X106595Y94651D01*
X106057Y94238D01*
X105645Y93700D01*
X105385Y93074D01*
X104890D01*
X104631Y93700D01*
X104218Y94238D01*
X103680Y94651D01*
X103054Y94910D01*
X102882Y94933D01*
Y92402D01*
X101882D01*
Y94933D01*
X101710Y94910D01*
X101083Y94651D01*
X100546Y94238D01*
X100133Y93700D01*
X99873Y93074D01*
X99785Y92402D01*
X99307Y92201D01*
X98954Y92154D01*
X98327Y91895D01*
X97790Y91482D01*
X97377Y90944D01*
X97118Y90318D01*
X97095Y90146D01*
X99626D01*
Y89146D01*
X97095D01*
X97118Y88973D01*
X97377Y88347D01*
X97790Y87809D01*
X98327Y87397D01*
X98954Y87137D01*
Y86642D01*
X98327Y86383D01*
X97790Y85970D01*
X97377Y85432D01*
X97118Y84806D01*
X97095Y84634D01*
X99626D01*
Y83634D01*
X97095D01*
X97118Y83462D01*
X97377Y82835D01*
X97790Y82297D01*
X98327Y81885D01*
X98954Y81625D01*
X99626Y81537D01*
X99785Y81378D01*
X99873Y80706D01*
X100133Y80079D01*
X100546Y79542D01*
X101083Y79129D01*
X101710Y78869D01*
X101882Y78847D01*
Y81378D01*
X102882D01*
Y78847D01*
X103054Y78869D01*
X103680Y79129D01*
X104218Y79542D01*
X104631Y80079D01*
X104890Y80706D01*
X105385D01*
X105645Y80079D01*
X106057Y79542D01*
X106595Y79129D01*
X107221Y78869D01*
X107394Y78847D01*
Y81378D01*
X108394D01*
Y78847D01*
X108566Y78869D01*
X109192Y79129D01*
X109730Y79542D01*
X110143Y80079D01*
X110402Y80706D01*
X110449Y81059D01*
X110650Y81537D01*
X111322Y81625D01*
X111948Y81885D01*
X112486Y82297D01*
X112899Y82835D01*
X113158Y83462D01*
X113181Y83634D01*
X110650D01*
Y84634D01*
X113181D01*
X113158Y84806D01*
X112899Y85432D01*
X112486Y85970D01*
X111948Y86383D01*
X111322Y86642D01*
Y87137D01*
X111948Y87397D01*
X112486Y87809D01*
X112899Y88347D01*
X113158Y88973D01*
X113181Y89146D01*
X110650D01*
Y90146D01*
X113181D01*
X113158Y90318D01*
X112899Y90944D01*
X112486Y91482D01*
X111948Y91895D01*
X111322Y92154D01*
X110969Y92201D01*
X110603Y92355D01*
X110449Y92721D01*
X110402Y93074D01*
X110143Y93700D01*
X109730Y94238D01*
X109192Y94651D01*
X108566Y94910D01*
X108394Y94933D01*
D02*
G37*
G36*
X138922Y93562D02*
X138244D01*
X137589Y93386D01*
X137002Y93047D01*
X136522Y92568D01*
X136183Y91981D01*
X136008Y91326D01*
Y90648D01*
X136183Y89993D01*
X136522Y89406D01*
X137002Y88927D01*
X137589Y88587D01*
X138244Y88412D01*
X138922D01*
X139576Y88587D01*
X140164Y88927D01*
X140643Y89406D01*
X140982Y89993D01*
X141157Y90648D01*
Y91326D01*
X140982Y91981D01*
X140643Y92568D01*
X140164Y93047D01*
X139576Y93386D01*
X138922Y93562D01*
D02*
G37*
G36*
X58213Y85252D02*
X57535D01*
X56880Y85076D01*
X56293Y84737D01*
X55814Y84258D01*
X55475Y83671D01*
X55299Y83016D01*
Y82338D01*
X55475Y81683D01*
X55814Y81096D01*
X56293Y80617D01*
X56880Y80278D01*
X57535Y80102D01*
X58213D01*
X58868Y80278D01*
X59455Y80617D01*
X59934Y81096D01*
X60273Y81683D01*
X60449Y82338D01*
Y83016D01*
X60273Y83671D01*
X59934Y84258D01*
X59455Y84737D01*
X58868Y85076D01*
X58213Y85252D01*
D02*
G37*
G36*
X195221Y79347D02*
X194543D01*
X193888Y79171D01*
X193301Y78832D01*
X192822Y78353D01*
X192483Y77766D01*
X192358Y77299D01*
X192328Y77226D01*
X192300Y77082D01*
X192273Y76972D01*
X192243Y76871D01*
X192210Y76781D01*
X192175Y76700D01*
X192138Y76627D01*
X192100Y76562D01*
X192060Y76504D01*
X192057Y76501D01*
X188167Y72611D01*
X187835Y72115D01*
X187719Y71529D01*
Y59571D01*
X187835Y58986D01*
X187841Y58977D01*
Y19696D01*
X187840Y19693D01*
X187829Y19642D01*
X187813Y19591D01*
X187792Y19538D01*
X187763Y19482D01*
X187727Y19423D01*
X187680Y19358D01*
X187623Y19290D01*
X187532Y19195D01*
X187484Y19120D01*
X187310Y18946D01*
X186971Y18359D01*
X186795Y17704D01*
Y17026D01*
X186971Y16371D01*
X187310Y15784D01*
X187789Y15304D01*
X188376Y14965D01*
X189031Y14790D01*
X189709D01*
X190364Y14965D01*
X190951Y15304D01*
X191430Y15784D01*
X191769Y16371D01*
X191945Y17026D01*
Y17704D01*
X191769Y18359D01*
X191430Y18946D01*
X191257Y19120D01*
X191209Y19195D01*
X191117Y19290D01*
X191060Y19358D01*
X191014Y19422D01*
X190977Y19482D01*
X190948Y19538D01*
X190927Y19591D01*
X190911Y19642D01*
X190900Y19693D01*
X190900Y19696D01*
Y59449D01*
X190783Y60034D01*
X190777Y60043D01*
Y66316D01*
X191277Y66562D01*
X191707Y66232D01*
X192669Y65834D01*
X193701Y65698D01*
X194733Y65834D01*
X195694Y66232D01*
X196520Y66866D01*
X197153Y67692D01*
X197552Y68653D01*
X197688Y69685D01*
X197552Y70717D01*
X197153Y71679D01*
X196520Y72504D01*
X195694Y73138D01*
X194733Y73536D01*
X194552Y73560D01*
X194371Y73902D01*
X194350Y74091D01*
X194356Y74098D01*
X194521Y74203D01*
X194543Y74197D01*
X195221D01*
X195876Y74372D01*
X196463Y74711D01*
X196942Y75191D01*
X197281Y75778D01*
X197457Y76433D01*
Y77111D01*
X197281Y77766D01*
X196942Y78353D01*
X196463Y78832D01*
X195876Y79171D01*
X195221Y79347D01*
D02*
G37*
G36*
X45296Y79027D02*
X44618D01*
X43963Y78852D01*
X43376Y78513D01*
X42896Y78034D01*
X42557Y77447D01*
X42382Y76792D01*
Y76114D01*
X42557Y75459D01*
X42896Y74872D01*
X43376Y74392D01*
X43963Y74053D01*
X44618Y73878D01*
X45296D01*
X45950Y74053D01*
X46538Y74392D01*
X47017Y74872D01*
X47356Y75459D01*
X47532Y76114D01*
Y76792D01*
X47356Y77447D01*
X47017Y78034D01*
X46538Y78513D01*
X45950Y78852D01*
X45296Y79027D01*
D02*
G37*
G36*
X137741Y75845D02*
X137063D01*
X136408Y75670D01*
X135821Y75331D01*
X135341Y74851D01*
X135002Y74264D01*
X134827Y73609D01*
Y72931D01*
X135002Y72277D01*
X135341Y71689D01*
X135821Y71210D01*
X136408Y70871D01*
X136851Y70752D01*
Y70235D01*
X136408Y70116D01*
X135821Y69777D01*
X135341Y69297D01*
X135002Y68710D01*
X134827Y68055D01*
Y67378D01*
X135002Y66723D01*
X135341Y66136D01*
X135821Y65656D01*
X136408Y65317D01*
X137063Y65142D01*
X137741D01*
X138395Y65317D01*
X138982Y65656D01*
X139462Y66136D01*
X139801Y66723D01*
X139976Y67378D01*
Y68055D01*
X139801Y68710D01*
X139462Y69297D01*
X138982Y69777D01*
X138395Y70116D01*
X137952Y70235D01*
Y70752D01*
X138395Y70871D01*
X138982Y71210D01*
X139462Y71689D01*
X139801Y72277D01*
X139976Y72931D01*
Y73609D01*
X139801Y74264D01*
X139462Y74851D01*
X138982Y75331D01*
X138395Y75670D01*
X137741Y75845D01*
D02*
G37*
G36*
X22386Y74228D02*
X21708D01*
X21053Y74053D01*
X20466Y73714D01*
X19987Y73234D01*
X19648Y72647D01*
X19472Y71992D01*
Y71315D01*
X19648Y70660D01*
X19987Y70073D01*
X20233Y69826D01*
X20411Y69488D01*
X20233Y69150D01*
X19987Y68904D01*
X19648Y68317D01*
X19472Y67662D01*
Y66984D01*
X19648Y66329D01*
X19987Y65742D01*
X20466Y65263D01*
X21053Y64924D01*
X21708Y64748D01*
X22386D01*
X23041Y64924D01*
X23628Y65263D01*
X24108Y65742D01*
X24447Y66329D01*
X24622Y66984D01*
Y67662D01*
X24447Y68317D01*
X24108Y68904D01*
X23861Y69150D01*
X23683Y69488D01*
X23861Y69826D01*
X24108Y70073D01*
X24447Y70660D01*
X24622Y71315D01*
Y71992D01*
X24447Y72647D01*
X24108Y73234D01*
X23628Y73714D01*
X23041Y74053D01*
X22386Y74228D01*
D02*
G37*
G36*
X152701Y64386D02*
X152023D01*
X151368Y64210D01*
X150781Y63871D01*
X150302Y63392D01*
X149963Y62805D01*
X149787Y62150D01*
Y61472D01*
X149963Y60817D01*
X150302Y60230D01*
X150781Y59751D01*
X151368Y59412D01*
X152023Y59236D01*
X152701D01*
X153356Y59412D01*
X153943Y59751D01*
X154423Y60230D01*
X154762Y60817D01*
X154937Y61472D01*
Y62150D01*
X154762Y62805D01*
X154423Y63392D01*
X153943Y63871D01*
X153356Y64210D01*
X152701Y64386D01*
D02*
G37*
G36*
X133410Y61236D02*
X132732D01*
X132077Y61061D01*
X131490Y60722D01*
X131010Y60242D01*
X130672Y59655D01*
X130496Y59000D01*
Y58322D01*
X130672Y57668D01*
X131010Y57080D01*
X131490Y56601D01*
X132077Y56262D01*
X132732Y56087D01*
X133410D01*
X134065Y56262D01*
X134652Y56601D01*
X135131Y57080D01*
X135470Y57668D01*
X135646Y58322D01*
Y59000D01*
X135470Y59655D01*
X135131Y60242D01*
X134652Y60722D01*
X134065Y61061D01*
X133410Y61236D01*
D02*
G37*
G36*
X70024Y60055D02*
X69346D01*
X68691Y59880D01*
X68104Y59541D01*
X67625Y59061D01*
X67286Y58474D01*
X67110Y57819D01*
Y57141D01*
X67286Y56486D01*
X67625Y55899D01*
X68104Y55420D01*
X68691Y55081D01*
X69346Y54905D01*
X70024D01*
X70679Y55081D01*
X71266Y55420D01*
X71745Y55899D01*
X72084Y56486D01*
X72260Y57141D01*
Y57819D01*
X72084Y58474D01*
X71745Y59061D01*
X71266Y59541D01*
X70679Y59880D01*
X70024Y60055D01*
D02*
G37*
G36*
X116874Y59661D02*
X116197D01*
X115542Y59486D01*
X114954Y59147D01*
X114475Y58668D01*
X114136Y58080D01*
X113961Y57426D01*
Y56748D01*
X114136Y56093D01*
X114475Y55506D01*
X114954Y55026D01*
X115542Y54687D01*
X116197Y54512D01*
X116874D01*
X117529Y54687D01*
X118116Y55026D01*
X118596Y55506D01*
X118935Y56093D01*
X119110Y56748D01*
Y57426D01*
X118935Y58080D01*
X118596Y58668D01*
X118116Y59147D01*
X117529Y59486D01*
X116874Y59661D01*
D02*
G37*
G36*
X172905Y57693D02*
X172227D01*
X171573Y57517D01*
X170985Y57178D01*
X170506Y56699D01*
X170167Y56112D01*
X169992Y55457D01*
Y54779D01*
X170167Y54124D01*
X170506Y53537D01*
X170985Y53058D01*
X171573Y52719D01*
X172227Y52543D01*
X172905D01*
X173560Y52719D01*
X174147Y53058D01*
X174627Y53537D01*
X174966Y54124D01*
X175141Y54779D01*
Y55457D01*
X174966Y56112D01*
X174627Y56699D01*
X174147Y57178D01*
X173560Y57517D01*
X172905Y57693D01*
D02*
G37*
G36*
X133410Y54937D02*
X132732D01*
X132077Y54761D01*
X131490Y54423D01*
X131010Y53943D01*
X130672Y53356D01*
X130496Y52701D01*
Y52023D01*
X130672Y51368D01*
X131010Y50781D01*
X131490Y50302D01*
X132077Y49963D01*
X132732Y49787D01*
X133410D01*
X134065Y49963D01*
X134652Y50302D01*
X135131Y50781D01*
X135470Y51368D01*
X135646Y52023D01*
Y52701D01*
X135470Y53356D01*
X135131Y53943D01*
X134652Y54423D01*
X134065Y54761D01*
X133410Y54937D01*
D02*
G37*
G36*
X30654Y51394D02*
X29976D01*
X29321Y51218D01*
X28734Y50879D01*
X28255Y50400D01*
X27916Y49813D01*
X27740Y49158D01*
Y48480D01*
X27916Y47825D01*
X28255Y47238D01*
X28734Y46759D01*
X29321Y46420D01*
X29976Y46244D01*
X30654D01*
X31309Y46420D01*
X31896Y46759D01*
X32375Y47238D01*
X32714Y47825D01*
X32890Y48480D01*
Y49158D01*
X32714Y49813D01*
X32375Y50400D01*
X31896Y50879D01*
X31309Y51218D01*
X30654Y51394D01*
D02*
G37*
G36*
X69630Y45882D02*
X68952D01*
X68297Y45706D01*
X67710Y45367D01*
X67231Y44888D01*
X66892Y44301D01*
X66716Y43646D01*
Y42968D01*
X66892Y42313D01*
X67231Y41726D01*
X67710Y41247D01*
X68297Y40908D01*
X68952Y40732D01*
X69630D01*
X70285Y40908D01*
X70872Y41247D01*
X71352Y41726D01*
X71691Y42313D01*
X71866Y42968D01*
Y43646D01*
X71691Y44301D01*
X71352Y44888D01*
X70872Y45367D01*
X70285Y45706D01*
X69630Y45882D01*
D02*
G37*
G36*
X146008Y42339D02*
X145330D01*
X144676Y42163D01*
X144088Y41824D01*
X143609Y41345D01*
X143270Y40758D01*
X143095Y40103D01*
Y39425D01*
X143270Y38770D01*
X143609Y38183D01*
X144088Y37703D01*
X144676Y37364D01*
X145330Y37189D01*
X146008D01*
X146663Y37364D01*
X147250Y37703D01*
X147730Y38183D01*
X148069Y38770D01*
X148244Y39425D01*
Y40103D01*
X148069Y40758D01*
X147730Y41345D01*
X147250Y41824D01*
X146663Y42163D01*
X146008Y42339D01*
D02*
G37*
G36*
X41158Y34721D02*
X40102D01*
X39081Y34447D01*
X38167Y33919D01*
X37420Y33172D01*
X36891Y32257D01*
X36618Y31237D01*
Y30180D01*
X36891Y29160D01*
X37420Y28245D01*
X38167Y27498D01*
X39081Y26970D01*
X40102Y26697D01*
X41158D01*
X42178Y26970D01*
X43093Y27498D01*
X43840Y28245D01*
X44368Y29160D01*
X44642Y30180D01*
Y31237D01*
X44368Y32257D01*
X43840Y33172D01*
X43093Y33919D01*
X42178Y34447D01*
X41158Y34721D01*
D02*
G37*
G36*
X199499Y31709D02*
X198139D01*
X196805Y31443D01*
X195548Y30923D01*
X194417Y30167D01*
X193455Y29205D01*
X192699Y28074D01*
X192179Y26817D01*
X191913Y25483D01*
Y24123D01*
X192179Y22789D01*
X192699Y21532D01*
X193455Y20401D01*
X194417Y19439D01*
X195548Y18684D01*
X196805Y18163D01*
X198139Y17898D01*
X199499D01*
X200833Y18163D01*
X202090Y18684D01*
X203221Y19439D01*
X204183Y20401D01*
X204939Y21532D01*
X205459Y22789D01*
X205724Y24123D01*
Y25483D01*
X205459Y26817D01*
X204939Y28074D01*
X204183Y29205D01*
X203221Y30167D01*
X202090Y30923D01*
X200833Y31443D01*
X199499Y31709D01*
D02*
G37*
G36*
X24302D02*
X22942D01*
X21608Y31443D01*
X20351Y30923D01*
X19220Y30167D01*
X18258Y29205D01*
X17503Y28074D01*
X16982Y26817D01*
X16716Y25483D01*
Y24123D01*
X16982Y22789D01*
X17503Y21532D01*
X18258Y20401D01*
X19220Y19439D01*
X20351Y18684D01*
X21608Y18163D01*
X22942Y17898D01*
X24302D01*
X25636Y18163D01*
X26893Y18684D01*
X28024Y19439D01*
X28986Y20401D01*
X29742Y21532D01*
X30262Y22789D01*
X30528Y24123D01*
Y25483D01*
X30262Y26817D01*
X29742Y28074D01*
X28986Y29205D01*
X28024Y30167D01*
X26893Y30923D01*
X25636Y31443D01*
X24302Y31709D01*
D02*
G37*
G36*
X159055Y23278D02*
X158023Y23142D01*
X157062Y22744D01*
X156236Y22110D01*
X155602Y21285D01*
X155204Y20323D01*
X155068Y19291D01*
X155204Y18259D01*
X155602Y17298D01*
X156236Y16472D01*
X157062Y15839D01*
X158023Y15440D01*
X159055Y15304D01*
X160087Y15440D01*
X161049Y15839D01*
X161874Y16472D01*
X162508Y17298D01*
X162906Y18259D01*
X163042Y19291D01*
X162906Y20323D01*
X162508Y21285D01*
X161874Y22110D01*
X161049Y22744D01*
X160087Y23142D01*
X159055Y23278D01*
D02*
G37*
G36*
X182339Y22909D02*
X181283D01*
X180262Y22636D01*
X179348Y22108D01*
X178601Y21361D01*
X178073Y20446D01*
X177799Y19426D01*
Y18370D01*
X178073Y17349D01*
X178601Y16434D01*
X179348Y15687D01*
X180262Y15159D01*
X181283Y14886D01*
X182339D01*
X183360Y15159D01*
X184274Y15687D01*
X185021Y16434D01*
X185549Y17349D01*
X185823Y18370D01*
Y19426D01*
X185549Y20446D01*
X185021Y21361D01*
X184274Y22108D01*
X183360Y22636D01*
X182339Y22909D01*
D02*
G37*
G36*
X44642D02*
X36618D01*
Y14886D01*
X44642D01*
Y22909D01*
D02*
G37*
G36*
X170472Y18947D02*
X169441Y18812D01*
X168479Y18413D01*
X167653Y17780D01*
X167020Y16954D01*
X166621Y15992D01*
X166486Y14961D01*
X166621Y13929D01*
X167020Y12967D01*
X167653Y12141D01*
X168479Y11508D01*
X169441Y11110D01*
X170472Y10974D01*
X171504Y11110D01*
X172466Y11508D01*
X173292Y12141D01*
X173925Y12967D01*
X174323Y13929D01*
X174459Y14961D01*
X174323Y15992D01*
X173925Y16954D01*
X173292Y17780D01*
X172466Y18413D01*
X171504Y18812D01*
X170472Y18947D01*
D02*
G37*
G36*
X111811Y15798D02*
X110779Y15662D01*
X109818Y15264D01*
X108992Y14630D01*
X108358Y13804D01*
X107960Y12843D01*
X107824Y11811D01*
X107960Y10779D01*
X108358Y9818D01*
X108992Y8992D01*
X109818Y8358D01*
X110779Y7960D01*
X111811Y7824D01*
X112843Y7960D01*
X113804Y8358D01*
X114630Y8992D01*
X115264Y9818D01*
X115662Y10779D01*
X115798Y11811D01*
X115662Y12843D01*
X115264Y13804D01*
X114630Y14630D01*
X113804Y15264D01*
X112843Y15662D01*
X111811Y15798D01*
D02*
G37*
G36*
X64778Y2309D02*
X64100D01*
X63445Y2134D01*
X62858Y1795D01*
X62379Y1315D01*
X62196Y998D01*
X61618D01*
X61509Y1187D01*
X61030Y1667D01*
X60443Y2006D01*
X59788Y2181D01*
X59110D01*
X58455Y2006D01*
X57868Y1667D01*
X57389Y1187D01*
X57050Y600D01*
X56874Y-55D01*
Y-733D01*
X57050Y-1388D01*
X57389Y-1975D01*
X57868Y-2454D01*
X58455Y-2793D01*
X59110Y-2968D01*
X59788D01*
X60443Y-2793D01*
X61030Y-2454D01*
X61509Y-1975D01*
X61692Y-1658D01*
X62270D01*
X62379Y-1847D01*
X62858Y-2326D01*
X63445Y-2665D01*
X64100Y-2841D01*
X64778D01*
X65433Y-2665D01*
X66020Y-2326D01*
X66499Y-1847D01*
X66838Y-1260D01*
X67014Y-605D01*
Y73D01*
X66838Y728D01*
X66499Y1315D01*
X66020Y1795D01*
X65433Y2134D01*
X64778Y2309D01*
D02*
G37*
G36*
X140157Y4381D02*
X139126Y4245D01*
X138164Y3846D01*
X137338Y3213D01*
X136705Y2387D01*
X136307Y1426D01*
X136171Y394D01*
X136307Y-638D01*
X136705Y-1600D01*
X137338Y-2425D01*
X138164Y-3059D01*
X139126Y-3457D01*
X140157Y-3593D01*
X141189Y-3457D01*
X142151Y-3059D01*
X142977Y-2425D01*
X143610Y-1600D01*
X144009Y-638D01*
X144144Y394D01*
X144009Y1426D01*
X143610Y2387D01*
X142977Y3213D01*
X142151Y3846D01*
X141189Y4245D01*
X140157Y4381D01*
D02*
G37*
G36*
X129134D02*
X128102Y4245D01*
X127140Y3846D01*
X126315Y3213D01*
X125681Y2387D01*
X125283Y1426D01*
X125147Y394D01*
X125283Y-638D01*
X125681Y-1600D01*
X126315Y-2425D01*
X127140Y-3059D01*
X128102Y-3457D01*
X129134Y-3593D01*
X130166Y-3457D01*
X131127Y-3059D01*
X131953Y-2425D01*
X132587Y-1600D01*
X132985Y-638D01*
X133121Y394D01*
X132985Y1426D01*
X132587Y2387D01*
X131953Y3213D01*
X131127Y3846D01*
X130166Y4245D01*
X129134Y4381D01*
D02*
G37*
G36*
X86614Y-1525D02*
X85582Y-1661D01*
X84621Y-2059D01*
X83795Y-2693D01*
X83161Y-3518D01*
X82763Y-4480D01*
X82627Y-5512D01*
X82763Y-6544D01*
X83161Y-7505D01*
X83795Y-8331D01*
X84621Y-8964D01*
X85582Y-9363D01*
X86614Y-9499D01*
X87646Y-9363D01*
X88608Y-8964D01*
X89433Y-8331D01*
X90067Y-7505D01*
X90465Y-6544D01*
X90601Y-5512D01*
X90465Y-4480D01*
X90067Y-3518D01*
X89433Y-2693D01*
X88608Y-2059D01*
X87646Y-1661D01*
X86614Y-1525D01*
D02*
G37*
G36*
X111909Y-3764D02*
X111543D01*
Y-14264D01*
X122043D01*
Y-13898D01*
X121773Y-12188D01*
X121237Y-10541D01*
X120451Y-8998D01*
X119434Y-7598D01*
X118209Y-6373D01*
X116809Y-5356D01*
X115266Y-4570D01*
X113619Y-4035D01*
X111909Y-3764D01*
D02*
G37*
G36*
X110543D02*
X110178D01*
X108467Y-4035D01*
X106821Y-4570D01*
X105278Y-5356D01*
X103877Y-6373D01*
X102653Y-7598D01*
X101635Y-8998D01*
X100849Y-10541D01*
X100314Y-12188D01*
X100043Y-13898D01*
Y-14264D01*
X110543D01*
Y-3764D01*
D02*
G37*
G36*
X122043Y-15264D02*
X111543D01*
Y-25764D01*
X111909D01*
X113619Y-25493D01*
X115266Y-24958D01*
X116809Y-24172D01*
X118209Y-23154D01*
X119434Y-21930D01*
X120451Y-20529D01*
X121237Y-18986D01*
X121773Y-17340D01*
X122043Y-15630D01*
Y-15264D01*
D02*
G37*
G36*
X110543D02*
X100043D01*
Y-15630D01*
X100314Y-17340D01*
X100849Y-18986D01*
X101635Y-20529D01*
X102653Y-21930D01*
X103877Y-23154D01*
X105278Y-24172D01*
X106821Y-24958D01*
X108467Y-25493D01*
X110178Y-25764D01*
X110543D01*
Y-15264D01*
D02*
G37*
G36*
X92520Y-19241D02*
X91488Y-19377D01*
X90526Y-19776D01*
X89701Y-20409D01*
X89067Y-21235D01*
X88669Y-22197D01*
X88533Y-23228D01*
X88669Y-24260D01*
X89067Y-25222D01*
X89701Y-26048D01*
X90526Y-26681D01*
X91488Y-27079D01*
X92520Y-27215D01*
X93552Y-27079D01*
X94513Y-26681D01*
X95339Y-26048D01*
X95972Y-25222D01*
X96371Y-24260D01*
X96507Y-23228D01*
X96371Y-22197D01*
X95972Y-21235D01*
X95339Y-20409D01*
X94513Y-19776D01*
X93552Y-19377D01*
X92520Y-19241D01*
D02*
G37*
%LPD*%
G36*
X194589Y75224D02*
X194434Y75247D01*
X194284Y75257D01*
X194139Y75253D01*
X193999Y75235D01*
X193864Y75204D01*
X193735Y75159D01*
X193611Y75100D01*
X193492Y75028D01*
X193378Y74943D01*
X193269Y74843D01*
X192696Y75684D01*
X192790Y75786D01*
X192877Y75894D01*
X192958Y76011D01*
X193032Y76135D01*
X193098Y76266D01*
X193158Y76404D01*
X193211Y76550D01*
X193257Y76704D01*
X193297Y76865D01*
X193329Y77033D01*
X194589Y75224D01*
D02*
G37*
G36*
X189876Y19660D02*
X189894Y19519D01*
X189924Y19381D01*
X189966Y19246D01*
X190021Y19113D01*
X190087Y18983D01*
X190165Y18856D01*
X190256Y18731D01*
X190358Y18609D01*
X190472Y18489D01*
X188268D01*
X188382Y18609D01*
X188485Y18731D01*
X188575Y18856D01*
X188653Y18983D01*
X188719Y19113D01*
X188774Y19246D01*
X188816Y19381D01*
X188846Y19519D01*
X188864Y19660D01*
X188870Y19803D01*
X189870D01*
X189876Y19660D01*
D02*
G37*
D11*
X142363Y128297D02*
X142384D01*
X140723Y129937D02*
X142363Y128297D01*
X84066Y186221D02*
X90551D01*
X83284Y185438D02*
X84066Y186221D01*
X83284Y180880D02*
Y185438D01*
X55553Y153150D02*
X83284Y180880D01*
X38583Y153150D02*
X55553D01*
X33858Y135025D02*
Y148425D01*
X38583Y153150D01*
X40044Y129937D02*
X40630Y130523D01*
X41216Y129937D02*
X140723D01*
X40630Y130523D02*
X41216Y129937D01*
X40630Y130523D02*
Y134843D01*
X33858Y135025D02*
X38946Y129937D01*
X40044D01*
X81283Y181709D02*
Y185438D01*
X80698Y186024D02*
X81283Y185438D01*
X74213Y186024D02*
X80698D01*
X74016Y185827D02*
X74213Y186024D01*
X142126Y122441D02*
Y122570D01*
X136759Y127937D02*
X142126Y122570D01*
X54724Y155150D02*
X81283Y181709D01*
X37754Y155150D02*
X54724D01*
X41216Y127937D02*
X136759D01*
X38118D02*
X40044D01*
X31858Y134196D02*
Y149254D01*
X37754Y155150D01*
X31858Y134196D02*
X38118Y127937D01*
X40630Y127351D02*
X41216Y127937D01*
X40630Y123031D02*
Y127351D01*
X40044Y127937D02*
X40630Y127351D01*
X180709Y79134D02*
X184252Y75590D01*
X144957Y103862D02*
X169685Y79134D01*
X180709D01*
X136689Y103862D02*
X144957D01*
X184252Y64173D02*
Y75590D01*
X129921Y110630D02*
X136689Y103862D01*
X137008Y110630D02*
X138945Y112567D01*
X189370Y17365D02*
Y59449D01*
Y17323D02*
Y17365D01*
Y17323D02*
X189764Y16929D01*
X189248Y59571D02*
Y71529D01*
X194490Y76772D02*
X194882D01*
X189248Y71529D02*
X194490Y76772D01*
X189248Y59571D02*
X189370Y59449D01*
X138945Y112567D02*
X160574D01*
X166511Y118504D02*
X180315D01*
X160574Y112567D02*
X166511Y118504D01*
D85*
X107832Y154373D02*
X136221D01*
X175118Y153543D02*
X181811Y146850D01*
X159055Y153543D02*
X175118D01*
X156299Y156299D02*
X159055Y153543D01*
X143626Y-26453D02*
X151213Y-18866D01*
X120472Y119291D02*
X125197Y114567D01*
X158226D02*
X165737Y122079D01*
X125197Y114567D02*
X158226D01*
X118504Y123622D02*
X134252D01*
X116535Y118173D02*
Y121653D01*
X118504Y123622D01*
X116535Y118173D02*
X133921Y100787D01*
X134252Y123622D02*
X139370Y118504D01*
X214213Y64239D02*
Y66575D01*
X214173Y16142D02*
Y64198D01*
X214213Y66575D02*
X214961Y67323D01*
X214173Y64198D02*
X214213Y64239D01*
X151213Y2756D02*
Y19194D01*
Y-18866D02*
Y2756D01*
X200787D01*
X214173Y16142D01*
X177576Y104783D02*
X187721D01*
X181858Y122079D02*
X187336Y116601D01*
X165737Y122079D02*
X181858D01*
X187336Y95341D02*
Y116601D01*
X144882Y118504D02*
X173228Y146850D01*
X181811D01*
X139370Y118504D02*
X144882D01*
X133921Y100787D02*
X136614D01*
X121260Y85433D02*
X136614Y100787D01*
X148031Y22375D02*
X151213Y19194D01*
X148031Y22375D02*
Y22483D01*
X214961Y67323D02*
Y67716D01*
X187336Y95341D02*
X214961Y67716D01*
X165748Y92955D02*
X177576Y104783D01*
X175790Y61218D02*
X181811Y55197D01*
Y30709D02*
Y55197D01*
X175570Y64592D02*
X175790Y64372D01*
Y61218D02*
Y64372D01*
X175350Y64812D02*
X175570Y64592D01*
X153543Y90593D02*
X175350Y68787D01*
Y64812D02*
Y68787D01*
X136614Y100787D02*
X143349D01*
X153543Y90593D01*
X121260Y77995D02*
Y85433D01*
X147379Y156299D02*
X156299D01*
X136221Y154373D02*
X145452D01*
X147379Y156299D01*
X92520Y169685D02*
X107832Y154373D01*
X92520Y169685D02*
Y169685D01*
D86*
X107894Y81378D02*
D03*
X102382D02*
D03*
X110650Y84134D02*
D03*
X105138D02*
D03*
X99626D02*
D03*
X107894Y86890D02*
D03*
X102382D02*
D03*
X110650Y89646D02*
D03*
X105138D02*
D03*
X99626D02*
D03*
X107894Y92402D02*
D03*
X102382D02*
D03*
D87*
X193701Y69685D02*
D03*
X86614Y-5512D02*
D03*
X111811Y11811D02*
D03*
X129134Y394D02*
D03*
X140157D02*
D03*
X159055Y19291D02*
D03*
X170472Y14961D02*
D03*
X92520Y169685D02*
D03*
D88*
X214961Y67323D02*
D03*
X51968Y138583D02*
D03*
X92520Y-23228D02*
D03*
D89*
X181811Y146850D02*
D03*
Y30709D02*
D03*
X40630Y18898D02*
D03*
D90*
X181811Y135039D02*
D03*
Y18898D02*
D03*
X40630Y30709D02*
D03*
D91*
X198819Y140945D02*
D03*
Y24803D02*
D03*
X23622D02*
D03*
D92*
X111043Y180118D02*
D03*
Y-14764D02*
D03*
D93*
X40630Y111221D02*
D03*
D94*
Y123031D02*
D03*
Y134843D02*
D03*
Y146653D02*
D03*
D95*
X23622Y138189D02*
D03*
Y119685D02*
D03*
D96*
X128740Y179331D02*
D03*
X154724D02*
D03*
D97*
X215354Y159448D02*
D03*
X212401Y153543D02*
D03*
X215354Y147637D02*
D03*
X212401Y141732D02*
D03*
X215354Y135826D02*
D03*
X212401Y129921D02*
D03*
X215354Y124015D02*
D03*
X212401Y118110D02*
D03*
Y94488D02*
D03*
X215354Y5905D02*
D03*
X209449Y159448D02*
D03*
X206496Y153543D02*
D03*
X209449Y147637D02*
D03*
Y135826D02*
D03*
Y124015D02*
D03*
X206496Y118110D02*
D03*
X209449Y64960D02*
D03*
Y41338D02*
D03*
Y29527D02*
D03*
Y17716D02*
D03*
Y5905D02*
D03*
X203543Y159448D02*
D03*
X200590Y153543D02*
D03*
X203543Y124015D02*
D03*
X200590Y118110D02*
D03*
Y59055D02*
D03*
Y47244D02*
D03*
X203543Y17716D02*
D03*
X200590Y11811D02*
D03*
X197637Y159448D02*
D03*
X194685Y153543D02*
D03*
Y11811D02*
D03*
X191732Y159448D02*
D03*
X188779Y153543D02*
D03*
X191732Y147637D02*
D03*
X188779Y141732D02*
D03*
X191732Y135826D02*
D03*
X188779Y11811D02*
D03*
X185826Y159448D02*
D03*
X182874Y153543D02*
D03*
Y11811D02*
D03*
X179921Y159448D02*
D03*
X176968Y11811D02*
D03*
X174015Y159448D02*
D03*
X168110Y29527D02*
D03*
X165157Y11811D02*
D03*
X159252Y177165D02*
D03*
X162204Y171259D02*
D03*
Y-5906D02*
D03*
X159252Y-11811D02*
D03*
X153346Y188976D02*
D03*
X147441D02*
D03*
X141535D02*
D03*
X144488Y17716D02*
D03*
X141535Y11811D02*
D03*
X144488Y5905D02*
D03*
Y-5906D02*
D03*
X141535Y-11811D02*
D03*
X144488Y-17717D02*
D03*
X135630Y188976D02*
D03*
Y94488D02*
D03*
X129724Y188976D02*
D03*
Y82677D02*
D03*
X132677Y-5906D02*
D03*
X123819Y188976D02*
D03*
Y177165D02*
D03*
Y94488D02*
D03*
Y23622D02*
D03*
Y-11811D02*
D03*
Y-23622D02*
D03*
X120866Y171259D02*
D03*
X117913Y141732D02*
D03*
X120866Y135826D02*
D03*
X117913Y94488D02*
D03*
X120866Y-5906D02*
D03*
X114960Y112204D02*
D03*
Y100393D02*
D03*
Y88582D02*
D03*
Y76771D02*
D03*
X109055Y112204D02*
D03*
Y100393D02*
D03*
Y76771D02*
D03*
X106102Y70866D02*
D03*
X109055Y64960D02*
D03*
X100197Y188976D02*
D03*
Y153543D02*
D03*
X103149Y112204D02*
D03*
Y100393D02*
D03*
Y76771D02*
D03*
X100197Y70866D02*
D03*
X103149Y64960D02*
D03*
X100197Y23622D02*
D03*
Y-23622D02*
D03*
X97244Y183071D02*
D03*
X94291Y177165D02*
D03*
Y153543D02*
D03*
X97244Y135826D02*
D03*
Y112204D02*
D03*
Y100393D02*
D03*
X94291Y94488D02*
D03*
Y82677D02*
D03*
X97244Y76771D02*
D03*
X94291Y70866D02*
D03*
X97244Y-17717D02*
D03*
X88385Y177165D02*
D03*
Y165354D02*
D03*
X91338Y112204D02*
D03*
Y100393D02*
D03*
X88385Y94488D02*
D03*
X91338Y88582D02*
D03*
X88385Y82677D02*
D03*
X91338Y76771D02*
D03*
X88385Y70866D02*
D03*
Y-11811D02*
D03*
X82480Y188976D02*
D03*
X85433Y171259D02*
D03*
X82480Y165354D02*
D03*
X85433Y159448D02*
D03*
Y135826D02*
D03*
X82480Y-11811D02*
D03*
X85433Y-17717D02*
D03*
X79527Y171259D02*
D03*
X76574Y165354D02*
D03*
X79527Y159448D02*
D03*
X76574Y11811D02*
D03*
X70669Y177165D02*
D03*
X73622Y159448D02*
D03*
X70669Y153543D02*
D03*
Y118110D02*
D03*
Y82677D02*
D03*
X73622Y17716D02*
D03*
X70669Y-23622D02*
D03*
X64763Y188976D02*
D03*
X67716Y183071D02*
D03*
X64763Y177165D02*
D03*
X67716Y159448D02*
D03*
Y147637D02*
D03*
Y135826D02*
D03*
Y124015D02*
D03*
X64763Y-11811D02*
D03*
X61811Y171259D02*
D03*
X58858Y165354D02*
D03*
X61811Y147637D02*
D03*
X58858Y141732D02*
D03*
X61811Y53149D02*
D03*
X55905Y147637D02*
D03*
X47047Y118110D02*
D03*
X50000Y76771D02*
D03*
X47047Y70866D02*
D03*
X50000Y17716D02*
D03*
X47047Y11811D02*
D03*
X50000Y5905D02*
D03*
X44094Y159448D02*
D03*
Y64960D02*
D03*
X41141Y11811D02*
D03*
X44094Y5905D02*
D03*
X38189Y159448D02*
D03*
X35236Y118110D02*
D03*
Y35433D02*
D03*
Y11811D02*
D03*
X38189Y5905D02*
D03*
X32283Y159448D02*
D03*
X29330Y129921D02*
D03*
X32283Y124015D02*
D03*
Y112204D02*
D03*
X29330Y35433D02*
D03*
X32283Y29527D02*
D03*
Y17716D02*
D03*
X29330Y11811D02*
D03*
X32283Y5905D02*
D03*
X26378Y159448D02*
D03*
X23425Y47244D02*
D03*
X26378Y41338D02*
D03*
X23425Y35433D02*
D03*
Y11811D02*
D03*
X26378Y5905D02*
D03*
X20472Y159448D02*
D03*
X17519Y82677D02*
D03*
Y47244D02*
D03*
X20472Y41338D02*
D03*
X17519Y35433D02*
D03*
Y11811D02*
D03*
X20472Y5905D02*
D03*
X14567Y159448D02*
D03*
X11614Y82677D02*
D03*
Y47244D02*
D03*
X14567Y41338D02*
D03*
X11614Y35433D02*
D03*
X14567Y29527D02*
D03*
X11614Y23622D02*
D03*
X14567Y17716D02*
D03*
X11614Y11811D02*
D03*
X14567Y5905D02*
D03*
X8661Y159448D02*
D03*
X5708Y153543D02*
D03*
Y141732D02*
D03*
Y129921D02*
D03*
Y118110D02*
D03*
Y47244D02*
D03*
X8661Y41338D02*
D03*
X5708Y35433D02*
D03*
X8661Y29527D02*
D03*
X5708Y23622D02*
D03*
X8661Y17716D02*
D03*
X5708Y11811D02*
D03*
X8661Y5905D02*
D03*
X66339Y152601D02*
D03*
X148819Y127601D02*
D03*
X109055Y165790D02*
D03*
X142126Y161024D02*
D03*
X119685Y165003D02*
D03*
X134292Y173101D02*
D03*
X136221Y154373D02*
D03*
X147638Y161853D02*
D03*
X169685Y157118D02*
D03*
X113779Y164961D02*
D03*
X148819Y185039D02*
D03*
X144095D02*
D03*
X139370D02*
D03*
X134252D02*
D03*
X143626Y-26453D02*
D03*
X127165Y101575D02*
D03*
X141339Y133465D02*
D03*
X84252Y124803D02*
D03*
X90158D02*
D03*
X94095D02*
D03*
X49213Y96850D02*
D03*
X99606Y63386D02*
D03*
X91732Y58268D02*
D03*
X87795D02*
D03*
X80709Y29528D02*
D03*
Y33465D02*
D03*
X61811Y57480D02*
D03*
X54331Y72835D02*
D03*
Y77559D02*
D03*
X53150Y89764D02*
D03*
X51181Y112992D02*
D03*
Y119291D02*
D03*
X31496Y102362D02*
D03*
X27953D02*
D03*
X24409D02*
D03*
X13386Y61811D02*
D03*
X10236Y102756D02*
D03*
Y106299D02*
D03*
Y109843D02*
D03*
Y95669D02*
D03*
Y92126D02*
D03*
Y88583D02*
D03*
X4331Y81102D02*
D03*
X3150Y57366D02*
D03*
Y53937D02*
D03*
X109449Y38976D02*
D03*
X69291Y43307D02*
D03*
X90551Y186221D02*
D03*
X142384Y128297D02*
D03*
X74016Y185827D02*
D03*
X142126Y122441D02*
D03*
X120472Y119291D02*
D03*
X137008Y110630D02*
D03*
X129921D02*
D03*
X184252Y64173D02*
D03*
X189370Y17365D02*
D03*
X217748Y50000D02*
D03*
X145669Y39764D02*
D03*
X138583Y86263D02*
D03*
X134646Y77995D02*
D03*
X194882Y76772D02*
D03*
X138583Y90987D02*
D03*
X193870Y105905D02*
D03*
X187721Y104783D02*
D03*
X180315Y118504D02*
D03*
X181496Y114526D02*
D03*
X184646Y124743D02*
D03*
X170213Y138054D02*
D03*
X190795Y126026D02*
D03*
X161447Y109335D02*
D03*
X146850Y120514D02*
D03*
X172441Y24772D02*
D03*
X147638Y9449D02*
D03*
X148031Y22483D02*
D03*
X162205Y118546D02*
D03*
X88976Y105905D02*
D03*
X178347Y74058D02*
D03*
X175570Y64592D02*
D03*
X179921Y64567D02*
D03*
X172566Y55118D02*
D03*
X172441Y50000D02*
D03*
X116535Y57087D02*
D03*
X133071Y52362D02*
D03*
Y58661D02*
D03*
X137402Y67716D02*
D03*
X152362Y61811D02*
D03*
X69685Y57480D02*
D03*
X138583Y16577D02*
D03*
X153543Y90593D02*
D03*
X172441Y90945D02*
D03*
X165748Y92955D02*
D03*
X176378Y92913D02*
D03*
X206693Y70514D02*
D03*
X77165Y6693D02*
D03*
X109055Y20079D02*
D03*
X121260Y77995D02*
D03*
X59449Y-394D02*
D03*
X64439Y-266D02*
D03*
X137402Y73270D02*
D03*
X74410Y122441D02*
D03*
X205512Y35475D02*
D03*
X206299Y130357D02*
D03*
X218898Y95318D02*
D03*
X207874Y82326D02*
D03*
X217717Y117759D02*
D03*
X158460Y-17515D02*
D03*
X130709Y-15312D02*
D03*
X138583Y9449D02*
D03*
X79289Y-5906D02*
D03*
X88976Y145318D02*
D03*
X122835Y142955D02*
D03*
X64173Y-21218D02*
D03*
X136614Y100787D02*
D03*
X125984Y163779D02*
D03*
X136614Y163808D02*
D03*
X153937Y161853D02*
D03*
X44957Y76453D02*
D03*
X29921Y69291D02*
D03*
X34252Y63779D02*
D03*
Y69291D02*
D03*
X38583Y63779D02*
D03*
Y69291D02*
D03*
X22047Y67323D02*
D03*
X109449Y134688D02*
D03*
X112205Y119291D02*
D03*
X3150Y114567D02*
D03*
X6693D02*
D03*
X22047Y71653D02*
D03*
X53937Y13780D02*
D03*
X59055D02*
D03*
X64173D02*
D03*
X69291D02*
D03*
X53937Y20866D02*
D03*
X59055D02*
D03*
X64173D02*
D03*
X69291D02*
D03*
X30315Y48819D02*
D03*
X29921Y63779D02*
D03*
X57874Y82677D02*
D03*
D98*
X151181Y152975D02*
D03*
X154243Y149913D02*
D03*
X157306Y146850D02*
D03*
X148119Y149913D02*
D03*
X151181Y146850D02*
D03*
X154243Y143788D02*
D03*
X145057Y146850D02*
D03*
X148119Y143788D02*
D03*
X151181Y140726D02*
D03*
M02*
