G04*
G04 #@! TF.GenerationSoftware,Altium Limited,Altium Designer,23.0.1 (38)*
G04*
G04 Layer_Color=16711935*
%FSLAX25Y25*%
%MOIN*%
G70*
G04*
G04 #@! TF.SameCoordinates,07299077-2F5B-483E-86E5-57BC813F48C1*
G04*
G04*
G04 #@! TF.FilePolarity,Negative*
G04*
G01*
G75*
%ADD50R,0.04737X0.04343*%
%ADD51R,0.04147X0.04540*%
%ADD57R,0.04343X0.04737*%
%ADD62R,0.04540X0.04147*%
%ADD72O,0.06706X0.06706*%
%ADD73O,0.06706X0.06706*%
%ADD74R,0.06824X0.06824*%
%ADD75C,0.06824*%
%ADD76C,0.12611*%
%ADD77C,0.20800*%
%ADD78R,0.07119X0.07119*%
%ADD79C,0.07119*%
%ADD80C,0.12808*%
%ADD81O,0.04343X0.07099*%
%ADD82C,0.02769*%
G04:AMPARAMS|DCode=102|XSize=86.79mil|YSize=23.94mil|CornerRadius=11.97mil|HoleSize=0mil|Usage=FLASHONLY|Rotation=180.000|XOffset=0mil|YOffset=0mil|HoleType=Round|Shape=RoundedRectangle|*
%AMROUNDEDRECTD102*
21,1,0.08679,0.00000,0,0,180.0*
21,1,0.06285,0.02394,0,0,180.0*
1,1,0.02394,-0.03143,0.00000*
1,1,0.02394,0.03143,0.00000*
1,1,0.02394,0.03143,0.00000*
1,1,0.02394,-0.03143,0.00000*
%
%ADD102ROUNDEDRECTD102*%
%ADD103R,0.08679X0.02394*%
%ADD108R,0.03937X0.02756*%
%ADD116O,0.02572X0.06312*%
%ADD117R,0.06706X0.09461*%
G04:AMPARAMS|DCode=118|XSize=29.65mil|YSize=57.21mil|CornerRadius=5.95mil|HoleSize=0mil|Usage=FLASHONLY|Rotation=90.000|XOffset=0mil|YOffset=0mil|HoleType=Round|Shape=RoundedRectangle|*
%AMROUNDEDRECTD118*
21,1,0.02965,0.04532,0,0,90.0*
21,1,0.01776,0.05721,0,0,90.0*
1,1,0.01190,0.02266,0.00888*
1,1,0.01190,0.02266,-0.00888*
1,1,0.01190,-0.02266,-0.00888*
1,1,0.01190,-0.02266,0.00888*
%
%ADD118ROUNDEDRECTD118*%
%ADD119R,0.08674X0.10249*%
%ADD120O,0.09855X0.03162*%
%ADD121R,0.07887X0.05918*%
%ADD122R,0.06706X0.14973*%
%ADD123R,0.11430X0.05918*%
%ADD124R,0.06312X0.05918*%
%ADD125R,0.05918X0.06312*%
%ADD126R,0.13005X0.10288*%
G04:AMPARAMS|DCode=127|XSize=85.56mil|YSize=31.62mil|CornerRadius=6.95mil|HoleSize=0mil|Usage=FLASHONLY|Rotation=90.000|XOffset=0mil|YOffset=0mil|HoleType=Round|Shape=RoundedRectangle|*
%AMROUNDEDRECTD127*
21,1,0.08556,0.01772,0,0,90.0*
21,1,0.07165,0.03162,0,0,90.0*
1,1,0.01391,0.00886,0.03583*
1,1,0.01391,0.00886,-0.03583*
1,1,0.01391,-0.00886,-0.03583*
1,1,0.01391,-0.00886,0.03583*
%
%ADD127ROUNDEDRECTD127*%
%ADD128R,0.05918X0.11430*%
%ADD129R,0.02375X0.03556*%
D50*
X213779Y99705D02*
D03*
Y105020D02*
D03*
X165748Y128150D02*
D03*
Y122835D02*
D03*
Y103347D02*
D03*
Y98032D02*
D03*
X172441Y40551D02*
D03*
Y45866D02*
D03*
Y34154D02*
D03*
Y28839D02*
D03*
X130709Y154724D02*
D03*
Y160039D02*
D03*
X119685Y154921D02*
D03*
Y160236D02*
D03*
X213779Y76083D02*
D03*
Y81398D02*
D03*
X173228Y103347D02*
D03*
Y98032D02*
D03*
X181496Y110138D02*
D03*
Y104823D02*
D03*
D51*
X134055Y139370D02*
D03*
X128937D02*
D03*
X196260Y35433D02*
D03*
X201378D02*
D03*
X206890Y75984D02*
D03*
X201772D02*
D03*
X206890Y105118D02*
D03*
X201772D02*
D03*
X196063Y130315D02*
D03*
X201181D02*
D03*
X105709Y119291D02*
D03*
X100591D02*
D03*
X43110Y94882D02*
D03*
X37992D02*
D03*
X112008Y47244D02*
D03*
X106890D02*
D03*
X63976Y77559D02*
D03*
X58858D02*
D03*
X75787D02*
D03*
X70669D02*
D03*
X9646Y75590D02*
D03*
X4528D02*
D03*
X4331Y61811D02*
D03*
X9449D02*
D03*
X41535Y87795D02*
D03*
X36417D02*
D03*
D57*
X131201Y105512D02*
D03*
X136516D02*
D03*
X131102Y77953D02*
D03*
X125787D02*
D03*
X61024Y93307D02*
D03*
X66339D02*
D03*
X36713Y44488D02*
D03*
X42028D02*
D03*
X9843Y68898D02*
D03*
X4528D02*
D03*
D62*
X53150Y126575D02*
D03*
Y131693D02*
D03*
X115354Y69095D02*
D03*
Y63976D02*
D03*
D72*
X193701Y69685D02*
D03*
X86614Y-5512D02*
D03*
X111811Y11811D02*
D03*
X129134Y394D02*
D03*
X140157D02*
D03*
X159055Y19291D02*
D03*
X170472Y14961D02*
D03*
X92520Y169685D02*
D03*
D73*
X214961Y67323D02*
D03*
X51968Y138583D02*
D03*
X92520Y-23228D02*
D03*
D74*
X181811Y146850D02*
D03*
Y30709D02*
D03*
X40630Y18898D02*
D03*
D75*
X181811Y135039D02*
D03*
Y18898D02*
D03*
X40630Y30709D02*
D03*
D76*
X198819Y140945D02*
D03*
Y24803D02*
D03*
X23622D02*
D03*
D77*
X111043Y180118D02*
D03*
Y-14764D02*
D03*
D78*
X40630Y111221D02*
D03*
D79*
Y123031D02*
D03*
Y134843D02*
D03*
Y146653D02*
D03*
D80*
X23622Y138189D02*
D03*
Y119685D02*
D03*
D81*
X128740Y179331D02*
D03*
X154724D02*
D03*
D82*
X151181Y152975D02*
D03*
X154243Y149913D02*
D03*
X157306Y146850D02*
D03*
X148119Y149913D02*
D03*
X151181Y146850D02*
D03*
X154243Y143788D02*
D03*
X145057Y146850D02*
D03*
X148119Y143788D02*
D03*
X151181Y140726D02*
D03*
D102*
X134052Y132697D02*
D03*
Y127697D02*
D03*
Y122697D02*
D03*
Y117697D02*
D03*
X154137Y117697D02*
D03*
Y122697D02*
D03*
Y127697D02*
D03*
D103*
X154137Y132697D02*
D03*
D108*
X52362Y101181D02*
D03*
X52362Y104921D02*
D03*
Y108661D02*
D03*
X61020D02*
D03*
Y104921D02*
D03*
X61020Y101181D02*
D03*
D116*
X158465Y82480D02*
D03*
X155905D02*
D03*
X153347D02*
D03*
X150787D02*
D03*
X148228D02*
D03*
X145669D02*
D03*
X143110D02*
D03*
X158465Y105709D02*
D03*
X155905Y105709D02*
D03*
X153347Y105709D02*
D03*
X150787Y105709D02*
D03*
X148228Y105709D02*
D03*
X145669Y105709D02*
D03*
X143110Y105709D02*
D03*
D117*
X76968Y47687D02*
D03*
X52165Y47589D02*
D03*
D118*
X181496Y83071D02*
D03*
Y88071D02*
D03*
Y93071D02*
D03*
Y98071D02*
D03*
X202165Y83071D02*
D03*
Y88071D02*
D03*
Y93071D02*
D03*
Y98071D02*
D03*
D119*
X185827Y40551D02*
D03*
Y56299D02*
D03*
D120*
X161417Y68976D02*
D03*
Y63976D02*
D03*
Y58976D02*
D03*
X161417Y53976D02*
D03*
X161417Y48976D02*
D03*
Y43976D02*
D03*
Y38976D02*
D03*
Y33976D02*
D03*
X161417Y28976D02*
D03*
X125591Y68976D02*
D03*
Y63976D02*
D03*
Y58976D02*
D03*
Y53976D02*
D03*
Y48976D02*
D03*
Y43976D02*
D03*
Y38976D02*
D03*
Y33976D02*
D03*
Y28976D02*
D03*
D121*
X92126Y119488D02*
D03*
Y130905D02*
D03*
X81890Y119488D02*
D03*
Y130905D02*
D03*
D122*
X81693Y105118D02*
D03*
X69685D02*
D03*
D123*
X27953Y96457D02*
D03*
Y107480D02*
D03*
X88583Y51968D02*
D03*
Y62992D02*
D03*
Y42126D02*
D03*
Y31102D02*
D03*
D124*
X99606Y42520D02*
D03*
Y36220D02*
D03*
Y51575D02*
D03*
Y57874D02*
D03*
D125*
X54528Y68110D02*
D03*
X65945D02*
D03*
D126*
X34252Y66535D02*
D03*
D127*
X41752Y76279D02*
D03*
X36752D02*
D03*
X31752D02*
D03*
X26752D02*
D03*
Y56791D02*
D03*
X31752D02*
D03*
X36752D02*
D03*
X41752D02*
D03*
D128*
X16535Y92126D02*
D03*
X5512D02*
D03*
X16535Y106299D02*
D03*
X5512D02*
D03*
D129*
X159449Y161024D02*
D03*
X162205D02*
D03*
X110827Y160630D02*
D03*
X113583D02*
D03*
X110827Y148425D02*
D03*
X113583D02*
D03*
M02*
