G04*
G04 #@! TF.GenerationSoftware,Altium Limited,Altium Designer,23.0.1 (38)*
G04*
G04 Layer_Color=8388736*
%FSLAX25Y25*%
%MOIN*%
G70*
G04*
G04 #@! TF.SameCoordinates,07299077-2F5B-483E-86E5-57BC813F48C1*
G04*
G04*
G04 #@! TF.FilePolarity,Negative*
G04*
G01*
G75*
%ADD29R,0.05512X0.08661*%
%ADD33R,0.04154X0.02057*%
G04:AMPARAMS|DCode=34|XSize=41.54mil|YSize=20.57mil|CornerRadius=10.29mil|HoleSize=0mil|Usage=FLASHONLY|Rotation=0.000|XOffset=0mil|YOffset=0mil|HoleType=Round|Shape=RoundedRectangle|*
%AMROUNDEDRECTD34*
21,1,0.04154,0.00000,0,0,0.0*
21,1,0.02098,0.02057,0,0,0.0*
1,1,0.02057,0.01049,0.00000*
1,1,0.02057,-0.01049,0.00000*
1,1,0.02057,-0.01049,0.00000*
1,1,0.02057,0.01049,0.00000*
%
%ADD34ROUNDEDRECTD34*%
%ADD48R,0.03950X0.03950*%
%ADD49R,0.03950X0.03950*%
%ADD50R,0.04737X0.04343*%
%ADD51R,0.04147X0.04540*%
%ADD52R,0.07099X0.11824*%
%ADD53R,0.04343X0.04343*%
%ADD54R,0.06706X0.04343*%
%ADD55R,0.04343X0.06706*%
%ADD56P,0.18559X4X360.0*%
%ADD57R,0.04343X0.04737*%
G04:AMPARAMS|DCode=58|XSize=15.87mil|YSize=41.47mil|CornerRadius=0mil|HoleSize=0mil|Usage=FLASHONLY|Rotation=45.000|XOffset=0mil|YOffset=0mil|HoleType=Round|Shape=Round|*
%AMOVALD58*
21,1,0.02559,0.01587,0.00000,0.00000,135.0*
1,1,0.01587,0.00905,-0.00905*
1,1,0.01587,-0.00905,0.00905*
%
%ADD58OVALD58*%

G04:AMPARAMS|DCode=59|XSize=15.87mil|YSize=41.47mil|CornerRadius=0mil|HoleSize=0mil|Usage=FLASHONLY|Rotation=315.000|XOffset=0mil|YOffset=0mil|HoleType=Round|Shape=Round|*
%AMOVALD59*
21,1,0.02559,0.01587,0.00000,0.00000,45.0*
1,1,0.01587,-0.00905,-0.00905*
1,1,0.01587,0.00905,0.00905*
%
%ADD59OVALD59*%

%ADD60R,0.11824X0.07099*%
%ADD61R,0.03261X0.04068*%
%ADD62R,0.04540X0.04147*%
%ADD63R,0.08280X0.07887*%
G04:AMPARAMS|DCode=64|XSize=70.99mil|YSize=63.12mil|CornerRadius=17.78mil|HoleSize=0mil|Usage=FLASHONLY|Rotation=180.000|XOffset=0mil|YOffset=0mil|HoleType=Round|Shape=RoundedRectangle|*
%AMROUNDEDRECTD64*
21,1,0.07099,0.02756,0,0,180.0*
21,1,0.03543,0.06312,0,0,180.0*
1,1,0.03556,-0.01772,0.01378*
1,1,0.03556,0.01772,0.01378*
1,1,0.03556,0.01772,-0.01378*
1,1,0.03556,-0.01772,-0.01378*
%
%ADD64ROUNDEDRECTD64*%
%ADD65O,0.02375X0.06115*%
%ADD66R,0.02965X0.08674*%
%ADD67R,0.03950X0.02769*%
G04:AMPARAMS|DCode=68|XSize=53.28mil|YSize=106.42mil|CornerRadius=0mil|HoleSize=0mil|Usage=FLASHONLY|Rotation=135.000|XOffset=0mil|YOffset=0mil|HoleType=Round|Shape=Rectangle|*
%AMROTATEDRECTD68*
4,1,4,0.05646,0.01879,-0.01879,-0.05646,-0.05646,-0.01879,0.01879,0.05646,0.05646,0.01879,0.0*
%
%ADD68ROTATEDRECTD68*%

%ADD69R,0.06312X0.02572*%
G04:AMPARAMS|DCode=70|XSize=31.62mil|YSize=47.37mil|CornerRadius=6.01mil|HoleSize=0mil|Usage=FLASHONLY|Rotation=0.000|XOffset=0mil|YOffset=0mil|HoleType=Round|Shape=RoundedRectangle|*
%AMROUNDEDRECTD70*
21,1,0.03162,0.03535,0,0,0.0*
21,1,0.01961,0.04737,0,0,0.0*
1,1,0.01202,0.00980,-0.01768*
1,1,0.01202,-0.00980,-0.01768*
1,1,0.01202,-0.00980,0.01768*
1,1,0.01202,0.00980,0.01768*
%
%ADD70ROUNDEDRECTD70*%
G04:AMPARAMS|DCode=71|XSize=61.15mil|YSize=31.62mil|CornerRadius=6.95mil|HoleSize=0mil|Usage=FLASHONLY|Rotation=90.000|XOffset=0mil|YOffset=0mil|HoleType=Round|Shape=RoundedRectangle|*
%AMROUNDEDRECTD71*
21,1,0.06115,0.01772,0,0,90.0*
21,1,0.04724,0.03162,0,0,90.0*
1,1,0.01391,0.00886,0.02362*
1,1,0.01391,0.00886,-0.02362*
1,1,0.01391,-0.00886,-0.02362*
1,1,0.01391,-0.00886,0.02362*
%
%ADD71ROUNDEDRECTD71*%
%ADD72O,0.06706X0.06706*%
%ADD73O,0.06706X0.06706*%
%ADD74R,0.06824X0.06824*%
%ADD75C,0.06824*%
%ADD76C,0.12611*%
%ADD77C,0.20800*%
%ADD78R,0.07119X0.07119*%
%ADD79C,0.07119*%
%ADD80C,0.12808*%
%ADD81O,0.04343X0.07099*%
%ADD82C,0.02769*%
G36*
X52855Y9833D02*
X52855Y9843D01*
X52857Y9854D01*
X52859Y9864D01*
X52861Y9874D01*
X52864Y9884D01*
X52867Y9893D01*
X52871Y9903D01*
X52876Y9912D01*
X52881Y9921D01*
X52886Y9930D01*
X52892Y9939D01*
X52898Y9947D01*
X52905Y9955D01*
X52912Y9962D01*
X52920Y9969D01*
X52927Y9976D01*
X52935Y9982D01*
X52944Y9988D01*
X52953Y9993D01*
X52962Y9998D01*
X52971Y10003D01*
X52981Y10007D01*
X52990Y10010D01*
X53000Y10013D01*
X53010Y10015D01*
X53020Y10017D01*
X53031Y10019D01*
X53041Y10019D01*
X53051Y10020D01*
X55571D01*
X55581Y10019D01*
X55591Y10019D01*
X55602Y10017D01*
X55612Y10015D01*
X55622Y10013D01*
X55632Y10010D01*
X55641Y10007D01*
X55651Y10003D01*
X55660Y9998D01*
X55669Y9993D01*
X55678Y9988D01*
X55687Y9982D01*
X55695Y9976D01*
X55703Y9969D01*
X55710Y9962D01*
X55717Y9955D01*
X55724Y9947D01*
X55730Y9939D01*
X55736Y9930D01*
X55741Y9921D01*
X55746Y9912D01*
X55751Y9903D01*
X55755Y9893D01*
X55758Y9884D01*
X55761Y9874D01*
X55763Y9864D01*
X55765Y9854D01*
X55767Y9843D01*
X55767Y9833D01*
X55768Y9823D01*
Y3563D01*
X55767Y3553D01*
X55767Y3542D01*
X55765Y3532D01*
X55763Y3522D01*
X55761Y3512D01*
X55758Y3502D01*
X55755Y3492D01*
X55751Y3483D01*
X55746Y3474D01*
X55741Y3465D01*
X55736Y3456D01*
X55730Y3447D01*
X55724Y3439D01*
X55717Y3431D01*
X55710Y3424D01*
X55703Y3417D01*
X55695Y3410D01*
X55687Y3404D01*
X55678Y3398D01*
X55669Y3393D01*
X55660Y3388D01*
X55651Y3383D01*
X55641Y3379D01*
X55632Y3376D01*
X55622Y3373D01*
X55612Y3370D01*
X55602Y3369D01*
X55591Y3367D01*
X55581Y3366D01*
X55571Y3366D01*
X53051Y3366D01*
X53041Y3366D01*
X53031Y3367D01*
X53020Y3369D01*
X53010Y3370D01*
X53000Y3373D01*
X52990Y3376D01*
X52981Y3379D01*
X52971Y3383D01*
X52962Y3388D01*
X52953Y3393D01*
X52944Y3398D01*
X52935Y3404D01*
X52927Y3410D01*
X52920Y3417D01*
X52912Y3424D01*
X52905Y3431D01*
X52898Y3439D01*
X52892Y3447D01*
X52886Y3456D01*
X52881Y3465D01*
X52876Y3474D01*
X52871Y3483D01*
X52867Y3492D01*
X52864Y3502D01*
X52861Y3512D01*
X52859Y3522D01*
X52857Y3532D01*
X52855Y3542D01*
X52855Y3553D01*
X52854Y3563D01*
X52854Y9823D01*
X52855Y9833D01*
D02*
G37*
G36*
X57855Y9833D02*
X57855Y9843D01*
X57857Y9854D01*
X57859Y9864D01*
X57861Y9874D01*
X57864Y9884D01*
X57867Y9893D01*
X57871Y9903D01*
X57876Y9912D01*
X57881Y9921D01*
X57886Y9930D01*
X57892Y9939D01*
X57898Y9947D01*
X57905Y9955D01*
X57912Y9962D01*
X57920Y9969D01*
X57927Y9976D01*
X57936Y9982D01*
X57944Y9988D01*
X57953Y9993D01*
X57962Y9998D01*
X57971Y10003D01*
X57981Y10007D01*
X57990Y10010D01*
X58000Y10013D01*
X58010Y10015D01*
X58020Y10017D01*
X58031Y10019D01*
X58041Y10019D01*
X58051Y10020D01*
X60571D01*
X60581Y10019D01*
X60591Y10019D01*
X60602Y10017D01*
X60612Y10015D01*
X60622Y10013D01*
X60632Y10010D01*
X60641Y10007D01*
X60651Y10003D01*
X60660Y9998D01*
X60669Y9993D01*
X60678Y9988D01*
X60687Y9982D01*
X60695Y9976D01*
X60703Y9969D01*
X60710Y9962D01*
X60717Y9955D01*
X60724Y9947D01*
X60730Y9939D01*
X60736Y9930D01*
X60741Y9921D01*
X60746Y9912D01*
X60751Y9903D01*
X60755Y9893D01*
X60758Y9884D01*
X60761Y9874D01*
X60763Y9864D01*
X60765Y9854D01*
X60767Y9843D01*
X60767Y9833D01*
X60768Y9823D01*
Y3563D01*
X60767Y3553D01*
X60767Y3542D01*
X60765Y3532D01*
X60763Y3522D01*
X60761Y3512D01*
X60758Y3502D01*
X60755Y3492D01*
X60751Y3483D01*
X60746Y3474D01*
X60741Y3465D01*
X60736Y3456D01*
X60730Y3447D01*
X60724Y3439D01*
X60717Y3431D01*
X60710Y3424D01*
X60703Y3417D01*
X60695Y3410D01*
X60687Y3404D01*
X60678Y3398D01*
X60669Y3393D01*
X60660Y3388D01*
X60651Y3383D01*
X60641Y3379D01*
X60632Y3376D01*
X60622Y3373D01*
X60612Y3370D01*
X60602Y3369D01*
X60591Y3367D01*
X60581Y3366D01*
X60571Y3366D01*
X58051Y3366D01*
X58041Y3366D01*
X58031Y3367D01*
X58020Y3369D01*
X58010Y3370D01*
X58000Y3373D01*
X57990Y3376D01*
X57981Y3379D01*
X57971Y3383D01*
X57962Y3388D01*
X57953Y3393D01*
X57944Y3398D01*
X57936Y3404D01*
X57927Y3410D01*
X57920Y3417D01*
X57912Y3424D01*
X57905Y3431D01*
X57898Y3439D01*
X57892Y3447D01*
X57886Y3456D01*
X57881Y3465D01*
X57876Y3474D01*
X57871Y3483D01*
X57867Y3492D01*
X57864Y3502D01*
X57861Y3512D01*
X57859Y3522D01*
X57857Y3532D01*
X57855Y3542D01*
X57855Y3553D01*
X57854Y3563D01*
Y9823D01*
X57855Y9833D01*
D02*
G37*
G36*
X62855D02*
X62855Y9843D01*
X62857Y9854D01*
X62859Y9864D01*
X62861Y9874D01*
X62864Y9884D01*
X62867Y9893D01*
X62871Y9903D01*
X62876Y9912D01*
X62881Y9921D01*
X62886Y9930D01*
X62892Y9939D01*
X62898Y9947D01*
X62905Y9955D01*
X62912Y9962D01*
X62919Y9969D01*
X62927Y9976D01*
X62936Y9982D01*
X62944Y9988D01*
X62953Y9993D01*
X62962Y9998D01*
X62971Y10003D01*
X62981Y10007D01*
X62990Y10010D01*
X63000Y10013D01*
X63010Y10015D01*
X63020Y10017D01*
X63031Y10019D01*
X63041Y10019D01*
X63051Y10020D01*
X65571Y10020D01*
X65581Y10019D01*
X65591Y10019D01*
X65602Y10017D01*
X65612Y10015D01*
X65622Y10013D01*
X65632Y10010D01*
X65641Y10007D01*
X65651Y10003D01*
X65660Y9998D01*
X65669Y9993D01*
X65678Y9988D01*
X65687Y9982D01*
X65695Y9976D01*
X65703Y9969D01*
X65710Y9962D01*
X65717Y9955D01*
X65724Y9947D01*
X65730Y9939D01*
X65736Y9930D01*
X65741Y9921D01*
X65746Y9912D01*
X65751Y9903D01*
X65755Y9893D01*
X65758Y9884D01*
X65761Y9874D01*
X65763Y9864D01*
X65765Y9854D01*
X65767Y9843D01*
X65767Y9833D01*
X65768Y9823D01*
X65768Y3563D01*
X65767Y3553D01*
X65767Y3542D01*
X65765Y3532D01*
X65763Y3522D01*
X65761Y3512D01*
X65758Y3502D01*
X65755Y3492D01*
X65751Y3483D01*
X65746Y3474D01*
X65741Y3465D01*
X65736Y3456D01*
X65730Y3447D01*
X65724Y3439D01*
X65717Y3431D01*
X65710Y3424D01*
X65703Y3417D01*
X65695Y3410D01*
X65687Y3404D01*
X65678Y3398D01*
X65669Y3393D01*
X65660Y3388D01*
X65651Y3383D01*
X65641Y3379D01*
X65632Y3376D01*
X65622Y3373D01*
X65612Y3370D01*
X65602Y3369D01*
X65591Y3367D01*
X65581Y3366D01*
X65571Y3366D01*
X63051Y3366D01*
X63041Y3366D01*
X63031Y3367D01*
X63020Y3369D01*
X63010Y3370D01*
X63000Y3373D01*
X62990Y3376D01*
X62981Y3379D01*
X62971Y3383D01*
X62962Y3388D01*
X62953Y3393D01*
X62944Y3398D01*
X62936Y3404D01*
X62927Y3410D01*
X62919Y3417D01*
X62912Y3424D01*
X62905Y3431D01*
X62898Y3439D01*
X62892Y3447D01*
X62886Y3456D01*
X62881Y3465D01*
X62876Y3474D01*
X62871Y3483D01*
X62867Y3492D01*
X62864Y3502D01*
X62861Y3512D01*
X62859Y3522D01*
X62857Y3532D01*
X62855Y3542D01*
X62855Y3553D01*
X62854Y3563D01*
Y9823D01*
X62855Y9833D01*
D02*
G37*
G36*
X67855Y9833D02*
X67855Y9843D01*
X67857Y9854D01*
X67859Y9864D01*
X67861Y9874D01*
X67864Y9884D01*
X67867Y9893D01*
X67871Y9903D01*
X67876Y9912D01*
X67881Y9921D01*
X67886Y9930D01*
X67892Y9939D01*
X67898Y9947D01*
X67905Y9955D01*
X67912Y9962D01*
X67919Y9969D01*
X67927Y9976D01*
X67936Y9982D01*
X67944Y9988D01*
X67953Y9993D01*
X67962Y9998D01*
X67971Y10003D01*
X67981Y10007D01*
X67990Y10010D01*
X68000Y10013D01*
X68010Y10015D01*
X68020Y10017D01*
X68031Y10019D01*
X68041Y10019D01*
X68051Y10020D01*
X70571D01*
X70581Y10019D01*
X70591Y10019D01*
X70602Y10017D01*
X70612Y10015D01*
X70622Y10013D01*
X70632Y10010D01*
X70641Y10007D01*
X70651Y10003D01*
X70660Y9998D01*
X70669Y9993D01*
X70678Y9988D01*
X70687Y9982D01*
X70695Y9976D01*
X70703Y9969D01*
X70710Y9962D01*
X70717Y9955D01*
X70724Y9947D01*
X70730Y9939D01*
X70736Y9930D01*
X70741Y9921D01*
X70746Y9912D01*
X70751Y9903D01*
X70755Y9893D01*
X70758Y9884D01*
X70761Y9874D01*
X70763Y9864D01*
X70765Y9854D01*
X70767Y9843D01*
X70767Y9833D01*
X70768Y9823D01*
X70768Y3563D01*
X70767Y3553D01*
X70767Y3542D01*
X70765Y3532D01*
X70763Y3522D01*
X70761Y3512D01*
X70758Y3502D01*
X70755Y3492D01*
X70751Y3483D01*
X70746Y3474D01*
X70741Y3465D01*
X70736Y3456D01*
X70730Y3447D01*
X70724Y3439D01*
X70717Y3431D01*
X70710Y3424D01*
X70703Y3417D01*
X70695Y3410D01*
X70687Y3404D01*
X70678Y3398D01*
X70669Y3393D01*
X70660Y3388D01*
X70651Y3383D01*
X70641Y3379D01*
X70632Y3376D01*
X70622Y3373D01*
X70612Y3370D01*
X70602Y3369D01*
X70591Y3367D01*
X70581Y3366D01*
X70571Y3366D01*
X68051D01*
X68041Y3366D01*
X68031Y3367D01*
X68020Y3369D01*
X68010Y3370D01*
X68000Y3373D01*
X67990Y3376D01*
X67981Y3379D01*
X67971Y3383D01*
X67962Y3388D01*
X67953Y3393D01*
X67944Y3398D01*
X67936Y3404D01*
X67927Y3410D01*
X67919Y3417D01*
X67912Y3424D01*
X67905Y3431D01*
X67898Y3439D01*
X67892Y3447D01*
X67886Y3456D01*
X67881Y3465D01*
X67876Y3474D01*
X67871Y3483D01*
X67867Y3492D01*
X67864Y3502D01*
X67861Y3512D01*
X67859Y3522D01*
X67857Y3532D01*
X67855Y3542D01*
X67855Y3553D01*
X67854Y3563D01*
Y9823D01*
X67855Y9833D01*
D02*
G37*
G36*
X70581Y31279D02*
X70591Y31278D01*
X70602Y31277D01*
X70612Y31275D01*
X70622Y31273D01*
X70632Y31270D01*
X70641Y31266D01*
X70651Y31262D01*
X70660Y31258D01*
X70669Y31253D01*
X70678Y31248D01*
X70687Y31242D01*
X70695Y31236D01*
X70703Y31229D01*
X70710Y31222D01*
X70717Y31214D01*
X70724Y31207D01*
X70730Y31198D01*
X70736Y31190D01*
X70741Y31181D01*
X70746Y31172D01*
X70751Y31163D01*
X70755Y31153D01*
X70758Y31144D01*
X70761Y31134D01*
X70763Y31124D01*
X70765Y31113D01*
X70767Y31103D01*
X70767Y31093D01*
X70768Y31083D01*
X70768Y24823D01*
X70767Y24813D01*
X70767Y24802D01*
X70765Y24792D01*
X70763Y24782D01*
X70761Y24772D01*
X70758Y24762D01*
X70755Y24752D01*
X70751Y24743D01*
X70746Y24734D01*
X70741Y24724D01*
X70736Y24716D01*
X70730Y24707D01*
X70724Y24699D01*
X70717Y24691D01*
X70710Y24684D01*
X70703Y24677D01*
X70695Y24670D01*
X70687Y24664D01*
X70678Y24658D01*
X70669Y24652D01*
X70660Y24647D01*
X70651Y24643D01*
X70641Y24639D01*
X70632Y24636D01*
X70622Y24633D01*
X70612Y24630D01*
X70602Y24628D01*
X70591Y24627D01*
X70581Y24626D01*
X70571Y24626D01*
X68051D01*
X68041Y24626D01*
X68031Y24627D01*
X68020Y24628D01*
X68010Y24630D01*
X68000Y24633D01*
X67990Y24636D01*
X67981Y24639D01*
X67971Y24643D01*
X67962Y24647D01*
X67953Y24652D01*
X67944Y24658D01*
X67936Y24664D01*
X67927Y24670D01*
X67919Y24677D01*
X67912Y24684D01*
X67905Y24691D01*
X67898Y24699D01*
X67892Y24707D01*
X67886Y24716D01*
X67881Y24724D01*
X67876Y24734D01*
X67871Y24743D01*
X67867Y24752D01*
X67864Y24762D01*
X67861Y24772D01*
X67859Y24782D01*
X67857Y24792D01*
X67855Y24802D01*
X67855Y24813D01*
X67854Y24823D01*
Y31083D01*
X67855Y31093D01*
X67855Y31103D01*
X67857Y31113D01*
X67859Y31124D01*
X67861Y31134D01*
X67864Y31144D01*
X67867Y31153D01*
X67871Y31163D01*
X67876Y31172D01*
X67881Y31181D01*
X67886Y31190D01*
X67892Y31198D01*
X67898Y31207D01*
X67905Y31214D01*
X67912Y31222D01*
X67919Y31229D01*
X67927Y31236D01*
X67936Y31242D01*
X67944Y31248D01*
X67953Y31253D01*
X67962Y31258D01*
X67971Y31262D01*
X67981Y31266D01*
X67990Y31270D01*
X68000Y31273D01*
X68010Y31275D01*
X68020Y31277D01*
X68031Y31278D01*
X68041Y31279D01*
X68051Y31280D01*
X70571D01*
X70581Y31279D01*
D02*
G37*
G36*
X65581Y31279D02*
X65591Y31278D01*
X65602Y31277D01*
X65612Y31275D01*
X65622Y31273D01*
X65632Y31270D01*
X65641Y31266D01*
X65651Y31262D01*
X65660Y31258D01*
X65669Y31253D01*
X65678Y31248D01*
X65687Y31242D01*
X65695Y31236D01*
X65703Y31229D01*
X65710Y31222D01*
X65717Y31214D01*
X65724Y31207D01*
X65730Y31198D01*
X65736Y31190D01*
X65741Y31181D01*
X65746Y31172D01*
X65751Y31163D01*
X65755Y31153D01*
X65758Y31144D01*
X65761Y31134D01*
X65763Y31124D01*
X65765Y31113D01*
X65767Y31103D01*
X65767Y31093D01*
X65768Y31083D01*
X65768Y24823D01*
X65767Y24813D01*
X65767Y24802D01*
X65765Y24792D01*
X65763Y24782D01*
X65761Y24772D01*
X65758Y24762D01*
X65755Y24752D01*
X65751Y24743D01*
X65746Y24734D01*
X65741Y24724D01*
X65736Y24716D01*
X65730Y24707D01*
X65724Y24699D01*
X65717Y24691D01*
X65710Y24684D01*
X65703Y24677D01*
X65695Y24670D01*
X65687Y24664D01*
X65678Y24658D01*
X65669Y24652D01*
X65660Y24647D01*
X65651Y24643D01*
X65641Y24639D01*
X65632Y24636D01*
X65622Y24633D01*
X65612Y24630D01*
X65602Y24628D01*
X65591Y24627D01*
X65581Y24626D01*
X65571Y24626D01*
X63051D01*
X63041Y24626D01*
X63031Y24627D01*
X63020Y24628D01*
X63010Y24630D01*
X63000Y24633D01*
X62990Y24636D01*
X62981Y24639D01*
X62971Y24643D01*
X62962Y24647D01*
X62953Y24652D01*
X62944Y24658D01*
X62936Y24664D01*
X62927Y24670D01*
X62919Y24677D01*
X62912Y24684D01*
X62905Y24691D01*
X62898Y24699D01*
X62892Y24707D01*
X62886Y24716D01*
X62881Y24724D01*
X62876Y24734D01*
X62871Y24743D01*
X62867Y24752D01*
X62864Y24762D01*
X62861Y24772D01*
X62859Y24782D01*
X62857Y24792D01*
X62855Y24802D01*
X62855Y24813D01*
X62854Y24823D01*
Y31083D01*
X62855Y31093D01*
X62855Y31103D01*
X62857Y31113D01*
X62859Y31124D01*
X62861Y31134D01*
X62864Y31144D01*
X62867Y31153D01*
X62871Y31163D01*
X62876Y31172D01*
X62881Y31181D01*
X62886Y31190D01*
X62892Y31198D01*
X62898Y31207D01*
X62905Y31214D01*
X62912Y31222D01*
X62919Y31229D01*
X62927Y31236D01*
X62936Y31242D01*
X62944Y31248D01*
X62953Y31253D01*
X62962Y31258D01*
X62971Y31262D01*
X62981Y31266D01*
X62990Y31270D01*
X63000Y31273D01*
X63010Y31275D01*
X63020Y31277D01*
X63031Y31278D01*
X63041Y31279D01*
X63051Y31280D01*
X65571Y31280D01*
X65581Y31279D01*
D02*
G37*
G36*
X60581Y31279D02*
X60591Y31278D01*
X60602Y31277D01*
X60612Y31275D01*
X60622Y31273D01*
X60632Y31270D01*
X60641Y31266D01*
X60651Y31262D01*
X60660Y31258D01*
X60669Y31253D01*
X60678Y31248D01*
X60687Y31242D01*
X60695Y31236D01*
X60703Y31229D01*
X60710Y31222D01*
X60717Y31214D01*
X60724Y31207D01*
X60730Y31198D01*
X60736Y31190D01*
X60741Y31181D01*
X60746Y31172D01*
X60751Y31163D01*
X60755Y31153D01*
X60758Y31144D01*
X60761Y31134D01*
X60763Y31124D01*
X60765Y31113D01*
X60767Y31103D01*
X60767Y31093D01*
X60768Y31083D01*
X60768Y24823D01*
X60767Y24813D01*
X60767Y24802D01*
X60765Y24792D01*
X60763Y24782D01*
X60761Y24772D01*
X60758Y24762D01*
X60755Y24752D01*
X60751Y24743D01*
X60746Y24734D01*
X60741Y24724D01*
X60736Y24716D01*
X60730Y24707D01*
X60724Y24699D01*
X60717Y24691D01*
X60710Y24684D01*
X60703Y24677D01*
X60695Y24670D01*
X60687Y24664D01*
X60678Y24658D01*
X60669Y24652D01*
X60660Y24647D01*
X60651Y24643D01*
X60641Y24639D01*
X60632Y24636D01*
X60622Y24633D01*
X60612Y24630D01*
X60602Y24628D01*
X60591Y24627D01*
X60581Y24626D01*
X60571Y24626D01*
X58051D01*
X58041Y24626D01*
X58031Y24627D01*
X58020Y24628D01*
X58010Y24630D01*
X58000Y24633D01*
X57990Y24636D01*
X57981Y24639D01*
X57971Y24643D01*
X57962Y24647D01*
X57953Y24652D01*
X57944Y24658D01*
X57936Y24664D01*
X57927Y24670D01*
X57920Y24677D01*
X57912Y24684D01*
X57905Y24691D01*
X57898Y24699D01*
X57892Y24707D01*
X57886Y24716D01*
X57881Y24724D01*
X57876Y24734D01*
X57871Y24743D01*
X57867Y24752D01*
X57864Y24762D01*
X57861Y24772D01*
X57859Y24782D01*
X57857Y24792D01*
X57855Y24802D01*
X57855Y24813D01*
X57854Y24823D01*
X57854Y31083D01*
X57855Y31093D01*
X57855Y31103D01*
X57857Y31113D01*
X57859Y31124D01*
X57861Y31134D01*
X57864Y31144D01*
X57867Y31153D01*
X57871Y31163D01*
X57876Y31172D01*
X57881Y31181D01*
X57886Y31190D01*
X57892Y31198D01*
X57898Y31207D01*
X57905Y31214D01*
X57912Y31222D01*
X57920Y31229D01*
X57927Y31236D01*
X57936Y31242D01*
X57944Y31248D01*
X57953Y31253D01*
X57962Y31258D01*
X57971Y31262D01*
X57981Y31266D01*
X57990Y31270D01*
X58000Y31273D01*
X58010Y31275D01*
X58020Y31277D01*
X58031Y31278D01*
X58041Y31279D01*
X58051Y31280D01*
X60571D01*
X60581Y31279D01*
D02*
G37*
G36*
X55581Y31279D02*
X55591Y31278D01*
X55602Y31277D01*
X55612Y31275D01*
X55622Y31273D01*
X55632Y31270D01*
X55641Y31266D01*
X55651Y31262D01*
X55660Y31258D01*
X55669Y31253D01*
X55678Y31248D01*
X55687Y31242D01*
X55695Y31236D01*
X55703Y31229D01*
X55710Y31222D01*
X55717Y31214D01*
X55724Y31207D01*
X55730Y31198D01*
X55736Y31190D01*
X55741Y31181D01*
X55746Y31172D01*
X55751Y31163D01*
X55755Y31153D01*
X55758Y31144D01*
X55761Y31134D01*
X55763Y31124D01*
X55765Y31113D01*
X55767Y31103D01*
X55767Y31093D01*
X55768Y31083D01*
X55768Y24823D01*
X55767Y24813D01*
X55767Y24802D01*
X55765Y24792D01*
X55763Y24782D01*
X55761Y24772D01*
X55758Y24762D01*
X55755Y24752D01*
X55751Y24743D01*
X55746Y24734D01*
X55741Y24724D01*
X55736Y24716D01*
X55730Y24707D01*
X55724Y24699D01*
X55717Y24691D01*
X55710Y24684D01*
X55703Y24677D01*
X55695Y24670D01*
X55687Y24664D01*
X55678Y24658D01*
X55669Y24652D01*
X55660Y24647D01*
X55651Y24643D01*
X55641Y24639D01*
X55632Y24636D01*
X55622Y24633D01*
X55612Y24630D01*
X55602Y24628D01*
X55591Y24627D01*
X55581Y24626D01*
X55571Y24626D01*
X53051D01*
X53041Y24626D01*
X53031Y24627D01*
X53020Y24628D01*
X53010Y24630D01*
X53000Y24633D01*
X52990Y24636D01*
X52981Y24639D01*
X52971Y24643D01*
X52962Y24647D01*
X52953Y24652D01*
X52944Y24658D01*
X52935Y24664D01*
X52927Y24670D01*
X52919Y24677D01*
X52912Y24684D01*
X52905Y24691D01*
X52898Y24699D01*
X52892Y24707D01*
X52886Y24716D01*
X52881Y24724D01*
X52876Y24734D01*
X52871Y24743D01*
X52867Y24752D01*
X52864Y24762D01*
X52861Y24772D01*
X52859Y24782D01*
X52857Y24792D01*
X52855Y24802D01*
X52855Y24813D01*
X52854Y24823D01*
Y31083D01*
X52855Y31093D01*
X52855Y31103D01*
X52857Y31113D01*
X52859Y31124D01*
X52861Y31134D01*
X52864Y31144D01*
X52867Y31153D01*
X52871Y31163D01*
X52876Y31172D01*
X52881Y31181D01*
X52886Y31190D01*
X52892Y31198D01*
X52898Y31207D01*
X52905Y31214D01*
X52912Y31222D01*
X52919Y31229D01*
X52927Y31236D01*
X52935Y31242D01*
X52944Y31248D01*
X52953Y31253D01*
X52962Y31258D01*
X52971Y31262D01*
X52981Y31266D01*
X52990Y31270D01*
X53000Y31273D01*
X53010Y31275D01*
X53020Y31277D01*
X53031Y31278D01*
X53041Y31279D01*
X53051Y31280D01*
X55571D01*
X55581Y31279D01*
D02*
G37*
G36*
X68504Y11988D02*
X55118Y11988D01*
Y22658D01*
X68504D01*
X68504Y11988D01*
D02*
G37*
D29*
X74016Y185827D02*
D03*
X178740Y100787D02*
D03*
X90551Y186221D02*
D03*
X167323Y100787D02*
D03*
D33*
X181496Y86614D02*
D03*
X163779Y79134D02*
D03*
D34*
X181496D02*
D03*
X188390Y82874D02*
D03*
X163779Y86614D02*
D03*
X156886Y82874D02*
D03*
D48*
X215551Y112205D02*
D03*
X209646D02*
D03*
X209449Y100394D02*
D03*
X215354D02*
D03*
X173622Y113779D02*
D03*
X167717D02*
D03*
X167618Y125591D02*
D03*
X173524D02*
D03*
X215158Y88976D02*
D03*
X209252D02*
D03*
D49*
X61417Y152756D02*
D03*
Y158661D02*
D03*
X70866Y-13583D02*
D03*
Y-19488D02*
D03*
X205512Y52953D02*
D03*
Y58858D02*
D03*
D50*
X165354Y41634D02*
D03*
Y36319D02*
D03*
X130709Y151181D02*
D03*
Y145866D02*
D03*
X142126Y30906D02*
D03*
Y25591D02*
D03*
X81496Y11811D02*
D03*
Y6496D02*
D03*
D51*
X117717Y147244D02*
D03*
X122835D02*
D03*
X197047Y100394D02*
D03*
X202165D02*
D03*
X170079Y86221D02*
D03*
X175197D02*
D03*
Y79528D02*
D03*
X170079D02*
D03*
X202362Y112205D02*
D03*
X197244D02*
D03*
X202362Y88976D02*
D03*
X197244D02*
D03*
X165945Y64567D02*
D03*
X171063D02*
D03*
X161024Y125591D02*
D03*
X155905D02*
D03*
X155709Y113779D02*
D03*
X160827D02*
D03*
X67520Y130709D02*
D03*
X62402D02*
D03*
X153740Y-9449D02*
D03*
X148622D02*
D03*
X133661Y16535D02*
D03*
X128543D02*
D03*
X125197Y125984D02*
D03*
X120079D02*
D03*
X111024Y147244D02*
D03*
X105905D02*
D03*
X74606Y-5906D02*
D03*
X69488D02*
D03*
D52*
X56693Y45079D02*
D03*
Y62008D02*
D03*
D53*
X110650Y81378D02*
D03*
X105138D02*
D03*
X99626D02*
D03*
X110650Y86890D02*
D03*
X105138D02*
D03*
X99626D02*
D03*
X110650Y92402D02*
D03*
X105138D02*
D03*
X99626D02*
D03*
D54*
X145492Y115787D02*
D03*
Y110787D02*
D03*
Y105787D02*
D03*
Y100787D02*
D03*
Y95787D02*
D03*
Y90787D02*
D03*
Y85787D02*
D03*
Y80787D02*
D03*
Y75787D02*
D03*
Y70787D02*
D03*
Y65787D02*
D03*
Y60787D02*
D03*
Y55787D02*
D03*
Y50787D02*
D03*
X76595D02*
D03*
Y55787D02*
D03*
Y60787D02*
D03*
Y65787D02*
D03*
Y70787D02*
D03*
Y75787D02*
D03*
Y80787D02*
D03*
Y85787D02*
D03*
Y90787D02*
D03*
Y95787D02*
D03*
Y100787D02*
D03*
Y105787D02*
D03*
Y110787D02*
D03*
Y115787D02*
D03*
D55*
X133563Y45866D02*
D03*
X128563D02*
D03*
X123563D02*
D03*
X118563D02*
D03*
X113563D02*
D03*
X108563D02*
D03*
X103563D02*
D03*
X98563D02*
D03*
X93563D02*
D03*
X88563D02*
D03*
D56*
X151181Y146850D02*
D03*
D57*
X130610Y158661D02*
D03*
X125295D02*
D03*
X99016Y145276D02*
D03*
X93701D02*
D03*
X54921Y97638D02*
D03*
X60236D02*
D03*
X56102Y119291D02*
D03*
X61417D02*
D03*
X56004Y111811D02*
D03*
X61319D02*
D03*
X84646Y145276D02*
D03*
X79331D02*
D03*
X148819Y-21260D02*
D03*
X154134D02*
D03*
X128543Y9449D02*
D03*
X133858D02*
D03*
X152461D02*
D03*
X157776D02*
D03*
X137303Y125984D02*
D03*
X131988D02*
D03*
D58*
X148606Y157777D02*
D03*
X147214Y156385D02*
D03*
X145822Y154993D02*
D03*
X144430Y153601D02*
D03*
X143038Y152209D02*
D03*
X141646Y150817D02*
D03*
X140254Y149425D02*
D03*
X153756Y135924D02*
D03*
X155148Y137316D02*
D03*
X156540Y138707D02*
D03*
X157932Y140100D02*
D03*
X159324Y141491D02*
D03*
X160716Y142883D02*
D03*
X162108Y144275D02*
D03*
D59*
X140254D02*
D03*
X141646Y142883D02*
D03*
X143038Y141491D02*
D03*
X144430Y140100D02*
D03*
X145822Y138707D02*
D03*
X147214Y137316D02*
D03*
X148606Y135924D02*
D03*
X162108Y149425D02*
D03*
X160716Y150817D02*
D03*
X159324Y152209D02*
D03*
X157932Y153601D02*
D03*
X156540Y154993D02*
D03*
X155148Y156385D02*
D03*
X153756Y157777D02*
D03*
D60*
X26969Y56299D02*
D03*
X10039D02*
D03*
D61*
X96801Y160236D02*
D03*
X105561D02*
D03*
D62*
X53937Y158071D02*
D03*
Y152953D02*
D03*
X77953Y-13976D02*
D03*
Y-19094D02*
D03*
X212598Y53150D02*
D03*
Y58268D02*
D03*
D63*
X137008Y179331D02*
D03*
X146457D02*
D03*
D64*
X129134Y169685D02*
D03*
X154331D02*
D03*
D65*
X141732Y168799D02*
D03*
X144291D02*
D03*
X146850D02*
D03*
X136614D02*
D03*
X139173D02*
D03*
D66*
X166043Y50787D02*
D03*
X178839D02*
D03*
X75886Y132283D02*
D03*
X88681D02*
D03*
D67*
X61024Y104724D02*
D03*
X53937D02*
D03*
D68*
X90891Y22101D02*
D03*
X99660Y13332D02*
D03*
D69*
X109252Y31004D02*
D03*
Y28445D02*
D03*
Y25886D02*
D03*
Y23327D02*
D03*
X132480Y31004D02*
D03*
Y28445D02*
D03*
Y25886D02*
D03*
Y23327D02*
D03*
D70*
X136024Y-21063D02*
D03*
X128543D02*
D03*
X128543Y-10236D02*
D03*
X132283D02*
D03*
X136024D02*
D03*
D71*
X105709Y130315D02*
D03*
X113189D02*
D03*
X109449D02*
D03*
X105709Y139646D02*
D03*
X113189D02*
D03*
D72*
X193701Y69685D02*
D03*
X86614Y-5512D02*
D03*
X111811Y11811D02*
D03*
X129134Y394D02*
D03*
X140157D02*
D03*
X159055Y19291D02*
D03*
X170472Y14961D02*
D03*
X92520Y169685D02*
D03*
D73*
X214961Y67323D02*
D03*
X51968Y138583D02*
D03*
X92520Y-23228D02*
D03*
D74*
X181811Y146850D02*
D03*
Y30709D02*
D03*
X40630Y18898D02*
D03*
D75*
X181811Y135039D02*
D03*
Y18898D02*
D03*
X40630Y30709D02*
D03*
D76*
X198819Y140945D02*
D03*
Y24803D02*
D03*
X23622D02*
D03*
D77*
X111043Y180118D02*
D03*
Y-14764D02*
D03*
D78*
X40630Y111221D02*
D03*
D79*
Y123031D02*
D03*
Y134843D02*
D03*
Y146653D02*
D03*
D80*
X23622Y138189D02*
D03*
Y119685D02*
D03*
D81*
X128740Y179331D02*
D03*
X154724D02*
D03*
D82*
X151181Y152975D02*
D03*
X154243Y149913D02*
D03*
X157306Y146850D02*
D03*
X148119Y149913D02*
D03*
X151181Y146850D02*
D03*
X154243Y143788D02*
D03*
X145057Y146850D02*
D03*
X148119Y143788D02*
D03*
X151181Y140726D02*
D03*
M02*
