G04*
G04 #@! TF.GenerationSoftware,Altium Limited,Altium Designer,23.0.1 (38)*
G04*
G04 Layer_Physical_Order=1*
G04 Layer_Color=255*
%FSLAX25Y25*%
%MOIN*%
G70*
G04*
G04 #@! TF.SameCoordinates,07299077-2F5B-483E-86E5-57BC813F48C1*
G04*
G04*
G04 #@! TF.FilePolarity,Positive*
G04*
G01*
G75*
%ADD11C,0.01000*%
%ADD20R,0.03150X0.03150*%
%ADD21R,0.03150X0.03150*%
%ADD22R,0.03937X0.03543*%
%ADD23R,0.03347X0.03740*%
%ADD24R,0.06299X0.11024*%
%ADD25R,0.03543X0.03543*%
%ADD26R,0.05906X0.03543*%
%ADD27R,0.03543X0.05906*%
%ADD28P,0.17427X4X360.0*%
%ADD29R,0.05512X0.08661*%
%ADD30R,0.03543X0.03937*%
G04:AMPARAMS|DCode=31|XSize=7.87mil|YSize=33.47mil|CornerRadius=0mil|HoleSize=0mil|Usage=FLASHONLY|Rotation=45.000|XOffset=0mil|YOffset=0mil|HoleType=Round|Shape=Round|*
%AMOVALD31*
21,1,0.02559,0.00787,0.00000,0.00000,135.0*
1,1,0.00787,0.00905,-0.00905*
1,1,0.00787,-0.00905,0.00905*
%
%ADD31OVALD31*%

G04:AMPARAMS|DCode=32|XSize=7.87mil|YSize=33.47mil|CornerRadius=0mil|HoleSize=0mil|Usage=FLASHONLY|Rotation=315.000|XOffset=0mil|YOffset=0mil|HoleType=Round|Shape=Round|*
%AMOVALD32*
21,1,0.02559,0.00787,0.00000,0.00000,45.0*
1,1,0.00787,-0.00905,-0.00905*
1,1,0.00787,0.00905,0.00905*
%
%ADD32OVALD32*%

%ADD33R,0.04154X0.02057*%
G04:AMPARAMS|DCode=34|XSize=41.54mil|YSize=20.57mil|CornerRadius=10.29mil|HoleSize=0mil|Usage=FLASHONLY|Rotation=0.000|XOffset=0mil|YOffset=0mil|HoleType=Round|Shape=RoundedRectangle|*
%AMROUNDEDRECTD34*
21,1,0.04154,0.00000,0,0,0.0*
21,1,0.02098,0.02057,0,0,0.0*
1,1,0.02057,0.01049,0.00000*
1,1,0.02057,-0.01049,0.00000*
1,1,0.02057,-0.01049,0.00000*
1,1,0.02057,0.01049,0.00000*
%
%ADD34ROUNDEDRECTD34*%
%ADD35R,0.11024X0.06299*%
%ADD36R,0.02461X0.03268*%
%ADD37R,0.03740X0.03347*%
%ADD38R,0.07480X0.07087*%
G04:AMPARAMS|DCode=39|XSize=62.99mil|YSize=55.12mil|CornerRadius=13.78mil|HoleSize=0mil|Usage=FLASHONLY|Rotation=180.000|XOffset=0mil|YOffset=0mil|HoleType=Round|Shape=RoundedRectangle|*
%AMROUNDEDRECTD39*
21,1,0.06299,0.02756,0,0,180.0*
21,1,0.03543,0.05512,0,0,180.0*
1,1,0.02756,-0.01772,0.01378*
1,1,0.02756,0.01772,0.01378*
1,1,0.02756,0.01772,-0.01378*
1,1,0.02756,-0.01772,-0.01378*
%
%ADD39ROUNDEDRECTD39*%
%ADD40O,0.01575X0.05315*%
%ADD41R,0.02165X0.07874*%
%ADD42R,0.03150X0.01968*%
G04:AMPARAMS|DCode=43|XSize=45.28mil|YSize=98.43mil|CornerRadius=0mil|HoleSize=0mil|Usage=FLASHONLY|Rotation=135.000|XOffset=0mil|YOffset=0mil|HoleType=Round|Shape=Rectangle|*
%AMROTATEDRECTD43*
4,1,4,0.05081,0.01879,-0.01879,-0.05081,-0.05081,-0.01879,0.01879,0.05081,0.05081,0.01879,0.0*
%
%ADD43ROTATEDRECTD43*%

%ADD44R,0.05512X0.01772*%
G04:AMPARAMS|DCode=45|XSize=23.62mil|YSize=39.37mil|CornerRadius=2.01mil|HoleSize=0mil|Usage=FLASHONLY|Rotation=0.000|XOffset=0mil|YOffset=0mil|HoleType=Round|Shape=RoundedRectangle|*
%AMROUNDEDRECTD45*
21,1,0.02362,0.03535,0,0,0.0*
21,1,0.01961,0.03937,0,0,0.0*
1,1,0.00402,0.00980,-0.01768*
1,1,0.00402,-0.00980,-0.01768*
1,1,0.00402,-0.00980,0.01768*
1,1,0.00402,0.00980,0.01768*
%
%ADD45ROUNDEDRECTD45*%
G04:AMPARAMS|DCode=46|XSize=53.15mil|YSize=23.62mil|CornerRadius=2.95mil|HoleSize=0mil|Usage=FLASHONLY|Rotation=90.000|XOffset=0mil|YOffset=0mil|HoleType=Round|Shape=RoundedRectangle|*
%AMROUNDEDRECTD46*
21,1,0.05315,0.01772,0,0,90.0*
21,1,0.04724,0.02362,0,0,90.0*
1,1,0.00591,0.00886,0.02362*
1,1,0.00591,0.00886,-0.02362*
1,1,0.00591,-0.00886,-0.02362*
1,1,0.00591,-0.00886,0.02362*
%
%ADD46ROUNDEDRECTD46*%
G04:AMPARAMS|DCode=47|XSize=61.02mil|YSize=23.62mil|CornerRadius=0.59mil|HoleSize=0mil|Usage=FLASHONLY|Rotation=90.000|XOffset=0mil|YOffset=0mil|HoleType=Round|Shape=RoundedRectangle|*
%AMROUNDEDRECTD47*
21,1,0.06102,0.02244,0,0,90.0*
21,1,0.05984,0.02362,0,0,90.0*
1,1,0.00118,0.01122,0.02992*
1,1,0.00118,0.01122,-0.02992*
1,1,0.00118,-0.01122,-0.02992*
1,1,0.00118,-0.01122,0.02992*
%
%ADD47ROUNDEDRECTD47*%
%ADD83R,0.19291X0.11614*%
%ADD84C,0.00799*%
%ADD85C,0.02000*%
%ADD86O,0.03150X0.03150*%
%ADD87O,0.05906X0.05906*%
%ADD88O,0.05906X0.05906*%
%ADD89R,0.06024X0.06024*%
%ADD90C,0.06024*%
%ADD91C,0.11811*%
%ADD92C,0.20000*%
%ADD93R,0.06319X0.06319*%
%ADD94C,0.06319*%
%ADD95C,0.12008*%
%ADD96O,0.03543X0.06299*%
%ADD97C,0.03150*%
%ADD98C,0.01968*%
G36*
X93307Y159843D02*
X93701Y159449D01*
Y161236D01*
X94058Y161242D01*
X94661Y161292D01*
X94905Y161336D01*
X95112Y161392D01*
X95282Y161460D01*
X95414Y161541D01*
X95508Y161634D01*
X95564Y161740D01*
X95583Y161858D01*
Y158614D01*
X95564Y158732D01*
X95508Y158838D01*
X95414Y158932D01*
X95282Y159012D01*
X95112Y159081D01*
X94905Y159137D01*
X94661Y159180D01*
X94378Y159211D01*
X93922Y159228D01*
X94014Y159135D01*
X90893Y158843D01*
X91162Y159131D01*
X91402Y159432D01*
X91614Y159744D01*
X91798Y160068D01*
X91953Y160403D01*
X92081Y160750D01*
X92180Y161109D01*
X92251Y161480D01*
X92293Y161863D01*
X92307Y162257D01*
X93307Y159843D01*
D02*
G37*
G36*
X155347Y161119D02*
X155111Y160287D01*
X155085Y160150D01*
X155056Y159905D01*
X155052Y159796D01*
X155050Y159795D01*
X155020Y158831D01*
X153862Y158416D01*
X153936Y158454D01*
X154003Y158509D01*
X154061Y158584D01*
X154112Y158677D01*
X154155Y158788D01*
X154190Y158918D01*
X154218Y159067D01*
X154237Y159234D01*
X154249Y159419D01*
X154249Y159432D01*
X154245Y159508D01*
X154221Y159641D01*
X154182Y159764D01*
X154127Y159877D01*
X154056Y159981D01*
X153970Y160074D01*
X153867Y160158D01*
X153749Y160232D01*
X153616Y160296D01*
X153466Y160350D01*
X155417Y161314D01*
X155347Y161119D01*
D02*
G37*
G36*
X80236Y143321D02*
X80151Y143291D01*
X80076Y143240D01*
X80011Y143169D01*
X79956Y143078D01*
X79911Y142967D01*
X79876Y142835D01*
X79851Y142683D01*
X79836Y142511D01*
X79831Y142319D01*
X78831D01*
X78826Y142511D01*
X78811Y142683D01*
X78786Y142835D01*
X78751Y142967D01*
X78706Y143078D01*
X78651Y143169D01*
X78586Y143240D01*
X78511Y143291D01*
X78426Y143321D01*
X78331Y143331D01*
X80331D01*
X80236Y143321D01*
D02*
G37*
G36*
X170585Y140386D02*
X170604Y140245D01*
X170636Y140108D01*
X170681Y139976D01*
X170738Y139847D01*
X170808Y139723D01*
X170891Y139603D01*
X170986Y139488D01*
X171095Y139376D01*
X171216Y139269D01*
X169019Y139081D01*
X169125Y139211D01*
X169220Y139343D01*
X169304Y139477D01*
X169377Y139611D01*
X169439Y139746D01*
X169489Y139883D01*
X169528Y140021D01*
X169556Y140159D01*
X169573Y140299D01*
X169579Y140440D01*
X170579Y140531D01*
X170585Y140386D01*
D02*
G37*
G36*
X76391Y137019D02*
X76406Y136848D01*
X76431Y136698D01*
X76466Y136568D01*
X76511Y136459D01*
X76566Y136369D01*
X76631Y136299D01*
X76706Y136249D01*
X76791Y136219D01*
X76886Y136208D01*
X74886D01*
X74981Y136219D01*
X75066Y136249D01*
X75141Y136299D01*
X75206Y136369D01*
X75261Y136459D01*
X75306Y136568D01*
X75341Y136698D01*
X75366Y136848D01*
X75381Y137019D01*
X75386Y137208D01*
X76386D01*
X76391Y137019D01*
D02*
G37*
G36*
X76559Y146250D02*
Y142307D01*
X77801D01*
Y141382D01*
X74804Y138385D01*
X74473Y137888D01*
X74356Y137303D01*
Y137221D01*
X73803D01*
Y133813D01*
X72047D01*
X71462Y133696D01*
X70966Y133365D01*
X70655Y133054D01*
X70193Y133245D01*
Y133579D01*
X64491D01*
X64473Y133678D01*
X64441Y134072D01*
Y134785D01*
X76097Y146442D01*
X76559Y146250D01*
D02*
G37*
G36*
X63408Y134187D02*
X63461Y133547D01*
X63507Y133287D01*
X63567Y133067D01*
X63640Y132887D01*
X63726Y132747D01*
X63825Y132647D01*
X63937Y132587D01*
X64063Y132567D01*
X60740D01*
X60866Y132587D01*
X60978Y132647D01*
X61078Y132747D01*
X61164Y132887D01*
X61236Y133067D01*
X61296Y133287D01*
X61342Y133547D01*
X61375Y133847D01*
X61402Y134567D01*
X63402D01*
X63408Y134187D01*
D02*
G37*
G36*
X74827Y131283D02*
X74817Y131378D01*
X74787Y131464D01*
X74736Y131538D01*
X74665Y131604D01*
X74574Y131658D01*
X74463Y131703D01*
X74331Y131738D01*
X74180Y131764D01*
X74007Y131779D01*
X73815Y131783D01*
Y132783D01*
X74007Y132789D01*
X74180Y132803D01*
X74331Y132828D01*
X74463Y132863D01*
X74574Y132908D01*
X74665Y132964D01*
X74736Y133028D01*
X74787Y133104D01*
X74817Y133188D01*
X74827Y133283D01*
Y131283D01*
D02*
G37*
G36*
X157544Y193357D02*
X166654Y164888D01*
X166685Y164832D01*
X166697Y164769D01*
X166828Y164573D01*
X166943Y164366D01*
X166993Y164326D01*
X167029Y164273D01*
X167225Y164142D01*
X167410Y163995D01*
X167472Y163977D01*
X167525Y163941D01*
X167757Y163895D01*
X167983Y163830D01*
X168047Y163838D01*
X168110Y163825D01*
X220554D01*
X220907Y163471D01*
X220639Y51089D01*
X220147Y50994D01*
X219808Y51581D01*
X219329Y52060D01*
X218742Y52399D01*
X218087Y52575D01*
X217409D01*
X216754Y52399D01*
X216167Y52060D01*
X215970Y51863D01*
X215968Y51862D01*
X215695Y51944D01*
X215469Y52097D01*
Y55594D01*
Y58665D01*
X215476Y58697D01*
X215469Y58739D01*
Y58941D01*
X215668Y59174D01*
X216042Y59548D01*
X216374Y60045D01*
X216490Y60630D01*
Y63660D01*
X216492Y63678D01*
X216954Y63870D01*
X217780Y64504D01*
X218413Y65329D01*
X218812Y66291D01*
X218948Y67323D01*
X218812Y68355D01*
X218413Y69316D01*
X217780Y70142D01*
X216954Y70776D01*
X215992Y71174D01*
X214961Y71310D01*
X213929Y71174D01*
X212967Y70776D01*
X212141Y70142D01*
X211508Y69316D01*
X211110Y68355D01*
X210974Y67323D01*
X211110Y66291D01*
X211508Y65329D01*
X212141Y64504D01*
X212967Y63870D01*
X213430Y63678D01*
X213431Y63660D01*
Y61282D01*
X213235Y61110D01*
X213087Y60997D01*
X213002Y60941D01*
X212941D01*
X212919Y60947D01*
X212877Y60941D01*
X209728D01*
Y54482D01*
X208087D01*
Y55528D01*
X202937D01*
Y50378D01*
X208087D01*
Y51423D01*
X209728D01*
Y50476D01*
X210455D01*
X210647Y50014D01*
X188359Y27726D01*
X185823D01*
Y34721D01*
X177799D01*
Y26697D01*
X177818D01*
X178009Y26235D01*
X174957Y23183D01*
X169925D01*
X146160Y46948D01*
X145664Y47279D01*
X145079Y47396D01*
X136335D01*
Y49819D01*
X134815D01*
X134673Y50240D01*
X134669Y50319D01*
X135131Y50781D01*
X135470Y51368D01*
X135646Y52023D01*
Y52701D01*
X135470Y53356D01*
X135131Y53943D01*
X134652Y54423D01*
X134065Y54761D01*
X133410Y54937D01*
X133164D01*
X133077Y54956D01*
X132945Y54959D01*
X132856Y54967D01*
X132778Y54979D01*
X132710Y54996D01*
X132650Y55015D01*
X132598Y55037D01*
X132550Y55062D01*
X132506Y55090D01*
X132504Y55092D01*
X131685Y55911D01*
X131992Y56311D01*
X132077Y56262D01*
X132732Y56087D01*
X133410D01*
X134065Y56262D01*
X134652Y56601D01*
X135131Y57080D01*
X135470Y57668D01*
X135646Y58322D01*
Y58568D01*
X135665Y58656D01*
X135668Y58787D01*
X135676Y58876D01*
X135688Y58954D01*
X135704Y59022D01*
X135724Y59082D01*
X135746Y59135D01*
X135771Y59182D01*
X135799Y59226D01*
X135800Y59228D01*
X135830Y59258D01*
X141539D01*
Y53016D01*
Y48016D01*
X149445D01*
Y49258D01*
X163961D01*
Y45850D01*
X164514D01*
Y44405D01*
X162386D01*
Y38862D01*
X168323D01*
Y44405D01*
X167573D01*
Y45850D01*
X168126D01*
Y51620D01*
X170598D01*
X171183Y51737D01*
X171679Y52068D01*
X172000Y52389D01*
X172002Y52390D01*
X172046Y52418D01*
X172093Y52443D01*
X172146Y52465D01*
X172205Y52485D01*
X172274Y52501D01*
X172352Y52513D01*
X172441Y52521D01*
X172572Y52524D01*
X172660Y52543D01*
X172905D01*
X173560Y52719D01*
X174147Y53058D01*
X174627Y53537D01*
X174966Y54124D01*
X175141Y54779D01*
Y55457D01*
X174966Y56112D01*
X174627Y56699D01*
X174147Y57178D01*
X173560Y57517D01*
X172905Y57693D01*
X172227D01*
X171573Y57517D01*
X170985Y57178D01*
X170506Y56699D01*
X170167Y56112D01*
X169992Y55457D01*
Y55211D01*
X169972Y55124D01*
X169969Y54992D01*
X169962Y54903D01*
X169949Y54825D01*
X169933Y54757D01*
X169914Y54698D01*
X169906Y54679D01*
X168126D01*
Y55724D01*
X166656D01*
X166464Y56186D01*
X169847Y59569D01*
X197319D01*
X197904Y59685D01*
X198400Y60017D01*
X206156Y67772D01*
X206158Y67774D01*
X206204Y67804D01*
X206253Y67830D01*
X206308Y67853D01*
X206370Y67874D01*
X206441Y67892D01*
X206522Y67906D01*
X206614Y67916D01*
X206747Y67921D01*
X206825Y67940D01*
X207032D01*
X207687Y68115D01*
X208274Y68454D01*
X208753Y68933D01*
X209092Y69521D01*
X209268Y70175D01*
Y70853D01*
X209092Y71508D01*
X208753Y72095D01*
X208274Y72575D01*
X207687Y72914D01*
X207032Y73089D01*
X206354D01*
X205699Y72914D01*
X205112Y72575D01*
X204633Y72095D01*
X204294Y71508D01*
X204118Y70853D01*
Y70566D01*
X204099Y70472D01*
X204099Y70342D01*
X204093Y70256D01*
X204082Y70181D01*
X204067Y70115D01*
X204049Y70059D01*
X204028Y70008D01*
X204005Y69963D01*
X203978Y69921D01*
X203977Y69919D01*
X200335Y66277D01*
X199874Y66523D01*
X199955Y66929D01*
Y77577D01*
X199838Y78162D01*
X199507Y78658D01*
X198774Y79391D01*
Y86106D01*
X205035D01*
Y87447D01*
X206677D01*
Y86402D01*
X211827D01*
Y91551D01*
X206677D01*
Y90506D01*
X205035D01*
Y91847D01*
X194571D01*
Y86106D01*
X195715D01*
Y79625D01*
X195318Y79320D01*
X195221Y79347D01*
X194543D01*
X194155Y79243D01*
X193655Y79575D01*
Y91732D01*
X193539Y92318D01*
X193207Y92814D01*
X192325Y93696D01*
Y102533D01*
X192825Y102685D01*
X192894Y102581D01*
X194125Y101350D01*
X194274Y101190D01*
X194370Y101069D01*
X194374Y101064D01*
Y100876D01*
X194366Y100838D01*
X194374Y100799D01*
Y97524D01*
X204839D01*
Y98864D01*
X206874D01*
Y97819D01*
X212024D01*
Y102969D01*
X206874D01*
Y101923D01*
X204839D01*
Y103264D01*
X196838D01*
X196800Y103271D01*
X196762Y103264D01*
X196575D01*
X196326Y103475D01*
X195703Y104097D01*
X195930Y104324D01*
X196269Y104912D01*
X196445Y105567D01*
Y106245D01*
X196269Y106899D01*
X195930Y107486D01*
X195451Y107966D01*
X194864Y108305D01*
X194209Y108480D01*
X193531D01*
X192876Y108305D01*
X192758Y108236D01*
X192325Y108486D01*
Y123696D01*
X192325Y123698D01*
X192336Y123749D01*
X192352Y123800D01*
X192374Y123853D01*
X192402Y123909D01*
X192439Y123969D01*
X192485Y124033D01*
X192543Y124101D01*
X192634Y124196D01*
X192682Y124271D01*
X192856Y124445D01*
X193195Y125032D01*
X193370Y125687D01*
Y126365D01*
X193195Y127020D01*
X193107Y127172D01*
X193357Y127604D01*
X193855D01*
X195715Y125744D01*
Y115075D01*
X194571D01*
Y109335D01*
X205035D01*
Y110675D01*
X207071D01*
Y109630D01*
X212221D01*
Y114779D01*
X207071D01*
Y113734D01*
X205035D01*
Y115075D01*
X198774D01*
Y126378D01*
X198657Y126963D01*
X198326Y127459D01*
X195570Y130215D01*
X195073Y130547D01*
X194488Y130663D01*
X184688D01*
X184103Y130547D01*
X183607Y130215D01*
X179234Y125842D01*
X178902Y125346D01*
X178786Y124761D01*
Y120940D01*
X178628Y120766D01*
X178361Y120814D01*
X178269Y120871D01*
X178128Y121086D01*
Y127535D01*
X178104Y127654D01*
Y132470D01*
X178482Y132571D01*
X178604Y132573D01*
X179348Y131829D01*
X180262Y131301D01*
X181283Y131027D01*
X182339D01*
X183360Y131301D01*
X184274Y131829D01*
X185021Y132576D01*
X185549Y133491D01*
X185823Y134511D01*
Y135567D01*
X185549Y136588D01*
X185021Y137503D01*
X184274Y138250D01*
X183360Y138778D01*
X182339Y139051D01*
X181283D01*
X180262Y138778D01*
X179348Y138250D01*
X178604Y137506D01*
X178482Y137507D01*
X178104Y137609D01*
Y142839D01*
X185823D01*
Y150862D01*
X177799D01*
Y146331D01*
X177299Y146124D01*
X165725Y157697D01*
X165229Y158029D01*
X164644Y158145D01*
X158268D01*
X157683Y158029D01*
X157381Y157827D01*
X157366Y157834D01*
X157058Y158295D01*
X156597Y158603D01*
X156080Y158706D01*
Y159879D01*
X156094Y159997D01*
X156104Y160054D01*
X156319Y160808D01*
X156378Y160973D01*
X156379Y160980D01*
X156382Y160987D01*
X156394Y161073D01*
X156512Y161514D01*
Y162192D01*
X156336Y162847D01*
X155997Y163434D01*
X155518Y163913D01*
X154931Y164252D01*
X154276Y164428D01*
X153598D01*
X152943Y164252D01*
X152356Y163913D01*
X151877Y163434D01*
X151538Y162847D01*
X151362Y162192D01*
Y161514D01*
X151538Y160859D01*
X151877Y160272D01*
X152356Y159793D01*
X152794Y159540D01*
X152918Y159096D01*
X152907Y158946D01*
X152747Y158786D01*
X152730Y158760D01*
X151847Y157877D01*
X151539Y157416D01*
X151430Y156872D01*
X151539Y156329D01*
X151847Y155868D01*
X152308Y155560D01*
X152827Y155456D01*
X152930Y154937D01*
X153239Y154476D01*
X153700Y154168D01*
X154219Y154064D01*
X154323Y153545D01*
X154630Y153084D01*
X155092Y152776D01*
X155611Y152672D01*
X155714Y152153D01*
X156023Y151692D01*
X156483Y151384D01*
X157003Y151280D01*
X157106Y150761D01*
X157414Y150300D01*
X157875Y149992D01*
X158395Y149888D01*
X158498Y149369D01*
X158806Y148908D01*
X159267Y148600D01*
X159787Y148496D01*
X159890Y147977D01*
X160198Y147516D01*
X160659Y147208D01*
X161203Y147100D01*
X161747Y147208D01*
X162208Y147516D01*
X164017Y149325D01*
X164147Y149519D01*
X164762Y149611D01*
X168549Y145823D01*
Y140325D01*
X168549Y140321D01*
X168537Y140261D01*
X168519Y140199D01*
X168495Y140134D01*
X168464Y140065D01*
X168424Y139992D01*
X168375Y139914D01*
X168315Y139831D01*
X168228Y139724D01*
X168212Y139694D01*
X168153Y139635D01*
X167814Y139048D01*
X167639Y138393D01*
Y137715D01*
X167814Y137060D01*
X168153Y136473D01*
X168632Y135994D01*
X169220Y135655D01*
X169875Y135479D01*
X170552D01*
X171207Y135655D01*
X171494Y135821D01*
X171994Y135532D01*
Y128165D01*
X170949D01*
Y123577D01*
X170193D01*
Y128165D01*
X165043D01*
Y127120D01*
X163697D01*
Y128461D01*
X153232D01*
Y127120D01*
X151927D01*
X151341Y127004D01*
X150845Y126672D01*
X147417Y123244D01*
X147415Y123242D01*
X147371Y123214D01*
X147324Y123189D01*
X147271Y123167D01*
X147211Y123148D01*
X147143Y123132D01*
X147065Y123119D01*
X146976Y123111D01*
X146844Y123108D01*
X146757Y123089D01*
X146511D01*
X145856Y122914D01*
X145269Y122575D01*
X145201Y122506D01*
X144701Y122713D01*
Y122780D01*
X144525Y123435D01*
X144186Y124022D01*
X143707Y124501D01*
X143120Y124840D01*
X142465Y125016D01*
X141787D01*
X141132Y124840D01*
X140545Y124501D01*
X140066Y124022D01*
X139727Y123435D01*
X139551Y122780D01*
Y122102D01*
X139727Y121447D01*
X140066Y120860D01*
X140545Y120381D01*
X141132Y120042D01*
X141787Y119866D01*
X142465D01*
X143120Y120042D01*
X143707Y120381D01*
X143776Y120449D01*
X144276Y120242D01*
Y120176D01*
X144451Y119521D01*
X144790Y118933D01*
X145269Y118454D01*
X145856Y118115D01*
X146511Y117940D01*
X147189D01*
X147844Y118115D01*
X148431Y118454D01*
X148911Y118933D01*
X149250Y119521D01*
X149425Y120176D01*
Y120421D01*
X149444Y120509D01*
X149447Y120640D01*
X149455Y120729D01*
X149468Y120807D01*
X149484Y120876D01*
X149503Y120935D01*
X149525Y120988D01*
X149550Y121035D01*
X149578Y121079D01*
X149580Y121081D01*
X152560Y124061D01*
X153232D01*
Y122721D01*
X156169D01*
X156360Y122258D01*
X151281Y117179D01*
X150949Y116683D01*
X150833Y116098D01*
Y104177D01*
X149945Y103289D01*
X149445Y103496D01*
Y108016D01*
Y113559D01*
X141539D01*
Y113559D01*
X141134Y113391D01*
X139270Y115255D01*
X138774Y115586D01*
X138189Y115703D01*
X133465D01*
X132879Y115586D01*
X132383Y115255D01*
X130488Y113359D01*
X130486Y113358D01*
X130442Y113330D01*
X130394Y113305D01*
X130342Y113283D01*
X130282Y113263D01*
X130214Y113247D01*
X130136Y113235D01*
X130047Y113227D01*
X129915Y113224D01*
X129828Y113205D01*
X129582D01*
X128927Y113029D01*
X128340Y112690D01*
X127861Y112211D01*
X127522Y111624D01*
X127347Y110969D01*
Y110291D01*
X127522Y109636D01*
X127861Y109049D01*
X128340Y108570D01*
X128927Y108231D01*
X129582Y108055D01*
X130260D01*
X130915Y108231D01*
X131502Y108570D01*
X131982Y109049D01*
X132321Y109636D01*
X132496Y110291D01*
Y110537D01*
X132515Y110624D01*
X132518Y110756D01*
X132526Y110845D01*
X132538Y110923D01*
X132555Y110991D01*
X132574Y111051D01*
X132596Y111103D01*
X132621Y111151D01*
X132649Y111195D01*
X132651Y111197D01*
X134098Y112644D01*
X134753D01*
X134909Y112144D01*
X134608Y111624D01*
X134433Y110969D01*
Y110291D01*
X134608Y109636D01*
X134948Y109049D01*
X135427Y108570D01*
X136014Y108231D01*
X136669Y108055D01*
X136915D01*
X137002Y108036D01*
X137134Y108033D01*
X137223Y108025D01*
X137301Y108013D01*
X137369Y107996D01*
X137428Y107977D01*
X137481Y107955D01*
X137529Y107930D01*
X137573Y107902D01*
X137575Y107900D01*
X140544Y104931D01*
X141040Y104600D01*
X141539Y104500D01*
Y103016D01*
Y98016D01*
Y92317D01*
X140974D01*
X140937Y92326D01*
X140902Y92338D01*
X140868Y92353D01*
X140833Y92374D01*
X140794Y92403D01*
X140751Y92441D01*
X140703Y92491D01*
X140651Y92555D01*
X140643Y92568D01*
X140164Y93047D01*
X139576Y93386D01*
X138922Y93562D01*
X138244D01*
X137589Y93386D01*
X137002Y93047D01*
X136522Y92568D01*
X136183Y91981D01*
X136008Y91326D01*
Y90648D01*
X136183Y89993D01*
X136522Y89406D01*
X137002Y88927D01*
X137589Y88587D01*
X138244Y88412D01*
X138922D01*
X139576Y88587D01*
X140164Y88927D01*
X140178Y88941D01*
X140284Y89020D01*
X140373Y89080D01*
X140458Y89130D01*
X140538Y89170D01*
X140613Y89202D01*
X140683Y89227D01*
X140750Y89245D01*
X140814Y89258D01*
X140819Y89258D01*
X141539D01*
Y83016D01*
Y77317D01*
X139961D01*
X139375Y77200D01*
X138879Y76869D01*
X137997Y75987D01*
X137996Y75985D01*
X137953Y75958D01*
X137908Y75935D01*
X137857Y75914D01*
X137801Y75896D01*
X137735Y75882D01*
X137660Y75871D01*
X137574Y75864D01*
X137444Y75864D01*
X137350Y75845D01*
X137063D01*
X136408Y75670D01*
X135821Y75331D01*
X135341Y74851D01*
X135002Y74264D01*
X134827Y73609D01*
Y72931D01*
X135002Y72277D01*
X135341Y71689D01*
X135821Y71210D01*
X136408Y70871D01*
X136851Y70752D01*
Y70235D01*
X136408Y70116D01*
X135821Y69777D01*
X135341Y69297D01*
X135002Y68710D01*
X134827Y68055D01*
Y67378D01*
X135002Y66723D01*
X135341Y66136D01*
X135821Y65656D01*
X136408Y65317D01*
X137063Y65142D01*
X137741D01*
X138395Y65317D01*
X138982Y65656D01*
X139462Y66136D01*
X139801Y66723D01*
X139976Y67378D01*
Y67623D01*
X139996Y67711D01*
X139998Y67842D01*
X140006Y67931D01*
X140019Y68010D01*
X140035Y68078D01*
X140054Y68137D01*
X140076Y68190D01*
X140101Y68237D01*
X140129Y68281D01*
X140131Y68283D01*
X141039Y69191D01*
X141539Y69097D01*
Y62317D01*
X135197D01*
X134612Y62200D01*
X134115Y61869D01*
X133638Y61391D01*
X133635Y61389D01*
X133592Y61361D01*
X133544Y61336D01*
X133492Y61314D01*
X133432Y61295D01*
X133364Y61279D01*
X133286Y61266D01*
X133197Y61258D01*
X133065Y61256D01*
X132978Y61236D01*
X132732D01*
X132077Y61061D01*
X131490Y60722D01*
X131010Y60242D01*
X130672Y59655D01*
X130496Y59000D01*
Y58322D01*
X130672Y57668D01*
X130721Y57582D01*
X130321Y57275D01*
X125885Y61711D01*
X125388Y62043D01*
X124803Y62159D01*
X104331D01*
X103745Y62043D01*
X103249Y61711D01*
X92482Y50944D01*
X92150Y50447D01*
X92034Y49862D01*
Y49819D01*
X90791D01*
Y41913D01*
X136335D01*
Y44337D01*
X144445D01*
X145943Y42839D01*
X145736Y42339D01*
X145330D01*
X144676Y42163D01*
X144088Y41824D01*
X143609Y41345D01*
X143270Y40758D01*
X143095Y40103D01*
Y39425D01*
X143270Y38770D01*
X143609Y38183D01*
X144029Y37762D01*
X143974Y37530D01*
X143820Y37294D01*
X143509Y37356D01*
X90791D01*
X86175Y41972D01*
Y98032D01*
X86059Y98617D01*
X85727Y99113D01*
X82971Y101869D01*
X82475Y102200D01*
X81890Y102317D01*
X80547D01*
Y104243D01*
X86705D01*
X86709Y104242D01*
X86769Y104230D01*
X86830Y104213D01*
X86895Y104189D01*
X86964Y104157D01*
X87037Y104118D01*
X87115Y104069D01*
X87198Y104009D01*
X87305Y103921D01*
X87335Y103905D01*
X87395Y103845D01*
X87982Y103506D01*
X88637Y103331D01*
X89315D01*
X89970Y103506D01*
X90557Y103845D01*
X91037Y104324D01*
X91376Y104912D01*
X91551Y105567D01*
Y106245D01*
X91376Y106899D01*
X91037Y107486D01*
X90557Y107966D01*
X89970Y108305D01*
X89315Y108480D01*
X88637D01*
X87982Y108305D01*
X87395Y107966D01*
X87063Y107633D01*
X87000Y107585D01*
X86918Y107493D01*
X86863Y107440D01*
X86813Y107398D01*
X86767Y107367D01*
X86725Y107343D01*
X86684Y107325D01*
X86644Y107311D01*
X86602Y107302D01*
X83025D01*
Y121653D01*
X82909Y122239D01*
X82578Y122735D01*
X78299Y127013D01*
X77969Y127347D01*
X77969D01*
X77969Y127347D01*
Y137221D01*
X77969Y137221D01*
X77969D01*
X78303Y137557D01*
X80412Y139667D01*
X80744Y140163D01*
X80860Y140748D01*
Y142307D01*
X82102D01*
Y148244D01*
X82557Y148354D01*
X83858D01*
X84639Y148510D01*
X85300Y148952D01*
X94071Y157722D01*
X94571Y157602D01*
Y157602D01*
X95545D01*
X95583Y157595D01*
X95621Y157602D01*
X99032D01*
Y162870D01*
X95621D01*
X95583Y162878D01*
X95346Y163293D01*
Y166561D01*
X95306Y166762D01*
Y166841D01*
X95339Y166866D01*
X95972Y167692D01*
X96371Y168653D01*
X96507Y169685D01*
X96371Y170717D01*
X95972Y171678D01*
X95339Y172504D01*
X94513Y173138D01*
X93552Y173536D01*
X92520Y173672D01*
X91488Y173536D01*
X90526Y173138D01*
X89701Y172504D01*
X89067Y171678D01*
X88669Y170717D01*
X88533Y169685D01*
X88669Y168653D01*
X89067Y167692D01*
X89701Y166866D01*
X90526Y166232D01*
X91268Y165925D01*
Y161870D01*
X91242Y161632D01*
X91186Y161341D01*
X91109Y161062D01*
X91011Y160794D01*
X90891Y160535D01*
X90748Y160283D01*
X90581Y160038D01*
X90432Y159851D01*
X83014Y152433D01*
X77165D01*
X76385Y152278D01*
X75723Y151836D01*
X60960Y137072D01*
X60518Y136410D01*
X60362Y135630D01*
Y134052D01*
X60358Y133921D01*
X60332Y133692D01*
X60312Y133579D01*
X59728D01*
Y132605D01*
X59721Y132567D01*
X59728Y132529D01*
Y128889D01*
X59721Y128851D01*
X59728Y128812D01*
Y127839D01*
X60312D01*
X60330Y127739D01*
X60362Y127346D01*
Y126632D01*
X59975Y126245D01*
X59533Y125584D01*
X59378Y124803D01*
Y122723D01*
X59372Y122626D01*
X59342Y122394D01*
X59315Y122260D01*
X58646D01*
Y121286D01*
X58638Y121248D01*
X58646Y121210D01*
Y117373D01*
X58638Y117335D01*
X58646Y117297D01*
Y116323D01*
X59315D01*
X59339Y116204D01*
X59378Y115793D01*
Y115281D01*
X59369Y115158D01*
X59337Y114935D01*
X59301Y114779D01*
X58547D01*
Y113806D01*
X58540Y113768D01*
X58547Y113729D01*
Y109890D01*
X58540Y109851D01*
X58547Y109814D01*
Y108843D01*
X58949D01*
X58984Y108388D01*
Y107086D01*
X58983Y107040D01*
X58961Y106801D01*
X58947Y106709D01*
X58449D01*
Y105735D01*
X58441Y105697D01*
X58449Y105658D01*
Y102893D01*
X58352Y102749D01*
X58197Y101969D01*
Y101070D01*
X58191Y100972D01*
X58161Y100741D01*
X58134Y100606D01*
X57465D01*
Y99633D01*
X57457Y99594D01*
X57465Y99556D01*
Y94669D01*
X63008D01*
Y99556D01*
X63016Y99594D01*
X63008Y99633D01*
Y100606D01*
X62339D01*
X62314Y100725D01*
X62277Y101125D01*
X62466Y101314D01*
X62908Y101976D01*
X63060Y102740D01*
X63598D01*
Y105658D01*
X63606Y105697D01*
X63598Y105735D01*
Y106709D01*
X63101D01*
X63089Y106789D01*
X63063Y107154D01*
Y108301D01*
X63076Y108449D01*
X63111Y108663D01*
X63152Y108815D01*
X63163Y108843D01*
X64091D01*
Y109677D01*
X64113Y109686D01*
X64266Y109726D01*
X64482Y109760D01*
X64623Y109772D01*
X68053D01*
X68479Y109345D01*
X69141Y108903D01*
X69921Y108748D01*
X72178D01*
X72276Y108742D01*
X72507Y108712D01*
X72642Y108685D01*
Y103016D01*
Y98016D01*
Y93016D01*
Y88016D01*
Y83016D01*
Y78016D01*
Y73016D01*
Y68016D01*
Y63016D01*
Y58326D01*
X72142Y58260D01*
X72084Y58474D01*
X71745Y59061D01*
X71266Y59541D01*
X70679Y59880D01*
X70024Y60055D01*
X69346D01*
X68691Y59880D01*
X68104Y59541D01*
X67625Y59061D01*
X67286Y58474D01*
X67110Y57819D01*
Y57141D01*
X67286Y56486D01*
X67625Y55899D01*
X68104Y55420D01*
X68691Y55081D01*
X69346Y54905D01*
X69870D01*
X69889Y54901D01*
X69912Y54905D01*
X69977D01*
X69986Y54905D01*
X69998Y54905D01*
X70020D01*
X70024Y54904D01*
X70051Y54890D01*
X70090Y54866D01*
X70141Y54829D01*
X70143Y54828D01*
X70264Y54706D01*
X70760Y54374D01*
X71346Y54258D01*
X72642D01*
Y52317D01*
X72441D01*
X71856Y52200D01*
X71359Y51869D01*
X68210Y48719D01*
X67878Y48223D01*
X67762Y47638D01*
Y45638D01*
X67762Y45635D01*
X67751Y45584D01*
X67735Y45533D01*
X67713Y45480D01*
X67685Y45425D01*
X67648Y45365D01*
X67601Y45301D01*
X67544Y45232D01*
X67453Y45137D01*
X67405Y45062D01*
X67231Y44888D01*
X66892Y44301D01*
X66742Y43739D01*
X66269Y43504D01*
X63113Y46661D01*
X62451Y47103D01*
X61671Y47258D01*
X61223D01*
X61126Y47266D01*
X60931Y47295D01*
X60843Y47317D01*
Y51591D01*
X52543D01*
Y47218D01*
X52518Y47207D01*
X52366Y47166D01*
X52152Y47131D01*
X52002Y47118D01*
X47892D01*
X37269Y57741D01*
X36607Y58183D01*
X35827Y58338D01*
X34021D01*
X33872Y58351D01*
X33658Y58387D01*
X33506Y58428D01*
X33480Y58438D01*
Y60449D01*
X20457D01*
Y52150D01*
X33480D01*
Y54160D01*
X33506Y54171D01*
X33658Y54211D01*
X33872Y54247D01*
X34021Y54260D01*
X34982D01*
X45605Y43637D01*
X46267Y43195D01*
X47047Y43040D01*
X47047Y43040D01*
X52002D01*
X52152Y43027D01*
X52366Y42991D01*
X52518Y42950D01*
X52543Y42940D01*
Y39047D01*
X51968D01*
X51188Y38892D01*
X50527Y38450D01*
X44846Y32770D01*
X44711Y32798D01*
X44535Y32850D01*
X44362Y32919D01*
X44191Y33003D01*
X44021Y33105D01*
X43850Y33227D01*
X43680Y33368D01*
X43485Y33554D01*
X43411Y33602D01*
X43093Y33919D01*
X42178Y34447D01*
X41158Y34721D01*
X40102D01*
X39081Y34447D01*
X38167Y33919D01*
X37420Y33172D01*
X36891Y32257D01*
X36618Y31237D01*
Y30180D01*
X36891Y29160D01*
X37420Y28245D01*
X38167Y27498D01*
X39081Y26970D01*
X40102Y26697D01*
X41158D01*
X42178Y26970D01*
X43093Y27498D01*
X43411Y27816D01*
X43485Y27863D01*
X43680Y28049D01*
X43850Y28191D01*
X44021Y28312D01*
X44191Y28414D01*
X44362Y28499D01*
X44535Y28567D01*
X44711Y28620D01*
X44893Y28657D01*
X44991Y28670D01*
X45669D01*
X46450Y28825D01*
X47111Y29267D01*
X52813Y34969D01*
X60966D01*
X62272Y33663D01*
Y32031D01*
X62267Y31788D01*
X62240Y31446D01*
X62237Y31427D01*
X62191Y31358D01*
X62109Y30945D01*
Y24961D01*
X62191Y24547D01*
X62425Y24197D01*
X62776Y23963D01*
X63189Y23881D01*
X65433D01*
X65846Y23963D01*
X66197Y24197D01*
X66431Y24547D01*
X66513Y24961D01*
Y30945D01*
X66431Y31358D01*
X66414Y31382D01*
X66350Y32379D01*
Y34508D01*
X66350Y34508D01*
X66195Y35288D01*
X65753Y35950D01*
X65753Y35950D01*
X63253Y38450D01*
X62591Y38892D01*
X61811Y39047D01*
X60843D01*
Y42456D01*
X61343Y42663D01*
X67252Y36754D01*
Y31888D01*
X67250Y31778D01*
X67226Y31429D01*
X67223Y31406D01*
X67191Y31358D01*
X67109Y30945D01*
Y24961D01*
X67191Y24547D01*
X67425Y24197D01*
X67776Y23963D01*
X68189Y23881D01*
X70433D01*
X70846Y23963D01*
X71197Y24197D01*
X71431Y24547D01*
X71513Y24961D01*
Y25821D01*
X71521Y25824D01*
X71674Y25865D01*
X71888Y25901D01*
X72037Y25914D01*
X74352D01*
X79457Y20809D01*
Y15115D01*
X79445Y14974D01*
X79411Y14759D01*
X79371Y14605D01*
X79362Y14583D01*
X78528D01*
Y13609D01*
X78520Y13571D01*
X78528Y13532D01*
Y13476D01*
X78526Y13459D01*
X78528Y13454D01*
Y9039D01*
X83414D01*
X83453Y9032D01*
X83491Y9039D01*
X84465D01*
X84575Y8585D01*
Y-1350D01*
X84559Y-1586D01*
X84518Y-1910D01*
X84467Y-2163D01*
X84461Y-2182D01*
X83795Y-2693D01*
X83161Y-3518D01*
X82763Y-4480D01*
X82627Y-5512D01*
X82763Y-6544D01*
X83161Y-7505D01*
X83795Y-8331D01*
X84621Y-8964D01*
X85582Y-9363D01*
X86614Y-9499D01*
X87646Y-9363D01*
X88608Y-8964D01*
X89433Y-8331D01*
X90067Y-7505D01*
X90465Y-6544D01*
X90601Y-5512D01*
X90465Y-4480D01*
X90067Y-3518D01*
X89433Y-2693D01*
X88768Y-2182D01*
X88762Y-2163D01*
X88713Y-1926D01*
X88653Y-1293D01*
Y10179D01*
X90812Y12338D01*
X91254Y12999D01*
X91409Y13780D01*
Y16244D01*
X91474Y17264D01*
X91535Y17705D01*
X91608Y18064D01*
X91667Y18261D01*
X97386Y23980D01*
X96159Y25207D01*
X100427Y29474D01*
X103770D01*
X103977Y28975D01*
X102856Y27853D01*
X102524Y27357D01*
X102408Y26772D01*
Y19612D01*
X101946Y19420D01*
X101539Y19827D01*
X93165Y11453D01*
X97781Y6837D01*
X101818Y10874D01*
X101890Y10831D01*
X102050Y10712D01*
X102126Y10648D01*
X102445Y10329D01*
X103106Y9887D01*
X103886Y9732D01*
X106653D01*
X106854Y9772D01*
X107649D01*
X107885Y9756D01*
X108209Y9715D01*
X108462Y9663D01*
X108481Y9657D01*
X108992Y8992D01*
X109657Y8481D01*
X109663Y8462D01*
X109712Y8225D01*
X109772Y7592D01*
Y5175D01*
X91078Y-13519D01*
X90636Y-14180D01*
X90481Y-14961D01*
Y-19066D01*
X90465Y-19302D01*
X90424Y-19627D01*
X90372Y-19879D01*
X90366Y-19898D01*
X89701Y-20409D01*
X89190Y-21075D01*
X89170Y-21081D01*
X88934Y-21129D01*
X88301Y-21189D01*
X80823D01*
Y-16650D01*
Y-11303D01*
X75083D01*
Y-12447D01*
X73441D01*
Y-11008D01*
X68291D01*
Y-16158D01*
X73441D01*
Y-15506D01*
X75083D01*
Y-21768D01*
X75914D01*
Y-22057D01*
X76069Y-22837D01*
X76511Y-23499D01*
X77682Y-24670D01*
X77682Y-24670D01*
X78344Y-25112D01*
X79124Y-25267D01*
X88357D01*
X88594Y-25283D01*
X88918Y-25324D01*
X89170Y-25376D01*
X89190Y-25382D01*
X89701Y-26048D01*
X90526Y-26681D01*
X91488Y-27079D01*
X92520Y-27215D01*
X93552Y-27079D01*
X94513Y-26681D01*
X95339Y-26048D01*
X95972Y-25222D01*
X96371Y-24260D01*
X96507Y-23228D01*
X96371Y-22197D01*
X95972Y-21235D01*
X95339Y-20409D01*
X94673Y-19898D01*
X94667Y-19879D01*
X94619Y-19642D01*
X94559Y-19009D01*
Y-15805D01*
X100771Y-9593D01*
X101181Y-9890D01*
X100849Y-10541D01*
X100314Y-12188D01*
X100043Y-13898D01*
Y-14264D01*
X110543D01*
Y-3764D01*
X110178D01*
X108467Y-4035D01*
X106821Y-4570D01*
X106170Y-4901D01*
X105872Y-4492D01*
X113253Y2889D01*
X113695Y3550D01*
X113850Y4331D01*
Y7649D01*
X113866Y7885D01*
X113907Y8209D01*
X113959Y8462D01*
X113965Y8481D01*
X114630Y8992D01*
X115264Y9818D01*
X115662Y10779D01*
X115798Y11811D01*
X115662Y12843D01*
X115264Y13804D01*
X114630Y14630D01*
X113804Y15264D01*
X112843Y15662D01*
X111811Y15798D01*
X110779Y15662D01*
X109818Y15264D01*
X108992Y14630D01*
X108481Y13965D01*
X108462Y13959D01*
X108225Y13910D01*
X107592Y13850D01*
X106693D01*
X106491Y13810D01*
X105461D01*
X105254Y14310D01*
X106155Y15211D01*
X104929Y16437D01*
X105018Y16527D01*
X105350Y17023D01*
X105466Y17609D01*
Y23512D01*
X105496Y24000D01*
X113008D01*
Y26559D01*
Y29118D01*
Y32890D01*
X105496D01*
Y32533D01*
X99794D01*
X99208Y32417D01*
X98712Y32085D01*
X93997Y27370D01*
X92770Y28596D01*
X84396Y20222D01*
X87229Y17390D01*
X87268Y17161D01*
X87331Y16365D01*
Y14624D01*
X86557Y13850D01*
X84928D01*
X84831Y13857D01*
X84599Y13886D01*
X84465Y13914D01*
Y14583D01*
X83630D01*
X83621Y14605D01*
X83582Y14759D01*
X83547Y14974D01*
X83535Y15115D01*
Y21654D01*
X83380Y22434D01*
X82938Y23096D01*
X76639Y29395D01*
X75977Y29837D01*
X75197Y29992D01*
X72037D01*
X71888Y30005D01*
X71674Y30040D01*
X71521Y30081D01*
X71513Y30085D01*
Y30945D01*
X71431Y31358D01*
X71386Y31425D01*
X71330Y32357D01*
Y37598D01*
X71175Y38379D01*
X70733Y39040D01*
X69489Y40285D01*
X69723Y40757D01*
X70285Y40908D01*
X70872Y41247D01*
X71352Y41726D01*
X71691Y42313D01*
X71866Y42968D01*
Y43646D01*
X71691Y44301D01*
X71352Y44888D01*
X71178Y45062D01*
X71130Y45137D01*
X71039Y45232D01*
X70981Y45301D01*
X70935Y45365D01*
X70898Y45425D01*
X70870Y45480D01*
X70848Y45533D01*
X70832Y45584D01*
X70821Y45635D01*
X70821Y45638D01*
Y47004D01*
X72180Y48363D01*
X72642Y48172D01*
Y48016D01*
X80547D01*
Y53016D01*
Y58016D01*
Y63016D01*
Y68016D01*
Y73016D01*
Y78016D01*
Y83016D01*
Y88016D01*
Y93016D01*
Y99258D01*
X81256D01*
X83116Y97398D01*
Y41339D01*
X83233Y40753D01*
X83564Y40257D01*
X89076Y34745D01*
X89572Y34414D01*
X90158Y34297D01*
X142558D01*
X142640Y34177D01*
X142377Y33677D01*
X139157D01*
Y32533D01*
X136236D01*
Y32890D01*
X128724D01*
Y29118D01*
Y27262D01*
X128261Y27170D01*
X127764Y26839D01*
X126871Y25946D01*
X126540Y25449D01*
X126423Y24864D01*
Y19406D01*
X125870D01*
Y13665D01*
X127014D01*
Y12417D01*
X125772D01*
Y6480D01*
X127604D01*
Y4057D01*
X127603Y4038D01*
X127140Y3846D01*
X126315Y3213D01*
X125681Y2387D01*
X125283Y1426D01*
X125147Y394D01*
X125283Y-638D01*
X125681Y-1600D01*
X126315Y-2425D01*
X126995Y-2947D01*
X127014Y-3133D01*
Y-7391D01*
X126697Y-7603D01*
X126432Y-8000D01*
X126339Y-8468D01*
Y-12004D01*
X126432Y-12472D01*
X126697Y-12870D01*
X127094Y-13135D01*
X127563Y-13228D01*
X129524D01*
X129992Y-13135D01*
X130389Y-12870D01*
X130655Y-12472D01*
X130748Y-12004D01*
Y-8468D01*
X130655Y-8000D01*
X130389Y-7603D01*
X130073Y-7391D01*
Y-3470D01*
X130166Y-3457D01*
X131127Y-3059D01*
X131953Y-2425D01*
X132587Y-1600D01*
X132985Y-638D01*
X133121Y394D01*
X132985Y1426D01*
X132587Y2387D01*
X131953Y3213D01*
X131127Y3846D01*
X130665Y4038D01*
X130663Y4057D01*
Y6480D01*
X131315D01*
Y12417D01*
X130073D01*
Y13665D01*
X131217D01*
Y19406D01*
X129482D01*
Y21441D01*
X136236D01*
Y24000D01*
Y26559D01*
Y29474D01*
X139157D01*
Y28134D01*
X145095D01*
Y28134D01*
X145514Y28308D01*
X146502Y27319D01*
Y24814D01*
X146502Y24811D01*
X146491Y24760D01*
X146475Y24709D01*
X146453Y24656D01*
X146425Y24600D01*
X146388Y24541D01*
X146342Y24476D01*
X146284Y24408D01*
X146193Y24313D01*
X146145Y24238D01*
X145971Y24064D01*
X145632Y23477D01*
X145457Y22822D01*
Y22144D01*
X145632Y21489D01*
X145971Y20902D01*
X146450Y20423D01*
X147038Y20084D01*
X147693Y19908D01*
X148371D01*
X149025Y20084D01*
X149612Y20423D01*
X150092Y20902D01*
X150431Y21489D01*
X150606Y22144D01*
Y22822D01*
X150431Y23477D01*
X150092Y24064D01*
X149918Y24238D01*
X149870Y24313D01*
X149779Y24408D01*
X149722Y24476D01*
X149675Y24541D01*
X149638Y24600D01*
X149610Y24656D01*
X149588Y24709D01*
X149572Y24760D01*
X149561Y24811D01*
X149561Y24814D01*
Y26958D01*
X150023Y27150D01*
X155726Y21446D01*
X155602Y21285D01*
X155204Y20323D01*
X155068Y19291D01*
X155204Y18259D01*
X155602Y17298D01*
X156178Y16547D01*
X156195Y16474D01*
X156218Y16330D01*
X156246Y15960D01*
Y12417D01*
X155004D01*
Y6480D01*
X156246D01*
Y-4583D01*
X154495Y-6334D01*
X154336Y-6482D01*
X154216Y-6579D01*
X150348D01*
Y-3543D01*
X150232Y-2958D01*
X149900Y-2462D01*
X145963Y1475D01*
X145467Y1807D01*
X144882Y1923D01*
X143821D01*
X143802Y1925D01*
X143610Y2387D01*
X142977Y3213D01*
X142151Y3846D01*
X141189Y4245D01*
X140157Y4381D01*
X139126Y4245D01*
X138164Y3846D01*
X137338Y3213D01*
X136705Y2387D01*
X136307Y1426D01*
X136171Y394D01*
X136307Y-638D01*
X136498Y-1101D01*
X136486Y-1115D01*
X134942Y-2659D01*
X134611Y-3155D01*
X134494Y-3740D01*
Y-7391D01*
X134178Y-7603D01*
X133912Y-8000D01*
X133819Y-8468D01*
Y-12004D01*
X133912Y-12472D01*
X134178Y-12870D01*
X134494Y-13081D01*
Y-14327D01*
X130392Y-18430D01*
X130389Y-18430D01*
X129992Y-18164D01*
X129524Y-18071D01*
X127563D01*
X127094Y-18164D01*
X126697Y-18430D01*
X126432Y-18827D01*
X126339Y-19295D01*
Y-22831D01*
X126432Y-23299D01*
X126697Y-23696D01*
X127094Y-23962D01*
X127563Y-24055D01*
X129524D01*
X129992Y-23962D01*
X130389Y-23696D01*
X130655Y-23299D01*
X130748Y-22831D01*
Y-21797D01*
X131294Y-21689D01*
X131790Y-21357D01*
X133357Y-19790D01*
X133819Y-19981D01*
Y-22831D01*
X133912Y-23299D01*
X134178Y-23696D01*
X134575Y-23962D01*
X135043Y-24055D01*
X137004D01*
X137472Y-23962D01*
X137870Y-23696D01*
X138135Y-23299D01*
X138228Y-22831D01*
Y-22592D01*
X146047D01*
Y-24228D01*
X146047D01*
X146103Y-24714D01*
X145561Y-24706D01*
X145541Y-24696D01*
X145456Y-24614D01*
X145381Y-24566D01*
X145207Y-24392D01*
X144620Y-24053D01*
X143965Y-23878D01*
X143287D01*
X142632Y-24053D01*
X142045Y-24392D01*
X141566Y-24872D01*
X141227Y-25459D01*
X141051Y-26114D01*
Y-26792D01*
X141227Y-27447D01*
X141295Y-27565D01*
X141045Y-27998D01*
X64123D01*
X55399Y448D01*
X55364Y513D01*
X55350Y585D01*
X55224Y774D01*
X55116Y974D01*
X55059Y1020D01*
X55018Y1081D01*
X54830Y1208D01*
X54654Y1351D01*
X54583Y1372D01*
X54522Y1413D01*
X54300Y1457D01*
X54082Y1522D01*
X54009Y1515D01*
X53937Y1529D01*
X1529D01*
Y163825D01*
X53937D01*
X54003Y163838D01*
X54070Y163831D01*
X54294Y163896D01*
X54522Y163941D01*
X54578Y163979D01*
X54643Y163997D01*
X54825Y164143D01*
X55018Y164273D01*
X55056Y164329D01*
X55108Y164371D01*
X55220Y164575D01*
X55350Y164769D01*
X55363Y164835D01*
X55395Y164894D01*
X64505Y193742D01*
X157544Y193357D01*
D02*
G37*
G36*
X69179Y131614D02*
X69209Y131529D01*
X69260Y131454D01*
X69331Y131389D01*
X69422Y131334D01*
X69533Y131289D01*
X69665Y131254D01*
X69817Y131229D01*
X69989Y131214D01*
X70181Y131209D01*
Y130209D01*
X69989Y130204D01*
X69817Y130189D01*
X69665Y130164D01*
X69533Y130129D01*
X69422Y130084D01*
X69331Y130029D01*
X69260Y129964D01*
X69209Y129889D01*
X69179Y129804D01*
X69169Y129709D01*
Y131709D01*
X69179Y131614D01*
D02*
G37*
G36*
X76791Y128360D02*
X76706Y128330D01*
X76631Y128279D01*
X76566Y128208D01*
X76511Y128118D01*
X76466Y128006D01*
X76431Y127875D01*
X76406Y127723D01*
X76391Y127551D01*
X76386Y127358D01*
X75386D01*
X75381Y127551D01*
X75366Y127723D01*
X75341Y127875D01*
X75306Y128006D01*
X75261Y128118D01*
X75206Y128208D01*
X75141Y128279D01*
X75066Y128330D01*
X74981Y128360D01*
X74886Y128370D01*
X76886D01*
X76791Y128360D01*
D02*
G37*
G36*
X174029Y127961D02*
X174044Y127789D01*
X174069Y127637D01*
X174104Y127506D01*
X174149Y127394D01*
X174204Y127303D01*
X174269Y127232D01*
X174344Y127182D01*
X174429Y127152D01*
X174524Y127141D01*
X172524D01*
X172619Y127152D01*
X172704Y127182D01*
X172779Y127232D01*
X172844Y127303D01*
X172899Y127394D01*
X172944Y127506D01*
X172979Y127637D01*
X173004Y127789D01*
X173019Y127961D01*
X173024Y128153D01*
X174024D01*
X174029Y127961D01*
D02*
G37*
G36*
X63937Y128831D02*
X63825Y128771D01*
X63726Y128671D01*
X63640Y128531D01*
X63567Y128351D01*
X63507Y128131D01*
X63461Y127871D01*
X63428Y127571D01*
X63402Y126851D01*
X61402D01*
X61395Y127231D01*
X61342Y127871D01*
X61296Y128131D01*
X61236Y128351D01*
X61164Y128531D01*
X61078Y128671D01*
X60978Y128771D01*
X60866Y128831D01*
X60740Y128851D01*
X64063D01*
X63937Y128831D01*
D02*
G37*
G36*
X166067Y124591D02*
X166057Y124686D01*
X166027Y124771D01*
X165976Y124846D01*
X165905Y124911D01*
X165814Y124966D01*
X165703Y125011D01*
X165571Y125046D01*
X165420Y125071D01*
X165248Y125086D01*
X165055Y125091D01*
Y126091D01*
X165248Y126096D01*
X165420Y126111D01*
X165571Y126136D01*
X165703Y126171D01*
X165814Y126216D01*
X165905Y126271D01*
X165976Y126336D01*
X166027Y126411D01*
X166057Y126496D01*
X166067Y126591D01*
Y124591D01*
D02*
G37*
G36*
X162683Y126496D02*
X162713Y126411D01*
X162764Y126336D01*
X162835Y126271D01*
X162926Y126216D01*
X163037Y126171D01*
X163169Y126136D01*
X163321Y126111D01*
X163493Y126096D01*
X163685Y126091D01*
Y125091D01*
X163493Y125086D01*
X163321Y125071D01*
X163169Y125046D01*
X163037Y125011D01*
X162926Y124966D01*
X162835Y124911D01*
X162764Y124846D01*
X162713Y124771D01*
X162683Y124686D01*
X162673Y124591D01*
Y126591D01*
X162683Y126496D01*
D02*
G37*
G36*
X154244Y124591D02*
X154234Y124686D01*
X154204Y124771D01*
X154154Y124846D01*
X154084Y124911D01*
X153994Y124966D01*
X153884Y125011D01*
X153754Y125046D01*
X153604Y125071D01*
X153434Y125086D01*
X153244Y125091D01*
Y126091D01*
X153434Y126096D01*
X153604Y126111D01*
X153754Y126136D01*
X153884Y126171D01*
X153994Y126216D01*
X154084Y126271D01*
X154154Y126336D01*
X154204Y126411D01*
X154234Y126496D01*
X154244Y126591D01*
Y124591D01*
D02*
G37*
G36*
X191783Y124782D02*
X191681Y124660D01*
X191590Y124535D01*
X191512Y124408D01*
X191446Y124278D01*
X191392Y124145D01*
X191349Y124010D01*
X191319Y123872D01*
X191301Y123731D01*
X191295Y123588D01*
X190295D01*
X190289Y123731D01*
X190271Y123872D01*
X190241Y124010D01*
X190199Y124145D01*
X190145Y124278D01*
X190078Y124408D01*
X190000Y124535D01*
X189910Y124660D01*
X189807Y124782D01*
X189693Y124902D01*
X191898D01*
X191783Y124782D01*
D02*
G37*
G36*
X174527Y124030D02*
X174442Y123999D01*
X174367Y123949D01*
X174302Y123878D01*
X174247Y123787D01*
X174202Y123675D01*
X174167Y123544D01*
X174142Y123392D01*
X174127Y123220D01*
X174122Y123028D01*
X173122D01*
X173117Y123220D01*
X173102Y123392D01*
X173077Y123544D01*
X173042Y123675D01*
X172997Y123787D01*
X172942Y123878D01*
X172877Y123949D01*
X172802Y123999D01*
X172717Y124030D01*
X172622Y124040D01*
X174622D01*
X174527Y124030D01*
D02*
G37*
G36*
X185634Y123499D02*
X185531Y123377D01*
X185441Y123252D01*
X185363Y123125D01*
X185296Y122995D01*
X185242Y122862D01*
X185200Y122727D01*
X185170Y122589D01*
X185152Y122448D01*
X185146Y122305D01*
X184146D01*
X184140Y122448D01*
X184122Y122589D01*
X184091Y122727D01*
X184049Y122862D01*
X183995Y122995D01*
X183929Y123125D01*
X183851Y123252D01*
X183760Y123377D01*
X183658Y123499D01*
X183543Y123618D01*
X185748D01*
X185634Y123499D01*
D02*
G37*
G36*
X62425Y122868D02*
X62486Y122228D01*
X62539Y121968D01*
X62607Y121748D01*
X62691Y121568D01*
X62789Y121428D01*
X62903Y121328D01*
X63033Y121268D01*
X63177Y121248D01*
X59658D01*
X59802Y121268D01*
X59931Y121328D01*
X60045Y121428D01*
X60144Y121568D01*
X60227Y121748D01*
X60296Y121968D01*
X60349Y122228D01*
X60387Y122528D01*
X60410Y122868D01*
X60417Y123248D01*
X62417D01*
X62425Y122868D01*
D02*
G37*
G36*
X148928Y121885D02*
X148831Y121779D01*
X148744Y121667D01*
X148668Y121548D01*
X148602Y121423D01*
X148547Y121291D01*
X148502Y121152D01*
X148467Y121006D01*
X148442Y120854D01*
X148429Y120695D01*
X148425Y120530D01*
X146866Y122089D01*
X147031Y122093D01*
X147190Y122107D01*
X147342Y122131D01*
X147488Y122166D01*
X147626Y122211D01*
X147759Y122266D01*
X147884Y122332D01*
X148003Y122408D01*
X148115Y122495D01*
X148221Y122592D01*
X148928Y121885D01*
D02*
G37*
G36*
X180821Y120799D02*
X180839Y120658D01*
X180869Y120520D01*
X180911Y120385D01*
X180966Y120252D01*
X181032Y120122D01*
X181110Y119995D01*
X181201Y119870D01*
X181303Y119748D01*
X181417Y119629D01*
X179213D01*
X179327Y119748D01*
X179429Y119870D01*
X179520Y119995D01*
X179598Y120122D01*
X179664Y120252D01*
X179719Y120385D01*
X179761Y120520D01*
X179791Y120658D01*
X179809Y120799D01*
X179815Y120942D01*
X180815D01*
X180821Y120799D01*
D02*
G37*
G36*
X183116Y117206D02*
Y101597D01*
X183233Y101011D01*
X183564Y100515D01*
X186266Y97813D01*
Y88035D01*
X185035Y86804D01*
X184573Y86996D01*
Y88643D01*
X178419D01*
Y88144D01*
X177870D01*
Y89091D01*
X174904D01*
X174632Y89591D01*
X174840Y89951D01*
X174910Y90210D01*
X175383Y90513D01*
X175468Y90491D01*
X176039Y90339D01*
X176717D01*
X177372Y90514D01*
X177959Y90853D01*
X178438Y91332D01*
X178777Y91920D01*
X178953Y92574D01*
Y93252D01*
X178777Y93907D01*
X178438Y94494D01*
X178357Y94576D01*
X178334Y94618D01*
X178245Y94723D01*
X178186Y94802D01*
X178137Y94877D01*
X178098Y94948D01*
X178094Y94957D01*
X178187Y95223D01*
X178231Y95301D01*
X178273Y95351D01*
X178380Y95445D01*
X178398Y95457D01*
X182496D01*
Y106118D01*
X174984D01*
Y98679D01*
X174955Y98532D01*
Y95280D01*
X174955Y95280D01*
X174945Y95236D01*
X174931Y95193D01*
X174912Y95150D01*
X174887Y95105D01*
X174854Y95056D01*
X174811Y95003D01*
X174757Y94946D01*
X174665Y94861D01*
X174611Y94788D01*
X174318Y94494D01*
X173979Y93907D01*
X173909Y93648D01*
X173436Y93345D01*
X173351Y93367D01*
X172780Y93520D01*
X172102D01*
X171865Y93456D01*
X171781Y93453D01*
X171679Y93429D01*
X171634Y93423D01*
X171602Y93422D01*
X171580Y93424D01*
X171565Y93426D01*
X171552Y93431D01*
X171537Y93437D01*
X171519Y93448D01*
X171454Y93513D01*
X171267Y93638D01*
X171223Y93675D01*
X171200Y93683D01*
X171192Y93688D01*
X171108Y93772D01*
Y98532D01*
X171079Y98679D01*
Y106118D01*
X171438Y106458D01*
X171451Y106461D01*
X171948Y106793D01*
X174704Y109548D01*
X175035Y110045D01*
X175151Y110630D01*
Y111205D01*
X176197D01*
Y113890D01*
X176204Y113928D01*
X176197Y113966D01*
Y114153D01*
X176408Y114402D01*
X177680Y115674D01*
X178011Y116171D01*
X178059Y116411D01*
X178602Y116576D01*
X178734Y116444D01*
X179321Y116105D01*
X179976Y115929D01*
X180654D01*
X181309Y116105D01*
X181896Y116444D01*
X182375Y116923D01*
X182616Y117340D01*
X183116Y117206D01*
D02*
G37*
G36*
X175892Y115342D02*
X175694Y115137D01*
X175383Y114770D01*
X175270Y114607D01*
X175185Y114458D01*
X175128Y114324D01*
X175100Y114204D01*
Y114098D01*
X175128Y114006D01*
X175185Y113928D01*
X173771Y115342D01*
X173848Y115286D01*
X173940Y115258D01*
X174046D01*
X174167Y115286D01*
X174301Y115342D01*
X174450Y115427D01*
X174612Y115540D01*
X174789Y115682D01*
X175185Y116049D01*
X175892Y115342D01*
D02*
G37*
G36*
X197749Y114871D02*
X197764Y114699D01*
X197789Y114547D01*
X197824Y114415D01*
X197869Y114304D01*
X197924Y114213D01*
X197989Y114142D01*
X198064Y114091D01*
X198149Y114061D01*
X198244Y114051D01*
X196244D01*
X196339Y114061D01*
X196424Y114091D01*
X196499Y114142D01*
X196564Y114213D01*
X196619Y114304D01*
X196664Y114415D01*
X196699Y114547D01*
X196724Y114699D01*
X196739Y114871D01*
X196744Y115063D01*
X197744D01*
X197749Y114871D01*
D02*
G37*
G36*
X63033Y117315D02*
X62903Y117255D01*
X62789Y117155D01*
X62691Y117015D01*
X62607Y116835D01*
X62539Y116615D01*
X62486Y116355D01*
X62448Y116055D01*
X62425Y115715D01*
X62421Y115536D01*
X62424Y115387D01*
X62477Y114748D01*
X62523Y114488D01*
X62583Y114268D01*
X62655Y114087D01*
X62741Y113947D01*
X62840Y113847D01*
X62953Y113787D01*
X63078Y113768D01*
X59559D01*
X59722Y113787D01*
X59868Y113847D01*
X59997Y113947D01*
X60108Y114087D01*
X60203Y114268D01*
X60280Y114488D01*
X60340Y114748D01*
X60383Y115048D01*
X60409Y115387D01*
X60413Y115564D01*
X60410Y115715D01*
X60349Y116355D01*
X60296Y116615D01*
X60227Y116835D01*
X60144Y117015D01*
X60045Y117155D01*
X59931Y117255D01*
X59802Y117315D01*
X59658Y117335D01*
X63177D01*
X63033Y117315D01*
D02*
G37*
G36*
X73803Y127347D02*
X74356D01*
Y127264D01*
X74473Y126679D01*
X74804Y126182D01*
X79967Y121020D01*
Y113559D01*
X73692D01*
X73654Y113567D01*
X73616Y113559D01*
X72642D01*
Y112890D01*
X72523Y112866D01*
X72112Y112827D01*
X70766D01*
X70340Y113253D01*
X69678Y113695D01*
X68898Y113850D01*
X64623D01*
X64482Y113862D01*
X64266Y113896D01*
X64113Y113936D01*
X64091Y113945D01*
Y114779D01*
X63507D01*
X63489Y114879D01*
X63456Y115272D01*
Y115859D01*
X63463Y115957D01*
X63492Y116188D01*
X63520Y116323D01*
X64189D01*
Y117297D01*
X64197Y117335D01*
X64189Y117373D01*
Y121210D01*
X64197Y121248D01*
X64189Y121286D01*
Y122260D01*
X63520D01*
X63495Y122379D01*
X63456Y122790D01*
Y123959D01*
X63844Y124346D01*
X64285Y125007D01*
X64441Y125787D01*
Y127365D01*
X64446Y127496D01*
X64471Y127725D01*
X64491Y127839D01*
X70193D01*
Y129179D01*
X70472D01*
X71058Y129296D01*
X71554Y129627D01*
X72681Y130754D01*
X73803D01*
Y127347D01*
D02*
G37*
G36*
X166166Y112779D02*
X166156Y112874D01*
X166125Y112960D01*
X166075Y113034D01*
X166004Y113100D01*
X165913Y113154D01*
X165801Y113199D01*
X165670Y113234D01*
X165518Y113259D01*
X165346Y113275D01*
X165154Y113279D01*
Y114279D01*
X165346Y114285D01*
X165518Y114299D01*
X165670Y114324D01*
X165801Y114359D01*
X165913Y114404D01*
X166004Y114460D01*
X166075Y114524D01*
X166125Y114600D01*
X166156Y114684D01*
X166166Y114779D01*
Y112779D01*
D02*
G37*
G36*
X162498Y114684D02*
X162528Y114600D01*
X162578Y114524D01*
X162648Y114460D01*
X162738Y114404D01*
X162848Y114359D01*
X162978Y114324D01*
X163128Y114299D01*
X163298Y114285D01*
X163488Y114279D01*
Y113279D01*
X163298Y113275D01*
X163128Y113259D01*
X162978Y113234D01*
X162848Y113199D01*
X162738Y113154D01*
X162648Y113100D01*
X162578Y113034D01*
X162528Y112960D01*
X162498Y112874D01*
X162488Y112779D01*
Y114779D01*
X162498Y114684D01*
D02*
G37*
G36*
X174527Y112219D02*
X174442Y112188D01*
X174367Y112138D01*
X174302Y112067D01*
X174247Y111976D01*
X174202Y111864D01*
X174167Y111733D01*
X174142Y111581D01*
X174127Y111409D01*
X174122Y111217D01*
X173122D01*
X173117Y111409D01*
X173102Y111581D01*
X173077Y111733D01*
X173042Y111864D01*
X172997Y111976D01*
X172942Y112067D01*
X172877Y112138D01*
X172802Y112188D01*
X172717Y112219D01*
X172622Y112229D01*
X174622D01*
X174527Y112219D01*
D02*
G37*
G36*
X208095Y111205D02*
X208085Y111300D01*
X208054Y111385D01*
X208004Y111460D01*
X207933Y111525D01*
X207842Y111580D01*
X207731Y111625D01*
X207599Y111660D01*
X207447Y111685D01*
X207275Y111700D01*
X207083Y111705D01*
Y112705D01*
X207275Y112710D01*
X207447Y112725D01*
X207599Y112750D01*
X207731Y112785D01*
X207842Y112830D01*
X207933Y112885D01*
X208004Y112950D01*
X208054Y113025D01*
X208085Y113110D01*
X208095Y113205D01*
Y111205D01*
D02*
G37*
G36*
X204022Y113110D02*
X204052Y113025D01*
X204102Y112950D01*
X204173Y112885D01*
X204264Y112830D01*
X204376Y112785D01*
X204507Y112750D01*
X204659Y112725D01*
X204831Y112710D01*
X205023Y112705D01*
Y111705D01*
X204831Y111700D01*
X204659Y111685D01*
X204507Y111660D01*
X204376Y111625D01*
X204264Y111580D01*
X204173Y111525D01*
X204102Y111460D01*
X204052Y111385D01*
X204022Y111300D01*
X204011Y111205D01*
Y113205D01*
X204022Y113110D01*
D02*
G37*
G36*
X156614Y111923D02*
X156529Y111893D01*
X156454Y111842D01*
X156389Y111772D01*
X156334Y111680D01*
X156289Y111569D01*
X156254Y111438D01*
X156229Y111286D01*
X156214Y111114D01*
X156209Y110922D01*
X155209D01*
X155204Y111114D01*
X155189Y111286D01*
X155164Y111438D01*
X155129Y111569D01*
X155084Y111680D01*
X155029Y111772D01*
X154964Y111842D01*
X154889Y111893D01*
X154804Y111923D01*
X154709Y111933D01*
X156709D01*
X156614Y111923D01*
D02*
G37*
G36*
X131999Y112000D02*
X131902Y111895D01*
X131815Y111783D01*
X131739Y111664D01*
X131673Y111538D01*
X131617Y111406D01*
X131572Y111267D01*
X131538Y111122D01*
X131513Y110970D01*
X131500Y110811D01*
X131496Y110646D01*
X129937Y112205D01*
X130102Y112208D01*
X130261Y112222D01*
X130413Y112246D01*
X130559Y112281D01*
X130697Y112326D01*
X130830Y112382D01*
X130955Y112448D01*
X131074Y112524D01*
X131186Y112610D01*
X131292Y112707D01*
X131999Y112000D01*
D02*
G37*
G36*
X63099Y113586D02*
X63159Y113423D01*
X63259Y113280D01*
X63399Y113155D01*
X63578Y113050D01*
X63799Y112964D01*
X64059Y112897D01*
X64359Y112849D01*
X64699Y112821D01*
X65079Y112811D01*
Y110811D01*
X64699Y110801D01*
X64359Y110773D01*
X64059Y110725D01*
X63799Y110658D01*
X63578Y110572D01*
X63399Y110467D01*
X63259Y110342D01*
X63159Y110199D01*
X63099Y110036D01*
X63078Y109854D01*
Y113768D01*
X63099Y113586D01*
D02*
G37*
G36*
X142563Y109811D02*
X142554Y109892D01*
X142526Y109964D01*
X142479Y110028D01*
X142413Y110084D01*
X142329Y110131D01*
X142226Y110169D01*
X142104Y110199D01*
X141963Y110220D01*
X141803Y110233D01*
X141625Y110237D01*
Y111237D01*
X141803Y111241D01*
X141963Y111254D01*
X142104Y111275D01*
X142226Y111305D01*
X142329Y111344D01*
X142413Y111390D01*
X142479Y111446D01*
X142526Y111510D01*
X142554Y111582D01*
X142563Y111663D01*
Y109811D01*
D02*
G37*
G36*
X73654Y109028D02*
X73634Y109172D01*
X73574Y109301D01*
X73474Y109415D01*
X73334Y109514D01*
X73154Y109598D01*
X72934Y109666D01*
X72674Y109719D01*
X72374Y109757D01*
X72034Y109780D01*
X71654Y109787D01*
Y111787D01*
X72034Y111795D01*
X72674Y111856D01*
X72934Y111909D01*
X73154Y111977D01*
X73334Y112061D01*
X73474Y112160D01*
X73574Y112274D01*
X73634Y112403D01*
X73654Y112547D01*
Y109028D01*
D02*
G37*
G36*
X138586Y110449D02*
X138600Y110290D01*
X138624Y110138D01*
X138659Y109993D01*
X138704Y109854D01*
X138760Y109722D01*
X138826Y109596D01*
X138902Y109477D01*
X138988Y109365D01*
X139085Y109259D01*
X138378Y108552D01*
X138273Y108649D01*
X138161Y108736D01*
X138042Y108812D01*
X137916Y108878D01*
X137784Y108934D01*
X137645Y108979D01*
X137500Y109013D01*
X137348Y109038D01*
X137189Y109052D01*
X137024Y109055D01*
X138583Y110614D01*
X138586Y110449D01*
D02*
G37*
G36*
X160317Y108237D02*
X160198Y108352D01*
X160077Y108455D01*
X159953Y108545D01*
X159826Y108624D01*
X159696Y108691D01*
X159563Y108745D01*
X159428Y108787D01*
X159290Y108817D01*
X159150Y108835D01*
X159006Y108842D01*
X159011Y109842D01*
X159154Y109847D01*
X159295Y109866D01*
X159433Y109896D01*
X159568Y109938D01*
X159701Y109992D01*
X159831Y110058D01*
X159959Y110136D01*
X160084Y110226D01*
X160207Y110328D01*
X160327Y110442D01*
X160317Y108237D01*
D02*
G37*
G36*
X62834Y109846D02*
X62664Y109785D01*
X62514Y109684D01*
X62384Y109543D01*
X62274Y109362D01*
X62184Y109141D01*
X62114Y108879D01*
X62064Y108578D01*
X62034Y108236D01*
X62024Y107854D01*
X60024D01*
X60019Y108235D01*
X59949Y109134D01*
X59908Y109354D01*
X59856Y109535D01*
X59796Y109675D01*
X59726Y109774D01*
X59648Y109835D01*
X59559Y109854D01*
X63024Y109866D01*
X62834Y109846D01*
D02*
G37*
G36*
X62029Y107317D02*
X62074Y106677D01*
X62114Y106417D01*
X62164Y106197D01*
X62226Y106017D01*
X62299Y105877D01*
X62384Y105777D01*
X62480Y105717D01*
X62586Y105697D01*
X59461D01*
X59568Y105717D01*
X59663Y105777D01*
X59748Y105877D01*
X59821Y106017D01*
X59883Y106197D01*
X59934Y106417D01*
X59973Y106677D01*
X60001Y106977D01*
X60024Y107697D01*
X62024D01*
X62029Y107317D01*
D02*
G37*
G36*
X142563Y105086D02*
X142554Y105167D01*
X142526Y105240D01*
X142479Y105304D01*
X142413Y105359D01*
X142329Y105406D01*
X142226Y105444D01*
X142104Y105474D01*
X141963Y105496D01*
X141803Y105508D01*
X141625Y105513D01*
Y106513D01*
X141803Y106517D01*
X141963Y106530D01*
X142104Y106551D01*
X142226Y106581D01*
X142329Y106619D01*
X142413Y106666D01*
X142479Y106721D01*
X142526Y106785D01*
X142554Y106858D01*
X142563Y106939D01*
Y105086D01*
D02*
G37*
G36*
X79533Y106677D02*
X79564Y106592D01*
X79614Y106517D01*
X79685Y106452D01*
X79776Y106397D01*
X79888Y106352D01*
X80019Y106317D01*
X80171Y106292D01*
X80343Y106277D01*
X80535Y106272D01*
Y105272D01*
X80343Y105267D01*
X80171Y105252D01*
X80019Y105227D01*
X79888Y105192D01*
X79776Y105147D01*
X79685Y105092D01*
X79614Y105027D01*
X79564Y104952D01*
X79533Y104867D01*
X79523Y104772D01*
Y106772D01*
X79533Y106677D01*
D02*
G37*
G36*
X87949Y104712D02*
X87818Y104818D01*
X87686Y104914D01*
X87553Y104998D01*
X87419Y105070D01*
X87284Y105132D01*
X87147Y105183D01*
X87010Y105222D01*
X86871Y105250D01*
X86731Y105267D01*
X86590Y105272D01*
X86500Y106272D01*
X86645Y106279D01*
X86786Y106298D01*
X86923Y106330D01*
X87055Y106374D01*
X87184Y106431D01*
X87308Y106501D01*
X87428Y106584D01*
X87544Y106679D01*
X87655Y106788D01*
X87762Y106909D01*
X87949Y104712D01*
D02*
G37*
G36*
X194693Y104554D02*
X194647Y104501D01*
X194607Y104436D01*
X194572Y104360D01*
X194542Y104273D01*
X194518Y104174D01*
X194500Y104063D01*
X194486Y103941D01*
X194475Y103662D01*
X193475D01*
X193472Y103794D01*
X193449Y104024D01*
X193428Y104123D01*
X193401Y104211D01*
X193369Y104288D01*
X193330Y104355D01*
X193286Y104411D01*
X193236Y104456D01*
X193179Y104490D01*
X194744Y104595D01*
X194693Y104554D01*
D02*
G37*
G36*
X195591Y102761D02*
X195959Y102450D01*
X196121Y102337D01*
X196270Y102252D01*
X196404Y102195D01*
X196525Y102167D01*
X196631D01*
X196722Y102195D01*
X196800Y102252D01*
X195386Y100838D01*
X195443Y100915D01*
X195471Y101007D01*
Y101113D01*
X195443Y101234D01*
X195386Y101368D01*
X195301Y101516D01*
X195188Y101679D01*
X195047Y101856D01*
X194679Y102252D01*
X195386Y102959D01*
X195591Y102761D01*
D02*
G37*
G36*
X148431Y101692D02*
X148461Y101607D01*
X148512Y101532D01*
X148583Y101467D01*
X148674Y101412D01*
X148785Y101367D01*
X148917Y101332D01*
X149069Y101307D01*
X149241Y101292D01*
X149433Y101287D01*
Y100287D01*
X149241Y100282D01*
X149069Y100267D01*
X148917Y100242D01*
X148785Y100207D01*
X148674Y100162D01*
X148583Y100107D01*
X148512Y100042D01*
X148461Y99967D01*
X148431Y99882D01*
X148421Y99787D01*
Y101787D01*
X148431Y101692D01*
D02*
G37*
G36*
X79533D02*
X79564Y101607D01*
X79614Y101532D01*
X79685Y101467D01*
X79776Y101412D01*
X79888Y101367D01*
X80019Y101332D01*
X80171Y101307D01*
X80343Y101292D01*
X80535Y101287D01*
Y100287D01*
X80343Y100282D01*
X80171Y100267D01*
X80019Y100242D01*
X79888Y100207D01*
X79776Y100162D01*
X79685Y100107D01*
X79614Y100042D01*
X79564Y99967D01*
X79533Y99882D01*
X79523Y99787D01*
Y101787D01*
X79533Y101692D01*
D02*
G37*
G36*
X61244Y101214D02*
X61305Y100574D01*
X61358Y100314D01*
X61426Y100094D01*
X61510Y99914D01*
X61608Y99774D01*
X61722Y99674D01*
X61852Y99614D01*
X61996Y99594D01*
X58477D01*
X58621Y99614D01*
X58750Y99674D01*
X58864Y99774D01*
X58963Y99914D01*
X59046Y100094D01*
X59115Y100314D01*
X59168Y100574D01*
X59206Y100874D01*
X59229Y101214D01*
X59236Y101594D01*
X61236D01*
X61244Y101214D01*
D02*
G37*
G36*
X207898Y99394D02*
X207888Y99489D01*
X207857Y99574D01*
X207807Y99649D01*
X207736Y99714D01*
X207645Y99769D01*
X207534Y99814D01*
X207402Y99849D01*
X207250Y99874D01*
X207078Y99889D01*
X206886Y99894D01*
Y100894D01*
X207078Y100899D01*
X207250Y100914D01*
X207402Y100939D01*
X207534Y100974D01*
X207645Y101019D01*
X207736Y101074D01*
X207807Y101139D01*
X207857Y101214D01*
X207888Y101299D01*
X207898Y101394D01*
Y99394D01*
D02*
G37*
G36*
X203825Y101299D02*
X203855Y101214D01*
X203906Y101139D01*
X203976Y101074D01*
X204068Y101019D01*
X204179Y100974D01*
X204310Y100939D01*
X204462Y100914D01*
X204634Y100899D01*
X204827Y100894D01*
Y99894D01*
X204634Y99889D01*
X204462Y99874D01*
X204310Y99849D01*
X204179Y99814D01*
X204068Y99769D01*
X203976Y99714D01*
X203906Y99649D01*
X203855Y99574D01*
X203825Y99489D01*
X203815Y99394D01*
Y101394D01*
X203825Y101299D01*
D02*
G37*
G36*
X177389Y96470D02*
X177304Y96439D01*
X177229Y96388D01*
X177164Y96317D01*
X177109Y96226D01*
X177064Y96114D01*
X177029Y95983D01*
X177004Y95832D01*
X176989Y95660D01*
X176984Y95469D01*
X175984D01*
X175996Y96469D01*
X177484Y96481D01*
X177389Y96470D01*
D02*
G37*
G36*
X170067Y96469D02*
X170079Y95469D01*
X169079D01*
X169074Y95660D01*
X169059Y95832D01*
X169034Y95983D01*
X168999Y96114D01*
X168954Y96226D01*
X168899Y96317D01*
X168834Y96388D01*
X168759Y96439D01*
X168674Y96470D01*
X168579Y96481D01*
X170067Y96469D01*
D02*
G37*
G36*
X148431Y96692D02*
X148461Y96607D01*
X148512Y96532D01*
X148583Y96467D01*
X148674Y96412D01*
X148785Y96367D01*
X148917Y96332D01*
X149069Y96307D01*
X149241Y96292D01*
X149433Y96287D01*
Y95287D01*
X149241Y95282D01*
X149069Y95267D01*
X148917Y95242D01*
X148785Y95207D01*
X148674Y95162D01*
X148583Y95107D01*
X148512Y95042D01*
X148461Y94967D01*
X148431Y94882D01*
X148421Y94787D01*
Y96787D01*
X148431Y96692D01*
D02*
G37*
G36*
X176984Y95312D02*
X176990Y95170D01*
X177007Y95030D01*
X177035Y94891D01*
X177075Y94754D01*
X177127Y94618D01*
X177189Y94484D01*
X177263Y94351D01*
X177349Y94220D01*
X177445Y94090D01*
X177554Y93961D01*
X175354Y94110D01*
X175474Y94220D01*
X175581Y94333D01*
X175675Y94451D01*
X175757Y94573D01*
X175827Y94698D01*
X175883Y94827D01*
X175927Y94960D01*
X175959Y95097D01*
X175978Y95238D01*
X175984Y95383D01*
X176984Y95312D01*
D02*
G37*
G36*
X170836Y92685D02*
X170949Y92600D01*
X171067Y92531D01*
X171190Y92476D01*
X171316Y92436D01*
X171447Y92411D01*
X171582Y92401D01*
X171722Y92406D01*
X171866Y92426D01*
X172014Y92461D01*
X170917Y90549D01*
X170870Y90716D01*
X170761Y91027D01*
X170699Y91171D01*
X170560Y91436D01*
X170482Y91558D01*
X170400Y91672D01*
X170313Y91778D01*
X170220Y91877D01*
X170727Y92785D01*
X170836Y92685D01*
D02*
G37*
G36*
X142563Y89787D02*
X142553Y89882D01*
X142523Y89967D01*
X142472Y90042D01*
X142402Y90107D01*
X142310Y90162D01*
X142199Y90207D01*
X142068Y90242D01*
X141916Y90267D01*
X141744Y90282D01*
X141551Y90287D01*
Y91287D01*
X141744Y91292D01*
X141916Y91307D01*
X142068Y91332D01*
X142199Y91367D01*
X142310Y91412D01*
X142402Y91467D01*
X142472Y91532D01*
X142523Y91607D01*
X142553Y91692D01*
X142563Y91787D01*
Y89787D01*
D02*
G37*
G36*
X139939Y91814D02*
X140045Y91704D01*
X140156Y91606D01*
X140272Y91522D01*
X140393Y91450D01*
X140519Y91391D01*
X140650Y91346D01*
X140786Y91313D01*
X140927Y91294D01*
X141073Y91287D01*
X140938Y90287D01*
X140799Y90282D01*
X140659Y90266D01*
X140520Y90239D01*
X140382Y90202D01*
X140243Y90153D01*
X140105Y90094D01*
X139968Y90025D01*
X139831Y89944D01*
X139695Y89853D01*
X139559Y89751D01*
X139838Y91938D01*
X139939Y91814D01*
D02*
G37*
G36*
X207701Y87976D02*
X207691Y88071D01*
X207661Y88156D01*
X207610Y88231D01*
X207539Y88296D01*
X207448Y88351D01*
X207337Y88396D01*
X207205Y88431D01*
X207053Y88456D01*
X206881Y88471D01*
X206689Y88476D01*
Y89476D01*
X206881Y89481D01*
X207053Y89496D01*
X207205Y89521D01*
X207337Y89556D01*
X207448Y89601D01*
X207539Y89656D01*
X207610Y89721D01*
X207661Y89796D01*
X207691Y89881D01*
X207701Y89976D01*
Y87976D01*
D02*
G37*
G36*
X204022Y89881D02*
X204052Y89796D01*
X204102Y89721D01*
X204173Y89656D01*
X204264Y89601D01*
X204376Y89556D01*
X204507Y89521D01*
X204659Y89496D01*
X204831Y89481D01*
X205023Y89476D01*
Y88476D01*
X204831Y88471D01*
X204659Y88456D01*
X204507Y88431D01*
X204376Y88396D01*
X204264Y88351D01*
X204173Y88296D01*
X204102Y88231D01*
X204052Y88156D01*
X204022Y88071D01*
X204011Y87976D01*
Y89976D01*
X204022Y89881D01*
D02*
G37*
G36*
X198149Y87120D02*
X198064Y87090D01*
X197989Y87039D01*
X197924Y86968D01*
X197869Y86877D01*
X197824Y86766D01*
X197789Y86634D01*
X197764Y86483D01*
X197749Y86311D01*
X197744Y86118D01*
X196744D01*
X196739Y86311D01*
X196724Y86483D01*
X196699Y86634D01*
X196664Y86766D01*
X196619Y86877D01*
X196564Y86968D01*
X196499Y87039D01*
X196424Y87090D01*
X196339Y87120D01*
X196244Y87130D01*
X198244D01*
X198149Y87120D01*
D02*
G37*
G36*
X165363Y87485D02*
X165504Y87407D01*
X165647Y87338D01*
X165792Y87279D01*
X165940Y87229D01*
X166091Y87187D01*
X166244Y87155D01*
X166399Y87133D01*
X166557Y87119D01*
X166717Y87114D01*
Y86114D01*
X166557Y86110D01*
X166399Y86096D01*
X166244Y86073D01*
X166091Y86041D01*
X165940Y86000D01*
X165792Y85949D01*
X165647Y85890D01*
X165504Y85821D01*
X165363Y85744D01*
X165225Y85657D01*
Y87572D01*
X165363Y87485D01*
D02*
G37*
G36*
X179443Y85614D02*
X179433Y85709D01*
X179402Y85794D01*
X179352Y85869D01*
X179281Y85934D01*
X179190Y85989D01*
X179078Y86034D01*
X178947Y86069D01*
X178795Y86094D01*
X178623Y86109D01*
X178431Y86114D01*
Y87114D01*
X178623Y87119D01*
X178795Y87134D01*
X178947Y87159D01*
X179078Y87194D01*
X179190Y87239D01*
X179281Y87294D01*
X179352Y87359D01*
X179402Y87434D01*
X179433Y87519D01*
X179443Y87614D01*
Y85614D01*
D02*
G37*
G36*
X176856Y87519D02*
X176887Y87434D01*
X176937Y87359D01*
X177008Y87294D01*
X177099Y87239D01*
X177210Y87194D01*
X177342Y87159D01*
X177494Y87134D01*
X177666Y87119D01*
X177858Y87114D01*
Y86114D01*
X177666Y86109D01*
X177494Y86094D01*
X177342Y86069D01*
X177210Y86034D01*
X177099Y85989D01*
X177008Y85934D01*
X176937Y85869D01*
X176887Y85794D01*
X176856Y85709D01*
X176846Y85614D01*
Y87614D01*
X176856Y87519D01*
D02*
G37*
G36*
X168418Y85614D02*
X168407Y85709D01*
X168377Y85794D01*
X168327Y85869D01*
X168257Y85934D01*
X168167Y85989D01*
X168058Y86034D01*
X167928Y86069D01*
X167778Y86094D01*
X167607Y86109D01*
X167418Y86114D01*
Y87114D01*
X167607Y87119D01*
X167778Y87134D01*
X167928Y87159D01*
X168058Y87194D01*
X168167Y87239D01*
X168257Y87294D01*
X168327Y87359D01*
X168377Y87434D01*
X168407Y87519D01*
X168418Y87614D01*
Y85614D01*
D02*
G37*
G36*
X164412Y85590D02*
X164317Y85583D01*
X164232Y85554D01*
X164157Y85505D01*
X164092Y85435D01*
X164037Y85345D01*
X163992Y85233D01*
X163957Y85101D01*
X163932Y84947D01*
X163917Y84773D01*
X163912Y84578D01*
X162912D01*
X162907Y84779D01*
X162892Y84960D01*
X162867Y85119D01*
X162832Y85258D01*
X162787Y85376D01*
X162733Y85473D01*
X162668Y85550D01*
X162593Y85605D01*
X162508Y85639D01*
X162414Y85653D01*
X164412Y85590D01*
D02*
G37*
G36*
X157791Y81840D02*
X157706Y81809D01*
X157631Y81759D01*
X157566Y81688D01*
X157511Y81597D01*
X157466Y81485D01*
X157431Y81354D01*
X157406Y81202D01*
X157391Y81030D01*
X157386Y80838D01*
X156386D01*
X156381Y81030D01*
X156366Y81202D01*
X156341Y81354D01*
X156306Y81485D01*
X156261Y81597D01*
X156206Y81688D01*
X156141Y81759D01*
X156066Y81809D01*
X155981Y81840D01*
X155886Y81850D01*
X157886D01*
X157791Y81840D01*
D02*
G37*
G36*
X189295Y81840D02*
X189210Y81809D01*
X189135Y81758D01*
X189070Y81688D01*
X189015Y81597D01*
X188970Y81485D01*
X188935Y81354D01*
X188910Y81202D01*
X188895Y81030D01*
X188890Y80838D01*
X187890D01*
X187885Y81030D01*
X187870Y81202D01*
X187845Y81354D01*
X187810Y81485D01*
X187765Y81597D01*
X187710Y81688D01*
X187645Y81758D01*
X187570Y81809D01*
X187485Y81840D01*
X187390Y81850D01*
X189390D01*
X189295Y81840D01*
D02*
G37*
G36*
X182000Y80923D02*
X182013Y80762D01*
X182035Y80621D01*
X182065Y80498D01*
X182104Y80394D01*
X182152Y80309D01*
X182208Y80243D01*
X182273Y80196D01*
X182346Y80168D01*
X182428Y80158D01*
X180564D01*
X180646Y80168D01*
X180719Y80196D01*
X180784Y80243D01*
X180841Y80309D01*
X180888Y80394D01*
X180927Y80498D01*
X180957Y80621D01*
X180979Y80762D01*
X180992Y80923D01*
X180996Y81102D01*
X181996D01*
X182000Y80923D01*
D02*
G37*
G36*
X180051Y78176D02*
X179913Y78263D01*
X179772Y78341D01*
X179629Y78410D01*
X179483Y78469D01*
X179335Y78519D01*
X179185Y78561D01*
X179032Y78593D01*
X178877Y78616D01*
X178719Y78629D01*
X178559Y78634D01*
Y79634D01*
X178719Y79638D01*
X178877Y79652D01*
X179032Y79675D01*
X179185Y79707D01*
X179335Y79748D01*
X179483Y79799D01*
X179629Y79858D01*
X179772Y79927D01*
X179913Y80004D01*
X180051Y80091D01*
Y78176D01*
D02*
G37*
G36*
X176868Y80039D02*
X176898Y79954D01*
X176948Y79879D01*
X177018Y79814D01*
X177108Y79759D01*
X177218Y79714D01*
X177348Y79679D01*
X177498Y79654D01*
X177668Y79639D01*
X177858Y79634D01*
Y78634D01*
X177668Y78629D01*
X177498Y78614D01*
X177348Y78589D01*
X177218Y78554D01*
X177108Y78509D01*
X177018Y78454D01*
X176948Y78389D01*
X176898Y78314D01*
X176868Y78229D01*
X176858Y78134D01*
Y80134D01*
X176868Y80039D01*
D02*
G37*
G36*
X168430Y78134D02*
X168419Y78229D01*
X168389Y78314D01*
X168338Y78389D01*
X168268Y78454D01*
X168176Y78509D01*
X168065Y78554D01*
X167934Y78589D01*
X167782Y78614D01*
X167610Y78629D01*
X167418Y78634D01*
Y79634D01*
X167610Y79639D01*
X167782Y79654D01*
X167934Y79679D01*
X168065Y79714D01*
X168176Y79759D01*
X168268Y79814D01*
X168338Y79879D01*
X168389Y79954D01*
X168419Y80039D01*
X168430Y80134D01*
Y78134D01*
D02*
G37*
G36*
X165843Y80039D02*
X165873Y79954D01*
X165924Y79879D01*
X165995Y79814D01*
X166086Y79759D01*
X166197Y79714D01*
X166329Y79679D01*
X166480Y79654D01*
X166653Y79639D01*
X166845Y79634D01*
Y78634D01*
X166653Y78629D01*
X166480Y78614D01*
X166329Y78589D01*
X166197Y78554D01*
X166086Y78509D01*
X165995Y78454D01*
X165924Y78389D01*
X165873Y78314D01*
X165843Y78229D01*
X165833Y78134D01*
Y80134D01*
X165843Y80039D01*
D02*
G37*
G36*
X142563Y74787D02*
X142553Y74882D01*
X142523Y74967D01*
X142472Y75042D01*
X142402Y75107D01*
X142310Y75162D01*
X142199Y75207D01*
X142068Y75242D01*
X141916Y75267D01*
X141744Y75282D01*
X141551Y75287D01*
Y76287D01*
X141744Y76292D01*
X141916Y76307D01*
X142068Y76332D01*
X142199Y76367D01*
X142310Y76412D01*
X142402Y76467D01*
X142472Y76532D01*
X142523Y76607D01*
X142553Y76692D01*
X142563Y76787D01*
Y74787D01*
D02*
G37*
G36*
X139493Y74613D02*
X139396Y74507D01*
X139309Y74395D01*
X139233Y74277D01*
X139166Y74151D01*
X139109Y74019D01*
X139063Y73880D01*
X139026Y73734D01*
X138999Y73582D01*
X138983Y73422D01*
X138976Y73256D01*
X137447Y74844D01*
X137612Y74845D01*
X137770Y74856D01*
X137921Y74878D01*
X138066Y74911D01*
X138205Y74955D01*
X138337Y75009D01*
X138462Y75074D01*
X138581Y75150D01*
X138694Y75236D01*
X138800Y75334D01*
X139493Y74613D01*
D02*
G37*
G36*
X179616Y75013D02*
X179735Y74909D01*
X179857Y74817D01*
X179982Y74737D01*
X180110Y74669D01*
X180241Y74614D01*
X180376Y74571D01*
X180513Y74540D01*
X180654Y74522D01*
X180798Y74516D01*
X180770Y73516D01*
X180627Y73510D01*
X180487Y73492D01*
X180349Y73463D01*
X180212Y73421D01*
X180078Y73368D01*
X179947Y73303D01*
X179817Y73227D01*
X179690Y73138D01*
X179564Y73038D01*
X179441Y72926D01*
X179500Y75130D01*
X179616Y75013D01*
D02*
G37*
G36*
X142563Y69787D02*
X142553Y69882D01*
X142523Y69967D01*
X142472Y70042D01*
X142402Y70107D01*
X142310Y70162D01*
X142199Y70207D01*
X142068Y70242D01*
X141916Y70267D01*
X141744Y70282D01*
X141551Y70287D01*
Y71287D01*
X141744Y71292D01*
X141916Y71307D01*
X142068Y71332D01*
X142199Y71367D01*
X142310Y71412D01*
X142402Y71467D01*
X142472Y71532D01*
X142523Y71607D01*
X142553Y71692D01*
X142563Y71787D01*
Y69787D01*
D02*
G37*
G36*
X206707Y68940D02*
X206541Y68933D01*
X206382Y68917D01*
X206229Y68890D01*
X206083Y68853D01*
X205944Y68807D01*
X205812Y68750D01*
X205686Y68683D01*
X205568Y68607D01*
X205456Y68520D01*
X205351Y68423D01*
X204629Y69116D01*
X204727Y69222D01*
X204813Y69335D01*
X204889Y69454D01*
X204954Y69579D01*
X205009Y69711D01*
X205052Y69850D01*
X205085Y69995D01*
X205107Y70146D01*
X205118Y70304D01*
X205119Y70469D01*
X206707Y68940D01*
D02*
G37*
G36*
X139479Y69087D02*
X139382Y68981D01*
X139295Y68869D01*
X139219Y68750D01*
X139153Y68625D01*
X139098Y68493D01*
X139053Y68354D01*
X139018Y68208D01*
X138994Y68056D01*
X138980Y67898D01*
X138976Y67732D01*
X137417Y69291D01*
X137583Y69295D01*
X137741Y69309D01*
X137893Y69333D01*
X138039Y69368D01*
X138178Y69413D01*
X138310Y69468D01*
X138435Y69534D01*
X138554Y69610D01*
X138666Y69697D01*
X138772Y69794D01*
X139479Y69087D01*
D02*
G37*
G36*
X166450Y67233D02*
X166465Y67061D01*
X166490Y66909D01*
X166525Y66777D01*
X166570Y66666D01*
X166625Y66575D01*
X166690Y66504D01*
X166765Y66453D01*
X166850Y66423D01*
X166945Y66413D01*
X164945D01*
X165040Y66423D01*
X165125Y66453D01*
X165200Y66504D01*
X165265Y66575D01*
X165320Y66666D01*
X165365Y66777D01*
X165400Y66909D01*
X165425Y67061D01*
X165440Y67233D01*
X165445Y67425D01*
X166445D01*
X166450Y67233D01*
D02*
G37*
G36*
X180330Y66688D02*
X180355Y66453D01*
X180376Y66352D01*
X180404Y66262D01*
X180438Y66182D01*
X180478Y66113D01*
X180524Y66055D01*
X180576Y66008D01*
X180635Y65971D01*
X179045Y65876D01*
X179099Y65919D01*
X179147Y65974D01*
X179189Y66040D01*
X179226Y66118D01*
X179257Y66206D01*
X179282Y66307D01*
X179302Y66418D01*
X179316Y66541D01*
X179327Y66821D01*
X180327D01*
X180330Y66688D01*
D02*
G37*
G36*
X174445Y63490D02*
X174326Y63604D01*
X174204Y63707D01*
X174079Y63797D01*
X173952Y63875D01*
X173822Y63942D01*
X173689Y63996D01*
X173554Y64038D01*
X173416Y64068D01*
X173376Y64073D01*
X173364Y64072D01*
X173214Y64047D01*
X173084Y64012D01*
X172974Y63967D01*
X172884Y63912D01*
X172814Y63847D01*
X172764Y63772D01*
X172734Y63687D01*
X172724Y63592D01*
Y65592D01*
X172734Y65497D01*
X172764Y65412D01*
X172814Y65337D01*
X172884Y65272D01*
X172974Y65217D01*
X173084Y65172D01*
X173214Y65137D01*
X173364Y65112D01*
X173376Y65111D01*
X173416Y65116D01*
X173554Y65146D01*
X173689Y65188D01*
X173822Y65243D01*
X173952Y65309D01*
X174079Y65387D01*
X174204Y65478D01*
X174326Y65580D01*
X174445Y65694D01*
Y63490D01*
D02*
G37*
G36*
X148431Y66692D02*
X148461Y66607D01*
X148512Y66532D01*
X148583Y66467D01*
X148674Y66412D01*
X148785Y66367D01*
X148917Y66332D01*
X149069Y66307D01*
X149241Y66292D01*
X149433Y66287D01*
Y65287D01*
X149241Y65282D01*
X149069Y65267D01*
X148917Y65242D01*
X148785Y65207D01*
X148674Y65162D01*
X148583Y65107D01*
X148512Y65042D01*
X148461Y64967D01*
X148431Y64882D01*
X148421Y64787D01*
Y66787D01*
X148431Y66692D01*
D02*
G37*
G36*
X164296Y63567D02*
X164286Y63662D01*
X164255Y63747D01*
X164205Y63822D01*
X164134Y63887D01*
X164043Y63942D01*
X163931Y63987D01*
X163800Y64022D01*
X163648Y64047D01*
X163476Y64062D01*
X163284Y64067D01*
Y65067D01*
X163476Y65072D01*
X163648Y65087D01*
X163800Y65112D01*
X163931Y65147D01*
X164043Y65192D01*
X164134Y65247D01*
X164205Y65312D01*
X164255Y65387D01*
X164286Y65472D01*
X164296Y65567D01*
Y63567D01*
D02*
G37*
G36*
X215863Y64553D02*
X215778Y64519D01*
X215704Y64461D01*
X215639Y64381D01*
X215585Y64278D01*
X215540Y64152D01*
X215505Y64002D01*
X215480Y63830D01*
X215466Y63635D01*
X215461Y63417D01*
X214461D01*
X214456Y63635D01*
X214441Y63830D01*
X214416Y64002D01*
X214381Y64152D01*
X214336Y64278D01*
X214282Y64381D01*
X214217Y64461D01*
X214143Y64519D01*
X214058Y64553D01*
X213964Y64565D01*
X215957D01*
X215863Y64553D01*
D02*
G37*
G36*
X152866Y64022D02*
X152879Y63880D01*
X152900Y63747D01*
X152929Y63624D01*
X152967Y63511D01*
X153013Y63408D01*
X153067Y63314D01*
X153130Y63230D01*
X153201Y63155D01*
X153281Y63090D01*
X151444D01*
X151523Y63155D01*
X151594Y63230D01*
X151657Y63314D01*
X151711Y63408D01*
X151758Y63511D01*
X151795Y63624D01*
X151824Y63747D01*
X151846Y63880D01*
X151858Y64022D01*
X151862Y64173D01*
X152862D01*
X152866Y64022D01*
D02*
G37*
G36*
X185496Y65161D02*
X185618Y65059D01*
X185743Y64968D01*
X185870Y64890D01*
X186000Y64824D01*
X186133Y64770D01*
X186268Y64727D01*
X186406Y64697D01*
X186547Y64679D01*
X186690Y64673D01*
Y63673D01*
X186547Y63667D01*
X186406Y63649D01*
X186268Y63619D01*
X186133Y63577D01*
X186000Y63523D01*
X185870Y63456D01*
X185743Y63378D01*
X185618Y63288D01*
X185496Y63185D01*
X185377Y63071D01*
Y65276D01*
X185496Y65161D01*
D02*
G37*
G36*
X215164Y60126D02*
X214958Y59913D01*
X214637Y59536D01*
X214521Y59372D01*
X214435Y59224D01*
X214380Y59092D01*
X214354Y58975D01*
X214358Y58876D01*
X214392Y58792D01*
X214457Y58724D01*
X212858Y59929D01*
X212947Y59886D01*
X213054Y59876D01*
X213181Y59898D01*
X213328Y59954D01*
X213493Y60043D01*
X213678Y60165D01*
X213881Y60320D01*
X214346Y60729D01*
X214607Y60984D01*
X215164Y60126D01*
D02*
G37*
G36*
X142563Y59787D02*
X142553Y59882D01*
X142523Y59967D01*
X142472Y60042D01*
X142402Y60107D01*
X142310Y60162D01*
X142199Y60207D01*
X142068Y60242D01*
X141916Y60267D01*
X141744Y60282D01*
X141551Y60287D01*
Y61287D01*
X141744Y61292D01*
X141916Y61307D01*
X142068Y61332D01*
X142199Y61367D01*
X142310Y61412D01*
X142402Y61467D01*
X142472Y61532D01*
X142523Y61607D01*
X142553Y61692D01*
X142563Y61787D01*
Y59787D01*
D02*
G37*
G36*
X135149Y60032D02*
X135051Y59926D01*
X134965Y59814D01*
X134889Y59695D01*
X134823Y59570D01*
X134767Y59438D01*
X134722Y59299D01*
X134687Y59153D01*
X134663Y59001D01*
X134649Y58842D01*
X134646Y58677D01*
X133087Y60236D01*
X133252Y60240D01*
X133411Y60254D01*
X133563Y60278D01*
X133708Y60313D01*
X133847Y60358D01*
X133979Y60413D01*
X134105Y60479D01*
X134224Y60555D01*
X134336Y60642D01*
X134441Y60739D01*
X135149Y60032D01*
D02*
G37*
G36*
X117780Y58074D02*
X117902Y57972D01*
X118026Y57882D01*
X118154Y57803D01*
X118284Y57737D01*
X118416Y57683D01*
X118552Y57641D01*
X118690Y57611D01*
X118830Y57593D01*
X118974Y57587D01*
Y56587D01*
X118830Y56581D01*
X118690Y56563D01*
X118552Y56532D01*
X118416Y56490D01*
X118284Y56436D01*
X118154Y56370D01*
X118026Y56291D01*
X117902Y56201D01*
X117780Y56099D01*
X117660Y55984D01*
Y58189D01*
X117780Y58074D01*
D02*
G37*
G36*
X71226Y57111D02*
X71227Y57005D01*
X71242Y56899D01*
X71269Y56792D01*
X71308Y56685D01*
X71361Y56577D01*
X71426Y56469D01*
X71504Y56360D01*
X71595Y56251D01*
X71699Y56141D01*
X70992Y55434D01*
X70880Y55540D01*
X70769Y55633D01*
X70659Y55713D01*
X70549Y55781D01*
X70440Y55836D01*
X70331Y55878D01*
X70223Y55908D01*
X70116Y55925D01*
X70010Y55929D01*
X69904Y55921D01*
X71237Y57216D01*
X71226Y57111D01*
D02*
G37*
G36*
X148431Y56692D02*
X148461Y56607D01*
X148512Y56532D01*
X148583Y56467D01*
X148674Y56412D01*
X148785Y56367D01*
X148917Y56332D01*
X149069Y56307D01*
X149241Y56292D01*
X149433Y56287D01*
Y55287D01*
X149241Y55282D01*
X149069Y55267D01*
X148917Y55242D01*
X148785Y55207D01*
X148674Y55162D01*
X148583Y55107D01*
X148512Y55042D01*
X148461Y54967D01*
X148431Y54882D01*
X148421Y54787D01*
Y56787D01*
X148431Y56692D01*
D02*
G37*
G36*
X73666Y54787D02*
X73656Y54882D01*
X73625Y54967D01*
X73575Y55042D01*
X73504Y55107D01*
X73413Y55162D01*
X73301Y55207D01*
X73170Y55242D01*
X73018Y55267D01*
X72846Y55282D01*
X72654Y55287D01*
Y56287D01*
X72846Y56292D01*
X73018Y56307D01*
X73170Y56332D01*
X73301Y56367D01*
X73413Y56412D01*
X73504Y56467D01*
X73575Y56532D01*
X73625Y56607D01*
X73656Y56692D01*
X73666Y56787D01*
Y54787D01*
D02*
G37*
G36*
X32476Y58109D02*
X32537Y57939D01*
X32637Y57789D01*
X32778Y57659D01*
X32959Y57549D01*
X33181Y57459D01*
X33442Y57389D01*
X33744Y57339D01*
X34086Y57309D01*
X34468Y57299D01*
Y55299D01*
X34086Y55289D01*
X33744Y55259D01*
X33442Y55209D01*
X33181Y55139D01*
X32959Y55049D01*
X32778Y54939D01*
X32637Y54809D01*
X32537Y54659D01*
X32476Y54489D01*
X32456Y54299D01*
Y58299D01*
X32476Y58109D01*
D02*
G37*
G36*
X172551Y53543D02*
X172385Y53540D01*
X172227Y53526D01*
X172074Y53502D01*
X171929Y53467D01*
X171790Y53422D01*
X171658Y53366D01*
X171533Y53300D01*
X171414Y53224D01*
X171301Y53137D01*
X171196Y53040D01*
X170489Y53748D01*
X170586Y53853D01*
X170673Y53965D01*
X170749Y54084D01*
X170815Y54210D01*
X170870Y54342D01*
X170915Y54481D01*
X170950Y54626D01*
X170974Y54778D01*
X170988Y54937D01*
X170992Y55102D01*
X172551Y53543D01*
D02*
G37*
G36*
X131806Y54343D02*
X131918Y54256D01*
X132037Y54180D01*
X132163Y54114D01*
X132295Y54058D01*
X132433Y54013D01*
X132579Y53979D01*
X132731Y53954D01*
X132890Y53940D01*
X133055Y53937D01*
X131496Y52378D01*
X131493Y52543D01*
X131479Y52702D01*
X131454Y52854D01*
X131420Y53000D01*
X131375Y53138D01*
X131319Y53271D01*
X131253Y53396D01*
X131177Y53515D01*
X131090Y53627D01*
X130993Y53733D01*
X131700Y54440D01*
X131806Y54343D01*
D02*
G37*
G36*
X167112Y54055D02*
X167142Y53970D01*
X167193Y53895D01*
X167264Y53830D01*
X167355Y53775D01*
X167466Y53730D01*
X167598Y53695D01*
X167750Y53670D01*
X167922Y53655D01*
X168114Y53650D01*
Y52650D01*
X167922Y52645D01*
X167750Y52630D01*
X167598Y52605D01*
X167466Y52570D01*
X167355Y52525D01*
X167264Y52470D01*
X167193Y52405D01*
X167142Y52330D01*
X167112Y52245D01*
X167102Y52150D01*
Y54150D01*
X167112Y54055D01*
D02*
G37*
G36*
X210752Y51953D02*
X210742Y52048D01*
X210712Y52133D01*
X210661Y52208D01*
X210590Y52273D01*
X210499Y52328D01*
X210388Y52373D01*
X210257Y52408D01*
X210105Y52433D01*
X209933Y52448D01*
X209740Y52453D01*
Y53453D01*
X209933Y53458D01*
X210105Y53473D01*
X210257Y53498D01*
X210388Y53533D01*
X210499Y53578D01*
X210590Y53633D01*
X210661Y53698D01*
X210712Y53773D01*
X210742Y53858D01*
X210752Y53953D01*
Y51953D01*
D02*
G37*
G36*
X207073Y53858D02*
X207103Y53773D01*
X207154Y53698D01*
X207224Y53633D01*
X207316Y53578D01*
X207427Y53533D01*
X207558Y53498D01*
X207710Y53473D01*
X207882Y53458D01*
X208075Y53453D01*
Y52453D01*
X207882Y52448D01*
X207710Y52433D01*
X207558Y52408D01*
X207427Y52373D01*
X207316Y52328D01*
X207224Y52273D01*
X207154Y52208D01*
X207103Y52133D01*
X207073Y52048D01*
X207063Y51953D01*
Y53953D01*
X207073Y53858D01*
D02*
G37*
G36*
X73666Y49787D02*
X73656Y49882D01*
X73625Y49967D01*
X73575Y50042D01*
X73504Y50107D01*
X73413Y50162D01*
X73301Y50207D01*
X73170Y50242D01*
X73018Y50267D01*
X72846Y50282D01*
X72654Y50287D01*
Y51287D01*
X72846Y51292D01*
X73018Y51307D01*
X73170Y51332D01*
X73301Y51367D01*
X73413Y51412D01*
X73504Y51467D01*
X73575Y51532D01*
X73625Y51607D01*
X73656Y51692D01*
X73666Y51787D01*
Y49787D01*
D02*
G37*
G36*
X164985Y49787D02*
X164974Y49882D01*
X164944Y49967D01*
X164894Y50042D01*
X164823Y50107D01*
X164732Y50162D01*
X164620Y50207D01*
X164489Y50242D01*
X164337Y50267D01*
X164165Y50282D01*
X163973Y50287D01*
Y51287D01*
X164165Y51292D01*
X164337Y51307D01*
X164489Y51332D01*
X164620Y51367D01*
X164732Y51412D01*
X164823Y51467D01*
X164894Y51532D01*
X164944Y51607D01*
X164974Y51692D01*
X164985Y51787D01*
Y49787D01*
D02*
G37*
G36*
X148431Y51692D02*
X148461Y51607D01*
X148512Y51532D01*
X148583Y51467D01*
X148674Y51412D01*
X148785Y51367D01*
X148917Y51332D01*
X149069Y51307D01*
X149241Y51292D01*
X149433Y51287D01*
Y50287D01*
X149241Y50282D01*
X149069Y50267D01*
X148917Y50242D01*
X148785Y50207D01*
X148674Y50162D01*
X148583Y50107D01*
X148512Y50042D01*
X148461Y49967D01*
X148431Y49882D01*
X148421Y49787D01*
Y51787D01*
X148431Y51692D01*
D02*
G37*
G36*
X216640Y48881D02*
X216519Y48994D01*
X216395Y49095D01*
X216268Y49185D01*
X216140Y49262D01*
X216009Y49327D01*
X215875Y49381D01*
X215740Y49423D01*
X215601Y49453D01*
X215461Y49470D01*
X215318Y49476D01*
X215302Y50476D01*
X215446Y50482D01*
X215586Y50501D01*
X215724Y50531D01*
X215859Y50574D01*
X215991Y50629D01*
X216120Y50696D01*
X216246Y50775D01*
X216369Y50866D01*
X216490Y50970D01*
X216607Y51085D01*
X216640Y48881D01*
D02*
G37*
G36*
X128937Y49615D02*
X128952Y49443D01*
X128977Y49291D01*
X129011Y49159D01*
X129057Y49048D01*
X129112Y48957D01*
X129176Y48886D01*
X129252Y48835D01*
X129337Y48805D01*
X129431Y48795D01*
X127431D01*
X127526Y48805D01*
X127611Y48835D01*
X127687Y48886D01*
X127752Y48957D01*
X127806Y49048D01*
X127851Y49159D01*
X127886Y49291D01*
X127911Y49443D01*
X127927Y49615D01*
X127931Y49807D01*
X128931D01*
X128937Y49615D01*
D02*
G37*
G36*
X94068D02*
X94083Y49443D01*
X94108Y49291D01*
X94143Y49159D01*
X94188Y49048D01*
X94243Y48957D01*
X94308Y48886D01*
X94383Y48835D01*
X94468Y48805D01*
X94563Y48795D01*
X92563D01*
X92658Y48805D01*
X92743Y48835D01*
X92818Y48886D01*
X92883Y48957D01*
X92938Y49048D01*
X92983Y49159D01*
X93018Y49291D01*
X93043Y49443D01*
X93058Y49615D01*
X93063Y49807D01*
X94063D01*
X94068Y49615D01*
D02*
G37*
G36*
X220634Y48891D02*
X220521Y1529D01*
X168110D01*
X168047Y1517D01*
X167983Y1524D01*
X167757Y1459D01*
X167525Y1413D01*
X167472Y1377D01*
X167410Y1360D01*
X167225Y1213D01*
X167029Y1081D01*
X166993Y1028D01*
X166943Y988D01*
X166828Y782D01*
X166697Y585D01*
X166685Y522D01*
X166654Y466D01*
X157545Y-27998D01*
X148063D01*
X147909Y-27650D01*
X147893Y-27498D01*
X149900Y-25491D01*
X150232Y-24995D01*
X150348Y-24409D01*
Y-24228D01*
X151591D01*
Y-18291D01*
X146047D01*
Y-19534D01*
X138228D01*
Y-19295D01*
X138135Y-18827D01*
X137870Y-18430D01*
X137472Y-18164D01*
X137004Y-18071D01*
X135729D01*
X135538Y-17609D01*
X137105Y-16042D01*
X137437Y-15546D01*
X137553Y-14961D01*
Y-13081D01*
X137870Y-12870D01*
X138135Y-12472D01*
X138228Y-12004D01*
Y-8468D01*
X138135Y-8000D01*
X137870Y-7603D01*
X137553Y-7391D01*
Y-4374D01*
X138649Y-3278D01*
X138663Y-3266D01*
X139126Y-3457D01*
X140157Y-3593D01*
X141189Y-3457D01*
X142151Y-3059D01*
X142977Y-2425D01*
X143610Y-1600D01*
X143775Y-1201D01*
X144264Y-1151D01*
X147290Y-4177D01*
Y-6579D01*
X145949D01*
Y-12319D01*
X156413D01*
Y-8778D01*
X156621Y-8534D01*
X158857Y-6298D01*
X159189Y-5802D01*
X159305Y-5217D01*
Y6480D01*
X160547D01*
Y12417D01*
X159305D01*
Y15337D01*
X160087Y15440D01*
X161049Y15839D01*
X161874Y16472D01*
X162508Y17298D01*
X162906Y18259D01*
X163042Y19291D01*
X163007Y19556D01*
X163481Y19790D01*
X164198Y19072D01*
X164694Y18741D01*
X165279Y18624D01*
X167932D01*
X168102Y18124D01*
X167653Y17780D01*
X167020Y16954D01*
X166621Y15992D01*
X166486Y14961D01*
X166621Y13929D01*
X167020Y12967D01*
X167653Y12141D01*
X168479Y11508D01*
X169441Y11110D01*
X170472Y10974D01*
X171504Y11110D01*
X172466Y11508D01*
X173292Y12141D01*
X173925Y12967D01*
X174323Y13929D01*
X174459Y14961D01*
X174323Y15992D01*
X173925Y16954D01*
X173292Y17780D01*
X172843Y18124D01*
X173012Y18624D01*
X176212D01*
X176797Y18741D01*
X177293Y19072D01*
X177299Y19078D01*
X177799Y18871D01*
Y18370D01*
X178073Y17349D01*
X178601Y16434D01*
X179348Y15687D01*
X180262Y15159D01*
X181283Y14886D01*
X182339D01*
X183360Y15159D01*
X184274Y15687D01*
X185021Y16434D01*
X185549Y17349D01*
X185823Y18370D01*
Y19426D01*
X185549Y20446D01*
X185291Y20895D01*
X185691Y21202D01*
X187628Y19264D01*
X187310Y18946D01*
X186971Y18359D01*
X186795Y17704D01*
Y17026D01*
X186971Y16371D01*
X187310Y15784D01*
X187789Y15304D01*
X188376Y14965D01*
X189031Y14790D01*
X189709D01*
X190364Y14965D01*
X190951Y15304D01*
X191430Y15784D01*
X191769Y16371D01*
X191945Y17026D01*
Y17704D01*
X191769Y18359D01*
X191430Y18946D01*
X190951Y19425D01*
X190898Y19456D01*
X190893Y19477D01*
X190885Y19528D01*
Y19699D01*
X190769Y20284D01*
X190437Y20781D01*
X187013Y24205D01*
X187204Y24667D01*
X188992D01*
X189577Y24784D01*
X190074Y25115D01*
X191642Y26684D01*
X192103Y26438D01*
X191913Y25483D01*
Y24123D01*
X192179Y22789D01*
X192699Y21532D01*
X193455Y20401D01*
X194417Y19439D01*
X195548Y18684D01*
X196805Y18163D01*
X198139Y17898D01*
X199499D01*
X200833Y18163D01*
X202090Y18684D01*
X203221Y19439D01*
X204183Y20401D01*
X204939Y21532D01*
X205459Y22789D01*
X205724Y24123D01*
Y25483D01*
X205459Y26817D01*
X204939Y28074D01*
X204183Y29205D01*
X203221Y30167D01*
X202090Y30923D01*
X200833Y31443D01*
X199499Y31709D01*
X198139D01*
X197184Y31519D01*
X196938Y31980D01*
X213405Y48447D01*
X215427D01*
X215429Y48447D01*
X215482Y48435D01*
X215535Y48419D01*
X215590Y48397D01*
X215648Y48368D01*
X215710Y48331D01*
X215777Y48283D01*
X215848Y48225D01*
X215945Y48135D01*
X216015Y48092D01*
X216167Y47940D01*
X216754Y47601D01*
X217409Y47425D01*
X218087D01*
X218742Y47601D01*
X219329Y47940D01*
X219808Y48419D01*
X220147Y49006D01*
X220634Y48891D01*
D02*
G37*
G36*
X166948Y46864D02*
X166863Y46834D01*
X166788Y46783D01*
X166723Y46712D01*
X166668Y46621D01*
X166623Y46510D01*
X166588Y46378D01*
X166563Y46227D01*
X166548Y46055D01*
X166543Y45862D01*
X165543D01*
X165538Y46055D01*
X165523Y46227D01*
X165498Y46378D01*
X165463Y46510D01*
X165418Y46621D01*
X165363Y46712D01*
X165298Y46783D01*
X165223Y46834D01*
X165138Y46864D01*
X165043Y46874D01*
X167043D01*
X166948Y46864D01*
D02*
G37*
G36*
X135321Y46771D02*
X135351Y46686D01*
X135402Y46611D01*
X135473Y46546D01*
X135564Y46491D01*
X135675Y46446D01*
X135807Y46411D01*
X135958Y46386D01*
X136130Y46371D01*
X136323Y46366D01*
Y45366D01*
X136130Y45361D01*
X135958Y45346D01*
X135807Y45321D01*
X135675Y45286D01*
X135564Y45241D01*
X135473Y45186D01*
X135402Y45121D01*
X135351Y45046D01*
X135321Y44961D01*
X135311Y44866D01*
Y46866D01*
X135321Y46771D01*
D02*
G37*
G36*
X69797Y45602D02*
X69815Y45461D01*
X69846Y45323D01*
X69888Y45188D01*
X69942Y45055D01*
X70008Y44925D01*
X70086Y44798D01*
X70177Y44673D01*
X70279Y44551D01*
X70394Y44432D01*
X68189D01*
X68303Y44551D01*
X68406Y44673D01*
X68496Y44798D01*
X68575Y44925D01*
X68641Y45055D01*
X68695Y45188D01*
X68737Y45323D01*
X68767Y45461D01*
X68785Y45602D01*
X68791Y45745D01*
X69791D01*
X69797Y45602D01*
D02*
G37*
G36*
X166548Y44203D02*
X166563Y44034D01*
X166588Y43883D01*
X166623Y43753D01*
X166668Y43644D01*
X166723Y43554D01*
X166788Y43483D01*
X166863Y43433D01*
X166948Y43404D01*
X167043Y43393D01*
X165043D01*
X165138Y43404D01*
X165223Y43433D01*
X165298Y43483D01*
X165363Y43554D01*
X165418Y43644D01*
X165463Y43753D01*
X165498Y43883D01*
X165523Y44034D01*
X165538Y44203D01*
X165543Y44394D01*
X166543D01*
X166548Y44203D01*
D02*
G37*
G36*
X59849Y46900D02*
X59904Y46757D01*
X59996Y46631D01*
X60125Y46521D01*
X60291Y46429D01*
X60493Y46353D01*
X60732Y46295D01*
X61008Y46252D01*
X61321Y46227D01*
X61671Y46219D01*
Y44219D01*
X61321Y44210D01*
X61008Y44185D01*
X60732Y44143D01*
X60493Y44084D01*
X60291Y44009D01*
X60125Y43916D01*
X59996Y43807D01*
X59904Y43681D01*
X59849Y43538D01*
X59830Y43378D01*
Y47059D01*
X59849Y46900D01*
D02*
G37*
G36*
X53567Y43079D02*
X53547Y43269D01*
X53487Y43439D01*
X53386Y43589D01*
X53245Y43719D01*
X53064Y43829D01*
X52843Y43919D01*
X52581Y43989D01*
X52280Y44039D01*
X51938Y44069D01*
X51555Y44079D01*
Y46079D01*
X51938Y46089D01*
X52280Y46119D01*
X52581Y46169D01*
X52843Y46239D01*
X53064Y46329D01*
X53245Y46439D01*
X53386Y46569D01*
X53487Y46719D01*
X53547Y46889D01*
X53567Y47079D01*
Y43079D01*
D02*
G37*
G36*
X147248Y39583D02*
X147261Y39424D01*
X147286Y39272D01*
X147320Y39126D01*
X147365Y38988D01*
X147421Y38855D01*
X147487Y38730D01*
X147563Y38611D01*
X147650Y38499D01*
X147747Y38393D01*
X147040Y37686D01*
X146934Y37783D01*
X146822Y37870D01*
X146703Y37946D01*
X146578Y38012D01*
X146446Y38067D01*
X146307Y38113D01*
X146161Y38147D01*
X146009Y38172D01*
X145850Y38186D01*
X145685Y38189D01*
X147244Y39748D01*
X147248Y39583D01*
D02*
G37*
G36*
X70293Y32626D02*
X70378Y31193D01*
X70405Y31085D01*
X70435Y31014D01*
X70469Y30981D01*
X68153D01*
X68179Y31011D01*
X68203Y31080D01*
X68224Y31186D01*
X68242Y31331D01*
X68269Y31734D01*
X68291Y32996D01*
X70291D01*
X70293Y32626D01*
D02*
G37*
G36*
X65313Y32625D02*
X65412Y31082D01*
X65439Y31013D01*
X65469Y30981D01*
X63153D01*
X63183Y31013D01*
X63210Y31082D01*
X63234Y31190D01*
X63254Y31335D01*
X63286Y31738D01*
X63311Y32996D01*
X65311D01*
X65313Y32625D01*
D02*
G37*
G36*
X140182Y30004D02*
X140171Y30099D01*
X140141Y30184D01*
X140090Y30259D01*
X140020Y30324D01*
X139928Y30379D01*
X139817Y30424D01*
X139686Y30459D01*
X139534Y30484D01*
X139362Y30499D01*
X139170Y30504D01*
Y31504D01*
X139362Y31509D01*
X139534Y31524D01*
X139686Y31549D01*
X139817Y31584D01*
X139928Y31629D01*
X140020Y31684D01*
X140090Y31749D01*
X140141Y31824D01*
X140171Y31909D01*
X140182Y32004D01*
Y30004D01*
D02*
G37*
G36*
X144081Y31808D02*
X144111Y31723D01*
X144161Y31649D01*
X144232Y31584D01*
X144323Y31530D01*
X144433Y31485D01*
X144564Y31450D01*
X144716Y31425D01*
X144887Y31411D01*
X145079Y31405D01*
Y30406D01*
X144887Y30400D01*
X144716Y30386D01*
X144564Y30361D01*
X144433Y30326D01*
X144323Y30281D01*
X144232Y30227D01*
X144161Y30162D01*
X144111Y30088D01*
X144081Y30003D01*
X144070Y29909D01*
Y31902D01*
X144081Y31808D01*
D02*
G37*
G36*
X43001Y32606D02*
X43228Y32418D01*
X43462Y32252D01*
X43702Y32108D01*
X43948Y31986D01*
X44201Y31886D01*
X44461Y31808D01*
X44727Y31753D01*
X44999Y31720D01*
X45278Y31709D01*
Y29709D01*
X44999Y29698D01*
X44727Y29664D01*
X44461Y29609D01*
X44201Y29531D01*
X43948Y29432D01*
X43702Y29310D01*
X43462Y29166D01*
X43228Y28999D01*
X43001Y28811D01*
X42781Y28600D01*
Y32817D01*
X43001Y32606D01*
D02*
G37*
G36*
X95423Y25926D02*
X95292Y25788D01*
X95183Y25657D01*
X95094Y25534D01*
X95027Y25417D01*
X94981Y25307D01*
X94956Y25205D01*
X94953Y25109D01*
X94971Y25021D01*
X95009Y24940D01*
X95069Y24865D01*
X93655Y26280D01*
X93730Y26219D01*
X93811Y26181D01*
X93899Y26163D01*
X93995Y26166D01*
X94097Y26191D01*
X94207Y26237D01*
X94323Y26304D01*
X94447Y26393D01*
X94578Y26502D01*
X94716Y26633D01*
X95423Y25926D01*
D02*
G37*
G36*
X70492Y29763D02*
X70552Y29593D01*
X70653Y29443D01*
X70794Y29313D01*
X70975Y29203D01*
X71196Y29113D01*
X71458Y29043D01*
X71760Y28993D01*
X72102Y28963D01*
X72484Y28953D01*
Y26953D01*
X72102Y26943D01*
X71760Y26913D01*
X71458Y26863D01*
X71196Y26793D01*
X70975Y26703D01*
X70794Y26593D01*
X70653Y26463D01*
X70552Y26313D01*
X70492Y26143D01*
X70472Y25953D01*
Y29953D01*
X70492Y29763D01*
D02*
G37*
G36*
X148538Y24778D02*
X148556Y24637D01*
X148586Y24499D01*
X148628Y24364D01*
X148682Y24231D01*
X148748Y24101D01*
X148827Y23974D01*
X148917Y23849D01*
X149019Y23727D01*
X149134Y23608D01*
X146929D01*
X147044Y23727D01*
X147146Y23849D01*
X147236Y23974D01*
X147315Y24101D01*
X147381Y24231D01*
X147435Y24364D01*
X147477Y24499D01*
X147507Y24637D01*
X147526Y24778D01*
X147531Y24921D01*
X148531D01*
X148538Y24778D01*
D02*
G37*
G36*
X93271Y23774D02*
X93009Y23509D01*
X92015Y22375D01*
X91946Y22262D01*
X91905Y22170D01*
X91891Y22100D01*
X90890Y23101D01*
X90960Y23115D01*
X91051Y23156D01*
X91164Y23225D01*
X91299Y23322D01*
X91634Y23598D01*
X92299Y24219D01*
X92564Y24481D01*
X93271Y23774D01*
D02*
G37*
G36*
X157453Y22597D02*
X157752Y22354D01*
X157889Y22265D01*
X158019Y22197D01*
X158142Y22151D01*
X158256Y22127D01*
X158363Y22125D01*
X158463Y22144D01*
X158554Y22185D01*
X156783Y21140D01*
X156859Y21198D01*
X156910Y21267D01*
X156936Y21346D01*
X156937Y21437D01*
X156913Y21539D01*
X156863Y21653D01*
X156788Y21777D01*
X156688Y21912D01*
X156563Y22058D01*
X156413Y22215D01*
X157291Y22751D01*
X157453Y22597D01*
D02*
G37*
G36*
X189860Y19551D02*
X189872Y19413D01*
X189891Y19286D01*
X189918Y19168D01*
X189953Y19060D01*
X189996Y18963D01*
X190046Y18876D01*
X190105Y18799D01*
X190171Y18732D01*
X190245Y18675D01*
X188472Y18659D01*
X188545Y18717D01*
X188610Y18786D01*
X188668Y18864D01*
X188718Y18953D01*
X188760Y19052D01*
X188795Y19161D01*
X188821Y19280D01*
X188841Y19410D01*
X188852Y19549D01*
X188856Y19699D01*
X189856D01*
X189860Y19551D01*
D02*
G37*
G36*
X128458Y19201D02*
X128473Y19029D01*
X128498Y18877D01*
X128533Y18746D01*
X128578Y18634D01*
X128633Y18543D01*
X128698Y18473D01*
X128773Y18422D01*
X128858Y18392D01*
X128953Y18382D01*
X126953D01*
X127048Y18392D01*
X127133Y18422D01*
X127208Y18473D01*
X127273Y18543D01*
X127328Y18634D01*
X127373Y18746D01*
X127408Y18877D01*
X127433Y19029D01*
X127448Y19201D01*
X127453Y19394D01*
X128453D01*
X128458Y19201D01*
D02*
G37*
G36*
X104192Y17157D02*
X104061Y17019D01*
X103952Y16888D01*
X103863Y16764D01*
X103796Y16648D01*
X103750Y16538D01*
X103726Y16436D01*
X103722Y16340D01*
X103740Y16252D01*
X103779Y16170D01*
X103839Y16096D01*
X102425Y17510D01*
X102499Y17450D01*
X102580Y17411D01*
X102668Y17394D01*
X102764Y17397D01*
X102866Y17422D01*
X102976Y17468D01*
X103093Y17535D01*
X103216Y17624D01*
X103347Y17733D01*
X103485Y17864D01*
X104192Y17157D01*
D02*
G37*
G36*
X158777Y16376D02*
X158681Y16415D01*
X158596Y16425D01*
X158521Y16406D01*
X158456Y16357D01*
X158401Y16280D01*
X158356Y16173D01*
X158321Y16037D01*
X158296Y15872D01*
X158281Y15678D01*
X158276Y15455D01*
X157276Y15641D01*
X157271Y15936D01*
X157231Y16449D01*
X157197Y16667D01*
X157153Y16860D01*
X157099Y17027D01*
X157035Y17169D01*
X156962Y17285D01*
X156878Y17376D01*
X156785Y17441D01*
X158777Y16376D01*
D02*
G37*
G36*
X91173Y19332D02*
X91005Y19187D01*
X90856Y18969D01*
X90727Y18677D01*
X90618Y18313D01*
X90529Y17876D01*
X90459Y17365D01*
X90380Y16125D01*
X90370Y15396D01*
X88370Y15679D01*
X88360Y16283D01*
X88281Y17289D01*
X88211Y17690D01*
X88122Y18025D01*
X88013Y18292D01*
X87884Y18492D01*
X87735Y18624D01*
X87567Y18690D01*
X87379Y18688D01*
X91362Y19404D01*
X91173Y19332D01*
D02*
G37*
G36*
X102479Y15444D02*
X102217Y15179D01*
X101224Y14044D01*
X101154Y13931D01*
X101113Y13840D01*
X101099Y13770D01*
X101014Y13855D01*
X100875Y13696D01*
X100806Y13583D01*
X100765Y13491D01*
X100751Y13422D01*
X99750Y14423D01*
X99820Y14436D01*
X99911Y14478D01*
X100024Y14547D01*
X100159Y14643D01*
X100196Y14674D01*
X100099Y14771D01*
X100168Y14785D01*
X100259Y14826D01*
X100373Y14895D01*
X100507Y14992D01*
X100842Y15268D01*
X101507Y15889D01*
X101772Y16151D01*
X102479Y15444D01*
D02*
G37*
G36*
X129448Y14679D02*
X129363Y14649D01*
X129288Y14598D01*
X129223Y14527D01*
X129168Y14436D01*
X129123Y14325D01*
X129088Y14194D01*
X129063Y14042D01*
X129048Y13870D01*
X129043Y13677D01*
X128043D01*
X128038Y13870D01*
X128023Y14042D01*
X127998Y14194D01*
X127963Y14325D01*
X127918Y14436D01*
X127863Y14527D01*
X127798Y14598D01*
X127723Y14649D01*
X127638Y14679D01*
X127543Y14689D01*
X129543D01*
X129448Y14679D01*
D02*
G37*
G36*
X82506Y15191D02*
X82534Y14851D01*
X82582Y14551D01*
X82649Y14291D01*
X82735Y14071D01*
X82840Y13891D01*
X82965Y13751D01*
X83108Y13651D01*
X83271Y13591D01*
X83453Y13571D01*
X79540D01*
X79721Y13591D01*
X79884Y13651D01*
X80027Y13751D01*
X80152Y13891D01*
X80257Y14071D01*
X80343Y14291D01*
X80410Y14551D01*
X80458Y14851D01*
X80487Y15191D01*
X80496Y15571D01*
X82496D01*
X82506Y15191D01*
D02*
G37*
G36*
X158281Y12213D02*
X158296Y12041D01*
X158321Y11889D01*
X158356Y11758D01*
X158401Y11646D01*
X158456Y11555D01*
X158521Y11484D01*
X158596Y11434D01*
X158681Y11403D01*
X158776Y11393D01*
X156776D01*
X156871Y11403D01*
X156956Y11434D01*
X157031Y11484D01*
X157096Y11555D01*
X157151Y11646D01*
X157196Y11758D01*
X157231Y11889D01*
X157256Y12041D01*
X157271Y12213D01*
X157276Y12405D01*
X158276D01*
X158281Y12213D01*
D02*
G37*
G36*
X129048D02*
X129063Y12041D01*
X129088Y11889D01*
X129123Y11758D01*
X129168Y11646D01*
X129223Y11555D01*
X129288Y11484D01*
X129363Y11434D01*
X129448Y11403D01*
X129543Y11393D01*
X127543D01*
X127638Y11403D01*
X127723Y11434D01*
X127798Y11484D01*
X127863Y11555D01*
X127918Y11646D01*
X127963Y11758D01*
X127998Y11889D01*
X128023Y12041D01*
X128038Y12213D01*
X128043Y12405D01*
X129043D01*
X129048Y12213D01*
D02*
G37*
G36*
X103778Y14256D02*
X103716Y14116D01*
X103693Y13961D01*
X103707Y13792D01*
X103760Y13609D01*
X103850Y13411D01*
X103979Y13200D01*
X104146Y12973D01*
X104351Y12733D01*
X104594Y12478D01*
X103179Y11064D01*
X102925Y11307D01*
X102684Y11512D01*
X102458Y11678D01*
X102246Y11807D01*
X102048Y11898D01*
X101865Y11950D01*
X101696Y11965D01*
X101541Y11941D01*
X101401Y11879D01*
X101275Y11779D01*
X103878Y14382D01*
X103778Y14256D01*
D02*
G37*
G36*
X83473Y13426D02*
X83533Y13297D01*
X83633Y13183D01*
X83773Y13084D01*
X83953Y13001D01*
X84173Y12933D01*
X84433Y12879D01*
X84733Y12841D01*
X85073Y12819D01*
X85453Y12811D01*
Y10811D01*
X85073Y10803D01*
X84433Y10743D01*
X84173Y10689D01*
X83953Y10621D01*
X83773Y10538D01*
X83633Y10439D01*
X83533Y10325D01*
X83473Y10196D01*
X83453Y10051D01*
Y13571D01*
X83473Y13426D01*
D02*
G37*
G36*
X109657Y9819D02*
X109631Y10007D01*
X109553Y10176D01*
X109422Y10325D01*
X109239Y10454D01*
X109003Y10563D01*
X108716Y10652D01*
X108376Y10722D01*
X107983Y10771D01*
X107538Y10801D01*
X107041Y10811D01*
Y12811D01*
X107538Y12821D01*
X108376Y12900D01*
X108716Y12970D01*
X109003Y13059D01*
X109239Y13168D01*
X109422Y13297D01*
X109553Y13446D01*
X109631Y13615D01*
X109657Y13803D01*
Y9819D01*
D02*
G37*
G36*
X113615Y9631D02*
X113446Y9553D01*
X113297Y9422D01*
X113168Y9239D01*
X113059Y9003D01*
X112970Y8716D01*
X112900Y8376D01*
X112851Y7983D01*
X112821Y7538D01*
X112811Y7041D01*
X110811D01*
X110801Y7538D01*
X110722Y8376D01*
X110652Y8716D01*
X110563Y9003D01*
X110454Y9239D01*
X110325Y9422D01*
X110176Y9553D01*
X110007Y9631D01*
X109819Y9657D01*
X113803D01*
X113615Y9631D01*
D02*
G37*
G36*
X158681Y7494D02*
X158596Y7464D01*
X158521Y7413D01*
X158456Y7342D01*
X158401Y7251D01*
X158356Y7140D01*
X158321Y7008D01*
X158296Y6857D01*
X158281Y6685D01*
X158276Y6492D01*
X157276D01*
X157271Y6685D01*
X157256Y6857D01*
X157231Y7008D01*
X157196Y7140D01*
X157151Y7251D01*
X157096Y7342D01*
X157031Y7413D01*
X156956Y7464D01*
X156871Y7494D01*
X156776Y7504D01*
X158776D01*
X158681Y7494D01*
D02*
G37*
G36*
X130039D02*
X129954Y7464D01*
X129879Y7413D01*
X129814Y7342D01*
X129759Y7251D01*
X129714Y7140D01*
X129679Y7008D01*
X129654Y6857D01*
X129639Y6685D01*
X129634Y6492D01*
X128634D01*
X128629Y6685D01*
X128614Y6857D01*
X128589Y7008D01*
X128554Y7140D01*
X128509Y7251D01*
X128454Y7342D01*
X128389Y7413D01*
X128314Y7464D01*
X128229Y7494D01*
X128134Y7504D01*
X130134D01*
X130039Y7494D01*
D02*
G37*
G36*
X129639Y4081D02*
X129654Y3886D01*
X129678Y3714D01*
X129713Y3565D01*
X129758Y3439D01*
X129813Y3336D01*
X129877Y3255D01*
X129952Y3198D01*
X130036Y3163D01*
X130130Y3152D01*
X128137D01*
X128232Y3163D01*
X128316Y3198D01*
X128391Y3255D01*
X128455Y3336D01*
X128510Y3439D01*
X128554Y3565D01*
X128589Y3714D01*
X128614Y3886D01*
X128629Y4081D01*
X128634Y4299D01*
X129634D01*
X129639Y4081D01*
D02*
G37*
G36*
X142927Y1296D02*
X142962Y1211D01*
X143019Y1137D01*
X143099Y1072D01*
X143203Y1018D01*
X143329Y973D01*
X143478Y938D01*
X143650Y914D01*
X143845Y899D01*
X144063Y894D01*
Y-106D01*
X143845Y-111D01*
X143650Y-126D01*
X143478Y-151D01*
X143329Y-186D01*
X143203Y-230D01*
X143099Y-285D01*
X143019Y-350D01*
X142962Y-424D01*
X142927Y-508D01*
X142916Y-603D01*
Y1390D01*
X142927Y1296D01*
D02*
G37*
G36*
X138912Y-2261D02*
X138837Y-2203D01*
X138753Y-2167D01*
X138660Y-2155D01*
X138557Y-2166D01*
X138446Y-2201D01*
X138325Y-2259D01*
X138195Y-2339D01*
X138055Y-2444D01*
X137907Y-2571D01*
X137749Y-2722D01*
X137042Y-2015D01*
X137193Y-1857D01*
X137320Y-1708D01*
X137424Y-1569D01*
X137505Y-1439D01*
X137563Y-1318D01*
X137597Y-1207D01*
X137609Y-1104D01*
X137596Y-1011D01*
X137561Y-927D01*
X137503Y-852D01*
X138912Y-2261D01*
D02*
G37*
G36*
X129542Y-2509D02*
X129447Y-2500D01*
X129363Y-2516D01*
X129288Y-2558D01*
X129223Y-2624D01*
X129168Y-2716D01*
X129123Y-2833D01*
X129088Y-2975D01*
X129063Y-3142D01*
X129048Y-3335D01*
X129043Y-3552D01*
X128043Y-3349D01*
X128038Y-3127D01*
X127999Y-2746D01*
X127964Y-2588D01*
X127920Y-2450D01*
X127865Y-2334D01*
X127801Y-2239D01*
X127727Y-2165D01*
X127643Y-2112D01*
X127549Y-2080D01*
X129542Y-2509D01*
D02*
G37*
G36*
X87624Y-1239D02*
X87704Y-2076D01*
X87773Y-2416D01*
X87862Y-2704D01*
X87971Y-2940D01*
X88100Y-3123D01*
X88249Y-3254D01*
X88418Y-3332D01*
X88607Y-3358D01*
X84622D01*
X84810Y-3332D01*
X84979Y-3254D01*
X85128Y-3123D01*
X85257Y-2940D01*
X85366Y-2704D01*
X85455Y-2416D01*
X85525Y-2076D01*
X85575Y-1684D01*
X85604Y-1239D01*
X85614Y-742D01*
X87614D01*
X87624Y-1239D01*
D02*
G37*
G36*
X149324Y-6783D02*
X149339Y-6955D01*
X149364Y-7107D01*
X149399Y-7238D01*
X149444Y-7350D01*
X149499Y-7441D01*
X149564Y-7512D01*
X149639Y-7562D01*
X149724Y-7593D01*
X149819Y-7603D01*
X147819D01*
X147914Y-7593D01*
X147999Y-7562D01*
X148074Y-7512D01*
X148139Y-7441D01*
X148194Y-7350D01*
X148239Y-7238D01*
X148274Y-7107D01*
X148299Y-6955D01*
X148314Y-6783D01*
X148319Y-6591D01*
X149319D01*
X149324Y-6783D01*
D02*
G37*
G36*
X156108Y-7591D02*
X155909Y-7797D01*
X155596Y-8166D01*
X155481Y-8329D01*
X155395Y-8478D01*
X155338Y-8612D01*
X155308Y-8732D01*
X155307Y-8837D01*
X155334Y-8928D01*
X155389Y-9005D01*
X153987Y-7603D01*
X154064Y-7658D01*
X154155Y-7685D01*
X154260Y-7684D01*
X154380Y-7655D01*
X154515Y-7597D01*
X154663Y-7511D01*
X154826Y-7396D01*
X155003Y-7254D01*
X155401Y-6884D01*
X156108Y-7591D01*
D02*
G37*
G36*
X136529Y-7458D02*
X136543Y-7631D01*
X136568Y-7784D01*
X136603Y-7916D01*
X136647Y-8029D01*
X136702Y-8120D01*
X136766Y-8192D01*
X136841Y-8243D01*
X136925Y-8273D01*
X137019Y-8283D01*
X135028D01*
X135122Y-8273D01*
X135207Y-8243D01*
X135281Y-8192D01*
X135345Y-8120D01*
X135400Y-8029D01*
X135444Y-7916D01*
X135479Y-7784D01*
X135504Y-7631D01*
X135519Y-7458D01*
X135524Y-7264D01*
X136524D01*
X136529Y-7458D01*
D02*
G37*
G36*
X129048D02*
X129063Y-7631D01*
X129088Y-7784D01*
X129123Y-7916D01*
X129167Y-8029D01*
X129222Y-8120D01*
X129286Y-8192D01*
X129360Y-8243D01*
X129445Y-8273D01*
X129539Y-8283D01*
X127548D01*
X127642Y-8273D01*
X127726Y-8243D01*
X127801Y-8192D01*
X127865Y-8120D01*
X127919Y-8029D01*
X127964Y-7916D01*
X127999Y-7784D01*
X128024Y-7631D01*
X128038Y-7458D01*
X128043Y-7264D01*
X129043D01*
X129048Y-7458D01*
D02*
G37*
G36*
X136925Y-12199D02*
X136841Y-12230D01*
X136766Y-12281D01*
X136702Y-12352D01*
X136647Y-12444D01*
X136603Y-12556D01*
X136568Y-12688D01*
X136543Y-12841D01*
X136529Y-13015D01*
X136524Y-13208D01*
X135524D01*
X135519Y-13015D01*
X135504Y-12841D01*
X135479Y-12688D01*
X135444Y-12556D01*
X135400Y-12444D01*
X135345Y-12352D01*
X135281Y-12281D01*
X135207Y-12230D01*
X135122Y-12199D01*
X135028Y-12189D01*
X137019D01*
X136925Y-12199D01*
D02*
G37*
G36*
X76107Y-14976D02*
X76097Y-14881D01*
X76066Y-14796D01*
X76016Y-14721D01*
X75945Y-14656D01*
X75854Y-14601D01*
X75742Y-14556D01*
X75611Y-14521D01*
X75459Y-14496D01*
X75287Y-14481D01*
X75095Y-14476D01*
Y-13476D01*
X75287Y-13471D01*
X75459Y-13456D01*
X75611Y-13431D01*
X75742Y-13396D01*
X75854Y-13351D01*
X75945Y-13296D01*
X76016Y-13231D01*
X76066Y-13156D01*
X76097Y-13071D01*
X76107Y-12976D01*
Y-14976D01*
D02*
G37*
G36*
X72427Y-13071D02*
X72457Y-13156D01*
X72508Y-13231D01*
X72579Y-13296D01*
X72670Y-13351D01*
X72781Y-13396D01*
X72913Y-13431D01*
X73065Y-13456D01*
X73237Y-13471D01*
X73429Y-13476D01*
Y-14476D01*
X73237Y-14481D01*
X73065Y-14496D01*
X72913Y-14521D01*
X72781Y-14556D01*
X72670Y-14601D01*
X72579Y-14656D01*
X72508Y-14721D01*
X72457Y-14796D01*
X72427Y-14881D01*
X72417Y-14976D01*
Y-12976D01*
X72427Y-13071D01*
D02*
G37*
G36*
X93530Y-18956D02*
X93609Y-19793D01*
X93678Y-20133D01*
X93768Y-20421D01*
X93877Y-20656D01*
X94006Y-20839D01*
X94155Y-20970D01*
X94323Y-21048D01*
X94512Y-21075D01*
X90527D01*
X90716Y-21048D01*
X90885Y-20970D01*
X91033Y-20839D01*
X91162Y-20656D01*
X91272Y-20421D01*
X91361Y-20133D01*
X91430Y-19793D01*
X91480Y-19400D01*
X91510Y-18956D01*
X91520Y-18459D01*
X93520D01*
X93530Y-18956D01*
D02*
G37*
G36*
X129727Y-19390D02*
X129756Y-19471D01*
X129806Y-19543D01*
X129876Y-19604D01*
X129965Y-19657D01*
X130074Y-19700D01*
X130203Y-19733D01*
X130351Y-19757D01*
X130520Y-19771D01*
X130709Y-19776D01*
Y-20776D01*
X130520Y-20780D01*
X130351Y-20795D01*
X130202Y-20819D01*
X130073Y-20853D01*
X129964Y-20896D01*
X129875Y-20949D01*
X129805Y-21011D01*
X129756Y-21083D01*
X129726Y-21165D01*
X129716Y-21256D01*
X129717Y-19300D01*
X129727Y-19390D01*
D02*
G37*
G36*
X79197Y-20769D02*
X79145Y-20808D01*
X79100Y-20873D01*
X79061Y-20964D01*
X79028Y-21081D01*
X79001Y-21224D01*
X78980Y-21393D01*
X78956Y-21810D01*
X78953Y-22057D01*
X76953D01*
X76950Y-21810D01*
X76905Y-21224D01*
X76877Y-21081D01*
X76844Y-20964D01*
X76805Y-20873D01*
X76760Y-20808D01*
X76709Y-20769D01*
X76652Y-20756D01*
X79254D01*
X79197Y-20769D01*
D02*
G37*
G36*
X147071Y-22063D02*
X147061Y-21968D01*
X147031Y-21883D01*
X146980Y-21808D01*
X146909Y-21743D01*
X146818Y-21688D01*
X146707Y-21643D01*
X146575Y-21608D01*
X146424Y-21583D01*
X146251Y-21568D01*
X146059Y-21563D01*
Y-20563D01*
X146251Y-20558D01*
X146424Y-20543D01*
X146575Y-20518D01*
X146707Y-20483D01*
X146818Y-20438D01*
X146909Y-20383D01*
X146980Y-20318D01*
X147031Y-20243D01*
X147061Y-20158D01*
X147071Y-20063D01*
Y-22063D01*
D02*
G37*
G36*
X137206Y-20158D02*
X137237Y-20243D01*
X137287Y-20318D01*
X137358Y-20383D01*
X137449Y-20438D01*
X137561Y-20483D01*
X137692Y-20518D01*
X137844Y-20543D01*
X138016Y-20558D01*
X138208Y-20563D01*
Y-21563D01*
X138016Y-21568D01*
X137844Y-21583D01*
X137692Y-21608D01*
X137561Y-21643D01*
X137449Y-21688D01*
X137358Y-21743D01*
X137287Y-21808D01*
X137237Y-21883D01*
X137206Y-21968D01*
X137196Y-22063D01*
Y-20063D01*
X137206Y-20158D01*
D02*
G37*
G36*
X149724Y-23214D02*
X149639Y-23245D01*
X149564Y-23295D01*
X149499Y-23366D01*
X149444Y-23457D01*
X149399Y-23569D01*
X149364Y-23700D01*
X149339Y-23852D01*
X149324Y-24024D01*
X149319Y-24216D01*
X148319D01*
X148314Y-24024D01*
X148299Y-23852D01*
X148274Y-23700D01*
X148239Y-23569D01*
X148194Y-23457D01*
X148139Y-23366D01*
X148074Y-23295D01*
X147999Y-23245D01*
X147914Y-23214D01*
X147819Y-23204D01*
X149819D01*
X149724Y-23214D01*
D02*
G37*
G36*
X90366Y-25221D02*
X90340Y-25032D01*
X90261Y-24863D01*
X90131Y-24715D01*
X89947Y-24586D01*
X89712Y-24476D01*
X89424Y-24387D01*
X89084Y-24318D01*
X88692Y-24268D01*
X88247Y-24238D01*
X87750Y-24228D01*
Y-22228D01*
X88247Y-22218D01*
X89084Y-22139D01*
X89424Y-22070D01*
X89712Y-21980D01*
X89947Y-21871D01*
X90131Y-21742D01*
X90261Y-21593D01*
X90340Y-21425D01*
X90366Y-21236D01*
Y-25221D01*
D02*
G37*
G36*
X144870Y-25465D02*
X144992Y-25567D01*
X145117Y-25658D01*
X145244Y-25736D01*
X145374Y-25802D01*
X145507Y-25856D01*
X145642Y-25899D01*
X145780Y-25929D01*
X145921Y-25947D01*
X146064Y-25953D01*
Y-26953D01*
X145921Y-26959D01*
X145780Y-26977D01*
X145642Y-27007D01*
X145507Y-27049D01*
X145374Y-27103D01*
X145244Y-27170D01*
X145117Y-27248D01*
X144992Y-27338D01*
X144870Y-27441D01*
X144751Y-27555D01*
Y-25350D01*
X144870Y-25465D01*
D02*
G37*
%LPC*%
G36*
X94307Y191551D02*
X86795D01*
Y180890D01*
X94307D01*
Y191551D01*
D02*
G37*
G36*
X111909Y191118D02*
X111543D01*
Y180618D01*
X122043D01*
Y180984D01*
X121773Y182694D01*
X121237Y184341D01*
X120451Y185883D01*
X119434Y187284D01*
X118209Y188508D01*
X116809Y189526D01*
X115266Y190312D01*
X113619Y190847D01*
X111909Y191118D01*
D02*
G37*
G36*
X110543D02*
X110178D01*
X108467Y190847D01*
X106821Y190312D01*
X105278Y189526D01*
X103877Y188508D01*
X102653Y187284D01*
X101635Y185883D01*
X100849Y184341D01*
X100314Y182694D01*
X100043Y180984D01*
Y180618D01*
X110543D01*
Y191118D01*
D02*
G37*
G36*
X77772Y191157D02*
X70260D01*
Y180496D01*
X77772D01*
Y191157D01*
D02*
G37*
G36*
X155224Y183438D02*
Y179831D01*
X157520D01*
Y180709D01*
X157425Y181432D01*
X157145Y182106D01*
X156701Y182685D01*
X156122Y183130D01*
X155448Y183409D01*
X155224Y183438D01*
D02*
G37*
G36*
X154224D02*
X154001Y183409D01*
X153327Y183130D01*
X152748Y182685D01*
X152303Y182106D01*
X152024Y181432D01*
X151929Y180709D01*
Y179831D01*
X154224D01*
Y183438D01*
D02*
G37*
G36*
X129240Y183438D02*
Y179831D01*
X131536D01*
Y180709D01*
X131440Y181432D01*
X131161Y182106D01*
X130717Y182685D01*
X130138Y183130D01*
X129464Y183409D01*
X129240Y183438D01*
D02*
G37*
G36*
X128240Y183438D02*
X128017Y183409D01*
X127342Y183130D01*
X126763Y182685D01*
X126319Y182106D01*
X126040Y181432D01*
X125945Y180709D01*
Y179831D01*
X128240D01*
Y183438D01*
D02*
G37*
G36*
Y178831D02*
X125945D01*
Y177953D01*
X126040Y177229D01*
X126319Y176555D01*
X126763Y175976D01*
X127342Y175532D01*
X128017Y175252D01*
X128240Y175223D01*
Y178831D01*
D02*
G37*
G36*
X157520Y178831D02*
X155224D01*
Y175223D01*
X155448Y175252D01*
X156122Y175532D01*
X156701Y175976D01*
X157145Y176555D01*
X157425Y177229D01*
X157520Y177953D01*
Y178831D01*
D02*
G37*
G36*
X154224D02*
X151929D01*
Y177953D01*
X152024Y177229D01*
X152303Y176555D01*
X152748Y175976D01*
X153327Y175532D01*
X154001Y175252D01*
X154224Y175223D01*
Y178831D01*
D02*
G37*
G36*
X131536Y178831D02*
X129240D01*
Y175223D01*
X129464Y175252D01*
X130138Y175532D01*
X130717Y175976D01*
X131161Y176555D01*
X131440Y177229D01*
X131536Y177953D01*
Y178831D01*
D02*
G37*
G36*
X122043Y179618D02*
X111543D01*
Y169118D01*
X111909D01*
X113619Y169389D01*
X115266Y169924D01*
X116809Y170710D01*
X118209Y171728D01*
X119434Y172952D01*
X120451Y174353D01*
X121237Y175896D01*
X121773Y177542D01*
X122043Y179252D01*
Y179618D01*
D02*
G37*
G36*
X110543D02*
X100043D01*
Y179252D01*
X100314Y177542D01*
X100849Y175896D01*
X101635Y174353D01*
X102653Y172952D01*
X103877Y171728D01*
X105278Y170710D01*
X106821Y169924D01*
X108467Y169389D01*
X110178Y169118D01*
X110543D01*
Y179618D01*
D02*
G37*
G36*
X134631Y175676D02*
X133953D01*
X133299Y175500D01*
X132711Y175161D01*
X132232Y174682D01*
X131893Y174095D01*
X131718Y173440D01*
Y172762D01*
X131893Y172107D01*
X132232Y171520D01*
X132711Y171041D01*
X132865Y170952D01*
Y166453D01*
X132631Y166218D01*
X132321Y165755D01*
X132213Y165209D01*
X132213Y165209D01*
Y163554D01*
X132018Y163430D01*
X131713Y163364D01*
X130215Y164861D01*
X129719Y165192D01*
X129134Y165309D01*
X128315D01*
X128313Y165309D01*
X128261Y165320D01*
X128210Y165336D01*
X128157Y165358D01*
X128102Y165386D01*
X128042Y165423D01*
X127978Y165470D01*
X127910Y165527D01*
X127814Y165618D01*
X127739Y165666D01*
X127565Y165840D01*
X126978Y166179D01*
X126323Y166354D01*
X125645D01*
X124990Y166179D01*
X124403Y165840D01*
X123924Y165360D01*
X123585Y164773D01*
X123409Y164119D01*
Y163441D01*
X123585Y162786D01*
X123924Y162199D01*
X124403Y161719D01*
X124990Y161380D01*
X125645Y161205D01*
X126323D01*
X126978Y161380D01*
X127339Y161588D01*
X127839Y161317D01*
X127839Y161314D01*
Y155693D01*
X129081D01*
Y153953D01*
X127740D01*
Y148409D01*
X133677D01*
Y149652D01*
X137611D01*
X137818Y149152D01*
X137108Y148442D01*
X136776Y147945D01*
X136660Y147360D01*
Y146341D01*
X136776Y145755D01*
X137108Y145259D01*
X138203Y144164D01*
X138037Y143914D01*
X137929Y143370D01*
X138037Y142827D01*
X138345Y142366D01*
X138806Y142058D01*
X139325Y141954D01*
X139429Y141435D01*
X139737Y140974D01*
X140198Y140666D01*
X140717Y140562D01*
X140821Y140043D01*
X141129Y139582D01*
X141590Y139274D01*
X142109Y139171D01*
X142213Y138651D01*
X142521Y138190D01*
X142982Y137882D01*
X143501Y137778D01*
X143605Y137259D01*
X143913Y136798D01*
X144374Y136490D01*
X144893Y136387D01*
X144997Y135867D01*
X145305Y135406D01*
X145765Y135098D01*
X146285Y134995D01*
X146388Y134475D01*
X146696Y134014D01*
X147158Y133706D01*
X147701Y133598D01*
X148245Y133706D01*
X148706Y134014D01*
X150516Y135824D01*
X150824Y136285D01*
X150932Y136828D01*
X150824Y137372D01*
X150516Y137833D01*
X150055Y138141D01*
X149535Y138245D01*
X149432Y138764D01*
X149124Y139225D01*
X148663Y139533D01*
X148143Y139637D01*
X148040Y140156D01*
X147732Y140617D01*
X147271Y140925D01*
X146751Y141028D01*
X146648Y141548D01*
X146340Y142009D01*
X145879Y142317D01*
X145359Y142420D01*
X145256Y142940D01*
X144948Y143401D01*
X144487Y143709D01*
X143967Y143812D01*
X143864Y144332D01*
X143556Y144793D01*
X143095Y145101D01*
X142575Y145204D01*
X142472Y145724D01*
X142164Y146185D01*
X141703Y146493D01*
X141159Y146601D01*
X140615Y146493D01*
X140366Y146326D01*
X139842Y146850D01*
X140366Y147374D01*
X140615Y147208D01*
X141159Y147100D01*
X141703Y147208D01*
X142164Y147516D01*
X142472Y147977D01*
X142575Y148496D01*
X143095Y148600D01*
X143556Y148908D01*
X143864Y149369D01*
X143967Y149888D01*
X144487Y149992D01*
X144948Y150300D01*
X145256Y150761D01*
X145359Y151280D01*
X145879Y151384D01*
X146340Y151692D01*
X146648Y152153D01*
X146756Y152697D01*
X146648Y153240D01*
X146340Y153701D01*
X144556Y155485D01*
X144539Y155511D01*
X143947Y156102D01*
X144536Y156692D01*
X145117Y156565D01*
X145305Y156285D01*
X147114Y154476D01*
X147575Y154168D01*
X148119Y154059D01*
X148663Y154168D01*
X149124Y154476D01*
X149432Y154937D01*
X149535Y155456D01*
X150055Y155560D01*
X150516Y155868D01*
X150824Y156329D01*
X150932Y156872D01*
X150824Y157416D01*
X150516Y157877D01*
X149117Y159276D01*
X149182Y159772D01*
X149219Y159793D01*
X149698Y160272D01*
X150037Y160859D01*
X150213Y161514D01*
Y162192D01*
X150037Y162847D01*
X149698Y163434D01*
X149219Y163913D01*
X148632Y164252D01*
X148293Y164343D01*
X148084Y164908D01*
X148237Y165136D01*
X148353Y165721D01*
Y165961D01*
X148534Y166232D01*
X148673Y166929D01*
Y170669D01*
X148534Y171367D01*
X148139Y171958D01*
X147548Y172353D01*
X146850Y172492D01*
X146153Y172353D01*
X146026Y172268D01*
X145572Y172423D01*
X145471Y172498D01*
X145461Y172545D01*
X145152Y173008D01*
X145152Y173008D01*
X143938Y174222D01*
X143475Y174531D01*
X142929Y174640D01*
X142929Y174640D01*
X136669D01*
X136625Y174651D01*
X136570Y174670D01*
X136502Y174699D01*
X136423Y174741D01*
X136345Y174788D01*
X136117Y174955D01*
X135995Y175058D01*
X135953Y175081D01*
X135873Y175161D01*
X135286Y175500D01*
X134631Y175676D01*
D02*
G37*
G36*
X114119Y167535D02*
X113441D01*
X112786Y167360D01*
X112199Y167021D01*
X111719Y166542D01*
X111380Y165954D01*
X111205Y165300D01*
Y164622D01*
X111380Y163967D01*
X111719Y163380D01*
X112199Y162900D01*
X112786Y162561D01*
X113441Y162386D01*
X114119D01*
X114773Y162561D01*
X115360Y162900D01*
X115840Y163380D01*
X116179Y163967D01*
X116354Y164622D01*
Y165300D01*
X116179Y165954D01*
X115840Y166542D01*
X115360Y167021D01*
X114773Y167360D01*
X114119Y167535D01*
D02*
G37*
G36*
X63992Y161236D02*
X58842D01*
Y159600D01*
X56807D01*
Y160744D01*
X51067D01*
Y154482D01*
X46929D01*
X46344Y154366D01*
X45848Y154034D01*
X43039Y151226D01*
X42953Y151171D01*
X42819Y151106D01*
X42640Y151040D01*
X42416Y150979D01*
X42148Y150926D01*
X41850Y150884D01*
X41088Y150835D01*
X40655Y150832D01*
X40560Y150813D01*
X40082D01*
X39024Y150530D01*
X38076Y149982D01*
X37301Y149207D01*
X36754Y148259D01*
X36470Y147201D01*
Y146106D01*
X36754Y145048D01*
X37301Y144100D01*
X38076Y143325D01*
X39024Y142778D01*
X39230Y142722D01*
Y142580D01*
X39347Y141995D01*
X39678Y141498D01*
X41833Y139344D01*
X41574Y138896D01*
X41177Y139002D01*
X40082D01*
X39024Y138718D01*
X38076Y138171D01*
X37301Y137397D01*
X36754Y136448D01*
X36470Y135390D01*
Y134295D01*
X36754Y133237D01*
X37301Y132289D01*
X38076Y131514D01*
X39024Y130966D01*
X40082Y130683D01*
X41177D01*
X42235Y130966D01*
X43184Y131514D01*
X43958Y132289D01*
X44506Y133237D01*
X44789Y134295D01*
Y135390D01*
X44506Y136448D01*
X44411Y136612D01*
X44731Y137058D01*
X44757Y137053D01*
X48305D01*
X48324Y137052D01*
X48516Y136589D01*
X49149Y135764D01*
X49975Y135130D01*
X50937Y134732D01*
X51968Y134596D01*
X53000Y134732D01*
X53962Y135130D01*
X54788Y135764D01*
X55421Y136589D01*
X55819Y137551D01*
X55955Y138583D01*
X55819Y139615D01*
X55421Y140576D01*
X54788Y141402D01*
X53962Y142035D01*
X53000Y142434D01*
X51968Y142569D01*
X50937Y142434D01*
X49975Y142035D01*
X49149Y141402D01*
X48516Y140576D01*
X48324Y140113D01*
X48305Y140112D01*
X45391D01*
X42836Y142666D01*
X42902Y143162D01*
X43184Y143325D01*
X43958Y144100D01*
X44506Y145048D01*
X44789Y146106D01*
Y146584D01*
X44809Y146678D01*
X44812Y147112D01*
X44861Y147873D01*
X44902Y148172D01*
X44955Y148440D01*
X45017Y148663D01*
X45082Y148843D01*
X45147Y148977D01*
X45202Y149063D01*
X47563Y151423D01*
X51067D01*
Y150279D01*
X56807D01*
Y156542D01*
X58842D01*
Y156087D01*
X59811D01*
X59848Y156079D01*
X59888Y156087D01*
X59952D01*
X59967Y156085D01*
X59972Y156087D01*
X63992D01*
Y161236D01*
D02*
G37*
G36*
X107791Y162870D02*
X103331D01*
Y158652D01*
X103323Y158614D01*
X103326Y158599D01*
X103324Y158584D01*
X103331Y158553D01*
Y157602D01*
X103517D01*
X103522Y157533D01*
Y157037D01*
X103677Y156257D01*
X103866Y155974D01*
Y150588D01*
X103861Y150457D01*
X103836Y150227D01*
X103816Y150114D01*
X103232D01*
Y149360D01*
X103077Y149325D01*
X102853Y149293D01*
X102731Y149283D01*
X100787D01*
X100007Y149128D01*
X99345Y148686D01*
X98904Y148244D01*
X96244D01*
Y143357D01*
X96236Y143319D01*
X96244Y143281D01*
Y142307D01*
X96913D01*
X96938Y142188D01*
X96977Y141777D01*
Y140817D01*
X97132Y140037D01*
X97574Y139375D01*
X98745Y138204D01*
X98745Y138204D01*
X99407Y137762D01*
X100187Y137607D01*
X102981D01*
X103130Y137593D01*
X103345Y137558D01*
X103497Y137517D01*
X103502Y137515D01*
Y137284D01*
X103603Y136778D01*
X103889Y136350D01*
X104317Y136063D01*
X104823Y135963D01*
X106595D01*
X107100Y136063D01*
X107528Y136350D01*
X107815Y136778D01*
X107915Y137284D01*
Y142008D01*
X107815Y142513D01*
X107528Y142942D01*
X107100Y143228D01*
X106595Y143328D01*
X104823D01*
X104317Y143228D01*
X103889Y142942D01*
X103603Y142513D01*
X103502Y142008D01*
Y141776D01*
X103497Y141774D01*
X103345Y141733D01*
X103130Y141698D01*
X102981Y141685D01*
X101857D01*
X101550Y142185D01*
X101612Y142307D01*
X101787D01*
Y143281D01*
X101795Y143319D01*
X101787Y143357D01*
Y145205D01*
X102731D01*
X102854Y145196D01*
X103077Y145164D01*
X103232Y145128D01*
Y144374D01*
X104206D01*
X104244Y144366D01*
X104282Y144374D01*
X109494D01*
Y142389D01*
X109611Y141804D01*
X109942Y141307D01*
X110528Y140722D01*
X110983Y140418D01*
Y137284D01*
X111083Y136778D01*
X111369Y136350D01*
X111798Y136063D01*
X112303Y135963D01*
X114075D01*
X114580Y136063D01*
X115009Y136350D01*
X115295Y136778D01*
X115395Y137284D01*
Y142008D01*
X115295Y142513D01*
X115009Y142942D01*
X114580Y143228D01*
X114075Y143328D01*
X112553D01*
Y144374D01*
X113697D01*
Y145715D01*
X115043D01*
Y144374D01*
X120390D01*
Y150114D01*
X115043D01*
Y148774D01*
X113697D01*
Y150114D01*
X107995D01*
X107977Y150214D01*
X107945Y150607D01*
Y156693D01*
X107858Y157130D01*
X107791Y157602D01*
X107791Y157602D01*
X107791Y157602D01*
Y158553D01*
X107799Y158584D01*
X107796Y158599D01*
X107799Y158614D01*
X107791Y158652D01*
Y162870D01*
D02*
G37*
G36*
X199499Y147850D02*
X198139D01*
X196805Y147585D01*
X195548Y147064D01*
X194417Y146309D01*
X193455Y145347D01*
X192699Y144216D01*
X192179Y142959D01*
X191913Y141625D01*
Y140265D01*
X192179Y138931D01*
X192699Y137674D01*
X193455Y136543D01*
X194417Y135581D01*
X195548Y134825D01*
X196805Y134305D01*
X198139Y134039D01*
X199499D01*
X200833Y134305D01*
X202090Y134825D01*
X203221Y135581D01*
X204183Y136543D01*
X204939Y137674D01*
X205459Y138931D01*
X205724Y140265D01*
Y141625D01*
X205459Y142959D01*
X204939Y144216D01*
X204183Y145347D01*
X203221Y146309D01*
X202090Y147064D01*
X200833Y147585D01*
X199499Y147850D01*
D02*
G37*
G36*
X161203Y146601D02*
X160659Y146493D01*
X160198Y146185D01*
X159890Y145724D01*
X159787Y145204D01*
X159267Y145101D01*
X158806Y144793D01*
X158498Y144332D01*
X158395Y143812D01*
X157875Y143709D01*
X157414Y143401D01*
X157106Y142940D01*
X157003Y142420D01*
X156483Y142317D01*
X156023Y142009D01*
X155714Y141548D01*
X155611Y141028D01*
X155092Y140925D01*
X154630Y140617D01*
X154323Y140156D01*
X154219Y139637D01*
X153700Y139533D01*
X153239Y139225D01*
X152930Y138764D01*
X152827Y138245D01*
X152308Y138141D01*
X151847Y137833D01*
X151539Y137372D01*
X151430Y136828D01*
X151539Y136285D01*
X151847Y135824D01*
X153656Y134014D01*
X154117Y133706D01*
X154661Y133598D01*
X155205Y133706D01*
X155666Y134014D01*
X155974Y134475D01*
X156077Y134995D01*
X156597Y135098D01*
X157058Y135406D01*
X157366Y135867D01*
X157469Y136387D01*
X157989Y136490D01*
X158450Y136798D01*
X158758Y137259D01*
X158861Y137778D01*
X159381Y137882D01*
X159842Y138190D01*
X160150Y138651D01*
X160253Y139171D01*
X160773Y139274D01*
X161233Y139582D01*
X161542Y140043D01*
X161645Y140562D01*
X162164Y140666D01*
X162626Y140974D01*
X162934Y141435D01*
X163037Y141954D01*
X163556Y142058D01*
X164017Y142366D01*
X164325Y142827D01*
X164434Y143370D01*
X164325Y143914D01*
X164017Y144375D01*
X162208Y146185D01*
X161747Y146493D01*
X161203Y146601D01*
D02*
G37*
G36*
X24312Y145193D02*
X22932D01*
X21579Y144924D01*
X20304Y144396D01*
X19157Y143629D01*
X18182Y142654D01*
X17415Y141507D01*
X16887Y140232D01*
X16618Y138879D01*
Y137499D01*
X16887Y136146D01*
X17415Y134871D01*
X18182Y133724D01*
X19157Y132749D01*
X20304Y131982D01*
X21579Y131454D01*
X22932Y131185D01*
X24312D01*
X25665Y131454D01*
X26940Y131982D01*
X28087Y132749D01*
X29062Y133724D01*
X29829Y134871D01*
X30357Y136146D01*
X30626Y137499D01*
Y138879D01*
X30357Y140232D01*
X29829Y141507D01*
X29062Y142654D01*
X28087Y143629D01*
X26940Y144396D01*
X25665Y144924D01*
X24312Y145193D01*
D02*
G37*
G36*
X114075Y133998D02*
X112303D01*
X111798Y133897D01*
X111369Y133611D01*
X111083Y133183D01*
X110983Y132677D01*
Y127953D01*
X110772Y127697D01*
X107929D01*
Y130134D01*
X107915Y130203D01*
Y132677D01*
X107815Y133183D01*
X107528Y133611D01*
X107100Y133897D01*
X106595Y133998D01*
X104823D01*
X104317Y133897D01*
X103889Y133611D01*
X103603Y133183D01*
X103502Y132677D01*
Y127953D01*
X103603Y127447D01*
X103851Y127076D01*
Y126829D01*
X104006Y126049D01*
X104448Y125387D01*
X105619Y124216D01*
X105619Y124216D01*
X106281Y123774D01*
X107061Y123618D01*
X117066D01*
X117078Y123618D01*
X117320Y123597D01*
X117405Y123584D01*
Y123114D01*
X118379D01*
X118418Y123107D01*
X118456Y123114D01*
X126820D01*
X126858Y123107D01*
X126896Y123114D01*
X127870D01*
Y123868D01*
X128025Y123904D01*
X128249Y123936D01*
X128371Y123945D01*
X128684D01*
X128825Y123933D01*
X129041Y123899D01*
X129194Y123859D01*
X129217Y123851D01*
Y123016D01*
X129800D01*
X129818Y122916D01*
X129851Y122523D01*
Y122105D01*
X129297Y121551D01*
X121709D01*
X121466Y121691D01*
X120811Y121866D01*
X120133D01*
X119479Y121691D01*
X118892Y121352D01*
X118881Y121341D01*
X118728Y121330D01*
X113807D01*
X113786Y121352D01*
X113199Y121691D01*
X112544Y121866D01*
X111866D01*
X111211Y121691D01*
X110624Y121352D01*
X110144Y120872D01*
X109805Y120285D01*
X109630Y119630D01*
Y118952D01*
X109805Y118298D01*
X110144Y117710D01*
X110624Y117231D01*
X111211Y116892D01*
X111866Y116717D01*
X112544D01*
X113199Y116892D01*
X113786Y117231D01*
X113796Y117242D01*
X113949Y117252D01*
X118870D01*
X118892Y117231D01*
X119479Y116892D01*
X120133Y116717D01*
X120811D01*
X121466Y116892D01*
X122053Y117231D01*
X122289Y117466D01*
X122374Y117472D01*
X130141D01*
X130922Y117627D01*
X131583Y118069D01*
X133332Y119818D01*
X133774Y120480D01*
X133929Y121260D01*
Y122515D01*
X133938Y122637D01*
X133970Y122861D01*
X134006Y123016D01*
X134760D01*
Y123990D01*
X134767Y124028D01*
X134760Y124066D01*
Y128953D01*
X130345D01*
X130340Y128954D01*
X130323Y128953D01*
X130267D01*
X130228Y128960D01*
X130190Y128953D01*
X129217D01*
Y128118D01*
X129194Y128109D01*
X129041Y128070D01*
X128825Y128035D01*
X128684Y128023D01*
X128371D01*
X128249Y128033D01*
X128025Y128065D01*
X127870Y128101D01*
Y128854D01*
X126896D01*
X126858Y128862D01*
X126820Y128854D01*
X117405D01*
Y127800D01*
X117371Y127785D01*
X117221Y127745D01*
X117009Y127710D01*
X116861Y127697D01*
X115738D01*
X115409Y128026D01*
Y130134D01*
X115395Y130203D01*
Y132677D01*
X115295Y133183D01*
X115009Y133611D01*
X114580Y133897D01*
X114075Y133998D01*
D02*
G37*
G36*
X142723Y130872D02*
X142045D01*
X141390Y130697D01*
X140803Y130358D01*
X140324Y129878D01*
X139985Y129291D01*
X139809Y128636D01*
Y127958D01*
X139985Y127303D01*
X140324Y126716D01*
X140803Y126237D01*
X141390Y125898D01*
X142045Y125723D01*
X142723D01*
X143378Y125898D01*
X143965Y126237D01*
X144444Y126716D01*
X144783Y127303D01*
X144959Y127958D01*
Y128636D01*
X144783Y129291D01*
X144444Y129878D01*
X143965Y130358D01*
X143378Y130697D01*
X142723Y130872D01*
D02*
G37*
G36*
X41177Y127191D02*
X40082D01*
X39024Y126908D01*
X38076Y126360D01*
X37301Y125585D01*
X36754Y124637D01*
X36470Y123579D01*
Y122484D01*
X36754Y121426D01*
X37301Y120477D01*
X38076Y119703D01*
X39024Y119156D01*
X40082Y118872D01*
X41177D01*
X42235Y119156D01*
X43184Y119703D01*
X43958Y120477D01*
X44506Y121426D01*
X44789Y122484D01*
Y123579D01*
X44506Y124637D01*
X43958Y125585D01*
X43184Y126360D01*
X42235Y126908D01*
X41177Y127191D01*
D02*
G37*
G36*
X24312Y126689D02*
X22932D01*
X21579Y126420D01*
X20304Y125892D01*
X19157Y125125D01*
X18182Y124150D01*
X17415Y123003D01*
X16887Y121728D01*
X16618Y120375D01*
Y118995D01*
X16887Y117642D01*
X17415Y116367D01*
X18182Y115220D01*
X19157Y114245D01*
X20304Y113478D01*
X21579Y112950D01*
X22932Y112681D01*
X24312D01*
X25665Y112950D01*
X26940Y113478D01*
X28087Y114245D01*
X29062Y115220D01*
X29829Y116367D01*
X30357Y117642D01*
X30626Y118995D01*
Y120375D01*
X30357Y121728D01*
X29829Y123003D01*
X29062Y124150D01*
X28087Y125125D01*
X26940Y125892D01*
X25665Y126420D01*
X24312Y126689D01*
D02*
G37*
G36*
X44789Y115380D02*
X41130D01*
Y111721D01*
X44789D01*
Y115380D01*
D02*
G37*
G36*
X40130D02*
X36470D01*
Y111721D01*
X40130D01*
Y115380D01*
D02*
G37*
G36*
X44789Y110721D02*
X41130D01*
Y107061D01*
X44789D01*
Y110721D01*
D02*
G37*
G36*
X40130D02*
X36470D01*
Y107061D01*
X40130D01*
Y110721D01*
D02*
G37*
G36*
X136953Y103362D02*
X136275D01*
X135620Y103187D01*
X135033Y102848D01*
X134554Y102368D01*
X134215Y101781D01*
X134039Y101126D01*
Y100448D01*
X134215Y99794D01*
X134554Y99206D01*
X135033Y98727D01*
X135620Y98388D01*
X136275Y98213D01*
X136953D01*
X137608Y98388D01*
X138195Y98727D01*
X138674Y99206D01*
X139014Y99794D01*
X139189Y100448D01*
Y101126D01*
X139014Y101781D01*
X138674Y102368D01*
X138195Y102848D01*
X137608Y103187D01*
X136953Y103362D01*
D02*
G37*
G36*
X58213Y85252D02*
X57535D01*
X56880Y85076D01*
X56293Y84737D01*
X56119Y84564D01*
X56044Y84516D01*
X55949Y84425D01*
X55880Y84367D01*
X55816Y84321D01*
X55756Y84284D01*
X55701Y84255D01*
X55648Y84234D01*
X55597Y84218D01*
X55546Y84207D01*
X55543Y84207D01*
X46063D01*
X45478Y84090D01*
X44982Y83759D01*
X37556Y76332D01*
X27953D01*
X27367Y76216D01*
X26871Y75885D01*
X24501Y73515D01*
X24108Y73234D01*
X23628Y73714D01*
X23041Y74053D01*
X22386Y74228D01*
X21708D01*
X21053Y74053D01*
X20466Y73714D01*
X19987Y73234D01*
X19648Y72647D01*
X19472Y71992D01*
Y71315D01*
X19648Y70660D01*
X19987Y70073D01*
X20233Y69826D01*
X20411Y69488D01*
X20233Y69150D01*
X19987Y68904D01*
X19648Y68317D01*
X19472Y67662D01*
Y66984D01*
X19648Y66329D01*
X19987Y65742D01*
X20466Y65263D01*
X21053Y64924D01*
X21708Y64748D01*
X22386D01*
X23041Y64924D01*
X23628Y65263D01*
X24108Y65742D01*
X24447Y66329D01*
X24520Y66602D01*
X24564Y66691D01*
X24602Y66838D01*
X24635Y66942D01*
X24723Y67170D01*
X24760Y67246D01*
X24803Y67325D01*
X24847Y67396D01*
X24892Y67458D01*
X24894Y67460D01*
X29133Y71699D01*
X38976D01*
X39562Y71815D01*
X40058Y72147D01*
X42785Y74874D01*
X42839Y74846D01*
X42899Y74809D01*
X42963Y74763D01*
X43031Y74705D01*
X43126Y74614D01*
X43202Y74566D01*
X43376Y74392D01*
X43963Y74053D01*
X44618Y73878D01*
X45296D01*
X45950Y74053D01*
X46538Y74392D01*
X47017Y74872D01*
X47356Y75459D01*
X47532Y76114D01*
Y76792D01*
X47356Y77447D01*
X47017Y78034D01*
X46538Y78513D01*
X45950Y78852D01*
X45296Y79027D01*
X45283D01*
X45076Y79527D01*
X46696Y81148D01*
X55543D01*
X55546Y81147D01*
X55597Y81136D01*
X55648Y81120D01*
X55701Y81099D01*
X55756Y81070D01*
X55816Y81034D01*
X55880Y80987D01*
X55949Y80930D01*
X56044Y80839D01*
X56119Y80791D01*
X56293Y80617D01*
X56880Y80278D01*
X57535Y80102D01*
X58213D01*
X58868Y80278D01*
X59455Y80617D01*
X59934Y81096D01*
X60273Y81683D01*
X60449Y82338D01*
Y83016D01*
X60273Y83671D01*
X59934Y84258D01*
X59455Y84737D01*
X58868Y85076D01*
X58213Y85252D01*
D02*
G37*
G36*
X121599Y80570D02*
X120921D01*
X120266Y80394D01*
X119679Y80055D01*
X119200Y79576D01*
X118860Y78989D01*
X118685Y78334D01*
Y77656D01*
X118860Y77001D01*
X119200Y76414D01*
X119679Y75934D01*
X120266Y75595D01*
X120921Y75420D01*
X121599D01*
X122254Y75595D01*
X122841Y75934D01*
X123320Y76414D01*
X123659Y77001D01*
X123835Y77656D01*
Y78334D01*
X123659Y78989D01*
X123320Y79576D01*
X122841Y80055D01*
X122254Y80394D01*
X121599Y80570D01*
D02*
G37*
G36*
X30654Y51394D02*
X29976D01*
X29321Y51218D01*
X28734Y50879D01*
X28255Y50400D01*
X27916Y49813D01*
X27740Y49158D01*
Y48480D01*
X27916Y47825D01*
X28255Y47238D01*
X28734Y46759D01*
X29321Y46420D01*
X29976Y46244D01*
X30654D01*
X31309Y46420D01*
X31896Y46759D01*
X32375Y47238D01*
X32714Y47825D01*
X32890Y48480D01*
Y49158D01*
X32714Y49813D01*
X32375Y50400D01*
X31896Y50879D01*
X31309Y51218D01*
X30654Y51394D01*
D02*
G37*
G36*
X55433Y32025D02*
X53189D01*
X52776Y31942D01*
X52425Y31708D01*
X52191Y31358D01*
X52109Y30945D01*
Y30085D01*
X52101Y30081D01*
X51948Y30040D01*
X51734Y30005D01*
X51585Y29992D01*
X49685D01*
X48905Y29837D01*
X48243Y29395D01*
X42530Y23681D01*
X42169Y23346D01*
X41870Y23106D01*
X41609Y22924D01*
X41584Y22909D01*
X36618D01*
Y14886D01*
X44642D01*
Y19852D01*
X44656Y19877D01*
X44831Y20126D01*
X45321Y20705D01*
X50530Y25914D01*
X51585D01*
X51734Y25901D01*
X51948Y25865D01*
X52101Y25824D01*
X52109Y25821D01*
Y24961D01*
X52191Y24547D01*
X52425Y24197D01*
X52776Y23963D01*
X53189Y23881D01*
X55433D01*
X55846Y23963D01*
X56197Y24197D01*
X56431Y24547D01*
X56513Y24961D01*
Y30945D01*
X56431Y31358D01*
X56197Y31708D01*
X55846Y31942D01*
X55433Y32025D01*
D02*
G37*
G36*
X24302Y31709D02*
X22942D01*
X21608Y31443D01*
X20351Y30923D01*
X19220Y30167D01*
X18258Y29205D01*
X17503Y28074D01*
X16982Y26817D01*
X16716Y25483D01*
Y24123D01*
X16982Y22789D01*
X17503Y21532D01*
X18258Y20401D01*
X19220Y19439D01*
X20351Y18684D01*
X21608Y18163D01*
X22942Y17898D01*
X24302D01*
X25636Y18163D01*
X26893Y18684D01*
X28024Y19439D01*
X28986Y20401D01*
X29742Y21532D01*
X30262Y22789D01*
X30528Y24123D01*
Y25483D01*
X30262Y26817D01*
X29742Y28074D01*
X28986Y29205D01*
X28024Y30167D01*
X26893Y30923D01*
X25636Y31443D01*
X24302Y31709D01*
D02*
G37*
G36*
X65433Y10765D02*
X63189D01*
X62776Y10683D01*
X62426Y10449D01*
X62191Y10098D01*
X62109Y9685D01*
Y3701D01*
X62191Y3288D01*
X62426Y2937D01*
X62776Y2703D01*
X62782Y2702D01*
Y2009D01*
X62781Y2004D01*
X62769Y1945D01*
X62752Y1884D01*
X62728Y1819D01*
X62696Y1751D01*
X62657Y1678D01*
X62608Y1601D01*
X62548Y1519D01*
X62460Y1412D01*
X62443Y1380D01*
X62379Y1315D01*
X62196Y998D01*
X61618D01*
X61509Y1187D01*
X61169Y1527D01*
X61123Y1588D01*
X61031Y1669D01*
X60978Y1723D01*
X60936Y1773D01*
X60905Y1819D01*
X60881Y1860D01*
X60864Y1900D01*
X60850Y1940D01*
X60840Y1982D01*
Y2702D01*
X60846Y2703D01*
X61197Y2937D01*
X61431Y3288D01*
X61513Y3701D01*
Y9685D01*
X61431Y10098D01*
X61197Y10449D01*
X60846Y10683D01*
X60433Y10765D01*
X58189D01*
X57776Y10683D01*
X57425Y10449D01*
X57191Y10098D01*
X57109Y9685D01*
Y3701D01*
X57191Y3288D01*
X57425Y2937D01*
X57776Y2703D01*
X57782Y2702D01*
Y1876D01*
X57781Y1872D01*
X57769Y1812D01*
X57751Y1749D01*
X57727Y1684D01*
X57696Y1615D01*
X57656Y1541D01*
X57607Y1463D01*
X57547Y1380D01*
X57460Y1272D01*
X57445Y1244D01*
X57389Y1187D01*
X57050Y600D01*
X56874Y-55D01*
Y-733D01*
X57050Y-1388D01*
X57389Y-1975D01*
X57868Y-2454D01*
X58455Y-2793D01*
X59110Y-2968D01*
X59788D01*
X60443Y-2793D01*
X61030Y-2454D01*
X61509Y-1975D01*
X61692Y-1658D01*
X62270D01*
X62379Y-1847D01*
X62858Y-2326D01*
X63445Y-2665D01*
X64100Y-2841D01*
X64778D01*
X65433Y-2665D01*
X66020Y-2326D01*
X66499Y-1847D01*
X66838Y-1260D01*
X67014Y-605D01*
Y73D01*
X66838Y728D01*
X66499Y1315D01*
X66175Y1640D01*
X66126Y1705D01*
X66033Y1788D01*
X65980Y1843D01*
X65938Y1894D01*
X65906Y1940D01*
X65882Y1983D01*
X65864Y2024D01*
X65850Y2064D01*
X65840Y2107D01*
X65840Y2107D01*
Y2702D01*
X65846Y2703D01*
X66197Y2937D01*
X66431Y3288D01*
X66513Y3701D01*
Y9685D01*
X66431Y10098D01*
X66197Y10449D01*
X65846Y10683D01*
X65433Y10765D01*
D02*
G37*
G36*
X70433D02*
X68189D01*
X67776Y10683D01*
X67425Y10449D01*
X67191Y10098D01*
X67109Y9685D01*
Y3701D01*
X67191Y3288D01*
X67425Y2937D01*
X67776Y2703D01*
X67782Y2702D01*
Y-3035D01*
X66815D01*
Y-8776D01*
X72161D01*
Y-3035D01*
X70840D01*
Y2702D01*
X70846Y2703D01*
X71197Y2937D01*
X71431Y3288D01*
X71513Y3701D01*
Y9685D01*
X71431Y10098D01*
X71197Y10449D01*
X70846Y10683D01*
X70433Y10765D01*
D02*
G37*
G36*
X111909Y-3764D02*
X111543D01*
Y-14264D01*
X122043D01*
Y-13898D01*
X121773Y-12188D01*
X121237Y-10541D01*
X120451Y-8998D01*
X119434Y-7598D01*
X118209Y-6373D01*
X116809Y-5356D01*
X115266Y-4570D01*
X113619Y-4035D01*
X111909Y-3764D01*
D02*
G37*
G36*
X122043Y-15264D02*
X111543D01*
Y-25764D01*
X111909D01*
X113619Y-25493D01*
X115266Y-24958D01*
X116809Y-24172D01*
X118209Y-23154D01*
X119434Y-21930D01*
X120451Y-20529D01*
X121237Y-18986D01*
X121773Y-17340D01*
X122043Y-15630D01*
Y-15264D01*
D02*
G37*
G36*
X110543D02*
X100043D01*
Y-15630D01*
X100314Y-17340D01*
X100849Y-18986D01*
X101635Y-20529D01*
X102653Y-21930D01*
X103877Y-23154D01*
X105278Y-24172D01*
X106821Y-24958D01*
X108467Y-25493D01*
X110178Y-25764D01*
X110543D01*
Y-15264D01*
D02*
G37*
%LPD*%
G36*
X135486Y174153D02*
X135778Y173940D01*
X135921Y173853D01*
X136061Y173779D01*
X136199Y173719D01*
X136335Y173672D01*
X136468Y173639D01*
X136598Y173619D01*
X136727Y173612D01*
X136785Y172813D01*
X136652Y172806D01*
X136519Y172784D01*
X136387Y172747D01*
X136256Y172696D01*
X136127Y172630D01*
X135998Y172549D01*
X135870Y172454D01*
X135743Y172345D01*
X135617Y172220D01*
X135492Y172081D01*
X135336Y174280D01*
X135486Y174153D01*
D02*
G37*
G36*
X144544Y171860D02*
X144569Y171536D01*
X144583Y171459D01*
X144601Y171399D01*
X144622Y171353D01*
X144646Y171324D01*
X144674Y171310D01*
X144705Y171311D01*
X143585Y170985D01*
X143615Y171004D01*
X143642Y171041D01*
X143666Y171096D01*
X143686Y171170D01*
X143704Y171262D01*
X143718Y171372D01*
X143737Y171649D01*
X143743Y171999D01*
X144543D01*
X144544Y171860D01*
D02*
G37*
G36*
X142400Y166526D02*
X142344Y166422D01*
X142294Y166314D01*
X142251Y166203D01*
X142215Y166088D01*
X142185Y165971D01*
X142162Y165849D01*
X142145Y165724D01*
X142135Y165596D01*
X142132Y165464D01*
X141333D01*
X141329Y165596D01*
X141303Y165849D01*
X141280Y165971D01*
X141250Y166088D01*
X141214Y166203D01*
X141171Y166314D01*
X141121Y166422D01*
X141065Y166526D01*
X141002Y166627D01*
X142463D01*
X142400Y166526D01*
D02*
G37*
G36*
X137282D02*
X137225Y166422D01*
X137176Y166314D01*
X137133Y166203D01*
X137097Y166088D01*
X137067Y165971D01*
X137061Y165940D01*
X137077Y165880D01*
X137126Y165747D01*
X137189Y165613D01*
X137267Y165478D01*
X137358Y165342D01*
X137463Y165206D01*
X137583Y165070D01*
X137716Y164932D01*
X135512D01*
X135645Y165070D01*
X135765Y165206D01*
X135870Y165342D01*
X135962Y165478D01*
X136039Y165613D01*
X136102Y165747D01*
X136151Y165880D01*
X136167Y165940D01*
X136162Y165971D01*
X136132Y166088D01*
X136095Y166203D01*
X136053Y166314D01*
X136003Y166422D01*
X135947Y166526D01*
X135884Y166627D01*
X137345D01*
X137282Y166526D01*
D02*
G37*
G36*
X127228Y164767D02*
X127350Y164665D01*
X127475Y164575D01*
X127603Y164496D01*
X127733Y164430D01*
X127865Y164376D01*
X128000Y164334D01*
X128138Y164304D01*
X128279Y164286D01*
X128422Y164279D01*
Y163279D01*
X128279Y163274D01*
X128138Y163255D01*
X128000Y163225D01*
X127865Y163183D01*
X127733Y163129D01*
X127603Y163063D01*
X127475Y162984D01*
X127350Y162894D01*
X127228Y162792D01*
X127109Y162677D01*
Y164882D01*
X127228Y164767D01*
D02*
G37*
G36*
X144204Y162394D02*
X144106Y162289D01*
X144020Y162176D01*
X143944Y162057D01*
X143878Y161932D01*
X143822Y161800D01*
X143777Y161661D01*
X143742Y161515D01*
X143718Y161363D01*
X143704Y161205D01*
X143701Y161039D01*
X142142Y162598D01*
X142307Y162602D01*
X142466Y162616D01*
X142618Y162640D01*
X142763Y162675D01*
X142902Y162720D01*
X143034Y162775D01*
X143160Y162841D01*
X143279Y162917D01*
X143391Y163004D01*
X143497Y163101D01*
X144204Y162394D01*
D02*
G37*
G36*
X131214Y161426D02*
X131229Y161254D01*
X131254Y161102D01*
X131289Y160970D01*
X131334Y160859D01*
X131389Y160768D01*
X131454Y160697D01*
X131529Y160646D01*
X131614Y160616D01*
X131709Y160606D01*
X129709D01*
X129804Y160616D01*
X129889Y160646D01*
X129964Y160697D01*
X130029Y160768D01*
X130084Y160859D01*
X130129Y160970D01*
X130164Y161102D01*
X130189Y161254D01*
X130204Y161426D01*
X130209Y161618D01*
X131209D01*
X131214Y161426D01*
D02*
G37*
G36*
X147652Y160278D02*
X147459Y160272D01*
X147105Y160232D01*
X146944Y160199D01*
X146794Y160157D01*
X146654Y160106D01*
X146525Y160045D01*
X146407Y159976D01*
X146299Y159897D01*
X146202Y159810D01*
X145626Y160364D01*
X145714Y160462D01*
X145792Y160571D01*
X145861Y160690D01*
X145920Y160819D01*
X145968Y160958D01*
X146007Y161108D01*
X146036Y161267D01*
X146055Y161437D01*
X146064Y161617D01*
X146064Y161808D01*
X147652Y160278D01*
D02*
G37*
G36*
X131515Y156707D02*
X131430Y156676D01*
X131355Y156626D01*
X131290Y156555D01*
X131235Y156464D01*
X131190Y156353D01*
X131155Y156221D01*
X131130Y156069D01*
X131115Y155897D01*
X131110Y155705D01*
X130110D01*
X130105Y155897D01*
X130090Y156069D01*
X130065Y156221D01*
X130030Y156353D01*
X129985Y156464D01*
X129930Y156555D01*
X129865Y156626D01*
X129790Y156676D01*
X129705Y156707D01*
X129610Y156717D01*
X131610D01*
X131515Y156707D01*
D02*
G37*
G36*
X142531Y156250D02*
X142548Y156194D01*
X142576Y156132D01*
X142616Y156063D01*
X142667Y155987D01*
X142729Y155904D01*
X142983Y155616D01*
X143091Y155506D01*
X141843Y155623D01*
X142126Y155905D01*
X142526Y156299D01*
X142531Y156250D01*
D02*
G37*
G36*
X131115Y153751D02*
X131130Y153581D01*
X131155Y153431D01*
X131190Y153301D01*
X131235Y153191D01*
X131290Y153101D01*
X131355Y153031D01*
X131430Y152981D01*
X131515Y152951D01*
X131610Y152941D01*
X129610D01*
X129705Y152951D01*
X129790Y152981D01*
X129865Y153031D01*
X129930Y153101D01*
X129985Y153191D01*
X130030Y153301D01*
X130065Y153431D01*
X130090Y153581D01*
X130105Y153751D01*
X130110Y153941D01*
X131110D01*
X131115Y153751D01*
D02*
G37*
G36*
X132663Y152086D02*
X132694Y152001D01*
X132744Y151926D01*
X132815Y151861D01*
X132906Y151806D01*
X133018Y151761D01*
X133149Y151726D01*
X133301Y151701D01*
X133473Y151686D01*
X133665Y151681D01*
Y150681D01*
X133473Y150676D01*
X133301Y150661D01*
X133149Y150636D01*
X133018Y150601D01*
X132906Y150556D01*
X132815Y150501D01*
X132744Y150436D01*
X132694Y150361D01*
X132663Y150276D01*
X132653Y150181D01*
Y152181D01*
X132663Y152086D01*
D02*
G37*
G36*
X140695Y148452D02*
X140620Y148512D01*
X140539Y148550D01*
X140450Y148568D01*
X140354Y148563D01*
X140251Y148538D01*
X140140Y148491D01*
X140022Y148423D01*
X139897Y148333D01*
X139765Y148222D01*
X139626Y148090D01*
X138918Y148797D01*
X139051Y148936D01*
X139162Y149068D01*
X139252Y149194D01*
X139320Y149311D01*
X139367Y149422D01*
X139392Y149525D01*
X139397Y149621D01*
X139379Y149710D01*
X139341Y149792D01*
X139280Y149866D01*
X140695Y148452D01*
D02*
G37*
G36*
X139765Y145479D02*
X139897Y145368D01*
X140022Y145278D01*
X140140Y145210D01*
X140251Y145163D01*
X140354Y145137D01*
X140450Y145133D01*
X140539Y145150D01*
X140620Y145189D01*
X140695Y145249D01*
X139280Y143835D01*
X139341Y143909D01*
X139379Y143991D01*
X139396Y144080D01*
X139392Y144176D01*
X139367Y144279D01*
X139320Y144389D01*
X139252Y144507D01*
X139162Y144632D01*
X139051Y144764D01*
X138918Y144904D01*
X139626Y145611D01*
X139765Y145479D01*
D02*
G37*
G36*
X59855Y157099D02*
X59844Y157188D01*
X59815Y157269D01*
X59764Y157340D01*
X59694Y157401D01*
X59605Y157453D01*
X59495Y157495D01*
X59364Y157528D01*
X59215Y157552D01*
X59044Y157566D01*
X58855Y157571D01*
Y158571D01*
X59046Y158576D01*
X59218Y158591D01*
X59369Y158616D01*
X59501Y158651D01*
X59612Y158696D01*
X59703Y158751D01*
X59774Y158816D01*
X59825Y158891D01*
X59856Y158976D01*
X59866Y159071D01*
X59855Y157099D01*
D02*
G37*
G36*
X55793Y158976D02*
X55824Y158891D01*
X55874Y158816D01*
X55945Y158751D01*
X56036Y158696D01*
X56147Y158651D01*
X56279Y158616D01*
X56431Y158591D01*
X56603Y158576D01*
X56795Y158571D01*
Y157571D01*
X56603Y157566D01*
X56431Y157551D01*
X56279Y157526D01*
X56147Y157491D01*
X56036Y157446D01*
X55945Y157391D01*
X55874Y157326D01*
X55824Y157251D01*
X55793Y157166D01*
X55783Y157071D01*
Y159071D01*
X55793Y158976D01*
D02*
G37*
G36*
X52091Y151953D02*
X52081Y152048D01*
X52051Y152133D01*
X52000Y152208D01*
X51929Y152273D01*
X51838Y152328D01*
X51727Y152373D01*
X51595Y152408D01*
X51443Y152433D01*
X51271Y152448D01*
X51079Y152453D01*
Y153453D01*
X51271Y153458D01*
X51443Y153473D01*
X51595Y153498D01*
X51727Y153533D01*
X51838Y153578D01*
X51929Y153633D01*
X52000Y153698D01*
X52051Y153773D01*
X52081Y153858D01*
X52091Y153953D01*
Y151953D01*
D02*
G37*
G36*
X44530Y149846D02*
X44385Y149677D01*
X44256Y149475D01*
X44142Y149241D01*
X44044Y148974D01*
X43962Y148674D01*
X43896Y148341D01*
X43846Y147976D01*
X43792Y147148D01*
X43789Y146685D01*
X40661Y149813D01*
X41124Y149816D01*
X41953Y149869D01*
X42318Y149920D01*
X42650Y149986D01*
X42950Y150068D01*
X43217Y150166D01*
X43452Y150279D01*
X43654Y150408D01*
X43823Y150553D01*
X44530Y149846D01*
D02*
G37*
G36*
X41714Y143675D02*
X41619Y143608D01*
X41535Y143528D01*
X41462Y143434D01*
X41400Y143326D01*
X41350Y143204D01*
X41310Y143069D01*
X41282Y142920D01*
X41265Y142757D01*
X41260Y142580D01*
X40260D01*
X40254Y142749D01*
X40237Y142903D01*
X40208Y143044D01*
X40168Y143171D01*
X40116Y143284D01*
X40052Y143383D01*
X39977Y143468D01*
X39891Y143539D01*
X39793Y143596D01*
X39683Y143639D01*
X41821Y143727D01*
X41714Y143675D01*
D02*
G37*
G36*
X49210Y137586D02*
X49199Y137680D01*
X49164Y137765D01*
X49107Y137839D01*
X49027Y137904D01*
X48923Y137959D01*
X48797Y138003D01*
X48648Y138038D01*
X48476Y138063D01*
X48281Y138078D01*
X48063Y138083D01*
Y139083D01*
X48281Y139088D01*
X48476Y139102D01*
X48648Y139127D01*
X48797Y139162D01*
X48923Y139207D01*
X49027Y139261D01*
X49107Y139326D01*
X49164Y139400D01*
X49199Y139485D01*
X49210Y139579D01*
Y137586D01*
D02*
G37*
G36*
X106738Y158599D02*
X106701Y158551D01*
X106668Y158472D01*
X106640Y158362D01*
X106616Y158220D01*
X106596Y158047D01*
X106570Y157605D01*
X106561Y157037D01*
X104561D01*
X104559Y157337D01*
X104482Y158362D01*
X104454Y158472D01*
X104421Y158551D01*
X104384Y158599D01*
X104343Y158614D01*
X106779D01*
X106738Y158599D01*
D02*
G37*
G36*
X106912Y150722D02*
X106965Y150082D01*
X107011Y149822D01*
X107071Y149602D01*
X107144Y149422D01*
X107229Y149282D01*
X107329Y149182D01*
X107441Y149122D01*
X107567Y149102D01*
X104244D01*
X104370Y149122D01*
X104482Y149182D01*
X104581Y149282D01*
X104667Y149422D01*
X104740Y149602D01*
X104800Y149822D01*
X104846Y150082D01*
X104879Y150382D01*
X104905Y151102D01*
X106905D01*
X106912Y150722D01*
D02*
G37*
G36*
X116055Y146244D02*
X116045Y146339D01*
X116015Y146424D01*
X115965Y146499D01*
X115895Y146564D01*
X115805Y146619D01*
X115695Y146664D01*
X115565Y146699D01*
X115415Y146724D01*
X115245Y146739D01*
X115055Y146744D01*
Y147744D01*
X115245Y147749D01*
X115415Y147764D01*
X115565Y147789D01*
X115695Y147824D01*
X115805Y147869D01*
X115895Y147924D01*
X115965Y147989D01*
X116015Y148064D01*
X116045Y148149D01*
X116055Y148244D01*
Y146244D01*
D02*
G37*
G36*
X112683Y148149D02*
X112713Y148064D01*
X112764Y147989D01*
X112835Y147924D01*
X112926Y147869D01*
X113037Y147824D01*
X113169Y147789D01*
X113321Y147764D01*
X113493Y147749D01*
X113685Y147744D01*
Y146744D01*
X113493Y146739D01*
X113321Y146724D01*
X113169Y146699D01*
X113037Y146664D01*
X112926Y146619D01*
X112835Y146564D01*
X112764Y146499D01*
X112713Y146424D01*
X112683Y146339D01*
X112673Y146244D01*
Y148244D01*
X112683Y148149D01*
D02*
G37*
G36*
X104244Y145386D02*
X104224Y145549D01*
X104164Y145695D01*
X104064Y145824D01*
X103924Y145935D01*
X103744Y146030D01*
X103524Y146107D01*
X103264Y146167D01*
X102964Y146210D01*
X102624Y146236D01*
X102244Y146244D01*
Y148244D01*
X102624Y148253D01*
X102964Y148278D01*
X103264Y148321D01*
X103524Y148381D01*
X103744Y148459D01*
X103924Y148553D01*
X104064Y148665D01*
X104164Y148793D01*
X104224Y148939D01*
X104244Y149102D01*
Y145386D01*
D02*
G37*
G36*
X111929Y145388D02*
X111844Y145358D01*
X111769Y145307D01*
X111704Y145236D01*
X111649Y145145D01*
X111604Y145034D01*
X111569Y144902D01*
X111544Y144750D01*
X111529Y144578D01*
X111524Y144386D01*
X110524D01*
X110519Y144578D01*
X110504Y144750D01*
X110479Y144902D01*
X110444Y145034D01*
X110399Y145145D01*
X110344Y145236D01*
X110279Y145307D01*
X110204Y145358D01*
X110119Y145388D01*
X110024Y145398D01*
X112024D01*
X111929Y145388D01*
D02*
G37*
G36*
X100631Y143299D02*
X100502Y143239D01*
X100388Y143139D01*
X100289Y142999D01*
X100206Y142819D01*
X100137Y142599D01*
X100084Y142339D01*
X100046Y142039D01*
X100023Y141699D01*
X100016Y141319D01*
X98016D01*
X98008Y141699D01*
X97947Y142339D01*
X97894Y142599D01*
X97826Y142819D01*
X97742Y142999D01*
X97644Y143139D01*
X97530Y143239D01*
X97400Y143299D01*
X97256Y143319D01*
X100775D01*
X100631Y143299D01*
D02*
G37*
G36*
X104546Y137646D02*
X104526Y137836D01*
X104465Y138006D01*
X104365Y138156D01*
X104224Y138286D01*
X104043Y138396D01*
X103822Y138486D01*
X103560Y138556D01*
X103258Y138606D01*
X102916Y138636D01*
X102534Y138646D01*
Y140646D01*
X102916Y140656D01*
X103258Y140686D01*
X103560Y140736D01*
X103822Y140806D01*
X104043Y140896D01*
X104224Y141006D01*
X104365Y141136D01*
X104465Y141286D01*
X104526Y141456D01*
X104546Y141646D01*
Y137646D01*
D02*
G37*
G36*
X130228Y124028D02*
X133748D01*
X133585Y124008D01*
X133439Y123948D01*
X133310Y123848D01*
X133199Y123708D01*
X133104Y123528D01*
X133027Y123308D01*
X132967Y123048D01*
X132924Y122748D01*
X132898Y122408D01*
X132890Y122028D01*
X130890D01*
X130883Y122408D01*
X130830Y123048D01*
X130784Y123308D01*
X130725Y123528D01*
X130652Y123708D01*
X130566Y123848D01*
X130467Y123948D01*
X130354Y124008D01*
X130228Y124028D01*
X130209Y124209D01*
X130149Y124372D01*
X130049Y124516D01*
X129909Y124640D01*
X129728Y124745D01*
X129508Y124831D01*
X129249Y124898D01*
X128949Y124946D01*
X128609Y124975D01*
X128526Y124977D01*
X128478Y124976D01*
X128138Y124950D01*
X127838Y124907D01*
X127578Y124847D01*
X127358Y124770D01*
X127178Y124675D01*
X127038Y124564D01*
X126938Y124435D01*
X126878Y124289D01*
X126858Y124126D01*
Y127842D01*
X126878Y127679D01*
X126938Y127533D01*
X127038Y127405D01*
X127178Y127293D01*
X127358Y127199D01*
X127578Y127121D01*
X127838Y127061D01*
X128138Y127019D01*
X128478Y126993D01*
X128526Y126992D01*
X128609Y126994D01*
X128949Y127023D01*
X129249Y127070D01*
X129508Y127137D01*
X129728Y127223D01*
X129909Y127329D01*
X130049Y127453D01*
X130149Y127596D01*
X130209Y127759D01*
X130228Y127941D01*
Y124028D01*
D02*
G37*
G36*
X118418Y124126D02*
X118397Y124227D01*
X118338Y124317D01*
X118237Y124397D01*
X118097Y124466D01*
X117918Y124525D01*
X117698Y124573D01*
X117438Y124610D01*
X117138Y124636D01*
X116418Y124657D01*
Y126657D01*
X116797Y126667D01*
X117138Y126698D01*
X117438Y126748D01*
X117698Y126818D01*
X117918Y126908D01*
X118097Y127017D01*
X118237Y127147D01*
X118338Y127297D01*
X118397Y127468D01*
X118418Y127657D01*
Y124126D01*
D02*
G37*
G36*
X121449Y120535D02*
X121483Y120530D01*
X121536Y120525D01*
X122072Y120512D01*
X122413Y120511D01*
X122785Y118511D01*
X122607Y118510D01*
X122058Y118473D01*
X121962Y118456D01*
X121882Y118436D01*
X121818Y118412D01*
X121771Y118386D01*
X121740Y118357D01*
X121432Y120540D01*
X121449Y120535D01*
D02*
G37*
G36*
X119348Y118189D02*
X119319Y118208D01*
X119274Y118226D01*
X119212Y118241D01*
X119134Y118254D01*
X118926Y118275D01*
X118652Y118287D01*
X118311Y118291D01*
Y120291D01*
X118490Y120292D01*
X119212Y120342D01*
X119274Y120357D01*
X119319Y120374D01*
X119348Y120394D01*
Y118189D01*
D02*
G37*
G36*
X113358Y120374D02*
X113403Y120357D01*
X113465Y120342D01*
X113543Y120328D01*
X113751Y120308D01*
X114025Y120295D01*
X114366Y120291D01*
Y118291D01*
X114187Y118290D01*
X113465Y118241D01*
X113403Y118226D01*
X113358Y118208D01*
X113329Y118189D01*
Y120394D01*
X113358Y120374D01*
D02*
G37*
G36*
X56749Y81575D02*
X56630Y81689D01*
X56508Y81792D01*
X56383Y81882D01*
X56256Y81960D01*
X56126Y82027D01*
X55993Y82081D01*
X55858Y82123D01*
X55720Y82153D01*
X55579Y82171D01*
X55436Y82177D01*
Y83177D01*
X55579Y83183D01*
X55720Y83201D01*
X55858Y83231D01*
X55993Y83274D01*
X56126Y83328D01*
X56256Y83394D01*
X56383Y83472D01*
X56508Y83563D01*
X56630Y83665D01*
X56749Y83780D01*
Y81575D01*
D02*
G37*
G36*
X43832Y75350D02*
X43713Y75465D01*
X43591Y75567D01*
X43466Y75658D01*
X43339Y75736D01*
X43208Y75802D01*
X43076Y75856D01*
X42940Y75898D01*
X42802Y75929D01*
X42662Y75947D01*
X42518Y75953D01*
Y76953D01*
X42662Y76959D01*
X42802Y76977D01*
X42940Y77007D01*
X43076Y77049D01*
X43208Y77103D01*
X43339Y77170D01*
X43466Y77248D01*
X43591Y77338D01*
X43713Y77441D01*
X43832Y77555D01*
Y75350D01*
D02*
G37*
G36*
X24263Y68284D02*
X24170Y68185D01*
X24082Y68078D01*
X24000Y67964D01*
X23924Y67842D01*
X23853Y67713D01*
X23787Y67576D01*
X23672Y67279D01*
X23622Y67119D01*
X23578Y66952D01*
X22449Y68845D01*
X22599Y68813D01*
X22744Y68795D01*
X22885Y68792D01*
X23021Y68803D01*
X23153Y68829D01*
X23281Y68870D01*
X23404Y68926D01*
X23522Y68997D01*
X23636Y69082D01*
X23746Y69182D01*
X24263Y68284D01*
D02*
G37*
G36*
X53150Y25953D02*
X53130Y26143D01*
X53070Y26313D01*
X52969Y26463D01*
X52828Y26593D01*
X52647Y26703D01*
X52426Y26793D01*
X52164Y26863D01*
X51862Y26913D01*
X51520Y26943D01*
X51138Y26953D01*
Y28953D01*
X51520Y28963D01*
X51862Y28993D01*
X52164Y29043D01*
X52426Y29113D01*
X52647Y29203D01*
X52828Y29313D01*
X52969Y29443D01*
X53070Y29593D01*
X53130Y29763D01*
X53150Y29953D01*
Y25953D01*
D02*
G37*
G36*
X45044Y21897D02*
X44647Y21486D01*
X44022Y20749D01*
X43795Y20424D01*
X43624Y20127D01*
X43509Y19858D01*
X43452Y19618D01*
X43450Y19407D01*
X43506Y19223D01*
X43618Y19069D01*
X40801Y21885D01*
X40956Y21774D01*
X41139Y21718D01*
X41350Y21719D01*
X41590Y21777D01*
X41859Y21891D01*
X42156Y22062D01*
X42482Y22290D01*
X42836Y22574D01*
X43630Y23312D01*
X45044Y21897D01*
D02*
G37*
G36*
X65216Y3652D02*
X65131Y3621D01*
X65056Y3571D01*
X64991Y3500D01*
X64936Y3409D01*
X64891Y3297D01*
X64856Y3166D01*
X64831Y3014D01*
X64816Y2842D01*
X64811Y2650D01*
X63811D01*
X63806Y2842D01*
X63791Y3014D01*
X63766Y3166D01*
X63731Y3297D01*
X63686Y3409D01*
X63631Y3500D01*
X63566Y3571D01*
X63491Y3621D01*
X63406Y3652D01*
X63311Y3662D01*
X65311D01*
X65216Y3652D01*
D02*
G37*
G36*
X60216D02*
X60131Y3621D01*
X60056Y3571D01*
X59991Y3500D01*
X59936Y3409D01*
X59891Y3297D01*
X59856Y3166D01*
X59831Y3014D01*
X59816Y2842D01*
X59811Y2650D01*
X58811D01*
X58806Y2842D01*
X58791Y3014D01*
X58766Y3166D01*
X58731Y3297D01*
X58686Y3409D01*
X58631Y3500D01*
X58566Y3571D01*
X58491Y3621D01*
X58406Y3652D01*
X58311Y3662D01*
X60311D01*
X60216Y3652D01*
D02*
G37*
G36*
X64817Y2064D02*
X64836Y1923D01*
X64868Y1786D01*
X64913Y1654D01*
X64970Y1525D01*
X65040Y1401D01*
X65122Y1281D01*
X65218Y1165D01*
X65326Y1053D01*
X65446Y945D01*
X63249Y766D01*
X63356Y896D01*
X63451Y1027D01*
X63536Y1160D01*
X63609Y1294D01*
X63670Y1429D01*
X63721Y1566D01*
X63760Y1703D01*
X63788Y1842D01*
X63805Y1982D01*
X63811Y2123D01*
X64811Y2209D01*
X64817Y2064D01*
D02*
G37*
G36*
X59817Y1939D02*
X59837Y1798D01*
X59868Y1661D01*
X59913Y1528D01*
X59970Y1400D01*
X60040Y1276D01*
X60123Y1156D01*
X60219Y1041D01*
X60327Y930D01*
X60449Y823D01*
X58252Y630D01*
X58358Y761D01*
X58453Y893D01*
X58537Y1027D01*
X58610Y1161D01*
X58671Y1297D01*
X58722Y1433D01*
X58761Y1571D01*
X58789Y1710D01*
X58805Y1850D01*
X58811Y1991D01*
X59811Y2084D01*
X59817Y1939D01*
D02*
G37*
G36*
X70216Y3652D02*
X70131Y3621D01*
X70056Y3571D01*
X69991Y3500D01*
X69936Y3409D01*
X69891Y3297D01*
X69856Y3166D01*
X69831Y3014D01*
X69816Y2842D01*
X69811Y2650D01*
X68811D01*
X68806Y2842D01*
X68791Y3014D01*
X68766Y3166D01*
X68731Y3297D01*
X68686Y3409D01*
X68631Y3500D01*
X68566Y3571D01*
X68491Y3621D01*
X68406Y3652D01*
X68311Y3662D01*
X70311D01*
X70216Y3652D01*
D02*
G37*
G36*
X69816Y-3240D02*
X69831Y-3412D01*
X69856Y-3564D01*
X69891Y-3695D01*
X69936Y-3806D01*
X69991Y-3898D01*
X70056Y-3968D01*
X70131Y-4019D01*
X70216Y-4049D01*
X70311Y-4059D01*
X68311D01*
X68406Y-4049D01*
X68491Y-4019D01*
X68566Y-3968D01*
X68631Y-3898D01*
X68686Y-3806D01*
X68731Y-3695D01*
X68766Y-3564D01*
X68791Y-3412D01*
X68806Y-3240D01*
X68811Y-3047D01*
X69811D01*
X69816Y-3240D01*
D02*
G37*
D11*
X146824Y165721D02*
Y168772D01*
X146850Y168799D01*
X142126Y161024D02*
X146824Y165721D01*
X136221Y154331D02*
X138133D01*
X158268Y156616D02*
X164644D01*
X173524Y125591D02*
Y145374D01*
X164644Y156616D02*
X176575Y144685D01*
X163782Y155116D02*
X173524Y145374D01*
X159552Y155116D02*
X163782D01*
X176575Y127559D02*
Y144685D01*
X130709Y-15354D02*
X132283Y-13780D01*
X148119Y149913D02*
X148570Y150364D01*
X79289Y-5906D02*
X79331D01*
X143626Y-26453D02*
X146776D01*
X148819Y-24409D01*
X99751Y13422D02*
X103937Y17609D01*
X90891Y22101D02*
X99794Y31004D01*
X109055D01*
X103937Y17609D02*
Y26772D01*
X105512Y28346D01*
X109153D01*
X109252Y28445D01*
X109055Y31004D02*
X109153Y31102D01*
X143509Y35827D02*
X159055Y20280D01*
X90158Y35827D02*
X143509D01*
X84646Y41339D02*
X90158Y35827D01*
X69291Y43307D02*
Y47638D01*
X72441Y50787D01*
X141625Y110737D02*
X145442D01*
X133465Y114173D02*
X138189D01*
X145442Y110737D02*
X145492Y110787D01*
X138189Y114173D02*
X141625Y110737D01*
X137008Y110630D02*
X141625Y106013D01*
X129921Y110630D02*
X133465Y114173D01*
X197244Y78758D02*
X198425Y77577D01*
Y66929D02*
Y77577D01*
X195669Y64173D02*
X198425Y66929D01*
X197319Y61098D02*
X206693Y70472D01*
X184252Y64173D02*
X195669D01*
X169213Y61098D02*
X197319D01*
X163902Y55787D02*
X169213Y61098D01*
X197244Y78758D02*
Y88976D01*
X190795Y93063D02*
Y126026D01*
X193870Y105905D02*
X193975Y105800D01*
Y103662D02*
Y105800D01*
Y103662D02*
X197047Y100591D01*
X179680Y23622D02*
X185433D01*
X189356Y17379D02*
Y19699D01*
Y17379D02*
X189370Y17365D01*
X185433Y23622D02*
X189356Y19699D01*
X217724Y49976D02*
X217748Y50000D01*
X212772Y49976D02*
X217724D01*
X176212Y20154D02*
X179680Y23622D01*
X165279Y20154D02*
X176212D01*
X145669Y39764D02*
X165279Y20154D01*
X169291Y21654D02*
X175591D01*
X145079Y45866D02*
X169291Y21654D01*
X175591D02*
X180134Y26197D01*
X192126Y78347D02*
Y91732D01*
X184763Y70983D02*
X192126Y78347D01*
X164450Y70983D02*
X184763D01*
X138740Y90787D02*
X145492D01*
X138583Y90945D02*
X138740Y90787D01*
X184646Y101597D02*
X187795Y98447D01*
X184646Y101597D02*
Y124743D01*
X190795Y93063D02*
X192126Y91732D01*
X197047Y100394D02*
Y100591D01*
X145267Y106013D02*
X145492Y105787D01*
X141625Y106013D02*
X145267D01*
X180315Y124761D02*
X184688Y129134D01*
X180315Y118504D02*
Y124761D01*
X173622Y113779D02*
X176599Y116756D01*
X176575Y127559D02*
X176599Y127535D01*
Y116756D02*
Y127535D01*
X184688Y129134D02*
X194488D01*
X197244Y126378D01*
Y112205D02*
Y126378D01*
X170079Y138189D02*
Y146457D01*
Y138189D02*
X170213Y138054D01*
X187795Y87402D02*
Y98447D01*
X181496Y81102D02*
X187795Y87402D01*
X181496Y79134D02*
Y81102D01*
X175591Y79134D02*
X181496D01*
X163412Y84278D02*
Y86246D01*
X160202Y75231D02*
Y81068D01*
X163412Y84278D01*
Y86246D02*
X163779Y86614D01*
X169685D01*
X160202Y75231D02*
X164450Y70983D01*
X162920Y153616D02*
X170079Y146457D01*
X160836Y153616D02*
X162920D01*
X159430Y152209D02*
X160836Y153616D01*
X159324Y152209D02*
X159430D01*
X158038Y153601D02*
X159552Y155116D01*
X156646Y154993D02*
X158268Y156616D01*
X155709Y110748D02*
Y113779D01*
X157115Y109342D02*
X161440D01*
X155709Y110748D02*
X157115Y109342D01*
X161440D02*
X161447Y109335D01*
X152874Y95787D02*
X164961Y107874D01*
X170866D01*
X145492Y95787D02*
X152874D01*
X151927Y125591D02*
X155905D01*
X146850Y120514D02*
X151927Y125591D01*
X148031Y22483D02*
Y27953D01*
Y22441D02*
Y22483D01*
X148819Y-24409D02*
Y-21260D01*
X145079Y30906D02*
X148031Y27953D01*
X142126Y30906D02*
X145079D01*
X88843Y105772D02*
X88976Y105905D01*
X80910Y105772D02*
X88843D01*
X178347Y74016D02*
X183858D01*
X188390Y78547D02*
Y82874D01*
X183858Y74016D02*
X188390Y78547D01*
X179827Y64661D02*
Y66821D01*
X177751Y68898D02*
X179827Y66821D01*
X166535Y68898D02*
X177751D01*
X179827Y64661D02*
X179921Y64567D01*
X171063D02*
X171088Y64592D01*
X175570D01*
X165945Y68307D02*
X166535Y68898D01*
X165945Y64567D02*
Y68307D01*
X170598Y53150D02*
X172566Y55118D01*
X166626Y53150D02*
X170598D01*
X166043Y50787D02*
Y52567D01*
X166626Y53150D01*
X162598Y64567D02*
X165945D01*
X156886Y70279D02*
Y82874D01*
Y70279D02*
X162598Y64567D01*
X128431Y45998D02*
X128563Y45866D01*
X128431Y45998D02*
Y50309D01*
X116535Y57087D02*
X121653D01*
X128431Y50309D01*
X124803Y60630D02*
X133071Y52362D01*
X104331Y60630D02*
X124803D01*
X93563Y49862D02*
X104331Y60630D01*
X133071Y58661D02*
X135197Y60787D01*
X145492D01*
X140472Y70787D02*
X145492D01*
X137402Y67716D02*
X140472Y70787D01*
X133563Y45866D02*
X145079D01*
X152362Y61811D02*
Y64173D01*
X145492Y65787D02*
X150748D01*
X152362Y64173D01*
X93563Y45866D02*
Y49862D01*
X72441Y50787D02*
X76595D01*
X71346Y55787D02*
X76595D01*
X69685Y57448D02*
X71346Y55787D01*
X69685Y57448D02*
Y57480D01*
X88563Y45866D02*
X88583Y45847D01*
X84646Y41339D02*
Y98032D01*
X159055Y17964D02*
Y20280D01*
X81890Y100787D02*
X84646Y98032D01*
X76595Y100787D02*
X81890D01*
X188992Y26197D02*
X212772Y49976D01*
X180134Y26197D02*
X188992D01*
X171859Y90945D02*
X172441D01*
X170373Y92431D02*
X171859Y90945D01*
X176378Y92913D02*
X176484Y93020D01*
Y98532D01*
X169579Y93138D02*
X170286Y92431D01*
X169579Y93138D02*
Y98532D01*
X170286Y92431D02*
X170373D01*
X176484Y98532D02*
X178740Y100787D01*
X167323D02*
X169579Y98532D01*
X145492Y50787D02*
X145492Y50787D01*
X166043D01*
X145492Y55787D02*
X163902D01*
X70866Y-13583D02*
X71260Y-13976D01*
X77953D01*
X109055Y23130D02*
X109252Y23327D01*
X109055Y20079D02*
Y23130D01*
X64439Y-266D02*
X64567Y-394D01*
X64311Y-138D02*
X64439Y-266D01*
X137402Y73228D02*
X139961Y75787D01*
X59311Y-256D02*
Y6693D01*
Y-256D02*
X59449Y-394D01*
X64311Y-138D02*
Y6693D01*
X139961Y75787D02*
X145492D01*
X75886Y127264D02*
X81496Y121653D01*
X76610Y105772D02*
X80910D01*
X81496Y106358D01*
Y121653D01*
X75886Y127264D02*
Y132283D01*
X74410Y122441D02*
X76595Y120256D01*
Y115787D02*
Y120256D01*
X132283Y-13780D02*
Y-10236D01*
X93659Y145318D02*
X93701Y145276D01*
X122835Y142913D02*
Y142955D01*
X145822Y154993D02*
X148570Y152246D01*
X145822Y154993D02*
Y154993D01*
X148570Y150364D02*
Y152246D01*
X213968Y59638D02*
X214961Y60630D01*
Y67323D01*
X212598Y58268D02*
X212795D01*
X213968Y59441D01*
Y59638D01*
X212402Y52953D02*
X212598Y53150D01*
X205512Y52953D02*
X212402D01*
X149606Y100787D02*
X152362Y103543D01*
Y116098D02*
X158312Y122047D01*
X152362Y103543D02*
Y116098D01*
X145492Y100787D02*
X149606D01*
X172835Y122047D02*
X173622Y122835D01*
X158312Y122047D02*
X172835D01*
X173524Y125591D02*
X173622Y125492D01*
Y122835D02*
Y125492D01*
X173622Y110630D02*
Y113779D01*
X170866Y107874D02*
X173622Y110630D01*
X156540Y154993D02*
X156646D01*
X157932Y153601D02*
X158038D01*
X75886Y137303D02*
X79331Y140748D01*
Y145276D01*
X75886Y132283D02*
Y137303D01*
X72047Y132283D02*
X75886D01*
X70472Y130709D02*
X72047Y132283D01*
X67520Y130709D02*
X70472D01*
X61319Y111811D02*
X61417Y111909D01*
X61024Y111516D02*
X61319Y111811D01*
X161024Y125591D02*
X167618D01*
X160827Y113779D02*
X167717D01*
X175591Y86614D02*
X181496D01*
X175197Y86221D02*
X175591Y86614D01*
X175197Y79528D02*
X175591Y79134D01*
X169685D02*
X170079Y79528D01*
X163779Y79134D02*
X169685D01*
Y86614D02*
X170079Y86221D01*
X202362Y112205D02*
X209646D01*
X202165Y100394D02*
X209449D01*
X202362Y88976D02*
X209252D01*
X166043Y42323D02*
Y50787D01*
X165354Y41634D02*
X166043Y42323D01*
X157776Y-5217D02*
Y16684D01*
X159055Y17964D01*
X153740Y-9252D02*
X157776Y-5217D01*
X153740Y-9449D02*
Y-9252D01*
X148819D02*
Y-3543D01*
X148622Y-9449D02*
X148819Y-9252D01*
X140157Y394D02*
X144882D01*
X148819Y-3543D01*
X136024Y-21063D02*
X148622D01*
X148819Y-21260D01*
X136024Y-3740D02*
X140157Y394D01*
Y394D01*
X136024Y-10236D02*
Y-3740D01*
X129224Y-20276D02*
X130709D01*
X136024Y-14961D01*
X128543Y-21063D02*
Y-20957D01*
X136024Y-14961D02*
Y-10236D01*
X128543Y-20957D02*
X129224Y-20276D01*
X128543Y-197D02*
X129134Y394D01*
X128543Y-10236D02*
Y-197D01*
X128543Y9449D02*
X129134Y8858D01*
Y394D02*
Y8858D01*
X142027Y31004D02*
X142126Y30906D01*
X132480Y31004D02*
X142027D01*
X128846Y25757D02*
X132352D01*
X132480Y25886D01*
X127953Y24864D02*
X128846Y25757D01*
X127953Y17126D02*
Y24864D01*
X128543Y9449D02*
Y16535D01*
X127953Y17126D02*
X128543Y16535D01*
X138133Y154331D02*
X141646Y150817D01*
X138189Y147360D02*
X140254Y149425D01*
X138189Y146341D02*
X140254Y144275D01*
X138189Y146341D02*
Y147360D01*
X138499Y151181D02*
X140254Y149425D01*
X130709Y151181D02*
X138499D01*
X130610Y151279D02*
Y158661D01*
X130709Y158760D02*
Y162205D01*
X130610Y158661D02*
X130709Y158760D01*
X125984Y163779D02*
X129134D01*
X130709Y162205D01*
X42201Y76453D02*
X44957D01*
X38976Y73228D02*
X42201Y76453D01*
X22594Y67323D02*
X28499Y73228D01*
X38976D01*
X22047Y67323D02*
X22594D01*
X27953Y74803D02*
X38189D01*
X22047Y71653D02*
X24803D01*
X27953Y74803D01*
X111024Y142389D02*
X111609Y141803D01*
X112508D01*
X113189Y139646D02*
Y141122D01*
X112508Y141803D02*
X113189Y141122D01*
X111024Y142389D02*
Y147244D01*
X117717D01*
X38189Y74803D02*
X46063Y82677D01*
X57874D01*
X69291Y-6299D02*
X69311Y-6279D01*
Y-5492D02*
Y6693D01*
X109153Y31102D02*
X109252Y31004D01*
X60827Y158071D02*
X61417Y158661D01*
X53937Y158071D02*
X60827D01*
X40630Y146653D02*
X40760Y146524D01*
X44757Y138583D02*
X51968D01*
X40760Y142580D02*
X44757Y138583D01*
X40760Y142580D02*
Y146524D01*
X40630Y146653D02*
X46929Y152953D01*
X53937D01*
D20*
X215551Y112205D02*
D03*
X209646D02*
D03*
X209449Y100394D02*
D03*
X215354D02*
D03*
X173622Y113779D02*
D03*
X167717D02*
D03*
X167618Y125591D02*
D03*
X173524D02*
D03*
X215158Y88976D02*
D03*
X209252D02*
D03*
D21*
X61417Y152756D02*
D03*
Y158661D02*
D03*
X70866Y-13583D02*
D03*
Y-19488D02*
D03*
X205512Y52953D02*
D03*
Y58858D02*
D03*
D22*
X165354Y41634D02*
D03*
Y36319D02*
D03*
X130709Y151181D02*
D03*
Y145866D02*
D03*
X142126Y30906D02*
D03*
Y25591D02*
D03*
X81496Y11811D02*
D03*
Y6496D02*
D03*
D23*
X117717Y147244D02*
D03*
X122835D02*
D03*
X197047Y100394D02*
D03*
X202165D02*
D03*
X170079Y86221D02*
D03*
X175197D02*
D03*
Y79528D02*
D03*
X170079D02*
D03*
X202362Y112205D02*
D03*
X197244D02*
D03*
X202362Y88976D02*
D03*
X197244D02*
D03*
X165945Y64567D02*
D03*
X171063D02*
D03*
X161024Y125591D02*
D03*
X155905D02*
D03*
X155709Y113779D02*
D03*
X160827D02*
D03*
X67520Y130709D02*
D03*
X62402D02*
D03*
X153740Y-9449D02*
D03*
X148622D02*
D03*
X133661Y16535D02*
D03*
X128543D02*
D03*
X125197Y125984D02*
D03*
X120079D02*
D03*
X111024Y147244D02*
D03*
X105905D02*
D03*
X74606Y-5906D02*
D03*
X69488D02*
D03*
D24*
X56693Y45079D02*
D03*
Y62008D02*
D03*
D25*
X110650Y81378D02*
D03*
X105138D02*
D03*
X99626D02*
D03*
X110650Y86890D02*
D03*
X105138D02*
D03*
X99626D02*
D03*
X110650Y92402D02*
D03*
X105138D02*
D03*
X99626D02*
D03*
D26*
X145492Y115787D02*
D03*
Y110787D02*
D03*
Y105787D02*
D03*
Y100787D02*
D03*
Y95787D02*
D03*
Y90787D02*
D03*
Y85787D02*
D03*
Y80787D02*
D03*
Y75787D02*
D03*
Y70787D02*
D03*
Y65787D02*
D03*
Y60787D02*
D03*
Y55787D02*
D03*
Y50787D02*
D03*
X76595D02*
D03*
Y55787D02*
D03*
Y60787D02*
D03*
Y65787D02*
D03*
Y70787D02*
D03*
Y75787D02*
D03*
Y80787D02*
D03*
Y85787D02*
D03*
Y90787D02*
D03*
Y95787D02*
D03*
Y100787D02*
D03*
Y105787D02*
D03*
Y110787D02*
D03*
Y115787D02*
D03*
D27*
X133563Y45866D02*
D03*
X128563D02*
D03*
X123563D02*
D03*
X118563D02*
D03*
X113563D02*
D03*
X108563D02*
D03*
X103563D02*
D03*
X98563D02*
D03*
X93563D02*
D03*
X88563D02*
D03*
D28*
X151181Y146850D02*
D03*
D29*
X74016Y185827D02*
D03*
X178740Y100787D02*
D03*
X90551Y186221D02*
D03*
X167323Y100787D02*
D03*
D30*
X130610Y158661D02*
D03*
X125295D02*
D03*
X99016Y145276D02*
D03*
X93701D02*
D03*
X54921Y97638D02*
D03*
X60236D02*
D03*
X56102Y119291D02*
D03*
X61417D02*
D03*
X56004Y111811D02*
D03*
X61319D02*
D03*
X84646Y145276D02*
D03*
X79331D02*
D03*
X148819Y-21260D02*
D03*
X154134D02*
D03*
X128543Y9449D02*
D03*
X133858D02*
D03*
X152461D02*
D03*
X157776D02*
D03*
X137303Y125984D02*
D03*
X131988D02*
D03*
D31*
X148606Y157777D02*
D03*
X147214Y156385D02*
D03*
X145822Y154993D02*
D03*
X144430Y153601D02*
D03*
X143038Y152209D02*
D03*
X141646Y150817D02*
D03*
X140254Y149425D02*
D03*
X153756Y135924D02*
D03*
X155148Y137316D02*
D03*
X156540Y138707D02*
D03*
X157932Y140100D02*
D03*
X159324Y141491D02*
D03*
X160716Y142883D02*
D03*
X162108Y144275D02*
D03*
D32*
X140254D02*
D03*
X141646Y142883D02*
D03*
X143038Y141491D02*
D03*
X144430Y140100D02*
D03*
X145822Y138707D02*
D03*
X147214Y137316D02*
D03*
X148606Y135924D02*
D03*
X162108Y149425D02*
D03*
X160716Y150817D02*
D03*
X159324Y152209D02*
D03*
X157932Y153601D02*
D03*
X156540Y154993D02*
D03*
X155148Y156385D02*
D03*
X153756Y157777D02*
D03*
D33*
X181496Y86614D02*
D03*
X163779Y79134D02*
D03*
D34*
X181496D02*
D03*
X188390Y82874D02*
D03*
X163779Y86614D02*
D03*
X156886Y82874D02*
D03*
D35*
X26969Y56299D02*
D03*
X10039D02*
D03*
D36*
X96801Y160236D02*
D03*
X105561D02*
D03*
D37*
X53937Y158071D02*
D03*
Y152953D02*
D03*
X77953Y-13976D02*
D03*
Y-19094D02*
D03*
X212598Y53150D02*
D03*
Y58268D02*
D03*
D38*
X137008Y179331D02*
D03*
X146457D02*
D03*
D39*
X129134Y169685D02*
D03*
X154331D02*
D03*
D40*
X141732Y168799D02*
D03*
X144291D02*
D03*
X146850D02*
D03*
X136614D02*
D03*
X139173D02*
D03*
D41*
X166043Y50787D02*
D03*
X178839D02*
D03*
X75886Y132283D02*
D03*
X88681D02*
D03*
D42*
X61024Y104724D02*
D03*
X53937D02*
D03*
D43*
X90891Y22101D02*
D03*
X99660Y13332D02*
D03*
D44*
X109252Y31004D02*
D03*
Y28445D02*
D03*
Y25886D02*
D03*
Y23327D02*
D03*
X132480Y31004D02*
D03*
Y28445D02*
D03*
Y25886D02*
D03*
Y23327D02*
D03*
D45*
X136024Y-21063D02*
D03*
X128543D02*
D03*
X128543Y-10236D02*
D03*
X132283D02*
D03*
X136024D02*
D03*
D46*
X105709Y130315D02*
D03*
X113189D02*
D03*
X109449D02*
D03*
X105709Y139646D02*
D03*
X113189D02*
D03*
D47*
X54311Y6693D02*
D03*
X59311D02*
D03*
X64311D02*
D03*
X69311D02*
D03*
Y27953D02*
D03*
X64311D02*
D03*
X59311D02*
D03*
X54311D02*
D03*
D83*
X61811Y17323D02*
D03*
D84*
X142126Y155905D02*
Y156299D01*
X147638Y161811D01*
X142126Y155905D02*
X143530Y154502D01*
X137913Y160118D02*
X142126Y155905D01*
X137793Y160118D02*
X137913D01*
X137793D02*
Y160780D01*
X139152Y162139D01*
X133640Y161608D02*
Y165209D01*
Y161608D02*
X143038Y152209D01*
X144143Y168948D02*
Y171999D01*
X142929Y173213D02*
X144143Y171999D01*
X135024Y173213D02*
X142929D01*
X144143Y168948D02*
X144291Y168799D01*
X134292Y173101D02*
Y173101D01*
Y172481D02*
X134602Y172791D01*
X133640Y165209D02*
X134292Y165862D01*
X134602Y172791D02*
X135024Y173213D01*
X134292Y173101D02*
X134602Y172791D01*
X134292Y165862D02*
Y172481D01*
X141732Y164836D02*
Y168799D01*
X136614Y163808D02*
Y168799D01*
X139152Y162256D02*
X141732Y164836D01*
X139152Y162139D02*
Y162256D01*
X153937Y161811D02*
X154653Y161095D01*
X153756Y157777D02*
X154653Y158674D01*
Y161095D01*
D85*
X56693Y45079D02*
X56833Y45219D01*
X61671D02*
X69291Y37598D01*
Y27972D02*
Y37598D01*
X56833Y45219D02*
X61671D01*
X25394Y57874D02*
X27756D01*
X47047Y45079D02*
X56693D01*
X26969Y56299D02*
X35827D01*
X47047Y45079D01*
X89012Y18435D02*
X89370Y18077D01*
Y13780D02*
Y18077D01*
X87402Y11811D02*
X89370Y13780D01*
X89012Y20222D02*
X90891Y22101D01*
X81496Y11811D02*
X87402D01*
X89012Y18435D02*
Y20222D01*
X99751Y13422D02*
X100099Y13771D01*
X111811Y4331D02*
Y11064D01*
X103886Y11771D02*
X106653D01*
X100099Y13771D02*
X101886D01*
X103886Y11771D01*
X111811Y11064D02*
Y11811D01*
X106653Y11771D02*
X106693Y11811D01*
X111811D01*
X99660Y13332D02*
X99751Y13422D01*
X86614Y11024D02*
X87402Y11811D01*
X86614Y-5512D02*
Y11024D01*
X120692Y119511D02*
X130141D01*
X112205Y119291D02*
X120472D01*
X93307Y159843D02*
X93701Y160236D01*
X83858Y150394D02*
X93307Y159843D01*
X92520Y-14961D02*
X111811Y4331D01*
X92520Y-23228D02*
Y-14961D01*
X79124Y-23228D02*
X92520D01*
X77953Y-22057D02*
Y-19094D01*
Y-22057D02*
X79124Y-23228D01*
X93701Y160236D02*
X96801D01*
X93267Y166601D02*
Y168938D01*
Y166601D02*
X93307Y166561D01*
X77165Y150394D02*
X83858D01*
X92520Y169685D02*
X93267Y168938D01*
X93307Y159843D02*
Y166561D01*
X62402Y135630D02*
X77165Y150394D01*
X62402Y130709D02*
Y135630D01*
X61417Y124803D02*
X62402Y125787D01*
Y130709D01*
X61417Y119291D02*
Y124803D01*
X69921Y110787D02*
X76595D01*
X61319Y111811D02*
X68898D01*
X69921Y110787D01*
X61417Y111909D02*
Y119291D01*
X61024Y104724D02*
Y111516D01*
Y102756D02*
Y104724D01*
X60236Y101969D02*
X61024Y102756D01*
X60236Y97638D02*
Y101969D01*
X105561Y157037D02*
X105905Y156693D01*
X105561Y157037D02*
Y160236D01*
X105905Y147244D02*
Y156693D01*
X99016Y145276D02*
Y145472D01*
X100787Y147244D01*
X105905D01*
X100187Y139646D02*
X105709D01*
X99016Y140817D02*
X100187Y139646D01*
X99016Y140817D02*
Y145276D01*
X119752Y125657D02*
X120079Y125984D01*
X114240Y125657D02*
X119752D01*
X105890Y126829D02*
X107061Y125657D01*
X105709Y130315D02*
X105890Y130134D01*
X107061Y125657D02*
X114240D01*
X105890Y126829D02*
Y130134D01*
X114240Y125657D02*
X114567Y125984D01*
X113370Y127181D02*
Y130134D01*
Y127181D02*
X114567Y125984D01*
X113189Y130315D02*
X113370Y130134D01*
X131890Y121260D02*
Y125886D01*
X131988Y125984D01*
X130141Y119511D02*
X131890Y121260D01*
X125197Y125984D02*
X131988D01*
X120472Y119291D02*
X120692Y119511D01*
X69291Y27972D02*
X69311Y27953D01*
X75197D02*
X81496Y21654D01*
Y11811D02*
Y21654D01*
X69311Y27953D02*
X75197D01*
X49685D02*
X54311D01*
X40630Y18898D02*
X49685Y27953D01*
X61811Y37008D02*
X64311Y34508D01*
X51968Y37008D02*
X61811D01*
X64311Y27953D02*
Y34508D01*
X45669Y30709D02*
X51968Y37008D01*
X40630Y30709D02*
X45669D01*
D86*
X107894Y81378D02*
D03*
X102382D02*
D03*
X110650Y84134D02*
D03*
X105138D02*
D03*
X99626D02*
D03*
X107894Y86890D02*
D03*
X102382D02*
D03*
X110650Y89646D02*
D03*
X105138D02*
D03*
X99626D02*
D03*
X107894Y92402D02*
D03*
X102382D02*
D03*
D87*
X193701Y69685D02*
D03*
X86614Y-5512D02*
D03*
X111811Y11811D02*
D03*
X129134Y394D02*
D03*
X140157D02*
D03*
X159055Y19291D02*
D03*
X170472Y14961D02*
D03*
X92520Y169685D02*
D03*
D88*
X214961Y67323D02*
D03*
X51968Y138583D02*
D03*
X92520Y-23228D02*
D03*
D89*
X181811Y146850D02*
D03*
Y30709D02*
D03*
X40630Y18898D02*
D03*
D90*
X181811Y135039D02*
D03*
Y18898D02*
D03*
X40630Y30709D02*
D03*
D91*
X198819Y140945D02*
D03*
Y24803D02*
D03*
X23622D02*
D03*
D92*
X111043Y180118D02*
D03*
Y-14764D02*
D03*
D93*
X40630Y111221D02*
D03*
D94*
Y123031D02*
D03*
Y134843D02*
D03*
Y146653D02*
D03*
D95*
X23622Y138189D02*
D03*
Y119685D02*
D03*
D96*
X128740Y179331D02*
D03*
X154724D02*
D03*
D97*
X215354Y159448D02*
D03*
X212401Y153543D02*
D03*
X215354Y147637D02*
D03*
X212401Y141732D02*
D03*
X215354Y135826D02*
D03*
X212401Y129921D02*
D03*
X215354Y124015D02*
D03*
X212401Y118110D02*
D03*
Y94488D02*
D03*
X215354Y5905D02*
D03*
X209449Y159448D02*
D03*
X206496Y153543D02*
D03*
X209449Y147637D02*
D03*
Y135826D02*
D03*
Y124015D02*
D03*
X206496Y118110D02*
D03*
X209449Y64960D02*
D03*
Y41338D02*
D03*
Y29527D02*
D03*
Y17716D02*
D03*
Y5905D02*
D03*
X203543Y159448D02*
D03*
X200590Y153543D02*
D03*
X203543Y124015D02*
D03*
X200590Y118110D02*
D03*
Y59055D02*
D03*
Y47244D02*
D03*
X203543Y17716D02*
D03*
X200590Y11811D02*
D03*
X197637Y159448D02*
D03*
X194685Y153543D02*
D03*
Y11811D02*
D03*
X191732Y159448D02*
D03*
X188779Y153543D02*
D03*
X191732Y147637D02*
D03*
X188779Y141732D02*
D03*
X191732Y135826D02*
D03*
X188779Y11811D02*
D03*
X185826Y159448D02*
D03*
X182874Y153543D02*
D03*
Y11811D02*
D03*
X179921Y159448D02*
D03*
X176968Y11811D02*
D03*
X174015Y159448D02*
D03*
X168110Y29527D02*
D03*
X165157Y11811D02*
D03*
X159252Y177165D02*
D03*
X162204Y171259D02*
D03*
Y-5906D02*
D03*
X159252Y-11811D02*
D03*
X153346Y188976D02*
D03*
X147441D02*
D03*
X141535D02*
D03*
X144488Y17716D02*
D03*
X141535Y11811D02*
D03*
X144488Y5905D02*
D03*
Y-5906D02*
D03*
X141535Y-11811D02*
D03*
X144488Y-17717D02*
D03*
X135630Y188976D02*
D03*
Y94488D02*
D03*
X129724Y188976D02*
D03*
Y82677D02*
D03*
X132677Y-5906D02*
D03*
X123819Y188976D02*
D03*
Y177165D02*
D03*
Y94488D02*
D03*
Y23622D02*
D03*
Y-11811D02*
D03*
Y-23622D02*
D03*
X120866Y171259D02*
D03*
X117913Y141732D02*
D03*
X120866Y135826D02*
D03*
X117913Y94488D02*
D03*
X120866Y-5906D02*
D03*
X114960Y112204D02*
D03*
Y100393D02*
D03*
Y88582D02*
D03*
Y76771D02*
D03*
X109055Y112204D02*
D03*
Y100393D02*
D03*
Y76771D02*
D03*
X106102Y70866D02*
D03*
X109055Y64960D02*
D03*
X100197Y188976D02*
D03*
Y153543D02*
D03*
X103149Y112204D02*
D03*
Y100393D02*
D03*
Y76771D02*
D03*
X100197Y70866D02*
D03*
X103149Y64960D02*
D03*
X100197Y23622D02*
D03*
Y-23622D02*
D03*
X97244Y183071D02*
D03*
X94291Y177165D02*
D03*
Y153543D02*
D03*
X97244Y135826D02*
D03*
Y112204D02*
D03*
Y100393D02*
D03*
X94291Y94488D02*
D03*
Y82677D02*
D03*
X97244Y76771D02*
D03*
X94291Y70866D02*
D03*
X97244Y-17717D02*
D03*
X88385Y177165D02*
D03*
Y165354D02*
D03*
X91338Y112204D02*
D03*
Y100393D02*
D03*
X88385Y94488D02*
D03*
X91338Y88582D02*
D03*
X88385Y82677D02*
D03*
X91338Y76771D02*
D03*
X88385Y70866D02*
D03*
Y-11811D02*
D03*
X82480Y188976D02*
D03*
X85433Y171259D02*
D03*
X82480Y165354D02*
D03*
X85433Y159448D02*
D03*
Y135826D02*
D03*
X82480Y-11811D02*
D03*
X85433Y-17717D02*
D03*
X79527Y171259D02*
D03*
X76574Y165354D02*
D03*
X79527Y159448D02*
D03*
X76574Y11811D02*
D03*
X70669Y177165D02*
D03*
X73622Y159448D02*
D03*
X70669Y153543D02*
D03*
Y118110D02*
D03*
Y82677D02*
D03*
X73622Y17716D02*
D03*
X70669Y-23622D02*
D03*
X64763Y188976D02*
D03*
X67716Y183071D02*
D03*
X64763Y177165D02*
D03*
X67716Y159448D02*
D03*
Y147637D02*
D03*
Y135826D02*
D03*
Y124015D02*
D03*
X64763Y-11811D02*
D03*
X61811Y171259D02*
D03*
X58858Y165354D02*
D03*
X61811Y147637D02*
D03*
X58858Y141732D02*
D03*
X61811Y53149D02*
D03*
X55905Y147637D02*
D03*
X47047Y118110D02*
D03*
X50000Y76771D02*
D03*
X47047Y70866D02*
D03*
X50000Y17716D02*
D03*
X47047Y11811D02*
D03*
X50000Y5905D02*
D03*
X44094Y159448D02*
D03*
Y64960D02*
D03*
X41141Y11811D02*
D03*
X44094Y5905D02*
D03*
X38189Y159448D02*
D03*
X35236Y118110D02*
D03*
Y35433D02*
D03*
Y11811D02*
D03*
X38189Y5905D02*
D03*
X32283Y159448D02*
D03*
X29330Y129921D02*
D03*
X32283Y124015D02*
D03*
Y112204D02*
D03*
X29330Y35433D02*
D03*
X32283Y29527D02*
D03*
Y17716D02*
D03*
X29330Y11811D02*
D03*
X32283Y5905D02*
D03*
X26378Y159448D02*
D03*
X23425Y47244D02*
D03*
X26378Y41338D02*
D03*
X23425Y35433D02*
D03*
Y11811D02*
D03*
X26378Y5905D02*
D03*
X20472Y159448D02*
D03*
X17519Y82677D02*
D03*
Y47244D02*
D03*
X20472Y41338D02*
D03*
X17519Y35433D02*
D03*
Y11811D02*
D03*
X20472Y5905D02*
D03*
X14567Y159448D02*
D03*
X11614Y82677D02*
D03*
Y47244D02*
D03*
X14567Y41338D02*
D03*
X11614Y35433D02*
D03*
X14567Y29527D02*
D03*
X11614Y23622D02*
D03*
X14567Y17716D02*
D03*
X11614Y11811D02*
D03*
X14567Y5905D02*
D03*
X8661Y159448D02*
D03*
X5708Y153543D02*
D03*
Y141732D02*
D03*
Y129921D02*
D03*
Y118110D02*
D03*
Y47244D02*
D03*
X8661Y41338D02*
D03*
X5708Y35433D02*
D03*
X8661Y29527D02*
D03*
X5708Y23622D02*
D03*
X8661Y17716D02*
D03*
X5708Y11811D02*
D03*
X8661Y5905D02*
D03*
X66339Y152601D02*
D03*
X148819Y127601D02*
D03*
X109055Y165790D02*
D03*
X142126Y161024D02*
D03*
X119685Y165003D02*
D03*
X134292Y173101D02*
D03*
X136221Y154373D02*
D03*
X147638Y161853D02*
D03*
X169685Y157118D02*
D03*
X113779Y164961D02*
D03*
X148819Y185039D02*
D03*
X144095D02*
D03*
X139370D02*
D03*
X134252D02*
D03*
X143626Y-26453D02*
D03*
X127165Y101575D02*
D03*
X141339Y133465D02*
D03*
X84252Y124803D02*
D03*
X90158D02*
D03*
X94095D02*
D03*
X49213Y96850D02*
D03*
X99606Y63386D02*
D03*
X91732Y58268D02*
D03*
X87795D02*
D03*
X80709Y29528D02*
D03*
Y33465D02*
D03*
X61811Y57480D02*
D03*
X54331Y72835D02*
D03*
Y77559D02*
D03*
X53150Y89764D02*
D03*
X51181Y112992D02*
D03*
Y119291D02*
D03*
X31496Y102362D02*
D03*
X27953D02*
D03*
X24409D02*
D03*
X13386Y61811D02*
D03*
X10236Y102756D02*
D03*
Y106299D02*
D03*
Y109843D02*
D03*
Y95669D02*
D03*
Y92126D02*
D03*
Y88583D02*
D03*
X4331Y81102D02*
D03*
X3150Y57366D02*
D03*
Y53937D02*
D03*
X109449Y38976D02*
D03*
X69291Y43307D02*
D03*
X90551Y186221D02*
D03*
X142384Y128297D02*
D03*
X74016Y185827D02*
D03*
X142126Y122441D02*
D03*
X120472Y119291D02*
D03*
X137008Y110630D02*
D03*
X129921D02*
D03*
X184252Y64173D02*
D03*
X189370Y17365D02*
D03*
X217748Y50000D02*
D03*
X145669Y39764D02*
D03*
X138583Y86263D02*
D03*
X134646Y77995D02*
D03*
X194882Y76772D02*
D03*
X138583Y90987D02*
D03*
X193870Y105905D02*
D03*
X187721Y104783D02*
D03*
X180315Y118504D02*
D03*
X181496Y114526D02*
D03*
X184646Y124743D02*
D03*
X170213Y138054D02*
D03*
X190795Y126026D02*
D03*
X161447Y109335D02*
D03*
X146850Y120514D02*
D03*
X172441Y24772D02*
D03*
X147638Y9449D02*
D03*
X148031Y22483D02*
D03*
X162205Y118546D02*
D03*
X88976Y105905D02*
D03*
X178347Y74058D02*
D03*
X175570Y64592D02*
D03*
X179921Y64567D02*
D03*
X172566Y55118D02*
D03*
X172441Y50000D02*
D03*
X116535Y57087D02*
D03*
X133071Y52362D02*
D03*
Y58661D02*
D03*
X137402Y67716D02*
D03*
X152362Y61811D02*
D03*
X69685Y57480D02*
D03*
X138583Y16577D02*
D03*
X153543Y90593D02*
D03*
X172441Y90945D02*
D03*
X165748Y92955D02*
D03*
X176378Y92913D02*
D03*
X206693Y70514D02*
D03*
X77165Y6693D02*
D03*
X109055Y20079D02*
D03*
X121260Y77995D02*
D03*
X59449Y-394D02*
D03*
X64439Y-266D02*
D03*
X137402Y73270D02*
D03*
X74410Y122441D02*
D03*
X205512Y35475D02*
D03*
X206299Y130357D02*
D03*
X218898Y95318D02*
D03*
X207874Y82326D02*
D03*
X217717Y117759D02*
D03*
X158460Y-17515D02*
D03*
X130709Y-15312D02*
D03*
X138583Y9449D02*
D03*
X79289Y-5906D02*
D03*
X88976Y145318D02*
D03*
X122835Y142955D02*
D03*
X64173Y-21218D02*
D03*
X136614Y100787D02*
D03*
X125984Y163779D02*
D03*
X136614Y163808D02*
D03*
X153937Y161853D02*
D03*
X44957Y76453D02*
D03*
X29921Y69291D02*
D03*
X34252Y63779D02*
D03*
Y69291D02*
D03*
X38583Y63779D02*
D03*
Y69291D02*
D03*
X22047Y67323D02*
D03*
X109449Y134688D02*
D03*
X112205Y119291D02*
D03*
X3150Y114567D02*
D03*
X6693D02*
D03*
X22047Y71653D02*
D03*
X53937Y13780D02*
D03*
X59055D02*
D03*
X64173D02*
D03*
X69291D02*
D03*
X53937Y20866D02*
D03*
X59055D02*
D03*
X64173D02*
D03*
X69291D02*
D03*
X30315Y48819D02*
D03*
X29921Y63779D02*
D03*
X57874Y82677D02*
D03*
D98*
X151181Y152975D02*
D03*
X154243Y149913D02*
D03*
X157306Y146850D02*
D03*
X148119Y149913D02*
D03*
X151181Y146850D02*
D03*
X154243Y143788D02*
D03*
X145057Y146850D02*
D03*
X148119Y143788D02*
D03*
X151181Y140726D02*
D03*
M02*
