G04*
G04 #@! TF.GenerationSoftware,Altium Limited,Altium Designer,23.0.1 (38)*
G04*
G04 Layer_Physical_Order=4*
G04 Layer_Color=16711680*
%FSLAX25Y25*%
%MOIN*%
G70*
G04*
G04 #@! TF.SameCoordinates,07299077-2F5B-483E-86E5-57BC813F48C1*
G04*
G04*
G04 #@! TF.FilePolarity,Positive*
G04*
G01*
G75*
%ADD11C,0.01000*%
%ADD22R,0.03937X0.03543*%
%ADD23R,0.03347X0.03740*%
%ADD30R,0.03543X0.03937*%
%ADD37R,0.03740X0.03347*%
%ADD84C,0.00799*%
%ADD85C,0.02000*%
%ADD86O,0.03150X0.03150*%
%ADD87O,0.05906X0.05906*%
%ADD88O,0.05906X0.05906*%
%ADD89R,0.06024X0.06024*%
%ADD90C,0.06024*%
%ADD91C,0.11811*%
%ADD92C,0.20000*%
%ADD93R,0.06319X0.06319*%
%ADD94C,0.06319*%
%ADD95C,0.12008*%
%ADD96O,0.03543X0.06299*%
%ADD97C,0.03150*%
%ADD98C,0.01968*%
%ADD99O,0.01772X0.05512*%
%ADD100R,0.05906X0.08661*%
G04:AMPARAMS|DCode=101|XSize=21.65mil|YSize=49.21mil|CornerRadius=1.95mil|HoleSize=0mil|Usage=FLASHONLY|Rotation=90.000|XOffset=0mil|YOffset=0mil|HoleType=Round|Shape=RoundedRectangle|*
%AMROUNDEDRECTD101*
21,1,0.02165,0.04532,0,0,90.0*
21,1,0.01776,0.04921,0,0,90.0*
1,1,0.00390,0.02266,0.00888*
1,1,0.00390,0.02266,-0.00888*
1,1,0.00390,-0.02266,-0.00888*
1,1,0.00390,-0.02266,0.00888*
%
%ADD101ROUNDEDRECTD101*%
G04:AMPARAMS|DCode=102|XSize=86.79mil|YSize=23.94mil|CornerRadius=11.97mil|HoleSize=0mil|Usage=FLASHONLY|Rotation=180.000|XOffset=0mil|YOffset=0mil|HoleType=Round|Shape=RoundedRectangle|*
%AMROUNDEDRECTD102*
21,1,0.08679,0.00000,0,0,180.0*
21,1,0.06285,0.02394,0,0,180.0*
1,1,0.02394,-0.03143,0.00000*
1,1,0.02394,0.03143,0.00000*
1,1,0.02394,0.03143,0.00000*
1,1,0.02394,-0.03143,0.00000*
%
%ADD102ROUNDEDRECTD102*%
%ADD103R,0.08679X0.02394*%
%ADD104R,0.07874X0.09449*%
%ADD105O,0.09055X0.02362*%
%ADD106R,0.07087X0.05118*%
%ADD107R,0.05906X0.14173*%
%ADD108R,0.03937X0.02756*%
%ADD109R,0.10630X0.05118*%
%ADD110R,0.05512X0.05118*%
%ADD111R,0.05118X0.05512*%
%ADD112R,0.12205X0.09488*%
G04:AMPARAMS|DCode=113|XSize=77.56mil|YSize=23.62mil|CornerRadius=2.95mil|HoleSize=0mil|Usage=FLASHONLY|Rotation=90.000|XOffset=0mil|YOffset=0mil|HoleType=Round|Shape=RoundedRectangle|*
%AMROUNDEDRECTD113*
21,1,0.07756,0.01772,0,0,90.0*
21,1,0.07165,0.02362,0,0,90.0*
1,1,0.00591,0.00886,0.03583*
1,1,0.00591,0.00886,-0.03583*
1,1,0.00591,-0.00886,-0.03583*
1,1,0.00591,-0.00886,0.03583*
%
%ADD113ROUNDEDRECTD113*%
%ADD114R,0.05118X0.10630*%
%ADD115R,0.01575X0.02756*%
G36*
X134277Y171526D02*
X134085Y171524D01*
X133904Y171511D01*
X133733Y171490D01*
X133573Y171459D01*
X133423Y171418D01*
X133283Y171368D01*
X133154Y171309D01*
X133036Y171239D01*
X132927Y171161D01*
X132830Y171073D01*
X132264Y171638D01*
X132352Y171736D01*
X132431Y171844D01*
X132500Y171963D01*
X132559Y172092D01*
X132609Y172232D01*
X132650Y172381D01*
X132681Y172542D01*
X132703Y172713D01*
X132715Y172894D01*
X132718Y173085D01*
X134277Y171526D01*
D02*
G37*
G36*
X115807Y166423D02*
X115719Y166325D01*
X115641Y166217D01*
X115572Y166099D01*
X115513Y165970D01*
X115463Y165830D01*
X115422Y165680D01*
X115391Y165520D01*
X115369Y165349D01*
X115357Y165168D01*
X115354Y164976D01*
X113795Y166535D01*
X113987Y166538D01*
X114168Y166550D01*
X114339Y166572D01*
X114499Y166603D01*
X114649Y166644D01*
X114788Y166694D01*
X114918Y166753D01*
X115036Y166822D01*
X115144Y166901D01*
X115242Y166988D01*
X115807Y166423D01*
D02*
G37*
G36*
X127228Y164767D02*
X127350Y164665D01*
X127475Y164575D01*
X127603Y164496D01*
X127733Y164430D01*
X127865Y164376D01*
X128000Y164334D01*
X128138Y164304D01*
X128279Y164286D01*
X128422Y164279D01*
Y163279D01*
X128279Y163274D01*
X128138Y163255D01*
X128000Y163225D01*
X127865Y163183D01*
X127733Y163129D01*
X127603Y163063D01*
X127475Y162984D01*
X127350Y162894D01*
X127228Y162792D01*
X127109Y162677D01*
Y164882D01*
X127228Y164767D01*
D02*
G37*
G36*
X159952Y163200D02*
X159974Y162880D01*
X159993Y162750D01*
X160018Y162640D01*
X160048Y162550D01*
X160084Y162480D01*
X160125Y162430D01*
X160172Y162400D01*
X160224Y162390D01*
X158673D01*
X158726Y162400D01*
X158773Y162430D01*
X158814Y162480D01*
X158850Y162550D01*
X158880Y162640D01*
X158905Y162750D01*
X158924Y162880D01*
X158938Y163030D01*
X158949Y163390D01*
X159949D01*
X159952Y163200D01*
D02*
G37*
G36*
X114809Y163769D02*
X114671Y163643D01*
X114547Y163516D01*
X114438Y163388D01*
X114343Y163259D01*
X114263Y163129D01*
X114197Y162999D01*
X114146Y162868D01*
X114110Y162736D01*
X114088Y162603D01*
X114088Y162596D01*
X114106Y162388D01*
X114125Y162284D01*
X114150Y162196D01*
X114181Y162124D01*
X114217Y162068D01*
X114258Y162028D01*
X114305Y162004D01*
X114358Y161996D01*
X112882Y161984D01*
X112958Y161993D01*
X113026Y162017D01*
X113086Y162058D01*
X113138Y162115D01*
X113182Y162188D01*
X113218Y162277D01*
X113245Y162383D01*
X113266Y162504D01*
X113276Y162625D01*
X113275Y162651D01*
X113255Y162781D01*
X113221Y162915D01*
X113174Y163050D01*
X113113Y163187D01*
X113039Y163327D01*
X112952Y163469D01*
X112851Y163613D01*
X112737Y163759D01*
X112609Y163907D01*
X114809Y163769D01*
D02*
G37*
G36*
X142632Y163319D02*
X142650Y163178D01*
X142680Y163040D01*
X142722Y162905D01*
X142777Y162772D01*
X142817Y162692D01*
X142902Y162720D01*
X143034Y162775D01*
X143160Y162841D01*
X143279Y162917D01*
X143391Y163004D01*
X143497Y163101D01*
X144204Y162394D01*
X144106Y162289D01*
X144020Y162176D01*
X143944Y162057D01*
X143878Y161932D01*
X143822Y161800D01*
X143777Y161661D01*
X143742Y161515D01*
X143718Y161363D01*
X143704Y161205D01*
X143701Y161039D01*
X142592Y162148D01*
X141024D01*
X141138Y162268D01*
X141241Y162390D01*
X141331Y162514D01*
X141409Y162642D01*
X141475Y162772D01*
X141530Y162905D01*
X141572Y163040D01*
X141602Y163178D01*
X141620Y163319D01*
X141626Y163462D01*
X142626D01*
X142632Y163319D01*
D02*
G37*
G36*
X147799Y160286D02*
X147777Y160280D01*
X147757Y160266D01*
X147740Y160245D01*
X147725Y160216D01*
X147713Y160180D01*
X147702Y160135D01*
X147694Y160084D01*
X147688Y160024D01*
X147684Y159883D01*
X146885D01*
X146884Y159994D01*
X146857Y160391D01*
X146847Y160438D01*
X146835Y160474D01*
X146822Y160500D01*
X146808Y160515D01*
X147799Y160286D01*
D02*
G37*
G36*
X153921Y160278D02*
X153756Y160275D01*
X153597Y160261D01*
X153445Y160237D01*
X153300Y160202D01*
X153161Y160157D01*
X153029Y160101D01*
X152903Y160035D01*
X152784Y159959D01*
X152672Y159872D01*
X152567Y159775D01*
X151859Y160483D01*
X151956Y160588D01*
X152043Y160700D01*
X152119Y160819D01*
X152185Y160945D01*
X152241Y161077D01*
X152286Y161216D01*
X152321Y161361D01*
X152345Y161513D01*
X152359Y161672D01*
X152362Y161837D01*
X153921Y160278D01*
D02*
G37*
G36*
X157544Y193357D02*
X166654Y164888D01*
X166685Y164832D01*
X166697Y164769D01*
X166828Y164573D01*
X166943Y164366D01*
X166993Y164326D01*
X167029Y164273D01*
X167225Y164142D01*
X167410Y163995D01*
X167472Y163977D01*
X167525Y163941D01*
X167757Y163895D01*
X167983Y163830D01*
X168047Y163838D01*
X168110Y163825D01*
X220554D01*
X220907Y163471D01*
X220696Y75031D01*
X220196Y74781D01*
X220033Y74902D01*
Y83858D01*
X219917Y84443D01*
X219585Y84940D01*
X208419Y96106D01*
Y102248D01*
X209563D01*
Y103589D01*
X210811D01*
Y102248D01*
X216748D01*
Y107791D01*
X210811D01*
Y106648D01*
X209563D01*
Y107988D01*
X199098D01*
X198766Y108350D01*
Y129142D01*
X198736Y129289D01*
Y133185D01*
X193390D01*
Y131844D01*
X187169D01*
X186215Y132798D01*
X186164Y132876D01*
X186103Y133001D01*
X186041Y133167D01*
X185983Y133375D01*
X185932Y133623D01*
X185893Y133900D01*
X185845Y134612D01*
X185842Y135017D01*
X185823Y135111D01*
Y135567D01*
X185549Y136588D01*
X185021Y137503D01*
X184274Y138250D01*
X183360Y138778D01*
X182339Y139051D01*
X181283D01*
X180262Y138778D01*
X179348Y138250D01*
X178601Y137503D01*
X178073Y136588D01*
X177799Y135567D01*
Y134511D01*
X178073Y133491D01*
X178601Y132576D01*
X179348Y131829D01*
X180262Y131301D01*
X181283Y131027D01*
X181740D01*
X181834Y131008D01*
X182239Y131005D01*
X182950Y130958D01*
X183227Y130918D01*
X183476Y130867D01*
X183684Y130809D01*
X183850Y130747D01*
X183974Y130686D01*
X184052Y130635D01*
X184743Y129944D01*
X184552Y129482D01*
X180948D01*
X175151Y135279D01*
Y140945D01*
X175035Y141530D01*
X174704Y142026D01*
X173916Y142814D01*
X173420Y143145D01*
X172835Y143262D01*
X168110D01*
X167525Y143145D01*
X167029Y142814D01*
X163933Y139718D01*
X149059D01*
X144049Y144728D01*
Y149802D01*
X153370Y159124D01*
X153372Y159125D01*
X153416Y159153D01*
X153464Y159178D01*
X153516Y159200D01*
X153576Y159220D01*
X153644Y159236D01*
X153722Y159248D01*
X153811Y159256D01*
X153943Y159259D01*
X154030Y159278D01*
X154276D01*
X154931Y159454D01*
X155518Y159793D01*
X155997Y160272D01*
X156336Y160859D01*
X156512Y161514D01*
Y162192D01*
X156336Y162847D01*
X155997Y163434D01*
X155713Y163719D01*
X155920Y164219D01*
X157240D01*
X157588Y163871D01*
X157661Y163402D01*
X157661D01*
Y162428D01*
X157654Y162390D01*
X157661Y162351D01*
Y158646D01*
X161236D01*
Y162351D01*
X161244Y162390D01*
X161236Y162428D01*
Y163402D01*
X160978D01*
Y164173D01*
X160862Y164759D01*
X160530Y165255D01*
X158956Y166830D01*
X158459Y167161D01*
X157874Y167277D01*
X146850D01*
X146265Y167161D01*
X145769Y166830D01*
X144107Y165167D01*
X143921Y165244D01*
X143644Y165412D01*
X143539Y165940D01*
X143207Y166436D01*
X140058Y169585D01*
X139562Y169917D01*
X138976Y170033D01*
X135433D01*
X134848Y169917D01*
X134352Y169585D01*
X130075Y165309D01*
X128315D01*
X128313Y165309D01*
X128261Y165320D01*
X128210Y165336D01*
X128157Y165358D01*
X128102Y165386D01*
X128042Y165423D01*
X127978Y165470D01*
X127910Y165527D01*
X127814Y165618D01*
X127739Y165666D01*
X127565Y165840D01*
X126978Y166179D01*
X126962Y166183D01*
X127028Y166683D01*
X129301D01*
X129302Y166683D01*
X129848Y166792D01*
X130311Y167101D01*
X133594Y170385D01*
X133625Y170403D01*
X133670Y170423D01*
X133729Y170445D01*
X133803Y170465D01*
X133895Y170482D01*
X134002Y170496D01*
X134127Y170504D01*
X134291Y170507D01*
X134382Y170526D01*
X134631D01*
X135286Y170702D01*
X135873Y171041D01*
X136353Y171520D01*
X136692Y172107D01*
X136867Y172762D01*
Y173440D01*
X136692Y174095D01*
X136353Y174682D01*
X135873Y175161D01*
X135286Y175500D01*
X134631Y175676D01*
X133953D01*
X133299Y175500D01*
X132711Y175161D01*
X132232Y174682D01*
X131893Y174095D01*
X131718Y173440D01*
Y173191D01*
X131698Y173100D01*
X131696Y172935D01*
X131687Y172811D01*
X131674Y172703D01*
X131656Y172612D01*
X131636Y172537D01*
X131615Y172478D01*
X131594Y172434D01*
X131576Y172403D01*
X128710Y169537D01*
X116929D01*
X116929Y169537D01*
X116383Y169429D01*
X115920Y169119D01*
X115920Y169119D01*
X114478Y167677D01*
X114447Y167659D01*
X114402Y167638D01*
X114343Y167617D01*
X114269Y167597D01*
X114177Y167579D01*
X114069Y167566D01*
X113945Y167557D01*
X113781Y167555D01*
X113690Y167535D01*
X113441D01*
X112786Y167360D01*
X112199Y167021D01*
X111719Y166542D01*
X111380Y165954D01*
X111205Y165300D01*
Y164622D01*
X111380Y163967D01*
X111660Y163482D01*
X111795Y163008D01*
X111795Y163008D01*
X111795Y163008D01*
Y158252D01*
X115370D01*
Y161964D01*
X115378Y162004D01*
X115370Y162041D01*
Y162899D01*
X115380Y162910D01*
X115497Y163016D01*
X115554Y163093D01*
X115840Y163380D01*
X116179Y163967D01*
X116354Y164622D01*
Y164871D01*
X116374Y164962D01*
X116376Y165126D01*
X116384Y165251D01*
X116398Y165358D01*
X116416Y165450D01*
X116436Y165524D01*
X116457Y165583D01*
X116478Y165628D01*
X116496Y165659D01*
X117520Y166683D01*
X124941D01*
X125007Y166183D01*
X124990Y166179D01*
X124403Y165840D01*
X123924Y165360D01*
X123585Y164773D01*
X123409Y164119D01*
Y163441D01*
X123585Y162786D01*
X123924Y162199D01*
X124403Y161719D01*
X124990Y161380D01*
X125645Y161205D01*
X126323D01*
X126978Y161380D01*
X127565Y161719D01*
X127739Y161893D01*
X127814Y161941D01*
X127909Y162032D01*
X127978Y162090D01*
X128042Y162136D01*
X128102Y162173D01*
X128157Y162201D01*
X128210Y162223D01*
X128261Y162239D01*
X128313Y162250D01*
X128315Y162250D01*
X130709D01*
X131294Y162367D01*
X131790Y162698D01*
X136067Y166974D01*
X138343D01*
X140597Y164721D01*
Y163354D01*
X140596Y163352D01*
X140585Y163301D01*
X140569Y163250D01*
X140548Y163197D01*
X140519Y163141D01*
X140482Y163081D01*
X140436Y163017D01*
X140379Y162949D01*
X140287Y162854D01*
X140240Y162778D01*
X140066Y162605D01*
X139727Y162018D01*
X139551Y161363D01*
Y160685D01*
X139727Y160030D01*
X140066Y159443D01*
X140545Y158963D01*
X141132Y158624D01*
X141787Y158449D01*
X142465D01*
X143120Y158624D01*
X143548Y158871D01*
X143855Y158471D01*
X139275Y153891D01*
X139002Y153972D01*
X138795Y154119D01*
Y154712D01*
X138620Y155367D01*
X138281Y155954D01*
X137801Y156433D01*
X137214Y156772D01*
X136559Y156948D01*
X135881D01*
X135227Y156772D01*
X134935Y156604D01*
X134838Y156568D01*
X134721Y156496D01*
X134495Y156379D01*
X134412Y156343D01*
X134323Y156310D01*
X134240Y156285D01*
X134161Y156267D01*
X133677Y156534D01*
Y157496D01*
X127740D01*
Y156254D01*
X122653D01*
Y157693D01*
X116717D01*
Y152150D01*
X122653D01*
Y153195D01*
X127740D01*
Y151953D01*
X133677D01*
Y152628D01*
X134099Y152771D01*
X134177Y152775D01*
X134640Y152312D01*
X135227Y151973D01*
X135881Y151798D01*
X136474D01*
X136621Y151591D01*
X136702Y151318D01*
X135236Y149852D01*
X115370D01*
Y150803D01*
X111795D01*
Y148593D01*
X111762Y148425D01*
X111795Y148258D01*
Y146047D01*
X115370D01*
Y146998D01*
X135827D01*
X135827Y146998D01*
X136373Y147107D01*
X136836Y147416D01*
X140515Y151095D01*
X140613Y151078D01*
X141005Y150508D01*
X140990Y150436D01*
Y144095D01*
X141107Y143509D01*
X141438Y143013D01*
X147344Y137108D01*
X147423Y137055D01*
Y136555D01*
X147304Y136475D01*
X144663Y133833D01*
X144331Y133337D01*
X144215Y132752D01*
Y130791D01*
X143715Y130502D01*
X143378Y130697D01*
X142723Y130872D01*
X142045D01*
X141390Y130697D01*
X140803Y130358D01*
X140324Y129878D01*
X139985Y129291D01*
X139809Y128636D01*
Y128374D01*
X139309Y128325D01*
X139264Y128554D01*
X138778Y129281D01*
X138051Y129766D01*
X137194Y129937D01*
X130909D01*
X130052Y129766D01*
X129325Y129281D01*
X128840Y128554D01*
X128669Y127697D01*
X128840Y126840D01*
X129325Y126113D01*
X130052Y125628D01*
X130909Y125457D01*
X136473D01*
X136527Y125366D01*
X136295Y124937D01*
X130909D01*
X130052Y124766D01*
X129325Y124281D01*
X128840Y123554D01*
X128669Y122697D01*
X128840Y121840D01*
X129325Y121113D01*
X130052Y120627D01*
X130909Y120457D01*
X137194D01*
X138051Y120627D01*
X138778Y121113D01*
X139149Y121669D01*
X139686Y121597D01*
X139727Y121447D01*
X140066Y120860D01*
X140545Y120381D01*
X141132Y120042D01*
X141787Y119866D01*
X142465D01*
X143120Y120042D01*
X143707Y120381D01*
X143776Y120449D01*
X144276Y120242D01*
Y120176D01*
X144451Y119521D01*
X144790Y118933D01*
X145269Y118454D01*
X145856Y118115D01*
X146511Y117940D01*
X147189D01*
X147844Y118115D01*
X148391Y118431D01*
X148539Y118379D01*
X148848Y118163D01*
X148755Y117697D01*
X148925Y116840D01*
X149411Y116113D01*
X150138Y115628D01*
X150995Y115457D01*
X152801D01*
Y114413D01*
X152265Y113877D01*
X151934Y113381D01*
X151817Y112795D01*
Y109714D01*
X151317Y109396D01*
X150787Y109502D01*
X150052Y109355D01*
X149508Y108992D01*
X148964Y109355D01*
X148228Y109502D01*
X147493Y109355D01*
X146949Y108992D01*
X146405Y109355D01*
X145669Y109502D01*
X144933Y109355D01*
X144390Y108992D01*
X143846Y109355D01*
X143110Y109502D01*
X142374Y109355D01*
X141751Y108938D01*
X141334Y108315D01*
X141188Y107579D01*
Y107041D01*
X139287D01*
Y108480D01*
X139207D01*
X139000Y108980D01*
X139068Y109049D01*
X139407Y109636D01*
X139583Y110291D01*
Y110969D01*
X139407Y111624D01*
X139068Y112211D01*
X138589Y112690D01*
X138002Y113029D01*
X137347Y113205D01*
X136669D01*
X136014Y113029D01*
X135427Y112690D01*
X134948Y112211D01*
X134608Y111624D01*
X134433Y110969D01*
Y110291D01*
X134608Y109636D01*
X134948Y109049D01*
X135016Y108980D01*
X134809Y108480D01*
X133744D01*
Y102543D01*
X134078D01*
X134366Y102043D01*
X134215Y101781D01*
X134039Y101126D01*
Y100448D01*
X134215Y99794D01*
X134288Y99667D01*
X133999Y99167D01*
X123271D01*
X115452Y106987D01*
X114955Y107318D01*
X114370Y107435D01*
X91307D01*
X91305Y107435D01*
X91254Y107446D01*
X91202Y107462D01*
X91150Y107484D01*
X91094Y107512D01*
X91034Y107549D01*
X90970Y107596D01*
X90902Y107653D01*
X90807Y107744D01*
X90731Y107792D01*
X90557Y107966D01*
X89970Y108305D01*
X89315Y108480D01*
X88637D01*
X87982Y108305D01*
X87740Y108165D01*
X87240Y108454D01*
Y113941D01*
X101575D01*
X101965Y114019D01*
X102296Y114240D01*
X103477Y115421D01*
X103698Y115752D01*
X103776Y116142D01*
Y116421D01*
X107332D01*
X107370Y116414D01*
X107408Y116421D01*
X108382D01*
Y117175D01*
X108537Y117211D01*
X108761Y117243D01*
X108883Y117252D01*
X110603D01*
X110624Y117231D01*
X111211Y116892D01*
X111866Y116717D01*
X112544D01*
X113199Y116892D01*
X113786Y117231D01*
X114265Y117710D01*
X114604Y118298D01*
X114779Y118952D01*
Y119630D01*
X114604Y120285D01*
X114265Y120872D01*
X113786Y121352D01*
X113199Y121691D01*
X112544Y121866D01*
X111866D01*
X111211Y121691D01*
X110624Y121352D01*
X110613Y121341D01*
X110461Y121330D01*
X108883D01*
X108761Y121340D01*
X108537Y121372D01*
X108382Y121408D01*
Y122161D01*
X107408D01*
X107370Y122169D01*
X107332Y122161D01*
X103776D01*
Y123622D01*
X103698Y124012D01*
X103477Y124343D01*
X103146Y124564D01*
X102756Y124642D01*
X96386D01*
X96255Y124616D01*
X96122Y124607D01*
X96061Y124577D01*
X95995Y124564D01*
X95885Y124490D01*
X95765Y124431D01*
X95721Y124380D01*
X95665Y124343D01*
X95591Y124232D01*
X95503Y124132D01*
X95339Y123848D01*
X95049Y123559D01*
X94695Y123354D01*
X94299Y123248D01*
X93890D01*
X93494Y123354D01*
X93140Y123559D01*
X92847Y123851D01*
X92516Y124072D01*
X92126Y124150D01*
X91736Y124072D01*
X91405Y123851D01*
X91112Y123559D01*
X90758Y123354D01*
X90362Y123248D01*
X89953D01*
X89557Y123354D01*
X89202Y123559D01*
X88913Y123848D01*
X88749Y124132D01*
X88661Y124232D01*
X88587Y124343D01*
X88531Y124380D01*
X88487Y124431D01*
X88367Y124490D01*
X88256Y124564D01*
X88191Y124577D01*
X88130Y124607D01*
X87997Y124616D01*
X87866Y124642D01*
X86543D01*
X86412Y124616D01*
X86279Y124607D01*
X86219Y124577D01*
X86153Y124564D01*
X86042Y124490D01*
X85922Y124431D01*
X85878Y124380D01*
X85822Y124343D01*
X85748Y124232D01*
X85660Y124132D01*
X85496Y123848D01*
X85207Y123559D01*
X84852Y123354D01*
X84457Y123248D01*
X84047D01*
X83652Y123354D01*
X83297Y123559D01*
X83008Y123848D01*
X82844Y124132D01*
X82756Y124232D01*
X82682Y124343D01*
X82626Y124380D01*
X82581Y124431D01*
X82462Y124490D01*
X82351Y124564D01*
X82285Y124577D01*
X82225Y124607D01*
X82091Y124616D01*
X81961Y124642D01*
X77953D01*
X77563Y124564D01*
X77232Y124343D01*
X77011Y124012D01*
X76933Y123622D01*
Y97638D01*
X77011Y97248D01*
X77232Y96917D01*
X77563Y96696D01*
X77953Y96618D01*
X79235D01*
X79426Y96156D01*
X73776Y90506D01*
X71735D01*
X71544Y90968D01*
X75524Y94948D01*
X75745Y95279D01*
X75823Y95669D01*
Y112992D01*
X75745Y113382D01*
X75524Y113713D01*
X75130Y114107D01*
X74800Y114328D01*
X74410Y114405D01*
X66535D01*
X66145Y114328D01*
X65815Y114107D01*
X65593Y113776D01*
X65516Y113386D01*
Y109871D01*
X63267Y107623D01*
X63054Y107303D01*
X59055D01*
X59036Y107299D01*
X58051D01*
Y106362D01*
X58035Y106283D01*
Y103559D01*
X58051Y103480D01*
Y102543D01*
X58051D01*
Y98803D01*
X59494D01*
Y96276D01*
X58252D01*
Y92202D01*
X57790Y92011D01*
X53892Y95909D01*
Y98803D01*
X55331D01*
Y102543D01*
X55331D01*
Y102761D01*
X55445Y102838D01*
X55666Y103169D01*
X55744Y103559D01*
Y110236D01*
X55666Y110626D01*
X55445Y110957D01*
X55331Y111034D01*
Y111039D01*
X55322D01*
X55115Y111178D01*
X54724Y111256D01*
X48031D01*
X47641Y111178D01*
X47311Y110957D01*
X45251Y108898D01*
X44789Y109089D01*
Y110721D01*
X41130D01*
Y107061D01*
X42761D01*
X42952Y106599D01*
X40439Y104085D01*
X40434Y104079D01*
X40428Y104074D01*
X40324Y103914D01*
X40218Y103755D01*
X40216Y103747D01*
X40212Y103740D01*
X40177Y103552D01*
X40140Y103364D01*
X40042Y103245D01*
X39789Y102988D01*
X34056D01*
X33990Y102975D01*
X33923Y102979D01*
X33797Y102936D01*
X33666Y102910D01*
X33610Y102873D01*
X33546Y102851D01*
X33446Y102764D01*
X33335Y102690D01*
X33298Y102634D01*
X33247Y102589D01*
X33188Y102470D01*
X33114Y102359D01*
X33101Y102293D01*
X33071Y102232D01*
X32945Y101762D01*
X32741Y101407D01*
X32451Y101118D01*
X32096Y100913D01*
X31701Y100807D01*
X31291D01*
X30896Y100913D01*
X30541Y101118D01*
X30445Y101214D01*
X30115Y101435D01*
X29724Y101512D01*
X29334Y101435D01*
X29003Y101214D01*
X28908Y101118D01*
X28553Y100913D01*
X28157Y100807D01*
X27748D01*
X27352Y100913D01*
X26998Y101118D01*
X26902Y101214D01*
X26571Y101435D01*
X26181Y101512D01*
X26181D01*
X25791Y101435D01*
X25460Y101214D01*
X25364Y101118D01*
X25010Y100913D01*
X24614Y100807D01*
X24205D01*
X23809Y100913D01*
X23455Y101118D01*
X23165Y101407D01*
X22960Y101762D01*
X22834Y102232D01*
X22804Y102293D01*
X22791Y102359D01*
X22717Y102470D01*
X22658Y102589D01*
X22608Y102634D01*
X22570Y102690D01*
X22459Y102764D01*
X22359Y102851D01*
X22295Y102873D01*
X22279Y102884D01*
Y112417D01*
X22666Y112734D01*
X22932Y112681D01*
X24312D01*
X25665Y112950D01*
X26940Y113478D01*
X28087Y114245D01*
X29062Y115220D01*
X29829Y116367D01*
X30357Y117642D01*
X30626Y118995D01*
Y120375D01*
X30357Y121728D01*
X29829Y123003D01*
X29062Y124150D01*
X28087Y125125D01*
X26940Y125892D01*
X25665Y126420D01*
X24312Y126689D01*
X22932D01*
X21579Y126420D01*
X20304Y125892D01*
X19157Y125125D01*
X18804Y124772D01*
X18342Y124964D01*
Y132910D01*
X18804Y133102D01*
X19157Y132749D01*
X20304Y131982D01*
X21579Y131454D01*
X22932Y131185D01*
X24312D01*
X25665Y131454D01*
X26940Y131982D01*
X28087Y132749D01*
X29062Y133724D01*
X29829Y134871D01*
X30357Y136146D01*
X30626Y137499D01*
Y138350D01*
X37548D01*
X37756Y137850D01*
X37301Y137397D01*
X36754Y136448D01*
X36470Y135390D01*
Y134295D01*
X36754Y133237D01*
X37301Y132289D01*
X38076Y131514D01*
X38751Y131124D01*
X38792Y131090D01*
X38904Y131030D01*
X38952Y130997D01*
X38987Y130966D01*
X39012Y130937D01*
X39034Y130904D01*
X39055Y130863D01*
X39074Y130808D01*
X39092Y130735D01*
X39101Y130670D01*
Y130523D01*
X39217Y129938D01*
X39549Y129441D01*
X40053Y128937D01*
X39549Y128433D01*
X39217Y127936D01*
X39101Y127351D01*
Y127204D01*
X39092Y127139D01*
X39074Y127066D01*
X39055Y127011D01*
X39034Y126970D01*
X39012Y126937D01*
X38987Y126908D01*
X38952Y126877D01*
X38904Y126844D01*
X38792Y126784D01*
X38751Y126750D01*
X38076Y126360D01*
X37301Y125585D01*
X36754Y124637D01*
X36470Y123579D01*
Y122484D01*
X36754Y121426D01*
X37301Y120477D01*
X38076Y119703D01*
X39024Y119156D01*
X40082Y118872D01*
X41177D01*
X42235Y119156D01*
X43184Y119703D01*
X43958Y120477D01*
X44506Y121426D01*
X44789Y122484D01*
Y123579D01*
X44506Y124637D01*
X43958Y125585D01*
X43636Y125908D01*
X43843Y126408D01*
X46620D01*
X47205Y126524D01*
X47325Y126604D01*
X50279D01*
Y123902D01*
X56020D01*
Y129020D01*
Y134366D01*
X53425D01*
X53325Y134866D01*
X53962Y135130D01*
X54788Y135764D01*
X55421Y136589D01*
X55819Y137551D01*
X55955Y138583D01*
X55819Y139615D01*
X55421Y140576D01*
X54788Y141402D01*
X53962Y142035D01*
X53000Y142434D01*
X51968Y142569D01*
X50937Y142434D01*
X49975Y142035D01*
X49551Y141710D01*
X49051Y141957D01*
Y154331D01*
X48974Y154721D01*
X48752Y155052D01*
X48422Y155273D01*
X48031Y155350D01*
X10236D01*
X9846Y155273D01*
X9515Y155052D01*
X9294Y154721D01*
X9217Y154331D01*
Y112417D01*
X9294Y112027D01*
X9515Y111696D01*
X9846Y111475D01*
X10236Y111398D01*
X10441D01*
X10836Y111292D01*
X11191Y111087D01*
X11481Y110797D01*
X11685Y110443D01*
X11791Y110047D01*
Y109638D01*
X11685Y109242D01*
X11481Y108888D01*
X11385Y108792D01*
X11164Y108461D01*
X11086Y108071D01*
Y108071D01*
X11164Y107681D01*
X11385Y107350D01*
X11481Y107254D01*
X11685Y106899D01*
X11791Y106504D01*
Y106095D01*
X11685Y105699D01*
X11481Y105344D01*
X11385Y105248D01*
X11164Y104918D01*
X11086Y104528D01*
X11164Y104137D01*
X11385Y103807D01*
X11481Y103711D01*
X11685Y103356D01*
X11791Y102961D01*
Y102551D01*
X11685Y102156D01*
X11481Y101801D01*
X11191Y101511D01*
X10836Y101307D01*
X10441Y101201D01*
X10236D01*
X9846Y101123D01*
X9515Y100902D01*
X9294Y100571D01*
X9217Y100181D01*
Y98244D01*
X9294Y97854D01*
X9515Y97523D01*
X9846Y97302D01*
X10236Y97224D01*
X10441D01*
X10836Y97119D01*
X11191Y96914D01*
X11481Y96624D01*
X11685Y96270D01*
X11791Y95874D01*
Y95464D01*
X11685Y95069D01*
X11481Y94714D01*
X11385Y94619D01*
X11164Y94288D01*
X11086Y93898D01*
Y93898D01*
X11164Y93507D01*
X11385Y93177D01*
X11481Y93081D01*
X11685Y92726D01*
X11791Y92331D01*
Y91921D01*
X11685Y91526D01*
X11481Y91171D01*
X11385Y91075D01*
X11164Y90745D01*
X11086Y90354D01*
X11164Y89964D01*
X11385Y89633D01*
X11481Y89538D01*
X11685Y89183D01*
X11791Y88787D01*
Y88378D01*
X11685Y87982D01*
X11481Y87628D01*
X11191Y87338D01*
X10836Y87134D01*
X10441Y87028D01*
X10236D01*
X9846Y86950D01*
X9515Y86729D01*
X9294Y86398D01*
X9217Y86008D01*
Y85433D01*
X9294Y85043D01*
X9515Y84712D01*
X9846Y84491D01*
X10236Y84413D01*
X22542D01*
X22734Y83951D01*
X15902Y77120D01*
X12319D01*
Y78461D01*
X6972D01*
Y72720D01*
X12319D01*
Y74061D01*
X14710D01*
X14901Y73599D01*
X13006Y71704D01*
X12614Y71866D01*
Y71866D01*
X1756D01*
X1529Y72272D01*
Y163825D01*
X53937D01*
X54003Y163838D01*
X54070Y163831D01*
X54294Y163896D01*
X54522Y163941D01*
X54578Y163979D01*
X54643Y163997D01*
X54825Y164143D01*
X55018Y164273D01*
X55056Y164329D01*
X55108Y164371D01*
X55220Y164575D01*
X55350Y164769D01*
X55363Y164835D01*
X55395Y164894D01*
X64505Y193742D01*
X157544Y193357D01*
D02*
G37*
G36*
X132663Y155629D02*
X132694Y155544D01*
X132744Y155469D01*
X132815Y155404D01*
X132906Y155349D01*
X133018Y155304D01*
X133149Y155269D01*
X133301Y155244D01*
X133473Y155229D01*
X133665Y155224D01*
Y154224D01*
X133473Y154219D01*
X133301Y154204D01*
X133149Y154179D01*
X133018Y154144D01*
X132906Y154099D01*
X132815Y154044D01*
X132744Y153979D01*
X132694Y153904D01*
X132663Y153819D01*
X132653Y153724D01*
Y155724D01*
X132663Y155629D01*
D02*
G37*
G36*
X128764Y153724D02*
X128754Y153819D01*
X128724Y153904D01*
X128673Y153979D01*
X128602Y154044D01*
X128511Y154099D01*
X128400Y154144D01*
X128268Y154179D01*
X128117Y154204D01*
X127944Y154219D01*
X127752Y154224D01*
Y155224D01*
X127944Y155229D01*
X128117Y155244D01*
X128268Y155269D01*
X128400Y155304D01*
X128511Y155349D01*
X128602Y155404D01*
X128673Y155469D01*
X128724Y155544D01*
X128754Y155629D01*
X128764Y155724D01*
Y153724D01*
D02*
G37*
G36*
X121640Y155629D02*
X121670Y155544D01*
X121721Y155469D01*
X121792Y155404D01*
X121882Y155349D01*
X121994Y155304D01*
X122125Y155269D01*
X122277Y155244D01*
X122449Y155229D01*
X122642Y155224D01*
Y154224D01*
X122449Y154219D01*
X122277Y154204D01*
X122125Y154179D01*
X121994Y154144D01*
X121882Y154099D01*
X121792Y154044D01*
X121721Y153979D01*
X121670Y153904D01*
X121640Y153819D01*
X121630Y153724D01*
Y155724D01*
X121640Y155629D01*
D02*
G37*
G36*
X134878Y153549D02*
X134792Y153678D01*
X134699Y153792D01*
X134599Y153894D01*
X134492Y153981D01*
X134379Y154056D01*
X134258Y154116D01*
X134131Y154164D01*
X133997Y154197D01*
X133856Y154218D01*
X133708Y154224D01*
X133951Y155224D01*
X134088Y155229D01*
X134225Y155243D01*
X134364Y155267D01*
X134505Y155300D01*
X134646Y155343D01*
X134789Y155395D01*
X134932Y155457D01*
X135223Y155608D01*
X135370Y155698D01*
X134878Y153549D01*
D02*
G37*
G36*
X114354Y149148D02*
X114378Y149081D01*
X114419Y149021D01*
X114476Y148969D01*
X114549Y148925D01*
X114638Y148889D01*
X114744Y148861D01*
X114865Y148841D01*
X115003Y148829D01*
X115157Y148825D01*
Y148026D01*
X115003Y148022D01*
X114865Y148010D01*
X114744Y147990D01*
X114638Y147962D01*
X114549Y147926D01*
X114476Y147882D01*
X114419Y147830D01*
X114378Y147770D01*
X114354Y147702D01*
X114346Y147626D01*
Y149224D01*
X114354Y149148D01*
D02*
G37*
G36*
X48031Y139370D02*
X30528D01*
X30357Y140232D01*
X29829Y141507D01*
X29062Y142654D01*
X28087Y143629D01*
X26940Y144396D01*
X25665Y144924D01*
X24312Y145193D01*
X22932D01*
X21579Y144924D01*
X20304Y144396D01*
X19157Y143629D01*
X18182Y142654D01*
X17415Y141507D01*
X16887Y140232D01*
X16618Y138879D01*
Y137499D01*
X16887Y136146D01*
X17323Y135094D01*
Y122780D01*
X16887Y121728D01*
X16618Y120375D01*
Y118995D01*
X16887Y117642D01*
X17415Y116367D01*
X18182Y115220D01*
X19157Y114245D01*
X20304Y113478D01*
X21260Y113083D01*
Y101969D01*
X21849D01*
X22010Y101368D01*
X22349Y100781D01*
X22828Y100302D01*
X23416Y99963D01*
X24070Y99787D01*
X24748D01*
X25403Y99963D01*
X25990Y100302D01*
X26181Y100493D01*
X26372Y100302D01*
X26959Y99963D01*
X27614Y99787D01*
X28292D01*
X28947Y99963D01*
X29534Y100302D01*
X29724Y100493D01*
X29915Y100302D01*
X30502Y99963D01*
X31157Y99787D01*
X31835D01*
X32490Y99963D01*
X33077Y100302D01*
X33556Y100781D01*
X33895Y101368D01*
X34056Y101969D01*
X40157D01*
X40551Y101575D01*
Y97752D01*
X40437D01*
Y92012D01*
X40437D01*
X40362Y91543D01*
X39484Y90665D01*
X38862D01*
Y85433D01*
X10236D01*
Y86008D01*
X10575D01*
X11230Y86183D01*
X11817Y86522D01*
X12297Y87002D01*
X12636Y87589D01*
X12811Y88244D01*
Y88922D01*
X12636Y89577D01*
X12297Y90164D01*
X12106Y90354D01*
X12297Y90545D01*
X12636Y91132D01*
X12811Y91787D01*
Y92465D01*
X12636Y93120D01*
X12297Y93707D01*
X12106Y93898D01*
X12297Y94088D01*
X12636Y94675D01*
X12811Y95330D01*
Y96008D01*
X12636Y96663D01*
X12297Y97250D01*
X11817Y97730D01*
X11230Y98069D01*
X10575Y98244D01*
X10236D01*
Y100181D01*
X10575D01*
X11230Y100357D01*
X11817Y100696D01*
X12297Y101175D01*
X12636Y101762D01*
X12811Y102417D01*
Y103095D01*
X12636Y103750D01*
X12297Y104337D01*
X12106Y104528D01*
X12297Y104718D01*
X12636Y105305D01*
X12811Y105960D01*
Y106638D01*
X12636Y107293D01*
X12297Y107880D01*
X12106Y108071D01*
X12297Y108262D01*
X12636Y108849D01*
X12811Y109503D01*
Y110181D01*
X12636Y110836D01*
X12297Y111424D01*
X11817Y111903D01*
X11230Y112242D01*
X10575Y112417D01*
X10236D01*
Y154331D01*
X48031D01*
Y139370D01*
D02*
G37*
G36*
X171428Y137031D02*
X171272Y136744D01*
X171208Y136601D01*
X171154Y136460D01*
X171110Y136319D01*
X171076Y136179D01*
X171052Y136040D01*
X171037Y135902D01*
X171032Y135764D01*
X170032Y135545D01*
X170026Y135693D01*
X170006Y135834D01*
X169972Y135968D01*
X169925Y136096D01*
X169865Y136218D01*
X169791Y136333D01*
X169704Y136442D01*
X169603Y136544D01*
X169489Y136640D01*
X169362Y136730D01*
X171521Y137176D01*
X171428Y137031D01*
D02*
G37*
G36*
X158463Y133582D02*
X158493Y133497D01*
X158544Y133422D01*
X158615Y133357D01*
X158706Y133302D01*
X158817Y133257D01*
X158949Y133222D01*
X159100Y133197D01*
X159273Y133182D01*
X159465Y133177D01*
Y132177D01*
X159273Y132172D01*
X159100Y132157D01*
X158949Y132132D01*
X158817Y132097D01*
X158706Y132052D01*
X158615Y131997D01*
X158544Y131932D01*
X158493Y131857D01*
X158463Y131772D01*
X158453Y131677D01*
Y133677D01*
X158463Y133582D01*
D02*
G37*
G36*
X184826Y134574D02*
X184878Y133794D01*
X184927Y133449D01*
X184991Y133135D01*
X185071Y132850D01*
X185166Y132596D01*
X185276Y132372D01*
X185402Y132178D01*
X185543Y132015D01*
X184835Y131308D01*
X184672Y131449D01*
X184478Y131574D01*
X184254Y131684D01*
X184000Y131779D01*
X183716Y131859D01*
X183401Y131923D01*
X183056Y131972D01*
X182276Y132025D01*
X181841Y132028D01*
X184823Y135009D01*
X184826Y134574D01*
D02*
G37*
G36*
X41821Y131900D02*
X41676Y131800D01*
X41548Y131686D01*
X41437Y131559D01*
X41343Y131419D01*
X41267Y131266D01*
X41207Y131100D01*
X41164Y130921D01*
X41138Y130728D01*
X41130Y130523D01*
X40130D01*
X40121Y130728D01*
X40096Y130921D01*
X40053Y131100D01*
X39993Y131266D01*
X39917Y131419D01*
X39823Y131559D01*
X39712Y131686D01*
X39584Y131800D01*
X39439Y131900D01*
X39276Y131988D01*
X41984D01*
X41821Y131900D01*
D02*
G37*
G36*
X51292Y130032D02*
X50292Y129634D01*
Y130634D01*
X50483Y130639D01*
X50654Y130654D01*
X50805Y130679D01*
X50937Y130714D01*
X51048Y130759D01*
X51139Y130814D01*
X51210Y130879D01*
X51261Y130954D01*
X51292Y131039D01*
X51303Y131134D01*
X51292Y130032D01*
D02*
G37*
G36*
X194414Y129315D02*
X194404Y129410D01*
X194373Y129495D01*
X194323Y129570D01*
X194252Y129635D01*
X194161Y129690D01*
X194049Y129735D01*
X193918Y129770D01*
X193766Y129795D01*
X193594Y129810D01*
X193402Y129815D01*
Y130815D01*
X193594Y130820D01*
X193766Y130835D01*
X193918Y130860D01*
X194049Y130895D01*
X194161Y130940D01*
X194252Y130995D01*
X194323Y131060D01*
X194373Y131135D01*
X194404Y131220D01*
X194414Y131315D01*
Y129315D01*
D02*
G37*
G36*
X197724Y128457D02*
X197736Y127457D01*
X196736D01*
X196731Y127648D01*
X196716Y127820D01*
X196691Y127971D01*
X196656Y128103D01*
X196611Y128214D01*
X196556Y128305D01*
X196491Y128376D01*
X196416Y128427D01*
X196331Y128458D01*
X196236Y128469D01*
X197724Y128457D01*
D02*
G37*
G36*
X51292Y128236D02*
X51303Y127134D01*
X51292Y127229D01*
X51261Y127314D01*
X51210Y127389D01*
X51139Y127454D01*
X51048Y127509D01*
X50937Y127554D01*
X50805Y127589D01*
X50654Y127614D01*
X50483Y127629D01*
X50292Y127634D01*
Y128634D01*
X51292Y128236D01*
D02*
G37*
G36*
X142606Y126738D02*
X142438Y126710D01*
X142123Y126631D01*
X141977Y126581D01*
X141838Y126523D01*
X141706Y126458D01*
X141582Y126386D01*
X141465Y126306D01*
X141356Y126218D01*
X141254Y126124D01*
X140432Y126716D01*
X140531Y126825D01*
X140617Y126938D01*
X140690Y127058D01*
X140749Y127182D01*
X140796Y127312D01*
X140829Y127448D01*
X140849Y127588D01*
X140856Y127735D01*
X140849Y127887D01*
X140830Y128044D01*
X142606Y126738D01*
D02*
G37*
G36*
X189530Y128007D02*
X189643Y127920D01*
X189761Y127844D01*
X189887Y127778D01*
X190019Y127723D01*
X190158Y127677D01*
X190303Y127643D01*
X190455Y127618D01*
X190614Y127604D01*
X190779Y127601D01*
X189221Y126042D01*
X189217Y126207D01*
X189203Y126366D01*
X189179Y126518D01*
X189144Y126664D01*
X189099Y126802D01*
X189044Y126935D01*
X188978Y127060D01*
X188901Y127179D01*
X188815Y127291D01*
X188718Y127397D01*
X189425Y128104D01*
X189530Y128007D01*
D02*
G37*
G36*
X41138Y127146D02*
X41164Y126953D01*
X41207Y126774D01*
X41267Y126608D01*
X41343Y126455D01*
X41437Y126315D01*
X41548Y126188D01*
X41676Y126074D01*
X41821Y125974D01*
X41984Y125886D01*
X39276D01*
X39439Y125974D01*
X39584Y126074D01*
X39712Y126188D01*
X39823Y126315D01*
X39917Y126455D01*
X39993Y126608D01*
X40053Y126774D01*
X40096Y126953D01*
X40121Y127146D01*
X40130Y127351D01*
X41130D01*
X41138Y127146D01*
D02*
G37*
G36*
X138306Y127402D02*
X138288Y127351D01*
X138289Y127290D01*
X138309Y127218D01*
X138348Y127134D01*
X138406Y127040D01*
X138483Y126934D01*
X138580Y126817D01*
X138830Y126550D01*
X138123Y125843D01*
X137962Y126001D01*
X137549Y126353D01*
X137436Y126430D01*
X137335Y126487D01*
X137246Y126524D01*
X137169Y126541D01*
X137104Y126537D01*
X137051Y126514D01*
X138344Y127441D01*
X138306Y127402D01*
D02*
G37*
G36*
X148798Y132990D02*
Y130500D01*
X159477D01*
Y131148D01*
X167870D01*
X168549Y130469D01*
Y125606D01*
X162779D01*
Y124226D01*
X159031D01*
X158925Y124233D01*
X158894Y124236D01*
X158864Y124281D01*
X158137Y124766D01*
X157280Y124937D01*
X150995D01*
X150138Y124766D01*
X149411Y124281D01*
X148925Y123554D01*
X148880Y123325D01*
X148380Y123374D01*
Y125221D01*
X148263Y125806D01*
X147932Y126303D01*
X147274Y126961D01*
Y132118D01*
X148336Y133181D01*
X148798Y132990D01*
D02*
G37*
G36*
X138830Y123843D02*
X138696Y123704D01*
X138483Y123460D01*
X138406Y123354D01*
X138348Y123260D01*
X138309Y123176D01*
X138289Y123104D01*
X138288Y123042D01*
X138306Y122992D01*
X138344Y122953D01*
X137051Y123880D01*
X137104Y123856D01*
X137169Y123853D01*
X137246Y123870D01*
X137335Y123907D01*
X137436Y123964D01*
X137549Y124041D01*
X137675Y124138D01*
X137962Y124393D01*
X138123Y124550D01*
X138830Y123843D01*
D02*
G37*
G36*
X183480Y123684D02*
X183366Y123802D01*
X183248Y123907D01*
X183127Y124000D01*
X183003Y124080D01*
X182876Y124148D01*
X182745Y124204D01*
X182611Y124248D01*
X182474Y124278D01*
X182333Y124297D01*
X182189Y124303D01*
X182229Y125303D01*
X182371Y125309D01*
X182512Y125327D01*
X182650Y125356D01*
X182787Y125397D01*
X182921Y125449D01*
X183054Y125514D01*
X183184Y125590D01*
X183313Y125677D01*
X183439Y125777D01*
X183564Y125888D01*
X183480Y123684D01*
D02*
G37*
G36*
X140937Y124439D02*
X141054Y124342D01*
X141172Y124257D01*
X141290Y124185D01*
X141410Y124125D01*
X141530Y124078D01*
X141651Y124042D01*
X141772Y124020D01*
X141895Y124010D01*
X142018Y124012D01*
X140570Y122683D01*
X140582Y122804D01*
X140582Y122924D01*
X140568Y123043D01*
X140542Y123160D01*
X140503Y123277D01*
X140450Y123392D01*
X140385Y123507D01*
X140307Y123620D01*
X140216Y123732D01*
X140112Y123843D01*
X140820Y124549D01*
X140937Y124439D01*
D02*
G37*
G36*
X102756Y116142D02*
X101575Y114961D01*
X86221D01*
Y98819D01*
X85039Y97638D01*
X82456D01*
X82435Y97560D01*
X82410Y97408D01*
X82395Y97236D01*
X82390Y97044D01*
X81390D01*
X81385Y97236D01*
X81370Y97408D01*
X81345Y97560D01*
X81324Y97638D01*
X77953D01*
Y123622D01*
X81961D01*
X82192Y123222D01*
X82671Y122743D01*
X83258Y122404D01*
X83913Y122228D01*
X84591D01*
X85246Y122404D01*
X85833Y122743D01*
X86312Y123222D01*
X86543Y123622D01*
X87866D01*
X88097Y123222D01*
X88577Y122743D01*
X89164Y122404D01*
X89819Y122228D01*
X90496D01*
X91151Y122404D01*
X91738Y122743D01*
X92126Y123130D01*
X92514Y122743D01*
X93101Y122404D01*
X93756Y122228D01*
X94433D01*
X95088Y122404D01*
X95675Y122743D01*
X96155Y123222D01*
X96386Y123622D01*
X102756D01*
Y116142D01*
D02*
G37*
G36*
X154903Y123365D02*
X154997Y123330D01*
X155126Y123299D01*
X155289Y123272D01*
X155721Y123230D01*
X156631Y123199D01*
X157003Y123197D01*
Y122197D01*
X156631Y122195D01*
X155126Y122095D01*
X154997Y122064D01*
X154903Y122029D01*
X154844Y121989D01*
Y123404D01*
X154903Y123365D01*
D02*
G37*
G36*
X157930Y123594D02*
X157973Y123511D01*
X158045Y123437D01*
X158146Y123373D01*
X158276Y123319D01*
X158434Y123275D01*
X158621Y123241D01*
X158837Y123216D01*
X159082Y123202D01*
X159355Y123197D01*
Y122197D01*
X159082Y122192D01*
X158621Y122153D01*
X158434Y122118D01*
X158276Y122074D01*
X158146Y122020D01*
X158045Y121957D01*
X157973Y121883D01*
X157930Y121800D01*
X157916Y121706D01*
Y123687D01*
X157930Y123594D01*
D02*
G37*
G36*
X163804Y121697D02*
X163793Y121792D01*
X163763Y121877D01*
X163712Y121952D01*
X163642Y122017D01*
X163550Y122072D01*
X163439Y122117D01*
X163308Y122152D01*
X163156Y122177D01*
X162984Y122192D01*
X162792Y122197D01*
Y123197D01*
X162984Y123202D01*
X163156Y123217D01*
X163308Y123242D01*
X163439Y123277D01*
X163550Y123322D01*
X163642Y123377D01*
X163712Y123442D01*
X163763Y123517D01*
X163793Y123602D01*
X163804Y123697D01*
Y121697D01*
D02*
G37*
G36*
X147356Y122809D02*
X147374Y122669D01*
X147405Y122531D01*
X147447Y122395D01*
X147501Y122263D01*
X147567Y122133D01*
X147646Y122005D01*
X147736Y121880D01*
X147838Y121758D01*
X147953Y121639D01*
X145748D01*
X145862Y121758D01*
X145965Y121880D01*
X146055Y122005D01*
X146133Y122133D01*
X146200Y122263D01*
X146254Y122395D01*
X146296Y122531D01*
X146326Y122669D01*
X146344Y122809D01*
X146350Y122953D01*
X147350D01*
X147356Y122809D01*
D02*
G37*
G36*
X166650Y121065D02*
X166566Y121035D01*
X166491Y120985D01*
X166427Y120916D01*
X166372Y120826D01*
X166327Y120716D01*
X166293Y120587D01*
X166268Y120437D01*
X166253Y120268D01*
X166248Y120079D01*
X165248D01*
X165243Y120268D01*
X165228Y120437D01*
X165203Y120587D01*
X165169Y120716D01*
X165124Y120826D01*
X165069Y120916D01*
X165005Y120985D01*
X164930Y121035D01*
X164846Y121065D01*
X164752Y121075D01*
X166744D01*
X166650Y121065D01*
D02*
G37*
G36*
X111080Y118189D02*
X111052Y118208D01*
X111006Y118226D01*
X110945Y118241D01*
X110866Y118254D01*
X110659Y118275D01*
X110384Y118287D01*
X110043Y118291D01*
Y120291D01*
X110222Y120292D01*
X110945Y120342D01*
X111006Y120357D01*
X111052Y120374D01*
X111080Y120394D01*
Y118189D01*
D02*
G37*
G36*
X107390Y120986D02*
X107450Y120841D01*
X107550Y120712D01*
X107690Y120600D01*
X107870Y120506D01*
X108090Y120429D01*
X108350Y120369D01*
X108650Y120326D01*
X108990Y120300D01*
X109370Y120291D01*
Y118291D01*
X108990Y118283D01*
X108650Y118257D01*
X108350Y118214D01*
X108090Y118154D01*
X107870Y118077D01*
X107690Y117982D01*
X107550Y117871D01*
X107450Y117742D01*
X107390Y117596D01*
X107370Y117433D01*
Y121149D01*
X107390Y120986D01*
D02*
G37*
G36*
X155236Y116504D02*
X155151Y116473D01*
X155076Y116423D01*
X155011Y116352D01*
X154956Y116261D01*
X154911Y116149D01*
X154876Y116018D01*
X154851Y115866D01*
X154836Y115694D01*
X154831Y115502D01*
X153831D01*
X153826Y115694D01*
X153811Y115866D01*
X153786Y116018D01*
X153751Y116149D01*
X153706Y116261D01*
X153651Y116352D01*
X153586Y116423D01*
X153511Y116473D01*
X153426Y116504D01*
X153331Y116514D01*
X155331D01*
X155236Y116504D01*
D02*
G37*
G36*
X163524Y110705D02*
X163427Y110600D01*
X163340Y110487D01*
X163264Y110369D01*
X163198Y110243D01*
X163143Y110111D01*
X163098Y109972D01*
X163063Y109827D01*
X163039Y109675D01*
X163025Y109516D01*
X163021Y109350D01*
X161462Y110909D01*
X161628Y110913D01*
X161786Y110927D01*
X161939Y110951D01*
X162084Y110986D01*
X162223Y111031D01*
X162355Y111086D01*
X162480Y111152D01*
X162599Y111229D01*
X162712Y111315D01*
X162817Y111412D01*
X163524Y110705D01*
D02*
G37*
G36*
X179627Y123722D02*
X180123Y123390D01*
X180709Y123274D01*
X182293D01*
X182295Y123274D01*
X182342Y123263D01*
X182388Y123248D01*
X182435Y123228D01*
X182485Y123201D01*
X182539Y123167D01*
X182596Y123122D01*
X182659Y123066D01*
X182748Y122975D01*
X182828Y122919D01*
X183065Y122682D01*
X183652Y122344D01*
X184307Y122168D01*
X184985D01*
X185640Y122344D01*
X186227Y122682D01*
X186706Y123162D01*
X187045Y123749D01*
X187221Y124404D01*
Y125082D01*
X187045Y125737D01*
X186937Y125923D01*
X187226Y126423D01*
X188150D01*
X188162Y126387D01*
X188178Y126319D01*
X188191Y126241D01*
X188198Y126152D01*
X188201Y126020D01*
X188221Y125933D01*
Y125687D01*
X188396Y125032D01*
X188735Y124445D01*
X189214Y123966D01*
X189801Y123627D01*
X190456Y123451D01*
X191134D01*
X191789Y123627D01*
X192376Y123966D01*
X192856Y124445D01*
X193195Y125032D01*
X193370Y125687D01*
Y126365D01*
X193195Y127020D01*
X193190Y127027D01*
X193527Y127445D01*
X195707D01*
Y108391D01*
X195207Y108107D01*
X194864Y108305D01*
X194209Y108480D01*
X193531D01*
X192876Y108305D01*
X192289Y107966D01*
X191810Y107486D01*
X191471Y106899D01*
X191295Y106245D01*
Y105567D01*
X191471Y104912D01*
X191810Y104324D01*
X191984Y104151D01*
X192032Y104075D01*
X192123Y103980D01*
X192180Y103912D01*
X192227Y103848D01*
X192263Y103788D01*
X192292Y103732D01*
X192313Y103679D01*
X192329Y103628D01*
X192340Y103577D01*
X192341Y103575D01*
Y78365D01*
X192457Y77780D01*
X192478Y77749D01*
X192307Y77111D01*
Y76433D01*
X192483Y75778D01*
X192822Y75191D01*
X193301Y74711D01*
X193888Y74372D01*
X194543Y74197D01*
X195221D01*
X195387Y74241D01*
X195646Y73793D01*
X195210Y73357D01*
X195195Y73344D01*
X194733Y73536D01*
X193701Y73672D01*
X192669Y73536D01*
X191707Y73138D01*
X190882Y72504D01*
X190248Y71679D01*
X189850Y70717D01*
X189714Y69685D01*
X189808Y68967D01*
X189335Y68734D01*
X188931Y69137D01*
Y87008D01*
X188814Y87593D01*
X188483Y88089D01*
X187420Y89152D01*
X186924Y89484D01*
X186339Y89600D01*
X184770D01*
X184623Y89820D01*
X184228Y90084D01*
X183762Y90177D01*
X183026D01*
Y90965D01*
X183762D01*
X184228Y91057D01*
X184623Y91322D01*
X184887Y91717D01*
X184980Y92183D01*
Y93959D01*
X184887Y94425D01*
X184623Y94820D01*
X184228Y95084D01*
X183762Y95177D01*
X179230D01*
X178764Y95084D01*
X178369Y94820D01*
X178136Y94797D01*
X177959Y94974D01*
X177372Y95313D01*
X176717Y95488D01*
X176197D01*
Y96542D01*
X178222D01*
X178369Y96322D01*
X178764Y96057D01*
X179230Y95965D01*
X183762D01*
X184228Y96057D01*
X184623Y96322D01*
X184887Y96717D01*
X184980Y97183D01*
Y98959D01*
X184887Y99425D01*
X184623Y99820D01*
X184228Y100084D01*
X183762Y100177D01*
X183026D01*
Y102051D01*
X184465D01*
Y103254D01*
X185390D01*
X185392Y103254D01*
X185443Y103243D01*
X185494Y103227D01*
X185547Y103205D01*
X185603Y103177D01*
X185663Y103140D01*
X185727Y103094D01*
X185795Y103036D01*
X185890Y102945D01*
X185966Y102897D01*
X186140Y102723D01*
X186727Y102384D01*
X187381Y102209D01*
X188059D01*
X188714Y102384D01*
X189301Y102723D01*
X189781Y103202D01*
X190120Y103790D01*
X190295Y104445D01*
Y105122D01*
X190120Y105777D01*
X189781Y106364D01*
X189301Y106844D01*
X188714Y107183D01*
X188059Y107358D01*
X187381D01*
X186727Y107183D01*
X186140Y106844D01*
X185966Y106670D01*
X185890Y106622D01*
X185795Y106531D01*
X185727Y106473D01*
X185663Y106427D01*
X185603Y106390D01*
X185547Y106362D01*
X185494Y106340D01*
X185443Y106324D01*
X185392Y106313D01*
X185390Y106313D01*
X184465D01*
Y107595D01*
X178528D01*
Y102051D01*
X179967D01*
Y100177D01*
X179230D01*
X178764Y100084D01*
X178369Y99820D01*
X178222Y99600D01*
X176197D01*
Y100803D01*
X170260D01*
Y95278D01*
X168667Y93685D01*
X168184Y93814D01*
X168147Y93949D01*
X167808Y94536D01*
X167634Y94710D01*
X167603Y94760D01*
X167635Y94904D01*
X167738Y95156D01*
X167829Y95259D01*
X167830Y95260D01*
X168717D01*
Y100803D01*
X162779D01*
Y99561D01*
X161263D01*
X159994Y100830D01*
Y102733D01*
X160241Y103103D01*
X160387Y103839D01*
Y106435D01*
X160887Y106819D01*
X161108Y106760D01*
X161786D01*
X162441Y106935D01*
X163028Y107274D01*
X163507Y107754D01*
X163846Y108341D01*
X164021Y108996D01*
Y109241D01*
X164041Y109329D01*
X164043Y109460D01*
X164051Y109549D01*
X164064Y109628D01*
X164080Y109696D01*
X164099Y109755D01*
X164121Y109808D01*
X164146Y109855D01*
X164175Y109899D01*
X164176Y109901D01*
X172735Y118460D01*
X173066Y118956D01*
X173183Y119542D01*
Y129513D01*
X173645Y129704D01*
X179627Y123722D01*
D02*
G37*
G36*
X90220Y106893D02*
X90342Y106791D01*
X90467Y106701D01*
X90595Y106622D01*
X90725Y106556D01*
X90857Y106502D01*
X90993Y106460D01*
X91131Y106430D01*
X91271Y106412D01*
X91415Y106405D01*
Y105405D01*
X91271Y105400D01*
X91131Y105381D01*
X90993Y105351D01*
X90857Y105309D01*
X90725Y105255D01*
X90595Y105189D01*
X90467Y105110D01*
X90342Y105020D01*
X90220Y104918D01*
X90101Y104803D01*
Y107008D01*
X90220Y106893D01*
D02*
G37*
G36*
X142231Y104512D02*
X142221Y104607D01*
X142191Y104692D01*
X142140Y104767D01*
X142069Y104832D01*
X141978Y104887D01*
X141867Y104932D01*
X141735Y104967D01*
X141584Y104992D01*
X141412Y105007D01*
X141219Y105012D01*
Y106012D01*
X141412Y106017D01*
X141584Y106032D01*
X141735Y106057D01*
X141867Y106092D01*
X141978Y106137D01*
X142069Y106192D01*
X142140Y106257D01*
X142191Y106332D01*
X142221Y106417D01*
X142231Y106512D01*
Y104512D01*
D02*
G37*
G36*
X138285Y106417D02*
X138315Y106332D01*
X138365Y106257D01*
X138435Y106192D01*
X138525Y106137D01*
X138635Y106092D01*
X138765Y106057D01*
X138915Y106032D01*
X139085Y106017D01*
X139275Y106012D01*
Y105012D01*
X139085Y105007D01*
X138915Y104992D01*
X138765Y104967D01*
X138635Y104932D01*
X138525Y104887D01*
X138435Y104832D01*
X138365Y104767D01*
X138315Y104692D01*
X138285Y104607D01*
X138275Y104512D01*
Y106512D01*
X138285Y106417D01*
D02*
G37*
G36*
X211835Y104118D02*
X211825Y104213D01*
X211794Y104298D01*
X211744Y104373D01*
X211673Y104438D01*
X211582Y104493D01*
X211471Y104538D01*
X211339Y104573D01*
X211187Y104598D01*
X211015Y104613D01*
X210823Y104618D01*
Y105618D01*
X211015Y105623D01*
X211187Y105638D01*
X211339Y105663D01*
X211471Y105698D01*
X211582Y105743D01*
X211673Y105798D01*
X211744Y105863D01*
X211794Y105938D01*
X211825Y106023D01*
X211835Y106118D01*
Y104118D01*
D02*
G37*
G36*
X208549Y106023D02*
X208579Y105938D01*
X208630Y105863D01*
X208701Y105798D01*
X208792Y105743D01*
X208903Y105698D01*
X209035Y105663D01*
X209187Y105638D01*
X209359Y105623D01*
X209551Y105618D01*
Y104618D01*
X209359Y104613D01*
X209187Y104598D01*
X209035Y104573D01*
X208903Y104538D01*
X208792Y104493D01*
X208701Y104438D01*
X208630Y104373D01*
X208579Y104298D01*
X208549Y104213D01*
X208539Y104118D01*
Y106118D01*
X208549Y106023D01*
D02*
G37*
G36*
X183451Y105688D02*
X183481Y105603D01*
X183532Y105528D01*
X183602Y105463D01*
X183694Y105408D01*
X183805Y105363D01*
X183936Y105328D01*
X184088Y105303D01*
X184260Y105288D01*
X184453Y105283D01*
Y104283D01*
X184260Y104278D01*
X184088Y104263D01*
X183936Y104238D01*
X183805Y104203D01*
X183694Y104158D01*
X183602Y104103D01*
X183532Y104038D01*
X183481Y103963D01*
X183451Y103878D01*
X183441Y103783D01*
Y105783D01*
X183451Y105688D01*
D02*
G37*
G36*
X186596Y103681D02*
X186476Y103796D01*
X186354Y103898D01*
X186230Y103988D01*
X186102Y104067D01*
X185972Y104133D01*
X185840Y104187D01*
X185704Y104229D01*
X185566Y104259D01*
X185426Y104277D01*
X185282Y104283D01*
Y105283D01*
X185426Y105289D01*
X185566Y105307D01*
X185704Y105338D01*
X185840Y105380D01*
X185972Y105434D01*
X186102Y105500D01*
X186230Y105579D01*
X186354Y105669D01*
X186476Y105771D01*
X186596Y105886D01*
Y103681D01*
D02*
G37*
G36*
X194858Y104662D02*
X194756Y104539D01*
X194665Y104415D01*
X194587Y104287D01*
X194521Y104157D01*
X194466Y104025D01*
X194424Y103889D01*
X194394Y103751D01*
X194376Y103611D01*
X194370Y103467D01*
X193370D01*
X193364Y103611D01*
X193346Y103751D01*
X193316Y103889D01*
X193274Y104025D01*
X193219Y104157D01*
X193153Y104287D01*
X193075Y104415D01*
X192985Y104539D01*
X192882Y104662D01*
X192768Y104781D01*
X194973D01*
X194858Y104662D01*
D02*
G37*
G36*
X121556Y96556D02*
X122053Y96225D01*
X122638Y96108D01*
X150278D01*
X152807Y93579D01*
X152658Y93022D01*
X152550Y92993D01*
X151962Y92654D01*
X151483Y92174D01*
X151144Y91587D01*
X150969Y90932D01*
Y90254D01*
X151144Y89599D01*
X151483Y89012D01*
X151962Y88533D01*
X152550Y88194D01*
X153204Y88018D01*
X153344D01*
X153400Y88003D01*
X153536Y87993D01*
X153632Y87980D01*
X153718Y87963D01*
X153794Y87942D01*
X153861Y87918D01*
X153920Y87892D01*
X153973Y87863D01*
X154022Y87831D01*
X154024Y87829D01*
X155241Y86612D01*
X155079Y86067D01*
X154626Y85764D01*
X154082Y86127D01*
X153347Y86273D01*
X152611Y86127D01*
X152067Y85764D01*
X151523Y86127D01*
X150787Y86273D01*
X150052Y86127D01*
X149508Y85764D01*
X148964Y86127D01*
X148228Y86273D01*
X147493Y86127D01*
X146949Y85764D01*
X146405Y86127D01*
X145669Y86273D01*
X144933Y86127D01*
X144310Y85710D01*
X143893Y85086D01*
X143746Y84350D01*
Y80610D01*
X143893Y79874D01*
X144310Y79251D01*
X144933Y78834D01*
X145669Y78688D01*
X146405Y78834D01*
X146949Y79197D01*
X147493Y78834D01*
X148228Y78688D01*
X148964Y78834D01*
X149508Y79197D01*
X150052Y78834D01*
X150787Y78688D01*
X151317Y78793D01*
X151817Y78475D01*
Y71457D01*
X151934Y70871D01*
X152265Y70375D01*
X154745Y67895D01*
X155242Y67563D01*
X155827Y67447D01*
X156339D01*
X156446Y67441D01*
X156476Y67437D01*
X156498Y67404D01*
X157220Y66922D01*
X158071Y66752D01*
X164764D01*
X165615Y66922D01*
X165746Y67010D01*
X166187Y66774D01*
Y66179D01*
X165746Y65943D01*
X165615Y66031D01*
X164764Y66200D01*
X158071D01*
X157220Y66031D01*
X156498Y65549D01*
X156016Y64827D01*
X155847Y63976D01*
X156016Y63125D01*
X156498Y62404D01*
X157220Y61922D01*
X158071Y61752D01*
X164764D01*
X165615Y61922D01*
X166336Y62404D01*
X166358Y62436D01*
X166482Y62447D01*
X166732D01*
X167318Y62563D01*
X167814Y62895D01*
X168798Y63879D01*
X169130Y64375D01*
X169246Y64961D01*
Y71653D01*
X169130Y72239D01*
X168798Y72735D01*
X167617Y73916D01*
X167121Y74248D01*
X166535Y74364D01*
X158901D01*
X157435Y75830D01*
Y78475D01*
X157935Y78793D01*
X158465Y78688D01*
X159200Y78834D01*
X159824Y79251D01*
X160241Y79874D01*
X160387Y80610D01*
Y84350D01*
X160241Y85086D01*
X160059Y85359D01*
X160100Y85579D01*
X160418Y85723D01*
X160643Y85762D01*
X161083Y85468D01*
X161669Y85351D01*
X164890D01*
X175617Y74624D01*
X175619Y74622D01*
X175647Y74578D01*
X175672Y74531D01*
X175694Y74478D01*
X175713Y74419D01*
X175729Y74351D01*
X175742Y74273D01*
X175750Y74183D01*
X175752Y74052D01*
X175772Y73965D01*
Y73719D01*
X175947Y73064D01*
X176286Y72477D01*
X176766Y71997D01*
X177353Y71658D01*
X178007Y71483D01*
X178685D01*
X179340Y71658D01*
X179467Y71731D01*
X179967Y71443D01*
Y71413D01*
X180083Y70827D01*
X180415Y70331D01*
X183572Y67174D01*
X183422Y66616D01*
X183258Y66573D01*
X182671Y66234D01*
X182493Y66056D01*
X181997Y66121D01*
X181982Y66148D01*
X181502Y66627D01*
X180915Y66966D01*
X180260Y67142D01*
X179582D01*
X178927Y66966D01*
X178340Y66627D01*
X178090Y66377D01*
X177731Y66218D01*
X177420Y66384D01*
X177151Y66652D01*
X176564Y66991D01*
X175909Y67167D01*
X175231D01*
X174576Y66991D01*
X173989Y66652D01*
X173510Y66173D01*
X173171Y65586D01*
X172995Y64931D01*
Y64253D01*
X173171Y63598D01*
X173510Y63011D01*
X173989Y62532D01*
X174576Y62193D01*
X175231Y62017D01*
X175909D01*
X176564Y62193D01*
X177151Y62532D01*
X177296Y62677D01*
X177751Y62592D01*
X177821Y62553D01*
X177856Y62332D01*
X173290Y57766D01*
X173255Y57745D01*
X173220Y57727D01*
X173182Y57713D01*
X173138Y57702D01*
X173087Y57693D01*
X173026Y57688D01*
X172954Y57689D01*
X172907Y57692D01*
X172905Y57693D01*
X172900D01*
X172833Y57698D01*
X172785Y57693D01*
X172227D01*
X171573Y57517D01*
X170985Y57178D01*
X170506Y56699D01*
X170167Y56112D01*
X169992Y55457D01*
Y54779D01*
X170167Y54124D01*
X170506Y53537D01*
X170985Y53058D01*
X171573Y52719D01*
X172227Y52543D01*
X172905D01*
X173560Y52719D01*
X174147Y53058D01*
X174627Y53537D01*
X174966Y54124D01*
X175141Y54779D01*
Y54827D01*
X175146Y54840D01*
X175163Y54980D01*
X175182Y55083D01*
X175204Y55175D01*
X175230Y55258D01*
X175259Y55331D01*
X175289Y55397D01*
X175322Y55455D01*
X175357Y55508D01*
X175360Y55511D01*
X180428Y60579D01*
X180890Y60387D01*
Y54080D01*
X180883Y54048D01*
X180890Y54006D01*
Y53559D01*
X180851Y53362D01*
Y53162D01*
X180740Y53004D01*
X180229Y52404D01*
X176511Y48686D01*
X176069Y48024D01*
X175914Y47244D01*
Y44939D01*
X174336Y43362D01*
X173213D01*
X173016Y43323D01*
X169472D01*
Y41116D01*
X169444Y41105D01*
X169292Y41064D01*
X169079Y41029D01*
X168930Y41016D01*
X166369D01*
X165872Y41030D01*
X165531Y41058D01*
X165441Y41071D01*
X165408Y41077D01*
X165376Y41087D01*
X165273Y41099D01*
X164764Y41200D01*
X158071D01*
X157220Y41031D01*
X156498Y40549D01*
X156016Y39827D01*
X155847Y38976D01*
X156016Y38125D01*
X156498Y37404D01*
X157220Y36922D01*
X158071Y36753D01*
X164764D01*
X165242Y36848D01*
X166730Y36937D01*
X168977D01*
X169472Y36925D01*
Y36163D01*
X169315Y36127D01*
X169093Y36094D01*
X168968Y36085D01*
X165886D01*
X165539Y36090D01*
X165312Y36105D01*
X165256Y36113D01*
X165216Y36110D01*
X164764Y36200D01*
X158071D01*
X157220Y36031D01*
X156498Y35549D01*
X156016Y34827D01*
X155847Y33976D01*
X156016Y33125D01*
X156498Y32404D01*
X157220Y31922D01*
X158071Y31753D01*
X164764D01*
X165615Y31922D01*
X165653Y31947D01*
X167035Y32006D01*
X169007D01*
X169131Y32002D01*
X169361Y31977D01*
X169472Y31958D01*
Y31382D01*
X170446D01*
X170484Y31374D01*
X170523Y31382D01*
X175409D01*
Y33867D01*
X175424Y33892D01*
X175598Y34142D01*
X176089Y34721D01*
X179880Y38512D01*
X180349D01*
X180498Y38499D01*
X180712Y38463D01*
X180864Y38423D01*
X180890Y38412D01*
X180890Y34827D01*
X180434Y34721D01*
X177799D01*
Y26697D01*
X185823D01*
Y34327D01*
X185823Y34721D01*
X186279Y34827D01*
X189809D01*
Y29059D01*
X184052Y23302D01*
X183974Y23251D01*
X183850Y23190D01*
X183684Y23128D01*
X183476Y23070D01*
X183227Y23019D01*
X182950Y22979D01*
X182239Y22932D01*
X181834Y22929D01*
X181740Y22909D01*
X181283D01*
X180262Y22636D01*
X179348Y22108D01*
X178601Y21361D01*
X178073Y20446D01*
X177799Y19426D01*
Y18969D01*
X177780Y18875D01*
X177777Y18470D01*
X177729Y17758D01*
X177690Y17482D01*
X177639Y17233D01*
X177581Y17025D01*
X177519Y16859D01*
X177458Y16735D01*
X177407Y16656D01*
X177241Y16490D01*
X174136D01*
X174117Y16491D01*
X173925Y16954D01*
X173292Y17780D01*
X172466Y18413D01*
X171504Y18812D01*
X170472Y18947D01*
X169441Y18812D01*
X168479Y18413D01*
X167653Y17780D01*
X167020Y16954D01*
X166621Y15992D01*
X166486Y14961D01*
X166621Y13929D01*
X167020Y12967D01*
X167653Y12141D01*
X168479Y11508D01*
X169441Y11110D01*
X170472Y10974D01*
X171504Y11110D01*
X172466Y11508D01*
X173292Y12141D01*
X173925Y12967D01*
X174117Y13430D01*
X174136Y13431D01*
X177874D01*
X178459Y13548D01*
X178955Y13879D01*
X179570Y14493D01*
X179648Y14544D01*
X179772Y14605D01*
X179939Y14668D01*
X180146Y14726D01*
X180395Y14776D01*
X180672Y14816D01*
X181384Y14863D01*
X181788Y14866D01*
X181882Y14886D01*
X182339D01*
X183360Y15159D01*
X184274Y15687D01*
X185021Y16434D01*
X185549Y17349D01*
X185823Y18370D01*
Y18826D01*
X185842Y18920D01*
X185845Y19325D01*
X185893Y20037D01*
X185932Y20314D01*
X185983Y20562D01*
X186041Y20770D01*
X186103Y20936D01*
X186164Y21061D01*
X186215Y21139D01*
X191613Y26537D01*
X192074Y26291D01*
X191913Y25483D01*
Y24123D01*
X192179Y22789D01*
X192699Y21532D01*
X193455Y20401D01*
X194417Y19439D01*
X195548Y18684D01*
X196805Y18163D01*
X198139Y17898D01*
X199499D01*
X200833Y18163D01*
X202090Y18684D01*
X203221Y19439D01*
X204183Y20401D01*
X204939Y21532D01*
X205459Y22789D01*
X205724Y24123D01*
Y25483D01*
X205459Y26817D01*
X204939Y28074D01*
X204183Y29205D01*
X203221Y30167D01*
X202090Y30923D01*
X200833Y31443D01*
X199499Y31709D01*
X198139D01*
X196805Y31443D01*
X195548Y30923D01*
X194417Y30167D01*
X193455Y29205D01*
X193368Y29075D01*
X192868Y29226D01*
Y33904D01*
X193587D01*
Y32563D01*
X198933D01*
Y38303D01*
X197199D01*
Y57239D01*
X197082Y57825D01*
X196751Y58321D01*
X193283Y61788D01*
X193475Y62250D01*
X196850D01*
X197436Y62367D01*
X197932Y62698D01*
X202853Y67619D01*
X203185Y68116D01*
X203301Y68701D01*
Y73114D01*
X204785D01*
X204806Y73099D01*
X204912Y73005D01*
X204948Y72963D01*
X204981Y72908D01*
X205051Y72725D01*
X205075Y72614D01*
X205049Y72572D01*
X205003Y72508D01*
X204946Y72440D01*
X204854Y72345D01*
X204806Y72269D01*
X204633Y72095D01*
X204294Y71508D01*
X204118Y70853D01*
Y70175D01*
X204294Y69521D01*
X204633Y68933D01*
X205112Y68454D01*
X205699Y68115D01*
X206354Y67940D01*
X207032D01*
X207687Y68115D01*
X208274Y68454D01*
X208753Y68933D01*
X209092Y69521D01*
X209268Y70175D01*
Y70853D01*
X209092Y71508D01*
X208753Y72095D01*
X208579Y72269D01*
X208531Y72345D01*
X208440Y72440D01*
X208383Y72508D01*
X208336Y72572D01*
X208311Y72614D01*
X208335Y72725D01*
X208405Y72908D01*
X208438Y72963D01*
X208474Y73005D01*
X208580Y73099D01*
X208601Y73114D01*
X209563D01*
Y74455D01*
X210811D01*
Y73311D01*
X216748D01*
X216748Y73311D01*
X217218Y73240D01*
X217423Y72934D01*
X217917Y72440D01*
X218943Y71414D01*
Y69344D01*
X218443Y69245D01*
X218413Y69316D01*
X217780Y70142D01*
X216954Y70776D01*
X215992Y71174D01*
X214961Y71310D01*
X213929Y71174D01*
X212967Y70776D01*
X212141Y70142D01*
X211508Y69316D01*
X211110Y68355D01*
X210974Y67323D01*
X211110Y66291D01*
X211508Y65329D01*
X212141Y64504D01*
X212967Y63870D01*
X213929Y63472D01*
X214961Y63336D01*
X215992Y63472D01*
X216954Y63870D01*
X217780Y64504D01*
X218413Y65329D01*
X218443Y65401D01*
X218943Y65302D01*
Y64385D01*
X216635Y62077D01*
X216304Y61581D01*
X216187Y60996D01*
Y52318D01*
X216187Y52315D01*
X216175Y52262D01*
X216159Y52208D01*
X216137Y52153D01*
X216108Y52094D01*
X216070Y52031D01*
X216023Y51964D01*
X215965Y51892D01*
X215874Y51794D01*
X215832Y51726D01*
X215688Y51581D01*
X215349Y50994D01*
X215173Y50339D01*
Y49661D01*
X215349Y49006D01*
X215688Y48419D01*
X216167Y47940D01*
X216754Y47601D01*
X217409Y47425D01*
X218087D01*
X218742Y47601D01*
X219329Y47940D01*
X219808Y48419D01*
X220147Y49006D01*
X220634Y48891D01*
X220521Y1529D01*
X168110D01*
X168047Y1517D01*
X167983Y1524D01*
X167757Y1459D01*
X167525Y1413D01*
X167472Y1377D01*
X167410Y1360D01*
X167225Y1213D01*
X167029Y1081D01*
X166993Y1028D01*
X166943Y988D01*
X166828Y782D01*
X166697Y585D01*
X166685Y522D01*
X166654Y466D01*
X157545Y-27998D01*
X146207D01*
X145957Y-27565D01*
X146025Y-27447D01*
X146201Y-26792D01*
Y-26114D01*
X146025Y-25459D01*
X145686Y-24872D01*
X145207Y-24392D01*
X144620Y-24053D01*
X143965Y-23878D01*
X143287D01*
X142632Y-24053D01*
X142045Y-24392D01*
X141566Y-24872D01*
X141227Y-25459D01*
X141051Y-26114D01*
Y-26792D01*
X141227Y-27447D01*
X141295Y-27565D01*
X141045Y-27998D01*
X64123D01*
X55399Y448D01*
X55364Y513D01*
X55350Y585D01*
X55224Y774D01*
X55116Y974D01*
X55059Y1020D01*
X55018Y1081D01*
X54830Y1208D01*
X54654Y1351D01*
X54583Y1372D01*
X54522Y1413D01*
X54300Y1457D01*
X54082Y1522D01*
X54009Y1515D01*
X53937Y1529D01*
X1529D01*
Y58494D01*
X1657Y58941D01*
X7004D01*
Y64681D01*
X5860D01*
Y65929D01*
X12614D01*
Y67551D01*
X13114Y67650D01*
X13610Y67982D01*
X19881Y74253D01*
X20402Y74067D01*
X20442Y73775D01*
X20440Y73771D01*
X20404Y73711D01*
X20357Y73647D01*
X20300Y73579D01*
X20209Y73484D01*
X20161Y73408D01*
X19987Y73234D01*
X19648Y72647D01*
X19472Y71992D01*
Y71315D01*
X19648Y70660D01*
X19987Y70073D01*
X20233Y69826D01*
X20411Y69488D01*
X20233Y69150D01*
X19987Y68904D01*
X19648Y68317D01*
X19472Y67662D01*
Y66984D01*
X19648Y66329D01*
X19987Y65742D01*
X20161Y65568D01*
X20209Y65493D01*
X20300Y65398D01*
X20357Y65329D01*
X20404Y65265D01*
X20440Y65205D01*
X20469Y65150D01*
X20491Y65097D01*
X20506Y65046D01*
X20517Y64995D01*
X20518Y64992D01*
Y54489D01*
X20634Y53903D01*
X20966Y53407D01*
X26224Y48149D01*
X26720Y47817D01*
X27306Y47701D01*
X27891D01*
X27912Y47695D01*
X27929Y47689D01*
X27942Y47682D01*
X27954Y47674D01*
X27971Y47660D01*
X27992Y47637D01*
X28020Y47600D01*
X28075Y47512D01*
X28132Y47450D01*
X28255Y47238D01*
X28734Y46759D01*
X29321Y46420D01*
X29976Y46244D01*
X30654D01*
X31309Y46420D01*
X31896Y46759D01*
X32339Y47201D01*
X32501Y47185D01*
X32839Y47041D01*
Y42520D01*
X32916Y42129D01*
X33137Y41799D01*
X33468Y41578D01*
X33858Y41500D01*
X39256D01*
X39354Y41520D01*
X39859D01*
X40020Y41373D01*
X40170Y41282D01*
X40317Y41184D01*
X40340Y41179D01*
X40360Y41167D01*
X40534Y41141D01*
X40707Y41106D01*
X55905D01*
X56296Y41184D01*
X56626Y41405D01*
X56848Y41736D01*
X56925Y42126D01*
Y55458D01*
X64621Y63154D01*
X70079Y63154D01*
X70469Y63231D01*
X70800Y63452D01*
X71021Y63783D01*
X71098Y64173D01*
Y72047D01*
X71021Y72437D01*
X70800Y72768D01*
X70469Y72989D01*
X70079Y73067D01*
X60630D01*
X60240Y72989D01*
X59909Y72768D01*
X59688Y72437D01*
X59610Y72047D01*
Y65777D01*
X55483Y61650D01*
X42865D01*
X42638Y61695D01*
X40866D01*
X40639Y61650D01*
X40390D01*
X39999Y61572D01*
X39880Y61492D01*
X39760Y61572D01*
X39370Y61650D01*
X37865D01*
X37638Y61695D01*
X35866D01*
X35639Y61650D01*
X34168D01*
X34119Y61640D01*
X34069Y61645D01*
X33925Y61601D01*
X33778Y61572D01*
X33736Y61544D01*
X33688Y61529D01*
X33572Y61434D01*
X33477Y61371D01*
X33143Y61594D01*
X32638Y61695D01*
X30866D01*
X30361Y61594D01*
X29932Y61308D01*
X29646Y60879D01*
X29546Y60374D01*
Y53209D01*
X29646Y52703D01*
X29932Y52275D01*
X30278Y52044D01*
X30267Y51569D01*
X30102Y51482D01*
X30026Y51449D01*
X29779Y51363D01*
X29643Y51325D01*
X29559Y51282D01*
X29321Y51218D01*
X29108Y51095D01*
X29018Y51066D01*
X28885Y50991D01*
X28785Y50940D01*
X28558Y50844D01*
X28476Y50816D01*
X28387Y50791D01*
X28305Y50772D01*
X28227Y50760D01*
X28226Y50760D01*
X27939D01*
X23577Y55122D01*
Y64992D01*
X23577Y64995D01*
X23588Y65046D01*
X23604Y65097D01*
X23626Y65150D01*
X23654Y65205D01*
X23691Y65265D01*
X23737Y65329D01*
X23795Y65398D01*
X23886Y65493D01*
X23934Y65568D01*
X24108Y65742D01*
X24447Y66329D01*
X24622Y66984D01*
Y67662D01*
X24447Y68317D01*
X24108Y68904D01*
X23861Y69150D01*
X23683Y69488D01*
X23861Y69826D01*
X24108Y70073D01*
X24447Y70660D01*
X24622Y71315D01*
Y71396D01*
X25122Y71636D01*
X25361Y71477D01*
X25866Y71376D01*
X27638D01*
X28143Y71477D01*
X28572Y71763D01*
X28858Y72192D01*
X28958Y72697D01*
Y79789D01*
X29063Y79862D01*
X29076D01*
X29546Y79405D01*
Y72697D01*
X29646Y72192D01*
X29932Y71763D01*
X30361Y71477D01*
X30866Y71376D01*
X32638D01*
X33143Y71477D01*
X33572Y71763D01*
X33858Y72192D01*
X33958Y72697D01*
Y79862D01*
X33858Y80368D01*
X33572Y80796D01*
X33281Y80990D01*
Y81103D01*
X33165Y81688D01*
X33071Y81829D01*
X33338Y82329D01*
X34800D01*
X35223Y81906D01*
Y80990D01*
X34932Y80796D01*
X34646Y80368D01*
X34545Y79862D01*
Y72697D01*
X34646Y72192D01*
X34932Y71763D01*
X35361Y71477D01*
X35866Y71376D01*
X37638D01*
X38143Y71477D01*
X38381Y71636D01*
X38586Y71499D01*
X38976Y71421D01*
X40639D01*
X40866Y71376D01*
X42638D01*
X42865Y71421D01*
X44882D01*
X45272Y71499D01*
X45603Y71720D01*
X46390Y72507D01*
X46611Y72838D01*
X46689Y73228D01*
Y74544D01*
X47017Y74872D01*
X47356Y75459D01*
X47532Y76114D01*
Y76792D01*
X47356Y77447D01*
X47017Y78034D01*
X46689Y78362D01*
Y91732D01*
X46611Y92123D01*
X46531Y92242D01*
X46611Y92362D01*
X46689Y92752D01*
Y99578D01*
X48932Y101821D01*
X49394Y101629D01*
Y98803D01*
X50833D01*
Y95276D01*
X50949Y94690D01*
X51281Y94194D01*
X57580Y87895D01*
X58076Y87563D01*
X58661Y87447D01*
X74410D01*
X74995Y87563D01*
X75491Y87895D01*
X82971Y95375D01*
X83303Y95871D01*
X83419Y96457D01*
Y96618D01*
X85039D01*
X85430Y96696D01*
X85760Y96917D01*
X86941Y98098D01*
X87163Y98429D01*
X87240Y98819D01*
Y103358D01*
X87740Y103646D01*
X87982Y103506D01*
X88637Y103331D01*
X89315D01*
X89970Y103506D01*
X90557Y103845D01*
X90731Y104019D01*
X90807Y104067D01*
X90902Y104158D01*
X90970Y104216D01*
X91034Y104262D01*
X91094Y104299D01*
X91150Y104327D01*
X91202Y104349D01*
X91254Y104365D01*
X91305Y104376D01*
X91307Y104376D01*
X113737D01*
X121556Y96556D01*
D02*
G37*
G36*
X207795Y103262D02*
X207710Y103232D01*
X207635Y103181D01*
X207570Y103110D01*
X207515Y103019D01*
X207470Y102908D01*
X207435Y102776D01*
X207410Y102624D01*
X207395Y102452D01*
X207390Y102260D01*
X206390D01*
X206385Y102452D01*
X206370Y102624D01*
X206345Y102776D01*
X206310Y102908D01*
X206265Y103019D01*
X206210Y103110D01*
X206145Y103181D01*
X206070Y103232D01*
X205985Y103262D01*
X205890Y103272D01*
X207890D01*
X207795Y103262D01*
D02*
G37*
G36*
X203070D02*
X202985Y103232D01*
X202910Y103181D01*
X202845Y103110D01*
X202790Y103019D01*
X202745Y102908D01*
X202710Y102776D01*
X202685Y102624D01*
X202670Y102452D01*
X202665Y102260D01*
X201665D01*
X201660Y102452D01*
X201645Y102624D01*
X201620Y102776D01*
X201585Y102908D01*
X201540Y103019D01*
X201485Y103110D01*
X201420Y103181D01*
X201345Y103232D01*
X201260Y103262D01*
X201165Y103272D01*
X203165D01*
X203070Y103262D01*
D02*
G37*
G36*
X182401Y103053D02*
X182316Y103023D01*
X182241Y102973D01*
X182176Y102903D01*
X182121Y102813D01*
X182076Y102703D01*
X182041Y102573D01*
X182016Y102423D01*
X182001Y102253D01*
X181996Y102063D01*
X180996D01*
X180991Y102253D01*
X180976Y102423D01*
X180951Y102573D01*
X180916Y102703D01*
X180871Y102813D01*
X180816Y102903D01*
X180751Y102973D01*
X180676Y103023D01*
X180591Y103053D01*
X180496Y103063D01*
X182496D01*
X182401Y103053D01*
D02*
G37*
G36*
X137519Y103557D02*
X137434Y103527D01*
X137359Y103476D01*
X137294Y103405D01*
X137239Y103314D01*
X137194Y103203D01*
X137159Y103071D01*
X137138Y102943D01*
X137138Y102942D01*
X137168Y102804D01*
X137211Y102668D01*
X137265Y102536D01*
X137331Y102406D01*
X137409Y102278D01*
X137500Y102154D01*
X137602Y102031D01*
X137716Y101912D01*
X135512D01*
X135626Y102031D01*
X135729Y102154D01*
X135819Y102278D01*
X135897Y102406D01*
X135964Y102536D01*
X136018Y102668D01*
X136060Y102804D01*
X136090Y102942D01*
X136090Y102943D01*
X136069Y103071D01*
X136034Y103203D01*
X135989Y103314D01*
X135934Y103405D01*
X135869Y103476D01*
X135794Y103527D01*
X135709Y103557D01*
X135614Y103567D01*
X137614D01*
X137519Y103557D01*
D02*
G37*
G36*
X202670Y99964D02*
X202685Y99792D01*
X202710Y99641D01*
X202745Y99509D01*
X202790Y99398D01*
X202845Y99306D01*
X202910Y99236D01*
X202985Y99185D01*
X203070Y99155D01*
X203165Y99145D01*
X201165D01*
X201260Y99155D01*
X201345Y99185D01*
X201420Y99236D01*
X201485Y99306D01*
X201540Y99398D01*
X201585Y99509D01*
X201620Y99641D01*
X201645Y99792D01*
X201660Y99964D01*
X201665Y100157D01*
X202665D01*
X202670Y99964D01*
D02*
G37*
G36*
X182001D02*
X182016Y99792D01*
X182041Y99641D01*
X182076Y99509D01*
X182121Y99398D01*
X182176Y99306D01*
X182241Y99236D01*
X182316Y99185D01*
X182401Y99155D01*
X182496Y99145D01*
X180496D01*
X180591Y99155D01*
X180676Y99185D01*
X180751Y99236D01*
X180816Y99306D01*
X180871Y99398D01*
X180916Y99509D01*
X180951Y99641D01*
X180976Y99792D01*
X180991Y99964D01*
X180996Y100157D01*
X181996D01*
X182001Y99964D01*
D02*
G37*
G36*
X61929Y99805D02*
X61844Y99775D01*
X61769Y99725D01*
X61704Y99655D01*
X61649Y99565D01*
X61604Y99455D01*
X61569Y99325D01*
X61544Y99175D01*
X61529Y99005D01*
X61524Y98815D01*
X60524D01*
X60519Y99005D01*
X60504Y99175D01*
X60479Y99325D01*
X60444Y99455D01*
X60399Y99565D01*
X60344Y99655D01*
X60279Y99725D01*
X60204Y99775D01*
X60119Y99805D01*
X60024Y99815D01*
X62024D01*
X61929Y99805D01*
D02*
G37*
G36*
X53267D02*
X53182Y99775D01*
X53107Y99725D01*
X53042Y99655D01*
X52987Y99565D01*
X52942Y99455D01*
X52907Y99325D01*
X52882Y99175D01*
X52867Y99005D01*
X52862Y98815D01*
X51862D01*
X51857Y99005D01*
X51842Y99175D01*
X51817Y99325D01*
X51782Y99455D01*
X51737Y99565D01*
X51682Y99655D01*
X51617Y99725D01*
X51542Y99775D01*
X51457Y99805D01*
X51362Y99815D01*
X53362D01*
X53267Y99805D01*
D02*
G37*
G36*
X179090Y97075D02*
X179079Y97170D01*
X179048Y97254D01*
X178995Y97328D01*
X178921Y97392D01*
X178825Y97447D01*
X178709Y97492D01*
X178572Y97526D01*
X178413Y97551D01*
X178233Y97566D01*
X178032Y97571D01*
Y98571D01*
X178233Y98576D01*
X178413Y98591D01*
X178572Y98615D01*
X178709Y98650D01*
X178825Y98695D01*
X178921Y98749D01*
X178995Y98814D01*
X179048Y98888D01*
X179079Y98972D01*
X179090Y99066D01*
Y97075D01*
D02*
G37*
G36*
X175183Y98976D02*
X175213Y98891D01*
X175264Y98816D01*
X175335Y98751D01*
X175426Y98696D01*
X175537Y98651D01*
X175669Y98616D01*
X175821Y98591D01*
X175993Y98576D01*
X176185Y98571D01*
Y97571D01*
X175993Y97566D01*
X175821Y97551D01*
X175669Y97526D01*
X175537Y97491D01*
X175426Y97446D01*
X175335Y97391D01*
X175264Y97326D01*
X175213Y97251D01*
X175183Y97166D01*
X175173Y97071D01*
Y99071D01*
X175183Y98976D01*
D02*
G37*
G36*
X163804Y97031D02*
X163793Y97127D01*
X163763Y97211D01*
X163712Y97286D01*
X163642Y97351D01*
X163550Y97407D01*
X163439Y97452D01*
X163308Y97487D01*
X163156Y97512D01*
X162984Y97527D01*
X162792Y97531D01*
Y98532D01*
X162984Y98536D01*
X163156Y98551D01*
X163308Y98576D01*
X163439Y98611D01*
X163550Y98656D01*
X163642Y98712D01*
X163712Y98777D01*
X163763Y98852D01*
X163793Y98936D01*
X163804Y99032D01*
Y97031D01*
D02*
G37*
G36*
X203070Y96987D02*
X202985Y96957D01*
X202910Y96906D01*
X202845Y96835D01*
X202790Y96744D01*
X202745Y96633D01*
X202710Y96501D01*
X202685Y96350D01*
X202670Y96177D01*
X202665Y95985D01*
X201665D01*
X201660Y96177D01*
X201645Y96350D01*
X201620Y96501D01*
X201585Y96633D01*
X201540Y96744D01*
X201485Y96835D01*
X201420Y96906D01*
X201345Y96957D01*
X201260Y96987D01*
X201165Y96997D01*
X203165D01*
X203070Y96987D01*
D02*
G37*
G36*
X61529Y96071D02*
X61544Y95899D01*
X61569Y95748D01*
X61604Y95616D01*
X61649Y95505D01*
X61704Y95414D01*
X61769Y95343D01*
X61844Y95292D01*
X61929Y95262D01*
X62024Y95252D01*
X60024D01*
X60119Y95262D01*
X60204Y95292D01*
X60279Y95343D01*
X60344Y95414D01*
X60399Y95505D01*
X60444Y95616D01*
X60479Y95748D01*
X60504Y95899D01*
X60519Y96071D01*
X60524Y96264D01*
X61524D01*
X61529Y96071D01*
D02*
G37*
G36*
X202670Y94964D02*
X202685Y94792D01*
X202710Y94640D01*
X202745Y94509D01*
X202790Y94398D01*
X202845Y94306D01*
X202910Y94236D01*
X202985Y94185D01*
X203070Y94155D01*
X203165Y94145D01*
X201165D01*
X201260Y94155D01*
X201345Y94185D01*
X201420Y94236D01*
X201485Y94306D01*
X201540Y94398D01*
X201585Y94509D01*
X201620Y94640D01*
X201645Y94792D01*
X201660Y94964D01*
X201665Y95157D01*
X202665D01*
X202670Y94964D01*
D02*
G37*
G36*
X166653Y96262D02*
X166568Y96232D01*
X166493Y96182D01*
X166428Y96112D01*
X166373Y96022D01*
X166328Y95912D01*
X166293Y95782D01*
X166268Y95632D01*
X166253Y95462D01*
X166250Y95347D01*
X166254Y95250D01*
X166272Y95110D01*
X166302Y94972D01*
X166344Y94836D01*
X166399Y94704D01*
X166465Y94574D01*
X166543Y94446D01*
X166633Y94322D01*
X166736Y94199D01*
X166850Y94080D01*
X164646D01*
X164760Y94199D01*
X164863Y94322D01*
X164953Y94446D01*
X165031Y94574D01*
X165097Y94704D01*
X165152Y94836D01*
X165194Y94972D01*
X165224Y95110D01*
X165242Y95250D01*
X165246Y95347D01*
X165243Y95462D01*
X165228Y95632D01*
X165203Y95782D01*
X165168Y95912D01*
X165123Y96022D01*
X165068Y96112D01*
X165003Y96182D01*
X164928Y96232D01*
X164843Y96262D01*
X164748Y96272D01*
X166748D01*
X166653Y96262D01*
D02*
G37*
G36*
X175172Y94745D02*
X175271Y94661D01*
X175367Y94590D01*
X175460Y94530D01*
X175550Y94483D01*
X175638Y94448D01*
X175724Y94426D01*
X175806Y94416D01*
X175886Y94418D01*
X175963Y94433D01*
X174831Y93210D01*
X174840Y93288D01*
X174836Y93370D01*
X174820Y93454D01*
X174792Y93542D01*
X174751Y93633D01*
X174698Y93727D01*
X174633Y93824D01*
X174556Y93924D01*
X174466Y94028D01*
X174364Y94135D01*
X175071Y94842D01*
X175172Y94745D01*
D02*
G37*
G36*
X54724Y103559D02*
X49394D01*
Y103543D01*
X49213D01*
X45669Y100000D01*
Y92752D01*
X41457D01*
Y97307D01*
X41493Y97362D01*
X41571Y97752D01*
Y101575D01*
X41493Y101965D01*
X41272Y102296D01*
X41175Y102393D01*
X41160Y103364D01*
X48031Y110236D01*
X54724D01*
Y103559D01*
D02*
G37*
G36*
X182401Y91987D02*
X182316Y91957D01*
X182241Y91906D01*
X182176Y91835D01*
X182121Y91744D01*
X182076Y91633D01*
X182041Y91501D01*
X182016Y91350D01*
X182001Y91177D01*
X181996Y90985D01*
X180996D01*
X180991Y91177D01*
X180976Y91350D01*
X180951Y91501D01*
X180916Y91633D01*
X180871Y91744D01*
X180816Y91835D01*
X180751Y91906D01*
X180676Y91957D01*
X180591Y91987D01*
X180496Y91997D01*
X182496D01*
X182401Y91987D01*
D02*
G37*
G36*
X216974Y83225D02*
Y79260D01*
X216748Y78854D01*
X210811D01*
Y77514D01*
X209563D01*
Y78854D01*
X199561D01*
Y85687D01*
X199900Y85965D01*
X204431D01*
X204897Y86058D01*
X205293Y86322D01*
X205557Y86717D01*
X205649Y87183D01*
Y88959D01*
X205557Y89425D01*
X205293Y89820D01*
X204897Y90084D01*
X204431Y90177D01*
X199900D01*
X199433Y90084D01*
X199266Y89972D01*
X198766Y90239D01*
Y90902D01*
X199266Y91170D01*
X199433Y91057D01*
X199900Y90965D01*
X204431D01*
X204897Y91057D01*
X205293Y91322D01*
X205557Y91717D01*
X205649Y92183D01*
Y93843D01*
X205928Y94016D01*
X206139Y94060D01*
X216974Y83225D01*
D02*
G37*
G36*
X74803Y112992D02*
Y95669D01*
X69685Y90551D01*
X64567D01*
Y102362D01*
X63988Y102941D01*
Y103559D01*
X59055D01*
Y106283D01*
X63988D01*
Y106902D01*
X66535Y109449D01*
Y113386D01*
X74410D01*
X74803Y112992D01*
D02*
G37*
G36*
X182001Y89964D02*
X182016Y89792D01*
X182041Y89640D01*
X182076Y89509D01*
X182121Y89398D01*
X182176Y89306D01*
X182241Y89236D01*
X182316Y89185D01*
X182401Y89155D01*
X182496Y89145D01*
X180496D01*
X180591Y89155D01*
X180676Y89185D01*
X180751Y89236D01*
X180816Y89306D01*
X180871Y89398D01*
X180916Y89509D01*
X180951Y89640D01*
X180976Y89792D01*
X180991Y89964D01*
X180996Y90157D01*
X181996D01*
X182001Y89964D01*
D02*
G37*
G36*
X172425Y89370D02*
X172260Y89367D01*
X172101Y89353D01*
X171949Y89328D01*
X171804Y89294D01*
X171665Y89249D01*
X171533Y89193D01*
X171407Y89127D01*
X171288Y89051D01*
X171176Y88964D01*
X171070Y88867D01*
X170363Y89574D01*
X170460Y89680D01*
X170547Y89792D01*
X170623Y89911D01*
X170689Y90037D01*
X170745Y90169D01*
X170790Y90307D01*
X170825Y90453D01*
X170849Y90605D01*
X170863Y90764D01*
X170866Y90929D01*
X172425Y89370D01*
D02*
G37*
G36*
X155110Y90329D02*
X155116Y90173D01*
X155134Y90022D01*
X155164Y89878D01*
X155204Y89740D01*
X155256Y89608D01*
X155320Y89483D01*
X155395Y89364D01*
X155481Y89251D01*
X155579Y89144D01*
X154832Y88477D01*
X154727Y88574D01*
X154616Y88661D01*
X154497Y88738D01*
X154372Y88807D01*
X154240Y88866D01*
X154101Y88915D01*
X153954Y88955D01*
X153801Y88986D01*
X153641Y89008D01*
X153474Y89020D01*
X155115Y90492D01*
X155110Y90329D01*
D02*
G37*
G36*
X199759Y87076D02*
X199749Y87170D01*
X199717Y87254D01*
X199664Y87328D01*
X199590Y87392D01*
X199495Y87447D01*
X199379Y87492D01*
X199241Y87526D01*
X199190Y87534D01*
X199171Y87531D01*
X199021Y87481D01*
X198891Y87411D01*
X198782Y87321D01*
X198691Y87211D01*
X198621Y87081D01*
X198572Y86931D01*
X198541Y86761D01*
X198531Y86571D01*
X198031Y88071D01*
Y88571D01*
X198702Y88124D01*
Y88571D01*
X198903Y88576D01*
X199082Y88591D01*
X199241Y88616D01*
X199379Y88650D01*
X199495Y88695D01*
X199590Y88749D01*
X199664Y88814D01*
X199717Y88888D01*
X199749Y88972D01*
X199759Y89066D01*
Y87076D01*
D02*
G37*
G36*
X183913Y88972D02*
X183944Y88888D01*
X183997Y88814D01*
X184071Y88749D01*
X184167Y88695D01*
X184283Y88650D01*
X184420Y88616D01*
X184579Y88591D01*
X184759Y88576D01*
X184960Y88571D01*
Y87571D01*
X184759Y87566D01*
X184579Y87551D01*
X184420Y87526D01*
X184283Y87492D01*
X184167Y87447D01*
X184071Y87392D01*
X183997Y87328D01*
X183944Y87254D01*
X183913Y87170D01*
X183902Y87076D01*
Y89066D01*
X183913Y88972D01*
D02*
G37*
G36*
X182401Y81987D02*
X182316Y81957D01*
X182241Y81906D01*
X182176Y81835D01*
X182121Y81744D01*
X182076Y81633D01*
X182041Y81501D01*
X182016Y81349D01*
X182001Y81177D01*
X181996Y80985D01*
X180996D01*
X180991Y81177D01*
X180976Y81349D01*
X180951Y81501D01*
X180916Y81633D01*
X180871Y81744D01*
X180816Y81835D01*
X180751Y81906D01*
X180676Y81957D01*
X180591Y81987D01*
X180496Y81997D01*
X182496D01*
X182401Y81987D01*
D02*
G37*
G36*
X32256Y80918D02*
X32270Y80751D01*
X32293Y80605D01*
X32324Y80478D01*
X32364Y80370D01*
X32414Y80282D01*
X32472Y80214D01*
X32540Y80165D01*
X32616Y80136D01*
X32702Y80126D01*
X30802D01*
X30888Y80136D01*
X30964Y80165D01*
X31032Y80214D01*
X31090Y80282D01*
X31139Y80370D01*
X31180Y80478D01*
X31212Y80605D01*
X31234Y80751D01*
X31247Y80918D01*
X31252Y81103D01*
X32252D01*
X32256Y80918D01*
D02*
G37*
G36*
X37257Y80954D02*
X37272Y80779D01*
X37296Y80624D01*
X37331Y80489D01*
X37375Y80375D01*
X37430Y80282D01*
X37494Y80210D01*
X37568Y80158D01*
X37652Y80127D01*
X37745Y80117D01*
X35759D01*
X35852Y80127D01*
X35936Y80158D01*
X36010Y80210D01*
X36074Y80282D01*
X36129Y80375D01*
X36173Y80489D01*
X36208Y80624D01*
X36232Y80779D01*
X36247Y80954D01*
X36252Y81151D01*
X37252D01*
X37257Y80954D01*
D02*
G37*
G36*
X25589Y75279D02*
X25579Y75375D01*
X25549Y75459D01*
X25498Y75534D01*
X25427Y75599D01*
X25336Y75655D01*
X25225Y75700D01*
X25093Y75735D01*
X24942Y75760D01*
X24770Y75775D01*
X24577Y75779D01*
Y76780D01*
X24770Y76784D01*
X24942Y76799D01*
X25093Y76824D01*
X25225Y76859D01*
X25336Y76904D01*
X25427Y76960D01*
X25498Y77025D01*
X25549Y77100D01*
X25579Y77184D01*
X25589Y77280D01*
Y75279D01*
D02*
G37*
G36*
X211835Y74984D02*
X211825Y75079D01*
X211794Y75164D01*
X211744Y75239D01*
X211673Y75304D01*
X211582Y75359D01*
X211471Y75404D01*
X211339Y75439D01*
X211187Y75464D01*
X211015Y75479D01*
X210823Y75484D01*
Y76484D01*
X211015Y76489D01*
X211187Y76504D01*
X211339Y76529D01*
X211471Y76564D01*
X211582Y76609D01*
X211673Y76664D01*
X211744Y76729D01*
X211794Y76804D01*
X211825Y76889D01*
X211835Y76984D01*
Y74984D01*
D02*
G37*
G36*
X208549Y76889D02*
X208579Y76804D01*
X208630Y76729D01*
X208701Y76664D01*
X208792Y76609D01*
X208903Y76564D01*
X209035Y76529D01*
X209187Y76504D01*
X209359Y76489D01*
X209551Y76484D01*
Y75484D01*
X209359Y75479D01*
X209187Y75464D01*
X209035Y75439D01*
X208903Y75404D01*
X208792Y75359D01*
X208701Y75304D01*
X208630Y75239D01*
X208579Y75164D01*
X208549Y75079D01*
X208539Y74984D01*
Y76984D01*
X208549Y76889D01*
D02*
G37*
G36*
X11305Y76496D02*
X11335Y76411D01*
X11386Y76336D01*
X11457Y76271D01*
X11548Y76215D01*
X11659Y76171D01*
X11791Y76136D01*
X11943Y76111D01*
X12115Y76096D01*
X12307Y76091D01*
Y75090D01*
X12115Y75086D01*
X11943Y75071D01*
X11791Y75046D01*
X11659Y75011D01*
X11548Y74966D01*
X11457Y74911D01*
X11386Y74846D01*
X11335Y74771D01*
X11305Y74686D01*
X11295Y74590D01*
Y76591D01*
X11305Y76496D01*
D02*
G37*
G36*
X177082Y76038D02*
X177194Y75952D01*
X177313Y75875D01*
X177438Y75810D01*
X177570Y75754D01*
X177709Y75709D01*
X177855Y75674D01*
X178007Y75650D01*
X178165Y75636D01*
X178331Y75633D01*
X176772Y74073D01*
X176768Y74239D01*
X176754Y74398D01*
X176730Y74550D01*
X176695Y74695D01*
X176650Y74834D01*
X176595Y74966D01*
X176529Y75092D01*
X176453Y75210D01*
X176366Y75323D01*
X176269Y75428D01*
X176976Y76135D01*
X177082Y76038D01*
D02*
G37*
G36*
X207598Y74128D02*
X207513Y74098D01*
X207438Y74047D01*
X207373Y73976D01*
X207318Y73885D01*
X207273Y73774D01*
X207238Y73642D01*
X207213Y73491D01*
X207198Y73318D01*
X207193Y73126D01*
X206193D01*
X206188Y73318D01*
X206173Y73491D01*
X206148Y73642D01*
X206113Y73774D01*
X206068Y73885D01*
X206013Y73976D01*
X205948Y74047D01*
X205873Y74098D01*
X205788Y74128D01*
X205693Y74138D01*
X207693D01*
X207598Y74128D01*
D02*
G37*
G36*
X202677D02*
X202592Y74098D01*
X202517Y74047D01*
X202452Y73976D01*
X202397Y73885D01*
X202352Y73774D01*
X202317Y73642D01*
X202292Y73491D01*
X202277Y73318D01*
X202272Y73126D01*
X201272D01*
X201267Y73318D01*
X201252Y73491D01*
X201227Y73642D01*
X201192Y73774D01*
X201147Y73885D01*
X201092Y73976D01*
X201027Y74047D01*
X200952Y74098D01*
X200867Y74128D01*
X200772Y74138D01*
X202772D01*
X202677Y74128D01*
D02*
G37*
G36*
X22553Y73949D02*
X22571Y73808D01*
X22601Y73670D01*
X22644Y73535D01*
X22698Y73402D01*
X22764Y73272D01*
X22842Y73144D01*
X22933Y73020D01*
X23035Y72898D01*
X23150Y72778D01*
X20945D01*
X21059Y72898D01*
X21162Y73020D01*
X21252Y73144D01*
X21330Y73272D01*
X21397Y73402D01*
X21451Y73535D01*
X21493Y73670D01*
X21523Y73808D01*
X21541Y73949D01*
X21547Y74092D01*
X22547D01*
X22553Y73949D01*
D02*
G37*
G36*
X45669Y73228D02*
X44882Y72441D01*
X38976D01*
Y84436D01*
X39252Y84491D01*
X39583Y84712D01*
X39804Y85043D01*
X39882Y85433D01*
Y89728D01*
X40205Y89944D01*
X41083Y90822D01*
X41149Y90921D01*
X41230Y91009D01*
X41258Y91085D01*
X41304Y91153D01*
X41327Y91270D01*
X41369Y91382D01*
X41425Y91732D01*
X45669D01*
Y73228D01*
D02*
G37*
G36*
X196816Y72093D02*
X196666Y71936D01*
X196538Y71787D01*
X196434Y71648D01*
X196353Y71518D01*
X196295Y71397D01*
X196261Y71285D01*
X196250Y71183D01*
X196262Y71090D01*
X196297Y71006D01*
X196356Y70931D01*
X194947Y72340D01*
X195021Y72281D01*
X195105Y72246D01*
X195199Y72234D01*
X195301Y72245D01*
X195413Y72280D01*
X195534Y72337D01*
X195664Y72418D01*
X195803Y72522D01*
X195951Y72650D01*
X196109Y72800D01*
X196816Y72093D01*
D02*
G37*
G36*
X207199Y72809D02*
X207217Y72669D01*
X207247Y72531D01*
X207289Y72395D01*
X207344Y72263D01*
X207410Y72133D01*
X207488Y72005D01*
X207578Y71881D01*
X207681Y71759D01*
X207795Y71639D01*
X205591D01*
X205705Y71759D01*
X205807Y71881D01*
X205898Y72005D01*
X205976Y72133D01*
X206042Y72263D01*
X206097Y72395D01*
X206139Y72531D01*
X206169Y72669D01*
X206187Y72809D01*
X206193Y72953D01*
X207193D01*
X207199Y72809D01*
D02*
G37*
G36*
X11600Y69909D02*
X11628Y69836D01*
X11675Y69772D01*
X11740Y69717D01*
X11825Y69670D01*
X11928Y69631D01*
X12050Y69602D01*
X12191Y69580D01*
X12350Y69568D01*
X12528Y69563D01*
Y68563D01*
X12350Y68559D01*
X12191Y68546D01*
X12050Y68525D01*
X11928Y68495D01*
X11825Y68457D01*
X11740Y68410D01*
X11675Y68354D01*
X11628Y68291D01*
X11600Y68218D01*
X11590Y68137D01*
Y69990D01*
X11600Y69909D01*
D02*
G37*
G36*
X157461Y67986D02*
X157446Y68079D01*
X157403Y68163D01*
X157331Y68236D01*
X157229Y68300D01*
X157099Y68354D01*
X156939Y68398D01*
X156751Y68432D01*
X156534Y68457D01*
X156288Y68471D01*
X156012Y68476D01*
Y69476D01*
X156288Y69481D01*
X156751Y69520D01*
X156939Y69555D01*
X157099Y69599D01*
X157229Y69653D01*
X157331Y69717D01*
X157403Y69790D01*
X157446Y69874D01*
X157461Y69967D01*
Y67986D01*
D02*
G37*
G36*
X5236Y66943D02*
X5151Y66913D01*
X5076Y66862D01*
X5011Y66791D01*
X4956Y66700D01*
X4911Y66589D01*
X4876Y66457D01*
X4851Y66306D01*
X4836Y66133D01*
X4831Y65941D01*
X3831D01*
X3826Y66133D01*
X3811Y66306D01*
X3786Y66457D01*
X3751Y66589D01*
X3706Y66700D01*
X3651Y66791D01*
X3586Y66862D01*
X3511Y66913D01*
X3426Y66943D01*
X3331Y66953D01*
X5331D01*
X5236Y66943D01*
D02*
G37*
G36*
X23035Y66079D02*
X22933Y65957D01*
X22842Y65832D01*
X22764Y65705D01*
X22698Y65575D01*
X22644Y65442D01*
X22601Y65307D01*
X22571Y65169D01*
X22553Y65028D01*
X22547Y64885D01*
X21547D01*
X21541Y65028D01*
X21523Y65169D01*
X21493Y65307D01*
X21451Y65442D01*
X21397Y65575D01*
X21330Y65705D01*
X21252Y65832D01*
X21162Y65957D01*
X21059Y66079D01*
X20945Y66198D01*
X23150D01*
X23035Y66079D01*
D02*
G37*
G36*
X4836Y64477D02*
X4851Y64305D01*
X4876Y64153D01*
X4911Y64021D01*
X4956Y63910D01*
X5011Y63819D01*
X5076Y63748D01*
X5151Y63698D01*
X5236Y63667D01*
X5331Y63657D01*
X3331D01*
X3426Y63667D01*
X3511Y63698D01*
X3586Y63748D01*
X3651Y63819D01*
X3706Y63910D01*
X3751Y64021D01*
X3786Y64153D01*
X3811Y64305D01*
X3826Y64477D01*
X3831Y64669D01*
X4831D01*
X4836Y64477D01*
D02*
G37*
G36*
X165633Y64705D02*
X165667Y64657D01*
X165722Y64615D01*
X165800Y64578D01*
X165900Y64547D01*
X166022Y64521D01*
X166166Y64502D01*
X166521Y64479D01*
X166732Y64476D01*
Y63476D01*
X166521Y63474D01*
X166022Y63431D01*
X165900Y63406D01*
X165800Y63375D01*
X165722Y63338D01*
X165667Y63296D01*
X165633Y63248D01*
X165622Y63194D01*
Y64758D01*
X165633Y64705D01*
D02*
G37*
G36*
X180807Y63265D02*
X180732Y63206D01*
X180665Y63138D01*
X180606Y63059D01*
X180555Y62970D01*
X180512Y62871D01*
X180476Y62762D01*
X180448Y62644D01*
X180429Y62515D01*
X180417Y62376D01*
X180413Y62227D01*
X179413D01*
X179409Y62377D01*
X179397Y62517D01*
X179378Y62647D01*
X179350Y62766D01*
X179315Y62876D01*
X179272Y62976D01*
X179221Y63066D01*
X179162Y63145D01*
X179096Y63215D01*
X179022Y63275D01*
X180807Y63265D01*
D02*
G37*
G36*
X174715Y56322D02*
X174620Y56219D01*
X174533Y56108D01*
X174454Y55991D01*
X174383Y55866D01*
X174321Y55734D01*
X174267Y55595D01*
X174221Y55448D01*
X174184Y55295D01*
X174155Y55134D01*
X174134Y54966D01*
X172750Y56682D01*
X172910Y56669D01*
X173065Y56669D01*
X173213Y56680D01*
X173356Y56704D01*
X173492Y56741D01*
X173623Y56790D01*
X173748Y56851D01*
X173868Y56925D01*
X173981Y57011D01*
X174089Y57109D01*
X174715Y56322D01*
D02*
G37*
G36*
X32721Y52987D02*
X32637Y52952D01*
X32563Y52897D01*
X32498Y52820D01*
X32444Y52723D01*
X32400Y52604D01*
X32365Y52465D01*
X32341Y52304D01*
X32326Y52122D01*
X32321Y51920D01*
X31321D01*
X31316Y52117D01*
X31301Y52292D01*
X31276Y52447D01*
X31241Y52580D01*
X31196Y52693D01*
X31142Y52785D01*
X31077Y52855D01*
X31002Y52905D01*
X30918Y52933D01*
X30823Y52941D01*
X32814Y53000D01*
X32721Y52987D01*
D02*
G37*
G36*
X185124Y51587D02*
X184943Y51675D01*
X184725Y51697D01*
X184467Y51652D01*
X184172Y51540D01*
X183837Y51361D01*
X183464Y51115D01*
X183053Y50803D01*
X182115Y49978D01*
X181588Y49466D01*
X180488Y51193D01*
X180901Y51621D01*
X181547Y52380D01*
X181779Y52711D01*
X181951Y53010D01*
X182062Y53277D01*
X182113Y53511D01*
X182103Y53714D01*
X182033Y53884D01*
X181902Y54022D01*
X185124Y51587D01*
D02*
G37*
G36*
X218223Y52305D02*
X218241Y52164D01*
X218271Y52026D01*
X218314Y51891D01*
X218369Y51760D01*
X218437Y51631D01*
X218516Y51505D01*
X218608Y51383D01*
X218712Y51263D01*
X218828Y51147D01*
X216623Y51102D01*
X216736Y51224D01*
X216837Y51349D01*
X216926Y51476D01*
X217003Y51605D01*
X217068Y51736D01*
X217122Y51870D01*
X217163Y52006D01*
X217193Y52144D01*
X217211Y52284D01*
X217216Y52427D01*
X218216Y52448D01*
X218223Y52305D01*
D02*
G37*
G36*
X32158Y50536D02*
X32057Y50426D01*
X31972Y50312D01*
X31902Y50194D01*
X31847Y50071D01*
X31807Y49944D01*
X31782Y49813D01*
X31771Y49678D01*
X31776Y49538D01*
X31796Y49394D01*
X31831Y49245D01*
X29919Y50343D01*
X30086Y50390D01*
X30397Y50499D01*
X30541Y50561D01*
X30806Y50700D01*
X30928Y50778D01*
X31042Y50860D01*
X31148Y50947D01*
X31247Y51040D01*
X32158Y50536D01*
D02*
G37*
G36*
X28941Y48048D02*
X28861Y48178D01*
X28773Y48294D01*
X28678Y48396D01*
X28575Y48485D01*
X28464Y48560D01*
X28346Y48621D01*
X28220Y48669D01*
X28087Y48703D01*
X27946Y48723D01*
X27798Y48730D01*
X28086Y49730D01*
X28221Y49735D01*
X28358Y49748D01*
X28497Y49770D01*
X28637Y49802D01*
X28779Y49842D01*
X28923Y49891D01*
X29217Y50016D01*
X29366Y50092D01*
X29517Y50177D01*
X28941Y48048D01*
D02*
G37*
G36*
X39370Y47457D02*
X39256D01*
Y42520D01*
X33858D01*
Y52705D01*
X33958Y53209D01*
Y60374D01*
X34168Y60630D01*
X39370D01*
Y47457D01*
D02*
G37*
G36*
X70079Y64173D02*
X64198Y64173D01*
X55905Y55880D01*
Y42126D01*
X40707D01*
X40275Y42520D01*
Y47012D01*
X40312Y47067D01*
X40390Y47457D01*
Y60630D01*
X55905D01*
X60630Y65354D01*
Y72047D01*
X70079D01*
Y64173D01*
D02*
G37*
G36*
X181914Y38551D02*
X181894Y38741D01*
X181833Y38911D01*
X181733Y39061D01*
X181592Y39191D01*
X181411Y39301D01*
X181189Y39391D01*
X180928Y39461D01*
X180626Y39511D01*
X180284Y39541D01*
X179902Y39551D01*
Y41551D01*
X180284Y41561D01*
X180626Y41591D01*
X180928Y41641D01*
X181189Y41711D01*
X181411Y41801D01*
X181592Y41911D01*
X181733Y42041D01*
X181833Y42191D01*
X181894Y42361D01*
X181914Y42551D01*
Y38551D01*
D02*
G37*
G36*
X170484Y38791D02*
X170464Y38637D01*
X170404Y38498D01*
X170304Y38376D01*
X170164Y38270D01*
X169984Y38180D01*
X169764Y38107D01*
X169504Y38050D01*
X169204Y38009D01*
X168864Y37984D01*
X168484Y37976D01*
Y39976D01*
X168866Y39986D01*
X169207Y40016D01*
X169508Y40066D01*
X169770Y40136D01*
X169991Y40226D01*
X170172Y40336D01*
X170313Y40466D01*
X170414Y40616D01*
X170475Y40786D01*
X170496Y40976D01*
X170484Y38791D01*
D02*
G37*
G36*
X165153Y40089D02*
X165269Y40065D01*
X165418Y40045D01*
X165815Y40011D01*
X167002Y39978D01*
X167381Y39976D01*
Y37976D01*
X167002Y37975D01*
X165153Y37864D01*
X165069Y37837D01*
Y40115D01*
X165153Y40089D01*
D02*
G37*
G36*
X196174Y38099D02*
X196189Y37927D01*
X196214Y37775D01*
X196249Y37644D01*
X196294Y37532D01*
X196349Y37441D01*
X196414Y37370D01*
X196489Y37320D01*
X196574Y37289D01*
X196669Y37279D01*
X194669D01*
X194764Y37289D01*
X194849Y37320D01*
X194924Y37370D01*
X194989Y37441D01*
X195044Y37532D01*
X195089Y37644D01*
X195124Y37775D01*
X195149Y37927D01*
X195164Y38099D01*
X195169Y38291D01*
X196169D01*
X196174Y38099D01*
D02*
G37*
G36*
X175812Y35913D02*
X175415Y35502D01*
X174790Y34765D01*
X174562Y34440D01*
X174391Y34142D01*
X174277Y33874D01*
X174219Y33634D01*
X174218Y33422D01*
X174274Y33239D01*
X174385Y33085D01*
X171569Y35901D01*
X171723Y35789D01*
X171906Y35734D01*
X172118Y35735D01*
X172358Y35793D01*
X172627Y35907D01*
X172924Y36078D01*
X173249Y36306D01*
X173604Y36590D01*
X174397Y37327D01*
X175812Y35913D01*
D02*
G37*
G36*
X194611Y34433D02*
X194600Y34528D01*
X194570Y34613D01*
X194519Y34688D01*
X194449Y34753D01*
X194358Y34808D01*
X194246Y34853D01*
X194115Y34888D01*
X193963Y34913D01*
X193791Y34928D01*
X193599Y34933D01*
Y35933D01*
X193791Y35938D01*
X193963Y35953D01*
X194115Y35978D01*
X194246Y36013D01*
X194358Y36058D01*
X194449Y36113D01*
X194519Y36178D01*
X194570Y36253D01*
X194600Y36338D01*
X194611Y36433D01*
Y34433D01*
D02*
G37*
G36*
X165121Y35102D02*
X165210Y35090D01*
X165497Y35071D01*
X167237Y35046D01*
X167471Y33046D01*
X165353Y32955D01*
X165069Y35115D01*
X165121Y35102D01*
D02*
G37*
G36*
X170484Y32394D02*
X170464Y32518D01*
X170404Y32629D01*
X170304Y32726D01*
X170164Y32811D01*
X169984Y32883D01*
X169764Y32941D01*
X169504Y32987D01*
X169204Y33020D01*
X168484Y33046D01*
Y35046D01*
X168864Y35054D01*
X169204Y35080D01*
X169504Y35124D01*
X169764Y35184D01*
X169984Y35263D01*
X170164Y35358D01*
X170304Y35471D01*
X170404Y35601D01*
X170464Y35748D01*
X170484Y35913D01*
Y32394D01*
D02*
G37*
G36*
X185543Y21922D02*
X185402Y21758D01*
X185276Y21565D01*
X185166Y21341D01*
X185071Y21087D01*
X184991Y20802D01*
X184927Y20488D01*
X184878Y20143D01*
X184826Y19363D01*
X184823Y18928D01*
X181841Y21909D01*
X182276Y21912D01*
X183056Y21965D01*
X183401Y22014D01*
X183716Y22078D01*
X184000Y22158D01*
X184254Y22253D01*
X184478Y22363D01*
X184672Y22488D01*
X184835Y22629D01*
X185543Y21922D01*
D02*
G37*
G36*
X181781Y15886D02*
X181346Y15883D01*
X180566Y15831D01*
X180221Y15782D01*
X179906Y15717D01*
X179622Y15638D01*
X179368Y15543D01*
X179144Y15432D01*
X178950Y15307D01*
X178787Y15166D01*
X178079Y15873D01*
X178220Y16037D01*
X178346Y16231D01*
X178456Y16454D01*
X178551Y16709D01*
X178631Y16993D01*
X178695Y17308D01*
X178744Y17652D01*
X178796Y18432D01*
X178799Y18868D01*
X181781Y15886D01*
D02*
G37*
G36*
X173242Y15863D02*
X173277Y15778D01*
X173334Y15704D01*
X173414Y15639D01*
X173518Y15585D01*
X173644Y15540D01*
X173793Y15505D01*
X173965Y15481D01*
X174160Y15466D01*
X174378Y15461D01*
Y14461D01*
X174160Y14456D01*
X173965Y14441D01*
X173793Y14416D01*
X173644Y14381D01*
X173518Y14336D01*
X173414Y14282D01*
X173334Y14217D01*
X173277Y14143D01*
X173242Y14058D01*
X173231Y13964D01*
Y15957D01*
X173242Y15863D01*
D02*
G37*
%LPC*%
G36*
X90890Y188795D02*
X90212D01*
X89557Y188620D01*
X88970Y188281D01*
X88491Y187801D01*
X88152Y187214D01*
X87976Y186559D01*
Y185881D01*
X88152Y185227D01*
X88491Y184640D01*
X88970Y184160D01*
X89557Y183821D01*
X90212Y183646D01*
X90890D01*
X91545Y183821D01*
X92132Y184160D01*
X92611Y184640D01*
X92950Y185227D01*
X93126Y185881D01*
Y186559D01*
X92950Y187214D01*
X92611Y187801D01*
X92132Y188281D01*
X91545Y188620D01*
X90890Y188795D01*
D02*
G37*
G36*
X74355Y188402D02*
X73677D01*
X73022Y188226D01*
X72435Y187887D01*
X71955Y187408D01*
X71616Y186821D01*
X71441Y186166D01*
Y185488D01*
X71616Y184833D01*
X71955Y184246D01*
X72435Y183766D01*
X73022Y183427D01*
X73677Y183252D01*
X74355D01*
X75010Y183427D01*
X75597Y183766D01*
X76076Y184246D01*
X76415Y184833D01*
X76591Y185488D01*
Y186166D01*
X76415Y186821D01*
X76076Y187408D01*
X75597Y187887D01*
X75010Y188226D01*
X74355Y188402D01*
D02*
G37*
G36*
X111909Y191118D02*
X111543D01*
Y180618D01*
X122043D01*
Y180984D01*
X121773Y182694D01*
X121237Y184341D01*
X120451Y185883D01*
X119434Y187284D01*
X118209Y188508D01*
X116809Y189526D01*
X115266Y190312D01*
X113619Y190847D01*
X111909Y191118D01*
D02*
G37*
G36*
X110543D02*
X110178D01*
X108467Y190847D01*
X106821Y190312D01*
X105278Y189526D01*
X103877Y188508D01*
X102653Y187284D01*
X101635Y185883D01*
X100849Y184341D01*
X100314Y182694D01*
X100043Y180984D01*
Y180618D01*
X110543D01*
Y191118D01*
D02*
G37*
G36*
X155224Y183438D02*
Y179831D01*
X157520D01*
Y180709D01*
X157425Y181432D01*
X157145Y182106D01*
X156701Y182685D01*
X156122Y183130D01*
X155448Y183409D01*
X155224Y183438D01*
D02*
G37*
G36*
X154224D02*
X154001Y183409D01*
X153327Y183130D01*
X152748Y182685D01*
X152303Y182106D01*
X152024Y181432D01*
X151929Y180709D01*
Y179831D01*
X154224D01*
Y183438D01*
D02*
G37*
G36*
X129240Y183438D02*
Y179831D01*
X131536D01*
Y180709D01*
X131440Y181432D01*
X131161Y182106D01*
X130717Y182685D01*
X130138Y183130D01*
X129464Y183409D01*
X129240Y183438D01*
D02*
G37*
G36*
X128240Y183438D02*
X128017Y183409D01*
X127342Y183130D01*
X126763Y182685D01*
X126319Y182106D01*
X126040Y181432D01*
X125945Y180709D01*
Y179831D01*
X128240D01*
Y183438D01*
D02*
G37*
G36*
Y178831D02*
X125945D01*
Y177953D01*
X126040Y177229D01*
X126319Y176555D01*
X126763Y175976D01*
X127342Y175532D01*
X128017Y175252D01*
X128240Y175223D01*
Y178831D01*
D02*
G37*
G36*
X157520Y178831D02*
X155224D01*
Y175223D01*
X155448Y175252D01*
X156122Y175532D01*
X156701Y175976D01*
X157145Y176555D01*
X157425Y177229D01*
X157520Y177953D01*
Y178831D01*
D02*
G37*
G36*
X154224D02*
X151929D01*
Y177953D01*
X152024Y177229D01*
X152303Y176555D01*
X152748Y175976D01*
X153327Y175532D01*
X154001Y175252D01*
X154224Y175223D01*
Y178831D01*
D02*
G37*
G36*
X131536Y178831D02*
X129240D01*
Y175223D01*
X129464Y175252D01*
X130138Y175532D01*
X130717Y175976D01*
X131161Y176555D01*
X131440Y177229D01*
X131536Y177953D01*
Y178831D01*
D02*
G37*
G36*
X122043Y179618D02*
X111543D01*
Y169118D01*
X111909D01*
X113619Y169389D01*
X115266Y169924D01*
X116809Y170710D01*
X118209Y171728D01*
X119434Y172952D01*
X120451Y174353D01*
X121237Y175896D01*
X121773Y177542D01*
X122043Y179252D01*
Y179618D01*
D02*
G37*
G36*
X110543D02*
X100043D01*
Y179252D01*
X100314Y177542D01*
X100849Y175896D01*
X101635Y174353D01*
X102653Y172952D01*
X103877Y171728D01*
X105278Y170710D01*
X106821Y169924D01*
X108467Y169389D01*
X110178Y169118D01*
X110543D01*
Y179618D01*
D02*
G37*
G36*
X92520Y173672D02*
X91488Y173536D01*
X90526Y173138D01*
X89701Y172504D01*
X89067Y171678D01*
X88669Y170717D01*
X88533Y169685D01*
X88669Y168653D01*
X89067Y167692D01*
X89701Y166866D01*
X90526Y166232D01*
X91488Y165834D01*
X92520Y165698D01*
X93552Y165834D01*
X94513Y166232D01*
X95339Y166866D01*
X95972Y167692D01*
X96371Y168653D01*
X96507Y169685D01*
X96371Y170717D01*
X95972Y171678D01*
X95339Y172504D01*
X94513Y173138D01*
X93552Y173536D01*
X92520Y173672D01*
D02*
G37*
G36*
X185823Y150862D02*
X177799D01*
Y142839D01*
X185823D01*
Y150862D01*
D02*
G37*
G36*
X199499Y147850D02*
X198139D01*
X196805Y147585D01*
X195548Y147064D01*
X194417Y146309D01*
X193455Y145347D01*
X192699Y144216D01*
X192179Y142959D01*
X191913Y141625D01*
Y140265D01*
X192179Y138931D01*
X192699Y137674D01*
X193455Y136543D01*
X194417Y135581D01*
X195548Y134825D01*
X196805Y134305D01*
X198139Y134039D01*
X199499D01*
X200833Y134305D01*
X202090Y134825D01*
X203221Y135581D01*
X204183Y136543D01*
X204939Y137674D01*
X205459Y138931D01*
X205724Y140265D01*
Y141625D01*
X205459Y142959D01*
X204939Y144216D01*
X204183Y145347D01*
X203221Y146309D01*
X202090Y147064D01*
X200833Y147585D01*
X199499Y147850D01*
D02*
G37*
G36*
X136728Y142240D02*
X131382D01*
Y136500D01*
X132522D01*
Y134937D01*
X130909D01*
X130052Y134766D01*
X129325Y134281D01*
X128840Y133554D01*
X128669Y132697D01*
X128840Y131840D01*
X129325Y131113D01*
X130052Y130628D01*
X130909Y130457D01*
X137194D01*
X138051Y130628D01*
X138778Y131113D01*
X139264Y131840D01*
X139434Y132697D01*
X139264Y133554D01*
X138778Y134281D01*
X138051Y134766D01*
X137194Y134937D01*
X135581D01*
Y136500D01*
X136728D01*
Y142240D01*
D02*
G37*
G36*
X120811Y121866D02*
X120133D01*
X119479Y121691D01*
X118892Y121352D01*
X118412Y120872D01*
X118073Y120285D01*
X117898Y119630D01*
Y118952D01*
X118073Y118298D01*
X118412Y117710D01*
X118892Y117231D01*
X119479Y116892D01*
X120133Y116717D01*
X120811D01*
X121466Y116892D01*
X122053Y117231D01*
X122533Y117710D01*
X122872Y118298D01*
X123047Y118952D01*
Y119630D01*
X122872Y120285D01*
X122533Y120872D01*
X122053Y121352D01*
X121466Y121691D01*
X120811Y121866D01*
D02*
G37*
G36*
X137194Y119937D02*
X130909D01*
X130052Y119766D01*
X129325Y119281D01*
X128840Y118554D01*
X128669Y117697D01*
X128840Y116840D01*
X129325Y116113D01*
X130052Y115628D01*
X130909Y115457D01*
X137194D01*
X138051Y115628D01*
X138778Y116113D01*
X139264Y116840D01*
X139434Y117697D01*
X139264Y118554D01*
X138778Y119281D01*
X138051Y119766D01*
X137194Y119937D01*
D02*
G37*
G36*
X44789Y115380D02*
X41130D01*
Y111721D01*
X44789D01*
Y115380D01*
D02*
G37*
G36*
X40130D02*
X36470D01*
Y111721D01*
X40130D01*
Y115380D01*
D02*
G37*
G36*
X130260Y113205D02*
X129582D01*
X128927Y113029D01*
X128340Y112690D01*
X127861Y112211D01*
X127522Y111624D01*
X127347Y110969D01*
Y110291D01*
X127522Y109636D01*
X127861Y109049D01*
X128340Y108570D01*
X128927Y108231D01*
X129582Y108055D01*
X130260D01*
X130915Y108231D01*
X131502Y108570D01*
X131982Y109049D01*
X132321Y109636D01*
X132496Y110291D01*
Y110969D01*
X132321Y111624D01*
X131982Y112211D01*
X131502Y112690D01*
X130915Y113029D01*
X130260Y113205D01*
D02*
G37*
G36*
X40130Y110721D02*
X36470D01*
Y107061D01*
X40130D01*
Y110721D01*
D02*
G37*
%LPD*%
G36*
X134957Y137514D02*
X134872Y137484D01*
X134797Y137433D01*
X134732Y137362D01*
X134677Y137271D01*
X134632Y137160D01*
X134597Y137028D01*
X134572Y136876D01*
X134557Y136704D01*
X134552Y136512D01*
X133552D01*
X133547Y136704D01*
X133532Y136876D01*
X133507Y137028D01*
X133472Y137160D01*
X133427Y137271D01*
X133372Y137362D01*
X133307Y137433D01*
X133232Y137484D01*
X133147Y137514D01*
X133052Y137524D01*
X135052D01*
X134957Y137514D01*
D02*
G37*
G36*
X134557Y134700D02*
X134572Y134528D01*
X134597Y134376D01*
X134632Y134244D01*
X134677Y134133D01*
X134732Y134042D01*
X134797Y133971D01*
X134872Y133920D01*
X134957Y133890D01*
X135052Y133880D01*
X133052D01*
X133147Y133890D01*
X133232Y133920D01*
X133307Y133971D01*
X133372Y134042D01*
X133427Y134133D01*
X133472Y134244D01*
X133507Y134376D01*
X133532Y134528D01*
X133547Y134700D01*
X133552Y134892D01*
X134552D01*
X134557Y134700D01*
D02*
G37*
%LPC*%
G36*
X41177Y150813D02*
X41130D01*
Y147153D01*
X44789D01*
Y147201D01*
X44506Y148259D01*
X43958Y149207D01*
X43184Y149982D01*
X42235Y150530D01*
X41177Y150813D01*
D02*
G37*
G36*
X40130D02*
X40082D01*
X39024Y150530D01*
X38076Y149982D01*
X37301Y149207D01*
X36754Y148259D01*
X36470Y147201D01*
Y147153D01*
X40130D01*
Y150813D01*
D02*
G37*
G36*
X44789Y146153D02*
X41130D01*
Y142494D01*
X41177D01*
X42235Y142778D01*
X43184Y143325D01*
X43958Y144100D01*
X44506Y145048D01*
X44789Y146106D01*
Y146153D01*
D02*
G37*
G36*
X40130D02*
X36470D01*
Y146106D01*
X36754Y145048D01*
X37301Y144100D01*
X38076Y143325D01*
X39024Y142778D01*
X40082Y142494D01*
X40130D01*
Y146153D01*
D02*
G37*
G36*
X180654Y121079D02*
X179976D01*
X179321Y120903D01*
X178734Y120564D01*
X178255Y120085D01*
X177916Y119498D01*
X177740Y118843D01*
Y118165D01*
X177916Y117510D01*
X178255Y116923D01*
X178734Y116444D01*
X179321Y116105D01*
X179976Y115929D01*
X180654D01*
X181309Y116105D01*
X181896Y116444D01*
X182375Y116923D01*
X182714Y117510D01*
X182890Y118165D01*
Y118843D01*
X182714Y119498D01*
X182375Y120085D01*
X181896Y120564D01*
X181309Y120903D01*
X180654Y121079D01*
D02*
G37*
G36*
X108394Y94933D02*
Y92402D01*
X107394D01*
Y94933D01*
X107221Y94910D01*
X106595Y94651D01*
X106057Y94238D01*
X105645Y93700D01*
X105385Y93074D01*
X104890D01*
X104631Y93700D01*
X104218Y94238D01*
X103680Y94651D01*
X103054Y94910D01*
X102882Y94933D01*
Y92402D01*
X101882D01*
Y94933D01*
X101710Y94910D01*
X101083Y94651D01*
X100546Y94238D01*
X100133Y93700D01*
X99873Y93074D01*
X99785Y92402D01*
X99307Y92201D01*
X98954Y92154D01*
X98327Y91895D01*
X97790Y91482D01*
X97377Y90944D01*
X97118Y90318D01*
X97095Y90146D01*
X99626D01*
Y89146D01*
X97095D01*
X97118Y88973D01*
X97377Y88347D01*
X97790Y87809D01*
X98327Y87397D01*
X98954Y87137D01*
Y86642D01*
X98327Y86383D01*
X97790Y85970D01*
X97377Y85432D01*
X97118Y84806D01*
X97095Y84634D01*
X99626D01*
Y83634D01*
X97095D01*
X97118Y83462D01*
X97377Y82835D01*
X97790Y82297D01*
X98327Y81885D01*
X98954Y81625D01*
X99626Y81537D01*
X99785Y81378D01*
X99873Y80706D01*
X100133Y80079D01*
X100546Y79542D01*
X101083Y79129D01*
X101710Y78869D01*
X101882Y78847D01*
Y81378D01*
X102882D01*
Y78847D01*
X103054Y78869D01*
X103680Y79129D01*
X104218Y79542D01*
X104631Y80079D01*
X104890Y80706D01*
X105385D01*
X105645Y80079D01*
X106057Y79542D01*
X106595Y79129D01*
X107221Y78869D01*
X107394Y78847D01*
Y81378D01*
X108394D01*
Y78847D01*
X108566Y78869D01*
X109192Y79129D01*
X109730Y79542D01*
X110143Y80079D01*
X110402Y80706D01*
X110449Y81059D01*
X110650Y81537D01*
X111322Y81625D01*
X111948Y81885D01*
X112486Y82297D01*
X112899Y82835D01*
X113158Y83462D01*
X113181Y83634D01*
X110650D01*
Y84634D01*
X113181D01*
X113158Y84806D01*
X112899Y85432D01*
X112486Y85970D01*
X111948Y86383D01*
X111322Y86642D01*
Y87137D01*
X111948Y87397D01*
X112486Y87809D01*
X112899Y88347D01*
X113158Y88973D01*
X113181Y89146D01*
X110650D01*
Y90146D01*
X113181D01*
X113158Y90318D01*
X112899Y90944D01*
X112486Y91482D01*
X111948Y91895D01*
X111322Y92154D01*
X110969Y92201D01*
X110603Y92355D01*
X110449Y92721D01*
X110402Y93074D01*
X110143Y93700D01*
X109730Y94238D01*
X109192Y94651D01*
X108566Y94910D01*
X108394Y94933D01*
D02*
G37*
G36*
X138922Y93562D02*
X138244D01*
X137589Y93386D01*
X137002Y93047D01*
X136522Y92568D01*
X136183Y91981D01*
X136008Y91326D01*
Y91080D01*
X135989Y90993D01*
X135986Y90861D01*
X135978Y90772D01*
X135966Y90694D01*
X135949Y90626D01*
X135930Y90566D01*
X135908Y90514D01*
X135883Y90466D01*
X135855Y90422D01*
X135853Y90420D01*
X134426Y88994D01*
X134095Y88497D01*
X133978Y87912D01*
Y83784D01*
X134095Y83198D01*
X134426Y82702D01*
X144140Y72989D01*
Y68673D01*
X143640Y68624D01*
X143539Y69131D01*
X143207Y69627D01*
X140131Y72704D01*
X140129Y72706D01*
X140101Y72750D01*
X140076Y72797D01*
X140054Y72850D01*
X140035Y72909D01*
X140019Y72977D01*
X140006Y73056D01*
X139998Y73145D01*
X139996Y73276D01*
X139976Y73364D01*
Y73609D01*
X139801Y74264D01*
X139462Y74851D01*
X138982Y75331D01*
X138395Y75670D01*
X137741Y75845D01*
X137063D01*
X136408Y75670D01*
X135821Y75331D01*
X135341Y74851D01*
X135002Y74264D01*
X134827Y73609D01*
Y72931D01*
X135002Y72277D01*
X135341Y71689D01*
X135821Y71210D01*
X136408Y70871D01*
X136851Y70752D01*
Y70235D01*
X136408Y70116D01*
X135821Y69777D01*
X135341Y69297D01*
X135002Y68710D01*
X134827Y68055D01*
Y67378D01*
X135002Y66723D01*
X135341Y66136D01*
X135515Y65962D01*
X135563Y65886D01*
X135654Y65791D01*
X135712Y65723D01*
X135758Y65659D01*
X135795Y65599D01*
X135823Y65543D01*
X135845Y65491D01*
X135861Y65439D01*
X135872Y65388D01*
X135872Y65386D01*
Y59959D01*
X135372Y59825D01*
X135131Y60242D01*
X134957Y60416D01*
X134909Y60492D01*
X134818Y60587D01*
X134761Y60655D01*
X134714Y60719D01*
X134678Y60779D01*
X134649Y60835D01*
X134628Y60887D01*
X134612Y60939D01*
X134601Y60990D01*
X134600Y60992D01*
Y62992D01*
X134484Y63577D01*
X134152Y64074D01*
X133168Y65058D01*
X132672Y65389D01*
X132087Y65506D01*
X130669D01*
X130562Y65512D01*
X130532Y65516D01*
X130509Y65549D01*
X129788Y66031D01*
X128937Y66200D01*
X122244D01*
X121393Y66031D01*
X120672Y65549D01*
X120653Y65521D01*
X120476Y65506D01*
X118224D01*
Y67447D01*
X120512D01*
X120619Y67441D01*
X120649Y67437D01*
X120672Y67404D01*
X121393Y66922D01*
X122244Y66753D01*
X128937D01*
X129788Y66922D01*
X130509Y67404D01*
X130992Y68125D01*
X131161Y68976D01*
X130992Y69827D01*
X130509Y70549D01*
X129788Y71031D01*
X128937Y71200D01*
X127120D01*
Y74984D01*
X128559D01*
Y80921D01*
X123016D01*
Y80531D01*
X122516Y80243D01*
X122254Y80394D01*
X121599Y80570D01*
X120921D01*
X120266Y80394D01*
X119679Y80055D01*
X119200Y79576D01*
X118860Y78989D01*
X118685Y78334D01*
Y77656D01*
X118860Y77001D01*
X119200Y76414D01*
X119679Y75934D01*
X120266Y75595D01*
X120921Y75420D01*
X121599D01*
X122254Y75595D01*
X122516Y75747D01*
X123016Y75458D01*
Y74984D01*
X124061D01*
Y71200D01*
X122244D01*
X121393Y71031D01*
X120672Y70549D01*
X120653Y70521D01*
X120476Y70506D01*
X118224D01*
Y71768D01*
X112484D01*
Y66421D01*
Y61303D01*
X118224D01*
Y62447D01*
X120512D01*
X120619Y62441D01*
X120649Y62437D01*
X120672Y62404D01*
X121393Y61922D01*
X122244Y61752D01*
X128937D01*
X129788Y61922D01*
X130509Y62404D01*
X130528Y62432D01*
X130705Y62447D01*
X131453D01*
X131542Y62359D01*
Y60992D01*
X131541Y60990D01*
X131530Y60939D01*
X131514Y60887D01*
X131492Y60835D01*
X131464Y60779D01*
X131427Y60719D01*
X131381Y60655D01*
X131324Y60587D01*
X131232Y60492D01*
X131184Y60416D01*
X130588Y60431D01*
X130509Y60549D01*
X129788Y61031D01*
X128937Y61200D01*
X122244D01*
X121393Y61031D01*
X121144Y60865D01*
X121063Y60828D01*
X120975Y60766D01*
X120915Y60729D01*
X120850Y60696D01*
X120781Y60666D01*
X120706Y60641D01*
X120625Y60618D01*
X120536Y60600D01*
X120439Y60587D01*
X120412Y60584D01*
X118915D01*
X118330Y60468D01*
X117834Y60137D01*
X117364Y59666D01*
X117337Y59650D01*
X117311Y59638D01*
X117285Y59629D01*
X117255Y59622D01*
X117218Y59618D01*
X117171Y59617D01*
X117112Y59621D01*
X117000Y59639D01*
X116965Y59637D01*
X116874Y59661D01*
X116197D01*
X115542Y59486D01*
X114954Y59147D01*
X114475Y58668D01*
X114136Y58080D01*
X113961Y57426D01*
Y56748D01*
X114136Y56093D01*
X114276Y55850D01*
X113987Y55350D01*
X110075D01*
X109685Y55273D01*
X109565Y55193D01*
X109445Y55273D01*
X109055Y55350D01*
X103362D01*
X103283Y55335D01*
X96107D01*
X94274Y57168D01*
X94274Y57168D01*
X93943Y57389D01*
X93553Y57467D01*
X93163Y57389D01*
X92832Y57168D01*
X92687Y57023D01*
X92333Y56818D01*
X91937Y56713D01*
X91527D01*
X91132Y56818D01*
X90777Y57023D01*
X90485Y57316D01*
X90154Y57537D01*
X89764Y57614D01*
X89374Y57537D01*
X89043Y57316D01*
X88750Y57023D01*
X88396Y56818D01*
X88000Y56713D01*
X87590D01*
X87195Y56818D01*
X86840Y57023D01*
X86551Y57313D01*
X86387Y57596D01*
X86299Y57697D01*
X86225Y57808D01*
X86169Y57845D01*
X86125Y57895D01*
X86005Y57955D01*
X85894Y58029D01*
X85828Y58042D01*
X85768Y58072D01*
X85635Y58080D01*
X85504Y58106D01*
X78498D01*
Y76181D01*
X78461Y76368D01*
Y80429D01*
X67996D01*
Y79088D01*
X66650D01*
Y80429D01*
X65506D01*
Y81299D01*
X65389Y81884D01*
X65058Y82381D01*
X63680Y83759D01*
X63184Y84090D01*
X62598Y84207D01*
X60205D01*
X60202Y84207D01*
X60151Y84218D01*
X60100Y84234D01*
X60047Y84255D01*
X59992Y84284D01*
X59932Y84321D01*
X59868Y84367D01*
X59799Y84425D01*
X59704Y84516D01*
X59629Y84564D01*
X59455Y84737D01*
X58868Y85076D01*
X58213Y85252D01*
X57535D01*
X56880Y85076D01*
X56293Y84737D01*
X55814Y84258D01*
X55475Y83671D01*
X55299Y83016D01*
Y82338D01*
X55475Y81683D01*
X55814Y81096D01*
X56293Y80617D01*
X56880Y80278D01*
X57535Y80102D01*
X58213D01*
X58868Y80278D01*
X59455Y80617D01*
X59629Y80791D01*
X59704Y80839D01*
X59799Y80930D01*
X59868Y80987D01*
X59932Y81034D01*
X59992Y81070D01*
X60047Y81099D01*
X60100Y81120D01*
X60151Y81136D01*
X60202Y81147D01*
X60205Y81148D01*
X61749D01*
X61914Y80929D01*
X61665Y80429D01*
X61303D01*
Y74689D01*
X66650D01*
Y76030D01*
X67996D01*
Y74689D01*
X75439D01*
Y58106D01*
X73228D01*
X72838Y58029D01*
X72733Y57985D01*
X72179Y58214D01*
X72141Y58264D01*
X72084Y58474D01*
X71745Y59061D01*
X71266Y59541D01*
X70679Y59880D01*
X70024Y60055D01*
X69346D01*
X68691Y59880D01*
X68104Y59541D01*
X67625Y59061D01*
X67286Y58474D01*
X67110Y57819D01*
Y57573D01*
X67091Y57486D01*
X67088Y57354D01*
X67080Y57266D01*
X67068Y57187D01*
X67052Y57119D01*
X67032Y57060D01*
X67010Y57007D01*
X66985Y56960D01*
X66957Y56916D01*
X66956Y56914D01*
X64667Y54625D01*
X64335Y54129D01*
X64219Y53543D01*
Y37721D01*
X64335Y37135D01*
X64667Y36639D01*
X96165Y5141D01*
X95973Y4679D01*
X67854D01*
X67269Y4563D01*
X66773Y4231D01*
X65006Y2464D01*
X65004Y2462D01*
X64960Y2434D01*
X64912Y2409D01*
X64860Y2387D01*
X64800Y2368D01*
X64732Y2351D01*
X64654Y2339D01*
X64565Y2331D01*
X64433Y2328D01*
X64346Y2309D01*
X64100D01*
X63445Y2134D01*
X62858Y1795D01*
X62379Y1315D01*
X62196Y998D01*
X61618D01*
X61509Y1187D01*
X61030Y1667D01*
X60443Y2006D01*
X59788Y2181D01*
X59110D01*
X58455Y2006D01*
X57868Y1667D01*
X57389Y1187D01*
X57050Y600D01*
X56874Y-55D01*
Y-733D01*
X57050Y-1388D01*
X57389Y-1975D01*
X57868Y-2454D01*
X57899Y-2472D01*
X57901Y-2479D01*
X57911Y-2519D01*
X57919Y-2575D01*
Y-2746D01*
X58036Y-3332D01*
X58367Y-3828D01*
X59529Y-4990D01*
X59548Y-5018D01*
X60336Y-5806D01*
X60832Y-6137D01*
X61417Y-6254D01*
X65354D01*
X65940Y-6137D01*
X66436Y-5806D01*
X72287Y45D01*
X118898D01*
X119483Y162D01*
X119979Y493D01*
X153444Y33958D01*
X153775Y34454D01*
X153892Y35039D01*
Y59480D01*
X153892Y59483D01*
X153903Y59534D01*
X153919Y59585D01*
X153941Y59638D01*
X153969Y59693D01*
X154006Y59753D01*
X154052Y59817D01*
X154110Y59886D01*
X154201Y59981D01*
X154249Y60056D01*
X154423Y60230D01*
X154762Y60817D01*
X154937Y61472D01*
Y62150D01*
X154762Y62805D01*
X154423Y63392D01*
X153943Y63871D01*
X153356Y64210D01*
X152701Y64386D01*
X152023D01*
X151368Y64210D01*
X150781Y63871D01*
X150302Y63392D01*
X149963Y62805D01*
X149787Y62150D01*
Y61472D01*
X149963Y60817D01*
X150302Y60230D01*
X150476Y60056D01*
X150524Y59981D01*
X150615Y59886D01*
X150672Y59817D01*
X150719Y59753D01*
X150755Y59693D01*
X150784Y59638D01*
X150805Y59585D01*
X150821Y59534D01*
X150832Y59483D01*
X150833Y59480D01*
Y35673D01*
X144117Y28957D01*
X143655Y29149D01*
Y37509D01*
X144155Y37665D01*
X144676Y37364D01*
X145330Y37189D01*
X146008D01*
X146663Y37364D01*
X147250Y37703D01*
X147730Y38183D01*
X148069Y38770D01*
X148244Y39425D01*
Y40103D01*
X148069Y40758D01*
X147730Y41345D01*
X147556Y41519D01*
X147508Y41594D01*
X147417Y41689D01*
X147359Y41757D01*
X147313Y41822D01*
X147276Y41881D01*
X147248Y41937D01*
X147226Y41990D01*
X147210Y42041D01*
X147199Y42092D01*
X147199Y42094D01*
Y73622D01*
X147082Y74207D01*
X146751Y74704D01*
X137037Y84417D01*
Y87279D01*
X138016Y88257D01*
X138018Y88259D01*
X138062Y88287D01*
X138110Y88312D01*
X138162Y88334D01*
X138222Y88353D01*
X138290Y88370D01*
X138368Y88382D01*
X138457Y88390D01*
X138589Y88393D01*
X138676Y88412D01*
X138922D01*
X139576Y88587D01*
X140164Y88927D01*
X140643Y89406D01*
X140982Y89993D01*
X141157Y90648D01*
Y91326D01*
X140982Y91981D01*
X140643Y92568D01*
X140164Y93047D01*
X139576Y93386D01*
X138922Y93562D01*
D02*
G37*
G36*
X164764Y61200D02*
X158071D01*
X157220Y61031D01*
X156498Y60549D01*
X156016Y59827D01*
X155847Y58976D01*
X156016Y58125D01*
X156498Y57404D01*
X157220Y56922D01*
X158071Y56753D01*
X164764D01*
X165615Y56922D01*
X166336Y57404D01*
X166818Y58125D01*
X166988Y58976D01*
X166818Y59827D01*
X166336Y60549D01*
X165615Y61031D01*
X164764Y61200D01*
D02*
G37*
G36*
X164764Y56200D02*
X158071D01*
X157220Y56031D01*
X156498Y55549D01*
X156016Y54827D01*
X155847Y53976D01*
X156016Y53125D01*
X156498Y52404D01*
X157220Y51922D01*
X158071Y51753D01*
X164764D01*
X165615Y51922D01*
X166336Y52404D01*
X166818Y53125D01*
X166988Y53976D01*
X166818Y54827D01*
X166336Y55549D01*
X165615Y56031D01*
X164764Y56200D01*
D02*
G37*
G36*
X164764Y51200D02*
X158071D01*
X157220Y51031D01*
X156498Y50549D01*
X156016Y49827D01*
X155847Y48976D01*
X156016Y48125D01*
X156498Y47404D01*
X157220Y46922D01*
X158071Y46753D01*
X164764D01*
X165615Y46922D01*
X166336Y47404D01*
X166818Y48125D01*
X166988Y48976D01*
X166818Y49827D01*
X166336Y50549D01*
X165615Y51031D01*
X164764Y51200D01*
D02*
G37*
G36*
Y46200D02*
X158071D01*
X157220Y46031D01*
X156498Y45549D01*
X156016Y44827D01*
X155847Y43976D01*
X156016Y43125D01*
X156498Y42404D01*
X157220Y41922D01*
X158071Y41752D01*
X164764D01*
X165615Y41922D01*
X166336Y42404D01*
X166818Y43125D01*
X166988Y43976D01*
X166818Y44827D01*
X166336Y45549D01*
X165615Y46031D01*
X164764Y46200D01*
D02*
G37*
G36*
X41158Y34721D02*
X40102D01*
X39081Y34447D01*
X38167Y33919D01*
X37420Y33172D01*
X36891Y32257D01*
X36618Y31237D01*
Y30180D01*
X36891Y29160D01*
X37420Y28245D01*
X38167Y27498D01*
X39081Y26970D01*
X40102Y26697D01*
X41158D01*
X42178Y26970D01*
X43093Y27498D01*
X43840Y28245D01*
X44368Y29160D01*
X44642Y30180D01*
Y31237D01*
X44368Y32257D01*
X43840Y33172D01*
X43093Y33919D01*
X42178Y34447D01*
X41158Y34721D01*
D02*
G37*
G36*
X148371Y25058D02*
X147693D01*
X147038Y24882D01*
X146450Y24543D01*
X145971Y24064D01*
X145632Y23477D01*
X145457Y22822D01*
Y22144D01*
X145632Y21489D01*
X145971Y20902D01*
X146450Y20423D01*
X147038Y20084D01*
X147693Y19908D01*
X148371D01*
X149025Y20084D01*
X149612Y20423D01*
X150092Y20902D01*
X150431Y21489D01*
X150606Y22144D01*
Y22822D01*
X150431Y23477D01*
X150092Y24064D01*
X149612Y24543D01*
X149025Y24882D01*
X148371Y25058D01*
D02*
G37*
G36*
X24302Y31709D02*
X22942D01*
X21608Y31443D01*
X20351Y30923D01*
X19220Y30167D01*
X18258Y29205D01*
X17503Y28074D01*
X16982Y26817D01*
X16716Y25483D01*
Y24123D01*
X16982Y22789D01*
X17503Y21532D01*
X18258Y20401D01*
X19220Y19439D01*
X20351Y18684D01*
X21608Y18163D01*
X22942Y17898D01*
X24302D01*
X25636Y18163D01*
X26893Y18684D01*
X28024Y19439D01*
X28986Y20401D01*
X29742Y21532D01*
X30262Y22789D01*
X30528Y24123D01*
Y25483D01*
X30262Y26817D01*
X29742Y28074D01*
X28986Y29205D01*
X28024Y30167D01*
X26893Y30923D01*
X25636Y31443D01*
X24302Y31709D01*
D02*
G37*
G36*
X159055Y23278D02*
X158023Y23142D01*
X157062Y22744D01*
X156236Y22110D01*
X155602Y21285D01*
X155204Y20323D01*
X155068Y19291D01*
X155204Y18259D01*
X155602Y17298D01*
X156236Y16472D01*
X157062Y15839D01*
X158023Y15440D01*
X159055Y15304D01*
X160087Y15440D01*
X161049Y15839D01*
X161874Y16472D01*
X162508Y17298D01*
X162906Y18259D01*
X163042Y19291D01*
X162906Y20323D01*
X162508Y21285D01*
X161874Y22110D01*
X161049Y22744D01*
X160087Y23142D01*
X159055Y23278D01*
D02*
G37*
G36*
X44642Y22909D02*
X36618D01*
Y14886D01*
X44642D01*
Y22909D01*
D02*
G37*
G36*
X189709Y19940D02*
X189031D01*
X188376Y19764D01*
X187789Y19425D01*
X187310Y18946D01*
X186971Y18359D01*
X186795Y17704D01*
Y17026D01*
X186971Y16371D01*
X187310Y15784D01*
X187789Y15304D01*
X188376Y14965D01*
X189031Y14790D01*
X189709D01*
X190364Y14965D01*
X190951Y15304D01*
X191430Y15784D01*
X191769Y16371D01*
X191945Y17026D01*
Y17704D01*
X191769Y18359D01*
X191430Y18946D01*
X190951Y19425D01*
X190364Y19764D01*
X189709Y19940D01*
D02*
G37*
G36*
X140157Y4381D02*
X139126Y4245D01*
X138164Y3846D01*
X137338Y3213D01*
X136705Y2387D01*
X136307Y1426D01*
X136171Y394D01*
X136307Y-638D01*
X136705Y-1600D01*
X137338Y-2425D01*
X138164Y-3059D01*
X139126Y-3457D01*
X140157Y-3593D01*
X141189Y-3457D01*
X142151Y-3059D01*
X142977Y-2425D01*
X143610Y-1600D01*
X144009Y-638D01*
X144144Y394D01*
X144009Y1426D01*
X143610Y2387D01*
X142977Y3213D01*
X142151Y3846D01*
X141189Y4245D01*
X140157Y4381D01*
D02*
G37*
G36*
X129134D02*
X128102Y4245D01*
X127140Y3846D01*
X126315Y3213D01*
X125681Y2387D01*
X125283Y1426D01*
X125147Y394D01*
X125283Y-638D01*
X125681Y-1600D01*
X126315Y-2425D01*
X127140Y-3059D01*
X128102Y-3457D01*
X129134Y-3593D01*
X130166Y-3457D01*
X131127Y-3059D01*
X131953Y-2425D01*
X132587Y-1600D01*
X132985Y-638D01*
X133121Y394D01*
X132985Y1426D01*
X132587Y2387D01*
X131953Y3213D01*
X131127Y3846D01*
X130166Y4245D01*
X129134Y4381D01*
D02*
G37*
G36*
X86614Y-1525D02*
X85582Y-1661D01*
X84621Y-2059D01*
X83795Y-2693D01*
X83161Y-3518D01*
X82763Y-4480D01*
X82627Y-5512D01*
X82763Y-6544D01*
X83161Y-7505D01*
X83795Y-8331D01*
X84621Y-8964D01*
X85582Y-9363D01*
X86614Y-9499D01*
X87646Y-9363D01*
X88608Y-8964D01*
X89433Y-8331D01*
X90067Y-7505D01*
X90465Y-6544D01*
X90601Y-5512D01*
X90465Y-4480D01*
X90067Y-3518D01*
X89433Y-2693D01*
X88608Y-2059D01*
X87646Y-1661D01*
X86614Y-1525D01*
D02*
G37*
G36*
X111909Y-3764D02*
X111543D01*
Y-14264D01*
X122043D01*
Y-13898D01*
X121773Y-12188D01*
X121237Y-10541D01*
X120451Y-8998D01*
X119434Y-7598D01*
X118209Y-6373D01*
X116809Y-5356D01*
X115266Y-4570D01*
X113619Y-4035D01*
X111909Y-3764D01*
D02*
G37*
G36*
X110543D02*
X110178D01*
X108467Y-4035D01*
X106821Y-4570D01*
X105278Y-5356D01*
X103877Y-6373D01*
X102653Y-7598D01*
X101635Y-8998D01*
X100849Y-10541D01*
X100314Y-12188D01*
X100043Y-13898D01*
Y-14264D01*
X110543D01*
Y-3764D01*
D02*
G37*
G36*
X122043Y-15264D02*
X111543D01*
Y-25764D01*
X111909D01*
X113619Y-25493D01*
X115266Y-24958D01*
X116809Y-24172D01*
X118209Y-23154D01*
X119434Y-21930D01*
X120451Y-20529D01*
X121237Y-18986D01*
X121773Y-17340D01*
X122043Y-15630D01*
Y-15264D01*
D02*
G37*
G36*
X110543D02*
X100043D01*
Y-15630D01*
X100314Y-17340D01*
X100849Y-18986D01*
X101635Y-20529D01*
X102653Y-21930D01*
X103877Y-23154D01*
X105278Y-24172D01*
X106821Y-24958D01*
X108467Y-25493D01*
X110178Y-25764D01*
X110543D01*
Y-15264D01*
D02*
G37*
G36*
X92520Y-19241D02*
X91488Y-19377D01*
X90526Y-19776D01*
X89701Y-20409D01*
X89067Y-21235D01*
X88669Y-22197D01*
X88533Y-23228D01*
X88669Y-24260D01*
X89067Y-25222D01*
X89701Y-26048D01*
X90526Y-26681D01*
X91488Y-27079D01*
X92520Y-27215D01*
X93552Y-27079D01*
X94513Y-26681D01*
X95339Y-26048D01*
X95972Y-25222D01*
X96371Y-24260D01*
X96507Y-23228D01*
X96371Y-22197D01*
X95972Y-21235D01*
X95339Y-20409D01*
X94513Y-19776D01*
X93552Y-19377D01*
X92520Y-19241D01*
D02*
G37*
%LPD*%
G36*
X138567Y89412D02*
X138402Y89409D01*
X138243Y89395D01*
X138091Y89370D01*
X137945Y89336D01*
X137806Y89291D01*
X137674Y89235D01*
X137549Y89169D01*
X137430Y89093D01*
X137318Y89006D01*
X137212Y88909D01*
X136505Y89616D01*
X136602Y89722D01*
X136689Y89834D01*
X136765Y89953D01*
X136831Y90079D01*
X136886Y90211D01*
X136932Y90350D01*
X136966Y90495D01*
X136990Y90647D01*
X137004Y90806D01*
X137008Y90971D01*
X138567Y89412D01*
D02*
G37*
G36*
X59118Y83665D02*
X59240Y83563D01*
X59365Y83472D01*
X59492Y83394D01*
X59622Y83328D01*
X59755Y83274D01*
X59890Y83231D01*
X60028Y83201D01*
X60169Y83183D01*
X60312Y83177D01*
Y82177D01*
X60169Y82171D01*
X60028Y82153D01*
X59890Y82123D01*
X59755Y82081D01*
X59622Y82027D01*
X59492Y81960D01*
X59365Y81882D01*
X59240Y81792D01*
X59118Y81689D01*
X58999Y81575D01*
Y83780D01*
X59118Y83665D01*
D02*
G37*
G36*
X64481Y80225D02*
X64496Y80053D01*
X64521Y79901D01*
X64556Y79769D01*
X64601Y79658D01*
X64656Y79567D01*
X64721Y79496D01*
X64796Y79446D01*
X64881Y79415D01*
X64976Y79405D01*
X62976D01*
X63071Y79415D01*
X63156Y79446D01*
X63231Y79496D01*
X63296Y79567D01*
X63351Y79658D01*
X63396Y79769D01*
X63431Y79901D01*
X63456Y80053D01*
X63471Y80225D01*
X63476Y80417D01*
X64476D01*
X64481Y80225D01*
D02*
G37*
G36*
X122529Y78950D02*
X122648Y78846D01*
X122770Y78754D01*
X122895Y78674D01*
X123023Y78606D01*
X123155Y78551D01*
X123289Y78508D01*
X123422Y78478D01*
X123538Y78498D01*
X123668Y78533D01*
X123778Y78578D01*
X123868Y78633D01*
X123938Y78698D01*
X123988Y78773D01*
X124018Y78858D01*
X124028Y78953D01*
Y76953D01*
X124018Y77048D01*
X123988Y77133D01*
X123938Y77208D01*
X123868Y77273D01*
X123778Y77328D01*
X123668Y77373D01*
X123538Y77408D01*
X123405Y77430D01*
X123400Y77429D01*
X123262Y77400D01*
X123126Y77358D01*
X122992Y77305D01*
X122860Y77240D01*
X122730Y77164D01*
X122603Y77075D01*
X122478Y76975D01*
X122355Y76863D01*
X122414Y79067D01*
X122529Y78950D01*
D02*
G37*
G36*
X69008Y76559D02*
X68998Y76654D01*
X68968Y76739D01*
X68918Y76814D01*
X68848Y76879D01*
X68758Y76934D01*
X68648Y76979D01*
X68518Y77014D01*
X68368Y77039D01*
X68198Y77054D01*
X68008Y77059D01*
Y78059D01*
X68198Y78064D01*
X68368Y78079D01*
X68518Y78104D01*
X68648Y78139D01*
X68758Y78184D01*
X68848Y78239D01*
X68918Y78304D01*
X68968Y78379D01*
X68998Y78464D01*
X69008Y78559D01*
Y76559D01*
D02*
G37*
G36*
X65636Y78464D02*
X65666Y78379D01*
X65717Y78304D01*
X65788Y78239D01*
X65879Y78184D01*
X65990Y78139D01*
X66122Y78104D01*
X66273Y78079D01*
X66445Y78064D01*
X66638Y78059D01*
Y77059D01*
X66445Y77054D01*
X66273Y77039D01*
X66122Y77014D01*
X65990Y76979D01*
X65879Y76934D01*
X65788Y76879D01*
X65717Y76814D01*
X65666Y76739D01*
X65636Y76654D01*
X65626Y76559D01*
Y78559D01*
X65636Y78464D01*
D02*
G37*
G36*
X126496Y75998D02*
X126410Y75968D01*
X126336Y75917D01*
X126271Y75846D01*
X126216Y75755D01*
X126171Y75644D01*
X126136Y75512D01*
X126110Y75361D01*
X126096Y75188D01*
X126091Y74996D01*
X125091D01*
X125085Y75188D01*
X125071Y75361D01*
X125046Y75512D01*
X125011Y75644D01*
X124966Y75755D01*
X124910Y75846D01*
X124846Y75917D01*
X124771Y75968D01*
X124686Y75998D01*
X124591Y76008D01*
X126591D01*
X126496Y75998D01*
D02*
G37*
G36*
X77449Y75701D02*
X77452Y75691D01*
X77456Y75661D01*
X77459Y75611D01*
X77469Y74701D01*
X76468D01*
X76464Y74892D01*
X76449Y75064D01*
X76424Y75215D01*
X76389Y75347D01*
X76344Y75458D01*
X76288Y75549D01*
X76223Y75620D01*
X76148Y75671D01*
X76064Y75702D01*
X75968Y75713D01*
X77449Y75701D01*
D02*
G37*
G36*
X138980Y73089D02*
X138994Y72931D01*
X139018Y72778D01*
X139053Y72633D01*
X139098Y72494D01*
X139153Y72362D01*
X139219Y72237D01*
X139295Y72118D01*
X139382Y72005D01*
X139479Y71900D01*
X138772Y71193D01*
X138666Y71290D01*
X138554Y71377D01*
X138435Y71453D01*
X138310Y71519D01*
X138178Y71574D01*
X138039Y71619D01*
X137893Y71654D01*
X137741Y71678D01*
X137583Y71692D01*
X137417Y71696D01*
X138976Y73255D01*
X138980Y73089D01*
D02*
G37*
G36*
X126096Y70963D02*
X126110Y70791D01*
X126136Y70639D01*
X126171Y70508D01*
X126216Y70397D01*
X126271Y70306D01*
X126336Y70235D01*
X126410Y70184D01*
X126496Y70154D01*
X126591Y70144D01*
X124591D01*
X124686Y70154D01*
X124771Y70184D01*
X124846Y70235D01*
X124910Y70306D01*
X124966Y70397D01*
X125011Y70508D01*
X125046Y70639D01*
X125071Y70791D01*
X125085Y70963D01*
X125091Y71156D01*
X126091D01*
X126096Y70963D01*
D02*
G37*
G36*
X121634Y67986D02*
X121620Y68079D01*
X121576Y68163D01*
X121504Y68236D01*
X121402Y68300D01*
X121272Y68354D01*
X121113Y68398D01*
X120924Y68432D01*
X120707Y68457D01*
X120461Y68471D01*
X120186Y68476D01*
Y69476D01*
X120461Y69481D01*
X120924Y69520D01*
X121113Y69555D01*
X121272Y69599D01*
X121402Y69653D01*
X121504Y69717D01*
X121576Y69790D01*
X121620Y69874D01*
X121634Y69967D01*
Y67986D01*
D02*
G37*
G36*
X117210Y69881D02*
X117241Y69796D01*
X117291Y69721D01*
X117362Y69656D01*
X117453Y69601D01*
X117565Y69556D01*
X117696Y69521D01*
X117848Y69496D01*
X118020Y69481D01*
X118212Y69476D01*
Y68476D01*
X118020Y68471D01*
X117848Y68456D01*
X117696Y68431D01*
X117565Y68396D01*
X117453Y68351D01*
X117362Y68296D01*
X117291Y68231D01*
X117241Y68156D01*
X117210Y68071D01*
X117200Y67976D01*
Y69976D01*
X117210Y69881D01*
D02*
G37*
G36*
X138390Y66473D02*
X138287Y66350D01*
X138197Y66226D01*
X138118Y66098D01*
X138052Y65968D01*
X137998Y65836D01*
X137956Y65700D01*
X137926Y65562D01*
X137908Y65422D01*
X137902Y65278D01*
X136902D01*
X136896Y65422D01*
X136878Y65562D01*
X136847Y65700D01*
X136805Y65836D01*
X136751Y65968D01*
X136685Y66098D01*
X136606Y66226D01*
X136516Y66350D01*
X136414Y66473D01*
X136299Y66592D01*
X138504D01*
X138390Y66473D01*
D02*
G37*
G36*
X129561Y64874D02*
X129605Y64790D01*
X129677Y64717D01*
X129779Y64653D01*
X129909Y64599D01*
X130068Y64555D01*
X130257Y64521D01*
X130474Y64496D01*
X130720Y64481D01*
X130995Y64476D01*
Y63476D01*
X130720Y63472D01*
X130257Y63432D01*
X130068Y63398D01*
X129909Y63354D01*
X129779Y63300D01*
X129677Y63236D01*
X129605Y63162D01*
X129561Y63079D01*
X129547Y62986D01*
Y64967D01*
X129561Y64874D01*
D02*
G37*
G36*
X121634Y62986D02*
X121620Y63079D01*
X121576Y63162D01*
X121504Y63236D01*
X121402Y63300D01*
X121272Y63354D01*
X121113Y63398D01*
X120924Y63432D01*
X120707Y63457D01*
X120461Y63472D01*
X120186Y63476D01*
Y64476D01*
X120461Y64481D01*
X120924Y64521D01*
X121113Y64555D01*
X121272Y64599D01*
X121402Y64653D01*
X121504Y64717D01*
X121576Y64790D01*
X121620Y64874D01*
X121634Y64967D01*
Y62986D01*
D02*
G37*
G36*
X117210Y64881D02*
X117241Y64796D01*
X117291Y64721D01*
X117362Y64656D01*
X117453Y64601D01*
X117565Y64556D01*
X117696Y64521D01*
X117848Y64496D01*
X118020Y64481D01*
X118212Y64476D01*
Y63476D01*
X118020Y63471D01*
X117848Y63456D01*
X117696Y63431D01*
X117565Y63396D01*
X117453Y63351D01*
X117362Y63296D01*
X117291Y63231D01*
X117241Y63156D01*
X117210Y63071D01*
X117200Y62976D01*
Y64976D01*
X117210Y64881D01*
D02*
G37*
G36*
X133577Y60956D02*
X133595Y60816D01*
X133625Y60678D01*
X133667Y60542D01*
X133721Y60410D01*
X133788Y60280D01*
X133866Y60152D01*
X133956Y60027D01*
X134059Y59905D01*
X134173Y59786D01*
X131968D01*
X132083Y59905D01*
X132185Y60027D01*
X132276Y60152D01*
X132354Y60280D01*
X132420Y60410D01*
X132475Y60542D01*
X132517Y60678D01*
X132547Y60816D01*
X132565Y60956D01*
X132571Y61100D01*
X133571D01*
X133577Y60956D01*
D02*
G37*
G36*
X153350Y60567D02*
X153248Y60445D01*
X153157Y60320D01*
X153079Y60193D01*
X153013Y60063D01*
X152959Y59930D01*
X152916Y59795D01*
X152886Y59657D01*
X152868Y59516D01*
X152862Y59373D01*
X151862D01*
X151856Y59516D01*
X151838Y59657D01*
X151808Y59795D01*
X151766Y59930D01*
X151712Y60063D01*
X151645Y60193D01*
X151567Y60320D01*
X151477Y60445D01*
X151374Y60567D01*
X151260Y60686D01*
X153465D01*
X153350Y60567D01*
D02*
G37*
G36*
X118726Y58158D02*
X118632Y58057D01*
X118544Y57949D01*
X118464Y57833D01*
X118390Y57709D01*
X118322Y57578D01*
X118262Y57440D01*
X118208Y57294D01*
X118160Y57140D01*
X118086Y56811D01*
X116842Y58631D01*
X116997Y58607D01*
X117146Y58596D01*
X117291Y58600D01*
X117430Y58616D01*
X117564Y58647D01*
X117694Y58691D01*
X117818Y58750D01*
X117937Y58821D01*
X118051Y58907D01*
X118159Y59006D01*
X118726Y58158D01*
D02*
G37*
G36*
X121531Y58065D02*
X121523Y58158D01*
X121486Y58241D01*
X121421Y58315D01*
X121326Y58378D01*
X121203Y58433D01*
X121050Y58477D01*
X120869Y58511D01*
X120659Y58535D01*
X120421Y58550D01*
X120153Y58555D01*
X120218Y59555D01*
X120387Y59560D01*
X120551Y59573D01*
X120709Y59595D01*
X120861Y59626D01*
X121007Y59666D01*
X121148Y59714D01*
X121283Y59772D01*
X121413Y59838D01*
X121536Y59913D01*
X121654Y59998D01*
X121531Y58065D01*
D02*
G37*
G36*
X69669Y55906D02*
X69504Y55902D01*
X69345Y55888D01*
X69193Y55864D01*
X69048Y55829D01*
X68909Y55784D01*
X68777Y55729D01*
X68651Y55663D01*
X68532Y55586D01*
X68420Y55500D01*
X68314Y55403D01*
X67607Y56110D01*
X67704Y56215D01*
X67791Y56328D01*
X67867Y56446D01*
X67933Y56572D01*
X67989Y56704D01*
X68034Y56843D01*
X68069Y56988D01*
X68093Y57140D01*
X68107Y57299D01*
X68110Y57465D01*
X69669Y55906D01*
D02*
G37*
G36*
X121565Y53039D02*
X121551Y53122D01*
X121510Y53197D01*
X121441Y53262D01*
X121344Y53319D01*
X121220Y53367D01*
X121068Y53406D01*
X120889Y53437D01*
X120682Y53459D01*
X120186Y53476D01*
Y54476D01*
X120448Y54481D01*
X120889Y54516D01*
X121068Y54546D01*
X121220Y54586D01*
X121344Y54634D01*
X121441Y54691D01*
X121510Y54756D01*
X121551Y54831D01*
X121565Y54914D01*
Y53039D01*
D02*
G37*
G36*
X134059Y51118D02*
X133956Y50996D01*
X133866Y50871D01*
X133788Y50744D01*
X133721Y50614D01*
X133667Y50481D01*
X133625Y50346D01*
X133595Y50208D01*
X133577Y50067D01*
X133571Y49924D01*
X132571D01*
X132565Y50067D01*
X132547Y50208D01*
X132517Y50346D01*
X132475Y50481D01*
X132420Y50614D01*
X132354Y50744D01*
X132276Y50871D01*
X132185Y50996D01*
X132083Y51118D01*
X131968Y51238D01*
X134173D01*
X134059Y51118D01*
D02*
G37*
G36*
X129561Y49874D02*
X129605Y49790D01*
X129677Y49717D01*
X129779Y49653D01*
X129909Y49599D01*
X130068Y49555D01*
X130257Y49520D01*
X130474Y49496D01*
X130720Y49481D01*
X130995Y49476D01*
Y48476D01*
X130720Y48472D01*
X130257Y48432D01*
X130068Y48398D01*
X129909Y48354D01*
X129779Y48300D01*
X129677Y48236D01*
X129605Y48162D01*
X129561Y48079D01*
X129547Y47986D01*
Y49967D01*
X129561Y49874D01*
D02*
G37*
G36*
X146175Y42059D02*
X146193Y41918D01*
X146223Y41780D01*
X146266Y41645D01*
X146320Y41512D01*
X146386Y41382D01*
X146465Y41255D01*
X146555Y41130D01*
X146657Y41008D01*
X146772Y40888D01*
X144567D01*
X144681Y41008D01*
X144784Y41130D01*
X144874Y41255D01*
X144952Y41382D01*
X145019Y41512D01*
X145073Y41645D01*
X145115Y41780D01*
X145145Y41918D01*
X145163Y42059D01*
X145169Y42202D01*
X146169D01*
X146175Y42059D01*
D02*
G37*
G36*
X70279Y42063D02*
X70177Y41941D01*
X70086Y41816D01*
X70008Y41689D01*
X69942Y41559D01*
X69888Y41426D01*
X69846Y41291D01*
X69815Y41153D01*
X69797Y41012D01*
X69791Y40869D01*
X68791D01*
X68785Y41012D01*
X68767Y41153D01*
X68737Y41291D01*
X68695Y41426D01*
X68641Y41559D01*
X68575Y41689D01*
X68496Y41816D01*
X68406Y41941D01*
X68303Y42063D01*
X68189Y42182D01*
X70394D01*
X70279Y42063D01*
D02*
G37*
G36*
X115748Y39764D02*
X111904D01*
X111848Y39970D01*
X111509Y40557D01*
X111030Y41037D01*
X110443Y41376D01*
X110063Y41477D01*
X110075Y41537D01*
Y54331D01*
X115748D01*
Y39764D01*
D02*
G37*
G36*
X85735Y56687D02*
X86214Y56207D01*
X86801Y55868D01*
X87456Y55693D01*
X88134D01*
X88789Y55868D01*
X89376Y56207D01*
X89764Y56595D01*
X90151Y56207D01*
X90738Y55868D01*
X91393Y55693D01*
X92071D01*
X92726Y55868D01*
X93313Y56207D01*
X93553Y56447D01*
X95669Y54331D01*
X95850D01*
Y54315D01*
X103362D01*
Y54331D01*
X109055D01*
Y41537D01*
X108455Y41376D01*
X107868Y41037D01*
X107388Y40557D01*
X107050Y39970D01*
X106994Y39764D01*
X103362D01*
Y39779D01*
X95850D01*
Y39764D01*
X95669D01*
X92126Y36220D01*
X72835D01*
Y56924D01*
X73228Y57087D01*
X85504D01*
X85735Y56687D01*
D02*
G37*
G36*
X109650Y40566D02*
X109799Y40493D01*
X110049Y40426D01*
X110404Y40221D01*
X110693Y39931D01*
X110898Y39577D01*
X110919Y39500D01*
X110948Y39440D01*
X110961Y39374D01*
X111036Y39263D01*
X111095Y39143D01*
X111145Y39099D01*
X111182Y39043D01*
X111293Y38969D01*
X111347Y38922D01*
Y20199D01*
X110369Y19221D01*
X109927Y18560D01*
X109772Y17779D01*
Y15973D01*
X109756Y15737D01*
X109715Y15413D01*
X109663Y15160D01*
X109657Y15141D01*
X108992Y14630D01*
X108358Y13804D01*
X107960Y12843D01*
X107824Y11811D01*
X107960Y10779D01*
X108358Y9818D01*
X108992Y8992D01*
X109818Y8358D01*
X110250Y8179D01*
X110151Y7679D01*
X100074D01*
X73052Y34701D01*
X73259Y35201D01*
X92126D01*
X92516Y35278D01*
X92847Y35500D01*
X96107Y38760D01*
X103283D01*
X103362Y38744D01*
X106994D01*
X107060Y38757D01*
X107127Y38753D01*
X107254Y38796D01*
X107384Y38822D01*
X107440Y38859D01*
X107504Y38881D01*
X107604Y38969D01*
X107715Y39043D01*
X107753Y39099D01*
X107803Y39143D01*
X107862Y39263D01*
X107936Y39374D01*
X107949Y39440D01*
X107979Y39500D01*
X108000Y39577D01*
X108204Y39931D01*
X108494Y40221D01*
X108849Y40426D01*
X109319Y40552D01*
X109379Y40581D01*
X109445Y40595D01*
X109497Y40629D01*
X109650Y40566D01*
D02*
G37*
G36*
X129561Y39874D02*
X129605Y39790D01*
X129677Y39717D01*
X129779Y39653D01*
X129909Y39599D01*
X130068Y39555D01*
X130257Y39520D01*
X130474Y39496D01*
X130720Y39481D01*
X130995Y39476D01*
Y38476D01*
X130720Y38471D01*
X130257Y38432D01*
X130068Y38398D01*
X129909Y38354D01*
X129779Y38300D01*
X129677Y38236D01*
X129605Y38162D01*
X129561Y38079D01*
X129547Y37986D01*
Y39967D01*
X129561Y39874D01*
D02*
G37*
G36*
X140597Y67541D02*
Y28192D01*
X120813Y8409D01*
X120351Y8600D01*
Y27053D01*
X120851Y27284D01*
X121393Y26922D01*
X122244Y26752D01*
X128937D01*
X129788Y26922D01*
X130509Y27404D01*
X130992Y28125D01*
X131161Y28976D01*
X130992Y29827D01*
X130509Y30549D01*
X129788Y31031D01*
X128937Y31200D01*
X122244D01*
X121393Y31031D01*
X120851Y30669D01*
X120351Y30900D01*
Y32053D01*
X120851Y32284D01*
X121393Y31922D01*
X122244Y31753D01*
X128937D01*
X129788Y31922D01*
X130509Y32404D01*
X130992Y33125D01*
X131161Y33976D01*
X130992Y34827D01*
X130509Y35549D01*
X129788Y36031D01*
X128937Y36200D01*
X122244D01*
X121393Y36031D01*
X120851Y35669D01*
X120351Y35900D01*
Y37053D01*
X120851Y37284D01*
X121393Y36922D01*
X122244Y36753D01*
X128937D01*
X129788Y36922D01*
X130509Y37404D01*
X130528Y37432D01*
X130705Y37447D01*
X131890D01*
X132475Y37563D01*
X132971Y37895D01*
X138483Y43407D01*
X138814Y43903D01*
X138931Y44488D01*
Y65386D01*
X138931Y65388D01*
X138943Y65439D01*
X138958Y65491D01*
X138980Y65543D01*
X139008Y65599D01*
X139045Y65659D01*
X139092Y65723D01*
X139149Y65791D01*
X139240Y65886D01*
X139288Y65962D01*
X139462Y66136D01*
X139801Y66723D01*
X139976Y67378D01*
X140476Y67622D01*
X140597Y67541D01*
D02*
G37*
G36*
X112821Y16084D02*
X112900Y15247D01*
X112970Y14907D01*
X113059Y14619D01*
X113168Y14383D01*
X113297Y14200D01*
X113446Y14069D01*
X113615Y13991D01*
X113803Y13965D01*
X109819D01*
X110007Y13991D01*
X110176Y14069D01*
X110325Y14200D01*
X110454Y14383D01*
X110563Y14619D01*
X110652Y14907D01*
X110722Y15247D01*
X110771Y15639D01*
X110801Y16084D01*
X110811Y16581D01*
X112811D01*
X112821Y16084D01*
D02*
G37*
G36*
X66517Y1105D02*
X66420Y999D01*
X66333Y887D01*
X66257Y768D01*
X66191Y643D01*
X66135Y510D01*
X66090Y372D01*
X66055Y226D01*
X66031Y74D01*
X66017Y-85D01*
X66014Y-250D01*
X64455Y1309D01*
X64620Y1312D01*
X64779Y1326D01*
X64931Y1351D01*
X65076Y1385D01*
X65215Y1431D01*
X65347Y1486D01*
X65473Y1552D01*
X65592Y1628D01*
X65704Y1715D01*
X65810Y1812D01*
X66517Y1105D01*
D02*
G37*
G36*
X60279Y-1743D02*
X60210Y-1815D01*
X60149Y-1897D01*
X60096Y-1989D01*
X60051Y-2091D01*
X60014Y-2202D01*
X59986Y-2324D01*
X59965Y-2455D01*
X59953Y-2596D01*
X59949Y-2746D01*
X58949D01*
X58945Y-2596D01*
X58933Y-2455D01*
X58912Y-2324D01*
X58884Y-2202D01*
X58847Y-2091D01*
X58802Y-1989D01*
X58749Y-1897D01*
X58688Y-1815D01*
X58619Y-1743D01*
X58541Y-1681D01*
X60356D01*
X60279Y-1743D01*
D02*
G37*
D11*
X213779Y99705D02*
X213976D01*
X130709Y154724D02*
X135869D01*
X136221Y154373D01*
X142520Y144095D02*
Y150436D01*
X153937Y161853D01*
X162205Y161024D02*
X165779D01*
X169685Y157118D01*
X159449Y161024D02*
Y164173D01*
X157874Y165748D02*
X159449Y164173D01*
X142126Y161024D02*
X146850Y165748D01*
X157874D01*
X138976Y168504D02*
X142126Y165354D01*
X135433Y168504D02*
X138976D01*
X130709Y163779D02*
X135433Y168504D01*
X125984Y163779D02*
X130709D01*
X142126Y161024D02*
Y165354D01*
X69291Y36298D02*
Y43307D01*
Y36298D02*
X99440Y6150D01*
X142384Y127961D02*
Y128297D01*
X140620Y126197D02*
X142384Y127961D01*
X138477Y126197D02*
X140620D01*
X134052Y127697D02*
X136977D01*
X138477Y126197D01*
Y124197D02*
X140465D01*
X134052Y122697D02*
X136977D01*
X140465Y124197D02*
X142126Y122536D01*
Y122441D02*
Y122536D01*
X136977Y122697D02*
X138477Y124197D01*
X51394Y128134D02*
X52953Y126575D01*
X46817Y128134D02*
X51394D01*
X46620Y127937D02*
X46817Y128134D01*
X52953Y126575D02*
X53150D01*
X45988Y130134D02*
X51394D01*
X45791Y129937D02*
X45988Y130134D01*
X52953Y131693D02*
X53150D01*
X51394Y130134D02*
X52953Y131693D01*
X40630Y123031D02*
Y127351D01*
Y130523D02*
Y134843D01*
Y130523D02*
X41216Y129937D01*
X45791D01*
X40630Y127351D02*
X41216Y127937D01*
X46620D01*
X217717Y50032D02*
X217748Y50000D01*
X217717Y50032D02*
Y60996D01*
X135508Y83784D02*
X145669Y73622D01*
Y39764D02*
Y73622D01*
X137402Y73270D02*
X142126Y68546D01*
Y27559D02*
Y68546D01*
X117717Y3150D02*
X142126Y27559D01*
X135508Y83784D02*
Y87912D01*
X138583Y90987D01*
X197236Y88657D02*
X197822Y88071D01*
X198031D01*
X197236Y88657D02*
Y129142D01*
X193870Y78365D02*
X194882Y77353D01*
Y76772D02*
Y77353D01*
X193870Y78365D02*
Y105905D01*
X198031Y74016D02*
Y88071D01*
X193701Y69685D02*
X198031Y74016D01*
Y88071D02*
X202165D01*
X196063Y130315D02*
X197236Y129142D01*
X181535Y104783D02*
X187721D01*
X142913Y105512D02*
X143110Y105709D01*
X136516Y105512D02*
X142913D01*
X165295Y127697D02*
X165748Y128150D01*
X173622Y134646D02*
X180315Y127953D01*
X188869D02*
X190795Y126026D01*
X180315Y127953D02*
X188869D01*
X180709Y124803D02*
X184585D01*
X184646Y124743D01*
X172835Y141732D02*
X173622Y140945D01*
Y134646D02*
Y140945D01*
X168110Y141732D02*
X172835D01*
X164567Y138189D02*
X168110Y141732D01*
X148425Y138189D02*
X164567D01*
X142520Y144095D02*
X148425Y138189D01*
X170532Y134979D02*
X180709Y124803D01*
X170532Y134979D02*
Y137735D01*
X170213Y138054D02*
X170532Y137735D01*
X186535Y130315D02*
X196063D01*
X181811Y135039D02*
X186535Y130315D01*
X167997Y135394D02*
X171653Y131737D01*
Y119542D02*
Y131737D01*
X148386Y135394D02*
X167997D01*
X181496Y104823D02*
X181535Y104783D01*
X145744Y132752D02*
X148386Y135394D01*
X161447Y109335D02*
X171653Y119542D01*
X145744Y126327D02*
Y132752D01*
X146850Y120514D02*
Y125221D01*
X145744Y126327D02*
X146850Y125221D01*
X173228Y103347D02*
X173228Y103347D01*
X165748Y92955D02*
Y98032D01*
Y92913D02*
Y92955D01*
X162205Y118504D02*
X164173D01*
X165748Y120079D01*
X121260Y77953D02*
X125787D01*
X114370Y105905D02*
X122638Y97638D01*
X88976Y105905D02*
X114370D01*
X150911Y97638D02*
X161669Y86881D01*
X122638Y97638D02*
X150911D01*
X161669Y86881D02*
X165524D01*
X178347Y74058D01*
X172804Y55118D02*
X179913Y62227D01*
Y64559D01*
X172566Y55118D02*
X172804D01*
X179913Y64559D02*
X179921Y64567D01*
X118915Y59055D02*
X125512D01*
X125591Y58976D01*
X116535Y57087D02*
X116947D01*
X118915Y59055D01*
X115354Y63976D02*
X132087D01*
X133071Y62992D01*
Y58661D02*
Y62992D01*
X125591Y48976D02*
X132485D01*
X133071Y49562D01*
Y52362D01*
X131890Y38976D02*
X137402Y44488D01*
Y67716D01*
X125591Y38976D02*
X131890D01*
X152362Y35039D02*
Y61811D01*
X118898Y1575D02*
X152362Y35039D01*
X65748Y37721D02*
Y53543D01*
Y37721D02*
X98819Y4650D01*
X65748Y53543D02*
X69685Y57480D01*
X117321Y51179D02*
X120118Y53976D01*
X125591D01*
X117321Y7329D02*
Y51179D01*
X99440Y6150D02*
X116142D01*
X117321Y7329D01*
X118821Y42050D02*
X120600Y43829D01*
X118821Y6376D02*
Y42050D01*
X120600Y43829D02*
X125443D01*
X125591Y43976D01*
X98819Y4650D02*
X117095D01*
X118821Y6376D01*
X67854Y3150D02*
X117717D01*
X71653Y1575D02*
X118898D01*
X218998Y73521D02*
X220472Y72047D01*
X217717Y60996D02*
X220472Y63752D01*
Y72047D01*
X218504Y74016D02*
X218998Y73521D01*
X218504Y74016D02*
Y83858D01*
X206890Y95473D02*
Y105118D01*
Y95473D02*
X218504Y83858D01*
X155905Y97195D02*
X163220Y89881D01*
X153347Y97633D02*
X162598Y88381D01*
X169877D02*
X172441Y90945D01*
X163220Y89881D02*
X167025D01*
X155905Y97195D02*
Y105709D01*
X153347Y97633D02*
Y105709D01*
X162598Y88381D02*
X169877D01*
X153543Y90473D02*
Y90593D01*
Y90473D02*
X158378Y85638D01*
X176292Y92913D02*
X176378D01*
X171633Y94488D02*
X174717D01*
X176292Y92913D01*
X167025Y89881D02*
X171633Y94488D01*
X206693Y75787D02*
X206890Y75984D01*
X206693Y70514D02*
Y75787D01*
X64439Y-266D02*
X67854Y3150D01*
X65354Y-4724D02*
X71653Y1575D01*
X158378Y82567D02*
X158465Y82480D01*
X158378Y82567D02*
Y85638D01*
X61417Y-4724D02*
X65354D01*
X60630Y-3937D02*
Y-3928D01*
X59449Y-2746D02*
Y-394D01*
X60630Y-3937D02*
X61417Y-4724D01*
X59449Y-2746D02*
X60630Y-3928D01*
X172303Y28976D02*
X172441Y28839D01*
X119685Y160236D02*
X119882Y160039D01*
X187402Y68504D02*
Y87008D01*
X192126Y63779D02*
X196850D01*
X187402Y68504D02*
X192126Y63779D01*
X181496Y71413D02*
X195669Y57239D01*
Y36024D02*
X196260Y35433D01*
X195669Y36024D02*
Y57239D01*
X181496Y71413D02*
Y83071D01*
X201772Y68701D02*
Y75984D01*
X196850Y63779D02*
X201772Y68701D01*
X186339Y88071D02*
X187402Y87008D01*
X181496Y88071D02*
X186339D01*
X206890Y75984D02*
X213681D01*
X213779Y76083D01*
X206890Y105118D02*
X213681D01*
X213779Y105020D01*
X201772Y105118D02*
X202165Y104724D01*
Y98071D02*
Y104724D01*
Y93071D02*
Y98071D01*
X181496Y88071D02*
Y93071D01*
X165610Y122697D02*
X165748Y122835D01*
X154137Y122697D02*
X165610D01*
X165748Y120079D02*
Y122835D01*
X163266Y114492D02*
X170079Y121304D01*
Y131102D01*
X158980Y114492D02*
X163266D01*
X168504Y132677D02*
X170079Y131102D01*
X136516Y105512D02*
X136614Y105413D01*
Y100787D02*
Y105413D01*
X181496Y98071D02*
Y104823D01*
X173228Y98032D02*
X173268Y98071D01*
X181496D01*
X160630Y98032D02*
X165748D01*
X158465Y100197D02*
X160630Y98032D01*
X158465Y100197D02*
Y105709D01*
X181811Y18898D02*
X191339Y28425D01*
X191924Y35433D02*
X196260D01*
X191339Y28425D02*
Y34847D01*
X191924Y35433D01*
X170472Y14961D02*
X177874D01*
X181811Y18898D01*
X119882Y154724D02*
X130709D01*
X119685Y154921D02*
X119882Y154724D01*
X134052Y132697D02*
Y139367D01*
X134055Y139370D01*
X156053Y105856D02*
Y111565D01*
X158980Y114492D01*
X154137Y132697D02*
X154157Y132677D01*
X168504D01*
X155905Y105709D02*
X156053Y105856D01*
X154331Y113779D02*
Y117503D01*
X154137Y117697D02*
X154331Y117503D01*
X153347Y105709D02*
Y112795D01*
X154331Y113779D01*
X167717Y64961D02*
Y71653D01*
X161417Y63976D02*
X166732D01*
X167717Y64961D01*
X166535Y72835D02*
X167717Y71653D01*
X158268Y72835D02*
X166535D01*
X155905Y75197D02*
Y82480D01*
Y75197D02*
X158268Y72835D01*
X153347Y71457D02*
X155827Y68976D01*
X161417D01*
X153347Y71457D02*
Y82480D01*
X115354Y63976D02*
X115354Y63976D01*
X125591Y77756D02*
X125787Y77953D01*
X125591Y68976D02*
Y77756D01*
X115472Y68976D02*
X125591D01*
X115354Y69095D02*
X115472Y68976D01*
X22047Y54489D02*
Y67323D01*
X27306Y49230D02*
X29904D01*
X22047Y54489D02*
X27306Y49230D01*
X29904D02*
X30315Y48819D01*
X61024Y93307D02*
Y101177D01*
X61020Y101181D02*
X61024Y101177D01*
X52362Y95276D02*
X58661Y88976D01*
X74410D01*
X52362Y95276D02*
Y101181D01*
X74410Y88976D02*
X81890Y96457D01*
Y104921D01*
X81693Y105118D02*
X81890Y104921D01*
X22047Y71653D02*
Y75406D01*
X31821Y50906D02*
Y56722D01*
X30315Y49401D02*
X31821Y50906D01*
X31752Y56791D02*
X31821Y56722D01*
X63976Y77559D02*
Y81299D01*
X62598Y82677D02*
X63976Y81299D01*
X57874Y82677D02*
X62598D01*
X63976Y77559D02*
X70669D01*
X76968Y47687D02*
Y76181D01*
X75787Y77362D02*
X76968Y76181D01*
X75787Y77362D02*
Y77559D01*
X4331Y68701D02*
X4528Y68898D01*
X4331Y61811D02*
Y68701D01*
X22047Y75406D02*
X22920Y76279D01*
X26752D01*
X24803Y83858D02*
X35433D01*
X9646Y75590D02*
X16535D01*
X24803Y83858D01*
X35433D02*
X36752Y82539D01*
Y76279D02*
Y82539D01*
X25154Y81689D02*
X31166D01*
X31752Y81103D01*
Y76279D02*
Y81103D01*
X12528Y69063D02*
X25154Y81689D01*
X9843Y68898D02*
X10008Y69063D01*
X12528D01*
D22*
X213779Y99705D02*
D03*
Y105020D02*
D03*
X165748Y128150D02*
D03*
Y122835D02*
D03*
Y103347D02*
D03*
Y98032D02*
D03*
X172441Y40551D02*
D03*
Y45866D02*
D03*
Y34154D02*
D03*
Y28839D02*
D03*
X130709Y154724D02*
D03*
Y160039D02*
D03*
X119685Y154921D02*
D03*
Y160236D02*
D03*
X213779Y76083D02*
D03*
Y81398D02*
D03*
X173228Y103347D02*
D03*
Y98032D02*
D03*
X181496Y110138D02*
D03*
Y104823D02*
D03*
D23*
X134055Y139370D02*
D03*
X128937D02*
D03*
X196260Y35433D02*
D03*
X201378D02*
D03*
X206890Y75984D02*
D03*
X201772D02*
D03*
X206890Y105118D02*
D03*
X201772D02*
D03*
X196063Y130315D02*
D03*
X201181D02*
D03*
X105709Y119291D02*
D03*
X100591D02*
D03*
X43110Y94882D02*
D03*
X37992D02*
D03*
X112008Y47244D02*
D03*
X106890D02*
D03*
X63976Y77559D02*
D03*
X58858D02*
D03*
X75787D02*
D03*
X70669D02*
D03*
X9646Y75590D02*
D03*
X4528D02*
D03*
X4331Y61811D02*
D03*
X9449D02*
D03*
X41535Y87795D02*
D03*
X36417D02*
D03*
D30*
X131201Y105512D02*
D03*
X136516D02*
D03*
X131102Y77953D02*
D03*
X125787D02*
D03*
X61024Y93307D02*
D03*
X66339D02*
D03*
X36713Y44488D02*
D03*
X42028D02*
D03*
X9843Y68898D02*
D03*
X4528D02*
D03*
D37*
X53150Y126575D02*
D03*
Y131693D02*
D03*
X115354Y69095D02*
D03*
Y63976D02*
D03*
D84*
X113189Y148425D02*
X135827D01*
X147284Y159883D01*
Y161499D02*
X147638Y161853D01*
X147284Y159883D02*
Y161499D01*
X129302Y168110D02*
X134292Y173101D01*
X116929Y168110D02*
X129302D01*
X113779Y164961D02*
X116929Y168110D01*
X113681Y164862D02*
X113779Y164961D01*
X113583Y160630D02*
X113681Y160728D01*
Y164862D01*
D85*
X111811Y17779D02*
X113386Y19354D01*
Y45276D01*
X111811Y11811D02*
Y17779D01*
X154137Y122697D02*
X154206Y122766D01*
X172441Y40551D02*
X173213Y41323D01*
X177953Y44094D02*
Y47244D01*
X173213Y41323D02*
X175181D01*
X177953Y44094D01*
X179035Y40551D02*
X185827D01*
X172638Y34154D02*
X179035Y40551D01*
X177953Y47244D02*
X182890Y52181D01*
X172244Y40551D02*
X172638D01*
X182890Y53362D02*
X185827Y56299D01*
X182890Y52181D02*
Y53362D01*
X170669Y38976D02*
X172244Y40551D01*
X161417Y38976D02*
X170669D01*
X172441Y34154D02*
X172638D01*
X161487Y34046D02*
X172333D01*
X172441Y34154D01*
X161417Y33976D02*
X161487Y34046D01*
X105709Y119291D02*
X112205D01*
D86*
X107894Y81378D02*
D03*
X102382D02*
D03*
X110650Y84134D02*
D03*
X105138D02*
D03*
X99626D02*
D03*
X107894Y86890D02*
D03*
X102382D02*
D03*
X110650Y89646D02*
D03*
X105138D02*
D03*
X99626D02*
D03*
X107894Y92402D02*
D03*
X102382D02*
D03*
D87*
X193701Y69685D02*
D03*
X86614Y-5512D02*
D03*
X111811Y11811D02*
D03*
X129134Y394D02*
D03*
X140157D02*
D03*
X159055Y19291D02*
D03*
X170472Y14961D02*
D03*
X92520Y169685D02*
D03*
D88*
X214961Y67323D02*
D03*
X51968Y138583D02*
D03*
X92520Y-23228D02*
D03*
D89*
X181811Y146850D02*
D03*
Y30709D02*
D03*
X40630Y18898D02*
D03*
D90*
X181811Y135039D02*
D03*
Y18898D02*
D03*
X40630Y30709D02*
D03*
D91*
X198819Y140945D02*
D03*
Y24803D02*
D03*
X23622D02*
D03*
D92*
X111043Y180118D02*
D03*
Y-14764D02*
D03*
D93*
X40630Y111221D02*
D03*
D94*
Y123031D02*
D03*
Y134843D02*
D03*
Y146653D02*
D03*
D95*
X23622Y138189D02*
D03*
Y119685D02*
D03*
D96*
X128740Y179331D02*
D03*
X154724D02*
D03*
D97*
X215354Y159448D02*
D03*
X212401Y153543D02*
D03*
X215354Y147637D02*
D03*
X212401Y141732D02*
D03*
X215354Y135826D02*
D03*
X212401Y129921D02*
D03*
X215354Y124015D02*
D03*
X212401Y118110D02*
D03*
Y94488D02*
D03*
X215354Y5905D02*
D03*
X209449Y159448D02*
D03*
X206496Y153543D02*
D03*
X209449Y147637D02*
D03*
Y135826D02*
D03*
Y124015D02*
D03*
X206496Y118110D02*
D03*
X209449Y64960D02*
D03*
Y41338D02*
D03*
Y29527D02*
D03*
Y17716D02*
D03*
Y5905D02*
D03*
X203543Y159448D02*
D03*
X200590Y153543D02*
D03*
X203543Y124015D02*
D03*
X200590Y118110D02*
D03*
Y59055D02*
D03*
Y47244D02*
D03*
X203543Y17716D02*
D03*
X200590Y11811D02*
D03*
X197637Y159448D02*
D03*
X194685Y153543D02*
D03*
Y11811D02*
D03*
X191732Y159448D02*
D03*
X188779Y153543D02*
D03*
X191732Y147637D02*
D03*
X188779Y141732D02*
D03*
X191732Y135826D02*
D03*
X188779Y11811D02*
D03*
X185826Y159448D02*
D03*
X182874Y153543D02*
D03*
Y11811D02*
D03*
X179921Y159448D02*
D03*
X176968Y11811D02*
D03*
X174015Y159448D02*
D03*
X168110Y29527D02*
D03*
X165157Y11811D02*
D03*
X159252Y177165D02*
D03*
X162204Y171259D02*
D03*
Y-5906D02*
D03*
X159252Y-11811D02*
D03*
X153346Y188976D02*
D03*
X147441D02*
D03*
X141535D02*
D03*
X144488Y17716D02*
D03*
X141535Y11811D02*
D03*
X144488Y5905D02*
D03*
Y-5906D02*
D03*
X141535Y-11811D02*
D03*
X144488Y-17717D02*
D03*
X135630Y188976D02*
D03*
Y94488D02*
D03*
X129724Y188976D02*
D03*
Y82677D02*
D03*
X132677Y-5906D02*
D03*
X123819Y188976D02*
D03*
Y177165D02*
D03*
Y94488D02*
D03*
Y23622D02*
D03*
Y-11811D02*
D03*
Y-23622D02*
D03*
X120866Y171259D02*
D03*
X117913Y141732D02*
D03*
X120866Y135826D02*
D03*
X117913Y94488D02*
D03*
X120866Y-5906D02*
D03*
X114960Y112204D02*
D03*
Y100393D02*
D03*
Y88582D02*
D03*
Y76771D02*
D03*
X109055Y112204D02*
D03*
Y100393D02*
D03*
Y76771D02*
D03*
X106102Y70866D02*
D03*
X109055Y64960D02*
D03*
X100197Y188976D02*
D03*
Y153543D02*
D03*
X103149Y112204D02*
D03*
Y100393D02*
D03*
Y76771D02*
D03*
X100197Y70866D02*
D03*
X103149Y64960D02*
D03*
X100197Y23622D02*
D03*
Y-23622D02*
D03*
X97244Y183071D02*
D03*
X94291Y177165D02*
D03*
Y153543D02*
D03*
X97244Y135826D02*
D03*
Y112204D02*
D03*
Y100393D02*
D03*
X94291Y94488D02*
D03*
Y82677D02*
D03*
X97244Y76771D02*
D03*
X94291Y70866D02*
D03*
X97244Y-17717D02*
D03*
X88385Y177165D02*
D03*
Y165354D02*
D03*
X91338Y112204D02*
D03*
Y100393D02*
D03*
X88385Y94488D02*
D03*
X91338Y88582D02*
D03*
X88385Y82677D02*
D03*
X91338Y76771D02*
D03*
X88385Y70866D02*
D03*
Y-11811D02*
D03*
X82480Y188976D02*
D03*
X85433Y171259D02*
D03*
X82480Y165354D02*
D03*
X85433Y159448D02*
D03*
Y135826D02*
D03*
X82480Y-11811D02*
D03*
X85433Y-17717D02*
D03*
X79527Y171259D02*
D03*
X76574Y165354D02*
D03*
X79527Y159448D02*
D03*
X76574Y11811D02*
D03*
X70669Y177165D02*
D03*
X73622Y159448D02*
D03*
X70669Y153543D02*
D03*
Y118110D02*
D03*
Y82677D02*
D03*
X73622Y17716D02*
D03*
X70669Y-23622D02*
D03*
X64763Y188976D02*
D03*
X67716Y183071D02*
D03*
X64763Y177165D02*
D03*
X67716Y159448D02*
D03*
Y147637D02*
D03*
Y135826D02*
D03*
Y124015D02*
D03*
X64763Y-11811D02*
D03*
X61811Y171259D02*
D03*
X58858Y165354D02*
D03*
X61811Y147637D02*
D03*
X58858Y141732D02*
D03*
X61811Y53149D02*
D03*
X55905Y147637D02*
D03*
X47047Y118110D02*
D03*
X50000Y76771D02*
D03*
X47047Y70866D02*
D03*
X50000Y17716D02*
D03*
X47047Y11811D02*
D03*
X50000Y5905D02*
D03*
X44094Y159448D02*
D03*
Y64960D02*
D03*
X41141Y11811D02*
D03*
X44094Y5905D02*
D03*
X38189Y159448D02*
D03*
X35236Y118110D02*
D03*
Y35433D02*
D03*
Y11811D02*
D03*
X38189Y5905D02*
D03*
X32283Y159448D02*
D03*
X29330Y129921D02*
D03*
X32283Y124015D02*
D03*
Y112204D02*
D03*
X29330Y35433D02*
D03*
X32283Y29527D02*
D03*
Y17716D02*
D03*
X29330Y11811D02*
D03*
X32283Y5905D02*
D03*
X26378Y159448D02*
D03*
X23425Y47244D02*
D03*
X26378Y41338D02*
D03*
X23425Y35433D02*
D03*
Y11811D02*
D03*
X26378Y5905D02*
D03*
X20472Y159448D02*
D03*
X17519Y82677D02*
D03*
Y47244D02*
D03*
X20472Y41338D02*
D03*
X17519Y35433D02*
D03*
Y11811D02*
D03*
X20472Y5905D02*
D03*
X14567Y159448D02*
D03*
X11614Y82677D02*
D03*
Y47244D02*
D03*
X14567Y41338D02*
D03*
X11614Y35433D02*
D03*
X14567Y29527D02*
D03*
X11614Y23622D02*
D03*
X14567Y17716D02*
D03*
X11614Y11811D02*
D03*
X14567Y5905D02*
D03*
X8661Y159448D02*
D03*
X5708Y153543D02*
D03*
Y141732D02*
D03*
Y129921D02*
D03*
Y118110D02*
D03*
Y47244D02*
D03*
X8661Y41338D02*
D03*
X5708Y35433D02*
D03*
X8661Y29527D02*
D03*
X5708Y23622D02*
D03*
X8661Y17716D02*
D03*
X5708Y11811D02*
D03*
X8661Y5905D02*
D03*
X66339Y152601D02*
D03*
X148819Y127601D02*
D03*
X109055Y165790D02*
D03*
X142126Y161024D02*
D03*
X119685Y165003D02*
D03*
X134292Y173101D02*
D03*
X136221Y154373D02*
D03*
X147638Y161853D02*
D03*
X169685Y157118D02*
D03*
X113779Y164961D02*
D03*
X148819Y185039D02*
D03*
X144095D02*
D03*
X139370D02*
D03*
X134252D02*
D03*
X143626Y-26453D02*
D03*
X127165Y101575D02*
D03*
X141339Y133465D02*
D03*
X84252Y124803D02*
D03*
X90158D02*
D03*
X94095D02*
D03*
X49213Y96850D02*
D03*
X99606Y63386D02*
D03*
X91732Y58268D02*
D03*
X87795D02*
D03*
X80709Y29528D02*
D03*
Y33465D02*
D03*
X61811Y57480D02*
D03*
X54331Y72835D02*
D03*
Y77559D02*
D03*
X53150Y89764D02*
D03*
X51181Y112992D02*
D03*
Y119291D02*
D03*
X31496Y102362D02*
D03*
X27953D02*
D03*
X24409D02*
D03*
X13386Y61811D02*
D03*
X10236Y102756D02*
D03*
Y106299D02*
D03*
Y109843D02*
D03*
Y95669D02*
D03*
Y92126D02*
D03*
Y88583D02*
D03*
X4331Y81102D02*
D03*
X3150Y57366D02*
D03*
Y53937D02*
D03*
X109449Y38976D02*
D03*
X69291Y43307D02*
D03*
X90551Y186221D02*
D03*
X142384Y128297D02*
D03*
X74016Y185827D02*
D03*
X142126Y122441D02*
D03*
X120472Y119291D02*
D03*
X137008Y110630D02*
D03*
X129921D02*
D03*
X184252Y64173D02*
D03*
X189370Y17365D02*
D03*
X217748Y50000D02*
D03*
X145669Y39764D02*
D03*
X138583Y86263D02*
D03*
X134646Y77995D02*
D03*
X194882Y76772D02*
D03*
X138583Y90987D02*
D03*
X193870Y105905D02*
D03*
X187721Y104783D02*
D03*
X180315Y118504D02*
D03*
X181496Y114526D02*
D03*
X184646Y124743D02*
D03*
X170213Y138054D02*
D03*
X190795Y126026D02*
D03*
X161447Y109335D02*
D03*
X146850Y120514D02*
D03*
X172441Y24772D02*
D03*
X147638Y9449D02*
D03*
X148031Y22483D02*
D03*
X162205Y118546D02*
D03*
X88976Y105905D02*
D03*
X178347Y74058D02*
D03*
X175570Y64592D02*
D03*
X179921Y64567D02*
D03*
X172566Y55118D02*
D03*
X172441Y50000D02*
D03*
X116535Y57087D02*
D03*
X133071Y52362D02*
D03*
Y58661D02*
D03*
X137402Y67716D02*
D03*
X152362Y61811D02*
D03*
X69685Y57480D02*
D03*
X138583Y16577D02*
D03*
X153543Y90593D02*
D03*
X172441Y90945D02*
D03*
X165748Y92955D02*
D03*
X176378Y92913D02*
D03*
X206693Y70514D02*
D03*
X77165Y6693D02*
D03*
X109055Y20079D02*
D03*
X121260Y77995D02*
D03*
X59449Y-394D02*
D03*
X64439Y-266D02*
D03*
X137402Y73270D02*
D03*
X74410Y122441D02*
D03*
X205512Y35475D02*
D03*
X206299Y130357D02*
D03*
X218898Y95318D02*
D03*
X207874Y82326D02*
D03*
X217717Y117759D02*
D03*
X158460Y-17515D02*
D03*
X130709Y-15312D02*
D03*
X138583Y9449D02*
D03*
X79289Y-5906D02*
D03*
X88976Y145318D02*
D03*
X122835Y142955D02*
D03*
X64173Y-21218D02*
D03*
X136614Y100787D02*
D03*
X125984Y163779D02*
D03*
X136614Y163808D02*
D03*
X153937Y161853D02*
D03*
X44957Y76453D02*
D03*
X29921Y69291D02*
D03*
X34252Y63779D02*
D03*
Y69291D02*
D03*
X38583Y63779D02*
D03*
Y69291D02*
D03*
X22047Y67323D02*
D03*
X109449Y134688D02*
D03*
X112205Y119291D02*
D03*
X3150Y114567D02*
D03*
X6693D02*
D03*
X22047Y71653D02*
D03*
X53937Y13780D02*
D03*
X59055D02*
D03*
X64173D02*
D03*
X69291D02*
D03*
X53937Y20866D02*
D03*
X59055D02*
D03*
X64173D02*
D03*
X69291D02*
D03*
X30315Y48819D02*
D03*
X29921Y63779D02*
D03*
X57874Y82677D02*
D03*
D98*
X151181Y152975D02*
D03*
X154243Y149913D02*
D03*
X157306Y146850D02*
D03*
X148119Y149913D02*
D03*
X151181Y146850D02*
D03*
X154243Y143788D02*
D03*
X145057Y146850D02*
D03*
X148119Y143788D02*
D03*
X151181Y140726D02*
D03*
D99*
X158465Y82480D02*
D03*
X155905D02*
D03*
X153347D02*
D03*
X150787D02*
D03*
X148228D02*
D03*
X145669D02*
D03*
X143110D02*
D03*
X158465Y105709D02*
D03*
X155905Y105709D02*
D03*
X153347Y105709D02*
D03*
X150787Y105709D02*
D03*
X148228Y105709D02*
D03*
X145669Y105709D02*
D03*
X143110Y105709D02*
D03*
D100*
X76968Y47687D02*
D03*
X52165Y47589D02*
D03*
D101*
X181496Y83071D02*
D03*
Y88071D02*
D03*
Y93071D02*
D03*
Y98071D02*
D03*
X202165Y83071D02*
D03*
Y88071D02*
D03*
Y93071D02*
D03*
Y98071D02*
D03*
D102*
X134052Y132697D02*
D03*
Y127697D02*
D03*
Y122697D02*
D03*
Y117697D02*
D03*
X154137Y117697D02*
D03*
Y122697D02*
D03*
Y127697D02*
D03*
D103*
X154137Y132697D02*
D03*
D104*
X185827Y40551D02*
D03*
Y56299D02*
D03*
D105*
X161417Y68976D02*
D03*
Y63976D02*
D03*
Y58976D02*
D03*
X161417Y53976D02*
D03*
X161417Y48976D02*
D03*
Y43976D02*
D03*
Y38976D02*
D03*
Y33976D02*
D03*
X161417Y28976D02*
D03*
X125591Y68976D02*
D03*
Y63976D02*
D03*
Y58976D02*
D03*
Y53976D02*
D03*
Y48976D02*
D03*
Y43976D02*
D03*
Y38976D02*
D03*
Y33976D02*
D03*
Y28976D02*
D03*
D106*
X92126Y119488D02*
D03*
Y130905D02*
D03*
X81890Y119488D02*
D03*
Y130905D02*
D03*
D107*
X81693Y105118D02*
D03*
X69685D02*
D03*
D108*
X52362Y101181D02*
D03*
X52362Y104921D02*
D03*
Y108661D02*
D03*
X61020D02*
D03*
Y104921D02*
D03*
X61020Y101181D02*
D03*
D109*
X27953Y96457D02*
D03*
Y107480D02*
D03*
X88583Y51968D02*
D03*
Y62992D02*
D03*
Y42126D02*
D03*
Y31102D02*
D03*
D110*
X99606Y42520D02*
D03*
Y36220D02*
D03*
Y51575D02*
D03*
Y57874D02*
D03*
D111*
X54528Y68110D02*
D03*
X65945D02*
D03*
D112*
X34252Y66535D02*
D03*
D113*
X41752Y76279D02*
D03*
X36752D02*
D03*
X31752D02*
D03*
X26752D02*
D03*
Y56791D02*
D03*
X31752D02*
D03*
X36752D02*
D03*
X41752D02*
D03*
D114*
X16535Y92126D02*
D03*
X5512D02*
D03*
X16535Y106299D02*
D03*
X5512D02*
D03*
D115*
X159449Y161024D02*
D03*
X162205D02*
D03*
X110827Y160630D02*
D03*
X113583D02*
D03*
X110827Y148425D02*
D03*
X113583D02*
D03*
M02*
